<?xml version="1.0" encoding="UTF-8"?>
<svg xmlns="http://www.w3.org/2000/svg" width="1048.0714285714284" height="2410" viewBox="-88 -88 1048.0714285714284 2410">
<defs><marker id="arrow-triangle" markerWidth="10" markerHeight="10" refX="10" refY="5" orient="auto" markerUnits="strokeWidth"><path d="M0,0 L10,5 L0,10 Z" fill="#0A0F25"/></marker>
<marker id="arrow-triangle-reverse" markerWidth="10" markerHeight="10" refX="0" refY="5" orient="auto" markerUnits="strokeWidth"><path d="M10,0 L0,5 L10,10 Z" fill="#0A0F25"/></marker>
<marker id="arrow-diamond" markerWidth="10" markerHeight="10" refX="10" refY="5" orient="auto" markerUnits="strokeWidth"><path d="M0,5 L5,0 L10,5 L5,10 Z" fill="#0A0F25"/></marker>
<marker id="arrow-diamond-reverse" markerWidth="10" markerHeight="10" refX="0" refY="5" orient="auto" markerUnits="strokeWidth"><path d="M0,5 L5,0 L10,5 L5,10 Z" fill="#0A0F25"/></marker>
<marker id="arrow-circle" markerWidth="10" markerHeight="10" refX="6" refY="5" orient="auto" markerUnits="strokeWidth"><circle cx="5" cy="5" r="4" fill="#0A0F25"/></marker>
<marker id="arrow-circle-reverse" markerWidth="10" markerHeight="10" refX="4" refY="5" orient="auto" markerUnits="strokeWidth"><circle cx="5" cy="5" r="4" fill="#0A0F25"/></marker>
<marker id="arrow-cf-one" markerWidth="10" markerHeight="10" refX="10" refY="5" orient="auto" markerUnits="strokeWidth"><line x1="10" y1="0" x2="10" y2="10" stroke="#0A0F25" stroke-width="2"/></marker>
<marker id="arrow-cf-one-reverse" markerWidth="10" markerHeight="10" refX="0" refY="5" orient="auto" markerUnits="strokeWidth"><line x1="0" y1="0" x2="0" y2="10" stroke="#0A0F25" stroke-width="2"/></marker>
<marker id="arrow-cf-many" markerWidth="10" markerHeight="10" refX="10" refY="5" orient="auto" markerUnits="strokeWidth"><path d="M0,5 L10,0 M0,5 L10,5 M0,5 L10,10" stroke="#0A0F25" stroke-width="2" fill="none"/></marker>
<marker id="arrow-cf-many-reverse" markerWidth="10" markerHeight="10" refX="0" refY="5" orient="auto" markerUnits="strokeWidth"><path d="M10,5 L0,0 M10,5 L0,5 M10,5 L0,10" stroke="#0A0F25" stroke-width="2" fill="none"/></marker>
<marker id="arrow-cf-one-required" markerWidth="10" markerHeight="10" refX="10" refY="5" orient="auto" markerUnits="strokeWidth"><line x1="10" y1="0" x2="10" y2="10" stroke="#0A0F25" stroke-width="2"/><line x1="7" y1="0" x2="7" y2="10" stroke="#0A0F25" stroke-width="2"/></marker>
<marker id="arrow-cf-one-required-reverse" markerWidth="10" markerHeight="10" refX="0" refY="5" orient="auto" markerUnits="strokeWidth"><line x1="0" y1="0" x2="0" y2="10" stroke="#0A0F25" stroke-width="2"/><line x1="3" y1="0" x2="3" y2="10" stroke="#0A0F25" stroke-width="2"/></marker>
<marker id="arrow-cf-many-required" markerWidth="10" markerHeight="10" refX="10" refY="5" orient="auto" markerUnits="strokeWidth"><path d="M0,5 L10,0 M0,5 L10,5 M0,5 L10,10" stroke="#0A0F25" stroke-width="2" fill="none"/><line x1="3" y1="0" x2="3" y2="10" stroke="#0A0F25" stroke-width="2"/></marker>
<marker id="arrow-cf-many-required-reverse" markerWidth="10" markerHeight="10" refX="0" refY="5" orient="auto" markerUnits="strokeWidth"><path d="M10,5 L0,0 M10,5 L0,5 M10,5 L0,10" stroke="#0A0F25" stroke-width="2" fill="none"/><line x1="7" y1="0" x2="7" y2="10" stroke="#0A0F25" stroke-width="2"/></marker>
<marker id="arrow-cf-one-optional" markerWidth="10" markerHeight="10" refX="10" refY="5" orient="auto" markerUnits="strokeWidth"><line x1="10" y1="0" x2="10" y2="10" stroke="#0A0F25" stroke-width="2"/><circle cx="7" cy="5" r="2" stroke="#0A0F25" stroke-width="2" fill="white"/></marker>
<marker id="arrow-cf-one-optional-reverse" markerWidth="10" markerHeight="10" refX="0" refY="5" orient="auto" markerUnits="strokeWidth"><line x1="0" y1="0" x2="0" y2="10" stroke="#0A0F25" stroke-width="2"/><circle cx="3" cy="5" r="2" stroke="#0A0F25" stroke-width="2" fill="white"/></marker>
<marker id="arrow-cf-many-optional" markerWidth="10" markerHeight="10" refX="10" refY="5" orient="auto" markerUnits="strokeWidth"><path d="M0,5 L10,0 M0,5 L10,5 M0,5 L10,10" stroke="#0A0F25" stroke-width="2" fill="none"/><circle cx="3" cy="5" r="2" stroke="#0A0F25" stroke-width="2" fill="white"/></marker>
<marker id="arrow-cf-many-optional-reverse" markerWidth="10" markerHeight="10" refX="0" refY="5" orient="auto" markerUnits="strokeWidth"><path d="M10,5 L0,0 M10,5 L0,5 M10,5 L0,10" stroke="#0A0F25" stroke-width="2" fill="none"/><circle cx="7" cy="5" r="2" stroke="#0A0F25" stroke-width="2" fill="white"/></marker>
<marker id="arrow-line" markerWidth="10" markerHeight="10" refX="10" refY="5" orient="auto" markerUnits="strokeWidth"><line x1="10" y1="0" x2="10" y2="10" stroke="#0A0F25" stroke-width="2"/></marker>
<marker id="arrow-line-reverse" markerWidth="10" markerHeight="10" refX="0" refY="5" orient="auto" markerUnits="strokeWidth"><line x1="0" y1="0" x2="0" y2="10" stroke="#0A0F25" stroke-width="2"/></marker>
<marker id="arrow-open" markerWidth="10" markerHeight="10" refX="10" refY="5" orient="auto" markerUnits="strokeWidth"><path d="M0,0 L10,5 L0,10" stroke="#0A0F25" stroke-width="2" fill="none"/></marker>
<marker id="arrow-open-reverse" markerWidth="10" markerHeight="10" refX="0" refY="5" orient="auto" markerUnits="strokeWidth"><path d="M10,0 L0,5 L10,10" stroke="#0A0F25" stroke-width="2" fill="none"/></marker>
<marker id="arrow" markerWidth="10" markerHeight="10" refX="10" refY="5" orient="auto" markerUnits="strokeWidth"><path d="M0,0 L10,5 L0,10 Z" fill="#0A0F25"/></marker>
<marker id="arrow-reverse" markerWidth="10" markerHeight="10" refX="0" refY="5" orient="auto" markerUnits="strokeWidth"><path d="M10,0 L0,5 L10,10 Z" fill="#0A0F25"/></marker>
</defs>
<rect width="100%" height="100%" fill="#FFFFFF"/>
<g id="base-layer">
<rect x="12" y="12" width="354" height="76" fill="#FFFFFF" stroke="#0A0F25" stroke-width="2" rx="0" ry="0"/>
<path d="M 440 88 H 386 v -0.937984496124031 c 0 -11.25581395348837 5.929721815519766 -21.4031007751938 15.259150805270865 -26.26356589147287 C 396.1200585651537 56.87596899224806 393.03660322108345 50.48062015503876 393.03660322108345 43.48837209302326 C 393.03660322108345 31.63565891472868 401.97071742313324 22 412.96046852122987 22 c 10.989751098096633 0 19.923865300146414 9.635658914728682 19.923865300146414 21.488372093023255 c 0 6.992248062015503 -3.0043923865300144 13.302325581395348 -8.222547584187408 17.3953488372093 c 9.329428989751099 4.8604651162790695 15.259150805270865 15.007751937984496 15.259150805270865 26.26356589147287 v 0.8527131782945736 Z" fill="#FFFFFF" stroke="#0A0F25" stroke-width="2"/>
<path d="M 382.2045995203837 187.36514722753347 C 382.2045995203837 188.25750669216063 381.59170743405275 189.14970554493308 380.9789256594724 189.14970554493308 C 373.1652134292566 190.26499426386235 367.0367338129496 201.6417743785851 367.0367338129496 215.47222179732313 C 367.0367338129496 230.19502868068832 373.9312182254196 242.01782791587 382.6642685851318 242.01782791587 H 441.95683453237405 C 451.3027769784172 242.01782791587 458.9632661870503 229.3026692160612 458.9632661870503 213.9107533460803 C 458.9632661870503 199.1879464627151 451.91544844124695 186.91896749521987 443.0293956834532 186.02676864244742 C 442.41650359712224 186.02676864244742 441.8037218225419 185.35749904397707 441.65049880095916 184.2422103250478 C 439.6587098321342 169.2964741873805 430.46599040767376 158.14278393881455 419.7413717026378 158.14278393881455 C 412.69366426858505 158.14278393881455 406.4119616306954 162.82734990439772 402.4286043165467 170.188673040153 C 401.9689352517985 171.08103250478015 401.2029304556354 171.30412237093694 400.7432613908872 171.08103250478015 C 399.21114148681045 170.188673040153 397.5259088729016 169.7426539196941 395.6873429256594 169.7426539196941 C 388.6395251798561 169.51940344168258 382.8174916067146 177.32690630975142 382.2045995203837 187.36514722753347 Z" fill="#e3f2fd" stroke="#0A0F25" stroke-width="2"/>
<polygon points="365.75,312 460.25,312 507.5,346.5 460.25,381 365.75,381 318.5,346.5" fill="#fff3e0" stroke="#0A0F25" stroke-width="2"/>
<rect x="137.5" y="466" width="551" height="166" fill="#e8f5e9" stroke="#0A0F25" stroke-width="2" rx="0" ry="0"/>
<rect x="249.79523809523806" y="722" width="390" height="246" fill="#f3e5f5" stroke="#0A0F25" stroke-width="2" rx="0" ry="0"/>
<path d="M 257.64285714285717 1227 C 257.64285714285717 1203 315.6928571428572 1203 322.14285714285717 1203 C 328.59285714285716 1203 386.64285714285717 1203 386.64285714285717 1227 L 386.64285714285717 1297 C 386.64285714285717 1321 328.59285714285716 1321 322.14285714285717 1321 C 315.6928571428572 1321 257.64285714285717 1321 257.64285714285717 1297 L 257.64285714285717 1227 Z" fill="#ffebee" stroke="#0A0F25" stroke-width="2"/>
<ellipse cx="322.14285714285717" cy="1227" rx="64.5" ry="24" fill="none" stroke="none" stroke-width="0"/>
<path d="M 257.64285714285717 1227 C 257.64285714285717 1251 315.6928571428572 1251 322.14285714285717 1251 C 328.59285714285716 1251 386.64285714285717 1251 386.64285714285717 1227" fill="none" stroke="#0A0F25" stroke-width="2"/>
<rect x="196.14285714285717" y="1712" width="336" height="510" fill="#fff8e1" stroke="#0A0F25" stroke-width="2" rx="0" ry="0"/>
<path d="M 575.2380952380952 1229 L 750.2380952380952 1229 C 758.4880952380952 1229 765.2380952380952 1245.5 765.2380952380952 1262 C 765.2380952380952 1278.5 758.4880952380952 1295 750.2380952380952 1295 L 575.2380952380952 1295 C 566.9880952380952 1295 560.2380952380952 1278.5 560.2380952380952 1262 C 560.2380952380952 1245.5 566.9880952380952 1229 575.2380952380952 1229 Z" fill="#e0f2f1" stroke="#0A0F25" stroke-width="2"/>
<rect x="494.73809523809524" y="1406" width="336" height="166" fill="#fce4ec" stroke="#0A0F25" stroke-width="2" rx="0" ry="0"/>
<path d="M 705.0714285714286 1712 L 845.0714285714286 1712 C 856.0214285714286 1712 860.0714285714286 1728.5 860.0714285714286 1745 C 860.0714285714286 1761.5 856.0214285714286 1778 845.0714285714286 1778 L 705.0714285714286 1778 C 694.1214285714285 1778 690.0714285714286 1761.5 690.0714285714286 1745 C 690.0714285714286 1728.5 694.1214285714285 1712 705.0714285714286 1712 Z" fill="#f5f5f5" stroke="#0A0F25" stroke-width="2"/>
<rect x="501.5" y="516" width="137" height="66" fill="#FFFFFF" stroke="#0A0F25" stroke-width="2" rx="0" ry="0"/>
<path d="M 301.64285714285717 1786 C 301.64285714285717 1762 357.89285714285717 1762 364.14285714285717 1762 C 370.39285714285717 1762 426.64285714285717 1762 426.64285714285717 1786 L 426.64285714285717 1856 C 426.64285714285717 1880 370.39285714285717 1880 364.14285714285717 1880 C 357.89285714285717 1880 301.64285714285717 1880 301.64285714285717 1856 L 301.64285714285717 1786 Z" fill="#FFFFFF" stroke="#0A0F25" stroke-width="2"/>
<ellipse cx="364.14285714285717" cy="1786" rx="62.5" ry="24" fill="none" stroke="none" stroke-width="0"/>
<path d="M 301.64285714285717 1786 C 301.64285714285717 1810 357.89285714285717 1810 364.14285714285717 1810 C 370.39285714285717 1810 426.64285714285717 1810 426.64285714285717 1786" fill="none" stroke="#0A0F25" stroke-width="2"/>
<path d="M 246.14285714285717 2078 C 246.14285714285717 2054 294.7428571428572 2054 300.14285714285717 2054 C 305.54285714285714 2054 354.14285714285717 2054 354.14285714285717 2078 L 354.14285714285717 2148 C 354.14285714285717 2172 305.54285714285714 2172 300.14285714285717 2172 C 294.7428571428572 2172 246.14285714285717 2172 246.14285714285717 2148 L 246.14285714285717 2078 Z" fill="#FFFFFF" stroke="#0A0F25" stroke-width="2"/>
<ellipse cx="300.14285714285717" cy="2078" rx="54" ry="24" fill="none" stroke="none" stroke-width="0"/>
<path d="M 246.14285714285717 2078 C 246.14285714285717 2102 294.7428571428572 2102 300.14285714285717 2102 C 305.54285714285714 2102 354.14285714285717 2102 354.14285714285717 2078" fill="none" stroke="#0A0F25" stroke-width="2"/>
<path d="M 374.14285714285717 2078 C 374.14285714285717 2054 422.7428571428572 2054 428.14285714285717 2054 C 433.54285714285714 2054 482.14285714285717 2054 482.14285714285717 2078 L 482.14285714285717 2148 C 482.14285714285717 2172 433.54285714285714 2172 428.14285714285717 2172 C 422.7428571428572 2172 374.14285714285717 2172 374.14285714285717 2148 L 374.14285714285717 2078 Z" fill="#FFFFFF" stroke="#0A0F25" stroke-width="2"/>
<ellipse cx="428.14285714285717" cy="2078" rx="54" ry="24" fill="none" stroke="none" stroke-width="0"/>
<path d="M 374.14285714285717 2078 C 374.14285714285717 2102 422.7428571428572 2102 428.14285714285717 2102 C 433.54285714285714 2102 482.14285714285717 2102 482.14285714285717 2078" fill="none" stroke="#0A0F25" stroke-width="2"/>
<rect x="187.5" y="516" width="137" height="66" fill="#FFFFFF" stroke="#0A0F25" stroke-width="2" rx="0" ry="0"/>
<rect x="299.79523809523806" y="772" width="135" height="66" fill="#FFFFFF" stroke="#0A0F25" stroke-width="2" rx="0" ry="0"/>
<rect x="544.7380952380952" y="1456" width="108" height="66" fill="#FFFFFF" stroke="#0A0F25" stroke-width="2" rx="0" ry="0"/>
<rect x="672.7380952380952" y="1456" width="108" height="66" fill="#FFFFFF" stroke="#0A0F25" stroke-width="2" rx="0" ry="0"/>
<rect x="454.79523809523806" y="772" width="135" height="66" fill="#FFFFFF" stroke="#0A0F25" stroke-width="2" rx="0" ry="0"/>
<rect x="344.5" y="516" width="137" height="66" fill="#FFFFFF" stroke="#0A0F25" stroke-width="2" rx="0" ry="0"/>
<path d="M 413 88 L 413 158" fill="none" stroke="#0A0F25" stroke-width="2" marker-end="url(#arrow-triangle)"/>
<path d="M 413 242 L 413 312" fill="none" stroke="#0A0F25" stroke-width="2" marker-end="url(#arrow-triangle)"/>
<path d="M 460.25 381 L 460.25 411 A 10 10 0 0 1 450.25 421 L 285.1943765515994 421 A 9.944376551599401 9.944376551599401 0 0 1 265.625 418.5 L 265.625 418.5 A 9.944376551599401 9.944376551599401 0 0 0 256 425.9443765515994 L 256 516" fill="none" stroke="#0A0F25" stroke-width="2" marker-end="url(#arrow-triangle)"/>
<path d="M 413 381 L 413 516" fill="none" stroke="#0A0F25" stroke-width="2" marker-end="url(#arrow-triangle)"/>
<path d="M 365.75 381 L 365.75 411 A 10 10 0 0 0 375.75 421 L 540.8056234484006 421 A 9.944376551599401 9.944376551599401 0 0 0 560.375 418.5 L 560.375 418.5 A 9.944376551599401 9.944376551599401 0 0 1 570 425.9443765515994 L 570 516" fill="none" stroke="#0A0F25" stroke-width="2" marker-end="url(#arrow-triangle)"/>
<path d="M 256 582 L 568.4182049034914 630.4669880396357 A 10 10 0 0 1 578.3 642 L 578.3 662 A 10 10 0 0 1 568.3 672 L 327.79523809523806 672 L 336.29523809523806 672 A 8.5 8.5 0 0 1 344.79523809523806 680.5 L 344.79523809523806 772" fill="none" stroke="#0A0F25" stroke-width="2" marker-end="url(#arrow-triangle)"/>
<path d="M 435.83333333333337 582 L 462.6777106352549 623.597692100085 A 10 10 0 0 1 468.1 642 L 468.1 662 A 10 10 0 0 1 458.1 672 L 405.79523809523806 672 L 397.79523809523806 672 A 8 8 0 0 0 389.79523809523806 680 L 389.79523809523806 772" fill="none" stroke="#0A0F25" stroke-width="2" marker-end="url(#arrow-triangle)"/>
<path d="M 390.1666666666667 582 L 363.3222893647451 623.597692100085 A 10 10 0 0 0 357.9 642 L 357.9 662 A 10 10 0 0 0 367.9 672 L 483.79523809523806 672 L 491.79523809523806 672 A 8 8 0 0 1 499.79523809523806 680 L 499.79523809523806 772" fill="none" stroke="#0A0F25" stroke-width="2" marker-end="url(#arrow-triangle)"/>
<path d="M 570 582 L 257.58179509650853 630.4669880396357 A 10 10 0 0 0 247.7 642 L 247.7 662 A 10 10 0 0 0 257.7 672 L 561.7952380952381 672 L 553.2952380952381 672 A 8.5 8.5 0 0 0 544.7952380952381 680.5 L 544.7952380952381 772" fill="none" stroke="#0A0F25" stroke-width="2" marker-end="url(#arrow-triangle)"/>
<path d="M 401.04523809523806 838 L 415.72460240412096 958.0739013131093 A 10 10 0 0 1 416.93809523809523 978 L 416.93809523809523 998 A 10 10 0 0 1 406.93809523809523 1008 L 310.64285714285717 1008 A 10 10 0 0 0 300.64285714285717 1018 L 300.64285714285717 1203" fill="none" stroke="#0A0F25" stroke-width="2" marker-end="url(#arrow-triangle)"/>
<path d="M 556.0452380952381 838 L 369.54196577193335 962.4494796071181 A 10 10 0 0 0 361.2238095238095 978 L 361.2238095238095 999.2095238095238 A 8.79047619047617 8.79047619047617 0 0 1 352.43333333333334 1008 L 352.43333333333334 1008 A 8.79047619047617 8.79047619047617 0 0 0 343.64285714285717 1016.7904761904762 L 343.64285714285717 1203" fill="none" stroke="#0A0F25" stroke-width="2" marker-end="url(#arrow-triangle)"/>
<path d="M 367.29523809523806 838 L 466.3561017263502 960.2310317346604 A 10 10 0 0 1 471.10624954470654 977.8797508911006 L 428.1889885505315 1252.1202491088993 A 10 10 0 0 0 426.64285714285717 1272 L 426.64285714285717 1479 A 10 10 0 0 1 421.87838855348684 1497.7920327035847 L 337.6573257322275 1653.2079672964153 A 10 10 0 0 0 332.89285714285717 1672 L 332.89285714285717 1762" fill="none" stroke="#0A0F25" stroke-width="2" marker-end="url(#arrow-triangle)"/>
<path d="M 522.2952380952381 838 L 314.08569947288174 962.8571203600292 A 10 10 0 0 0 302.6460126491489 977.5812475092969 L 220.50636830323208 1252.4187524907031 A 10 10 0 0 0 217.64285714285717 1272 L 217.64285714285717 1479 A 10 10 0 0 0 224.1052452125005 1496.6313524644936 L 357.6804690732138 1654.3686475355064 A 10 10 0 0 1 364.14285714285717 1672 L 364.14285714285717 1762" fill="none" stroke="#0A0F25" stroke-width="2" marker-end="url(#arrow-triangle)"/>
<path d="M 333.54523809523806 838 L 575.2047479958362 963.3942431985997 A 10 10 0 0 1 584.0809523809523 978 L 584.0809523809523 998 A 10 10 0 0 0 594.0809523809523 1008 L 618.5714285714286 1008 A 10 10 0 0 1 628.5714285714286 1018 L 628.5714285714286 1229" fill="none" stroke="#0A0F25" stroke-width="2" marker-end="url(#arrow-triangle)"/>
<path d="M 488.54523809523806 838 L 525.4378084843172 958.438525754483 A 10 10 0 0 1 528.3666666666666 978 L 528.3666666666666 998 A 10 10 0 0 0 538.3666666666666 1008 L 686.9047619047619 1008 A 10 10 0 0 1 696.9047619047619 1018 L 696.9047619047619 1229" fill="none" stroke="#0A0F25" stroke-width="2" marker-end="url(#arrow-triangle)"/>
<path d="M 696.9047619047619 1295 L 696.9047619047619 1351 A 10 10 0 0 1 686.9047619047619 1361 L 611.4550858041235 1361 A 4.716990566028302 4.716990566028302 0 0 1 602.7380952380952 1358.5 L 602.7380952380952 1358.5 A 4.716990566028302 4.716990566028302 0 0 0 598.7380952380952 1360.7169905660282 L 598.7380952380952 1456" fill="none" stroke="#0A0F25" stroke-width="2" marker-end="url(#arrow-triangle)"/>
<path d="M 628.5714285714286 1295 L 628.5714285714286 1351 A 10 10 0 0 0 638.5714285714286 1361 L 714.0211046720668 1361 A 4.716990566028302 4.716990566028302 0 0 0 722.7380952380952 1358.5 L 722.7380952380952 1358.5 A 4.716990566028302 4.716990566028302 0 0 1 726.7380952380952 1360.7169905660282 L 726.7380952380952 1456" fill="none" stroke="#0A0F25" stroke-width="2" marker-end="url(#arrow-triangle)"/>
<path d="M 616.7380952380952 1522 L 737.4046391760646 1568.4102092069113 A 10 10 0 0 1 746.7380952380952 1582 L 746.7380952380952 1712" fill="none" stroke="#0A0F25" stroke-width="2" marker-end="url(#arrow-triangle)"/>
<path d="M 726.7380952380952 1522 L 670.6183389753409 1565.8435595802769 A 10 10 0 0 0 662.7380952380952 1582 L 662.7380952380952 1602 A 10 10 0 0 0 672.7380952380952 1612 L 793.4047619047619 1612 A 10 10 0 0 1 803.4047619047619 1622 L 803.4047619047619 1712" fill="none" stroke="#0A0F25" stroke-width="2" marker-end="url(#arrow-triangle)"/>
<path d="M 580.7380952380952 1522 L 579.137775621584 1562.0079904127822 A 10 10 0 0 0 578.7380952380952 1582 L 578.7380952380952 1602 A 10 10 0 0 1 568.7380952380952 1612 L 458.14285714285717 1612 A 10 10 0 0 0 440.8851382681339 1618.8793543836239 L 402.6505760175804 1655.1206456163761 A 10 10 0 0 0 395.39285714285717 1672 L 395.39285714285717 1762" fill="none" stroke="#0A0F25" stroke-width="2" marker-end="url(#arrow-triangle)"/>
<path d="M 364.14285714285717 1880 L 364.14285714285717 2044 A 10 10 0 0 1 354.14285714285717 2054 L 300.14285714285717 2054" fill="none" stroke="#0A0F25" stroke-width="2" marker-end="url(#arrow-triangle)"/>
<rect x="287.64285714285717" y="1960" width="31" height="21" fill="white" stroke="none" stroke-width="1" rx="3" ry="3"/>
<text x="303.14285714285717" y="1981" text-anchor="middle" dominant-baseline="alphabetic" font-family="Arial, sans-serif" font-size="14">sync</text>
<path d="M 364.14285714285717 1880 L 364.14285714285717 2044 A 10 10 0 0 0 374.14285714285717 2054 L 428.14285714285717 2054" fill="none" stroke="#0A0F25" stroke-width="2" marker-end="url(#arrow-triangle)"/>
<rect x="415.64285714285717" y="1960" width="31" height="21" fill="white" stroke="none" stroke-width="1" rx="3" ry="3"/>
<text x="431.14285714285717" y="1981" text-anchor="middle" dominant-baseline="alphabetic" font-family="Arial, sans-serif" font-size="14">sync</text>
<text x="189" y="50" text-anchor="middle" dominant-baseline="middle" font-family="Arial, sans-serif" font-size="24">Web Application Architecture</text>
<text x="413" y="55" text-anchor="middle" dominant-baseline="middle" font-family="Arial, sans-serif" font-size="16">Users</text>
<text x="413" y="200" text-anchor="middle" dominant-baseline="middle" font-family="Arial, sans-serif" font-size="16">CDN</text>
<text x="413" y="346.5" text-anchor="middle" dominant-baseline="middle" font-family="Arial, sans-serif" font-size="16">Load Balancer</text>
<text x="413" y="481.5" text-anchor="middle" dominant-baseline="middle" font-family="Arial, sans-serif" font-size="16">Web Tier</text>
<text x="444.79523809523806" y="737.5" text-anchor="middle" dominant-baseline="middle" font-family="Arial, sans-serif" font-size="16">Application Tier</text>
<text x="322.14285714285717" y="1262" text-anchor="middle" dominant-baseline="middle" font-family="Arial, sans-serif" font-size="16">Redis Cache</text>
<text x="364.14285714285717" y="1727.5" text-anchor="middle" dominant-baseline="middle" font-family="Arial, sans-serif" font-size="16">Database Cluster</text>
<text x="662.7380952380952" y="1262" text-anchor="middle" dominant-baseline="middle" font-family="Arial, sans-serif" font-size="16">Message Queue</text>
<text x="662.7380952380952" y="1421.5" text-anchor="middle" dominant-baseline="middle" font-family="Arial, sans-serif" font-size="16">Background Workers</text>
<text x="775.0714285714286" y="1745" text-anchor="middle" dominant-baseline="middle" font-family="Arial, sans-serif" font-size="16">Object Storage</text>
<text x="570" y="549" text-anchor="middle" dominant-baseline="middle" font-family="Arial, sans-serif" font-size="16">Web Server 3</text>
<text x="364.14285714285717" y="1821" text-anchor="middle" dominant-baseline="middle" font-family="Arial, sans-serif" font-size="16">Primary DB</text>
<text x="300.14285714285717" y="2113" text-anchor="middle" dominant-baseline="middle" font-family="Arial, sans-serif" font-size="16">Replica 1</text>
<text x="428.14285714285717" y="2113" text-anchor="middle" dominant-baseline="middle" font-family="Arial, sans-serif" font-size="16">Replica 2</text>
<text x="256" y="549" text-anchor="middle" dominant-baseline="middle" font-family="Arial, sans-serif" font-size="16">Web Server 1</text>
<text x="367.29523809523806" y="805" text-anchor="middle" dominant-baseline="middle" font-family="Arial, sans-serif" font-size="16">App Server 1</text>
<text x="598.7380952380952" y="1489" text-anchor="middle" dominant-baseline="middle" font-family="Arial, sans-serif" font-size="16">Worker 1</text>
<text x="726.7380952380952" y="1489" text-anchor="middle" dominant-baseline="middle" font-family="Arial, sans-serif" font-size="16">Worker 2</text>
<text x="522.2952380952381" y="805" text-anchor="middle" dominant-baseline="middle" font-family="Arial, sans-serif" font-size="16">App Server 2</text>
<text x="413" y="549" text-anchor="middle" dominant-baseline="middle" font-family="Arial, sans-serif" font-size="16">Web Server 2</text>
</g>
</svg>

