<?xml version="1.0" encoding="UTF-8"?>
<svg xmlns="http://www.w3.org/2000/svg" width="730.5" height="496" viewBox="-59 -88 730.5 496">
<defs><marker id="arrow-triangle" markerWidth="10" markerHeight="10" refX="10" refY="5" orient="auto" markerUnits="strokeWidth"><path d="M0,0 L10,5 L0,10 Z" fill="#0A0F25"/></marker>
<marker id="arrow-triangle-reverse" markerWidth="10" markerHeight="10" refX="0" refY="5" orient="auto" markerUnits="strokeWidth"><path d="M10,0 L0,5 L10,10 Z" fill="#0A0F25"/></marker>
<marker id="arrow-diamond" markerWidth="10" markerHeight="10" refX="10" refY="5" orient="auto" markerUnits="strokeWidth"><path d="M0,5 L5,0 L10,5 L5,10 Z" fill="#0A0F25"/></marker>
<marker id="arrow-diamond-reverse" markerWidth="10" markerHeight="10" refX="0" refY="5" orient="auto" markerUnits="strokeWidth"><path d="M0,5 L5,0 L10,5 L5,10 Z" fill="#0A0F25"/></marker>
<marker id="arrow-circle" markerWidth="10" markerHeight="10" refX="6" refY="5" orient="auto" markerUnits="strokeWidth"><circle cx="5" cy="5" r="4" fill="#0A0F25"/></marker>
<marker id="arrow-circle-reverse" markerWidth="10" markerHeight="10" refX="4" refY="5" orient="auto" markerUnits="strokeWidth"><circle cx="5" cy="5" r="4" fill="#0A0F25"/></marker>
<marker id="arrow-cf-one" markerWidth="10" markerHeight="10" refX="10" refY="5" orient="auto" markerUnits="strokeWidth"><line x1="10" y1="0" x2="10" y2="10" stroke="#0A0F25" stroke-width="2"/></marker>
<marker id="arrow-cf-one-reverse" markerWidth="10" markerHeight="10" refX="0" refY="5" orient="auto" markerUnits="strokeWidth"><line x1="0" y1="0" x2="0" y2="10" stroke="#0A0F25" stroke-width="2"/></marker>
<marker id="arrow-cf-many" markerWidth="10" markerHeight="10" refX="10" refY="5" orient="auto" markerUnits="strokeWidth"><path d="M0,5 L10,0 M0,5 L10,5 M0,5 L10,10" stroke="#0A0F25" stroke-width="2" fill="none"/></marker>
<marker id="arrow-cf-many-reverse" markerWidth="10" markerHeight="10" refX="0" refY="5" orient="auto" markerUnits="strokeWidth"><path d="M10,5 L0,0 M10,5 L0,5 M10,5 L0,10" stroke="#0A0F25" stroke-width="2" fill="none"/></marker>
<marker id="arrow-cf-one-required" markerWidth="10" markerHeight="10" refX="10" refY="5" orient="auto" markerUnits="strokeWidth"><line x1="10" y1="0" x2="10" y2="10" stroke="#0A0F25" stroke-width="2"/><line x1="7" y1="0" x2="7" y2="10" stroke="#0A0F25" stroke-width="2"/></marker>
<marker id="arrow-cf-one-required-reverse" markerWidth="10" markerHeight="10" refX="0" refY="5" orient="auto" markerUnits="strokeWidth"><line x1="0" y1="0" x2="0" y2="10" stroke="#0A0F25" stroke-width="2"/><line x1="3" y1="0" x2="3" y2="10" stroke="#0A0F25" stroke-width="2"/></marker>
<marker id="arrow-cf-many-required" markerWidth="10" markerHeight="10" refX="10" refY="5" orient="auto" markerUnits="strokeWidth"><path d="M0,5 L10,0 M0,5 L10,5 M0,5 L10,10" stroke="#0A0F25" stroke-width="2" fill="none"/><line x1="3" y1="0" x2="3" y2="10" stroke="#0A0F25" stroke-width="2"/></marker>
<marker id="arrow-cf-many-required-reverse" markerWidth="10" markerHeight="10" refX="0" refY="5" orient="auto" markerUnits="strokeWidth"><path d="M10,5 L0,0 M10,5 L0,5 M10,5 L0,10" stroke="#0A0F25" stroke-width="2" fill="none"/><line x1="7" y1="0" x2="7" y2="10" stroke="#0A0F25" stroke-width="2"/></marker>
<marker id="arrow-cf-one-optional" markerWidth="10" markerHeight="10" refX="10" refY="5" orient="auto" markerUnits="strokeWidth"><line x1="10" y1="0" x2="10" y2="10" stroke="#0A0F25" stroke-width="2"/><circle cx="7" cy="5" r="2" stroke="#0A0F25" stroke-width="2" fill="white"/></marker>
<marker id="arrow-cf-one-optional-reverse" markerWidth="10" markerHeight="10" refX="0" refY="5" orient="auto" markerUnits="strokeWidth"><line x1="0" y1="0" x2="0" y2="10" stroke="#0A0F25" stroke-width="2"/><circle cx="3" cy="5" r="2" stroke="#0A0F25" stroke-width="2" fill="white"/></marker>
<marker id="arrow-cf-many-optional" markerWidth="10" markerHeight="10" refX="10" refY="5" orient="auto" markerUnits="strokeWidth"><path d="M0,5 L10,0 M0,5 L10,5 M0,5 L10,10" stroke="#0A0F25" stroke-width="2" fill="none"/><circle cx="3" cy="5" r="2" stroke="#0A0F25" stroke-width="2" fill="white"/></marker>
<marker id="arrow-cf-many-optional-reverse" markerWidth="10" markerHeight="10" refX="0" refY="5" orient="auto" markerUnits="strokeWidth"><path d="M10,5 L0,0 M10,5 L0,5 M10,5 L0,10" stroke="#0A0F25" stroke-width="2" fill="none"/><circle cx="7" cy="5" r="2" stroke="#0A0F25" stroke-width="2" fill="white"/></marker>
<marker id="arrow-line" markerWidth="10" markerHeight="10" refX="10" refY="5" orient="auto" markerUnits="strokeWidth"><line x1="10" y1="0" x2="10" y2="10" stroke="#0A0F25" stroke-width="2"/></marker>
<marker id="arrow-line-reverse" markerWidth="10" markerHeight="10" refX="0" refY="5" orient="auto" markerUnits="strokeWidth"><line x1="0" y1="0" x2="0" y2="10" stroke="#0A0F25" stroke-width="2"/></marker>
<marker id="arrow-open" markerWidth="10" markerHeight="10" refX="10" refY="5" orient="auto" markerUnits="strokeWidth"><path d="M0,0 L10,5 L0,10" stroke="#0A0F25" stroke-width="2" fill="none"/></marker>
<marker id="arrow-open-reverse" markerWidth="10" markerHeight="10" refX="0" refY="5" orient="auto" markerUnits="strokeWidth"><path d="M10,0 L0,5 L10,10" stroke="#0A0F25" stroke-width="2" fill="none"/></marker>
<marker id="arrow" markerWidth="10" markerHeight="10" refX="10" refY="5" orient="auto" markerUnits="strokeWidth"><path d="M0,0 L10,5 L0,10 Z" fill="#0A0F25"/></marker>
<marker id="arrow-reverse" markerWidth="10" markerHeight="10" refX="0" refY="5" orient="auto" markerUnits="strokeWidth"><path d="M10,0 L0,5 L10,10 Z" fill="#0A0F25"/></marker>
</defs>
<rect width="100%" height="100%" fill="#FFFFFF"/>
<g id="base-layer">
<rect x="41" y="12" width="53" height="66" fill="#FFFFFF" stroke="#0A0F25" stroke-width="2" rx="0" ry="0"/>
<rect x="41" y="242" width="53" height="66" fill="#FFFFFF" stroke="#0A0F25" stroke-width="2" rx="0" ry="0"/>
<rect x="136.5" y="12" width="53" height="66" fill="#FFFFFF" stroke="#0A0F25" stroke-width="2" rx="0" ry="0"/>
<rect x="136" y="242" width="54" height="66" fill="#FFFFFF" stroke="#0A0F25" stroke-width="2" rx="0" ry="0"/>
<rect x="209.5" y="12" width="53" height="66" fill="#FFFFFF" stroke="#0A0F25" stroke-width="2" rx="0" ry="0"/>
<rect x="210.5" y="242" width="51" height="66" fill="#FFFFFF" stroke="#0A0F25" stroke-width="2" rx="0" ry="0"/>
<rect x="289" y="12" width="77" height="66" fill="#FFFFFF" stroke="#0A0F25" stroke-width="2" rx="0" ry="0"/>
<rect x="281.5" y="242" width="92" height="66" fill="#FFFFFF" stroke="#0A0F25" stroke-width="2" rx="0" ry="0"/>
<rect x="389.5" y="12" width="108" height="66" fill="#FFFFFF" stroke="#0A0F25" stroke-width="2" rx="0" ry="0"/>
<rect x="393.5" y="242" width="100" height="66" fill="#FFFFFF" stroke="#0A0F25" stroke-width="2" rx="0" ry="0"/>
<rect x="517.5" y="12" width="54" height="66" fill="#FFFFFF" stroke="#0A0F25" stroke-width="2" rx="0" ry="0"/>
<rect x="518" y="242" width="53" height="66" fill="#FFFFFF" stroke="#0A0F25" stroke-width="2" rx="0" ry="0"/>
<path d="M 67.5 78 L 67.5 160 L 67.5 242" fill="none" stroke="#0A0F25" stroke-width="2" marker-end="url(#arrow-triangle)"/>
<rect x="15" y="148" width="111" height="21" fill="white" stroke="none" stroke-width="1" rx="3" ry="3"/>
<text x="70.5" y="169" text-anchor="middle" dominant-baseline="alphabetic" font-family="Arial, sans-serif" font-size="14">triangle (default)</text>
<path d="M 163 78 L 163 160 L 163 242" fill="none" stroke="#0A0F25" stroke-width="2" marker-end="url(#arrow-diamond)"/>
<rect x="136" y="148" width="60" height="21" fill="white" stroke="none" stroke-width="1" rx="3" ry="3"/>
<text x="166" y="169" text-anchor="middle" dominant-baseline="alphabetic" font-family="Arial, sans-serif" font-size="14">diamond</text>
<path d="M 236 78 L 236 160 L 236 242" fill="none" stroke="#0A0F25" stroke-width="2" marker-end="url(#arrow-circle)"/>
<rect x="221" y="148" width="36" height="21" fill="white" stroke="none" stroke-width="1" rx="3" ry="3"/>
<text x="239" y="169" text-anchor="middle" dominant-baseline="alphabetic" font-family="Arial, sans-serif" font-size="14">circle</text>
<path d="M 327.5 78 L 327.5 160 L 327.5 242" fill="none" stroke="#0A0F25" stroke-width="2" marker-start="url(#arrow-cf-one-reverse)" marker-end="url(#arrow-cf-many)"/>
<rect x="289.5" y="148" width="82" height="21" fill="white" stroke="none" stroke-width="1" rx="3" ry="3"/>
<text x="330.5" y="169" text-anchor="middle" dominant-baseline="alphabetic" font-family="Arial, sans-serif" font-size="14">one to many</text>
<path d="M 443.5 78 L 443.5 160 L 443.5 242" fill="none" stroke="#0A0F25" stroke-width="2" marker-start="url(#arrow-cf-many-reverse)" marker-end="url(#arrow-cf-many)"/>
<rect x="399" y="148" width="95" height="21" fill="white" stroke="none" stroke-width="1" rx="3" ry="3"/>
<text x="446.5" y="169" text-anchor="middle" dominant-baseline="alphabetic" font-family="Arial, sans-serif" font-size="14">many to many</text>
<path d="M 544.5 78 L 544.5 160 L 544.5 242" fill="none" stroke="#0A0F25" stroke-width="2" marker-start="url(#arrow-circle-reverse)" marker-end="url(#arrow-diamond)"/>
<rect x="527" y="148" width="41" height="21" fill="white" stroke="none" stroke-width="1" rx="3" ry="3"/>
<text x="547.5" y="169" text-anchor="middle" dominant-baseline="alphabetic" font-family="Arial, sans-serif" font-size="14">mixed</text>
<text x="67.5" y="45" text-anchor="middle" dominant-baseline="middle" font-family="Arial, sans-serif" font-size="16">a</text>
<text x="67.5" y="275" text-anchor="middle" dominant-baseline="middle" font-family="Arial, sans-serif" font-size="16">b</text>
<text x="163" y="45" text-anchor="middle" dominant-baseline="middle" font-family="Arial, sans-serif" font-size="16">c</text>
<text x="163" y="275" text-anchor="middle" dominant-baseline="middle" font-family="Arial, sans-serif" font-size="16">d</text>
<text x="236" y="45" text-anchor="middle" dominant-baseline="middle" font-family="Arial, sans-serif" font-size="16">e</text>
<text x="236" y="275" text-anchor="middle" dominant-baseline="middle" font-family="Arial, sans-serif" font-size="16">f</text>
<text x="327.5" y="45" text-anchor="middle" dominant-baseline="middle" font-family="Arial, sans-serif" font-size="16">user</text>
<text x="327.5" y="275" text-anchor="middle" dominant-baseline="middle" font-family="Arial, sans-serif" font-size="16">orders</text>
<text x="443.5" y="45" text-anchor="middle" dominant-baseline="middle" font-family="Arial, sans-serif" font-size="16">students</text>
<text x="443.5" y="275" text-anchor="middle" dominant-baseline="middle" font-family="Arial, sans-serif" font-size="16">courses</text>
<text x="544.5" y="45" text-anchor="middle" dominant-baseline="middle" font-family="Arial, sans-serif" font-size="16">g</text>
<text x="544.5" y="275" text-anchor="middle" dominant-baseline="middle" font-family="Arial, sans-serif" font-size="16">h</text>
</g>
</svg>

