<?xml version="1.0" encoding="UTF-8"?>
<svg xmlns="http://www.w3.org/2000/svg" width="632" height="1503" viewBox="-88 -88 632 1503">
<defs><marker id="arrow-triangle" markerWidth="10" markerHeight="10" refX="10" refY="5" orient="auto" markerUnits="strokeWidth"><path d="M0,0 L10,5 L0,10 Z" fill="#0A0F25"/></marker>
<marker id="arrow-triangle-reverse" markerWidth="10" markerHeight="10" refX="0" refY="5" orient="auto" markerUnits="strokeWidth"><path d="M10,0 L0,5 L10,10 Z" fill="#0A0F25"/></marker>
<marker id="arrow-diamond" markerWidth="10" markerHeight="10" refX="10" refY="5" orient="auto" markerUnits="strokeWidth"><path d="M0,5 L5,0 L10,5 L5,10 Z" fill="#0A0F25"/></marker>
<marker id="arrow-diamond-reverse" markerWidth="10" markerHeight="10" refX="0" refY="5" orient="auto" markerUnits="strokeWidth"><path d="M0,5 L5,0 L10,5 L5,10 Z" fill="#0A0F25"/></marker>
<marker id="arrow-circle" markerWidth="10" markerHeight="10" refX="6" refY="5" orient="auto" markerUnits="strokeWidth"><circle cx="5" cy="5" r="4" fill="#0A0F25"/></marker>
<marker id="arrow-circle-reverse" markerWidth="10" markerHeight="10" refX="4" refY="5" orient="auto" markerUnits="strokeWidth"><circle cx="5" cy="5" r="4" fill="#0A0F25"/></marker>
<marker id="arrow-cf-one" markerWidth="10" markerHeight="10" refX="10" refY="5" orient="auto" markerUnits="strokeWidth"><line x1="10" y1="0" x2="10" y2="10" stroke="#0A0F25" stroke-width="2"/></marker>
<marker id="arrow-cf-one-reverse" markerWidth="10" markerHeight="10" refX="0" refY="5" orient="auto" markerUnits="strokeWidth"><line x1="0" y1="0" x2="0" y2="10" stroke="#0A0F25" stroke-width="2"/></marker>
<marker id="arrow-cf-many" markerWidth="10" markerHeight="10" refX="10" refY="5" orient="auto" markerUnits="strokeWidth"><path d="M0,5 L10,0 M0,5 L10,5 M0,5 L10,10" stroke="#0A0F25" stroke-width="2" fill="none"/></marker>
<marker id="arrow-cf-many-reverse" markerWidth="10" markerHeight="10" refX="0" refY="5" orient="auto" markerUnits="strokeWidth"><path d="M10,5 L0,0 M10,5 L0,5 M10,5 L0,10" stroke="#0A0F25" stroke-width="2" fill="none"/></marker>
<marker id="arrow-cf-one-required" markerWidth="10" markerHeight="10" refX="10" refY="5" orient="auto" markerUnits="strokeWidth"><line x1="10" y1="0" x2="10" y2="10" stroke="#0A0F25" stroke-width="2"/><line x1="7" y1="0" x2="7" y2="10" stroke="#0A0F25" stroke-width="2"/></marker>
<marker id="arrow-cf-one-required-reverse" markerWidth="10" markerHeight="10" refX="0" refY="5" orient="auto" markerUnits="strokeWidth"><line x1="0" y1="0" x2="0" y2="10" stroke="#0A0F25" stroke-width="2"/><line x1="3" y1="0" x2="3" y2="10" stroke="#0A0F25" stroke-width="2"/></marker>
<marker id="arrow-cf-many-required" markerWidth="10" markerHeight="10" refX="10" refY="5" orient="auto" markerUnits="strokeWidth"><path d="M0,5 L10,0 M0,5 L10,5 M0,5 L10,10" stroke="#0A0F25" stroke-width="2" fill="none"/><line x1="3" y1="0" x2="3" y2="10" stroke="#0A0F25" stroke-width="2"/></marker>
<marker id="arrow-cf-many-required-reverse" markerWidth="10" markerHeight="10" refX="0" refY="5" orient="auto" markerUnits="strokeWidth"><path d="M10,5 L0,0 M10,5 L0,5 M10,5 L0,10" stroke="#0A0F25" stroke-width="2" fill="none"/><line x1="7" y1="0" x2="7" y2="10" stroke="#0A0F25" stroke-width="2"/></marker>
<marker id="arrow-cf-one-optional" markerWidth="10" markerHeight="10" refX="10" refY="5" orient="auto" markerUnits="strokeWidth"><line x1="10" y1="0" x2="10" y2="10" stroke="#0A0F25" stroke-width="2"/><circle cx="7" cy="5" r="2" stroke="#0A0F25" stroke-width="2" fill="white"/></marker>
<marker id="arrow-cf-one-optional-reverse" markerWidth="10" markerHeight="10" refX="0" refY="5" orient="auto" markerUnits="strokeWidth"><line x1="0" y1="0" x2="0" y2="10" stroke="#0A0F25" stroke-width="2"/><circle cx="3" cy="5" r="2" stroke="#0A0F25" stroke-width="2" fill="white"/></marker>
<marker id="arrow-cf-many-optional" markerWidth="10" markerHeight="10" refX="10" refY="5" orient="auto" markerUnits="strokeWidth"><path d="M0,5 L10,0 M0,5 L10,5 M0,5 L10,10" stroke="#0A0F25" stroke-width="2" fill="none"/><circle cx="3" cy="5" r="2" stroke="#0A0F25" stroke-width="2" fill="white"/></marker>
<marker id="arrow-cf-many-optional-reverse" markerWidth="10" markerHeight="10" refX="0" refY="5" orient="auto" markerUnits="strokeWidth"><path d="M10,5 L0,0 M10,5 L0,5 M10,5 L0,10" stroke="#0A0F25" stroke-width="2" fill="none"/><circle cx="7" cy="5" r="2" stroke="#0A0F25" stroke-width="2" fill="white"/></marker>
<marker id="arrow-line" markerWidth="10" markerHeight="10" refX="10" refY="5" orient="auto" markerUnits="strokeWidth"><line x1="10" y1="0" x2="10" y2="10" stroke="#0A0F25" stroke-width="2"/></marker>
<marker id="arrow-line-reverse" markerWidth="10" markerHeight="10" refX="0" refY="5" orient="auto" markerUnits="strokeWidth"><line x1="0" y1="0" x2="0" y2="10" stroke="#0A0F25" stroke-width="2"/></marker>
<marker id="arrow-open" markerWidth="10" markerHeight="10" refX="10" refY="5" orient="auto" markerUnits="strokeWidth"><path d="M0,0 L10,5 L0,10" stroke="#0A0F25" stroke-width="2" fill="none"/></marker>
<marker id="arrow-open-reverse" markerWidth="10" markerHeight="10" refX="0" refY="5" orient="auto" markerUnits="strokeWidth"><path d="M10,0 L0,5 L10,10" stroke="#0A0F25" stroke-width="2" fill="none"/></marker>
<marker id="arrow" markerWidth="10" markerHeight="10" refX="10" refY="5" orient="auto" markerUnits="strokeWidth"><path d="M0,0 L10,5 L0,10 Z" fill="#0A0F25"/></marker>
<marker id="arrow-reverse" markerWidth="10" markerHeight="10" refX="0" refY="5" orient="auto" markerUnits="strokeWidth"><path d="M10,0 L0,5 L10,10 Z" fill="#0A0F25"/></marker>
</defs>
<rect width="100%" height="100%" fill="#FFFFFF"/>
<g id="base-layer">
<path d="M 270.5 78 H 185.5 v -0.937984496124031 c 0 -11.25581395348837 9.333821376281113 -21.4031007751938 24.0190336749634 -26.26356589147287 C 201.42972181551977 46.87596899224806 196.57613469985358 40.48062015503876 196.57613469985358 33.48837209302326 C 196.57613469985358 21.63565891472868 210.63909224011712 12 227.93777452415813 12 c 17.298682284040996 0 31.36163982430454 9.635658914728682 31.36163982430454 21.488372093023255 c 0 6.992248062015503 -4.729136163982431 13.302325581395348 -12.942898975109811 17.3953488372093 c 14.685212298682286 4.8604651162790695 24.0190336749634 15.007751937984496 24.0190336749634 26.26356589147287 v 0.8527131782945736 Z" fill="#FFFFFF" stroke="#0A0F25" stroke-width="2"/>
<rect x="91.37499999999999" y="267" width="273.25" height="688" fill="#FFFFFF" stroke="#0A0F25" stroke-width="2" rx="0" ry="0"/>
<rect x="12" y="1149" width="432" height="166" fill="#FFFFFF" stroke="#0A0F25" stroke-width="2" rx="0" ry="0"/>
<path d="M 204.625 811 C 204.625 787 254.125 787 259.625 787 C 265.125 787 314.625 787 314.625 811 L 314.625 881 C 314.625 905 265.125 905 259.625 905 C 254.125 905 204.625 905 204.625 881 L 204.625 811 Z" fill="#438DD5" stroke="#0A0F25" stroke-width="2"/>
<ellipse cx="259.625" cy="811" rx="55" ry="24" fill="none" stroke="none" stroke-width="0"/>
<path d="M 204.625 811 C 204.625 835 254.125 835 259.625 835 C 265.125 835 314.625 835 314.625 811" fill="none" stroke="#0A0F25" stroke-width="2"/>
<rect x="141.375" y="317" width="160" height="66" fill="#438DD5" stroke="#0A0F25" stroke-width="2" rx="0" ry="0"/>
<rect x="62" y="1199" width="173" height="66" fill="#999999" stroke="#0A0F25" stroke-width="2" rx="0" ry="0"/>
<rect x="255" y="1199" width="139" height="66" fill="#999999" stroke="#0A0F25" stroke-width="2" rx="0" ry="0"/>
<rect x="153.375" y="547" width="136" height="66" fill="#438DD5" stroke="#0A0F25" stroke-width="2" rx="0" ry="0"/>
<path d="M 228 78 L 228 160 A 10 10 0 0 1 226.60422367140904 179.90211131226795 L 222.77077632859096 207.09788868773205 A 10 10 0 0 0 221.375 227 L 221.375 317" fill="none" stroke="#0A0F25" stroke-width="2" marker-end="url(#arrow-triangle)"/>
<rect x="0" y="0" width="55" height="21" fill="white" stroke="none" stroke-width="1" rx="3" ry="3"/>
<text x="27.5" y="21" text-anchor="middle" dominant-baseline="alphabetic" font-family="Arial, sans-serif" font-size="14">browses</text>
<path d="M 221.375 383 L 221.375 547" fill="none" stroke="#0A0F25" stroke-width="2" marker-end="url(#arrow-triangle)"/>
<rect x="208.875" y="453" width="31" height="21" fill="white" stroke="none" stroke-width="1" rx="3" ry="3"/>
<text x="224.375" y="474" text-anchor="middle" dominant-baseline="alphabetic" font-family="Arial, sans-serif" font-size="14">calls</text>
<path d="M 221.375 613 L 221.375 777 A 10 10 0 0 0 231.375 787 L 259.625 787" fill="none" stroke="#0A0F25" stroke-width="2" marker-end="url(#arrow-triangle)"/>
<rect x="221.125" y="693" width="83" height="21" fill="white" stroke="none" stroke-width="1" rx="3" ry="3"/>
<text x="262.625" y="714" text-anchor="middle" dominant-baseline="alphabetic" font-family="Arial, sans-serif" font-size="14">reads/writes</text>
<path d="M 221.375 613 L 272.0337665669585 945.1143418383347 A 10 10 0 0 0 276.17319138029194 964.6475425721569 L 297.36847528637475 1042.352457427843 A 10 10 0 0 1 290.4490509918578 1054.963000682394 L 158.05094900814223 1096.036999317606 A 10 10 0 0 0 148.5 1109 L 148.5 1199" fill="none" stroke="#0A0F25" stroke-width="2" marker-end="url(#arrow-triangle)"/>
<rect x="0" y="0" width="134" height="21" fill="white" stroke="none" stroke-width="1" rx="3" ry="3"/>
<text x="67" y="21" text-anchor="middle" dominant-baseline="alphabetic" font-family="Arial, sans-serif" font-size="14">processes payments</text>
<path d="M 187.375 613 L 182.6020806628 945.0010332181134 A 10 10 0 0 1 179.82680861970806 964.6475425721569 L 158.63152471362525 1042.352457427843 A 10 10 0 0 0 165.63230712921418 1054.6867562912348 L 314.86769287078585 1096.3132437087652 A 10 10 0 0 1 324.5 1109 L 324.5 1199" fill="none" stroke="#0A0F25" stroke-width="2" marker-end="url(#arrow-triangle)"/>
<rect x="0" y="0" width="124" height="21" fill="white" stroke="none" stroke-width="1" rx="3" ry="3"/>
<text x="62" y="21" text-anchor="middle" dominant-baseline="alphabetic" font-family="Arial, sans-serif" font-size="14">sends notifications</text>
<text x="228" y="45" text-anchor="middle" dominant-baseline="middle" font-family="Arial, sans-serif" font-size="16">Customer</text>
<text x="228" y="282.5" text-anchor="middle" dominant-baseline="middle" font-family="Arial, sans-serif" font-size="16">E-Commerce System</text>
<text x="228" y="1164.5" text-anchor="middle" dominant-baseline="middle" font-family="Arial, sans-serif" font-size="16">external</text>
<text x="259.625" y="846" text-anchor="middle" dominant-baseline="middle" font-family="Arial, sans-serif" font-size="16">Database</text>
<text x="221.375" y="350" text-anchor="middle" dominant-baseline="middle" font-family="Arial, sans-serif" font-size="16">Web Application</text>
<text x="148.5" y="1232" text-anchor="middle" dominant-baseline="middle" font-family="Arial, sans-serif" font-size="16">Payment Provider</text>
<text x="324.5" y="1232" text-anchor="middle" dominant-baseline="middle" font-family="Arial, sans-serif" font-size="16">Email Service</text>
<text x="221.375" y="580" text-anchor="middle" dominant-baseline="middle" font-family="Arial, sans-serif" font-size="16">API Gateway</text>
</g>
</svg>

