<?xml version="1.0" encoding="UTF-8"?>
<svg xmlns="http://www.w3.org/2000/svg" width="494" height="882" viewBox="-88 -88 494 882">
<defs><marker id="arrow-triangle" markerWidth="10" markerHeight="10" refX="10" refY="5" orient="auto" markerUnits="strokeWidth"><path d="M0,0 L10,5 L0,10 Z" fill="#0A0F25"/></marker>
<marker id="arrow-triangle-reverse" markerWidth="10" markerHeight="10" refX="0" refY="5" orient="auto" markerUnits="strokeWidth"><path d="M10,0 L0,5 L10,10 Z" fill="#0A0F25"/></marker>
<marker id="arrow-diamond" markerWidth="10" markerHeight="10" refX="10" refY="5" orient="auto" markerUnits="strokeWidth"><path d="M0,5 L5,0 L10,5 L5,10 Z" fill="#0A0F25"/></marker>
<marker id="arrow-diamond-reverse" markerWidth="10" markerHeight="10" refX="0" refY="5" orient="auto" markerUnits="strokeWidth"><path d="M0,5 L5,0 L10,5 L5,10 Z" fill="#0A0F25"/></marker>
<marker id="arrow-circle" markerWidth="10" markerHeight="10" refX="6" refY="5" orient="auto" markerUnits="strokeWidth"><circle cx="5" cy="5" r="4" fill="#0A0F25"/></marker>
<marker id="arrow-circle-reverse" markerWidth="10" markerHeight="10" refX="4" refY="5" orient="auto" markerUnits="strokeWidth"><circle cx="5" cy="5" r="4" fill="#0A0F25"/></marker>
<marker id="arrow-cf-one" markerWidth="10" markerHeight="10" refX="10" refY="5" orient="auto" markerUnits="strokeWidth"><line x1="10" y1="0" x2="10" y2="10" stroke="#0A0F25" stroke-width="2"/></marker>
<marker id="arrow-cf-one-reverse" markerWidth="10" markerHeight="10" refX="0" refY="5" orient="auto" markerUnits="strokeWidth"><line x1="0" y1="0" x2="0" y2="10" stroke="#0A0F25" stroke-width="2"/></marker>
<marker id="arrow-cf-many" markerWidth="10" markerHeight="10" refX="10" refY="5" orient="auto" markerUnits="strokeWidth"><path d="M0,5 L10,0 M0,5 L10,5 M0,5 L10,10" stroke="#0A0F25" stroke-width="2" fill="none"/></marker>
<marker id="arrow-cf-many-reverse" markerWidth="10" markerHeight="10" refX="0" refY="5" orient="auto" markerUnits="strokeWidth"><path d="M10,5 L0,0 M10,5 L0,5 M10,5 L0,10" stroke="#0A0F25" stroke-width="2" fill="none"/></marker>
<marker id="arrow-cf-one-required" markerWidth="10" markerHeight="10" refX="10" refY="5" orient="auto" markerUnits="strokeWidth"><line x1="10" y1="0" x2="10" y2="10" stroke="#0A0F25" stroke-width="2"/><line x1="7" y1="0" x2="7" y2="10" stroke="#0A0F25" stroke-width="2"/></marker>
<marker id="arrow-cf-one-required-reverse" markerWidth="10" markerHeight="10" refX="0" refY="5" orient="auto" markerUnits="strokeWidth"><line x1="0" y1="0" x2="0" y2="10" stroke="#0A0F25" stroke-width="2"/><line x1="3" y1="0" x2="3" y2="10" stroke="#0A0F25" stroke-width="2"/></marker>
<marker id="arrow-cf-many-required" markerWidth="10" markerHeight="10" refX="10" refY="5" orient="auto" markerUnits="strokeWidth"><path d="M0,5 L10,0 M0,5 L10,5 M0,5 L10,10" stroke="#0A0F25" stroke-width="2" fill="none"/><line x1="3" y1="0" x2="3" y2="10" stroke="#0A0F25" stroke-width="2"/></marker>
<marker id="arrow-cf-many-required-reverse" markerWidth="10" markerHeight="10" refX="0" refY="5" orient="auto" markerUnits="strokeWidth"><path d="M10,5 L0,0 M10,5 L0,5 M10,5 L0,10" stroke="#0A0F25" stroke-width="2" fill="none"/><line x1="7" y1="0" x2="7" y2="10" stroke="#0A0F25" stroke-width="2"/></marker>
<marker id="arrow-cf-one-optional" markerWidth="10" markerHeight="10" refX="10" refY="5" orient="auto" markerUnits="strokeWidth"><line x1="10" y1="0" x2="10" y2="10" stroke="#0A0F25" stroke-width="2"/><circle cx="7" cy="5" r="2" stroke="#0A0F25" stroke-width="2" fill="white"/></marker>
<marker id="arrow-cf-one-optional-reverse" markerWidth="10" markerHeight="10" refX="0" refY="5" orient="auto" markerUnits="strokeWidth"><line x1="0" y1="0" x2="0" y2="10" stroke="#0A0F25" stroke-width="2"/><circle cx="3" cy="5" r="2" stroke="#0A0F25" stroke-width="2" fill="white"/></marker>
<marker id="arrow-cf-many-optional" markerWidth="10" markerHeight="10" refX="10" refY="5" orient="auto" markerUnits="strokeWidth"><path d="M0,5 L10,0 M0,5 L10,5 M0,5 L10,10" stroke="#0A0F25" stroke-width="2" fill="none"/><circle cx="3" cy="5" r="2" stroke="#0A0F25" stroke-width="2" fill="white"/></marker>
<marker id="arrow-cf-many-optional-reverse" markerWidth="10" markerHeight="10" refX="0" refY="5" orient="auto" markerUnits="strokeWidth"><path d="M10,5 L0,0 M10,5 L0,5 M10,5 L0,10" stroke="#0A0F25" stroke-width="2" fill="none"/><circle cx="7" cy="5" r="2" stroke="#0A0F25" stroke-width="2" fill="white"/></marker>
<marker id="arrow-line" markerWidth="10" markerHeight="10" refX="10" refY="5" orient="auto" markerUnits="strokeWidth"><line x1="10" y1="0" x2="10" y2="10" stroke="#0A0F25" stroke-width="2"/></marker>
<marker id="arrow-line-reverse" markerWidth="10" markerHeight="10" refX="0" refY="5" orient="auto" markerUnits="strokeWidth"><line x1="0" y1="0" x2="0" y2="10" stroke="#0A0F25" stroke-width="2"/></marker>
<marker id="arrow-open" markerWidth="10" markerHeight="10" refX="10" refY="5" orient="auto" markerUnits="strokeWidth"><path d="M0,0 L10,5 L0,10" stroke="#0A0F25" stroke-width="2" fill="none"/></marker>
<marker id="arrow-open-reverse" markerWidth="10" markerHeight="10" refX="0" refY="5" orient="auto" markerUnits="strokeWidth"><path d="M10,0 L0,5 L10,10" stroke="#0A0F25" stroke-width="2" fill="none"/></marker>
<marker id="arrow" markerWidth="10" markerHeight="10" refX="10" refY="5" orient="auto" markerUnits="strokeWidth"><path d="M0,0 L10,5 L0,10 Z" fill="#0A0F25"/></marker>
<marker id="arrow-reverse" markerWidth="10" markerHeight="10" refX="0" refY="5" orient="auto" markerUnits="strokeWidth"><path d="M10,0 L0,5 L10,10 Z" fill="#0A0F25"/></marker>
</defs>
<rect width="100%" height="100%" fill="#FFFFFF"/>
<g id="base-layer">
<rect x="12" y="148" width="137" height="66" fill="#e3f2fd" stroke="#1976D2" stroke-width="2" rx="0" ry="0"/>
<rect x="169" y="148" width="137" height="66" fill="#e3f2fd" stroke="#1976D2" stroke-width="2" rx="0" ry="0"/>
<path d="M 96.5 318 C 96.5 294 152.75 294 159 294 C 165.25 294 221.5 294 221.5 318 L 221.5 388 C 221.5 412 165.25 412 159 412 C 152.75 412 96.5 412 96.5 388 L 96.5 318 Z" fill="#fff8e1" stroke="#FFA000" stroke-width="2"/>
<ellipse cx="159" cy="318" rx="62.5" ry="24" fill="none" stroke="none" stroke-width="0"/>
<path d="M 96.5 318 C 96.5 342 152.75 342 159 342 C 165.25 342 221.5 342 221.5 318" fill="none" stroke="#FFA000" stroke-width="2"/>
<path d="M 99 600 C 99 576 153 576 159 576 C 165 576 219 576 219 600 L 219 670 C 219 694 165 694 159 694 C 153 694 99 694 99 670 L 99 600 Z" fill="#fff8e1" stroke="#FFA000" stroke-width="2"/>
<ellipse cx="159" cy="600" rx="60" ry="24" fill="none" stroke="none" stroke-width="0"/>
<path d="M 99 600 C 99 624 153 624 159 624 C 165 624 219 624 219 600" fill="none" stroke="#FFA000" stroke-width="2"/>
<path d="M 105.5 78 H 55.5 v -0.937984496124031 c 0 -11.25581395348837 5.490483162518302 -21.4031007751938 14.128843338213764 -26.26356589147287 C 64.87042459736458 46.87596899224806 62.01537335285505 40.48062015503876 62.01537335285505 33.48837209302326 C 62.01537335285505 21.63565891472868 70.28770131771596 12 80.46339677891655 12 c 10.175695461200586 0 18.448023426061493 9.635658914728682 18.448023426061493 21.488372093023255 c 0 6.992248062015503 -2.781844802342606 13.302325581395348 -7.613469985358712 17.3953488372093 c 8.638360175695462 4.8604651162790695 14.128843338213764 15.007751937984496 14.128843338213764 26.26356589147287 v 0.8527131782945736 Z" fill="#f3e5f5" stroke="#0A0F25" stroke-width="2"/>
<path d="M 259.5 78 H 215.5 v -0.937984496124031 c 0 -11.25581395348837 4.831625183016105 -21.4031007751938 12.433382137628112 -26.26356589147287 C 223.7459736456808 46.87596899224806 221.23352855051243 40.48062015503876 221.23352855051243 33.48837209302326 C 221.23352855051243 21.63565891472868 228.51317715959004 12 237.46778916544656 12 c 8.954612005856516 0 16.234260614934115 9.635658914728682 16.234260614934115 21.488372093023255 c 0 6.992248062015503 -2.4480234260614933 13.302325581395348 -6.699853587115666 17.3953488372093 c 7.601756954612006 4.8604651162790695 12.433382137628112 15.007751937984496 12.433382137628112 26.26356589147287 v 0.8527131782945736 Z" fill="#f3e5f5" stroke="#0A0F25" stroke-width="2"/>
<path d="M 80.5 78 L 80.5 148" fill="none" stroke="#0A0F25" stroke-width="2" marker-end="url(#arrow-triangle)"/>
<path d="M 237.5 78 L 237.5 148" fill="none" stroke="#0A0F25" stroke-width="2" marker-end="url(#arrow-triangle)"/>
<path d="M 80.5 214 L 80.5 244 A 10 10 0 0 0 90.5 254 L 128.16666666666669 254 A 10 10 0 0 1 138.16666666666669 264 L 138.16666666666669 294" fill="none" stroke="#0A0F25" stroke-width="2" marker-end="url(#arrow-triangle)"/>
<path d="M 237.5 214 L 237.5 244 A 10 10 0 0 1 227.5 254 L 189.83333333333334 254 A 10 10 0 0 0 179.83333333333334 264 L 179.83333333333334 294" fill="none" stroke="#0A0F25" stroke-width="2" marker-end="url(#arrow-triangle)"/>
<path d="M 159 412 L 159 494 L 159 576" fill="none" stroke="#0A0F25" stroke-width="2" marker-end="url(#arrow-triangle)"/>
<rect x="126.5" y="482" width="71" height="21" fill="white" stroke="none" stroke-width="1" rx="3" ry="3"/>
<text x="162" y="503" text-anchor="middle" dominant-baseline="alphabetic" font-family="Arial, sans-serif" font-size="14">replication</text>
<text x="80.5" y="181" text-anchor="middle" dominant-baseline="middle" font-family="Arial, sans-serif" font-size="16">Web Server 1</text>
<text x="237.5" y="181" text-anchor="middle" dominant-baseline="middle" font-family="Arial, sans-serif" font-size="16">Web Server 2</text>
<text x="159" y="353" text-anchor="middle" dominant-baseline="middle" font-family="Arial, sans-serif" font-size="16">Primary DB</text>
<text x="159" y="635" text-anchor="middle" dominant-baseline="middle" font-family="Arial, sans-serif" font-size="16">Replica DB</text>
<text x="80.5" y="45" text-anchor="middle" dominant-baseline="middle" font-family="Arial, sans-serif" font-size="16">Alice</text>
<text x="237.5" y="45" text-anchor="middle" dominant-baseline="middle" font-family="Arial, sans-serif" font-size="16">Bob</text>
</g>
</svg>

