<?xml version="1.0" encoding="UTF-8"?>
<svg xmlns="http://www.w3.org/2000/svg" width="235" height="710" viewBox="0 0 235 710">
<defs>
<marker id="arrow-triangle" markerWidth="10" markerHeight="10" refX="10" refY="5" orient="auto" markerUnits="strokeWidth"><path d="M0,0 L10,5 L0,10 Z" fill="#0A0F25"/></marker>
<marker id="arrow-triangle-reverse" markerWidth="10" markerHeight="10" refX="0" refY="5" orient="auto" markerUnits="strokeWidth"><path d="M10,0 L0,5 L10,10 Z" fill="#0A0F25"/></marker>
<marker id="arrow-diamond" markerWidth="10" markerHeight="10" refX="10" refY="5" orient="auto" markerUnits="strokeWidth"><path d="M0,5 L5,0 L10,5 L5,10 Z" fill="#0A0F25"/></marker>
<marker id="arrow-diamond-reverse" markerWidth="10" markerHeight="10" refX="0" refY="5" orient="auto" markerUnits="strokeWidth"><path d="M0,5 L5,0 L10,5 L5,10 Z" fill="#0A0F25"/></marker>
<marker id="arrow-circle" markerWidth="10" markerHeight="10" refX="6" refY="5" orient="auto" markerUnits="strokeWidth"><circle cx="5" cy="5" r="4" fill="#0A0F25"/></marker>
<marker id="arrow-circle-reverse" markerWidth="10" markerHeight="10" refX="4" refY="5" orient="auto" markerUnits="strokeWidth"><circle cx="5" cy="5" r="4" fill="#0A0F25"/></marker>
<marker id="arrow-cf-one" markerWidth="10" markerHeight="10" refX="10" refY="5" orient="auto" markerUnits="strokeWidth"><line x1="10" y1="0" x2="10" y2="10" stroke="#0A0F25" stroke-width="2"/></marker>
<marker id="arrow-cf-one-reverse" markerWidth="10" markerHeight="10" refX="0" refY="5" orient="auto" markerUnits="strokeWidth"><line x1="0" y1="0" x2="0" y2="10" stroke="#0A0F25" stroke-width="2"/></marker>
<marker id="arrow-cf-many" markerWidth="10" markerHeight="10" refX="10" refY="5" orient="auto" markerUnits="strokeWidth"><path d="M0,5 L10,0 M0,5 L10,5 M0,5 L10,10" stroke="#0A0F25" stroke-width="2" fill="none"/></marker>
<marker id="arrow-cf-many-reverse" markerWidth="10" markerHeight="10" refX="0" refY="5" orient="auto" markerUnits="strokeWidth"><path d="M10,5 L0,0 M10,5 L0,5 M10,5 L0,10" stroke="#0A0F25" stroke-width="2" fill="none"/></marker>
<marker id="arrow-cf-one-required" markerWidth="10" markerHeight="10" refX="10" refY="5" orient="auto" markerUnits="strokeWidth"><line x1="10" y1="0" x2="10" y2="10" stroke="#0A0F25" stroke-width="2"/><line x1="7" y1="0" x2="7" y2="10" stroke="#0A0F25" stroke-width="2"/></marker>
<marker id="arrow-cf-one-required-reverse" markerWidth="10" markerHeight="10" refX="0" refY="5" orient="auto" markerUnits="strokeWidth"><line x1="0" y1="0" x2="0" y2="10" stroke="#0A0F25" stroke-width="2"/><line x1="3" y1="0" x2="3" y2="10" stroke="#0A0F25" stroke-width="2"/></marker>
<marker id="arrow-cf-many-required" markerWidth="10" markerHeight="10" refX="10" refY="5" orient="auto" markerUnits="strokeWidth"><path d="M0,5 L10,0 M0,5 L10,5 M0,5 L10,10" stroke="#0A0F25" stroke-width="2" fill="none"/><line x1="3" y1="0" x2="3" y2="10" stroke="#0A0F25" stroke-width="2"/></marker>
<marker id="arrow-cf-many-required-reverse" markerWidth="10" markerHeight="10" refX="0" refY="5" orient="auto" markerUnits="strokeWidth"><path d="M10,5 L0,0 M10,5 L0,5 M10,5 L0,10" stroke="#0A0F25" stroke-width="2" fill="none"/><line x1="7" y1="0" x2="7" y2="10" stroke="#0A0F25" stroke-width="2"/></marker>
<marker id="arrow-cf-one-optional" markerWidth="10" markerHeight="10" refX="10" refY="5" orient="auto" markerUnits="strokeWidth"><line x1="10" y1="0" x2="10" y2="10" stroke="#0A0F25" stroke-width="2"/><circle cx="7" cy="5" r="2" stroke="#0A0F25" stroke-width="2" fill="white"/></marker>
<marker id="arrow-cf-one-optional-reverse" markerWidth="10" markerHeight="10" refX="0" refY="5" orient="auto" markerUnits="strokeWidth"><line x1="0" y1="0" x2="0" y2="10" stroke="#0A0F25" stroke-width="2"/><circle cx="3" cy="5" r="2" stroke="#0A0F25" stroke-width="2" fill="white"/></marker>
<marker id="arrow-cf-many-optional" markerWidth="10" markerHeight="10" refX="10" refY="5" orient="auto" markerUnits="strokeWidth"><path d="M0,5 L10,0 M0,5 L10,5 M0,5 L10,10" stroke="#0A0F25" stroke-width="2" fill="none"/><circle cx="3" cy="5" r="2" stroke="#0A0F25" stroke-width="2" fill="white"/></marker>
<marker id="arrow-cf-many-optional-reverse" markerWidth="10" markerHeight="10" refX="0" refY="5" orient="auto" markerUnits="strokeWidth"><path d="M10,5 L0,0 M10,5 L0,5 M10,5 L0,10" stroke="#0A0F25" stroke-width="2" fill="none"/><circle cx="7" cy="5" r="2" stroke="#0A0F25" stroke-width="2" fill="white"/></marker>
<marker id="arrow-line" markerWidth="10" markerHeight="10" refX="10" refY="5" orient="auto" markerUnits="strokeWidth"><line x1="10" y1="0" x2="10" y2="10" stroke="#0A0F25" stroke-width="2"/></marker>
<marker id="arrow-line-reverse" markerWidth="10" markerHeight="10" refX="0" refY="5" orient="auto" markerUnits="strokeWidth"><line x1="0" y1="0" x2="0" y2="10" stroke="#0A0F25" stroke-width="2"/></marker>
<marker id="arrow-open" markerWidth="10" markerHeight="10" refX="10" refY="5" orient="auto" markerUnits="strokeWidth"><path d="M0,0 L10,5 L0,10" stroke="#0A0F25" stroke-width="2" fill="none"/></marker>
<marker id="arrow-open-reverse" markerWidth="10" markerHeight="10" refX="0" refY="5" orient="auto" markerUnits="strokeWidth"><path d="M10,0 L0,5 L10,10" stroke="#0A0F25" stroke-width="2" fill="none"/></marker>
<marker id="arrow" markerWidth="10" markerHeight="10" refX="10" refY="5" orient="auto" markerUnits="strokeWidth"><path d="M0,0 L10,5 L0,10 Z" fill="#0A0F25"/></marker>
<marker id="arrow-reverse" markerWidth="10" markerHeight="10" refX="0" refY="5" orient="auto" markerUnits="strokeWidth"><path d="M10,0 L0,5 L10,10 Z" fill="#0A0F25"/></marker>
</defs>
<rect width="100%" height="100%" fill="#FFFFFF"/>
<g id="base-layer" transform="translate(20,0)">
<rect x="0" y="20" width="100" height="60" fill="#FFFFFF" stroke="#0A0F25" stroke-width="2" rx="0" ry="0"/>
<rect x="0" y="328" width="100" height="60" fill="#FFFFFF" stroke="#0A0F25" stroke-width="2" rx="0" ry="0"/>
<path d="M 0 639 A 50 9 0 0 1 100 639 L 100 681 A 50 9 0 0 1 0 681 Z" fill="#FFFFFF" stroke="#0A0F25" stroke-width="2"/>
<ellipse cx="50" cy="639" rx="50" ry="9" fill="#FFFFFF" stroke="#0A0F25" stroke-width="2"/>
<path d="M 100 80 L 190.20807442798164 200.59395213003862 A 8 8 0 0 1 190.0597245719671 213.2923508083366 L 100 328" fill="none" stroke="#0A0F25" stroke-width="2" marker-end="url(#arrow-triangle)"/>
<rect x="154" y="180" width="82" height="54" fill="white" stroke="none" stroke-width="1" rx="3" ry="3"/>
<text x="195" y="207" text-anchor="middle" dominant-baseline="middle" font-family="Arial, sans-serif" font-size="12">request</text>
<path d="M 100 388 L 181.514368197525 508.3758693149497 A 8 8 0 0 1 181.20891829583044 521.4066790230174 L 100 630" fill="none" stroke="#0A0F25" stroke-width="2" marker-end="url(#arrow-triangle)"/>
<rect x="151" y="488" width="70" height="54" fill="white" stroke="none" stroke-width="1" rx="3" ry="3"/>
<text x="186" y="515" text-anchor="middle" dominant-baseline="middle" font-family="Arial, sans-serif" font-size="12">query</text>
<path d="M 50 690 L 50 523 A 8 8 0 0 0 50 507 L 50 328" fill="none" stroke="#0A0F25" stroke-width="2" marker-end="url(#arrow-triangle)"/>
<rect x="9" y="488" width="82" height="54" fill="white" stroke="none" stroke-width="1" rx="3" ry="3"/>
<text x="50" y="515" text-anchor="middle" dominant-baseline="middle" font-family="Arial, sans-serif" font-size="12">results</text>
<path d="M 50 388 L 50 215 A 8 8 0 0 0 50 199 L 50 20" fill="none" stroke="#0A0F25" stroke-width="2" marker-end="url(#arrow-triangle)"/>
<rect x="6" y="180" width="88" height="54" fill="white" stroke="none" stroke-width="1" rx="3" ry="3"/>
<text x="50" y="207" text-anchor="middle" dominant-baseline="middle" font-family="Arial, sans-serif" font-size="12">response</text>
<text x="50" y="50" text-anchor="middle" dominant-baseline="middle" font-family="Arial, sans-serif" font-size="14">Client</text>
<text x="50" y="358" text-anchor="middle" dominant-baseline="middle" font-family="Arial, sans-serif" font-size="14">API Server</text>
<text x="50" y="660" text-anchor="middle" dominant-baseline="middle" font-family="Arial, sans-serif" font-size="14">Database</text>
</g>
<rect x="47.400000000000006" y="528" width="127.6" height="142" fill="#ffffff" stroke="#cccccc" stroke-width="1" rx="4" ry="4"/>
<text x="59.400000000000006" y="551.2" font-family="Arial, sans-serif" font-size="14" font-weight="bold" fill="#0A0F25">Legend</text>
<rect x="59.400000000000006" y="562" width="20" height="20" fill="#FFFFFF" stroke="#0A0F25" stroke-width="1"/>
<text x="87.4" y="576.9" font-family="Arial, sans-serif" font-size="14" fill="#0A0F25">rectangle</text>
<path d="M 59.400000000000006 593 A 10 3 0 0 1 79.4 593 L 79.4 607 A 10 3 0 0 1 59.400000000000006 607 Z" fill="#FFFFFF" stroke="#0A0F25" stroke-width="1"/>
<ellipse cx="69.4" cy="593" rx="10" ry="3" fill="#FFFFFF" stroke="#0A0F25" stroke-width="1"/>
<text x="87.4" y="604.9" font-family="Arial, sans-serif" font-size="14" fill="#0A0F25">cylinder</text>
<line x1="59.400000000000006" y1="620" x2="163" y2="620" stroke="#cccccc" stroke-width="1"/>
<line x1="59.400000000000006" y1="640" x2="79.4" y2="640" stroke="#0A0F25" stroke-width="2" marker-end="url(#arrow-triangle)"/>
<text x="87.4" y="644.9" font-family="Arial, sans-serif" font-size="14" fill="#0A0F25">-&gt;</text>
</svg>