<?xml version="1.0" encoding="UTF-8"?>
<svg xmlns="http://www.w3.org/2000/svg" width="332" height="330" viewBox="0 0 332 330">
<defs>
<marker id="arrow-triangle" markerWidth="10" markerHeight="10" refX="10" refY="5" orient="auto" markerUnits="strokeWidth"><path d="M0,0 L10,5 L0,10 Z" fill="#0A0F25"/></marker>
<marker id="arrow-triangle-reverse" markerWidth="10" markerHeight="10" refX="0" refY="5" orient="auto" markerUnits="strokeWidth"><path d="M10,0 L0,5 L10,10 Z" fill="#0A0F25"/></marker>
<marker id="arrow-diamond" markerWidth="10" markerHeight="10" refX="10" refY="5" orient="auto" markerUnits="strokeWidth"><path d="M0,5 L5,0 L10,5 L5,10 Z" fill="#0A0F25"/></marker>
<marker id="arrow-diamond-reverse" markerWidth="10" markerHeight="10" refX="0" refY="5" orient="auto" markerUnits="strokeWidth"><path d="M0,5 L5,0 L10,5 L5,10 Z" fill="#0A0F25"/></marker>
<marker id="arrow-circle" markerWidth="10" markerHeight="10" refX="6" refY="5" orient="auto" markerUnits="strokeWidth"><circle cx="5" cy="5" r="4" fill="#0A0F25"/></marker>
<marker id="arrow-circle-reverse" markerWidth="10" markerHeight="10" refX="4" refY="5" orient="auto" markerUnits="strokeWidth"><circle cx="5" cy="5" r="4" fill="#0A0F25"/></marker>
<marker id="arrow-cf-one" markerWidth="10" markerHeight="10" refX="10" refY="5" orient="auto" markerUnits="strokeWidth"><line x1="10" y1="0" x2="10" y2="10" stroke="#0A0F25" stroke-width="2"/></marker>
<marker id="arrow-cf-one-reverse" markerWidth="10" markerHeight="10" refX="0" refY="5" orient="auto" markerUnits="strokeWidth"><line x1="0" y1="0" x2="0" y2="10" stroke="#0A0F25" stroke-width="2"/></marker>
<marker id="arrow-cf-many" markerWidth="10" markerHeight="10" refX="10" refY="5" orient="auto" markerUnits="strokeWidth"><path d="M0,5 L10,0 M0,5 L10,5 M0,5 L10,10" stroke="#0A0F25" stroke-width="2" fill="none"/></marker>
<marker id="arrow-cf-many-reverse" markerWidth="10" markerHeight="10" refX="0" refY="5" orient="auto" markerUnits="strokeWidth"><path d="M10,5 L0,0 M10,5 L0,5 M10,5 L0,10" stroke="#0A0F25" stroke-width="2" fill="none"/></marker>
<marker id="arrow-cf-one-required" markerWidth="10" markerHeight="10" refX="10" refY="5" orient="auto" markerUnits="strokeWidth"><line x1="10" y1="0" x2="10" y2="10" stroke="#0A0F25" stroke-width="2"/><line x1="7" y1="0" x2="7" y2="10" stroke="#0A0F25" stroke-width="2"/></marker>
<marker id="arrow-cf-one-required-reverse" markerWidth="10" markerHeight="10" refX="0" refY="5" orient="auto" markerUnits="strokeWidth"><line x1="0" y1="0" x2="0" y2="10" stroke="#0A0F25" stroke-width="2"/><line x1="3" y1="0" x2="3" y2="10" stroke="#0A0F25" stroke-width="2"/></marker>
<marker id="arrow-cf-many-required" markerWidth="10" markerHeight="10" refX="10" refY="5" orient="auto" markerUnits="strokeWidth"><path d="M0,5 L10,0 M0,5 L10,5 M0,5 L10,10" stroke="#0A0F25" stroke-width="2" fill="none"/><line x1="3" y1="0" x2="3" y2="10" stroke="#0A0F25" stroke-width="2"/></marker>
<marker id="arrow-cf-many-required-reverse" markerWidth="10" markerHeight="10" refX="0" refY="5" orient="auto" markerUnits="strokeWidth"><path d="M10,5 L0,0 M10,5 L0,5 M10,5 L0,10" stroke="#0A0F25" stroke-width="2" fill="none"/><line x1="7" y1="0" x2="7" y2="10" stroke="#0A0F25" stroke-width="2"/></marker>
<marker id="arrow-cf-one-optional" markerWidth="10" markerHeight="10" refX="10" refY="5" orient="auto" markerUnits="strokeWidth"><line x1="10" y1="0" x2="10" y2="10" stroke="#0A0F25" stroke-width="2"/><circle cx="7" cy="5" r="2" stroke="#0A0F25" stroke-width="2" fill="white"/></marker>
<marker id="arrow-cf-one-optional-reverse" markerWidth="10" markerHeight="10" refX="0" refY="5" orient="auto" markerUnits="strokeWidth"><line x1="0" y1="0" x2="0" y2="10" stroke="#0A0F25" stroke-width="2"/><circle cx="3" cy="5" r="2" stroke="#0A0F25" stroke-width="2" fill="white"/></marker>
<marker id="arrow-cf-many-optional" markerWidth="10" markerHeight="10" refX="10" refY="5" orient="auto" markerUnits="strokeWidth"><path d="M0,5 L10,0 M0,5 L10,5 M0,5 L10,10" stroke="#0A0F25" stroke-width="2" fill="none"/><circle cx="3" cy="5" r="2" stroke="#0A0F25" stroke-width="2" fill="white"/></marker>
<marker id="arrow-cf-many-optional-reverse" markerWidth="10" markerHeight="10" refX="0" refY="5" orient="auto" markerUnits="strokeWidth"><path d="M10,5 L0,0 M10,5 L0,5 M10,5 L0,10" stroke="#0A0F25" stroke-width="2" fill="none"/><circle cx="7" cy="5" r="2" stroke="#0A0F25" stroke-width="2" fill="white"/></marker>
<marker id="arrow-line" markerWidth="10" markerHeight="10" refX="10" refY="5" orient="auto" markerUnits="strokeWidth"><line x1="10" y1="0" x2="10" y2="10" stroke="#0A0F25" stroke-width="2"/></marker>
<marker id="arrow-line-reverse" markerWidth="10" markerHeight="10" refX="0" refY="5" orient="auto" markerUnits="strokeWidth"><line x1="0" y1="0" x2="0" y2="10" stroke="#0A0F25" stroke-width="2"/></marker>
<marker id="arrow-open" markerWidth="10" markerHeight="10" refX="10" refY="5" orient="auto" markerUnits="strokeWidth"><path d="M0,0 L10,5 L0,10" stroke="#0A0F25" stroke-width="2" fill="none"/></marker>
<marker id="arrow-open-reverse" markerWidth="10" markerHeight="10" refX="0" refY="5" orient="auto" markerUnits="strokeWidth"><path d="M10,0 L0,5 L10,10" stroke="#0A0F25" stroke-width="2" fill="none"/></marker>
<marker id="arrow" markerWidth="10" markerHeight="10" refX="10" refY="5" orient="auto" markerUnits="strokeWidth"><path d="M0,0 L10,5 L0,10 Z" fill="#0A0F25"/></marker>
<marker id="arrow-reverse" markerWidth="10" markerHeight="10" refX="0" refY="5" orient="auto" markerUnits="strokeWidth"><path d="M10,0 L0,5 L10,10 Z" fill="#0A0F25"/></marker>
</defs>
<rect width="100%" height="100%" fill="#FFFFFF"/>
<g id="base-layer" transform="translate(20,12)">
<rect x="8" y="20" width="112" height="106" fill="#FFFFFF" stroke="#0A0F25" stroke-width="2"/>
<rect x="8" y="20" width="112" height="26" fill="#4a5568" stroke="#0A0F25" stroke-width="2"/>
<line x1="8" y1="46" x2="120" y2="46" stroke="#0A0F25" stroke-width="2"/>
<rect x="180" y="20" width="112" height="124" fill="#FFFFFF" stroke="#0A0F25" stroke-width="2"/>
<rect x="180" y="20" width="112" height="26" fill="#4a5568" stroke="#0A0F25" stroke-width="2"/>
<line x1="180" y1="46" x2="292" y2="46" stroke="#0A0F25" stroke-width="2"/>
<rect x="20" y="192" width="88" height="106" fill="#FFFFFF" stroke="#0A0F25" stroke-width="2"/>
<rect x="20" y="192" width="88" height="26" fill="#4a5568" stroke="#0A0F25" stroke-width="2"/>
<line x1="20" y1="218" x2="108" y2="218" stroke="#0A0F25" stroke-width="2"/>
<path d="M 120 58.6 L 142 58.6 A 8 8 0 0 1 150 66.6 L 150 68.6 A 8 8 0 0 0 158 76.6 L 180 76.6" fill="none" stroke="#0A0F25" stroke-width="2" marker-start="url(#arrow-triangle-reverse)" marker-end="url(#arrow-triangle)"/>
<path d="M 180 58.6 L 152 58.6 A 8 8 0 0 0 144 66.6 L 144 240.6 A 8 8 0 0 1 136 248.6 L 108 248.6" fill="none" stroke="#0A0F25" stroke-width="2" marker-start="url(#arrow-triangle-reverse)" marker-end="url(#arrow-triangle)"/>
<path d="M 120 58.6 L 126 58.6 A 6 6 0 0 0 132 52.6 L 132 16 A 8 8 0 0 0 124 8 L 8 8 A 8 8 0 0 0 0 16 L 0 258.6 A 8 8 0 0 0 8 266.6 L 20 266.6" fill="none" stroke="#0A0F25" stroke-width="2" marker-start="url(#arrow-triangle-reverse)" marker-end="url(#arrow-triangle)"/>
<text x="64" y="33" text-anchor="middle" dominant-baseline="middle" font-family="Arial, sans-serif" font-size="14" font-weight="bold" fill="#ffffff">users</text>
<text x="16" y="58.6" text-anchor="start" dominant-baseline="middle" font-family="Arial, sans-serif" font-size="13" >id: int</text>
<text x="16" y="76.6" text-anchor="start" dominant-baseline="middle" font-family="Arial, sans-serif" font-size="13" >name: varchar(255)</text>
<text x="16" y="94.6" text-anchor="start" dominant-baseline="middle" font-family="Arial, sans-serif" font-size="13" >email: varchar(255)</text>
<text x="16" y="112.6" text-anchor="start" dominant-baseline="middle" font-family="Arial, sans-serif" font-size="13" >created_at: timestamp</text>
<text x="236" y="33" text-anchor="middle" dominant-baseline="middle" font-family="Arial, sans-serif" font-size="14" font-weight="bold" fill="#ffffff">posts</text>
<text x="188" y="58.6" text-anchor="start" dominant-baseline="middle" font-family="Arial, sans-serif" font-size="13" >id: int</text>
<text x="188" y="76.6" text-anchor="start" dominant-baseline="middle" font-family="Arial, sans-serif" font-size="13" >user_id: int</text>
<text x="188" y="94.6" text-anchor="start" dominant-baseline="middle" font-family="Arial, sans-serif" font-size="13" >title: varchar(255)</text>
<text x="188" y="112.6" text-anchor="start" dominant-baseline="middle" font-family="Arial, sans-serif" font-size="13" >content: text</text>
<text x="188" y="130.6" text-anchor="start" dominant-baseline="middle" font-family="Arial, sans-serif" font-size="13" >published: boolean</text>
<text x="64" y="205" text-anchor="middle" dominant-baseline="middle" font-family="Arial, sans-serif" font-size="14" font-weight="bold" fill="#ffffff">comments</text>
<text x="28" y="230.6" text-anchor="start" dominant-baseline="middle" font-family="Arial, sans-serif" font-size="13" >id: int</text>
<text x="28" y="248.6" text-anchor="start" dominant-baseline="middle" font-family="Arial, sans-serif" font-size="13" >post_id: int</text>
<text x="28" y="266.6" text-anchor="start" dominant-baseline="middle" font-family="Arial, sans-serif" font-size="13" >user_id: int</text>
<text x="28" y="284.6" text-anchor="start" dominant-baseline="middle" font-family="Arial, sans-serif" font-size="13" >body: text</text>
</g>
</svg>