<?xml version="1.0" encoding="UTF-8"?>
<svg xmlns="http://www.w3.org/2000/svg" width="160" height="320" viewBox="0 0 160 320">
<defs>
<marker id="arrow" markerWidth="10" markerHeight="10" refX="10" refY="5" orient="auto" markerUnits="strokeWidth">
<path d="M0,0 L10,5 L0,10 Z" fill="#333333"/>
</marker>
<marker id="arrow-reverse" markerWidth="10" markerHeight="10" refX="0" refY="5" orient="auto" markerUnits="strokeWidth">
<path d="M10,0 L0,5 L10,10 Z" fill="#333333"/>
</marker>
</defs>
<rect width="100%" height="100%" fill="#ffffff"/>
<g transform="translate(20,20)">
<path d="M 70 80 L 70 120" fill="none" stroke="#333333" stroke-width="2" marker-end="url(#arrow)"/>
<rect x="41.5" y="89" width="57" height="22" fill="white" rx="3" ry="3"/>
<text x="70" y="100" text-anchor="middle" dominant-baseline="middle" font-family="Arial, sans-serif" font-size="12">queries</text>
<path d="M 70 80 L 70 220" fill="none" stroke="#333333" stroke-width="2" marker-end="url(#arrow)"/>
<rect x="48.5" y="139" width="43" height="22" fill="white" rx="3" ry="3"/>
<text x="70" y="150" text-anchor="middle" dominant-baseline="middle" font-family="Arial, sans-serif" font-size="12">reads</text>
<path d="M 70 220 L 70 180" fill="none" stroke="#333333" stroke-width="2" marker-end="url(#arrow)"/>
<rect x="38" y="189" width="64" height="22" fill="white" rx="3" ry="3"/>
<text x="70" y="200" text-anchor="middle" dominant-baseline="middle" font-family="Arial, sans-serif" font-size="12">fallback</text>
<rect x="20" y="20" width="100" height="60" fill="#ffffff" stroke="#333333" stroke-width="2"/>
<text x="70" y="50" text-anchor="middle" dominant-baseline="middle" font-family="Arial, sans-serif" font-size="14">Web Server</text>
<rect x="20" y="120" width="100" height="60" fill="#ffffff" stroke="#333333" stroke-width="2"/>
<text x="70" y="150" text-anchor="middle" dominant-baseline="middle" font-family="Arial, sans-serif" font-size="14">Database</text>
<rect x="20" y="220" width="100" height="60" fill="#ffffff" stroke="#333333" stroke-width="2"/>
<text x="70" y="250" text-anchor="middle" dominant-baseline="middle" font-family="Arial, sans-serif" font-size="14">Cache</text>
</g>
</svg>