<?xml version="1.0" encoding="UTF-8"?>
<svg xmlns="http://www.w3.org/2000/svg" width="856.75" height="2296" viewBox="-88 -88 856.75 2296" data-d2-version="0.1.0">
<defs><marker id="arrow-triangle" markerWidth="10" markerHeight="10" refX="10" refY="5" orient="auto" markerUnits="strokeWidth"><path d="M0,0 L10,5 L0,10 Z" fill="#0A0F25"/></marker>
<marker id="arrow-triangle-reverse" markerWidth="10" markerHeight="10" refX="0" refY="5" orient="auto" markerUnits="strokeWidth"><path d="M10,0 L0,5 L10,10 Z" fill="#0A0F25"/></marker>
<marker id="arrow-diamond" markerWidth="10" markerHeight="10" refX="10" refY="5" orient="auto" markerUnits="strokeWidth"><path d="M0,5 L5,0 L10,5 L5,10 Z" fill="#0A0F25"/></marker>
<marker id="arrow-diamond-reverse" markerWidth="10" markerHeight="10" refX="0" refY="5" orient="auto" markerUnits="strokeWidth"><path d="M0,5 L5,0 L10,5 L5,10 Z" fill="#0A0F25"/></marker>
<marker id="arrow-circle" markerWidth="10" markerHeight="10" refX="6" refY="5" orient="auto" markerUnits="strokeWidth"><circle cx="5" cy="5" r="4" fill="#0A0F25"/></marker>
<marker id="arrow-circle-reverse" markerWidth="10" markerHeight="10" refX="4" refY="5" orient="auto" markerUnits="strokeWidth"><circle cx="5" cy="5" r="4" fill="#0A0F25"/></marker>
<marker id="arrow-cf-one" markerWidth="10" markerHeight="10" refX="10" refY="5" orient="auto" markerUnits="strokeWidth"><line x1="10" y1="0" x2="10" y2="10" stroke="#0A0F25" stroke-width="2"/></marker>
<marker id="arrow-cf-one-reverse" markerWidth="10" markerHeight="10" refX="0" refY="5" orient="auto" markerUnits="strokeWidth"><line x1="0" y1="0" x2="0" y2="10" stroke="#0A0F25" stroke-width="2"/></marker>
<marker id="arrow-cf-many" markerWidth="10" markerHeight="10" refX="10" refY="5" orient="auto" markerUnits="strokeWidth"><path d="M0,5 L10,0 M0,5 L10,5 M0,5 L10,10" stroke="#0A0F25" stroke-width="2" fill="none"/></marker>
<marker id="arrow-cf-many-reverse" markerWidth="10" markerHeight="10" refX="0" refY="5" orient="auto" markerUnits="strokeWidth"><path d="M10,5 L0,0 M10,5 L0,5 M10,5 L0,10" stroke="#0A0F25" stroke-width="2" fill="none"/></marker>
<marker id="arrow-cf-one-required" markerWidth="10" markerHeight="10" refX="10" refY="5" orient="auto" markerUnits="strokeWidth"><line x1="10" y1="0" x2="10" y2="10" stroke="#0A0F25" stroke-width="2"/><line x1="7" y1="0" x2="7" y2="10" stroke="#0A0F25" stroke-width="2"/></marker>
<marker id="arrow-cf-one-required-reverse" markerWidth="10" markerHeight="10" refX="0" refY="5" orient="auto" markerUnits="strokeWidth"><line x1="0" y1="0" x2="0" y2="10" stroke="#0A0F25" stroke-width="2"/><line x1="3" y1="0" x2="3" y2="10" stroke="#0A0F25" stroke-width="2"/></marker>
<marker id="arrow-cf-many-required" markerWidth="10" markerHeight="10" refX="10" refY="5" orient="auto" markerUnits="strokeWidth"><path d="M0,5 L10,0 M0,5 L10,5 M0,5 L10,10" stroke="#0A0F25" stroke-width="2" fill="none"/><line x1="3" y1="0" x2="3" y2="10" stroke="#0A0F25" stroke-width="2"/></marker>
<marker id="arrow-cf-many-required-reverse" markerWidth="10" markerHeight="10" refX="0" refY="5" orient="auto" markerUnits="strokeWidth"><path d="M10,5 L0,0 M10,5 L0,5 M10,5 L0,10" stroke="#0A0F25" stroke-width="2" fill="none"/><line x1="7" y1="0" x2="7" y2="10" stroke="#0A0F25" stroke-width="2"/></marker>
<marker id="arrow-cf-one-optional" markerWidth="10" markerHeight="10" refX="10" refY="5" orient="auto" markerUnits="strokeWidth"><line x1="10" y1="0" x2="10" y2="10" stroke="#0A0F25" stroke-width="2"/><circle cx="7" cy="5" r="2" stroke="#0A0F25" stroke-width="2" fill="white"/></marker>
<marker id="arrow-cf-one-optional-reverse" markerWidth="10" markerHeight="10" refX="0" refY="5" orient="auto" markerUnits="strokeWidth"><line x1="0" y1="0" x2="0" y2="10" stroke="#0A0F25" stroke-width="2"/><circle cx="3" cy="5" r="2" stroke="#0A0F25" stroke-width="2" fill="white"/></marker>
<marker id="arrow-cf-many-optional" markerWidth="10" markerHeight="10" refX="10" refY="5" orient="auto" markerUnits="strokeWidth"><path d="M0,5 L10,0 M0,5 L10,5 M0,5 L10,10" stroke="#0A0F25" stroke-width="2" fill="none"/><circle cx="3" cy="5" r="2" stroke="#0A0F25" stroke-width="2" fill="white"/></marker>
<marker id="arrow-cf-many-optional-reverse" markerWidth="10" markerHeight="10" refX="0" refY="5" orient="auto" markerUnits="strokeWidth"><path d="M10,5 L0,0 M10,5 L0,5 M10,5 L0,10" stroke="#0A0F25" stroke-width="2" fill="none"/><circle cx="7" cy="5" r="2" stroke="#0A0F25" stroke-width="2" fill="white"/></marker>
<marker id="arrow-line" markerWidth="10" markerHeight="10" refX="10" refY="5" orient="auto" markerUnits="strokeWidth"><line x1="10" y1="0" x2="10" y2="10" stroke="#0A0F25" stroke-width="2"/></marker>
<marker id="arrow-line-reverse" markerWidth="10" markerHeight="10" refX="0" refY="5" orient="auto" markerUnits="strokeWidth"><line x1="0" y1="0" x2="0" y2="10" stroke="#0A0F25" stroke-width="2"/></marker>
<marker id="arrow-open" markerWidth="10" markerHeight="10" refX="10" refY="5" orient="auto" markerUnits="strokeWidth"><path d="M0,0 L10,5 L0,10" stroke="#0A0F25" stroke-width="2" fill="none"/></marker>
<marker id="arrow-open-reverse" markerWidth="10" markerHeight="10" refX="0" refY="5" orient="auto" markerUnits="strokeWidth"><path d="M10,0 L0,5 L10,10" stroke="#0A0F25" stroke-width="2" fill="none"/></marker>
<marker id="arrow" markerWidth="10" markerHeight="10" refX="10" refY="5" orient="auto" markerUnits="strokeWidth"><path d="M0,0 L10,5 L0,10 Z" fill="#0A0F25"/></marker>
<marker id="arrow-reverse" markerWidth="10" markerHeight="10" refX="0" refY="5" orient="auto" markerUnits="strokeWidth"><path d="M10,0 L0,5 L10,10 Z" fill="#0A0F25"/></marker>
</defs>
<rect width="100%" height="100%" fill="#FFFFFF"/>
<g id="base-layer">
<rect x="12" y="12" width="333" height="60" fill="#FFFFFF" stroke="#0A0F25" stroke-width="2" rx="0" ry="0"/>
<path d="M 465 72 H 365 v -0.8527131782945736 c 0 -10.232558139534882 10.980966325036604 -19.45736434108527 28.25768667642753 -23.875968992248062 C 383.74084919472915 43.70542635658914 378.0307467057101 37.89147286821705 378.0307467057101 31.53488372093023 C 378.0307467057101 20.759689922480618 394.57540263543194 12 414.9267935578331 12 c 20.351390922401173 0 36.896046852122986 8.75968992248062 36.896046852122986 19.53488372093023 c 0 6.356589147286821 -5.563689604685212 12.093023255813952 -15.226939970717424 15.813953488372091 c 17.276720351390924 4.4186046511627906 28.25768667642753 13.643410852713178 28.25768667642753 23.875968992248062 v 0.7751937984496123 Z" fill="#FFFFFF" stroke="#0A0F25" stroke-width="2"/>
<path d="M 381.5267386091127 162.9751051625239 C 381.5267386091127 163.61250478011473 380.860551558753 164.2497896749522 380.19448441247005 164.2497896749522 C 371.70131894484416 165.0464244741874 365.039928057554 173.17269598470364 365.039928057554 183.05158699808797 C 365.039928057554 193.5678776290631 372.5339328537171 202.01273422562144 382.02637889688253 202.01273422562144 H 446.4748201438849 C 456.6334532374101 202.01273422562144 464.96007194244606 192.9304780114723 464.96007194244606 181.9362523900574 C 464.96007194244606 171.41996175908227 457.29940047961634 162.65640535372853 447.6406474820144 162.01912045889105 C 446.9744604316547 162.01912045889105 446.3083932853717 161.54107074569794 446.1418465227818 160.74443594646274 C 443.9768585131895 150.06891013384325 433.98477218225423 142.1019885277247 422.3275779376499 142.1019885277247 C 414.6670263788969 142.1019885277247 407.8390887290168 145.44810707456983 403.50935251798563 150.70619502868072 C 403.0097122302158 151.34359464627155 402.17709832134295 151.50294455066924 401.67745803357315 151.34359464627155 C 400.0121103117506 150.70619502868072 398.18033573141486 150.38760994263868 396.18189448441245 150.38760994263868 C 388.5212230215827 150.22814531548758 382.1929256594724 155.80493307839387 381.5267386091127 162.9751051625239 Z" fill="#e3f2fd" stroke="#0A0F25" stroke-width="2"/>
<polygon points="383.75,272 446.25,272 477.5,302 446.25,332 383.75,332 352.5,302" fill="#fff3e0" stroke="#0A0F25" stroke-width="2"/>
<rect x="120.75" y="467" width="488" height="160" fill="#e8f5e9" stroke="#0A0F25" stroke-width="2" rx="0" ry="0"/>
<rect x="190.75" y="717" width="348" height="290" fill="#f3e5f5" stroke="#0A0F25" stroke-width="2" rx="0" ry="0"/>
<path d="M 355.25 1216 C 355.25 1192 403.85 1192 409.25 1192 C 414.65 1192 463.25 1192 463.25 1216 L 463.25 1228 C 463.25 1252 414.65 1252 409.25 1252 C 403.85 1252 355.25 1252 355.25 1228 L 355.25 1216 Z" fill="#ffebee" stroke="#0A0F25" stroke-width="2"/>
<ellipse cx="409.25" cy="1216" rx="54" ry="24" fill="none" stroke="none" stroke-width="0"/>
<path d="M 355.25 1216 C 355.25 1240 403.85 1240 409.25 1240 C 414.65 1240 463.25 1240 463.25 1216" fill="none" stroke="#0A0F25" stroke-width="2"/>
<rect x="348.75" y="1717" width="320" height="391" fill="#fff8e1" stroke="#0A0F25" stroke-width="2" rx="0" ry="0"/>
<path d="M 208.75 1192 L 310.75 1192 C 319 1192 325.75 1207 325.75 1222 C 325.75 1237 319 1252 310.75 1252 L 208.75 1252 C 200.5 1252 193.75 1237 193.75 1222 C 193.75 1207 200.5 1192 208.75 1192 Z" fill="#e0f2f1" stroke="#0A0F25" stroke-width="2"/>
<rect x="74.75" y="1337" width="320" height="240" fill="#fce4ec" stroke="#0A0F25" stroke-width="2" rx="0" ry="0"/>
<path d="M 210.75 1717 L 309.75 1717 C 320.7 1717 324.75 1732 324.75 1747 C 324.75 1762 320.7 1777 309.75 1777 L 210.75 1777 C 199.8 1777 195.75 1762 195.75 1747 C 195.75 1732 199.8 1717 210.75 1717 Z" fill="#f5f5f5" stroke="#0A0F25" stroke-width="2"/>
<rect x="306.75" y="517" width="116" height="60" fill="#FFFFFF" stroke="#0A0F25" stroke-width="2" rx="0" ry="0"/>
<rect x="442.75" y="517" width="116" height="60" fill="#FFFFFF" stroke="#0A0F25" stroke-width="2" rx="0" ry="0"/>
<path d="M 456.75 1791 C 456.75 1767 503.55 1767 508.75 1767 C 513.95 1767 560.75 1767 560.75 1791 L 560.75 1803 C 560.75 1827 513.95 1827 508.75 1827 C 503.55 1827 456.75 1827 456.75 1803 L 456.75 1791 Z" fill="#FFFFFF" stroke="#0A0F25" stroke-width="2"/>
<ellipse cx="508.75" cy="1791" rx="52" ry="24" fill="none" stroke="none" stroke-width="0"/>
<path d="M 456.75 1791 C 456.75 1815 503.55 1815 508.75 1815 C 513.95 1815 560.75 1815 560.75 1791" fill="none" stroke="#0A0F25" stroke-width="2"/>
<path d="M 398.75 2022 C 398.75 1998 443.75 1998 448.75 1998 C 453.75 1998 498.75 1998 498.75 2022 L 498.75 2034 C 498.75 2058 453.75 2058 448.75 2058 C 443.75 2058 398.75 2058 398.75 2034 L 398.75 2022 Z" fill="#FFFFFF" stroke="#0A0F25" stroke-width="2"/>
<ellipse cx="448.75" cy="2022" rx="50" ry="24" fill="none" stroke="none" stroke-width="0"/>
<path d="M 398.75 2022 C 398.75 2046 443.75 2046 448.75 2046 C 453.75 2046 498.75 2046 498.75 2022" fill="none" stroke="#0A0F25" stroke-width="2"/>
<path d="M 518.75 2022 C 518.75 1998 563.75 1998 568.75 1998 C 573.75 1998 618.75 1998 618.75 2022 L 618.75 2034 C 618.75 2058 573.75 2058 568.75 2058 C 563.75 2058 518.75 2058 518.75 2034 L 518.75 2022 Z" fill="#FFFFFF" stroke="#0A0F25" stroke-width="2"/>
<ellipse cx="568.75" cy="2022" rx="50" ry="24" fill="none" stroke="none" stroke-width="0"/>
<path d="M 518.75 2022 C 518.75 2046 563.75 2046 568.75 2046 C 573.75 2046 618.75 2046 618.75 2022" fill="none" stroke="#0A0F25" stroke-width="2"/>
<rect x="170.75" y="517" width="116" height="60" fill="#FFFFFF" stroke="#0A0F25" stroke-width="2" rx="0" ry="0"/>
<rect x="240.75" y="767" width="114" height="60" fill="#FFFFFF" stroke="#0A0F25" stroke-width="2" rx="0" ry="0"/>
<rect x="124.75" y="1387" width="100" height="60" fill="#FFFFFF" stroke="#0A0F25" stroke-width="2" rx="0" ry="0"/>
<rect x="244.75" y="1387" width="100" height="60" fill="#FFFFFF" stroke="#0A0F25" stroke-width="2" rx="0" ry="0"/>
<rect x="374.75" y="767" width="114" height="60" fill="#FFFFFF" stroke="#0A0F25" stroke-width="2" rx="0" ry="0"/>
<path d="M 491.41666666666663 1829 C 491.41666666666663 1840.2 491.41666666666663 1845.8 491.41666666666663 1857 C 491.41666666666663 1857 491.41666666666663 1867 481.41666666666663 1867 C 472.34999999999997 1867 467.81666666666666 1867 458.75 1867 C 458.75 1867 448.75 1867 448.75 1877 C 448.75 1923.8 448.75 1947.2 448.75 1994" fill="none" stroke="#0A0F25" stroke-width="2" marker-end="url(#arrow-triangle)"/>
<rect x="433.25" y="1880.6666666666667" width="31" height="21" fill="#FFFFFF" stroke="none" stroke-width="1" rx="3" ry="3"/>
<text x="448.75" y="1896.6666666666667" text-anchor="middle" dominant-baseline="alphabetic" font-family="Arial, sans-serif" font-size="16" style="fill: #676C7E; font-style: italic">sync</text>
<path d="M 526.0833333333333 1829 C 526.0833333333333 1840.2 526.0833333333333 1845.8 526.0833333333333 1857 C 526.0833333333333 1857 526.0833333333333 1867 536.0833333333333 1867 C 545.15 1867 549.6833333333333 1867 558.75 1867 C 558.75 1867 568.75 1867 568.75 1877 C 568.75 1923.8 568.75 1947.2 568.75 1994" fill="none" stroke="#0A0F25" stroke-width="2" marker-end="url(#arrow-triangle)"/>
<rect x="553.25" y="1880.6666666666665" width="31" height="21" fill="#FFFFFF" stroke="none" stroke-width="1" rx="3" ry="3"/>
<text x="568.75" y="1896.6666666666665" text-anchor="middle" dominant-baseline="alphabetic" font-family="Arial, sans-serif" font-size="16" style="fill: #676C7E; font-style: italic">sync</text>
<path d="M 415 74 C 415 99.6 415 112.4 415 138" fill="none" stroke="#0A0F25" stroke-width="2" marker-end="url(#arrow-triangle)"/>
<path d="M 415 204 C 415 229.6 415 242.4 415 268" fill="none" stroke="#0A0F25" stroke-width="2" marker-end="url(#arrow-triangle)"/>
<path d="M 383.75 334 C 383.75 345.2 383.75 350.8 383.75 362 C 383.75 362 383.75 372 373.75 372 C 319.75 372 292.75 372 238.75 372 C 238.75 372 228.75 372 228.75 382 C 228.75 434.4 228.75 460.6 228.75 513" fill="none" stroke="#0A0F25" stroke-width="2" marker-end="url(#arrow-triangle)"/>
<path d="M 415 334 C 415 365.2 415 380.8 415 412 C 415 412 415 422 405 422 C 392.9 422 386.85 422 374.75 422 C 374.75 422 364.75 422 364.75 432 C 364.75 464.4 364.75 480.6 364.75 513" fill="none" stroke="#0A0F25" stroke-width="2" marker-end="url(#arrow-triangle)"/>
<path d="M 446.25 334 C 446.25 345.2 446.25 350.8 446.25 362 C 446.25 362 446.25 372 456.25 372 C 470.05 372 476.95 372 490.75 372 C 490.75 372 500.75 372 500.75 382 C 500.75 434.4 500.75 460.6 500.75 513" fill="none" stroke="#0A0F25" stroke-width="2" marker-end="url(#arrow-triangle)"/>
<path d="M 228.75 579 C 228.75 612.2 228.75 628.8 228.75 662 C 228.75 662 228.75 672 238.75 672 C 250.75 672 256.75 672 268.75 672 C 268.75 672 278.75 672 278.75 682 C 278.75 714.4 278.75 730.6 278.75 763" fill="none" stroke="#0A0F25" stroke-width="2" marker-end="url(#arrow-triangle)"/>
<path d="M 345.4166666666667 579 C 345.4166666666667 612.2 345.4166666666667 628.8 345.4166666666667 662 C 345.4166666666667 662 345.4166666666667 672 335.4166666666667 672 C 331.95 672 330.2166666666667 672 326.75 672 C 326.75 672 316.75 672 316.75 682 C 316.75 714.4 316.75 730.6 316.75 763" fill="none" stroke="#0A0F25" stroke-width="2" marker-end="url(#arrow-triangle)"/>
<path d="M 384.08333333333337 579 C 384.08333333333337 612.2 384.08333333333337 628.8 384.08333333333337 662 C 384.08333333333337 662 384.08333333333337 672 394.08333333333337 672 C 397.55 672 399.28333333333336 672 402.75 672 C 402.75 672 412.75 672 412.75 682 C 412.75 714.4 412.75 730.6 412.75 763" fill="none" stroke="#0A0F25" stroke-width="2" marker-end="url(#arrow-triangle)"/>
<path d="M 500.75 579 C 500.75 612.2 500.75 628.8 500.75 662 C 500.75 662 500.75 672 490.75 672 C 478.75 672 472.75 672 460.75 672 C 460.75 672 450.75 672 450.75 682 C 450.75 714.4 450.75 730.6 450.75 763" fill="none" stroke="#0A0F25" stroke-width="2" marker-end="url(#arrow-triangle)"/>
<path d="M 297.75 829 C 297.75 914.2 297.75 956.8 297.75 1042 C 297.75 1042 297.75 1052 307.75 1052 C 337.15 1052 351.85 1052 381.25 1052 C 381.25 1052 391.25 1052 391.25 1062 C 391.25 1112.4 391.25 1137.6 391.25 1188" fill="none" stroke="#0A0F25" stroke-width="2" marker-end="url(#arrow-triangle)"/>
<path d="M 427.25 829 C 427.25 972.6 427.25 1044.4 427.25 1188" fill="none" stroke="#0A0F25" stroke-width="2" marker-end="url(#arrow-triangle)"/>
<path d="M 326.25 829 C 326.25 860.2 326.25 875.8 326.25 907 C 326.25 907 326.25 917 336.25 917 C 374.45 917 393.55 917 431.75 917 C 431.75 917 441.75 917 441.75 927 C 441.75 993 441.75 1026 441.75 1092 C 441.75 1092 441.75 1102 451.75 1102 C 470.55 1102 479.95 1102 498.75 1102 C 498.75 1102 508.75 1102 508.75 1112 C 508.75 1372.4 508.74999999999994 1502.6 508.74999999999994 1763" fill="none" stroke="#0A0F25" stroke-width="2" marker-end="url(#arrow-triangle)"/>
<path d="M 460.25 829 C 460.25 914.2 460.25 956.8 460.25 1042 C 460.25 1042 460.25 1052 470.25 1052 C 492.05 1052 502.95 1052 524.75 1052 C 524.75 1052 534.75 1052 534.75 1062 C 534.75 1342.4 534.75 1482.6 534.75 1763" fill="none" stroke="#0A0F25" stroke-width="2" marker-end="url(#arrow-triangle)"/>
<path d="M 269.25 829 C 269.25 914.2 269.25 956.8 269.25 1042 C 269.25 1042 269.25 1052 259.25 1052 C 254.65 1052 252.35 1052 247.75 1052 C 247.75 1052 237.75 1052 237.75 1062 C 237.75 1112.4 237.75 1137.6 237.75 1188" fill="none" stroke="#0A0F25" stroke-width="2" marker-end="url(#arrow-triangle)"/>
<path d="M 403.25 829 C 403.25 840.2 403.25 845.8 403.25 857 C 403.25 857 403.25 867 393.25 867 C 355.05 867 335.95 867 297.75 867 C 297.75 867 287.75 867 287.75 877 C 287.75 1001.4 287.75 1063.6 287.75 1188" fill="none" stroke="#0A0F25" stroke-width="2" marker-end="url(#arrow-triangle)"/>
<path d="M 237.75 1254 C 237.75 1265.2 237.75 1270.8 237.75 1282 C 237.75 1282 237.75 1292 227.75 1292 C 210.55 1292 201.95 1292 184.75 1292 C 184.75 1292 174.75 1292 174.75 1302 C 174.75 1334.4 174.75 1350.6 174.75 1383" fill="none" stroke="#0A0F25" stroke-width="2" marker-end="url(#arrow-triangle)"/>
<path d="M 294.75 1254 C 294.75 1305.6 294.75 1331.4 294.75 1383" fill="none" stroke="#0A0F25" stroke-width="2" marker-end="url(#arrow-triangle)"/>
<path d="M 158.08333333333331 1449 C 158.08333333333331 1514.2 158.08333333333331 1546.8 158.08333333333331 1612 C 158.08333333333331 1612 158.08333333333331 1622 168.08333333333331 1622 C 192.35 1622 204.48333333333332 1622 228.75 1622 C 228.75 1622 238.75 1622 238.75 1632 C 238.75 1664.4 238.75 1680.6 238.75 1713" fill="none" stroke="#0A0F25" stroke-width="2" marker-end="url(#arrow-triangle)"/>
<path d="M 281.75 1449 C 281.75 1554.6 281.75 1607.4 281.75 1713" fill="none" stroke="#0A0F25" stroke-width="2" marker-end="url(#arrow-triangle)"/>
<path d="M 191.41666666666666 1449 C 191.41666666666666 1460.2 191.41666666666666 1465.8 191.41666666666666 1477 C 191.41666666666666 1477 191.41666666666666 1487 201.41666666666666 1487 C 309.95000000000005 1487 364.2166666666667 1487 472.75 1487 C 472.75 1487 482.75 1487 482.75 1497 C 482.75 1603.4 482.74999999999994 1656.6 482.74999999999994 1763" fill="none" stroke="#0A0F25" stroke-width="2" marker-end="url(#arrow-triangle)"/>
<text x="178.5" y="50.5" text-anchor="middle" dominant-baseline="alphabetic" font-family="Arial, sans-serif" font-size="24" style="fill: #0A0F25; font-weight: 700">Web Application Architecture</text>
<text x="415" y="93" text-anchor="middle" dominant-baseline="alphabetic" font-family="Arial, sans-serif" font-size="16" style="fill: #0A0F25; font-weight: 700">Users</text>
<text x="414.95" y="188.94" text-anchor="middle" dominant-baseline="alphabetic" font-family="Arial, sans-serif" font-size="16" style="fill: #0A0F25; font-weight: 700">CDN</text>
<text x="415" y="307.5" text-anchor="middle" dominant-baseline="alphabetic" font-family="Arial, sans-serif" font-size="16" style="fill: #0A0F25; font-weight: 700">Load Balancer</text>
<text x="364.75" y="454" text-anchor="middle" dominant-baseline="alphabetic" font-family="Arial, sans-serif" font-size="28" style="fill: #0A0F25">Web Tier</text>
<text x="364.75" y="704" text-anchor="middle" dominant-baseline="alphabetic" font-family="Arial, sans-serif" font-size="28" style="fill: #0A0F25">Application Tier</text>
<text x="409.25" y="1227.5" text-anchor="middle" dominant-baseline="alphabetic" font-family="Arial, sans-serif" font-size="16" style="fill: #0A0F25; font-weight: 700">Redis Cache</text>
<text x="508.75" y="1704" text-anchor="middle" dominant-baseline="alphabetic" font-family="Arial, sans-serif" font-size="28" style="fill: #0A0F25">Database Cluster</text>
<text x="247.75" y="1227.5" text-anchor="middle" dominant-baseline="alphabetic" font-family="Arial, sans-serif" font-size="16" style="fill: #0A0F25; font-weight: 700">Message Queue</text>
<text x="234.75" y="1324" text-anchor="middle" dominant-baseline="alphabetic" font-family="Arial, sans-serif" font-size="28" style="fill: #0A0F25">Background Workers</text>
<text x="260.25" y="1752.5" text-anchor="middle" dominant-baseline="alphabetic" font-family="Arial, sans-serif" font-size="16" style="fill: #0A0F25; font-weight: 700">Object Storage</text>
<text x="364.75" y="552.5" text-anchor="middle" dominant-baseline="alphabetic" font-family="Arial, sans-serif" font-size="16" style="fill: #0A0F25; font-weight: 700">Web Server 2</text>
<text x="500.75" y="552.5" text-anchor="middle" dominant-baseline="alphabetic" font-family="Arial, sans-serif" font-size="16" style="fill: #0A0F25; font-weight: 700">Web Server 3</text>
<text x="508.75" y="1802.5" text-anchor="middle" dominant-baseline="alphabetic" font-family="Arial, sans-serif" font-size="16" style="fill: #0A0F25; font-weight: 700">Primary DB</text>
<text x="448.75" y="2033.5" text-anchor="middle" dominant-baseline="alphabetic" font-family="Arial, sans-serif" font-size="16" style="fill: #0A0F25; font-weight: 700">Replica 1</text>
<text x="568.75" y="2033.5" text-anchor="middle" dominant-baseline="alphabetic" font-family="Arial, sans-serif" font-size="16" style="fill: #0A0F25; font-weight: 700">Replica 2</text>
<text x="228.75" y="552.5" text-anchor="middle" dominant-baseline="alphabetic" font-family="Arial, sans-serif" font-size="16" style="fill: #0A0F25; font-weight: 700">Web Server 1</text>
<text x="297.75" y="802.5" text-anchor="middle" dominant-baseline="alphabetic" font-family="Arial, sans-serif" font-size="16" style="fill: #0A0F25; font-weight: 700">App Server 1</text>
<text x="174.75" y="1422.5" text-anchor="middle" dominant-baseline="alphabetic" font-family="Arial, sans-serif" font-size="16" style="fill: #0A0F25; font-weight: 700">Worker 1</text>
<text x="294.75" y="1422.5" text-anchor="middle" dominant-baseline="alphabetic" font-family="Arial, sans-serif" font-size="16" style="fill: #0A0F25; font-weight: 700">Worker 2</text>
<text x="431.75" y="802.5" text-anchor="middle" dominant-baseline="alphabetic" font-family="Arial, sans-serif" font-size="16" style="fill: #0A0F25; font-weight: 700">App Server 2</text>
</g>
</svg>
