<?xml version="1.0" encoding="UTF-8"?>
<svg xmlns="http://www.w3.org/2000/svg" width="1024.125" height="2428" viewBox="-88 -78 1024.125 2428" data-d2-version="0.1.0">
<defs><marker id="arrow-triangle" markerWidth="10" markerHeight="10" refX="10" refY="5" orient="auto" markerUnits="strokeWidth"><path d="M0,0 L10,5 L0,10 Z" fill="#0A0F25"/></marker>
<marker id="arrow-triangle-reverse" markerWidth="10" markerHeight="10" refX="0" refY="5" orient="auto" markerUnits="strokeWidth"><path d="M10,0 L0,5 L10,10 Z" fill="#0A0F25"/></marker>
<marker id="arrow-diamond" markerWidth="10" markerHeight="10" refX="10" refY="5" orient="auto" markerUnits="strokeWidth"><path d="M0,5 L5,0 L10,5 L5,10 Z" fill="#0A0F25"/></marker>
<marker id="arrow-diamond-reverse" markerWidth="10" markerHeight="10" refX="0" refY="5" orient="auto" markerUnits="strokeWidth"><path d="M0,5 L5,0 L10,5 L5,10 Z" fill="#0A0F25"/></marker>
<marker id="arrow-circle" markerWidth="10" markerHeight="10" refX="6" refY="5" orient="auto" markerUnits="strokeWidth"><circle cx="5" cy="5" r="4" fill="#0A0F25"/></marker>
<marker id="arrow-circle-reverse" markerWidth="10" markerHeight="10" refX="4" refY="5" orient="auto" markerUnits="strokeWidth"><circle cx="5" cy="5" r="4" fill="#0A0F25"/></marker>
<marker id="arrow-cf-one" markerWidth="10" markerHeight="10" refX="10" refY="5" orient="auto" markerUnits="strokeWidth"><line x1="10" y1="0" x2="10" y2="10" stroke="#0A0F25" stroke-width="2"/></marker>
<marker id="arrow-cf-one-reverse" markerWidth="10" markerHeight="10" refX="0" refY="5" orient="auto" markerUnits="strokeWidth"><line x1="0" y1="0" x2="0" y2="10" stroke="#0A0F25" stroke-width="2"/></marker>
<marker id="arrow-cf-many" markerWidth="10" markerHeight="10" refX="10" refY="5" orient="auto" markerUnits="strokeWidth"><path d="M0,5 L10,0 M0,5 L10,5 M0,5 L10,10" stroke="#0A0F25" stroke-width="2" fill="none"/></marker>
<marker id="arrow-cf-many-reverse" markerWidth="10" markerHeight="10" refX="0" refY="5" orient="auto" markerUnits="strokeWidth"><path d="M10,5 L0,0 M10,5 L0,5 M10,5 L0,10" stroke="#0A0F25" stroke-width="2" fill="none"/></marker>
<marker id="arrow-cf-one-required" markerWidth="10" markerHeight="10" refX="10" refY="5" orient="auto" markerUnits="strokeWidth"><line x1="10" y1="0" x2="10" y2="10" stroke="#0A0F25" stroke-width="2"/><line x1="7" y1="0" x2="7" y2="10" stroke="#0A0F25" stroke-width="2"/></marker>
<marker id="arrow-cf-one-required-reverse" markerWidth="10" markerHeight="10" refX="0" refY="5" orient="auto" markerUnits="strokeWidth"><line x1="0" y1="0" x2="0" y2="10" stroke="#0A0F25" stroke-width="2"/><line x1="3" y1="0" x2="3" y2="10" stroke="#0A0F25" stroke-width="2"/></marker>
<marker id="arrow-cf-many-required" markerWidth="10" markerHeight="10" refX="10" refY="5" orient="auto" markerUnits="strokeWidth"><path d="M0,5 L10,0 M0,5 L10,5 M0,5 L10,10" stroke="#0A0F25" stroke-width="2" fill="none"/><line x1="3" y1="0" x2="3" y2="10" stroke="#0A0F25" stroke-width="2"/></marker>
<marker id="arrow-cf-many-required-reverse" markerWidth="10" markerHeight="10" refX="0" refY="5" orient="auto" markerUnits="strokeWidth"><path d="M10,5 L0,0 M10,5 L0,5 M10,5 L0,10" stroke="#0A0F25" stroke-width="2" fill="none"/><line x1="7" y1="0" x2="7" y2="10" stroke="#0A0F25" stroke-width="2"/></marker>
<marker id="arrow-cf-one-optional" markerWidth="10" markerHeight="10" refX="10" refY="5" orient="auto" markerUnits="strokeWidth"><line x1="10" y1="0" x2="10" y2="10" stroke="#0A0F25" stroke-width="2"/><circle cx="7" cy="5" r="2" stroke="#0A0F25" stroke-width="2" fill="white"/></marker>
<marker id="arrow-cf-one-optional-reverse" markerWidth="10" markerHeight="10" refX="0" refY="5" orient="auto" markerUnits="strokeWidth"><line x1="0" y1="0" x2="0" y2="10" stroke="#0A0F25" stroke-width="2"/><circle cx="3" cy="5" r="2" stroke="#0A0F25" stroke-width="2" fill="white"/></marker>
<marker id="arrow-cf-many-optional" markerWidth="10" markerHeight="10" refX="10" refY="5" orient="auto" markerUnits="strokeWidth"><path d="M0,5 L10,0 M0,5 L10,5 M0,5 L10,10" stroke="#0A0F25" stroke-width="2" fill="none"/><circle cx="3" cy="5" r="2" stroke="#0A0F25" stroke-width="2" fill="white"/></marker>
<marker id="arrow-cf-many-optional-reverse" markerWidth="10" markerHeight="10" refX="0" refY="5" orient="auto" markerUnits="strokeWidth"><path d="M10,5 L0,0 M10,5 L0,5 M10,5 L0,10" stroke="#0A0F25" stroke-width="2" fill="none"/><circle cx="7" cy="5" r="2" stroke="#0A0F25" stroke-width="2" fill="white"/></marker>
<marker id="arrow-line" markerWidth="10" markerHeight="10" refX="10" refY="5" orient="auto" markerUnits="strokeWidth"><line x1="10" y1="0" x2="10" y2="10" stroke="#0A0F25" stroke-width="2"/></marker>
<marker id="arrow-line-reverse" markerWidth="10" markerHeight="10" refX="0" refY="5" orient="auto" markerUnits="strokeWidth"><line x1="0" y1="0" x2="0" y2="10" stroke="#0A0F25" stroke-width="2"/></marker>
<marker id="arrow-open" markerWidth="10" markerHeight="10" refX="10" refY="5" orient="auto" markerUnits="strokeWidth"><path d="M0,0 L10,5 L0,10" stroke="#0A0F25" stroke-width="2" fill="none"/></marker>
<marker id="arrow-open-reverse" markerWidth="10" markerHeight="10" refX="0" refY="5" orient="auto" markerUnits="strokeWidth"><path d="M10,0 L0,5 L10,10" stroke="#0A0F25" stroke-width="2" fill="none"/></marker>
<marker id="arrow" markerWidth="10" markerHeight="10" refX="10" refY="5" orient="auto" markerUnits="strokeWidth"><path d="M0,0 L10,5 L0,10 Z" fill="#0A0F25"/></marker>
<marker id="arrow-reverse" markerWidth="10" markerHeight="10" refX="0" refY="5" orient="auto" markerUnits="strokeWidth"><path d="M10,0 L0,5 L10,10 Z" fill="#0A0F25"/></marker>
</defs>
<rect width="100%" height="100%" fill="#FFFFFF"/>
<g id="base-layer">
<rect x="12" y="27.5" width="354" height="76" fill="#FFFFFF" stroke="#0A0F25" stroke-width="2" rx="0" ry="0"/>
<path d="M 440 88 H 386 v -0.937984496124031 c 0 -11.25581395348837 5.929721815519766 -21.4031007751938 15.259150805270865 -26.26356589147287 C 396.1200585651537 56.87596899224806 393.03660322108345 50.48062015503876 393.03660322108345 43.48837209302326 C 393.03660322108345 31.63565891472868 401.97071742313324 22 412.96046852122987 22 c 10.989751098096633 0 19.923865300146414 9.635658914728682 19.923865300146414 21.488372093023255 c 0 6.992248062015503 -3.0043923865300144 13.302325581395348 -8.222547584187408 17.3953488372093 c 9.329428989751099 4.8604651162790695 15.259150805270865 15.007751937984496 15.259150805270865 26.26356589147287 v 0.8527131782945736 Z" fill="#FFFFFF" stroke="#0A0F25" stroke-width="2"/>
<path d="M 387.2045995203837 218.36514722753347 C 387.2045995203837 219.25750669216063 386.59170743405275 220.14970554493308 385.9789256594724 220.14970554493308 C 378.1652134292566 221.26499426386235 372.0367338129496 232.6417743785851 372.0367338129496 246.47222179732313 C 372.0367338129496 261.1950286806883 378.9312182254196 273.01782791587 387.6642685851318 273.01782791587 H 446.95683453237405 C 456.3027769784172 273.01782791587 463.9632661870503 260.3026692160612 463.9632661870503 244.9107533460803 C 463.9632661870503 230.1879464627151 456.91544844124695 217.91896749521987 448.0293956834532 217.02676864244742 C 447.41650359712224 217.02676864244742 446.8037218225419 216.35749904397707 446.65049880095916 215.2422103250478 C 444.6587098321342 200.2964741873805 435.46599040767376 189.14278393881455 424.7413717026378 189.14278393881455 C 417.69366426858505 189.14278393881455 411.4119616306954 193.82734990439772 407.4286043165467 201.188673040153 C 406.9689352517985 202.08103250478015 406.2029304556354 202.30412237093694 405.7432613908872 202.08103250478015 C 404.21114148681045 201.188673040153 402.5259088729016 200.7426539196941 400.6873429256594 200.7426539196941 C 393.6395251798561 200.51940344168258 387.8174916067146 208.32690630975142 387.2045995203837 218.36514722753347 Z" fill="#e3f2fd" stroke="#0A0F25" stroke-width="2"/>
<polygon points="370.75,343 465.25,343 512.5,377.5 465.25,412 370.75,412 323.5,377.5" fill="#fff3e0" stroke="#0A0F25" stroke-width="2"/>
<rect x="142.5" y="497" width="551" height="166" fill="#e8f5e9" stroke="#0A0F25" stroke-width="2" rx="0" ry="0"/>
<rect x="223" y="753" width="390" height="246" fill="#f3e5f5" stroke="#0A0F25" stroke-width="2" rx="0" ry="0"/>
<path d="M 275.95833333333337 1258 C 275.95833333333337 1234 334.0083333333334 1234 340.45833333333337 1234 C 346.90833333333336 1234 404.95833333333337 1234 404.95833333333337 1258 L 404.95833333333337 1328 C 404.95833333333337 1352 346.90833333333336 1352 340.45833333333337 1352 C 334.0083333333334 1352 275.95833333333337 1352 275.95833333333337 1328 L 275.95833333333337 1258 Z" fill="#ffebee" stroke="#0A0F25" stroke-width="2"/>
<ellipse cx="340.45833333333337" cy="1258" rx="64.5" ry="24" fill="none" stroke="none" stroke-width="0"/>
<path d="M 275.95833333333337 1258 C 275.95833333333337 1282 334.0083333333334 1282 340.45833333333337 1282 C 346.90833333333336 1282 404.95833333333337 1282 404.95833333333337 1258" fill="none" stroke="#0A0F25" stroke-width="2"/>
<rect x="196.75000000000003" y="1743" width="336" height="507" fill="#fff8e1" stroke="#0A0F25" stroke-width="2" rx="0" ry="0"/>
<path d="M 610.4583333333333 1260 L 785.4583333333333 1260 C 793.7083333333333 1260 800.4583333333333 1276.5 800.4583333333333 1293 C 800.4583333333333 1309.5 793.7083333333333 1326 785.4583333333333 1326 L 610.4583333333333 1326 C 602.2083333333333 1326 595.4583333333333 1309.5 595.4583333333333 1293 C 595.4583333333333 1276.5 602.2083333333333 1260 610.4583333333333 1260 Z" fill="#e0f2f1" stroke="#0A0F25" stroke-width="2"/>
<rect x="500.125" y="1437" width="336" height="166" fill="#fce4ec" stroke="#0A0F25" stroke-width="2" rx="0" ry="0"/>
<path d="M 633.7916666666667 1743 L 773.7916666666667 1743 C 784.7416666666668 1743 788.7916666666667 1759.5 788.7916666666667 1776 C 788.7916666666667 1792.5 784.7416666666668 1809 773.7916666666667 1809 L 633.7916666666667 1809 C 622.8416666666667 1809 618.7916666666667 1792.5 618.7916666666667 1776 C 618.7916666666667 1759.5 622.8416666666667 1743 633.7916666666667 1743 Z" fill="#f5f5f5" stroke="#0A0F25" stroke-width="2"/>
<rect x="349.5" y="547" width="137" height="66" fill="#FFFFFF" stroke="#0A0F25" stroke-width="2" rx="0" ry="0"/>
<rect x="506.5" y="547" width="137" height="66" fill="#FFFFFF" stroke="#0A0F25" stroke-width="2" rx="0" ry="0"/>
<path d="M 302.25 1817 C 302.25 1793 358.5 1793 364.75 1793 C 371 1793 427.25 1793 427.25 1817 L 427.25 1887 C 427.25 1911 371 1911 364.75 1911 C 358.5 1911 302.25 1911 302.25 1887 L 302.25 1817 Z" fill="#FFFFFF" stroke="#0A0F25" stroke-width="2"/>
<ellipse cx="364.75" cy="1817" rx="62.5" ry="24" fill="none" stroke="none" stroke-width="0"/>
<path d="M 302.25 1817 C 302.25 1841 358.5 1841 364.75 1841 C 371 1841 427.25 1841 427.25 1817" fill="none" stroke="#0A0F25" stroke-width="2"/>
<path d="M 246.75000000000003 2106 C 246.75000000000003 2082 295.35 2082 300.75 2082 C 306.15 2082 354.75 2082 354.75 2106 L 354.75 2176 C 354.75 2200 306.15 2200 300.75 2200 C 295.35 2200 246.75000000000003 2200 246.75000000000003 2176 L 246.75000000000003 2106 Z" fill="#FFFFFF" stroke="#0A0F25" stroke-width="2"/>
<ellipse cx="300.75" cy="2106" rx="54" ry="24" fill="none" stroke="none" stroke-width="0"/>
<path d="M 246.75000000000003 2106 C 246.75000000000003 2130 295.35 2130 300.75 2130 C 306.15 2130 354.75 2130 354.75 2106" fill="none" stroke="#0A0F25" stroke-width="2"/>
<path d="M 374.75 2106 C 374.75 2082 423.35 2082 428.75 2082 C 434.15 2082 482.75 2082 482.75 2106 L 482.75 2176 C 482.75 2200 434.15 2200 428.75 2200 C 423.35 2200 374.75 2200 374.75 2176 L 374.75 2106 Z" fill="#FFFFFF" stroke="#0A0F25" stroke-width="2"/>
<ellipse cx="428.75" cy="2106" rx="54" ry="24" fill="none" stroke="none" stroke-width="0"/>
<path d="M 374.75 2106 C 374.75 2130 423.35 2130 428.75 2130 C 434.15 2130 482.75 2130 482.75 2106" fill="none" stroke="#0A0F25" stroke-width="2"/>
<rect x="192.5" y="547" width="137" height="66" fill="#FFFFFF" stroke="#0A0F25" stroke-width="2" rx="0" ry="0"/>
<rect x="273" y="803" width="135" height="66" fill="#FFFFFF" stroke="#0A0F25" stroke-width="2" rx="0" ry="0"/>
<rect x="550.125" y="1487" width="108" height="66" fill="#FFFFFF" stroke="#0A0F25" stroke-width="2" rx="0" ry="0"/>
<rect x="678.125" y="1487" width="108" height="66" fill="#FFFFFF" stroke="#0A0F25" stroke-width="2" rx="0" ry="0"/>
<rect x="428" y="803" width="135" height="66" fill="#FFFFFF" stroke="#0A0F25" stroke-width="2" rx="0" ry="0"/>
<path d="M 343.9166666666667 1913 L 343.9166666666667 1941 C 343.9166666666667 1941 343.9166666666667 1951 333.9166666666667 1951 L 310.75 1951 C 310.75 1951 300.75 1951 300.75 1961 L 300.75 2078" fill="none" stroke="#0A0F25" stroke-width="2" marker-end="url(#arrow-triangle)"/>
<rect x="285.25" y="1964.4166666666667" width="31" height="21" fill="#FFFFFF" stroke="none" stroke-width="1" rx="3" ry="3"/>
<text x="300.75" y="1980.4166666666667" text-anchor="middle" dominant-baseline="alphabetic" font-family="Arial, sans-serif" font-size="16" style="fill: #676C7E; font-style: italic">sync</text>
<path d="M 385.58333333333337 1913 L 385.58333333333337 1941 C 385.58333333333337 1941 385.58333333333337 1951 395.58333333333337 1951 L 418.75 1951 C 418.75 1951 428.75 1951 428.75 1961 L 428.75 2078" fill="none" stroke="#0A0F25" stroke-width="2" marker-end="url(#arrow-triangle)"/>
<rect x="413.25" y="1964.4166666666667" width="31" height="21" fill="#FFFFFF" stroke="none" stroke-width="1" rx="3" ry="3"/>
<text x="428.75" y="1980.4166666666667" text-anchor="middle" dominant-baseline="alphabetic" font-family="Arial, sans-serif" font-size="16" style="fill: #676C7E; font-style: italic">sync</text>
<path d="M 418 116 L 418 185" fill="none" stroke="#0A0F25" stroke-width="2" marker-end="url(#arrow-triangle)"/>
<path d="M 418 275 L 418 339" fill="none" stroke="#0A0F25" stroke-width="2" marker-end="url(#arrow-triangle)"/>
<path d="M 370.75 414 L 370.75 442 C 370.75 442 370.75 452 360.75 452 L 271 452 C 271 452 261 452 261 462 L 261 543" fill="none" stroke="#0A0F25" stroke-width="2" marker-end="url(#arrow-triangle)"/>
<path d="M 418 414 L 418 543" fill="none" stroke="#0A0F25" stroke-width="2" marker-end="url(#arrow-triangle)"/>
<path d="M 465.25 414 L 465.25 442 C 465.25 442 465.25 452 475.25 452 L 565 452 C 565 452 575 452 575 462 L 575 543" fill="none" stroke="#0A0F25" stroke-width="2" marker-end="url(#arrow-triangle)"/>
<path d="M 261 615 L 261 698 C 261 698 261 708 271 708 L 308 708 C 308 708 318 708 318 718 L 318 799" fill="none" stroke="#0A0F25" stroke-width="2" marker-end="url(#arrow-triangle)"/>
<path d="M 395.16666666666663 615 L 395.16666666666663 698 C 395.16666666666663 698 395.16666666666663 708 385.16666666666663 708 L 373 708 C 373 708 363 708 363 718 L 363 799" fill="none" stroke="#0A0F25" stroke-width="2" marker-end="url(#arrow-triangle)"/>
<path d="M 440.8333333333333 615 L 440.8333333333333 698 C 440.8333333333333 698 440.8333333333333 708 450.8333333333333 708 L 463 708 C 463 708 473 708 473 718 L 473 799" fill="none" stroke="#0A0F25" stroke-width="2" marker-end="url(#arrow-triangle)"/>
<path d="M 575 615 L 575 698 C 575 698 575 708 565 708 L 528 708 C 528 708 518 708 518 718 L 518 799" fill="none" stroke="#0A0F25" stroke-width="2" marker-end="url(#arrow-triangle)"/>
<path d="M 340.5 871 L 340.5 1230" fill="none" stroke="#0A0F25" stroke-width="2" marker-end="url(#arrow-triangle)"/>
<path d="M 461.75 871 L 461.75 1134 C 461.75 1134 461.75 1144 451.75 1144 L 371.95833333333337 1144 C 371.95833333333337 1144 361.95833333333337 1144 361.95833333333337 1154 L 361.95833333333337 1230" fill="none" stroke="#0A0F25" stroke-width="2" marker-end="url(#arrow-triangle)"/>
<path d="M 306.75 871 L 306.75 1034 C 306.75 1034 306.75 1044 296.75 1044 L 244.95833333333334 1044 C 244.95833333333334 1044 234.95833333333334 1044 234.95833333333334 1054 L 234.95833333333334 1638 C 234.95833333333334 1638 234.95833333333334 1648 244.95833333333334 1648 L 323.5 1648 C 323.5 1648 333.5 1648 333.5 1658 L 333.50000000000006 1789" fill="none" stroke="#0A0F25" stroke-width="2" marker-end="url(#arrow-triangle)"/>
<path d="M 495.5 871 L 495.5 1184 C 495.5 1184 495.5 1194 485.5 1194 L 454.95833333333337 1194 C 454.95833333333337 1194 444.95833333333337 1194 444.95833333333337 1204 L 444.95833333333337 1638 C 444.95833333333337 1638 444.95833333333337 1648 434.95833333333337 1648 L 374.75 1648 C 374.75 1648 364.75 1648 364.75 1658 L 364.75000000000006 1789" fill="none" stroke="#0A0F25" stroke-width="2" marker-end="url(#arrow-triangle)"/>
<path d="M 374.25 871 L 374.25 1084 C 374.25 1084 374.25 1094 384.25 1094 L 653.7916666666666 1094 C 653.7916666666666 1094 663.7916666666666 1094 663.7916666666666 1104 L 663.7916666666666 1256" fill="none" stroke="#0A0F25" stroke-width="2" marker-end="url(#arrow-triangle)"/>
<path d="M 529.25 871 L 529.25 1034 C 529.25 1034 529.25 1044 539.25 1044 L 722.125 1044 C 722.125 1044 732.125 1044 732.125 1054 L 732.125 1256" fill="none" stroke="#0A0F25" stroke-width="2" marker-end="url(#arrow-triangle)"/>
<path d="M 663.7916666666666 1328 L 663.7916666666666 1382 C 663.7916666666666 1382 663.7916666666666 1392 653.7916666666666 1392 L 614.125 1392 C 614.125 1392 604.125 1392 604.125 1402 L 604.125 1483" fill="none" stroke="#0A0F25" stroke-width="2" marker-end="url(#arrow-triangle)"/>
<path d="M 732.125 1328 L 732.125 1483" fill="none" stroke="#0A0F25" stroke-width="2" marker-end="url(#arrow-triangle)"/>
<path d="M 622.125 1555 L 622.125 1638 C 622.125 1638 622.125 1648 632.125 1648 L 665.4583333333334 1648 C 665.4583333333334 1648 675.4583333333334 1648 675.4583333333334 1658 L 675.4583333333334 1739" fill="none" stroke="#0A0F25" stroke-width="2" marker-end="url(#arrow-triangle)"/>
<path d="M 732.125 1555 L 732.125 1739" fill="none" stroke="#0A0F25" stroke-width="2" marker-end="url(#arrow-triangle)"/>
<path d="M 586.125 1555 L 586.125 1688 C 586.125 1688 586.125 1698 576.125 1698 L 406 1698 C 406 1698 396 1698 396 1708 L 396.00000000000006 1789" fill="none" stroke="#0A0F25" stroke-width="2" marker-end="url(#arrow-triangle)"/>
<text x="189" y="74" text-anchor="middle" dominant-baseline="alphabetic" font-family="Arial, sans-serif" font-size="24" style="fill: #0A0F25; font-weight: 700">Web Application Architecture</text>
<text x="413" y="109" text-anchor="middle" dominant-baseline="alphabetic" font-family="Arial, sans-serif" font-size="16" style="fill: #0A0F25; font-weight: 700">Users</text>
<text x="418" y="236.5" text-anchor="middle" dominant-baseline="alphabetic" font-family="Arial, sans-serif" font-size="16" style="fill: #0A0F25; font-weight: 700">CDN</text>
<text x="418" y="383" text-anchor="middle" dominant-baseline="alphabetic" font-family="Arial, sans-serif" font-size="16" style="fill: #0A0F25; font-weight: 700">Load Balancer</text>
<text x="418" y="530" text-anchor="middle" dominant-baseline="alphabetic" font-family="Arial, sans-serif" font-size="28" style="fill: #0A0F25">Web Tier</text>
<text x="418" y="786" text-anchor="middle" dominant-baseline="alphabetic" font-family="Arial, sans-serif" font-size="28" style="fill: #0A0F25">Application Tier</text>
<text x="340.45833333333337" y="1298.5" text-anchor="middle" dominant-baseline="alphabetic" font-family="Arial, sans-serif" font-size="16" style="fill: #0A0F25; font-weight: 700">Redis Cache</text>
<text x="364.75" y="1776" text-anchor="middle" dominant-baseline="alphabetic" font-family="Arial, sans-serif" font-size="28" style="fill: #0A0F25">Database Cluster</text>
<text x="697.9583333333333" y="1298.5" text-anchor="middle" dominant-baseline="alphabetic" font-family="Arial, sans-serif" font-size="16" style="fill: #0A0F25; font-weight: 700">Message Queue</text>
<text x="668.125" y="1470" text-anchor="middle" dominant-baseline="alphabetic" font-family="Arial, sans-serif" font-size="28" style="fill: #0A0F25">Background Workers</text>
<text x="703.7916666666667" y="1781.5" text-anchor="middle" dominant-baseline="alphabetic" font-family="Arial, sans-serif" font-size="16" style="fill: #0A0F25; font-weight: 700">Object Storage</text>
<text x="418" y="585.5" text-anchor="middle" dominant-baseline="alphabetic" font-family="Arial, sans-serif" font-size="16" style="fill: #0A0F25; font-weight: 700">Web Server 2</text>
<text x="575" y="585.5" text-anchor="middle" dominant-baseline="alphabetic" font-family="Arial, sans-serif" font-size="16" style="fill: #0A0F25; font-weight: 700">Web Server 3</text>
<text x="364.75" y="1857.5" text-anchor="middle" dominant-baseline="alphabetic" font-family="Arial, sans-serif" font-size="16" style="fill: #0A0F25; font-weight: 700">Primary DB</text>
<text x="300.75" y="2146.5" text-anchor="middle" dominant-baseline="alphabetic" font-family="Arial, sans-serif" font-size="16" style="fill: #0A0F25; font-weight: 700">Replica 1</text>
<text x="428.75" y="2146.5" text-anchor="middle" dominant-baseline="alphabetic" font-family="Arial, sans-serif" font-size="16" style="fill: #0A0F25; font-weight: 700">Replica 2</text>
<text x="261" y="585.5" text-anchor="middle" dominant-baseline="alphabetic" font-family="Arial, sans-serif" font-size="16" style="fill: #0A0F25; font-weight: 700">Web Server 1</text>
<text x="340.5" y="841.5" text-anchor="middle" dominant-baseline="alphabetic" font-family="Arial, sans-serif" font-size="16" style="fill: #0A0F25; font-weight: 700">App Server 1</text>
<text x="604.125" y="1525.5" text-anchor="middle" dominant-baseline="alphabetic" font-family="Arial, sans-serif" font-size="16" style="fill: #0A0F25; font-weight: 700">Worker 1</text>
<text x="732.125" y="1525.5" text-anchor="middle" dominant-baseline="alphabetic" font-family="Arial, sans-serif" font-size="16" style="fill: #0A0F25; font-weight: 700">Worker 2</text>
<text x="495.5" y="841.5" text-anchor="middle" dominant-baseline="alphabetic" font-family="Arial, sans-serif" font-size="16" style="fill: #0A0F25; font-weight: 700">App Server 2</text>
</g>
</svg>
