<?xml version="1.0" encoding="UTF-8"?>
<svg xmlns="http://www.w3.org/2000/svg" width="989.25" height="2166" viewBox="-88 -88 989.25 2166" data-d2-version="0.1.0">
<defs><marker id="arrow-triangle" markerWidth="10" markerHeight="10" refX="10" refY="5" orient="auto" markerUnits="strokeWidth"><path d="M0,0 L10,5 L0,10 Z" fill="#0A0F25"/></marker>
<marker id="arrow-triangle-reverse" markerWidth="10" markerHeight="10" refX="0" refY="5" orient="auto" markerUnits="strokeWidth"><path d="M10,0 L0,5 L10,10 Z" fill="#0A0F25"/></marker>
<marker id="arrow-diamond" markerWidth="10" markerHeight="10" refX="10" refY="5" orient="auto" markerUnits="strokeWidth"><path d="M0,5 L5,0 L10,5 L5,10 Z" fill="#0A0F25"/></marker>
<marker id="arrow-diamond-reverse" markerWidth="10" markerHeight="10" refX="0" refY="5" orient="auto" markerUnits="strokeWidth"><path d="M0,5 L5,0 L10,5 L5,10 Z" fill="#0A0F25"/></marker>
<marker id="arrow-circle" markerWidth="10" markerHeight="10" refX="6" refY="5" orient="auto" markerUnits="strokeWidth"><circle cx="5" cy="5" r="4" fill="#0A0F25"/></marker>
<marker id="arrow-circle-reverse" markerWidth="10" markerHeight="10" refX="4" refY="5" orient="auto" markerUnits="strokeWidth"><circle cx="5" cy="5" r="4" fill="#0A0F25"/></marker>
<marker id="arrow-cf-one" markerWidth="10" markerHeight="10" refX="10" refY="5" orient="auto" markerUnits="strokeWidth"><line x1="10" y1="0" x2="10" y2="10" stroke="#0A0F25" stroke-width="2"/></marker>
<marker id="arrow-cf-one-reverse" markerWidth="10" markerHeight="10" refX="0" refY="5" orient="auto" markerUnits="strokeWidth"><line x1="0" y1="0" x2="0" y2="10" stroke="#0A0F25" stroke-width="2"/></marker>
<marker id="arrow-cf-many" markerWidth="10" markerHeight="10" refX="10" refY="5" orient="auto" markerUnits="strokeWidth"><path d="M0,5 L10,0 M0,5 L10,5 M0,5 L10,10" stroke="#0A0F25" stroke-width="2" fill="none"/></marker>
<marker id="arrow-cf-many-reverse" markerWidth="10" markerHeight="10" refX="0" refY="5" orient="auto" markerUnits="strokeWidth"><path d="M10,5 L0,0 M10,5 L0,5 M10,5 L0,10" stroke="#0A0F25" stroke-width="2" fill="none"/></marker>
<marker id="arrow-cf-one-required" markerWidth="10" markerHeight="10" refX="10" refY="5" orient="auto" markerUnits="strokeWidth"><line x1="10" y1="0" x2="10" y2="10" stroke="#0A0F25" stroke-width="2"/><line x1="7" y1="0" x2="7" y2="10" stroke="#0A0F25" stroke-width="2"/></marker>
<marker id="arrow-cf-one-required-reverse" markerWidth="10" markerHeight="10" refX="0" refY="5" orient="auto" markerUnits="strokeWidth"><line x1="0" y1="0" x2="0" y2="10" stroke="#0A0F25" stroke-width="2"/><line x1="3" y1="0" x2="3" y2="10" stroke="#0A0F25" stroke-width="2"/></marker>
<marker id="arrow-cf-many-required" markerWidth="10" markerHeight="10" refX="10" refY="5" orient="auto" markerUnits="strokeWidth"><path d="M0,5 L10,0 M0,5 L10,5 M0,5 L10,10" stroke="#0A0F25" stroke-width="2" fill="none"/><line x1="3" y1="0" x2="3" y2="10" stroke="#0A0F25" stroke-width="2"/></marker>
<marker id="arrow-cf-many-required-reverse" markerWidth="10" markerHeight="10" refX="0" refY="5" orient="auto" markerUnits="strokeWidth"><path d="M10,5 L0,0 M10,5 L0,5 M10,5 L0,10" stroke="#0A0F25" stroke-width="2" fill="none"/><line x1="7" y1="0" x2="7" y2="10" stroke="#0A0F25" stroke-width="2"/></marker>
<marker id="arrow-cf-one-optional" markerWidth="10" markerHeight="10" refX="10" refY="5" orient="auto" markerUnits="strokeWidth"><line x1="10" y1="0" x2="10" y2="10" stroke="#0A0F25" stroke-width="2"/><circle cx="7" cy="5" r="2" stroke="#0A0F25" stroke-width="2" fill="white"/></marker>
<marker id="arrow-cf-one-optional-reverse" markerWidth="10" markerHeight="10" refX="0" refY="5" orient="auto" markerUnits="strokeWidth"><line x1="0" y1="0" x2="0" y2="10" stroke="#0A0F25" stroke-width="2"/><circle cx="3" cy="5" r="2" stroke="#0A0F25" stroke-width="2" fill="white"/></marker>
<marker id="arrow-cf-many-optional" markerWidth="10" markerHeight="10" refX="10" refY="5" orient="auto" markerUnits="strokeWidth"><path d="M0,5 L10,0 M0,5 L10,5 M0,5 L10,10" stroke="#0A0F25" stroke-width="2" fill="none"/><circle cx="3" cy="5" r="2" stroke="#0A0F25" stroke-width="2" fill="white"/></marker>
<marker id="arrow-cf-many-optional-reverse" markerWidth="10" markerHeight="10" refX="0" refY="5" orient="auto" markerUnits="strokeWidth"><path d="M10,5 L0,0 M10,5 L0,5 M10,5 L0,10" stroke="#0A0F25" stroke-width="2" fill="none"/><circle cx="7" cy="5" r="2" stroke="#0A0F25" stroke-width="2" fill="white"/></marker>
<marker id="arrow-line" markerWidth="10" markerHeight="10" refX="10" refY="5" orient="auto" markerUnits="strokeWidth"><line x1="10" y1="0" x2="10" y2="10" stroke="#0A0F25" stroke-width="2"/></marker>
<marker id="arrow-line-reverse" markerWidth="10" markerHeight="10" refX="0" refY="5" orient="auto" markerUnits="strokeWidth"><line x1="0" y1="0" x2="0" y2="10" stroke="#0A0F25" stroke-width="2"/></marker>
<marker id="arrow-open" markerWidth="10" markerHeight="10" refX="10" refY="5" orient="auto" markerUnits="strokeWidth"><path d="M0,0 L10,5 L0,10" stroke="#0A0F25" stroke-width="2" fill="none"/></marker>
<marker id="arrow-open-reverse" markerWidth="10" markerHeight="10" refX="0" refY="5" orient="auto" markerUnits="strokeWidth"><path d="M10,0 L0,5 L10,10" stroke="#0A0F25" stroke-width="2" fill="none"/></marker>
<marker id="arrow" markerWidth="10" markerHeight="10" refX="10" refY="5" orient="auto" markerUnits="strokeWidth"><path d="M0,0 L10,5 L0,10 Z" fill="#0A0F25"/></marker>
<marker id="arrow-reverse" markerWidth="10" markerHeight="10" refX="0" refY="5" orient="auto" markerUnits="strokeWidth"><path d="M10,0 L0,5 L10,10 Z" fill="#0A0F25"/></marker>
</defs>
<rect width="100%" height="100%" fill="#FFFFFF"/>
<g id="base-layer">
<rect x="12" y="12" width="333" height="60" fill="#FFFFFF" stroke="#0A0F25" stroke-width="2" rx="0" ry="0"/>
<path d="M 465 72 H 365 v -0.8527131782945736 c 0 -10.232558139534882 10.980966325036604 -19.45736434108527 28.25768667642753 -23.875968992248062 C 383.74084919472915 43.70542635658914 378.0307467057101 37.89147286821705 378.0307467057101 31.53488372093023 C 378.0307467057101 20.759689922480618 394.57540263543194 12 414.9267935578331 12 c 20.351390922401173 0 36.896046852122986 8.75968992248062 36.896046852122986 19.53488372093023 c 0 6.356589147286821 -5.563689604685212 12.093023255813952 -15.226939970717424 15.813953488372091 c 17.276720351390924 4.4186046511627906 28.25768667642753 13.643410852713178 28.25768667642753 23.875968992248062 v 0.7751937984496123 Z" fill="#FFFFFF" stroke="#0A0F25" stroke-width="2"/>
<path d="M 381.5267386091127 162.9751051625239 C 381.5267386091127 163.61250478011473 380.860551558753 164.2497896749522 380.19448441247005 164.2497896749522 C 371.70131894484416 165.0464244741874 365.039928057554 173.17269598470364 365.039928057554 183.05158699808797 C 365.039928057554 193.5678776290631 372.5339328537171 202.01273422562144 382.02637889688253 202.01273422562144 H 446.4748201438849 C 456.6334532374101 202.01273422562144 464.96007194244606 192.9304780114723 464.96007194244606 181.9362523900574 C 464.96007194244606 171.41996175908227 457.29940047961634 162.65640535372853 447.6406474820144 162.01912045889105 C 446.9744604316547 162.01912045889105 446.3083932853717 161.54107074569794 446.1418465227818 160.74443594646274 C 443.9768585131895 150.06891013384325 433.98477218225423 142.1019885277247 422.3275779376499 142.1019885277247 C 414.6670263788969 142.1019885277247 407.8390887290168 145.44810707456983 403.50935251798563 150.70619502868072 C 403.0097122302158 151.34359464627155 402.17709832134295 151.50294455066924 401.67745803357315 151.34359464627155 C 400.0121103117506 150.70619502868072 398.18033573141486 150.38760994263868 396.18189448441245 150.38760994263868 C 388.5212230215827 150.22814531548758 382.1929256594724 155.80493307839387 381.5267386091127 162.9751051625239 Z" fill="#e3f2fd" stroke="#0A0F25" stroke-width="2"/>
<polygon points="383.75,272 446.25,272 477.5,302 446.25,332 383.75,332 352.5,302" fill="#fff3e0" stroke="#0A0F25" stroke-width="2"/>
<rect x="171" y="417" width="488" height="160" fill="#e8f5e9" stroke="#0A0F25" stroke-width="2" rx="0" ry="0"/>
<rect x="241" y="667" width="348" height="240" fill="#f3e5f5" stroke="#0A0F25" stroke-width="2" rx="0" ry="0"/>
<path d="M 289.75 1166 C 289.75 1142 338.35 1142 343.75 1142 C 349.15 1142 397.75 1142 397.75 1166 L 397.75 1178 C 397.75 1202 349.15 1202 343.75 1202 C 338.35 1202 289.75 1202 289.75 1178 L 289.75 1166 Z" fill="#ffebee" stroke="#0A0F25" stroke-width="2"/>
<ellipse cx="343.75" cy="1166" rx="54" ry="24" fill="none" stroke="none" stroke-width="0"/>
<path d="M 289.75 1166 C 289.75 1190 338.35 1190 343.75 1190 C 349.15 1190 397.75 1190 397.75 1166" fill="none" stroke="#0A0F25" stroke-width="2"/>
<rect x="210.58333333333331" y="1587" width="320" height="391" fill="#fff8e1" stroke="#0A0F25" stroke-width="2" rx="0" ry="0"/>
<path d="M 628.25 1142 L 730.25 1142 C 738.5 1142 745.25 1157 745.25 1172 C 745.25 1187 738.5 1202 730.25 1202 L 628.25 1202 C 620 1202 613.25 1187 613.25 1172 C 613.25 1157 620 1142 628.25 1142 Z" fill="#e0f2f1" stroke="#0A0F25" stroke-width="2"/>
<rect x="481.25" y="1287" width="320" height="160" fill="#fce4ec" stroke="#0A0F25" stroke-width="2" rx="0" ry="0"/>
<path d="M 630.25 1587 L 729.25 1587 C 740.2 1587 744.25 1602 744.25 1617 C 744.25 1632 740.2 1647 729.25 1647 L 630.25 1647 C 619.3 1647 615.25 1632 615.25 1617 C 615.25 1602 619.3 1587 630.25 1587 Z" fill="#f5f5f5" stroke="#0A0F25" stroke-width="2"/>
<rect x="357" y="467" width="116" height="60" fill="#FFFFFF" stroke="#0A0F25" stroke-width="2" rx="0" ry="0"/>
<rect x="493" y="467" width="116" height="60" fill="#FFFFFF" stroke="#0A0F25" stroke-width="2" rx="0" ry="0"/>
<path d="M 318.5833333333333 1661 C 318.5833333333333 1637 365.3833333333333 1637 370.5833333333333 1637 C 375.7833333333333 1637 422.5833333333333 1637 422.5833333333333 1661 L 422.5833333333333 1673 C 422.5833333333333 1697 375.7833333333333 1697 370.5833333333333 1697 C 365.3833333333333 1697 318.5833333333333 1697 318.5833333333333 1673 L 318.5833333333333 1661 Z" fill="#FFFFFF" stroke="#0A0F25" stroke-width="2"/>
<ellipse cx="370.5833333333333" cy="1661" rx="52" ry="24" fill="none" stroke="none" stroke-width="0"/>
<path d="M 318.5833333333333 1661 C 318.5833333333333 1685 365.3833333333333 1685 370.5833333333333 1685 C 375.7833333333333 1685 422.5833333333333 1685 422.5833333333333 1661" fill="none" stroke="#0A0F25" stroke-width="2"/>
<path d="M 260.5833333333333 1892 C 260.5833333333333 1868 305.5833333333333 1868 310.5833333333333 1868 C 315.5833333333333 1868 360.5833333333333 1868 360.5833333333333 1892 L 360.5833333333333 1904 C 360.5833333333333 1928 315.5833333333333 1928 310.5833333333333 1928 C 305.5833333333333 1928 260.5833333333333 1928 260.5833333333333 1904 L 260.5833333333333 1892 Z" fill="#FFFFFF" stroke="#0A0F25" stroke-width="2"/>
<ellipse cx="310.5833333333333" cy="1892" rx="50" ry="24" fill="none" stroke="none" stroke-width="0"/>
<path d="M 260.5833333333333 1892 C 260.5833333333333 1916 305.5833333333333 1916 310.5833333333333 1916 C 315.5833333333333 1916 360.5833333333333 1916 360.5833333333333 1892" fill="none" stroke="#0A0F25" stroke-width="2"/>
<path d="M 380.5833333333333 1892 C 380.5833333333333 1868 425.5833333333333 1868 430.5833333333333 1868 C 435.5833333333333 1868 480.5833333333333 1868 480.5833333333333 1892 L 480.5833333333333 1904 C 480.5833333333333 1928 435.5833333333333 1928 430.5833333333333 1928 C 425.5833333333333 1928 380.5833333333333 1928 380.5833333333333 1904 L 380.5833333333333 1892 Z" fill="#FFFFFF" stroke="#0A0F25" stroke-width="2"/>
<ellipse cx="430.5833333333333" cy="1892" rx="50" ry="24" fill="none" stroke="none" stroke-width="0"/>
<path d="M 380.5833333333333 1892 C 380.5833333333333 1916 425.5833333333333 1916 430.5833333333333 1916 C 435.5833333333333 1916 480.5833333333333 1916 480.5833333333333 1892" fill="none" stroke="#0A0F25" stroke-width="2"/>
<rect x="221" y="467" width="116" height="60" fill="#FFFFFF" stroke="#0A0F25" stroke-width="2" rx="0" ry="0"/>
<rect x="291" y="717" width="114" height="60" fill="#FFFFFF" stroke="#0A0F25" stroke-width="2" rx="0" ry="0"/>
<rect x="531.25" y="1337" width="100" height="60" fill="#FFFFFF" stroke="#0A0F25" stroke-width="2" rx="0" ry="0"/>
<rect x="651.25" y="1337" width="100" height="60" fill="#FFFFFF" stroke="#0A0F25" stroke-width="2" rx="0" ry="0"/>
<rect x="425" y="717" width="114" height="60" fill="#FFFFFF" stroke="#0A0F25" stroke-width="2" rx="0" ry="0"/>
<path d="M 353.25 1699 C 353.25 1710.2 353.25 1715.8 353.25 1727 C 353.25 1727 353.25 1737 343.25 1737 C 334.18333333333334 1737 329.65 1737 320.5833333333333 1737 C 320.5833333333333 1737 310.5833333333333 1737 310.5833333333333 1747 C 310.5833333333333 1793.8 310.5833333333333 1817.2 310.5833333333333 1864" fill="none" stroke="#0A0F25" stroke-width="2" marker-end="url(#arrow-triangle)"/>
<rect x="295.0833333333333" y="1750.6666666666667" width="31" height="21" fill="#FFFFFF" stroke="none" stroke-width="1" rx="3" ry="3"/>
<text x="310.5833333333333" y="1766.6666666666667" text-anchor="middle" dominant-baseline="alphabetic" font-family="Arial, sans-serif" font-size="16" style="fill: #676C7E; font-style: italic">sync</text>
<path d="M 387.91666666666663 1699 C 387.91666666666663 1710.2 387.91666666666663 1715.8 387.91666666666663 1727 C 387.91666666666663 1727 387.91666666666663 1737 397.91666666666663 1737 C 406.9833333333333 1737 411.51666666666665 1737 420.5833333333333 1737 C 420.5833333333333 1737 430.5833333333333 1737 430.5833333333333 1747 C 430.5833333333333 1793.8 430.5833333333333 1817.2 430.5833333333333 1864" fill="none" stroke="#0A0F25" stroke-width="2" marker-end="url(#arrow-triangle)"/>
<rect x="415.0833333333333" y="1750.6666666666667" width="31" height="21" fill="#FFFFFF" stroke="none" stroke-width="1" rx="3" ry="3"/>
<text x="430.5833333333333" y="1766.6666666666667" text-anchor="middle" dominant-baseline="alphabetic" font-family="Arial, sans-serif" font-size="16" style="fill: #676C7E; font-style: italic">sync</text>
<path d="M 415 74 C 415 99.6 415 112.4 415 138" fill="none" stroke="#0A0F25" stroke-width="2" marker-end="url(#arrow-triangle)"/>
<path d="M 415 204 C 415 229.6 415 242.4 415 268" fill="none" stroke="#0A0F25" stroke-width="2" marker-end="url(#arrow-triangle)"/>
<path d="M 383.75 334 C 383.75 345.2 383.75 350.8 383.75 362 C 383.75 362 383.75 372 373.75 372 C 339.85 372 322.9 372 289 372 C 289 372 279 372 279 382 C 279 414.4 279 430.6 279 463" fill="none" stroke="#0A0F25" stroke-width="2" marker-end="url(#arrow-triangle)"/>
<path d="M 415 334 C 415 385.6 415 411.4 415 463" fill="none" stroke="#0A0F25" stroke-width="2" marker-end="url(#arrow-triangle)"/>
<path d="M 446.25 334 C 446.25 345.2 446.25 350.8 446.25 362 C 446.25 362 446.25 372 456.25 372 C 490.15 372 507.1 372 541 372 C 541 372 551 372 551 382 C 551 414.4 551 430.6 551 463" fill="none" stroke="#0A0F25" stroke-width="2" marker-end="url(#arrow-triangle)"/>
<path d="M 279 529 C 279 562.2 279 578.8 279 612 C 279 612 279 622 289 622 C 301 622 307 622 319 622 C 319 622 329 622 329 632 C 329 664.4 329 680.6 329 713" fill="none" stroke="#0A0F25" stroke-width="2" marker-end="url(#arrow-triangle)"/>
<path d="M 395.6666666666667 529 C 395.6666666666667 562.2 395.6666666666667 578.8 395.6666666666667 612 C 395.6666666666667 612 395.6666666666667 622 385.6666666666667 622 C 382.2 622 380.4666666666667 622 377 622 C 377 622 367 622 367 632 C 367 664.4 367 680.6 367 713" fill="none" stroke="#0A0F25" stroke-width="2" marker-end="url(#arrow-triangle)"/>
<path d="M 434.33333333333337 529 C 434.33333333333337 562.2 434.33333333333337 578.8 434.33333333333337 612 C 434.33333333333337 612 434.33333333333337 622 444.33333333333337 622 C 447.8 622 449.53333333333336 622 453 622 C 453 622 463 622 463 632 C 463 664.4 463 680.6 463 713" fill="none" stroke="#0A0F25" stroke-width="2" marker-end="url(#arrow-triangle)"/>
<path d="M 551 529 C 551 562.2 551 578.8 551 612 C 551 612 551 622 541 622 C 529 622 523 622 511 622 C 511 622 501 622 501 632 C 501 664.4 501 680.6 501 713" fill="none" stroke="#0A0F25" stroke-width="2" marker-end="url(#arrow-triangle)"/>
<path d="M 348 779 C 348 864.2 348 906.8 348 992 C 348 992 348 1002 338 1002 C 337.1 1002 336.65 1002 335.75 1002 C 335.75 1002 325.75 1002 325.75 1012 C 325.75 1062.4 325.75 1087.6 325.75 1138" fill="none" stroke="#0A0F25" stroke-width="2" marker-end="url(#arrow-triangle)"/>
<path d="M 453.5 779 C 453.5 884.2 453.5 936.8 453.5 1042 C 453.5 1042 453.5 1052 443.5 1052 C 414.8 1052 400.45 1052 371.75 1052 C 371.75 1052 361.75 1052 361.75 1062 C 361.75 1092.4 361.75 1107.6 361.75 1138" fill="none" stroke="#0A0F25" stroke-width="2" marker-end="url(#arrow-triangle)"/>
<path d="M 319.5 779 C 319.5 844.2 319.5 876.8 319.5 942 C 319.5 942 319.5 952 309.5 952 C 289.2 952 279.05 952 258.75 952 C 258.75 952 248.75 952 248.75 962 C 248.75 1170 248.75 1274 248.75 1482 C 248.75 1482 248.75 1492 258.75 1492 C 289.0833333333333 1492 304.25 1492 334.5833333333333 1492 C 334.5833333333333 1492 344.5833333333333 1492 344.5833333333333 1502 C 344.5833333333333 1554.4 344.5833333333333 1580.6 344.5833333333333 1633" fill="none" stroke="#0A0F25" stroke-width="2" marker-end="url(#arrow-triangle)"/>
<path d="M 482 779 C 482 904.2 482 966.8 482 1092 C 482 1092 482 1102 472 1102 C 462.3 1102 457.45 1102 447.75 1102 C 447.75 1102 437.75 1102 437.75 1112 C 437.75 1260 437.75 1334 437.75 1482 C 437.75 1482 437.75 1492 427.75 1492 C 408.8833333333333 1492 399.45 1492 380.5833333333333 1492 C 380.5833333333333 1492 370.5833333333333 1492 370.5833333333333 1502 C 370.5833333333333 1554.4 370.5833333333333 1580.6 370.5833333333333 1633" fill="none" stroke="#0A0F25" stroke-width="2" marker-end="url(#arrow-triangle)"/>
<path d="M 376.5 779 C 376.5 864.2 376.5 906.8 376.5 992 C 376.5 992 376.5 1002 386.5 1002 C 490.8 1002 542.95 1002 647.25 1002 C 647.25 1002 657.25 1002 657.25 1012 C 657.25 1062.4 657.25 1087.6 657.25 1138" fill="none" stroke="#0A0F25" stroke-width="2" marker-end="url(#arrow-triangle)"/>
<path d="M 510.5 779 C 510.5 844.2 510.5 876.8 510.5 942 C 510.5 942 510.5 952 520.5 952 C 588.8 952 622.95 952 691.25 952 C 691.25 952 701.25 952 701.25 962 C 701.25 1032.4 701.25 1067.6 701.25 1138" fill="none" stroke="#0A0F25" stroke-width="2" marker-end="url(#arrow-triangle)"/>
<path d="M 657.25 1204 C 657.25 1215.2 657.25 1220.8 657.25 1232 C 657.25 1232 657.25 1242 647.25 1242 C 624.85 1242 613.65 1242 591.25 1242 C 591.25 1242 581.25 1242 581.25 1252 C 581.25 1284.4 581.25 1300.6 581.25 1333" fill="none" stroke="#0A0F25" stroke-width="2" marker-end="url(#arrow-triangle)"/>
<path d="M 701.25 1204 C 701.25 1255.6 701.25 1281.4 701.25 1333" fill="none" stroke="#0A0F25" stroke-width="2" marker-end="url(#arrow-triangle)"/>
<path d="M 597.9166666666666 1399 C 597.9166666666666 1432.2 597.9166666666666 1448.8 597.9166666666666 1482 C 597.9166666666666 1482 597.9166666666666 1492 607.9166666666666 1492 C 624.05 1492 632.1166666666667 1492 648.25 1492 C 648.25 1492 658.25 1492 658.25 1502 C 658.25 1534.4 658.25 1550.6 658.25 1583" fill="none" stroke="#0A0F25" stroke-width="2" marker-end="url(#arrow-triangle)"/>
<path d="M 701.25 1399 C 701.25 1472.6 701.25 1509.4 701.25 1583" fill="none" stroke="#0A0F25" stroke-width="2" marker-end="url(#arrow-triangle)"/>
<path d="M 564.5833333333334 1399 C 564.5833333333334 1452.2 564.5833333333333 1478.8 564.5833333333333 1532 C 564.5833333333333 1532 564.5833333333333 1542 554.5833333333333 1542 C 495.38333333333327 1542 465.7833333333333 1542 406.5833333333333 1542 C 406.5833333333333 1542 396.5833333333333 1542 396.5833333333333 1552 C 396.5833333333333 1584.4 396.5833333333333 1600.6 396.5833333333333 1633" fill="none" stroke="#0A0F25" stroke-width="2" marker-end="url(#arrow-triangle)"/>
<text x="178.5" y="50.5" text-anchor="middle" dominant-baseline="alphabetic" font-family="Arial, sans-serif" font-size="24" style="fill: #0A0F25; font-weight: 700">Web Application Architecture</text>
<text x="415" y="93" text-anchor="middle" dominant-baseline="alphabetic" font-family="Arial, sans-serif" font-size="16" style="fill: #0A0F25; font-weight: 700">Users</text>
<text x="414.95" y="188.94" text-anchor="middle" dominant-baseline="alphabetic" font-family="Arial, sans-serif" font-size="16" style="fill: #0A0F25; font-weight: 700">CDN</text>
<text x="415" y="307.5" text-anchor="middle" dominant-baseline="alphabetic" font-family="Arial, sans-serif" font-size="16" style="fill: #0A0F25; font-weight: 700">Load Balancer</text>
<text x="415" y="404" text-anchor="middle" dominant-baseline="alphabetic" font-family="Arial, sans-serif" font-size="28" style="fill: #0A0F25">Web Tier</text>
<text x="415" y="654" text-anchor="middle" dominant-baseline="alphabetic" font-family="Arial, sans-serif" font-size="28" style="fill: #0A0F25">Application Tier</text>
<text x="343.75" y="1177.5" text-anchor="middle" dominant-baseline="alphabetic" font-family="Arial, sans-serif" font-size="16" style="fill: #0A0F25; font-weight: 700">Redis Cache</text>
<text x="370.5833333333333" y="1574" text-anchor="middle" dominant-baseline="alphabetic" font-family="Arial, sans-serif" font-size="28" style="fill: #0A0F25">Database Cluster</text>
<text x="667.25" y="1177.5" text-anchor="middle" dominant-baseline="alphabetic" font-family="Arial, sans-serif" font-size="16" style="fill: #0A0F25; font-weight: 700">Message Queue</text>
<text x="641.25" y="1274" text-anchor="middle" dominant-baseline="alphabetic" font-family="Arial, sans-serif" font-size="28" style="fill: #0A0F25">Background Workers</text>
<text x="679.75" y="1622.5" text-anchor="middle" dominant-baseline="alphabetic" font-family="Arial, sans-serif" font-size="16" style="fill: #0A0F25; font-weight: 700">Object Storage</text>
<text x="415" y="502.5" text-anchor="middle" dominant-baseline="alphabetic" font-family="Arial, sans-serif" font-size="16" style="fill: #0A0F25; font-weight: 700">Web Server 2</text>
<text x="551" y="502.5" text-anchor="middle" dominant-baseline="alphabetic" font-family="Arial, sans-serif" font-size="16" style="fill: #0A0F25; font-weight: 700">Web Server 3</text>
<text x="370.5833333333333" y="1672.5" text-anchor="middle" dominant-baseline="alphabetic" font-family="Arial, sans-serif" font-size="16" style="fill: #0A0F25; font-weight: 700">Primary DB</text>
<text x="310.5833333333333" y="1903.5" text-anchor="middle" dominant-baseline="alphabetic" font-family="Arial, sans-serif" font-size="16" style="fill: #0A0F25; font-weight: 700">Replica 1</text>
<text x="430.5833333333333" y="1903.5" text-anchor="middle" dominant-baseline="alphabetic" font-family="Arial, sans-serif" font-size="16" style="fill: #0A0F25; font-weight: 700">Replica 2</text>
<text x="279" y="502.5" text-anchor="middle" dominant-baseline="alphabetic" font-family="Arial, sans-serif" font-size="16" style="fill: #0A0F25; font-weight: 700">Web Server 1</text>
<text x="348" y="752.5" text-anchor="middle" dominant-baseline="alphabetic" font-family="Arial, sans-serif" font-size="16" style="fill: #0A0F25; font-weight: 700">App Server 1</text>
<text x="581.25" y="1372.5" text-anchor="middle" dominant-baseline="alphabetic" font-family="Arial, sans-serif" font-size="16" style="fill: #0A0F25; font-weight: 700">Worker 1</text>
<text x="701.25" y="1372.5" text-anchor="middle" dominant-baseline="alphabetic" font-family="Arial, sans-serif" font-size="16" style="fill: #0A0F25; font-weight: 700">Worker 2</text>
<text x="482" y="752.5" text-anchor="middle" dominant-baseline="alphabetic" font-family="Arial, sans-serif" font-size="16" style="fill: #0A0F25; font-weight: 700">App Server 2</text>
</g>
</svg>
