<?xml version="1.0" encoding="UTF-8"?>
<svg xmlns="http://www.w3.org/2000/svg" width="936.875" height="2470" viewBox="-50 -50 936.875 2470" data-d2-version="0.1.0">
<defs><marker id="arrow-triangle" markerWidth="10" markerHeight="10" refX="10" refY="5" orient="auto" markerUnits="strokeWidth"><path d="M0,0 L10,5 L0,10 Z" fill="#0A0F25"/></marker>
<marker id="arrow-triangle-reverse" markerWidth="10" markerHeight="10" refX="0" refY="5" orient="auto" markerUnits="strokeWidth"><path d="M10,0 L0,5 L10,10 Z" fill="#0A0F25"/></marker>
<marker id="arrow-diamond" markerWidth="10" markerHeight="10" refX="10" refY="5" orient="auto" markerUnits="strokeWidth"><path d="M0,5 L5,0 L10,5 L5,10 Z" fill="#0A0F25"/></marker>
<marker id="arrow-diamond-reverse" markerWidth="10" markerHeight="10" refX="0" refY="5" orient="auto" markerUnits="strokeWidth"><path d="M0,5 L5,0 L10,5 L5,10 Z" fill="#0A0F25"/></marker>
<marker id="arrow-circle" markerWidth="10" markerHeight="10" refX="6" refY="5" orient="auto" markerUnits="strokeWidth"><circle cx="5" cy="5" r="4" fill="#0A0F25"/></marker>
<marker id="arrow-circle-reverse" markerWidth="10" markerHeight="10" refX="4" refY="5" orient="auto" markerUnits="strokeWidth"><circle cx="5" cy="5" r="4" fill="#0A0F25"/></marker>
<marker id="arrow-cf-one" markerWidth="10" markerHeight="10" refX="10" refY="5" orient="auto" markerUnits="strokeWidth"><line x1="10" y1="0" x2="10" y2="10" stroke="#0A0F25" stroke-width="2"/></marker>
<marker id="arrow-cf-one-reverse" markerWidth="10" markerHeight="10" refX="0" refY="5" orient="auto" markerUnits="strokeWidth"><line x1="0" y1="0" x2="0" y2="10" stroke="#0A0F25" stroke-width="2"/></marker>
<marker id="arrow-cf-many" markerWidth="10" markerHeight="10" refX="10" refY="5" orient="auto" markerUnits="strokeWidth"><path d="M0,5 L10,0 M0,5 L10,5 M0,5 L10,10" stroke="#0A0F25" stroke-width="2" fill="none"/></marker>
<marker id="arrow-cf-many-reverse" markerWidth="10" markerHeight="10" refX="0" refY="5" orient="auto" markerUnits="strokeWidth"><path d="M10,5 L0,0 M10,5 L0,5 M10,5 L0,10" stroke="#0A0F25" stroke-width="2" fill="none"/></marker>
<marker id="arrow-cf-one-required" markerWidth="10" markerHeight="10" refX="10" refY="5" orient="auto" markerUnits="strokeWidth"><line x1="10" y1="0" x2="10" y2="10" stroke="#0A0F25" stroke-width="2"/><line x1="7" y1="0" x2="7" y2="10" stroke="#0A0F25" stroke-width="2"/></marker>
<marker id="arrow-cf-one-required-reverse" markerWidth="10" markerHeight="10" refX="0" refY="5" orient="auto" markerUnits="strokeWidth"><line x1="0" y1="0" x2="0" y2="10" stroke="#0A0F25" stroke-width="2"/><line x1="3" y1="0" x2="3" y2="10" stroke="#0A0F25" stroke-width="2"/></marker>
<marker id="arrow-cf-many-required" markerWidth="10" markerHeight="10" refX="10" refY="5" orient="auto" markerUnits="strokeWidth"><path d="M0,5 L10,0 M0,5 L10,5 M0,5 L10,10" stroke="#0A0F25" stroke-width="2" fill="none"/><line x1="3" y1="0" x2="3" y2="10" stroke="#0A0F25" stroke-width="2"/></marker>
<marker id="arrow-cf-many-required-reverse" markerWidth="10" markerHeight="10" refX="0" refY="5" orient="auto" markerUnits="strokeWidth"><path d="M10,5 L0,0 M10,5 L0,5 M10,5 L0,10" stroke="#0A0F25" stroke-width="2" fill="none"/><line x1="7" y1="0" x2="7" y2="10" stroke="#0A0F25" stroke-width="2"/></marker>
<marker id="arrow-cf-one-optional" markerWidth="10" markerHeight="10" refX="10" refY="5" orient="auto" markerUnits="strokeWidth"><line x1="10" y1="0" x2="10" y2="10" stroke="#0A0F25" stroke-width="2"/><circle cx="7" cy="5" r="2" stroke="#0A0F25" stroke-width="2" fill="white"/></marker>
<marker id="arrow-cf-one-optional-reverse" markerWidth="10" markerHeight="10" refX="0" refY="5" orient="auto" markerUnits="strokeWidth"><line x1="0" y1="0" x2="0" y2="10" stroke="#0A0F25" stroke-width="2"/><circle cx="3" cy="5" r="2" stroke="#0A0F25" stroke-width="2" fill="white"/></marker>
<marker id="arrow-cf-many-optional" markerWidth="10" markerHeight="10" refX="10" refY="5" orient="auto" markerUnits="strokeWidth"><path d="M0,5 L10,0 M0,5 L10,5 M0,5 L10,10" stroke="#0A0F25" stroke-width="2" fill="none"/><circle cx="3" cy="5" r="2" stroke="#0A0F25" stroke-width="2" fill="white"/></marker>
<marker id="arrow-cf-many-optional-reverse" markerWidth="10" markerHeight="10" refX="0" refY="5" orient="auto" markerUnits="strokeWidth"><path d="M10,5 L0,0 M10,5 L0,5 M10,5 L0,10" stroke="#0A0F25" stroke-width="2" fill="none"/><circle cx="7" cy="5" r="2" stroke="#0A0F25" stroke-width="2" fill="white"/></marker>
<marker id="arrow-line" markerWidth="10" markerHeight="10" refX="10" refY="5" orient="auto" markerUnits="strokeWidth"><line x1="10" y1="0" x2="10" y2="10" stroke="#0A0F25" stroke-width="2"/></marker>
<marker id="arrow-line-reverse" markerWidth="10" markerHeight="10" refX="0" refY="5" orient="auto" markerUnits="strokeWidth"><line x1="0" y1="0" x2="0" y2="10" stroke="#0A0F25" stroke-width="2"/></marker>
<marker id="arrow-open" markerWidth="10" markerHeight="10" refX="10" refY="5" orient="auto" markerUnits="strokeWidth"><path d="M0,0 L10,5 L0,10" stroke="#0A0F25" stroke-width="2" fill="none"/></marker>
<marker id="arrow-open-reverse" markerWidth="10" markerHeight="10" refX="0" refY="5" orient="auto" markerUnits="strokeWidth"><path d="M10,0 L0,5 L10,10" stroke="#0A0F25" stroke-width="2" fill="none"/></marker>
<marker id="arrow" markerWidth="10" markerHeight="10" refX="10" refY="5" orient="auto" markerUnits="strokeWidth"><path d="M0,0 L10,5 L0,10 Z" fill="#0A0F25"/></marker>
<marker id="arrow-reverse" markerWidth="10" markerHeight="10" refX="0" refY="5" orient="auto" markerUnits="strokeWidth"><path d="M10,0 L0,5 L10,10 Z" fill="#0A0F25"/></marker>
</defs>
<rect width="100%" height="100%" fill="#FFFFFF"/>
<g id="base-layer">
<rect x="50" y="50" width="333" height="60" fill="#FFFFFF" stroke="#0A0F25" stroke-width="2" rx="0" ry="0"/>
<path d="M 503 110 H 403 v -0.8527131782945736 c 0 -10.232558139534882 10.980966325036604 -19.45736434108527 28.25768667642753 -23.875968992248062 C 421.74084919472915 81.70542635658914 416.0307467057101 75.89147286821705 416.0307467057101 69.53488372093022 C 416.0307467057101 58.75968992248062 432.57540263543194 50 452.9267935578331 50 c 20.351390922401173 0 36.896046852122986 8.75968992248062 36.896046852122986 19.53488372093023 c 0 6.356589147286821 -5.563689604685212 12.093023255813952 -15.226939970717424 15.813953488372091 c 17.276720351390924 4.4186046511627906 28.25768667642753 13.643410852713178 28.25768667642753 23.875968992248062 v 0.7751937984496123 Z" fill="#FFFFFF" stroke="#0A0F25" stroke-width="2"/>
<path d="M 419.5267386091127 230.9751051625239 C 419.5267386091127 231.61250478011473 418.860551558753 232.2497896749522 418.19448441247005 232.2497896749522 C 409.70131894484416 233.0464244741874 403.039928057554 241.17269598470364 403.039928057554 251.05158699808797 C 403.039928057554 261.5678776290631 410.5339328537171 270.01273422562144 420.02637889688253 270.01273422562144 H 484.4748201438849 C 494.6334532374101 270.01273422562144 502.96007194244606 260.9304780114723 502.96007194244606 249.9362523900574 C 502.96007194244606 239.41996175908227 495.29940047961634 230.65640535372853 485.6406474820144 230.01912045889105 C 484.9744604316547 230.01912045889105 484.3083932853717 229.54107074569794 484.1418465227818 228.74443594646274 C 481.9768585131895 218.06891013384325 471.98477218225423 210.1019885277247 460.3275779376499 210.1019885277247 C 452.6670263788969 210.1019885277247 445.8390887290168 213.44810707456983 441.50935251798563 218.70619502868072 C 441.0097122302158 219.34359464627155 440.17709832134295 219.50294455066924 439.67745803357315 219.34359464627155 C 438.0121103117506 218.70619502868072 436.18033573141486 218.38760994263868 434.18189448441245 218.38760994263868 C 426.5212230215827 218.22814531548758 420.1929256594724 223.80493307839387 419.5267386091127 230.9751051625239 Z" fill="#e3f2fd" stroke="#0A0F25" stroke-width="2"/>
<polygon points="421.75,370 484.25,370 515.5,400 484.25,430 421.75,430 390.5,400" fill="#fff3e0" stroke="#0A0F25" stroke-width="2"/>
<rect x="345" y="530" width="216" height="320" fill="#e8f5e9" stroke="#0A0F25" stroke-width="2" rx="0" ry="0"/>
<rect x="346" y="950" width="214" height="240" fill="#f3e5f5" stroke="#0A0F25" stroke-width="2" rx="0" ry="0"/>
<path d="M 208.125 1484 C 208.125 1460 256.725 1460 262.125 1460 C 267.525 1460 316.125 1460 316.125 1484 L 316.125 1496 C 316.125 1520 267.525 1520 262.125 1520 C 256.725 1520 208.125 1520 208.125 1496 L 208.125 1484 Z" fill="#ffebee" stroke="#0A0F25" stroke-width="2"/>
<ellipse cx="262.125" cy="1484" rx="54" ry="24" fill="none" stroke="none" stroke-width="0"/>
<path d="M 208.125 1484 C 208.125 1508 256.725 1508 262.125 1508 C 267.525 1508 316.125 1508 316.125 1484" fill="none" stroke="#0A0F25" stroke-width="2"/>
<rect x="229.625" y="2080" width="375" height="240" fill="#fff8e1" stroke="#0A0F25" stroke-width="2" rx="0" ry="0"/>
<path d="M 638.125 1460 L 740.125 1460 C 748.375 1460 755.125 1475 755.125 1490 C 755.125 1505 748.375 1520 740.125 1520 L 638.125 1520 C 629.875 1520 623.125 1505 623.125 1490 C 623.125 1475 629.875 1460 638.125 1460 Z" fill="#e0f2f1" stroke="#0A0F25" stroke-width="2"/>
<rect x="586.875" y="1620" width="200" height="240" fill="#fce4ec" stroke="#0A0F25" stroke-width="2" rx="0" ry="0"/>
<path d="M 639.625 2080 L 738.625 2080 C 749.575 2080 753.625 2095 753.625 2110 C 753.625 2125 749.575 2140 738.625 2140 L 639.625 2140 C 628.675 2140 624.625 2125 624.625 2110 C 624.625 2095 628.675 2080 639.625 2080 Z" fill="#f5f5f5" stroke="#0A0F25" stroke-width="2"/>
<rect x="395" y="660" width="116" height="60" fill="#FFFFFF" stroke="#0A0F25" stroke-width="2" rx="0" ry="0"/>
<rect x="395" y="740" width="116" height="60" fill="#FFFFFF" stroke="#0A0F25" stroke-width="2" rx="0" ry="0"/>
<path d="M 279.625 2194 C 279.625 2170 326.425 2170 331.625 2170 C 336.825 2170 383.625 2170 383.625 2194 L 383.625 2206 C 383.625 2230 336.825 2230 331.625 2230 C 326.425 2230 279.625 2230 279.625 2206 L 279.625 2194 Z" fill="#FFFFFF" stroke="#0A0F25" stroke-width="2"/>
<ellipse cx="331.625" cy="2194" rx="52" ry="24" fill="none" stroke="none" stroke-width="0"/>
<path d="M 279.625 2194 C 279.625 2218 326.425 2218 331.625 2218 C 336.825 2218 383.625 2218 383.625 2194" fill="none" stroke="#0A0F25" stroke-width="2"/>
<path d="M 454.625 2154 C 454.625 2130 499.625 2130 504.625 2130 C 509.625 2130 554.625 2130 554.625 2154 L 554.625 2166 C 554.625 2190 509.625 2190 504.625 2190 C 499.625 2190 454.625 2190 454.625 2166 L 454.625 2154 Z" fill="#FFFFFF" stroke="#0A0F25" stroke-width="2"/>
<ellipse cx="504.625" cy="2154" rx="50" ry="24" fill="none" stroke="none" stroke-width="0"/>
<path d="M 454.625 2154 C 454.625 2178 499.625 2178 504.625 2178 C 509.625 2178 554.625 2178 554.625 2154" fill="none" stroke="#0A0F25" stroke-width="2"/>
<path d="M 454.625 2234 C 454.625 2210 499.625 2210 504.625 2210 C 509.625 2210 554.625 2210 554.625 2234 L 554.625 2246 C 554.625 2270 509.625 2270 504.625 2270 C 499.625 2270 454.625 2270 454.625 2246 L 454.625 2234 Z" fill="#FFFFFF" stroke="#0A0F25" stroke-width="2"/>
<ellipse cx="504.625" cy="2234" rx="50" ry="24" fill="none" stroke="none" stroke-width="0"/>
<path d="M 454.625 2234 C 454.625 2258 499.625 2258 504.625 2258 C 509.625 2258 554.625 2258 554.625 2234" fill="none" stroke="#0A0F25" stroke-width="2"/>
<rect x="395" y="580" width="116" height="60" fill="#FFFFFF" stroke="#0A0F25" stroke-width="2" rx="0" ry="0"/>
<rect x="396" y="1000" width="114" height="60" fill="#FFFFFF" stroke="#0A0F25" stroke-width="2" rx="0" ry="0"/>
<rect x="636.875" y="1670" width="100" height="60" fill="#FFFFFF" stroke="#0A0F25" stroke-width="2" rx="0" ry="0"/>
<rect x="636.875" y="1750" width="100" height="60" fill="#FFFFFF" stroke="#0A0F25" stroke-width="2" rx="0" ry="0"/>
<rect x="396" y="1080" width="114" height="60" fill="#FFFFFF" stroke="#0A0F25" stroke-width="2" rx="0" ry="0"/>
<path d="M 329.0590062614793 2168.006401709122 C 263.35519027699127 1348.7910376072286 230.50328228474723 939.1833555562819 164.7994663002592 119.96799145438789 C 164.7994663002592 119.96799145438789 164 110 164 100 C 164 96 164 94 164 90 C 164 90 164 80 165.61609336888478 89.86854813146527 C 298.9959368515401 904.3421611778447 365.6858585928677 1311.5789677010343 499.065702075523 2126.0525807474137" fill="none" stroke="#0A0F25" stroke-width="2" marker-end="url(#arrow-triangle)"/>
<rect x="148.5" y="79.15417532464289" width="31" height="21" fill="#FFFFFF" stroke="none" stroke-width="1" rx="3" ry="3"/>
<text x="164" y="95.15417532464289" text-anchor="middle" dominant-baseline="alphabetic" font-family="Arial, sans-serif" font-size="16" style="fill: #676C7E; font-style: italic">sync</text>
<path d="M 329.03422406800627 2168.006525403567 C 263.34339065261736 1356.790864435006 230.49797394492288 951.1830339507255 164.80714052953397 139.96737298216453 C 164.80714052953397 139.96737298216453 164 130 164 140 C 164 144 164 146 164 150 C 164 150 164 160 165.61609336888478 169.86854813146527 C 298.9959368515401 984.3421611778447 365.6858585928677 1391.5789677010343 499.065702075523 2206.0525807474137" fill="none" stroke="#0A0F25" stroke-width="2" marker-end="url(#arrow-triangle)"/>
<rect x="148.55081678001048" y="149.81030870435748" width="31" height="21" fill="#FFFFFF" stroke="none" stroke-width="1" rx="3" ry="3"/>
<text x="164.05081678001048" y="165.81030870435748" text-anchor="middle" dominant-baseline="alphabetic" font-family="Arial, sans-serif" font-size="16" style="fill: #676C7E; font-style: italic">sync</text>
<path d="M 453 112 C 453 149.6 453 168.4 453 206" fill="none" stroke="#0A0F25" stroke-width="2" marker-end="url(#arrow-triangle)"/>
<path d="M 453 272 C 453 309.6 453 328.4 453 366" fill="none" stroke="#0A0F25" stroke-width="2" marker-end="url(#arrow-triangle)"/>
<path d="M 477.6687880839446 431.57604874744914 C 478.9850304671557 433.2608389979593 479.6431516587612 434.1032341232144 480.9593940419723 435.78802437372457 C 480.9593940419723 435.78802437372457 484.25 440 478.90501859242283 440 C 472.5430111554537 440 469.3620074369691 440 463 440 C 463 440 453 440 453 450 C 453 500.4 453 525.6 453 576" fill="none" stroke="#0A0F25" stroke-width="2" marker-end="url(#arrow-triangle)"/>
<path d="M 453 432 C 453 521.6 453 566.4 453 656" fill="none" stroke="#0A0F25" stroke-width="2" marker-end="url(#arrow-triangle)"/>
<path d="M 441.9273099553925 431.88934732846957 C 435.16843272911717 451.3549137401426 431.78899411597945 461.08769694597913 425.0301168897041 480.55326335765216 C 425.0301168897041 480.55326335765216 421.75 490 431.75 490 C 436.25 490 438.5 490 443 490 C 443 490 453 490 453 500 C 453 594.4 453 641.6 453 736" fill="none" stroke="#0A0F25" stroke-width="2" marker-end="url(#arrow-triangle)"/>
<path d="M 453 642 C 453 783.6 453 854.4 453 996" fill="none" stroke="#0A0F25" stroke-width="2" marker-end="url(#arrow-triangle)"/>
<path d="M 453 722 C 453 831.6 453 886.4 453 996" fill="none" stroke="#0A0F25" stroke-width="2" marker-end="url(#arrow-triangle)"/>
<path d="M 453 722 C 453 863.6 453 934.4 453 1076" fill="none" stroke="#0A0F25" stroke-width="2" marker-end="url(#arrow-triangle)"/>
<path d="M 453 802 C 453 911.6 453 966.4 453 1076" fill="none" stroke="#0A0F25" stroke-width="2" marker-end="url(#arrow-triangle)"/>
<path d="M 453 1062 C 453 1113.2 453 1138.8 453 1190 C 453 1190 453 1200 443 1200 C 367.45 1200 329.675 1200 254.125 1200 C 254.125 1200 244.125 1200 244.74449747779 1209.9807926977276 C 250.8527513040207 1308.3915487870001 253.90687821713604 1357.5969268316364 260.01513204336675 1456.007682920909" fill="none" stroke="#0A0F25" stroke-width="2" marker-end="url(#arrow-triangle)"/>
<path d="M 453 1142 C 453 1201.2 453 1230.8 453 1290 C 453 1290 453 1300 443 1300 C 381.85 1300 351.275 1300 290.125 1300 C 290.125 1300 280.125 1300 279.18185452279585 1309.9554244815995 C 273.64685809529334 1368.3803867719039 270.8793598815421 1397.5928679170559 265.3443634540396 1456.0178302073602" fill="none" stroke="#0A0F25" stroke-width="2" marker-end="url(#arrow-triangle)"/>
<path d="M 453 1062 C 453 1173.2 453 1228.8 453 1340 C 453 1340 453 1350 443 1350 C 400.25 1350 378.875 1350 336.125 1350 C 336.125 1350 326.125 1350 326.125 1360 C 326.125 1562.9 326.125 1664.35 326.125 1867.25 C 326.125 1867.25 326.125 1870 328.875 1870 C 328.875 1870 328.875 1870 328.875 1870 C 328.875 1870 331.625 1870 331.625 1872.75 C 331.625 1990.05 331.625 2048.7 331.625 2166" fill="none" stroke="#0A0F25" stroke-width="2" marker-end="url(#arrow-triangle)"/>
<path d="M 453 1142 C 453 1261.2 453 1320.8 453 1440 C 453 1440 453 1450 443 1450 C 404.65 1450 385.475 1450 347.125 1450 C 347.125 1450 337.125 1450 337.125 1460 C 337.125 1642.9 337.125 1734.35 337.125 1917.25 C 337.125 1917.25 337.125 1920 334.375 1920 C 334.375 1920 334.375 1920 334.375 1920 C 334.375 1920 331.625 1920 331.625 1922.75 C 331.625 2020.05 331.625 2068.7 331.625 2166" fill="none" stroke="#0A0F25" stroke-width="2" marker-end="url(#arrow-triangle)"/>
<path d="M 453 1062 C 453 1193.2 453 1258.8 453 1390 C 453 1390 453 1400 463 1400 C 540.65 1400 579.475 1400 657.125 1400 C 657.125 1400 667.125 1400 669.4995309047699 1409.7139900649677 C 674.0364602647654 1428.2741556285857 676.3049249447632 1437.5542384103949 680.8418543047587 1456.114403974013" fill="none" stroke="#0A0F25" stroke-width="2" marker-end="url(#arrow-triangle)"/>
<path d="M 453 1142 C 453 1181.2 453 1200.8 453 1240 C 453 1240 453 1250 463 1250 C 558.25 1250 605.875 1250 701.125 1250 C 701.125 1250 711.125 1250 710.2121605041505 1259.9582490456314 C 703.0233506218262 1338.381629580078 699.428945680664 1377.593319847301 692.2401357983398 1456.0167003817476" fill="none" stroke="#0A0F25" stroke-width="2" marker-end="url(#arrow-triangle)"/>
<path d="M 706.5888374995443 1521.7524318173532 C 707.4960699996354 1523.4019454538825 707.949686249681 1524.2267022721473 708.8569187497721 1525.8762159086766 C 708.8569187497721 1525.8762159086766 711.125 1530 706.4186438947434 1530 C 702.601186336846 1530 700.6924575578973 1530 696.875 1530 C 696.875 1530 686.875 1530 686.875 1540 C 686.875 1590.4 686.875 1615.6 686.875 1666" fill="none" stroke="#0A0F25" stroke-width="2" marker-end="url(#arrow-triangle)"/>
<path d="M 681.3167604857126 1521.9427980129935 C 676.5779959988117 1541.3286527321338 674.2086137553612 1551.021580091704 669.4698492684603 1570.4074348108443 C 669.4698492684603 1570.4074348108443 667.125 1580 677 1580 C 677 1580 677 1580 677 1580 C 677 1580 686.875 1580 686.875 1589.875 C 686.875 1652.325 686.875 1683.55 686.875 1746" fill="none" stroke="#0A0F25" stroke-width="2" marker-end="url(#arrow-triangle)"/>
<path d="M 686.875 1732 C 686.875 1863.35 686.875 1929.025 686.875 2060.375 C 686.875 2060.375 686.875 2070 677.25 2070 C 674.8706001409319 2070 673.6809002113979 2070 671.3015003523298 2070 C 671.3015003523298 2070 667.625 2070 669.3656137732082 2073.2383512059687 C 670.0618592824915 2074.533691688356 670.4099820371331 2075.18136192955 671.1062275464163 2076.4767024119374" fill="none" stroke="#0A0F25" stroke-width="2" marker-end="url(#arrow-triangle)"/>
<path d="M 686.875 1812 C 686.875 1891.2 686.875 1930.8 686.875 2010 C 686.875 2010 686.875 2020 696.875 2020 C 698.375 2020 699.125 2020 700.625 2020 C 700.625 2020 710.625 2020 708.3014902039807 2029.72632007636 C 703.8693223564181 2048.2795808335986 701.653238432637 2057.5562112122175 697.2210705850744 2076.109471969456" fill="none" stroke="#0A0F25" stroke-width="2" marker-end="url(#arrow-triangle)"/>
<path d="M 686.875 1732 C 686.875 1823.2 686.875 1868.8 686.875 1960 C 686.875 1960 686.875 1970 676.875 1970 C 542.775 1970 475.725 1970 341.625 1970 C 341.625 1970 331.625 1970 331.625 1980 C 331.625 2054.4 331.625 2091.6 331.625 2166" fill="none" stroke="#0A0F25" stroke-width="2" marker-end="url(#arrow-triangle)"/>
<text x="216.5" y="88.5" text-anchor="middle" dominant-baseline="alphabetic" font-family="Arial, sans-serif" font-size="24" style="fill: #0A0F25; font-weight: 700">Web Application Architecture</text>
<text x="453" y="131" text-anchor="middle" dominant-baseline="alphabetic" font-family="Arial, sans-serif" font-size="16" style="fill: #0A0F25; font-weight: 700">Users</text>
<text x="452.95" y="256.94" text-anchor="middle" dominant-baseline="alphabetic" font-family="Arial, sans-serif" font-size="16" style="fill: #0A0F25; font-weight: 700">CDN</text>
<text x="453" y="405.5" text-anchor="middle" dominant-baseline="alphabetic" font-family="Arial, sans-serif" font-size="16" style="fill: #0A0F25; font-weight: 700">Load Balancer</text>
<text x="453" y="517" text-anchor="middle" dominant-baseline="alphabetic" font-family="Arial, sans-serif" font-size="28" style="fill: #0A0F25">Web Tier</text>
<text x="453" y="937" text-anchor="middle" dominant-baseline="alphabetic" font-family="Arial, sans-serif" font-size="28" style="fill: #0A0F25">Application Tier</text>
<text x="262.125" y="1495.5" text-anchor="middle" dominant-baseline="alphabetic" font-family="Arial, sans-serif" font-size="16" style="fill: #0A0F25; font-weight: 700">Redis Cache</text>
<text x="417.125" y="2067" text-anchor="middle" dominant-baseline="alphabetic" font-family="Arial, sans-serif" font-size="28" style="fill: #0A0F25">Database Cluster</text>
<text x="677.125" y="1495.5" text-anchor="middle" dominant-baseline="alphabetic" font-family="Arial, sans-serif" font-size="16" style="fill: #0A0F25; font-weight: 700">Message Queue</text>
<text x="686.875" y="1607" text-anchor="middle" dominant-baseline="alphabetic" font-family="Arial, sans-serif" font-size="28" style="fill: #0A0F25">Background Workers</text>
<text x="689.125" y="2115.5" text-anchor="middle" dominant-baseline="alphabetic" font-family="Arial, sans-serif" font-size="16" style="fill: #0A0F25; font-weight: 700">Object Storage</text>
<text x="453" y="695.5" text-anchor="middle" dominant-baseline="alphabetic" font-family="Arial, sans-serif" font-size="16" style="fill: #0A0F25; font-weight: 700">Web Server 2</text>
<text x="453" y="775.5" text-anchor="middle" dominant-baseline="alphabetic" font-family="Arial, sans-serif" font-size="16" style="fill: #0A0F25; font-weight: 700">Web Server 3</text>
<text x="331.625" y="2205.5" text-anchor="middle" dominant-baseline="alphabetic" font-family="Arial, sans-serif" font-size="16" style="fill: #0A0F25; font-weight: 700">Primary DB</text>
<text x="504.625" y="2165.5" text-anchor="middle" dominant-baseline="alphabetic" font-family="Arial, sans-serif" font-size="16" style="fill: #0A0F25; font-weight: 700">Replica 1</text>
<text x="504.625" y="2245.5" text-anchor="middle" dominant-baseline="alphabetic" font-family="Arial, sans-serif" font-size="16" style="fill: #0A0F25; font-weight: 700">Replica 2</text>
<text x="453" y="615.5" text-anchor="middle" dominant-baseline="alphabetic" font-family="Arial, sans-serif" font-size="16" style="fill: #0A0F25; font-weight: 700">Web Server 1</text>
<text x="453" y="1035.5" text-anchor="middle" dominant-baseline="alphabetic" font-family="Arial, sans-serif" font-size="16" style="fill: #0A0F25; font-weight: 700">App Server 1</text>
<text x="686.875" y="1705.5" text-anchor="middle" dominant-baseline="alphabetic" font-family="Arial, sans-serif" font-size="16" style="fill: #0A0F25; font-weight: 700">Worker 1</text>
<text x="686.875" y="1785.5" text-anchor="middle" dominant-baseline="alphabetic" font-family="Arial, sans-serif" font-size="16" style="fill: #0A0F25; font-weight: 700">Worker 2</text>
<text x="453" y="1115.5" text-anchor="middle" dominant-baseline="alphabetic" font-family="Arial, sans-serif" font-size="16" style="fill: #0A0F25; font-weight: 700">App Server 2</text>
</g>
</svg>
