<?xml version="1.0" encoding="UTF-8"?>
<svg xmlns="http://www.w3.org/2000/svg" width="533" height="1860" viewBox="-50 -50 533 1860" data-d2-version="0.1.0">
<defs><marker id="arrow-triangle" markerWidth="10" markerHeight="10" refX="10" refY="5" orient="auto" markerUnits="strokeWidth"><path d="M0,0 L10,5 L0,10 Z" fill="#0A0F25"/></marker>
<marker id="arrow-triangle-reverse" markerWidth="10" markerHeight="10" refX="0" refY="5" orient="auto" markerUnits="strokeWidth"><path d="M10,0 L0,5 L10,10 Z" fill="#0A0F25"/></marker>
<marker id="arrow-diamond" markerWidth="10" markerHeight="10" refX="10" refY="5" orient="auto" markerUnits="strokeWidth"><path d="M0,5 L5,0 L10,5 L5,10 Z" fill="#0A0F25"/></marker>
<marker id="arrow-diamond-reverse" markerWidth="10" markerHeight="10" refX="0" refY="5" orient="auto" markerUnits="strokeWidth"><path d="M0,5 L5,0 L10,5 L5,10 Z" fill="#0A0F25"/></marker>
<marker id="arrow-circle" markerWidth="10" markerHeight="10" refX="6" refY="5" orient="auto" markerUnits="strokeWidth"><circle cx="5" cy="5" r="4" fill="#0A0F25"/></marker>
<marker id="arrow-circle-reverse" markerWidth="10" markerHeight="10" refX="4" refY="5" orient="auto" markerUnits="strokeWidth"><circle cx="5" cy="5" r="4" fill="#0A0F25"/></marker>
<marker id="arrow-cf-one" markerWidth="10" markerHeight="10" refX="10" refY="5" orient="auto" markerUnits="strokeWidth"><line x1="10" y1="0" x2="10" y2="10" stroke="#0A0F25" stroke-width="2"/></marker>
<marker id="arrow-cf-one-reverse" markerWidth="10" markerHeight="10" refX="0" refY="5" orient="auto" markerUnits="strokeWidth"><line x1="0" y1="0" x2="0" y2="10" stroke="#0A0F25" stroke-width="2"/></marker>
<marker id="arrow-cf-many" markerWidth="10" markerHeight="10" refX="10" refY="5" orient="auto" markerUnits="strokeWidth"><path d="M0,5 L10,0 M0,5 L10,5 M0,5 L10,10" stroke="#0A0F25" stroke-width="2" fill="none"/></marker>
<marker id="arrow-cf-many-reverse" markerWidth="10" markerHeight="10" refX="0" refY="5" orient="auto" markerUnits="strokeWidth"><path d="M10,5 L0,0 M10,5 L0,5 M10,5 L0,10" stroke="#0A0F25" stroke-width="2" fill="none"/></marker>
<marker id="arrow-cf-one-required" markerWidth="10" markerHeight="10" refX="10" refY="5" orient="auto" markerUnits="strokeWidth"><line x1="10" y1="0" x2="10" y2="10" stroke="#0A0F25" stroke-width="2"/><line x1="7" y1="0" x2="7" y2="10" stroke="#0A0F25" stroke-width="2"/></marker>
<marker id="arrow-cf-one-required-reverse" markerWidth="10" markerHeight="10" refX="0" refY="5" orient="auto" markerUnits="strokeWidth"><line x1="0" y1="0" x2="0" y2="10" stroke="#0A0F25" stroke-width="2"/><line x1="3" y1="0" x2="3" y2="10" stroke="#0A0F25" stroke-width="2"/></marker>
<marker id="arrow-cf-many-required" markerWidth="10" markerHeight="10" refX="10" refY="5" orient="auto" markerUnits="strokeWidth"><path d="M0,5 L10,0 M0,5 L10,5 M0,5 L10,10" stroke="#0A0F25" stroke-width="2" fill="none"/><line x1="3" y1="0" x2="3" y2="10" stroke="#0A0F25" stroke-width="2"/></marker>
<marker id="arrow-cf-many-required-reverse" markerWidth="10" markerHeight="10" refX="0" refY="5" orient="auto" markerUnits="strokeWidth"><path d="M10,5 L0,0 M10,5 L0,5 M10,5 L0,10" stroke="#0A0F25" stroke-width="2" fill="none"/><line x1="7" y1="0" x2="7" y2="10" stroke="#0A0F25" stroke-width="2"/></marker>
<marker id="arrow-cf-one-optional" markerWidth="10" markerHeight="10" refX="10" refY="5" orient="auto" markerUnits="strokeWidth"><line x1="10" y1="0" x2="10" y2="10" stroke="#0A0F25" stroke-width="2"/><circle cx="7" cy="5" r="2" stroke="#0A0F25" stroke-width="2" fill="white"/></marker>
<marker id="arrow-cf-one-optional-reverse" markerWidth="10" markerHeight="10" refX="0" refY="5" orient="auto" markerUnits="strokeWidth"><line x1="0" y1="0" x2="0" y2="10" stroke="#0A0F25" stroke-width="2"/><circle cx="3" cy="5" r="2" stroke="#0A0F25" stroke-width="2" fill="white"/></marker>
<marker id="arrow-cf-many-optional" markerWidth="10" markerHeight="10" refX="10" refY="5" orient="auto" markerUnits="strokeWidth"><path d="M0,5 L10,0 M0,5 L10,5 M0,5 L10,10" stroke="#0A0F25" stroke-width="2" fill="none"/><circle cx="3" cy="5" r="2" stroke="#0A0F25" stroke-width="2" fill="white"/></marker>
<marker id="arrow-cf-many-optional-reverse" markerWidth="10" markerHeight="10" refX="0" refY="5" orient="auto" markerUnits="strokeWidth"><path d="M10,5 L0,0 M10,5 L0,5 M10,5 L0,10" stroke="#0A0F25" stroke-width="2" fill="none"/><circle cx="7" cy="5" r="2" stroke="#0A0F25" stroke-width="2" fill="white"/></marker>
<marker id="arrow-line" markerWidth="10" markerHeight="10" refX="10" refY="5" orient="auto" markerUnits="strokeWidth"><line x1="10" y1="0" x2="10" y2="10" stroke="#0A0F25" stroke-width="2"/></marker>
<marker id="arrow-line-reverse" markerWidth="10" markerHeight="10" refX="0" refY="5" orient="auto" markerUnits="strokeWidth"><line x1="0" y1="0" x2="0" y2="10" stroke="#0A0F25" stroke-width="2"/></marker>
<marker id="arrow-open" markerWidth="10" markerHeight="10" refX="10" refY="5" orient="auto" markerUnits="strokeWidth"><path d="M0,0 L10,5 L0,10" stroke="#0A0F25" stroke-width="2" fill="none"/></marker>
<marker id="arrow-open-reverse" markerWidth="10" markerHeight="10" refX="0" refY="5" orient="auto" markerUnits="strokeWidth"><path d="M10,0 L0,5 L10,10" stroke="#0A0F25" stroke-width="2" fill="none"/></marker>
<marker id="arrow" markerWidth="10" markerHeight="10" refX="10" refY="5" orient="auto" markerUnits="strokeWidth"><path d="M0,0 L10,5 L0,10 Z" fill="#0A0F25"/></marker>
<marker id="arrow-reverse" markerWidth="10" markerHeight="10" refX="0" refY="5" orient="auto" markerUnits="strokeWidth"><path d="M10,0 L0,5 L10,10 Z" fill="#0A0F25"/></marker>
</defs>
<rect width="100%" height="100%" fill="#FFFFFF"/>
<g id="base-layer">
<rect x="50" y="50" width="333" height="60" fill="#FFFFFF" stroke="#0A0F25" stroke-width="2" rx="0" ry="0"/>
<path d="M 150 270 H 50 v -0.8527131782945736 c 0 -10.232558139534882 10.980966325036604 -19.45736434108527 28.25768667642753 -23.875968992248062 C 68.74084919472914 241.70542635658916 63.0307467057101 235.89147286821705 63.0307467057101 229.53488372093022 C 63.0307467057101 218.75968992248062 79.57540263543191 210 99.9267935578331 210 c 20.351390922401173 0 36.896046852122986 8.75968992248062 36.896046852122986 19.53488372093023 c 0 6.356589147286821 -5.563689604685212 12.093023255813952 -15.226939970717424 15.813953488372091 c 17.276720351390924 4.4186046511627906 28.25768667642753 13.643410852713178 28.25768667642753 23.875968992248062 v 0.7751937984496123 Z" fill="#FFFFFF" stroke="#0A0F25" stroke-width="2"/>
<path d="M 66.52673860911271 390.9751051625239 C 66.52673860911271 391.6125047801147 65.860551558753 392.2497896749522 65.19448441247003 392.2497896749522 C 56.70131894484413 393.04642447418735 50.039928057553965 401.17269598470364 50.039928057553965 411.05158699808794 C 50.039928057553965 421.5678776290631 57.53393285371703 430.0127342256214 67.0263788968825 430.0127342256214 H 131.47482014388493 C 141.6334532374101 430.0127342256214 149.96007194244606 420.93047801147225 149.96007194244606 409.93625239005735 C 149.96007194244606 399.4199617590822 142.29940047961634 390.6564053537285 132.6406474820144 390.019120458891 C 131.97446043165468 390.019120458891 131.30839328537172 389.5410707456979 131.14184652278178 388.7444359464627 C 128.97685851318946 378.0689101338432 118.9847721822542 370.10198852772464 107.32757793764988 370.10198852772464 C 99.66702637889688 370.10198852772464 92.83908872901678 373.44810707456975 88.5093525179856 378.70619502868067 C 88.00971223021583 379.34359464627147 87.17709832134292 379.5029445506692 86.67745803357313 379.34359464627147 C 85.01211031175059 378.70619502868067 83.18033573141486 378.38760994263856 81.18189448441245 378.38760994263856 C 73.52122302158273 378.22814531548755 67.19292565947242 383.8049330783939 66.52673860911271 390.9751051625239 Z" fill="#e3f2fd" stroke="#0A0F25" stroke-width="2"/>
<polygon points="81.25,530 143.75,530 175,560 143.75,590 81.25,590 50,560" fill="#fff3e0" stroke="#0A0F25" stroke-width="2"/>
<rect x="50" y="690" width="128" height="60" fill="#e8f5e9" stroke="#0A0F25" stroke-width="2" rx="0" ry="0"/>
<rect x="50" y="850" width="210" height="60" fill="#f3e5f5" stroke="#0A0F25" stroke-width="2" rx="0" ry="0"/>
<path d="M 50 1034 C 50 1010 98.6 1010 104 1010 C 109.4 1010 158 1010 158 1034 L 158 1046 C 158 1070 109.4 1070 104 1070 C 98.6 1070 50 1070 50 1046 L 50 1034 Z" fill="#ffebee" stroke="#0A0F25" stroke-width="2"/>
<ellipse cx="104" cy="1034" rx="54" ry="24" fill="none" stroke="none" stroke-width="0"/>
<path d="M 50 1034 C 50 1058 98.6 1058 104 1058 C 109.4 1058 158 1058 158 1034" fill="none" stroke="#0A0F25" stroke-width="2"/>
<rect x="50" y="1170" width="222" height="60" fill="#fff8e1" stroke="#0A0F25" stroke-width="2" rx="0" ry="0"/>
<path d="M 65 1330 L 167 1330 C 175.25 1330 182 1345 182 1360 C 182 1375 175.25 1390 167 1390 L 65 1390 C 56.75 1390 50 1375 50 1360 C 50 1345 56.75 1330 65 1330 Z" fill="#e0f2f1" stroke="#0A0F25" stroke-width="2"/>
<rect x="50" y="1490" width="267" height="60" fill="#fce4ec" stroke="#0A0F25" stroke-width="2" rx="0" ry="0"/>
<path d="M 65 1650 L 164 1650 C 174.95 1650 179 1665 179 1680 C 179 1695 174.95 1710 164 1710 L 65 1710 C 54.05 1710 50 1695 50 1680 C 50 1665 54.05 1650 65 1650 Z" fill="#f5f5f5" stroke="#0A0F25" stroke-width="2"/>
<rect x="50" y="690" width="116" height="60" fill="#FFFFFF" stroke="#0A0F25" stroke-width="2" rx="0" ry="0"/>
<rect x="50" y="690" width="116" height="60" fill="#FFFFFF" stroke="#0A0F25" stroke-width="2" rx="0" ry="0"/>
<path d="M 50 1194 C 50 1170 96.80000000000001 1170 102 1170 C 107.19999999999999 1170 154 1170 154 1194 L 154 1206 C 154 1230 107.19999999999999 1230 102 1230 C 96.80000000000001 1230 50 1230 50 1206 L 50 1194 Z" fill="#FFFFFF" stroke="#0A0F25" stroke-width="2"/>
<ellipse cx="102" cy="1194" rx="52" ry="24" fill="none" stroke="none" stroke-width="0"/>
<path d="M 50 1194 C 50 1218 96.80000000000001 1218 102 1218 C 107.19999999999999 1218 154 1218 154 1194" fill="none" stroke="#0A0F25" stroke-width="2"/>
<path d="M 50 1194 C 50 1170 95 1170 100 1170 C 105 1170 150 1170 150 1194 L 150 1206 C 150 1230 105 1230 100 1230 C 95 1230 50 1230 50 1206 L 50 1194 Z" fill="#FFFFFF" stroke="#0A0F25" stroke-width="2"/>
<ellipse cx="100" cy="1194" rx="50" ry="24" fill="none" stroke="none" stroke-width="0"/>
<path d="M 50 1194 C 50 1218 95 1218 100 1218 C 105 1218 150 1218 150 1194" fill="none" stroke="#0A0F25" stroke-width="2"/>
<path d="M 50 1194 C 50 1170 95 1170 100 1170 C 105 1170 150 1170 150 1194 L 150 1206 C 150 1230 105 1230 100 1230 C 95 1230 50 1230 50 1206 L 50 1194 Z" fill="#FFFFFF" stroke="#0A0F25" stroke-width="2"/>
<ellipse cx="100" cy="1194" rx="50" ry="24" fill="none" stroke="none" stroke-width="0"/>
<path d="M 50 1194 C 50 1218 95 1218 100 1218 C 105 1218 150 1218 150 1194" fill="none" stroke="#0A0F25" stroke-width="2"/>
<rect x="50" y="690" width="116" height="60" fill="#FFFFFF" stroke="#0A0F25" stroke-width="2" rx="0" ry="0"/>
<rect x="50" y="850" width="114" height="60" fill="#FFFFFF" stroke="#0A0F25" stroke-width="2" rx="0" ry="0"/>
<rect x="50" y="1490" width="100" height="60" fill="#FFFFFF" stroke="#0A0F25" stroke-width="2" rx="0" ry="0"/>
<rect x="50" y="1490" width="100" height="60" fill="#FFFFFF" stroke="#0A0F25" stroke-width="2" rx="0" ry="0"/>
<rect x="50" y="850" width="114" height="60" fill="#FFFFFF" stroke="#0A0F25" stroke-width="2" rx="0" ry="0"/>
<path d="M 99.68067226890756 1170 C 99.68067226890756 1170 99.68067226890756 1170 99.68067226890756 1170" fill="none" stroke="#0A0F25" stroke-width="2" marker-end="url(#arrow-triangle)"/>
<rect x="84.18067226890756" y="1159.5" width="31" height="21" fill="#FFFFFF" stroke="none" stroke-width="1" rx="3" ry="3"/>
<text x="99.68067226890756" y="1175.5" text-anchor="middle" dominant-baseline="alphabetic" font-family="Arial, sans-serif" font-size="16" style="fill: #676C7E; font-style: italic">sync</text>
<path d="M 99.68067226890756 1170 C 99.68067226890756 1170 99.68067226890756 1170 99.68067226890756 1170" fill="none" stroke="#0A0F25" stroke-width="2" marker-end="url(#arrow-triangle)"/>
<rect x="84.18067226890756" y="1159.5" width="31" height="21" fill="#FFFFFF" stroke="none" stroke-width="1" rx="3" ry="3"/>
<text x="99.68067226890756" y="1175.5" text-anchor="middle" dominant-baseline="alphabetic" font-family="Arial, sans-serif" font-size="16" style="fill: #676C7E; font-style: italic">sync</text>
<path d="M 88.38420417636107 211.99619352110312 C 92.19043605259965 273.60076129577936 94.09355199071894 304.4030451831175 97.89978386695752 366.00761295779375" fill="none" stroke="#0A0F25" stroke-width="2" marker-end="url(#arrow-triangle)"/>
<path d="M 93.28031651886089 371.98963089737185 C 99.578754509993 433.6020738205256 102.72797350555906 464.40829528210253 109.02641149669118 526.0207382052563" fill="none" stroke="#0A0F25" stroke-width="2" marker-end="url(#arrow-triangle)"/>
<path d="M 106.92057397340403 531.9999670345368 C 107.27425841106081 593.6000065930926 107.4511006298892 624.4000263723705 107.80478506754598 686.0000659309263" fill="none" stroke="#0A0F25" stroke-width="2" marker-end="url(#arrow-triangle)"/>
<path d="M 106.92057397340403 531.9999670345368 C 107.27425841106081 593.6000065930926 107.4511006298892 624.4000263723705 107.80478506754598 686.0000659309263" fill="none" stroke="#0A0F25" stroke-width="2" marker-end="url(#arrow-triangle)"/>
<path d="M 106.92057397340403 531.9999670345368 C 107.27425841106081 593.6000065930926 107.4511006298892 624.4000263723705 107.80478506754598 686.0000659309263" fill="none" stroke="#0A0F25" stroke-width="2" marker-end="url(#arrow-triangle)"/>
<path d="M 103.89221194026217 691.9997267898502 C 104.91051239326707 753.6000546420299 105.41966261976951 784.4002185681198 106.43796307277441 846.0005464202995" fill="none" stroke="#0A0F25" stroke-width="2" marker-end="url(#arrow-triangle)"/>
<path d="M 103.89221194026217 691.9997267898502 C 104.91051239326707 753.6000546420299 105.41966261976951 784.4002185681198 106.43796307277441 846.0005464202995" fill="none" stroke="#0A0F25" stroke-width="2" marker-end="url(#arrow-triangle)"/>
<path d="M 103.89221194026217 691.9997267898502 C 104.91051239326707 753.6000546420299 105.41966261976951 784.4002185681198 106.43796307277441 846.0005464202995" fill="none" stroke="#0A0F25" stroke-width="2" marker-end="url(#arrow-triangle)"/>
<path d="M 103.89221194026217 691.9997267898502 C 104.91051239326707 753.6000546420299 105.41966261976951 784.4002185681198 106.43796307277441 846.0005464202995" fill="none" stroke="#0A0F25" stroke-width="2" marker-end="url(#arrow-triangle)"/>
<path d="M 103.65880217188061 851.9999967062114 C 103.77059891226635 913.6000006587577 103.82649728245923 944.400002635031 103.93829402284497 1006.0000065875773" fill="none" stroke="#0A0F25" stroke-width="2" marker-end="url(#arrow-triangle)"/>
<path d="M 103.65880217188061 851.9999967062114 C 103.77059891226635 913.6000006587577 103.82649728245923 944.400002635031 103.93829402284497 1006.0000065875773" fill="none" stroke="#0A0F25" stroke-width="2" marker-end="url(#arrow-triangle)"/>
<path d="M 103.64571439147353 851.9999776363284 C 103.0517438212127 977.6000044727343 102.75475853608228 1040.4000178909373 102.16078796582144 1166.0000447273433" fill="none" stroke="#0A0F25" stroke-width="2" marker-end="url(#arrow-triangle)"/>
<path d="M 103.64571439147353 851.9999776363284 C 103.0517438212127 977.6000044727343 102.75475853608228 1040.4000178909373 102.16078796582144 1166.0000447273433" fill="none" stroke="#0A0F25" stroke-width="2" marker-end="url(#arrow-triangle)"/>
<path d="M 103.70356932636444 851.9994143489666 C 108.29295753432145 1041.6001171302066 110.58765163829993 1136.4004685208267 115.17703984625693 1326.0011713020667" fill="none" stroke="#0A0F25" stroke-width="2" marker-end="url(#arrow-triangle)"/>
<path d="M 103.70356932636444 851.9994143489666 C 108.29295753432145 1041.6001171302066 110.58765163829993 1136.4004685208267 115.17703984625693 1326.0011713020667" fill="none" stroke="#0A0F25" stroke-width="2" marker-end="url(#arrow-triangle)"/>
<path d="M 113.50118763239328 1331.9948627736767 C 109.07707241504181 1393.6010274452647 106.86501480636608 1424.4041097810587 102.4408995890146 1486.0102744526466" fill="none" stroke="#0A0F25" stroke-width="2" marker-end="url(#arrow-triangle)"/>
<path d="M 113.50118763239328 1331.9948627736767 C 109.07707241504181 1393.6010274452647 106.86501480636608 1424.4041097810587 102.4408995890146 1486.0102744526466" fill="none" stroke="#0A0F25" stroke-width="2" marker-end="url(#arrow-triangle)"/>
<path d="M 98.3827474372606 1491.992691187236 C 103.66426612774481 1553.6014617625528 106.3050254729869 1584.4058470502112 111.5865441634711 1646.014617625528" fill="none" stroke="#0A0F25" stroke-width="2" marker-end="url(#arrow-triangle)"/>
<path d="M 98.3827474372606 1491.992691187236 C 103.66426612774481 1553.6014617625528 106.3050254729869 1584.4058470502112 111.5865441634711 1646.014617625528" fill="none" stroke="#0A0F25" stroke-width="2" marker-end="url(#arrow-triangle)"/>
<path d="M 98.23804298732814 1488.0001706029732 C 99.56517971036722 1386.3999658794053 100.22874807188674 1335.5998635176215 101.55588479492582 1233.9996587940536" fill="none" stroke="#0A0F25" stroke-width="2" marker-end="url(#arrow-triangle)"/>
<text x="216.5" y="88.5" text-anchor="middle" dominant-baseline="alphabetic" font-family="Arial, sans-serif" font-size="24" style="fill: #0A0F25; font-weight: 700">Web Application Architecture</text>
<text x="100" y="291" text-anchor="middle" dominant-baseline="alphabetic" font-family="Arial, sans-serif" font-size="16" style="fill: #0A0F25; font-weight: 700">Users</text>
<text x="99.94999999999999" y="416.94" text-anchor="middle" dominant-baseline="alphabetic" font-family="Arial, sans-serif" font-size="16" style="fill: #0A0F25; font-weight: 700">CDN</text>
<text x="112.5" y="565.5" text-anchor="middle" dominant-baseline="alphabetic" font-family="Arial, sans-serif" font-size="16" style="fill: #0A0F25; font-weight: 700">Load Balancer</text>
<text x="114" y="677" text-anchor="middle" dominant-baseline="alphabetic" font-family="Arial, sans-serif" font-size="28" style="fill: #0A0F25">Web Tier</text>
<text x="155" y="837" text-anchor="middle" dominant-baseline="alphabetic" font-family="Arial, sans-serif" font-size="28" style="fill: #0A0F25">Application Tier</text>
<text x="104" y="1045.5" text-anchor="middle" dominant-baseline="alphabetic" font-family="Arial, sans-serif" font-size="16" style="fill: #0A0F25; font-weight: 700">Redis Cache</text>
<text x="161" y="1157" text-anchor="middle" dominant-baseline="alphabetic" font-family="Arial, sans-serif" font-size="28" style="fill: #0A0F25">Database Cluster</text>
<text x="104" y="1365.5" text-anchor="middle" dominant-baseline="alphabetic" font-family="Arial, sans-serif" font-size="16" style="fill: #0A0F25; font-weight: 700">Message Queue</text>
<text x="183.5" y="1477" text-anchor="middle" dominant-baseline="alphabetic" font-family="Arial, sans-serif" font-size="28" style="fill: #0A0F25">Background Workers</text>
<text x="114.5" y="1685.5" text-anchor="middle" dominant-baseline="alphabetic" font-family="Arial, sans-serif" font-size="16" style="fill: #0A0F25; font-weight: 700">Object Storage</text>
<text x="108" y="725.5" text-anchor="middle" dominant-baseline="alphabetic" font-family="Arial, sans-serif" font-size="16" style="fill: #0A0F25; font-weight: 700">Web Server 2</text>
<text x="108" y="725.5" text-anchor="middle" dominant-baseline="alphabetic" font-family="Arial, sans-serif" font-size="16" style="fill: #0A0F25; font-weight: 700">Web Server 3</text>
<text x="102" y="1205.5" text-anchor="middle" dominant-baseline="alphabetic" font-family="Arial, sans-serif" font-size="16" style="fill: #0A0F25; font-weight: 700">Primary DB</text>
<text x="100" y="1205.5" text-anchor="middle" dominant-baseline="alphabetic" font-family="Arial, sans-serif" font-size="16" style="fill: #0A0F25; font-weight: 700">Replica 1</text>
<text x="100" y="1205.5" text-anchor="middle" dominant-baseline="alphabetic" font-family="Arial, sans-serif" font-size="16" style="fill: #0A0F25; font-weight: 700">Replica 2</text>
<text x="108" y="725.5" text-anchor="middle" dominant-baseline="alphabetic" font-family="Arial, sans-serif" font-size="16" style="fill: #0A0F25; font-weight: 700">Web Server 1</text>
<text x="107" y="885.5" text-anchor="middle" dominant-baseline="alphabetic" font-family="Arial, sans-serif" font-size="16" style="fill: #0A0F25; font-weight: 700">App Server 1</text>
<text x="100" y="1525.5" text-anchor="middle" dominant-baseline="alphabetic" font-family="Arial, sans-serif" font-size="16" style="fill: #0A0F25; font-weight: 700">Worker 1</text>
<text x="100" y="1525.5" text-anchor="middle" dominant-baseline="alphabetic" font-family="Arial, sans-serif" font-size="16" style="fill: #0A0F25; font-weight: 700">Worker 2</text>
<text x="107" y="885.5" text-anchor="middle" dominant-baseline="alphabetic" font-family="Arial, sans-serif" font-size="16" style="fill: #0A0F25; font-weight: 700">App Server 2</text>
</g>
</svg>
