<?xml version="1.0" encoding="UTF-8"?>
<svg xmlns="http://www.w3.org/2000/svg" width="327" height="896" viewBox="-88 -88 327 896" data-d2-version="0.2.0">
<defs><mask id="edge-label-mask" maskUnits="userSpaceOnUse" x="-88" y="-88" width="327" height="896"><rect x="-88" y="-88" width="327" height="896" fill="white"></rect><rect x="16" y="541" width="53" height="21" fill="black"></rect><rect x="26" y="294" width="40" height="21" fill="black"></rect></mask>
<marker id="mk-161592640" markerWidth="10" markerHeight="12" refX="7" refY="6" viewBox="0 0 10 12" orient="auto" markerUnits="userSpaceOnUse"><polygon points="0,0 10,6 0,12" fill="#0D32B2" stroke-width="2"/></marker>
<marker id="mk-2090524415" markerWidth="10" markerHeight="12" refX="3" refY="6" viewBox="0 0 10 12" orient="auto" markerUnits="userSpaceOnUse"><polygon points="10,0 0,6 10,12" fill="#0D32B2" stroke-width="2"/></marker>
</defs>
<rect x="-88" y="-88" width="327" height="896" rx="0" fill="#FFFFFF" stroke-width="0"/>
<g id="base-layer">
<rect x="12" y="395" width="126" height="66" fill="#F7F8FE" stroke="#0D32B2" stroke-width="2" rx="0" ry="0"/>
<rect x="12" y="642" width="127" height="66" fill="#F7F8FE" stroke="#0D32B2" stroke-width="2" rx="0" ry="0"/>
<rect x="33" y="148" width="85" height="66" fill="#F7F8FE" stroke="#0D32B2" stroke-width="2" rx="0" ry="0"/>
<rect x="37" y="12" width="77" height="66" fill="#F7F8FE" stroke="#0D32B2" stroke-width="2" rx="0" ry="0"/>
<path d="M 42.75 463 L 42.75 638" fill="none" stroke="#0D32B2" stroke-width="2" marker-end="url(#mk-161592640)" mask="url(#edge-label-mask)"/>
<text x="42.5" y="557" text-anchor="middle" dominant-baseline="alphabetic" font-family="Arial, sans-serif" font-size="16" style="fill: #676C7E; font-style: italic">queries</text>
<path d="M 46 218 L 46 391" fill="none" stroke="#0D32B2" stroke-width="2" marker-start="url(#mk-2090524415)" marker-end="url(#mk-161592640)" mask="url(#edge-label-mask)"/>
<text x="46" y="310" text-anchor="middle" dominant-baseline="alphabetic" font-family="Arial, sans-serif" font-size="16" style="fill: #676C7E; font-style: italic">HTTP</text>
<path d="M 75.5 80 L 75.5 144" fill="none" stroke="#0D32B2" stroke-width="2" marker-end="url(#mk-161592640)" mask="url(#edge-label-mask)"/>
<path d="M 105 216 L 105 391" fill="none" stroke="#0D32B2" stroke-width="2" marker-end="url(#mk-161592640)" mask="url(#edge-label-mask)"/>
<path d="M 108.25 463 L 108.25 638" fill="none" stroke="#0D32B2" stroke-width="2" marker-end="url(#mk-161592640)" mask="url(#edge-label-mask)"/>
<text x="75" y="433.5" text-anchor="middle" dominant-baseline="alphabetic" font-family="Arial, sans-serif" font-size="16" style="fill: #0A0F25; font-weight: 700">Web Server</text>
<text x="75.5" y="680.5" text-anchor="middle" dominant-baseline="alphabetic" font-family="Arial, sans-serif" font-size="16" style="fill: #0A0F25; font-weight: 700">PostgreSQL</text>
<text x="75.5" y="186.5" text-anchor="middle" dominant-baseline="alphabetic" font-family="Arial, sans-serif" font-size="16" style="fill: #0A0F25; font-weight: 700">client</text>
<text x="75.5" y="50.5" text-anchor="middle" dominant-baseline="alphabetic" font-family="Arial, sans-serif" font-size="16" style="fill: #0A0F25; font-weight: 700">user</text>
</g>
</svg>
