<?xml version="1.0" encoding="UTF-8"?>
<svg xmlns="http://www.w3.org/2000/svg" width="494" height="905" viewBox="-88 -88 494 905" data-d2-version="0.2.0">
<defs><mask id="edge-label-mask" maskUnits="userSpaceOnUse" x="-88" y="-88" width="494" height="905"><rect x="-88" y="-88" width="494" height="905" fill="white"></rect><rect x="122" y="508" width="75" height="21" fill="black"></rect></mask>
<marker id="mk-161592640" markerWidth="10" markerHeight="12" refX="7" refY="6" viewBox="0 0 10 12" orient="auto" markerUnits="userSpaceOnUse"><polygon points="0,0 10,6 0,12" fill="#0D32B2" stroke-width="2"/></marker>
</defs>
<rect x="-88" y="-88" width="494" height="905" rx="0" fill="#FFFFFF" stroke-width="0"/>
<g id="base-layer">
<rect x="12" y="174" width="137" height="66" fill="#e3f2fd" stroke="#1976D2" stroke-width="2" rx="0" ry="0"/>
<rect x="169" y="174" width="137" height="66" fill="#e3f2fd" stroke="#1976D2" stroke-width="2" rx="0" ry="0"/>
<path d="M 96 344 C 96 320 152.25 320 158.5 320 C 164.75 320 221 320 221 344 L 221 414 C 221 438 164.75 438 158.5 438 C 152.25 438 96 438 96 414 L 96 344 Z" fill="#fff8e1" stroke="#FFA000" stroke-width="2"/>
<path d="M 96 344 C 96 368 152.25 368 158.5 368 C 164.75 368 221 368 221 344" fill="#fff8e1" stroke="#FFA000" stroke-width="2"/>
<path d="M 99 623 C 99 599 153 599 159 599 C 165 599 219 599 219 623 L 219 693 C 219 717 165 717 159 717 C 153 717 99 717 99 693 L 99 623 Z" fill="#fff8e1" stroke="#FFA000" stroke-width="2"/>
<path d="M 99 623 C 99 647 153 647 159 647 C 165 647 219 647 219 623" fill="#fff8e1" stroke="#FFA000" stroke-width="2"/>
<path d="M 105 78 H 55 v -0.937984496124031 c 0 -11.25581395348837 5.490483162518302 -21.4031007751938 14.128843338213764 -26.26356589147287 C 64.37042459736458 46.87596899224806 61.51537335285505 40.48062015503876 61.51537335285505 33.48837209302326 C 61.51537335285505 21.63565891472868 69.78770131771596 12 79.96339677891655 12 c 10.175695461200586 0 18.448023426061493 9.635658914728682 18.448023426061493 21.488372093023255 c 0 6.992248062015503 -2.781844802342606 13.302325581395348 -7.613469985358712 17.3953488372093 c 8.638360175695462 4.8604651162790695 14.128843338213764 15.007751937984496 14.128843338213764 26.26356589147287 v 0.8527131782945736 Z" fill="#f3e5f5" stroke="#0D32B2" stroke-width="2"/>
<path d="M 259 78 H 215 v -0.937984496124031 c 0 -11.25581395348837 4.831625183016105 -21.4031007751938 12.433382137628112 -26.26356589147287 C 223.2459736456808 46.87596899224806 220.73352855051243 40.48062015503876 220.73352855051243 33.48837209302326 C 220.73352855051243 21.63565891472868 228.01317715959004 12 236.96778916544656 12 c 8.954612005856516 0 16.234260614934115 9.635658914728682 16.234260614934115 21.488372093023255 c 0 6.992248062015503 -2.4480234260614933 13.302325581395348 -6.699853587115666 17.3953488372093 c 7.601756954612006 4.8604651162790695 12.433382137628112 15.007751937984496 12.433382137628112 26.26356589147287 v 0.8527131782945736 Z" fill="#f3e5f5" stroke="#0D32B2" stroke-width="2"/>
<path d="M 80.5 106 L 80.5 170" fill="none" stroke="#0D32B2" stroke-width="2" marker-end="url(#mk-161592640)" mask="url(#edge-label-mask)"/>
<path d="M 237.5 106 L 237.5 170" fill="none" stroke="#0D32B2" stroke-width="2" marker-end="url(#mk-161592640)" mask="url(#edge-label-mask)"/>
<path d="M 80.5 242 L 80.5 270 S 80.5 280 90.5 280 L 128.16666666666669 280 S 138.16666666666669 280 138.1260165960234 289.9999173782465 L 138.0162600282573 317.00003304870137" fill="none" stroke="#0D32B2" stroke-width="2" marker-end="url(#mk-161592640)" mask="url(#edge-label-mask)"/>
<path d="M 237.5 242 L 237.5 270 S 237.5 280 227.5 280 L 189.83333333333334 280 S 179.83333333333334 280 179.8739834039766 289.9999173782465 L 179.9837399717427 317.00003304870137" fill="none" stroke="#0D32B2" stroke-width="2" marker-end="url(#mk-161592640)" mask="url(#edge-label-mask)"/>
<path d="M 159 440 L 159 595" fill="none" stroke="#0D32B2" stroke-width="2" marker-end="url(#mk-161592640)" mask="url(#edge-label-mask)"/>
<text x="159.5" y="524" text-anchor="middle" dominant-baseline="alphabetic" font-family="Arial, sans-serif" font-size="16" style="fill: #676C7E; font-style: italic">replication</text>
<text x="80.5" y="212.5" text-anchor="middle" dominant-baseline="alphabetic" font-family="Arial, sans-serif" font-size="16" style="fill: #0A0F25; font-weight: 700">Web Server 1</text>
<text x="237.5" y="212.5" text-anchor="middle" dominant-baseline="alphabetic" font-family="Arial, sans-serif" font-size="16" style="fill: #0A0F25; font-weight: 700">Web Server 2</text>
<text x="158.5" y="396.5" text-anchor="middle" dominant-baseline="alphabetic" font-family="Arial, sans-serif" font-size="16" style="fill: #0A0F25; font-weight: 700">Primary DB</text>
<text x="159" y="675.5" text-anchor="middle" dominant-baseline="alphabetic" font-family="Arial, sans-serif" font-size="16" style="fill: #0A0F25; font-weight: 700">Replica DB</text>
<text x="80" y="99" text-anchor="middle" dominant-baseline="alphabetic" font-family="Arial, sans-serif" font-size="16" style="fill: #0A0F25; font-weight: 700">Alice</text>
<text x="237" y="99" text-anchor="middle" dominant-baseline="alphabetic" font-family="Arial, sans-serif" font-size="16" style="fill: #0A0F25; font-weight: 700">Bob</text>
</g>
</svg>
