<?xml version="1.0" encoding="UTF-8"?>
<svg xmlns="http://www.w3.org/2000/svg" width="350" height="420" viewBox="-50 -50 350 420" data-d2-version="0.1.0">
<defs><marker id="arrow-triangle" markerWidth="10" markerHeight="10" refX="10" refY="5" orient="auto" markerUnits="strokeWidth"><path d="M0,0 L10,5 L0,10 Z" fill="#0A0F25"/></marker>
<marker id="arrow-triangle-reverse" markerWidth="10" markerHeight="10" refX="0" refY="5" orient="auto" markerUnits="strokeWidth"><path d="M10,0 L0,5 L10,10 Z" fill="#0A0F25"/></marker>
<marker id="arrow-diamond" markerWidth="10" markerHeight="10" refX="10" refY="5" orient="auto" markerUnits="strokeWidth"><path d="M0,5 L5,0 L10,5 L5,10 Z" fill="#0A0F25"/></marker>
<marker id="arrow-diamond-reverse" markerWidth="10" markerHeight="10" refX="0" refY="5" orient="auto" markerUnits="strokeWidth"><path d="M0,5 L5,0 L10,5 L5,10 Z" fill="#0A0F25"/></marker>
<marker id="arrow-circle" markerWidth="10" markerHeight="10" refX="6" refY="5" orient="auto" markerUnits="strokeWidth"><circle cx="5" cy="5" r="4" fill="#0A0F25"/></marker>
<marker id="arrow-circle-reverse" markerWidth="10" markerHeight="10" refX="4" refY="5" orient="auto" markerUnits="strokeWidth"><circle cx="5" cy="5" r="4" fill="#0A0F25"/></marker>
<marker id="arrow-cf-one" markerWidth="10" markerHeight="10" refX="10" refY="5" orient="auto" markerUnits="strokeWidth"><line x1="10" y1="0" x2="10" y2="10" stroke="#0A0F25" stroke-width="2"/></marker>
<marker id="arrow-cf-one-reverse" markerWidth="10" markerHeight="10" refX="0" refY="5" orient="auto" markerUnits="strokeWidth"><line x1="0" y1="0" x2="0" y2="10" stroke="#0A0F25" stroke-width="2"/></marker>
<marker id="arrow-cf-many" markerWidth="10" markerHeight="10" refX="10" refY="5" orient="auto" markerUnits="strokeWidth"><path d="M0,5 L10,0 M0,5 L10,5 M0,5 L10,10" stroke="#0A0F25" stroke-width="2" fill="none"/></marker>
<marker id="arrow-cf-many-reverse" markerWidth="10" markerHeight="10" refX="0" refY="5" orient="auto" markerUnits="strokeWidth"><path d="M10,5 L0,0 M10,5 L0,5 M10,5 L0,10" stroke="#0A0F25" stroke-width="2" fill="none"/></marker>
<marker id="arrow-cf-one-required" markerWidth="10" markerHeight="10" refX="10" refY="5" orient="auto" markerUnits="strokeWidth"><line x1="10" y1="0" x2="10" y2="10" stroke="#0A0F25" stroke-width="2"/><line x1="7" y1="0" x2="7" y2="10" stroke="#0A0F25" stroke-width="2"/></marker>
<marker id="arrow-cf-one-required-reverse" markerWidth="10" markerHeight="10" refX="0" refY="5" orient="auto" markerUnits="strokeWidth"><line x1="0" y1="0" x2="0" y2="10" stroke="#0A0F25" stroke-width="2"/><line x1="3" y1="0" x2="3" y2="10" stroke="#0A0F25" stroke-width="2"/></marker>
<marker id="arrow-cf-many-required" markerWidth="10" markerHeight="10" refX="10" refY="5" orient="auto" markerUnits="strokeWidth"><path d="M0,5 L10,0 M0,5 L10,5 M0,5 L10,10" stroke="#0A0F25" stroke-width="2" fill="none"/><line x1="3" y1="0" x2="3" y2="10" stroke="#0A0F25" stroke-width="2"/></marker>
<marker id="arrow-cf-many-required-reverse" markerWidth="10" markerHeight="10" refX="0" refY="5" orient="auto" markerUnits="strokeWidth"><path d="M10,5 L0,0 M10,5 L0,5 M10,5 L0,10" stroke="#0A0F25" stroke-width="2" fill="none"/><line x1="7" y1="0" x2="7" y2="10" stroke="#0A0F25" stroke-width="2"/></marker>
<marker id="arrow-cf-one-optional" markerWidth="10" markerHeight="10" refX="10" refY="5" orient="auto" markerUnits="strokeWidth"><line x1="10" y1="0" x2="10" y2="10" stroke="#0A0F25" stroke-width="2"/><circle cx="7" cy="5" r="2" stroke="#0A0F25" stroke-width="2" fill="white"/></marker>
<marker id="arrow-cf-one-optional-reverse" markerWidth="10" markerHeight="10" refX="0" refY="5" orient="auto" markerUnits="strokeWidth"><line x1="0" y1="0" x2="0" y2="10" stroke="#0A0F25" stroke-width="2"/><circle cx="3" cy="5" r="2" stroke="#0A0F25" stroke-width="2" fill="white"/></marker>
<marker id="arrow-cf-many-optional" markerWidth="10" markerHeight="10" refX="10" refY="5" orient="auto" markerUnits="strokeWidth"><path d="M0,5 L10,0 M0,5 L10,5 M0,5 L10,10" stroke="#0A0F25" stroke-width="2" fill="none"/><circle cx="3" cy="5" r="2" stroke="#0A0F25" stroke-width="2" fill="white"/></marker>
<marker id="arrow-cf-many-optional-reverse" markerWidth="10" markerHeight="10" refX="0" refY="5" orient="auto" markerUnits="strokeWidth"><path d="M10,5 L0,0 M10,5 L0,5 M10,5 L0,10" stroke="#0A0F25" stroke-width="2" fill="none"/><circle cx="7" cy="5" r="2" stroke="#0A0F25" stroke-width="2" fill="white"/></marker>
<marker id="arrow-line" markerWidth="10" markerHeight="10" refX="10" refY="5" orient="auto" markerUnits="strokeWidth"><line x1="10" y1="0" x2="10" y2="10" stroke="#0A0F25" stroke-width="2"/></marker>
<marker id="arrow-line-reverse" markerWidth="10" markerHeight="10" refX="0" refY="5" orient="auto" markerUnits="strokeWidth"><line x1="0" y1="0" x2="0" y2="10" stroke="#0A0F25" stroke-width="2"/></marker>
<marker id="arrow-open" markerWidth="10" markerHeight="10" refX="10" refY="5" orient="auto" markerUnits="strokeWidth"><path d="M0,0 L10,5 L0,10" stroke="#0A0F25" stroke-width="2" fill="none"/></marker>
<marker id="arrow-open-reverse" markerWidth="10" markerHeight="10" refX="0" refY="5" orient="auto" markerUnits="strokeWidth"><path d="M10,0 L0,5 L10,10" stroke="#0A0F25" stroke-width="2" fill="none"/></marker>
<marker id="arrow" markerWidth="10" markerHeight="10" refX="10" refY="5" orient="auto" markerUnits="strokeWidth"><path d="M0,0 L10,5 L0,10 Z" fill="#0A0F25"/></marker>
<marker id="arrow-reverse" markerWidth="10" markerHeight="10" refX="0" refY="5" orient="auto" markerUnits="strokeWidth"><path d="M10,0 L0,5 L10,10 Z" fill="#0A0F25"/></marker>
</defs>
<rect width="100%" height="100%" fill="#FFFFFF"/>
<g id="base-layer">
<rect x="50" y="50" width="150" height="60" fill="#FFFFFF" stroke="#0A0F25" stroke-width="2" rx="0" ry="0"/>
<rect x="50" y="210" width="100" height="60" fill="#FFFFFF" stroke="#0A0F25" stroke-width="2" rx="0" ry="0"/>
<rect x="50" y="50" width="104" height="60" fill="#FFFFFF" stroke="#0A0F25" stroke-width="2" rx="0" ry="0"/>
<rect x="50" y="50" width="100" height="60" fill="#FFFFFF" stroke="#0A0F25" stroke-width="2" rx="0" ry="0"/>
<rect x="50" y="50" width="100" height="60" fill="#FFFFFF" stroke="#0A0F25" stroke-width="2" rx="0" ry="0"/>
<rect x="50" y="50" width="147" height="60" fill="#FFFFFF" stroke="#0A0F25" stroke-width="2" rx="0" ry="0"/>
<rect x="50" y="50" width="100" height="60" fill="#FFFFFF" stroke="#0A0F25" stroke-width="2" rx="0" ry="0"/>
<rect x="50" y="50" width="113" height="60" fill="#FFFFFF" stroke="#0A0F25" stroke-width="2" rx="0" ry="0"/>
<path d="M 88.47107015002324 208.0110767450333 C 92.4462541974201 170.39778465099334 94.43384622111853 151.59113860397335 98.4090302685154 113.97784650993337" fill="none" stroke="#0A0F25" stroke-width="2" marker-end="url(#arrow-triangle)"/>
<path d="M 62.57142857142858 50 C 62.57142857142858 50 62.57142857142858 50 62.57142857142858 50" fill="none" stroke="#0A0F25" stroke-width="2" marker-end="url(#arrow-triangle)"/>
<path d="M 65.14285714285714 50 C 65.14285714285714 50 65.14285714285714 50 65.14285714285714 50" fill="none" stroke="#0A0F25" stroke-width="2" marker-end="url(#arrow-triangle)"/>
<path d="M 65.14285714285714 50 C 65.14285714285714 50 65.14285714285714 50 65.14285714285714 50" fill="none" stroke="#0A0F25" stroke-width="2" marker-end="url(#arrow-triangle)"/>
<text x="125" y="37" text-anchor="middle" dominant-baseline="alphabetic" font-family="Arial, sans-serif" font-size="28" style="fill: #0A0F25">AWS Cloud</text>
<text x="100" y="245.5" text-anchor="middle" dominant-baseline="alphabetic" font-family="Arial, sans-serif" font-size="16" style="fill: #0A0F25; font-weight: 700">user</text>
<text x="102" y="85.5" text-anchor="middle" dominant-baseline="alphabetic" font-family="Arial, sans-serif" font-size="16" style="fill: #0A0F25; font-weight: 700">CloudFront</text>
<text x="100" y="85.5" text-anchor="middle" dominant-baseline="alphabetic" font-family="Arial, sans-serif" font-size="16" style="fill: #0A0F25; font-weight: 700">S3 Bucket</text>
<text x="100" y="38" text-anchor="middle" dominant-baseline="alphabetic" font-family="Arial, sans-serif" font-size="24" style="fill: #0A0F25">VPC</text>
<text x="123.5" y="39" text-anchor="middle" dominant-baseline="alphabetic" font-family="Arial, sans-serif" font-size="20" style="fill: #0A0F25">Private Subnet</text>
<text x="100" y="85.5" text-anchor="middle" dominant-baseline="alphabetic" font-family="Arial, sans-serif" font-size="16" style="fill: #0A0F25; font-weight: 700">RDS</text>
<text x="106.5" y="85.5" text-anchor="middle" dominant-baseline="alphabetic" font-family="Arial, sans-serif" font-size="16" style="fill: #0A0F25; font-weight: 700">EC2 Instance</text>
</g>
</svg>
