<?xml version="1.0" encoding="UTF-8"?>
<svg xmlns="http://www.w3.org/2000/svg" width="640" height="1140" viewBox="-50 -50 640 1140" data-d2-version="0.1.0">
<defs><marker id="arrow-triangle" markerWidth="10" markerHeight="10" refX="10" refY="5" orient="auto" markerUnits="strokeWidth"><path d="M0,0 L10,5 L0,10 Z" fill="#0A0F25"/></marker>
<marker id="arrow-triangle-reverse" markerWidth="10" markerHeight="10" refX="0" refY="5" orient="auto" markerUnits="strokeWidth"><path d="M10,0 L0,5 L10,10 Z" fill="#0A0F25"/></marker>
<marker id="arrow-diamond" markerWidth="10" markerHeight="10" refX="10" refY="5" orient="auto" markerUnits="strokeWidth"><path d="M0,5 L5,0 L10,5 L5,10 Z" fill="#0A0F25"/></marker>
<marker id="arrow-diamond-reverse" markerWidth="10" markerHeight="10" refX="0" refY="5" orient="auto" markerUnits="strokeWidth"><path d="M0,5 L5,0 L10,5 L5,10 Z" fill="#0A0F25"/></marker>
<marker id="arrow-circle" markerWidth="10" markerHeight="10" refX="6" refY="5" orient="auto" markerUnits="strokeWidth"><circle cx="5" cy="5" r="4" fill="#0A0F25"/></marker>
<marker id="arrow-circle-reverse" markerWidth="10" markerHeight="10" refX="4" refY="5" orient="auto" markerUnits="strokeWidth"><circle cx="5" cy="5" r="4" fill="#0A0F25"/></marker>
<marker id="arrow-cf-one" markerWidth="10" markerHeight="10" refX="10" refY="5" orient="auto" markerUnits="strokeWidth"><line x1="10" y1="0" x2="10" y2="10" stroke="#0A0F25" stroke-width="2"/></marker>
<marker id="arrow-cf-one-reverse" markerWidth="10" markerHeight="10" refX="0" refY="5" orient="auto" markerUnits="strokeWidth"><line x1="0" y1="0" x2="0" y2="10" stroke="#0A0F25" stroke-width="2"/></marker>
<marker id="arrow-cf-many" markerWidth="10" markerHeight="10" refX="10" refY="5" orient="auto" markerUnits="strokeWidth"><path d="M0,5 L10,0 M0,5 L10,5 M0,5 L10,10" stroke="#0A0F25" stroke-width="2" fill="none"/></marker>
<marker id="arrow-cf-many-reverse" markerWidth="10" markerHeight="10" refX="0" refY="5" orient="auto" markerUnits="strokeWidth"><path d="M10,5 L0,0 M10,5 L0,5 M10,5 L0,10" stroke="#0A0F25" stroke-width="2" fill="none"/></marker>
<marker id="arrow-cf-one-required" markerWidth="10" markerHeight="10" refX="10" refY="5" orient="auto" markerUnits="strokeWidth"><line x1="10" y1="0" x2="10" y2="10" stroke="#0A0F25" stroke-width="2"/><line x1="7" y1="0" x2="7" y2="10" stroke="#0A0F25" stroke-width="2"/></marker>
<marker id="arrow-cf-one-required-reverse" markerWidth="10" markerHeight="10" refX="0" refY="5" orient="auto" markerUnits="strokeWidth"><line x1="0" y1="0" x2="0" y2="10" stroke="#0A0F25" stroke-width="2"/><line x1="3" y1="0" x2="3" y2="10" stroke="#0A0F25" stroke-width="2"/></marker>
<marker id="arrow-cf-many-required" markerWidth="10" markerHeight="10" refX="10" refY="5" orient="auto" markerUnits="strokeWidth"><path d="M0,5 L10,0 M0,5 L10,5 M0,5 L10,10" stroke="#0A0F25" stroke-width="2" fill="none"/><line x1="3" y1="0" x2="3" y2="10" stroke="#0A0F25" stroke-width="2"/></marker>
<marker id="arrow-cf-many-required-reverse" markerWidth="10" markerHeight="10" refX="0" refY="5" orient="auto" markerUnits="strokeWidth"><path d="M10,5 L0,0 M10,5 L0,5 M10,5 L0,10" stroke="#0A0F25" stroke-width="2" fill="none"/><line x1="7" y1="0" x2="7" y2="10" stroke="#0A0F25" stroke-width="2"/></marker>
<marker id="arrow-cf-one-optional" markerWidth="10" markerHeight="10" refX="10" refY="5" orient="auto" markerUnits="strokeWidth"><line x1="10" y1="0" x2="10" y2="10" stroke="#0A0F25" stroke-width="2"/><circle cx="7" cy="5" r="2" stroke="#0A0F25" stroke-width="2" fill="white"/></marker>
<marker id="arrow-cf-one-optional-reverse" markerWidth="10" markerHeight="10" refX="0" refY="5" orient="auto" markerUnits="strokeWidth"><line x1="0" y1="0" x2="0" y2="10" stroke="#0A0F25" stroke-width="2"/><circle cx="3" cy="5" r="2" stroke="#0A0F25" stroke-width="2" fill="white"/></marker>
<marker id="arrow-cf-many-optional" markerWidth="10" markerHeight="10" refX="10" refY="5" orient="auto" markerUnits="strokeWidth"><path d="M0,5 L10,0 M0,5 L10,5 M0,5 L10,10" stroke="#0A0F25" stroke-width="2" fill="none"/><circle cx="3" cy="5" r="2" stroke="#0A0F25" stroke-width="2" fill="white"/></marker>
<marker id="arrow-cf-many-optional-reverse" markerWidth="10" markerHeight="10" refX="0" refY="5" orient="auto" markerUnits="strokeWidth"><path d="M10,5 L0,0 M10,5 L0,5 M10,5 L0,10" stroke="#0A0F25" stroke-width="2" fill="none"/><circle cx="7" cy="5" r="2" stroke="#0A0F25" stroke-width="2" fill="white"/></marker>
<marker id="arrow-line" markerWidth="10" markerHeight="10" refX="10" refY="5" orient="auto" markerUnits="strokeWidth"><line x1="10" y1="0" x2="10" y2="10" stroke="#0A0F25" stroke-width="2"/></marker>
<marker id="arrow-line-reverse" markerWidth="10" markerHeight="10" refX="0" refY="5" orient="auto" markerUnits="strokeWidth"><line x1="0" y1="0" x2="0" y2="10" stroke="#0A0F25" stroke-width="2"/></marker>
<marker id="arrow-open" markerWidth="10" markerHeight="10" refX="10" refY="5" orient="auto" markerUnits="strokeWidth"><path d="M0,0 L10,5 L0,10" stroke="#0A0F25" stroke-width="2" fill="none"/></marker>
<marker id="arrow-open-reverse" markerWidth="10" markerHeight="10" refX="0" refY="5" orient="auto" markerUnits="strokeWidth"><path d="M10,0 L0,5 L10,10" stroke="#0A0F25" stroke-width="2" fill="none"/></marker>
<marker id="arrow" markerWidth="10" markerHeight="10" refX="10" refY="5" orient="auto" markerUnits="strokeWidth"><path d="M0,0 L10,5 L0,10 Z" fill="#0A0F25"/></marker>
<marker id="arrow-reverse" markerWidth="10" markerHeight="10" refX="0" refY="5" orient="auto" markerUnits="strokeWidth"><path d="M10,0 L0,5 L10,10 Z" fill="#0A0F25"/></marker>
</defs>
<rect width="100%" height="100%" fill="#FFFFFF"/>
<g id="base-layer">
<rect x="50" y="50" width="440" height="160" fill="#FFFFFF" stroke="#0A0F25" stroke-width="2" rx="0" ry="0"/>
<rect x="50" y="310" width="440" height="160" fill="#FFFFFF" stroke="#0A0F25" stroke-width="2" rx="0" ry="0"/>
<rect x="50" y="570" width="440" height="160" fill="#FFFFFF" stroke="#0A0F25" stroke-width="2" rx="0" ry="0"/>
<rect x="50" y="830" width="440" height="160" fill="#FFFFFF" stroke="#0A0F25" stroke-width="2" rx="0" ry="0"/>
<rect x="100" y="100" width="100" height="60" fill="#FFFFFF" stroke="#0A0F25" stroke-width="2" rx="0" ry="0"/>
<rect x="100" y="360" width="100" height="60" fill="#FFFFFF" stroke="#0A0F25" stroke-width="2" rx="0" ry="0"/>
<rect x="220" y="360" width="100" height="60" fill="#FFFFFF" stroke="#0A0F25" stroke-width="2" rx="0" ry="0"/>
<rect x="340" y="360" width="100" height="60" fill="#FFFFFF" stroke="#0A0F25" stroke-width="2" rx="0" ry="0"/>
<rect x="220" y="100" width="100" height="60" fill="#FFFFFF" stroke="#0A0F25" stroke-width="2" rx="0" ry="0"/>
<rect x="100" y="620" width="100" height="60" fill="#FFFFFF" stroke="#0A0F25" stroke-width="2" rx="0" ry="0"/>
<rect x="220" y="620" width="100" height="60" fill="#FFFFFF" stroke="#0A0F25" stroke-width="2" rx="0" ry="0"/>
<rect x="340" y="620" width="100" height="60" fill="#FFFFFF" stroke="#0A0F25" stroke-width="2" rx="0" ry="0"/>
<rect x="340" y="100" width="100" height="60" fill="#FFFFFF" stroke="#0A0F25" stroke-width="2" rx="0" ry="0"/>
<rect x="100" y="880" width="100" height="60" fill="#FFFFFF" stroke="#0A0F25" stroke-width="2" rx="0" ry="0"/>
<rect x="220" y="880" width="100" height="60" fill="#FFFFFF" stroke="#0A0F25" stroke-width="2" rx="0" ry="0"/>
<rect x="340" y="880" width="100" height="60" fill="#FFFFFF" stroke="#0A0F25" stroke-width="2" rx="0" ry="0"/>
<path d="M 163.92703581925988 100.53528772757218 C 184.81459283614802 106.33738689893 195.2583713445921 109.23843648460891 216.14592836148023 115.04053565596674" fill="none" stroke="#0A0F25" stroke-width="2" marker-end="url(#arrow-triangle)"/>
<path d="M 283.92703581925986 100.53528772757218 C 304.814592836148 106.33738689893 315.2583713445921 109.23843648460891 336.14592836148023 115.04053565596674" fill="none" stroke="#0A0F25" stroke-width="2" marker-end="url(#arrow-triangle)"/>
<path d="M 153.8738852253487 360.4925446064411 C 178.77361005170448 366.81952386559703 191.22347246488235 369.98301349517504 216.12319729123814 376.309992754331" fill="none" stroke="#0A0F25" stroke-width="2" marker-end="url(#arrow-triangle)"/>
<path d="M 273.87388522534866 360.4925446064411 C 298.77361005170445 366.81952386559703 311.2234724648823 369.98301349517504 336.1231972912381 376.309992754331" fill="none" stroke="#0A0F25" stroke-width="2" marker-end="url(#arrow-triangle)"/>
<path d="M 152.99190286598082 620.4891082449598 C 178.24372468996174 626.8579305633974 190.86963560195218 630.0423417226162 216.1214574259331 636.4111640410539" fill="none" stroke="#0A0F25" stroke-width="2" marker-end="url(#arrow-triangle)"/>
<path d="M 272.9919028659808 620.4891082449598 C 298.2437246899617 626.8579305633974 310.8696356019522 630.0423417226162 336.1214574259331 636.4111640410539" fill="none" stroke="#0A0F25" stroke-width="2" marker-end="url(#arrow-triangle)"/>
<path d="M 152.66248311864481 880.4878366631743 C 178.04581662928308 886.8721296370621 190.7374833846022 890.064276124006 216.12081689524047 896.4485690978938" fill="none" stroke="#0A0F25" stroke-width="2" marker-end="url(#arrow-triangle)"/>
<path d="M 272.66248311864484 880.4878366631743 C 298.0458166292831 886.8721296370621 310.7374833846022 890.064276124006 336.12081689524047 896.4485690978938" fill="none" stroke="#0A0F25" stroke-width="2" marker-end="url(#arrow-triangle)"/>
<path d="M 270 212 C 270 249.6 270 268.4 270 306" fill="none" stroke="#0A0F25" stroke-width="2" marker-end="url(#arrow-triangle)"/>
<path d="M 270 472 C 270 509.6 270 528.4 270 566" fill="none" stroke="#0A0F25" stroke-width="2" marker-end="url(#arrow-triangle)"/>
<path d="M 270 732 C 270 769.6 270 788.4 270 826" fill="none" stroke="#0A0F25" stroke-width="2" marker-end="url(#arrow-triangle)"/>
<text x="270" y="37" text-anchor="middle" dominant-baseline="alphabetic" font-family="Arial, sans-serif" font-size="28" style="fill: #0A0F25">Down (default)</text>
<text x="270" y="297" text-anchor="middle" dominant-baseline="alphabetic" font-family="Arial, sans-serif" font-size="28" style="fill: #0A0F25">Right</text>
<text x="270" y="557" text-anchor="middle" dominant-baseline="alphabetic" font-family="Arial, sans-serif" font-size="28" style="fill: #0A0F25">Left</text>
<text x="270" y="817" text-anchor="middle" dominant-baseline="alphabetic" font-family="Arial, sans-serif" font-size="28" style="fill: #0A0F25">Up</text>
<text x="150" y="135.5" text-anchor="middle" dominant-baseline="alphabetic" font-family="Arial, sans-serif" font-size="16" style="fill: #0A0F25; font-weight: 700">a</text>
<text x="150" y="395.5" text-anchor="middle" dominant-baseline="alphabetic" font-family="Arial, sans-serif" font-size="16" style="fill: #0A0F25; font-weight: 700">a</text>
<text x="270" y="395.5" text-anchor="middle" dominant-baseline="alphabetic" font-family="Arial, sans-serif" font-size="16" style="fill: #0A0F25; font-weight: 700">b</text>
<text x="390" y="395.5" text-anchor="middle" dominant-baseline="alphabetic" font-family="Arial, sans-serif" font-size="16" style="fill: #0A0F25; font-weight: 700">c</text>
<text x="270" y="135.5" text-anchor="middle" dominant-baseline="alphabetic" font-family="Arial, sans-serif" font-size="16" style="fill: #0A0F25; font-weight: 700">b</text>
<text x="150" y="655.5" text-anchor="middle" dominant-baseline="alphabetic" font-family="Arial, sans-serif" font-size="16" style="fill: #0A0F25; font-weight: 700">a</text>
<text x="270" y="655.5" text-anchor="middle" dominant-baseline="alphabetic" font-family="Arial, sans-serif" font-size="16" style="fill: #0A0F25; font-weight: 700">b</text>
<text x="390" y="655.5" text-anchor="middle" dominant-baseline="alphabetic" font-family="Arial, sans-serif" font-size="16" style="fill: #0A0F25; font-weight: 700">c</text>
<text x="390" y="135.5" text-anchor="middle" dominant-baseline="alphabetic" font-family="Arial, sans-serif" font-size="16" style="fill: #0A0F25; font-weight: 700">c</text>
<text x="150" y="915.5" text-anchor="middle" dominant-baseline="alphabetic" font-family="Arial, sans-serif" font-size="16" style="fill: #0A0F25; font-weight: 700">a</text>
<text x="270" y="915.5" text-anchor="middle" dominant-baseline="alphabetic" font-family="Arial, sans-serif" font-size="16" style="fill: #0A0F25; font-weight: 700">b</text>
<text x="390" y="915.5" text-anchor="middle" dominant-baseline="alphabetic" font-family="Arial, sans-serif" font-size="16" style="fill: #0A0F25; font-weight: 700">c</text>
</g>
</svg>
