<?xml version="1.0" encoding="UTF-8"?>
<svg xmlns="http://www.w3.org/2000/svg" width="522" height="414" viewBox="-89 -89 522 414" data-d2-version="0.2.0" class="d2-939291046 d2-svg">
<defs><mask id="edge-label-mask" maskUnits="userSpaceOnUse" x="-89" y="-89" width="522" height="414"><rect x="-89" y="-89" width="522" height="414" fill="white"></rect></mask>
<marker id="mk-161592640" markerWidth="10" markerHeight="12" refX="7" refY="6" viewBox="0 0 10 12" orient="auto" markerUnits="userSpaceOnUse"><polygon points="0,0 10,6 0,12" fill="#0D32B2" stroke-width="2"/></marker>
</defs>
<rect x="-89" y="-89" width="522" height="414" rx="0" fill="#FFFFFF" stroke-width="0"/>
<g id="base-layer">
<rect x="63" y="12" width="126" height="66" fill="#F7F8FE" stroke="#0D32B2" stroke-width="2" rx="0" ry="0"/>
<rect x="12" y="158" width="110" height="66" fill="#F7F8FE" stroke="#0D32B2" stroke-width="2" rx="0" ry="0"/>
<rect x="142" y="158" width="88" height="66" fill="#F7F8FE" stroke="#0D32B2" stroke-width="2" rx="0" ry="0"/>
<path d="M 105.5 80 L 105.5 108 S 105.5 118 95.5 118 L 77 118 S 67 118 67 128 L 67 154" fill="none" stroke="#0D32B2" stroke-width="2" marker-end="url(#mk-161592640)" mask="url(#edge-label-mask)"/>
<path d="M 147.5 80 L 147.5 108 S 147.5 118 157.5 118 L 176 118 S 186 118 186 128 L 186 154" fill="none" stroke="#0D32B2" stroke-width="2" marker-end="url(#mk-161592640)" mask="url(#edge-label-mask)"/>
<text x="126" y="50.5" text-anchor="middle" dominant-baseline="alphabetic" font-family="Arial, sans-serif" font-size="16" style="fill: #0A0F25; font-weight: 700">Web Server</text>
<text x="67" y="196.5" text-anchor="middle" dominant-baseline="alphabetic" font-family="Arial, sans-serif" font-size="16" style="fill: #0A0F25; font-weight: 700">Database</text>
<text x="186" y="196.5" text-anchor="middle" dominant-baseline="alphabetic" font-family="Arial, sans-serif" font-size="16" style="fill: #0A0F25; font-weight: 700">Cache</text>
</g>
</svg>
