<?xml version="1.0" encoding="UTF-8"?>
<svg xmlns="http://www.w3.org/2000/svg" width="398" height="812" viewBox="-88 -88 398 812" data-d2-version="0.2.0">
<defs><mask id="edge-label-mask" maskUnits="userSpaceOnUse" x="-88" y="-88" width="398" height="812"><rect x="-88" y="-88" width="398" height="812" fill="white"></rect><rect x="90" y="149" width="55" height="21" fill="black"></rect><rect x="103" y="406" width="43" height="21" fill="black"></rect><rect x="153" y="406" width="49" height="21" fill="black"></rect><rect x="152" y="158" width="64" height="21" fill="black"></rect></mask>
<marker id="mk-161592640" markerWidth="10" markerHeight="12" refX="7" refY="6" viewBox="0 0 10 12" orient="auto" markerUnits="userSpaceOnUse"><polygon points="0,0 10,6 0,12" fill="#0D32B2" stroke-width="2"/></marker>
</defs>
<rect x="-88" y="-88" width="398" height="812" rx="0" fill="#FFFFFF" stroke-width="0"/>
<g id="base-layer">
<rect x="12" y="12" width="75" height="66" fill="#F7F8FE" stroke="#0D32B2" stroke-width="2" rx="0" ry="0"/>
<rect x="107" y="12" width="87" height="66" fill="#F7F8FE" stroke="#0D32B2" stroke-width="2" rx="0" ry="0"/>
<rect x="90" y="259" width="120" height="66" fill="#F7F8FE" stroke="#0D32B2" stroke-width="2" rx="0" ry="0"/>
<path d="M 95 530 C 95 506 144.5 506 150 506 C 155.5 506 205 506 205 530 L 205 600 C 205 624 155.5 624 150 624 C 144.5 624 95 624 95 600 L 95 530 Z" fill="#EDF0FD" stroke="#0D32B2" stroke-width="2"/>
<path d="M 95 530 C 95 554 144.5 554 150 554 C 155.5 554 205 554 205 530" fill="#EDF0FD" stroke="#0D32B2" stroke-width="2"/>
<path d="M 136 80 L 136 108.625 C 136 127.375 117.25 108.625 117.25 127.375 L 117.25 255" fill="none" stroke="#0D32B2" stroke-width="2" marker-end="url(#mk-161592640)" mask="url(#edge-label-mask)"/>
<text x="117.5" y="165" text-anchor="middle" dominant-baseline="alphabetic" font-family="Arial, sans-serif" font-size="16" style="fill: #676C7E; font-style: italic">request</text>
<path d="M 124 327 L 124 504" fill="none" stroke="#0D32B2" stroke-width="2" marker-end="url(#mk-161592640)" mask="url(#edge-label-mask)"/>
<text x="124.5" y="422" text-anchor="middle" dominant-baseline="alphabetic" font-family="Arial, sans-serif" font-size="16" style="fill: #676C7E; font-style: italic">query</text>
<path d="M 177 506 L 177 329" fill="none" stroke="#0D32B2" stroke-width="2" marker-end="url(#mk-161592640)" mask="url(#edge-label-mask)"/>
<text x="177.5" y="422" text-anchor="middle" dominant-baseline="alphabetic" font-family="Arial, sans-serif" font-size="16" style="fill: #676C7E; font-style: italic">results</text>
<path d="M 183.75 257 L 183.75 82" fill="none" stroke="#0D32B2" stroke-width="2" marker-end="url(#mk-161592640)" mask="url(#edge-label-mask)"/>
<text x="184" y="174" text-anchor="middle" dominant-baseline="alphabetic" font-family="Arial, sans-serif" font-size="16" style="fill: #676C7E; font-style: italic">response</text>
<text x="49.5" y="50.5" text-anchor="middle" dominant-baseline="alphabetic" font-family="Arial, sans-serif" font-size="16" style="fill: #0A0F25; font-weight: 700">true</text>
<text x="150.5" y="50.5" text-anchor="middle" dominant-baseline="alphabetic" font-family="Arial, sans-serif" font-size="16" style="fill: #0A0F25; font-weight: 700">Client</text>
<text x="150" y="297.5" text-anchor="middle" dominant-baseline="alphabetic" font-family="Arial, sans-serif" font-size="16" style="fill: #0A0F25; font-weight: 700">API Server</text>
<text x="150" y="582.5" text-anchor="middle" dominant-baseline="alphabetic" font-family="Arial, sans-serif" font-size="16" style="fill: #0A0F25; font-weight: 700">Database</text>
</g>
</svg>
