<?xml version="1.0" encoding="UTF-8"?>
<svg xmlns="http://www.w3.org/2000/svg" width="502" height="318" viewBox="-88 -88 502 318" data-d2-version="0.2.0">
<defs><mask id="edge-label-mask" maskUnits="userSpaceOnUse" x="-88" y="-88" width="502" height="318"><rect x="-88" y="-88" width="502" height="318" fill="white"></rect></mask>
</defs>
<rect x="-88" y="-88" width="502" height="318" rx="0" fill="#FFFFFF" stroke-width="0"/>
<g id="base-layer">
<ellipse cx="66" cy="71" rx="54" ry="54" fill="#F7F8FE" stroke="#0D32B2" stroke-width="2"/>
<path d="M 140 36 C 140 12 189.5 12 195 12 C 200.5 12 250 12 250 36 L 250 106 C 250 130 200.5 130 195 130 C 189.5 130 140 130 140 106 L 140 36 Z" fill="#EDF0FD" stroke="#0D32B2" stroke-width="2"/>
<path d="M 140 36 C 140 60 189.5 60 195 60 C 200.5 60 250 60 250 36" fill="#EDF0FD" stroke="#0D32B2" stroke-width="2"/>
<path d="M 314 91 H 270 v -0.937984496124031 c 0 -11.25581395348837 4.831625183016105 -21.4031007751938 12.433382137628112 -26.26356589147287 C 278.2459736456808 59.87596899224806 275.73352855051246 53.48062015503876 275.73352855051246 46.48837209302326 C 275.73352855051246 34.63565891472868 283.01317715959004 25 291.96778916544656 25 c 8.954612005856516 0 16.234260614934115 9.635658914728682 16.234260614934115 21.488372093023255 c 0 6.992248062015503 -2.4480234260614933 13.302325581395348 -6.699853587115666 17.3953488372093 c 7.601756954612006 4.8604651162790695 12.433382137628112 15.007751937984496 12.433382137628112 26.26356589147287 v 0.8527131782945736 Z" fill="#E3E9FD" stroke="#0D32B2" stroke-width="2"/>
<text x="66" y="76.5" text-anchor="middle" dominant-baseline="alphabetic" font-family="Arial, sans-serif" font-size="16" style="fill: #0A0F25; font-weight: 700">donut</text>
<text x="195" y="88.5" text-anchor="middle" dominant-baseline="alphabetic" font-family="Arial, sans-serif" font-size="16" style="fill: #0A0F25; font-weight: 700">database</text>
<text x="292" y="112" text-anchor="middle" dominant-baseline="alphabetic" font-family="Arial, sans-serif" font-size="16" style="fill: #0A0F25; font-weight: 700">you</text>
</g>
</svg>
