<?xml version="1.0" encoding="UTF-8"?>
<svg xmlns="http://www.w3.org/2000/svg" width="880" height="642" viewBox="-100 -100 880 642" data-d2-version="0.2.0">
<defs><marker id="arrow-triangle" markerWidth="10" markerHeight="10" refX="10" refY="5" orient="auto" markerUnits="strokeWidth"><path d="M0,0 L10,5 L0,10 Z" fill="#0A0F25"/></marker>
<marker id="arrow-triangle-reverse" markerWidth="10" markerHeight="10" refX="0" refY="5" orient="auto" markerUnits="strokeWidth"><path d="M10,0 L0,5 L10,10 Z" fill="#0A0F25"/></marker>
<marker id="arrow-diamond" markerWidth="10" markerHeight="10" refX="10" refY="5" orient="auto" markerUnits="strokeWidth"><path d="M0,5 L5,0 L10,5 L5,10 Z" fill="#0A0F25"/></marker>
<marker id="arrow-diamond-reverse" markerWidth="10" markerHeight="10" refX="0" refY="5" orient="auto" markerUnits="strokeWidth"><path d="M0,5 L5,0 L10,5 L5,10 Z" fill="#0A0F25"/></marker>
<marker id="arrow-circle" markerWidth="10" markerHeight="10" refX="6" refY="5" orient="auto" markerUnits="strokeWidth"><circle cx="5" cy="5" r="4" fill="#0A0F25"/></marker>
<marker id="arrow-circle-reverse" markerWidth="10" markerHeight="10" refX="4" refY="5" orient="auto" markerUnits="strokeWidth"><circle cx="5" cy="5" r="4" fill="#0A0F25"/></marker>
<marker id="arrow-cf-one" markerWidth="10" markerHeight="10" refX="10" refY="5" orient="auto" markerUnits="strokeWidth"><line x1="10" y1="0" x2="10" y2="10" stroke="#0A0F25" stroke-width="2"/></marker>
<marker id="arrow-cf-one-reverse" markerWidth="10" markerHeight="10" refX="0" refY="5" orient="auto" markerUnits="strokeWidth"><line x1="0" y1="0" x2="0" y2="10" stroke="#0A0F25" stroke-width="2"/></marker>
<marker id="arrow-cf-many" markerWidth="10" markerHeight="10" refX="10" refY="5" orient="auto" markerUnits="strokeWidth"><path d="M0,5 L10,0 M0,5 L10,5 M0,5 L10,10" stroke="#0A0F25" stroke-width="2" fill="none"/></marker>
<marker id="arrow-cf-many-reverse" markerWidth="10" markerHeight="10" refX="0" refY="5" orient="auto" markerUnits="strokeWidth"><path d="M10,5 L0,0 M10,5 L0,5 M10,5 L0,10" stroke="#0A0F25" stroke-width="2" fill="none"/></marker>
<marker id="arrow-cf-one-required" markerWidth="10" markerHeight="10" refX="10" refY="5" orient="auto" markerUnits="strokeWidth"><line x1="10" y1="0" x2="10" y2="10" stroke="#0A0F25" stroke-width="2"/><line x1="7" y1="0" x2="7" y2="10" stroke="#0A0F25" stroke-width="2"/></marker>
<marker id="arrow-cf-one-required-reverse" markerWidth="10" markerHeight="10" refX="0" refY="5" orient="auto" markerUnits="strokeWidth"><line x1="0" y1="0" x2="0" y2="10" stroke="#0A0F25" stroke-width="2"/><line x1="3" y1="0" x2="3" y2="10" stroke="#0A0F25" stroke-width="2"/></marker>
<marker id="arrow-cf-many-required" markerWidth="10" markerHeight="10" refX="10" refY="5" orient="auto" markerUnits="strokeWidth"><path d="M0,5 L10,0 M0,5 L10,5 M0,5 L10,10" stroke="#0A0F25" stroke-width="2" fill="none"/><line x1="3" y1="0" x2="3" y2="10" stroke="#0A0F25" stroke-width="2"/></marker>
<marker id="arrow-cf-many-required-reverse" markerWidth="10" markerHeight="10" refX="0" refY="5" orient="auto" markerUnits="strokeWidth"><path d="M10,5 L0,0 M10,5 L0,5 M10,5 L0,10" stroke="#0A0F25" stroke-width="2" fill="none"/><line x1="7" y1="0" x2="7" y2="10" stroke="#0A0F25" stroke-width="2"/></marker>
<marker id="arrow-cf-one-optional" markerWidth="10" markerHeight="10" refX="10" refY="5" orient="auto" markerUnits="strokeWidth"><line x1="10" y1="0" x2="10" y2="10" stroke="#0A0F25" stroke-width="2"/><circle cx="7" cy="5" r="2" stroke="#0A0F25" stroke-width="2" fill="white"/></marker>
<marker id="arrow-cf-one-optional-reverse" markerWidth="10" markerHeight="10" refX="0" refY="5" orient="auto" markerUnits="strokeWidth"><line x1="0" y1="0" x2="0" y2="10" stroke="#0A0F25" stroke-width="2"/><circle cx="3" cy="5" r="2" stroke="#0A0F25" stroke-width="2" fill="white"/></marker>
<marker id="arrow-cf-many-optional" markerWidth="10" markerHeight="10" refX="10" refY="5" orient="auto" markerUnits="strokeWidth"><path d="M0,5 L10,0 M0,5 L10,5 M0,5 L10,10" stroke="#0A0F25" stroke-width="2" fill="none"/><circle cx="3" cy="5" r="2" stroke="#0A0F25" stroke-width="2" fill="white"/></marker>
<marker id="arrow-cf-many-optional-reverse" markerWidth="10" markerHeight="10" refX="0" refY="5" orient="auto" markerUnits="strokeWidth"><path d="M10,5 L0,0 M10,5 L0,5 M10,5 L0,10" stroke="#0A0F25" stroke-width="2" fill="none"/><circle cx="7" cy="5" r="2" stroke="#0A0F25" stroke-width="2" fill="white"/></marker>
<marker id="arrow-line" markerWidth="10" markerHeight="10" refX="10" refY="5" orient="auto" markerUnits="strokeWidth"><line x1="10" y1="0" x2="10" y2="10" stroke="#0A0F25" stroke-width="2"/></marker>
<marker id="arrow-line-reverse" markerWidth="10" markerHeight="10" refX="0" refY="5" orient="auto" markerUnits="strokeWidth"><line x1="0" y1="0" x2="0" y2="10" stroke="#0A0F25" stroke-width="2"/></marker>
<marker id="arrow-open" markerWidth="10" markerHeight="10" refX="10" refY="5" orient="auto" markerUnits="strokeWidth"><path d="M0,0 L10,5 L0,10" stroke="#0A0F25" stroke-width="2" fill="none"/></marker>
<marker id="arrow-open-reverse" markerWidth="10" markerHeight="10" refX="0" refY="5" orient="auto" markerUnits="strokeWidth"><path d="M10,0 L0,5 L10,10" stroke="#0A0F25" stroke-width="2" fill="none"/></marker>
<marker id="arrow" markerWidth="10" markerHeight="10" refX="10" refY="5" orient="auto" markerUnits="strokeWidth"><path d="M0,0 L10,5 L0,10 Z" fill="#0A0F25"/></marker>
<marker id="arrow-reverse" markerWidth="10" markerHeight="10" refX="0" refY="5" orient="auto" markerUnits="strokeWidth"><path d="M10,0 L0,5 L10,10 Z" fill="#0A0F25"/></marker>
</defs>
<rect x="-100" y="-100" width="880" height="642" rx="0" fill="#FFFFFF" stroke="none" stroke-width="0"/>
<g id="base-layer">
<rect x="12" y="12" width="294" height="180" fill="#FFFFFF" stroke="#0A0F25" stroke-width="2"/>
<rect x="12" y="12" width="294" height="36" fill="#0A0F25" stroke="none" stroke-width="0"/>
<line x1="12" y1="48" x2="306" y2="48" stroke="#0A0F25" stroke-width="2"/>
<line x1="12" y1="84" x2="306" y2="84" stroke="#0A0F25" stroke-width="2"/>
<line x1="12" y1="120" x2="306" y2="120" stroke="#0A0F25" stroke-width="2"/>
<line x1="12" y1="156" x2="306" y2="156" stroke="#0A0F25" stroke-width="2"/>
<rect x="386" y="262" width="294" height="180" fill="#FFFFFF" stroke="#0A0F25" stroke-width="2"/>
<rect x="386" y="262" width="294" height="36" fill="#0A0F25" stroke="none" stroke-width="0"/>
<line x1="386" y1="298" x2="680" y2="298" stroke="#0A0F25" stroke-width="2"/>
<line x1="386" y1="334" x2="680" y2="334" stroke="#0A0F25" stroke-width="2"/>
<line x1="386" y1="370" x2="680" y2="370" stroke="#0A0F25" stroke-width="2"/>
<line x1="386" y1="406" x2="680" y2="406" stroke="#0A0F25" stroke-width="2"/>
<path d="M 308 138 L 336 138 S 346 138 346 148 L 346 306 S 346 316 356 316 L 382 316" fill="none" stroke="#0A0F25" stroke-width="2" marker-end="url(#arrow-triangle)"/>
<text x="22" y="37.75" text-anchor="start" font-family="Arial, sans-serif" font-size="24">costumes</text>
<text x="22" y="71" text-anchor="start" font-family="Arial, sans-serif" font-size="20">id</text>
<text x="152" y="71" text-anchor="start" font-family="Arial, sans-serif" font-size="20">int</text>
<text x="296" y="71" text-anchor="end" font-family="Arial, sans-serif" font-size="20">PK</text>
<text x="22" y="107" text-anchor="start" font-family="Arial, sans-serif" font-size="20">silliness</text>
<text x="152" y="107" text-anchor="start" font-family="Arial, sans-serif" font-size="20">int</text>
<text x="22" y="143" text-anchor="start" font-family="Arial, sans-serif" font-size="20">monster</text>
<text x="152" y="143" text-anchor="start" font-family="Arial, sans-serif" font-size="20">int</text>
<text x="22" y="179" text-anchor="start" font-family="Arial, sans-serif" font-size="20">last_updated</text>
<text x="152" y="179" text-anchor="start" font-family="Arial, sans-serif" font-size="20">timestamp</text>
<text x="396" y="287.75" text-anchor="start" font-family="Arial, sans-serif" font-size="24">monsters</text>
<text x="396" y="321" text-anchor="start" font-family="Arial, sans-serif" font-size="20">id</text>
<text x="526" y="321" text-anchor="start" font-family="Arial, sans-serif" font-size="20">int</text>
<text x="670" y="321" text-anchor="end" font-family="Arial, sans-serif" font-size="20">PK</text>
<text x="396" y="357" text-anchor="start" font-family="Arial, sans-serif" font-size="20">movie</text>
<text x="526" y="357" text-anchor="start" font-family="Arial, sans-serif" font-size="20">string</text>
<text x="396" y="393" text-anchor="start" font-family="Arial, sans-serif" font-size="20">weight</text>
<text x="526" y="393" text-anchor="start" font-family="Arial, sans-serif" font-size="20">int</text>
<text x="396" y="429" text-anchor="start" font-family="Arial, sans-serif" font-size="20">last_updated</text>
<text x="526" y="429" text-anchor="start" font-family="Arial, sans-serif" font-size="20">timestamp</text>
</g>
</svg>
