<?xml version="1.0" encoding="UTF-8"?>
<svg xmlns="http://www.w3.org/2000/svg" width="626" height="767" viewBox="-89 -89 626 767" data-d2-version="0.2.0" class="d2-1397033394 d2-svg">
<defs><mask id="edge-label-mask" maskUnits="userSpaceOnUse" x="-89" y="-89" width="626" height="767"><rect x="-89" y="-89" width="626" height="767" fill="white"></rect><rect x="30" y="171" width="43" height="21" fill="black"></rect><rect x="30" y="420" width="43" height="21" fill="black"></rect><rect x="233" y="171" width="205" height="21" fill="black"></rect></mask>
<marker id="mk-161592640" markerWidth="10" markerHeight="12" refX="7" refY="6" viewBox="0 0 10 12" orient="auto" markerUnits="userSpaceOnUse"><polygon points="0,0 10,6 0,12" fill="#0D32B2" stroke-width="2"/></marker>
<marker id="mk-2090524415" markerWidth="10" markerHeight="12" refX="3" refY="6" viewBox="0 0 10 12" orient="auto" markerUnits="userSpaceOnUse"><polygon points="10,0 0,6 10,12" fill="#0D32B2" stroke-width="2"/></marker>
<marker id="mk-1734378072" markerWidth="24.200000000000003" markerHeight="18" refX="20.8" refY="9" viewBox="0 0 24.200000000000003 18" orient="auto" markerUnits="userSpaceOnUse"><polygon points="0,9 11,2.25 22,9 11,16.2" fill="#FFFFFF" stroke="#0D32B2" stroke-width="2"/></marker>
</defs>
<rect x="-89" y="-89" width="626" height="767" rx="0" fill="#FFFFFF" stroke-width="0"/>
<g id="base-layer">
<rect x="12" y="12" width="79" height="66" fill="#F7F8FE" stroke="#0D32B2" stroke-width="2" rx="0" ry="0"/>
<rect x="14" y="284" width="75" height="66" fill="#F7F8FE" stroke="#0D32B2" stroke-width="2" rx="0" ry="0"/>
<rect x="12" y="511" width="78" height="66" fill="#F7F8FE" stroke="#0D32B2" stroke-width="2" rx="0" ry="0"/>
<rect x="111" y="12" width="104" height="66" fill="#F7F8FE" stroke="#0D32B2" stroke-width="2" rx="0" ry="0"/>
<rect x="111" y="148" width="104" height="66" fill="#F7F8FE" stroke="#0D32B2" stroke-width="2" rx="0" ry="0"/>
<rect x="309" y="12" width="53" height="66" fill="#F7F8FE" stroke="#0D32B2" stroke-width="2" rx="0" ry="0"/>
<rect x="309" y="284" width="53" height="66" fill="#F7F8FE" stroke="#0D32B2" stroke-width="2" rx="0" ry="0"/>
<path d="M 51.5 80 L 51.5 280" fill="none" stroke="#0D32B2" stroke-width="2" marker-end="url(#mk-161592640)" mask="url(#edge-label-mask)"/>
<text x="51.5" y="187" text-anchor="middle" dominant-baseline="alphabetic" font-family="Arial, sans-serif" font-size="16" style="fill: #676C7E; font-style: italic">chase</text>
<path d="M 51.5 352 L 51.5 507" fill="none" stroke="#0D32B2" stroke-width="2" marker-end="url(#mk-161592640)" mask="url(#edge-label-mask)"/>
<text x="51.5" y="436" text-anchor="middle" dominant-baseline="alphabetic" font-family="Arial, sans-serif" font-size="16" style="fill: #676C7E; font-style: italic">chase</text>
<path d="M 163 82 L 163 144" fill="none" stroke="#0D32B2" stroke-width="2" marker-start="url(#mk-2090524415)" marker-end="url(#mk-161592640)" mask="url(#edge-label-mask)"/>
<path d="M 335.5 80 L 335.5 280" fill="none" stroke="#0D32B2" stroke-width="2" marker-end="url(#mk-1734378072)" mask="url(#edge-label-mask)"/>
<text x="335.5" y="187" text-anchor="middle" dominant-baseline="alphabetic" font-family="Arial, sans-serif" font-size="16" style="fill: #676C7E; font-style: italic">To err is human, to moo bovine</text>
<text x="345" y="99" text-anchor="middle" dominant-baseline="alphabetic" font-family="Arial, sans-serif" font-size="16" style="fill: #0A0F25; font-style: italic">1</text>
<text x="349" y="274" text-anchor="middle" dominant-baseline="alphabetic" font-family="Arial, sans-serif" font-size="16" style="fill: #0A0F25; font-style: italic">*</text>
<text x="51.5" y="50.5" text-anchor="middle" dominant-baseline="alphabetic" font-family="Arial, sans-serif" font-size="16" style="fill: #0A0F25; font-weight: 700">dogs</text>
<text x="51.5" y="322.5" text-anchor="middle" dominant-baseline="alphabetic" font-family="Arial, sans-serif" font-size="16" style="fill: #0A0F25; font-weight: 700">cats</text>
<text x="51" y="549.5" text-anchor="middle" dominant-baseline="alphabetic" font-family="Arial, sans-serif" font-size="16" style="fill: #0A0F25; font-weight: 700">mice</text>
<text x="163" y="50.5" text-anchor="middle" dominant-baseline="alphabetic" font-family="Arial, sans-serif" font-size="16" style="fill: #0A0F25; font-weight: 700">replica 1</text>
<text x="163" y="186.5" text-anchor="middle" dominant-baseline="alphabetic" font-family="Arial, sans-serif" font-size="16" style="fill: #0A0F25; font-weight: 700">replica 2</text>
<text x="335.5" y="50.5" text-anchor="middle" dominant-baseline="alphabetic" font-family="Arial, sans-serif" font-size="16" style="fill: #0A0F25; font-weight: 700">a</text>
<text x="335.5" y="322.5" text-anchor="middle" dominant-baseline="alphabetic" font-family="Arial, sans-serif" font-size="16" style="fill: #0A0F25; font-weight: 700">b</text>
</g>
</svg>
