<?xml version="1.0" encoding="UTF-8"?>
<svg xmlns="http://www.w3.org/2000/svg" width="328" height="414" viewBox="-89 -89 328 414" data-d2-version="0.2.0" class="d2-490520228 d2-svg">
<defs><mask id="edge-label-mask" maskUnits="userSpaceOnUse" x="-89" y="-89" width="328" height="414"><rect x="-89" y="-89" width="328" height="414" fill="white"></rect></mask>
<marker id="mk-161592640" markerWidth="10" markerHeight="12" refX="7" refY="6" viewBox="0 0 10 12" orient="auto" markerUnits="userSpaceOnUse"><polygon points="0,0 10,6 0,12" fill="#0D32B2" stroke-width="2"/></marker>
</defs>
<rect x="-89" y="-89" width="328" height="414" rx="0" fill="#FFFFFF" stroke-width="0"/>
<g id="base-layer">
<rect x="35" y="12" width="80" height="66" fill="yellow" stroke="#0D32B2" stroke-width="2" rx="0" ry="0"/>
<rect x="12" y="158" width="54" height="66" fill="yellow" stroke="#0D32B2" stroke-width="2" rx="0" ry="0"/>
<rect x="86" y="158" width="52" height="66" fill="yellow" stroke="#0D32B2" stroke-width="2" rx="0" ry="0"/>
<path d="M 62.16666666666666 80 L 62.16666666666666 108 S 62.16666666666666 118 52.16666666666666 118 L 49 118 S 39 118 39 128 L 39 154" fill="none" stroke="#0D32B2" stroke-width="2" marker-end="url(#mk-161592640)" mask="url(#edge-label-mask)"/>
<path d="M 88.83333333333333 80 L 88.83333333333333 108 S 88.83333333333333 118 98.83333333333333 118 L 102 118 S 112 118 112 128 L 112 154" fill="none" stroke="#0D32B2" stroke-width="2" marker-end="url(#mk-161592640)" mask="url(#edge-label-mask)"/>
<text x="75" y="50.5" text-anchor="middle" dominant-baseline="alphabetic" font-family="Arial, sans-serif" font-size="16" style="fill: #0A0F25; font-weight: 700">x</text>
<text x="39" y="196.5" text-anchor="middle" dominant-baseline="alphabetic" font-family="Arial, sans-serif" font-size="16" style="fill: #0A0F25; font-weight: 700">y</text>
<text x="112" y="196.5" text-anchor="middle" dominant-baseline="alphabetic" font-family="Arial, sans-serif" font-size="16" style="fill: #0A0F25; font-weight: 700">z</text>
</g>
</svg>
