<?xml version="1.0" encoding="UTF-8"?>
<svg xmlns="http://www.w3.org/2000/svg" width="765" height="266" viewBox="-88 -88 765 266" data-d2-version="0.2.0">
<defs><marker id="arrow-triangle" markerWidth="10" markerHeight="10" refX="10" refY="5" orient="auto" markerUnits="strokeWidth"><path d="M0,0 L10,5 L0,10 Z" fill="#0A0F25"/></marker>
<marker id="arrow-triangle-reverse" markerWidth="10" markerHeight="10" refX="0" refY="5" orient="auto" markerUnits="strokeWidth"><path d="M10,0 L0,5 L10,10 Z" fill="#0A0F25"/></marker>
<marker id="arrow-diamond" markerWidth="10" markerHeight="10" refX="10" refY="5" orient="auto" markerUnits="strokeWidth"><path d="M0,5 L5,0 L10,5 L5,10 Z" fill="#0A0F25"/></marker>
<marker id="arrow-diamond-reverse" markerWidth="10" markerHeight="10" refX="0" refY="5" orient="auto" markerUnits="strokeWidth"><path d="M0,5 L5,0 L10,5 L5,10 Z" fill="#0A0F25"/></marker>
<marker id="arrow-circle" markerWidth="10" markerHeight="10" refX="6" refY="5" orient="auto" markerUnits="strokeWidth"><circle cx="5" cy="5" r="4" fill="#0A0F25"/></marker>
<marker id="arrow-circle-reverse" markerWidth="10" markerHeight="10" refX="4" refY="5" orient="auto" markerUnits="strokeWidth"><circle cx="5" cy="5" r="4" fill="#0A0F25"/></marker>
<marker id="arrow-cf-one" markerWidth="10" markerHeight="10" refX="10" refY="5" orient="auto" markerUnits="strokeWidth"><line x1="10" y1="0" x2="10" y2="10" stroke="#0A0F25" stroke-width="2"/></marker>
<marker id="arrow-cf-one-reverse" markerWidth="10" markerHeight="10" refX="0" refY="5" orient="auto" markerUnits="strokeWidth"><line x1="0" y1="0" x2="0" y2="10" stroke="#0A0F25" stroke-width="2"/></marker>
<marker id="arrow-cf-many" markerWidth="10" markerHeight="10" refX="10" refY="5" orient="auto" markerUnits="strokeWidth"><path d="M0,5 L10,0 M0,5 L10,5 M0,5 L10,10" stroke="#0A0F25" stroke-width="2" fill="none"/></marker>
<marker id="arrow-cf-many-reverse" markerWidth="10" markerHeight="10" refX="0" refY="5" orient="auto" markerUnits="strokeWidth"><path d="M10,5 L0,0 M10,5 L0,5 M10,5 L0,10" stroke="#0A0F25" stroke-width="2" fill="none"/></marker>
<marker id="arrow-cf-one-required" markerWidth="10" markerHeight="10" refX="10" refY="5" orient="auto" markerUnits="strokeWidth"><line x1="10" y1="0" x2="10" y2="10" stroke="#0A0F25" stroke-width="2"/><line x1="7" y1="0" x2="7" y2="10" stroke="#0A0F25" stroke-width="2"/></marker>
<marker id="arrow-cf-one-required-reverse" markerWidth="10" markerHeight="10" refX="0" refY="5" orient="auto" markerUnits="strokeWidth"><line x1="0" y1="0" x2="0" y2="10" stroke="#0A0F25" stroke-width="2"/><line x1="3" y1="0" x2="3" y2="10" stroke="#0A0F25" stroke-width="2"/></marker>
<marker id="arrow-cf-many-required" markerWidth="10" markerHeight="10" refX="10" refY="5" orient="auto" markerUnits="strokeWidth"><path d="M0,5 L10,0 M0,5 L10,5 M0,5 L10,10" stroke="#0A0F25" stroke-width="2" fill="none"/><line x1="3" y1="0" x2="3" y2="10" stroke="#0A0F25" stroke-width="2"/></marker>
<marker id="arrow-cf-many-required-reverse" markerWidth="10" markerHeight="10" refX="0" refY="5" orient="auto" markerUnits="strokeWidth"><path d="M10,5 L0,0 M10,5 L0,5 M10,5 L0,10" stroke="#0A0F25" stroke-width="2" fill="none"/><line x1="7" y1="0" x2="7" y2="10" stroke="#0A0F25" stroke-width="2"/></marker>
<marker id="arrow-cf-one-optional" markerWidth="10" markerHeight="10" refX="10" refY="5" orient="auto" markerUnits="strokeWidth"><line x1="10" y1="0" x2="10" y2="10" stroke="#0A0F25" stroke-width="2"/><circle cx="7" cy="5" r="2" stroke="#0A0F25" stroke-width="2" fill="white"/></marker>
<marker id="arrow-cf-one-optional-reverse" markerWidth="10" markerHeight="10" refX="0" refY="5" orient="auto" markerUnits="strokeWidth"><line x1="0" y1="0" x2="0" y2="10" stroke="#0A0F25" stroke-width="2"/><circle cx="3" cy="5" r="2" stroke="#0A0F25" stroke-width="2" fill="white"/></marker>
<marker id="arrow-cf-many-optional" markerWidth="10" markerHeight="10" refX="10" refY="5" orient="auto" markerUnits="strokeWidth"><path d="M0,5 L10,0 M0,5 L10,5 M0,5 L10,10" stroke="#0A0F25" stroke-width="2" fill="none"/><circle cx="3" cy="5" r="2" stroke="#0A0F25" stroke-width="2" fill="white"/></marker>
<marker id="arrow-cf-many-optional-reverse" markerWidth="10" markerHeight="10" refX="0" refY="5" orient="auto" markerUnits="strokeWidth"><path d="M10,5 L0,0 M10,5 L0,5 M10,5 L0,10" stroke="#0A0F25" stroke-width="2" fill="none"/><circle cx="7" cy="5" r="2" stroke="#0A0F25" stroke-width="2" fill="white"/></marker>
<marker id="arrow-line" markerWidth="10" markerHeight="10" refX="10" refY="5" orient="auto" markerUnits="strokeWidth"><line x1="10" y1="0" x2="10" y2="10" stroke="#0A0F25" stroke-width="2"/></marker>
<marker id="arrow-line-reverse" markerWidth="10" markerHeight="10" refX="0" refY="5" orient="auto" markerUnits="strokeWidth"><line x1="0" y1="0" x2="0" y2="10" stroke="#0A0F25" stroke-width="2"/></marker>
<marker id="arrow-open" markerWidth="10" markerHeight="10" refX="10" refY="5" orient="auto" markerUnits="strokeWidth"><path d="M0,0 L10,5 L0,10" stroke="#0A0F25" stroke-width="2" fill="none"/></marker>
<marker id="arrow-open-reverse" markerWidth="10" markerHeight="10" refX="0" refY="5" orient="auto" markerUnits="strokeWidth"><path d="M10,0 L0,5 L10,10" stroke="#0A0F25" stroke-width="2" fill="none"/></marker>
<marker id="arrow" markerWidth="10" markerHeight="10" refX="10" refY="5" orient="auto" markerUnits="strokeWidth"><path d="M0,0 L10,5 L0,10 Z" fill="#0A0F25"/></marker>
<marker id="arrow-reverse" markerWidth="10" markerHeight="10" refX="0" refY="5" orient="auto" markerUnits="strokeWidth"><path d="M10,0 L0,5 L10,10 Z" fill="#0A0F25"/></marker>
</defs>
<rect x="-88" y="-88" width="765" height="266" rx="0" fill="#FFFFFF" stroke="none" stroke-width="0"/>
<g id="base-layer">
<rect x="12" y="12" width="53" height="66" fill="#FFFFFF" stroke="#0A0F25" stroke-width="2" rx="0" ry="0"/>
<rect x="268" y="12" width="54" height="66" fill="#FFFFFF" stroke="#0A0F25" stroke-width="2" rx="0" ry="0"/>
<rect x="525" y="12" width="52" height="66" fill="#FFFFFF" stroke="#0A0F25" stroke-width="2" rx="0" ry="0"/>
<path d="M 67 45 L 264 45" fill="none" stroke="#0A0F25" stroke-width="2" marker-end="url(#arrow-triangle)"/>
<rect x="135" y="35" width="63" height="21" fill="#FFFFFF" stroke="none" stroke-width="1" rx="3" ry="3"/>
<text x="166.5" y="51" text-anchor="middle" dominant-baseline="alphabetic" font-family="Arial, sans-serif" font-size="16" style="fill: #676C7E; font-style: italic">onwards!</text>
<path d="M 324 45 L 521 45" fill="none" stroke="#0A0F25" stroke-width="2" marker-end="url(#arrow-triangle)"/>
<rect x="392" y="35" width="63" height="21" fill="#FFFFFF" stroke="none" stroke-width="1" rx="3" ry="3"/>
<text x="423.5" y="51" text-anchor="middle" dominant-baseline="alphabetic" font-family="Arial, sans-serif" font-size="16" style="fill: #676C7E; font-style: italic">onwards!</text>
<text x="38.5" y="50.5" text-anchor="middle" dominant-baseline="alphabetic" font-family="Arial, sans-serif" font-size="16" style="fill: #0A0F25; font-weight: 700">x</text>
<text x="295" y="50.5" text-anchor="middle" dominant-baseline="alphabetic" font-family="Arial, sans-serif" font-size="16" style="fill: #0A0F25; font-weight: 700">y</text>
<text x="551" y="50.5" text-anchor="middle" dominant-baseline="alphabetic" font-family="Arial, sans-serif" font-size="16" style="fill: #0A0F25; font-weight: 700">z</text>
</g>
</svg>
