<?xml version="1.0" encoding="UTF-8"?>
<svg xmlns="http://www.w3.org/2000/svg" width="263" height="419" viewBox="-89 -89 263 419" data-d2-version="0.2.0" class="d2-1928972951 d2-svg">
<defs><mask id="edge-label-mask" maskUnits="userSpaceOnUse" x="-89" y="-89" width="263" height="419"><rect x="-89" y="-89" width="263" height="419" fill="white"></rect></mask>
<mask id="border-mask-1446229049" maskUnits="userSpaceOnUse" x="12" y="148" width="69" height="81"><rect x="12" y="148" width="69" height="81" fill="white"></rect><path d="M 12 163 L 27 148 L 81 148 L 81 214 L 66 229 L 12 229 L 12 163 L 66 163 L 66 229 M 66 163 L 81 148" style="stroke-width:2;stroke:#000;fill:none;opacity:1;"/></mask>
<marker id="mk-499373415" markerWidth="10" markerHeight="12" refX="7" refY="6" viewBox="0 0 10 12" orient="auto" markerUnits="userSpaceOnUse"><polygon points="0,0 10,6 0,12" fill="green" stroke-width="2"/></marker>
</defs>
<rect x="-89" y="-89" width="263" height="419" rx="0" fill="#FFFFFF" stroke-width="0"/>
<g id="base-layer">
<rect x="20" y="12" width="53" height="66" fill="#F7F8FE" stroke="#53C0D8" stroke-width="5" rx="0" ry="0"/>
<rect x="12" y="163" width="54" height="66" mask="url(#border-mask-1446229049)" stroke="none" fill="red" stroke-width="2"/>
<polygon mask="url(#border-mask-1446229049)" points="12,163 27,148 81,148 81,214 66,229 66,163" fill="#cc0000" stroke="none" stroke-width="2"/>
<path d="M 12 163 L 27 148 L 81 148 L 81 214 L 66 229 L 12 229 L 12 163 L 66 163 L 66 229 M 66 163 L 81 148" fill="none" stroke="black" stroke-width="2"/>
<path d="M 46.5 81.5 L 46.5 144" fill="none" stroke="green" stroke-width="2" marker-end="url(#mk-499373415)" mask="url(#edge-label-mask)" stroke-dasharray="10.000000,9.865639"/>
<text x="46.5" y="50.5" text-anchor="middle" dominant-baseline="alphabetic" font-family="Arial, sans-serif" font-size="16" style="fill: #0A0F25; font-weight: 700">x</text>
<text x="39" y="201.5" text-anchor="middle" dominant-baseline="alphabetic" font-family="Arial, sans-serif" font-size="16" style="fill: #0A0F25; font-weight: 700">y</text>
</g>
</svg>
