<?xml version="1.0" encoding="UTF-8"?>
<svg xmlns="http://www.w3.org/2000/svg" width="767" height="268" viewBox="-89 -89 767 268" data-d2-version="0.2.0" class="d2-1880035207 d2-svg">
<defs><mask id="edge-label-mask" maskUnits="userSpaceOnUse" x="-89" y="-89" width="767" height="268"><rect x="-89" y="-89" width="767" height="268" fill="white"></rect><rect x="133" y="35" width="67" height="21" fill="black"></rect><rect x="390" y="35" width="67" height="21" fill="black"></rect></mask>
<marker id="mk-161592640" markerWidth="10" markerHeight="12" refX="7" refY="6" viewBox="0 0 10 12" orient="auto" markerUnits="userSpaceOnUse"><polygon points="0,0 10,6 0,12" fill="#0D32B2" stroke-width="2"/></marker>
</defs>
<rect x="-89" y="-89" width="767" height="268" rx="0" fill="#FFFFFF" stroke-width="0"/>
<g id="base-layer">
<rect x="12" y="12" width="53" height="66" fill="#F7F8FE" stroke="#0D32B2" stroke-width="2" rx="0" ry="0"/>
<rect x="268" y="12" width="54" height="66" fill="#F7F8FE" stroke="#0D32B2" stroke-width="2" rx="0" ry="0"/>
<rect x="525" y="12" width="52" height="66" fill="#F7F8FE" stroke="#0D32B2" stroke-width="2" rx="0" ry="0"/>
<path d="M 67 45 L 264 45" fill="none" stroke="#0D32B2" stroke-width="2" marker-end="url(#mk-161592640)" mask="url(#edge-label-mask)"/>
<text x="166.5" y="51" text-anchor="middle" dominant-baseline="alphabetic" font-family="Arial, sans-serif" font-size="16" style="fill: #676C7E; font-style: italic">onwards!</text>
<path d="M 324 45 L 521 45" fill="none" stroke="#0D32B2" stroke-width="2" marker-end="url(#mk-161592640)" mask="url(#edge-label-mask)"/>
<text x="423.5" y="51" text-anchor="middle" dominant-baseline="alphabetic" font-family="Arial, sans-serif" font-size="16" style="fill: #676C7E; font-style: italic">onwards!</text>
<text x="38.5" y="50.5" text-anchor="middle" dominant-baseline="alphabetic" font-family="Arial, sans-serif" font-size="16" style="fill: #0A0F25; font-weight: 700">x</text>
<text x="295" y="50.5" text-anchor="middle" dominant-baseline="alphabetic" font-family="Arial, sans-serif" font-size="16" style="fill: #0A0F25; font-weight: 700">y</text>
<text x="551" y="50.5" text-anchor="middle" dominant-baseline="alphabetic" font-family="Arial, sans-serif" font-size="16" style="fill: #0A0F25; font-weight: 700">z</text>
</g>
</svg>
