<?xml version="1.0" encoding="UTF-8"?>
<svg xmlns="http://www.w3.org/2000/svg" width="880" height="642" viewBox="-100 -100 880 642" data-d2-version="0.2.0">
<defs><mask id="edge-label-mask" maskUnits="userSpaceOnUse" x="-100" y="-100" width="880" height="642"><rect x="-100" y="-100" width="880" height="642" fill="white"></rect></mask>
<marker id="mk-161592640" markerWidth="10" markerHeight="12" refX="7" refY="6" viewBox="0 0 10 12" orient="auto" markerUnits="userSpaceOnUse"><polygon points="0,0 10,6 0,12" fill="#0D32B2" stroke-width="2"/></marker>
</defs>
<rect x="-100" y="-100" width="880" height="642" rx="0" fill="#FFFFFF" stroke-width="0"/>
<g id="base-layer">
<rect x="12" y="12" width="294" height="180" fill="#FFFFFF" stroke="#0A0F25" stroke-width="2"/>
<rect x="12" y="12" width="294" height="36" fill="#0A0F25"/>
<line x1="12" y1="48" x2="306" y2="48" stroke="#0A0F25" stroke-width="2"/>
<line x1="12" y1="84" x2="306" y2="84" stroke="#0A0F25" stroke-width="2"/>
<line x1="12" y1="120" x2="306" y2="120" stroke="#0A0F25" stroke-width="2"/>
<line x1="12" y1="156" x2="306" y2="156" stroke="#0A0F25" stroke-width="2"/>
<rect x="386" y="262" width="294" height="180" fill="#FFFFFF" stroke="#0A0F25" stroke-width="2"/>
<rect x="386" y="262" width="294" height="36" fill="#0A0F25"/>
<line x1="386" y1="298" x2="680" y2="298" stroke="#0A0F25" stroke-width="2"/>
<line x1="386" y1="334" x2="680" y2="334" stroke="#0A0F25" stroke-width="2"/>
<line x1="386" y1="370" x2="680" y2="370" stroke="#0A0F25" stroke-width="2"/>
<line x1="386" y1="406" x2="680" y2="406" stroke="#0A0F25" stroke-width="2"/>
<path d="M 308 138 L 336 138 S 346 138 346 148 L 346 306 S 346 316 356 316 L 382 316" fill="none" stroke="#0D32B2" stroke-width="2" marker-end="url(#mk-161592640)" mask="url(#edge-label-mask)"/>
<text x="22" y="37.75" text-anchor="start" font-family="Arial, sans-serif" font-size="24" fill="#FFFFFF">costumes</text>
<text x="22" y="71" text-anchor="start" font-family="Arial, sans-serif" font-size="20" fill="#0D32B2">id</text>
<text x="152" y="71" text-anchor="start" font-family="Arial, sans-serif" font-size="20" fill="#676C7E">int</text>
<text x="296" y="71" text-anchor="end" font-family="Arial, sans-serif" font-size="20" fill="#4A6FF3">PK</text>
<text x="22" y="107" text-anchor="start" font-family="Arial, sans-serif" font-size="20" fill="#0D32B2">silliness</text>
<text x="152" y="107" text-anchor="start" font-family="Arial, sans-serif" font-size="20" fill="#676C7E">int</text>
<text x="22" y="143" text-anchor="start" font-family="Arial, sans-serif" font-size="20" fill="#0D32B2">monster</text>
<text x="152" y="143" text-anchor="start" font-family="Arial, sans-serif" font-size="20" fill="#676C7E">int</text>
<text x="22" y="179" text-anchor="start" font-family="Arial, sans-serif" font-size="20" fill="#0D32B2">last_updated</text>
<text x="152" y="179" text-anchor="start" font-family="Arial, sans-serif" font-size="20" fill="#676C7E">timestamp</text>
<text x="396" y="287.75" text-anchor="start" font-family="Arial, sans-serif" font-size="24" fill="#FFFFFF">monsters</text>
<text x="396" y="321" text-anchor="start" font-family="Arial, sans-serif" font-size="20" fill="#0D32B2">id</text>
<text x="526" y="321" text-anchor="start" font-family="Arial, sans-serif" font-size="20" fill="#676C7E">int</text>
<text x="670" y="321" text-anchor="end" font-family="Arial, sans-serif" font-size="20" fill="#4A6FF3">PK</text>
<text x="396" y="357" text-anchor="start" font-family="Arial, sans-serif" font-size="20" fill="#0D32B2">movie</text>
<text x="526" y="357" text-anchor="start" font-family="Arial, sans-serif" font-size="20" fill="#676C7E">string</text>
<text x="396" y="393" text-anchor="start" font-family="Arial, sans-serif" font-size="20" fill="#0D32B2">weight</text>
<text x="526" y="393" text-anchor="start" font-family="Arial, sans-serif" font-size="20" fill="#676C7E">int</text>
<text x="396" y="429" text-anchor="start" font-family="Arial, sans-serif" font-size="20" fill="#0D32B2">last_updated</text>
<text x="526" y="429" text-anchor="start" font-family="Arial, sans-serif" font-size="20" fill="#676C7E">timestamp</text>
</g>
</svg>
