<?xml version="1.0" encoding="UTF-8"?>
<svg xmlns="http://www.w3.org/2000/svg" width="323" height="2820" viewBox="-50 -50 323 2820" data-d2-version="0.1.0">
<defs><marker id="arrow-triangle" markerWidth="10" markerHeight="10" refX="10" refY="5" orient="auto" markerUnits="strokeWidth"><path d="M0,0 L10,5 L0,10 Z" fill="#0A0F25"/></marker>
<marker id="arrow-triangle-reverse" markerWidth="10" markerHeight="10" refX="0" refY="5" orient="auto" markerUnits="strokeWidth"><path d="M10,0 L0,5 L10,10 Z" fill="#0A0F25"/></marker>
<marker id="arrow-diamond" markerWidth="10" markerHeight="10" refX="10" refY="5" orient="auto" markerUnits="strokeWidth"><path d="M0,5 L5,0 L10,5 L5,10 Z" fill="#0A0F25"/></marker>
<marker id="arrow-diamond-reverse" markerWidth="10" markerHeight="10" refX="0" refY="5" orient="auto" markerUnits="strokeWidth"><path d="M0,5 L5,0 L10,5 L5,10 Z" fill="#0A0F25"/></marker>
<marker id="arrow-circle" markerWidth="10" markerHeight="10" refX="6" refY="5" orient="auto" markerUnits="strokeWidth"><circle cx="5" cy="5" r="4" fill="#0A0F25"/></marker>
<marker id="arrow-circle-reverse" markerWidth="10" markerHeight="10" refX="4" refY="5" orient="auto" markerUnits="strokeWidth"><circle cx="5" cy="5" r="4" fill="#0A0F25"/></marker>
<marker id="arrow-cf-one" markerWidth="10" markerHeight="10" refX="10" refY="5" orient="auto" markerUnits="strokeWidth"><line x1="10" y1="0" x2="10" y2="10" stroke="#0A0F25" stroke-width="2"/></marker>
<marker id="arrow-cf-one-reverse" markerWidth="10" markerHeight="10" refX="0" refY="5" orient="auto" markerUnits="strokeWidth"><line x1="0" y1="0" x2="0" y2="10" stroke="#0A0F25" stroke-width="2"/></marker>
<marker id="arrow-cf-many" markerWidth="10" markerHeight="10" refX="10" refY="5" orient="auto" markerUnits="strokeWidth"><path d="M0,5 L10,0 M0,5 L10,5 M0,5 L10,10" stroke="#0A0F25" stroke-width="2" fill="none"/></marker>
<marker id="arrow-cf-many-reverse" markerWidth="10" markerHeight="10" refX="0" refY="5" orient="auto" markerUnits="strokeWidth"><path d="M10,5 L0,0 M10,5 L0,5 M10,5 L0,10" stroke="#0A0F25" stroke-width="2" fill="none"/></marker>
<marker id="arrow-cf-one-required" markerWidth="10" markerHeight="10" refX="10" refY="5" orient="auto" markerUnits="strokeWidth"><line x1="10" y1="0" x2="10" y2="10" stroke="#0A0F25" stroke-width="2"/><line x1="7" y1="0" x2="7" y2="10" stroke="#0A0F25" stroke-width="2"/></marker>
<marker id="arrow-cf-one-required-reverse" markerWidth="10" markerHeight="10" refX="0" refY="5" orient="auto" markerUnits="strokeWidth"><line x1="0" y1="0" x2="0" y2="10" stroke="#0A0F25" stroke-width="2"/><line x1="3" y1="0" x2="3" y2="10" stroke="#0A0F25" stroke-width="2"/></marker>
<marker id="arrow-cf-many-required" markerWidth="10" markerHeight="10" refX="10" refY="5" orient="auto" markerUnits="strokeWidth"><path d="M0,5 L10,0 M0,5 L10,5 M0,5 L10,10" stroke="#0A0F25" stroke-width="2" fill="none"/><line x1="3" y1="0" x2="3" y2="10" stroke="#0A0F25" stroke-width="2"/></marker>
<marker id="arrow-cf-many-required-reverse" markerWidth="10" markerHeight="10" refX="0" refY="5" orient="auto" markerUnits="strokeWidth"><path d="M10,5 L0,0 M10,5 L0,5 M10,5 L0,10" stroke="#0A0F25" stroke-width="2" fill="none"/><line x1="7" y1="0" x2="7" y2="10" stroke="#0A0F25" stroke-width="2"/></marker>
<marker id="arrow-cf-one-optional" markerWidth="10" markerHeight="10" refX="10" refY="5" orient="auto" markerUnits="strokeWidth"><line x1="10" y1="0" x2="10" y2="10" stroke="#0A0F25" stroke-width="2"/><circle cx="7" cy="5" r="2" stroke="#0A0F25" stroke-width="2" fill="white"/></marker>
<marker id="arrow-cf-one-optional-reverse" markerWidth="10" markerHeight="10" refX="0" refY="5" orient="auto" markerUnits="strokeWidth"><line x1="0" y1="0" x2="0" y2="10" stroke="#0A0F25" stroke-width="2"/><circle cx="3" cy="5" r="2" stroke="#0A0F25" stroke-width="2" fill="white"/></marker>
<marker id="arrow-cf-many-optional" markerWidth="10" markerHeight="10" refX="10" refY="5" orient="auto" markerUnits="strokeWidth"><path d="M0,5 L10,0 M0,5 L10,5 M0,5 L10,10" stroke="#0A0F25" stroke-width="2" fill="none"/><circle cx="3" cy="5" r="2" stroke="#0A0F25" stroke-width="2" fill="white"/></marker>
<marker id="arrow-cf-many-optional-reverse" markerWidth="10" markerHeight="10" refX="0" refY="5" orient="auto" markerUnits="strokeWidth"><path d="M10,5 L0,0 M10,5 L0,5 M10,5 L0,10" stroke="#0A0F25" stroke-width="2" fill="none"/><circle cx="7" cy="5" r="2" stroke="#0A0F25" stroke-width="2" fill="white"/></marker>
<marker id="arrow-line" markerWidth="10" markerHeight="10" refX="10" refY="5" orient="auto" markerUnits="strokeWidth"><line x1="10" y1="0" x2="10" y2="10" stroke="#0A0F25" stroke-width="2"/></marker>
<marker id="arrow-line-reverse" markerWidth="10" markerHeight="10" refX="0" refY="5" orient="auto" markerUnits="strokeWidth"><line x1="0" y1="0" x2="0" y2="10" stroke="#0A0F25" stroke-width="2"/></marker>
<marker id="arrow-open" markerWidth="10" markerHeight="10" refX="10" refY="5" orient="auto" markerUnits="strokeWidth"><path d="M0,0 L10,5 L0,10" stroke="#0A0F25" stroke-width="2" fill="none"/></marker>
<marker id="arrow-open-reverse" markerWidth="10" markerHeight="10" refX="0" refY="5" orient="auto" markerUnits="strokeWidth"><path d="M10,0 L0,5 L10,10" stroke="#0A0F25" stroke-width="2" fill="none"/></marker>
<marker id="arrow" markerWidth="10" markerHeight="10" refX="10" refY="5" orient="auto" markerUnits="strokeWidth"><path d="M0,0 L10,5 L0,10 Z" fill="#0A0F25"/></marker>
<marker id="arrow-reverse" markerWidth="10" markerHeight="10" refX="0" refY="5" orient="auto" markerUnits="strokeWidth"><path d="M10,0 L0,5 L10,10 Z" fill="#0A0F25"/></marker>
</defs>
<rect width="100%" height="100%" fill="#FFFFFF"/>
<g id="base-layer">
<rect x="50" y="50" width="100" height="60" fill="#FFFFFF" stroke="#0A0F25" stroke-width="2" rx="0" ry="0"/>
<rect x="50" y="210" width="100" height="60" fill="#FFFFFF" stroke="#0A0F25" stroke-width="2" rx="0" ry="0"/>
<path d="M 50 370 L 130 370 L 150 390 L 150 430 L 50 430 Z" fill="#FFFFFF" stroke="#0A0F25" stroke-width="2"/>
<path d="M 130 370 L 130 390 L 150 390" fill="none" stroke="#0A0F25" stroke-width="2"/>
<polygon points="76,530 173,530 147,590 50,590" fill="#FFFFFF" stroke="#0A0F25" stroke-width="2"/>
<path d="M 50 741.6776750330251 L 50 690 L 150 690 L 150 741.6776750330251 C 133.33333333333334 730.5812417437253 116.66666666666666 730.5812417437253 100 741.6776750330251 C 83.33333333333333 752.774108322325 66.66666666666666 752.774108322325 50 741.6776750330251 Z" fill="#FFFFFF" stroke="#0A0F25" stroke-width="2"/>
<path d="M 50 874 C 50 850 95 850 100 850 C 105 850 150 850 150 874 L 150 886 C 150 910 105 910 100 910 C 95 910 50 910 50 886 L 50 874 Z" fill="#FFFFFF" stroke="#0A0F25" stroke-width="2"/>
<ellipse cx="100" cy="874" rx="50" ry="24" fill="none" stroke="none" stroke-width="0"/>
<path d="M 50 874 C 50 898 95 898 100 898 C 105 898 150 898 150 874" fill="none" stroke="#0A0F25" stroke-width="2"/>
<path d="M 65 1010 L 135 1010 C 143.25 1010 150 1025 150 1040 C 150 1055 143.25 1070 135 1070 L 65 1070 C 56.75 1070 50 1055 50 1040 C 50 1025 56.75 1010 65 1010 Z" fill="#FFFFFF" stroke="#0A0F25" stroke-width="2"/>
<path d="M 50 1170 L 100 1170 L 100 1182 L 150 1182 L 150 1230 L 50 1230 Z" fill="#FFFFFF" stroke="#0A0F25" stroke-width="2"/>
<polygon points="50,1330 115,1330 150,1360 115,1390 50,1390 85,1360" fill="#FFFFFF" stroke="#0A0F25" stroke-width="2"/>
<path d="M 50 1490 L 50 1520 L 100 1520 L 100 1550 L 130 1520 L 150 1520 L 150 1490 L 50 1490 Z" fill="#FFFFFF" stroke="#0A0F25" stroke-width="2"/>
<path d="M 65 1650 L 145 1650 C 155.95 1650 160 1665 160 1680 C 160 1695 155.95 1710 145 1710 L 65 1710 C 54.05 1710 50 1695 50 1680 C 50 1665 54.05 1650 65 1650 Z" fill="#FFFFFF" stroke="#0A0F25" stroke-width="2"/>
<path d="M 150 1870 H 50 v -0.8527131782945736 c 0 -10.232558139534882 10.980966325036604 -19.45736434108527 28.25768667642753 -23.875968992248062 C 68.74084919472914 1841.7054263565892 63.0307467057101 1835.891472868217 63.0307467057101 1829.5348837209303 C 63.0307467057101 1818.7596899224807 79.57540263543191 1810 99.9267935578331 1810 c 20.351390922401173 0 36.896046852122986 8.75968992248062 36.896046852122986 19.53488372093023 c 0 6.356589147286821 -5.563689604685212 12.093023255813952 -15.226939970717424 15.813953488372091 c 17.276720351390924 4.4186046511627906 28.25768667642753 13.643410852713178 28.25768667642753 23.875968992248062 v 0.7751937984496123 Z" fill="#FFFFFF" stroke="#0A0F25" stroke-width="2"/>
<polygon points="100,1970 150,2000 100,2030 50,2000" fill="#FFFFFF" stroke="#0A0F25" stroke-width="2"/>
<ellipse cx="100" cy="2160" rx="50" ry="30" fill="#FFFFFF" stroke="#0A0F25" stroke-width="2"/>
<ellipse cx="100" cy="2320" rx="50" ry="30" fill="#FFFFFF" stroke="#0A0F25" stroke-width="2"/>
<polygon points="75,2450 125,2450 150,2480 125,2510 75,2510 50,2480" fill="#FFFFFF" stroke="#0A0F25" stroke-width="2"/>
<path d="M 66.52673860911271 2630.975105162524 C 66.52673860911271 2631.6125047801147 65.860551558753 2632.2497896749524 65.19448441247003 2632.2497896749524 C 56.70131894484413 2633.0464244741875 50.039928057553965 2641.1726959847038 50.039928057553965 2651.051586998088 C 50.039928057553965 2661.5678776290633 57.53393285371703 2670.0127342256214 67.0263788968825 2670.0127342256214 H 131.47482014388493 C 141.6334532374101 2670.0127342256214 149.96007194244606 2660.930478011472 149.96007194244606 2649.9362523900572 C 149.96007194244606 2639.419961759082 142.29940047961634 2630.6564053537286 132.6406474820144 2630.019120458891 C 131.97446043165468 2630.019120458891 131.30839328537172 2629.5410707456977 131.14184652278178 2628.7444359464625 C 128.97685851318946 2618.068910133843 118.9847721822542 2610.1019885277246 107.32757793764988 2610.1019885277246 C 99.66702637889688 2610.1019885277246 92.83908872901678 2613.4481070745696 88.5093525179856 2618.7061950286807 C 88.00971223021583 2619.3435946462714 87.17709832134292 2619.5029445506693 86.67745803357313 2619.3435946462714 C 85.01211031175059 2618.7061950286807 83.18033573141486 2618.3876099426384 81.18189448441245 2618.3876099426384 C 73.52122302158273 2618.2281453154874 67.19292565947242 2623.804933078394 66.52673860911271 2630.975105162524 Z" fill="#FFFFFF" stroke="#0A0F25" stroke-width="2"/>
<path d="M 100 112 C 100 149.6 100 168.4 100 206" fill="none" stroke="#0A0F25" stroke-width="2" marker-end="url(#arrow-triangle)"/>
<path d="M 100 272 C 100 309.6 100 328.4 100 366" fill="none" stroke="#0A0F25" stroke-width="2" marker-end="url(#arrow-triangle)"/>
<path d="M 108.71037317067196 591.9953855788207 C 106.15141649012595 629.6009228842358 104.87193814985297 648.4036915369434 102.31298146930696 686.0092288423585" fill="none" stroke="#0A0F25" stroke-width="2" marker-end="url(#arrow-triangle)"/>
<path d="M 100 752 C 100 789.6 100 808.4 100 846" fill="none" stroke="#0A0F25" stroke-width="2" marker-end="url(#arrow-triangle)"/>
<path d="M 100 1072 C 100 1109.6 100 1128.4 100 1166" fill="none" stroke="#0A0F25" stroke-width="2" marker-end="url(#arrow-triangle)"/>
<path d="M 100 1232 C 100 1269.6 100 1288.4 100 1326" fill="none" stroke="#0A0F25" stroke-width="2" marker-end="url(#arrow-triangle)"/>
<path d="M 101.21299187144166 1551.9991252547277 C 102.32544896298978 1589.6001749490545 102.88167750876386 1608.4006997962179 103.99413460031198 1646.0017494905446" fill="none" stroke="#0A0F25" stroke-width="2" marker-end="url(#arrow-triangle)"/>
<path d="M 103.78700812855834 1711.9991252547277 C 102.67455103701022 1749.6001749490545 102.11832249123614 1768.4006997962179 101.00586539968802 1806.0017494905446" fill="none" stroke="#0A0F25" stroke-width="2" marker-end="url(#arrow-triangle)"/>
<path d="M 100 2032 C 100 2069.6 100 2088.4 100 2126" fill="none" stroke="#0A0F25" stroke-width="2" marker-end="url(#arrow-triangle)"/>
<path d="M 100 2192 C 100 2229.6 100 2248.4 100 2286" fill="none" stroke="#0A0F25" stroke-width="2" marker-end="url(#arrow-triangle)"/>
<path d="M 100 2512 C 100 2549.6 100 2568.4 100 2606" fill="none" stroke="#0A0F25" stroke-width="2" marker-end="url(#arrow-triangle)"/>
<text x="100" y="85.5" text-anchor="middle" dominant-baseline="alphabetic" font-family="Arial, sans-serif" font-size="16" style="fill: #0A0F25; font-weight: 700">rectangle</text>
<text x="100" y="245.5" text-anchor="middle" dominant-baseline="alphabetic" font-family="Arial, sans-serif" font-size="16" style="fill: #0A0F25; font-weight: 700">square</text>
<text x="100" y="405.5" text-anchor="middle" dominant-baseline="alphabetic" font-family="Arial, sans-serif" font-size="16" style="fill: #0A0F25; font-weight: 700">page</text>
<text x="111.5" y="565.5" text-anchor="middle" dominant-baseline="alphabetic" font-family="Arial, sans-serif" font-size="16" style="fill: #0A0F25; font-weight: 700">parallelogram</text>
<text x="100" y="717.6928665785997" text-anchor="middle" dominant-baseline="alphabetic" font-family="Arial, sans-serif" font-size="16" style="fill: #0A0F25; font-weight: 700">document</text>
<text x="100" y="885.5" text-anchor="middle" dominant-baseline="alphabetic" font-family="Arial, sans-serif" font-size="16" style="fill: #0A0F25; font-weight: 700">cylinder</text>
<text x="88" y="1045.5" text-anchor="middle" dominant-baseline="alphabetic" font-family="Arial, sans-serif" font-size="16" style="fill: #0A0F25; font-weight: 700">queue</text>
<text x="100" y="1211.5" text-anchor="middle" dominant-baseline="alphabetic" font-family="Arial, sans-serif" font-size="16" style="fill: #0A0F25; font-weight: 700">package</text>
<text x="100" y="1365.5" text-anchor="middle" dominant-baseline="alphabetic" font-family="Arial, sans-serif" font-size="16" style="fill: #0A0F25; font-weight: 700">step</text>
<text x="100" y="1510.5" text-anchor="middle" dominant-baseline="alphabetic" font-family="Arial, sans-serif" font-size="16" style="fill: #0A0F25; font-weight: 700">callout</text>
<text x="105" y="1685.5" text-anchor="middle" dominant-baseline="alphabetic" font-family="Arial, sans-serif" font-size="16" style="fill: #0A0F25; font-weight: 700">stored_data</text>
<text x="100" y="1891" text-anchor="middle" dominant-baseline="alphabetic" font-family="Arial, sans-serif" font-size="16" style="fill: #0A0F25; font-weight: 700">person</text>
<text x="100" y="2005.5" text-anchor="middle" dominant-baseline="alphabetic" font-family="Arial, sans-serif" font-size="16" style="fill: #0A0F25; font-weight: 700">diamond</text>
<text x="100" y="2165.5" text-anchor="middle" dominant-baseline="alphabetic" font-family="Arial, sans-serif" font-size="16" style="fill: #0A0F25; font-weight: 700">oval</text>
<text x="100" y="2325.5" text-anchor="middle" dominant-baseline="alphabetic" font-family="Arial, sans-serif" font-size="16" style="fill: #0A0F25; font-weight: 700">circle</text>
<text x="100" y="2485.5" text-anchor="middle" dominant-baseline="alphabetic" font-family="Arial, sans-serif" font-size="16" style="fill: #0A0F25; font-weight: 700">hexagon</text>
<text x="99.94999999999999" y="2656.94" text-anchor="middle" dominant-baseline="alphabetic" font-family="Arial, sans-serif" font-size="16" style="fill: #0A0F25; font-weight: 700">cloud</text>
</g>
</svg>
