<?xml version="1.0" encoding="UTF-8"?>
<svg xmlns="http://www.w3.org/2000/svg" width="1138" height="646" viewBox="-89 -89 1138 646" data-d2-version="0.2.0" class="d2-174037647 d2-svg">
<defs><mask id="edge-label-mask" maskUnits="userSpaceOnUse" x="-89" y="-89" width="1138" height="646"><rect x="-89" y="-89" width="1138" height="646" fill="white"></rect></mask>
<marker id="mk-161592640" markerWidth="10" markerHeight="12" refX="7" refY="6" viewBox="0 0 10 12" orient="auto" markerUnits="userSpaceOnUse"><polygon points="0,0 10,6 0,12" fill="#0D32B2" stroke-width="2"/></marker>
</defs>
<rect x="-89" y="-89" width="1138" height="646" rx="0" fill="#FFFFFF" stroke-width="0"/>
<g id="base-layer">
<rect x="12" y="38" width="111" height="66" fill="#F7F8FE" stroke="#0D32B2" stroke-width="2" rx="0" ry="0"/>
<rect x="20" y="174" width="94" height="94" fill="#F7F8FE" stroke="#0D32B2" stroke-width="2" rx="0" ry="0"/>
<path d="M 28 338 L 87 338 L 107 358 L 107 425 L 28 425 Z" fill="#EDF0FD" stroke="#0D32B2" stroke-width="2"/>
<path d="M 107 425 L 28 425 L 28 338 L 87 338 L 87 358 L 107 358 L 107 425 Z" fill="#EDF0FD" stroke="#0D32B2" stroke-width="2"/>
<path d="M 169 38 L 339 38 L 313 104 L 143 104 Z" fill="#DEE1EB" stroke="#0D32B2" stroke-width="2"/>
<path d="M 182 248.45838837516513 L 182 183 L 299 183 L 299 248.45838837516513 C 279.5 234.40290620871863 260 234.40290620871863 240.5 248.45838837516513 C 221 262.5138705416116 201.5 262.5138705416116 182 248.45838837516513 Z" fill="#EDF0FD" stroke="#0D32B2" stroke-width="2"/>
<path d="M 189 362 C 189 338 235.8 338 241 338 C 246.2 338 293 338 293 362 L 293 432 C 293 456 246.2 456 241 456 C 235.8 456 189 456 189 432 L 189 362 Z" fill="#EDF0FD" stroke="#0D32B2" stroke-width="2"/>
<path d="M 189 362 C 189 386 235.8 386 241 386 C 246.2 386 293 386 293 362" fill="#EDF0FD" stroke="#0D32B2" stroke-width="2"/>
<path d="M 383 38 L 476 38 C 500 38 500 67.7 500 71 C 500 74.3 500 104 476 104 L 383 104 C 369.8 104 359 74.3 359 71 C 359 67.7 369.8 38 383 38 Z" fill="#DEE1EB" stroke="#0D32B2" stroke-width="2"/>
<path d="M 476 38 C 452 38 452 67.7 452 71 C 452 74.3 452 104 476 104" fill="#DEE1EB" stroke="#0D32B2" stroke-width="2"/>
<path d="M 378 184 L 429.5 184 L 429.5 198.6 L 481 198.6 L 481 257 L 378 257 Z" fill="#EDF0FD" stroke="#0D32B2" stroke-width="2"/>
<path d="M 371 338 L 452 338 L 487 388.5 L 452 439 L 371 439 L 406 388.5 Z" fill="#EDF0FD" stroke="#0D32B2" stroke-width="2"/>
<path d="M 529 13 L 529 59 L 577 59 L 577 104 L 607 59 L 624 59 L 624 13 L 529 13 Z" fill="#FFFFFF" stroke="#0D32B2" stroke-width="2"/>
<path d="M 516 188 L 637 188 C 647.95 188 652 204.5 652 221 C 652 237.5 647.95 254 637 254 L 516 254 C 505.05 254 501 237.5 501 221 C 501 204.5 505.05 188 516 188 Z" fill="#EDF0FD" stroke="#0D32B2" stroke-width="2"/>
<path d="M 608 404 H 545 v -0.937984496124031 c 0 -11.25581395348837 6.91800878477306 -21.4031007751938 17.80234260614934 -26.26356589147287 C 556.8067349926794 372.8759689922481 553.2093704245974 366.48062015503876 553.2093704245974 359.48837209302326 C 553.2093704245974 347.6356589147287 563.6325036603221 338 576.4538799414348 338 c 12.82137628111274 0 23.244509516837482 9.635658914728682 23.244509516837482 21.488372093023255 c 0 6.992248062015503 -3.505124450951684 13.302325581395348 -9.592972181551978 17.3953488372093 c 10.884333821376282 4.8604651162790695 17.80234260614934 15.007751937984496 17.80234260614934 26.26356589147287 v 0.8527131782945736 Z" fill="#E3E9FD" stroke="#0D32B2" stroke-width="2"/>
<path d="M 722 104 C 721.3922077922077 104 720.987012987013 103.88036410923276 720.5818181818181 103.64109232769829 L 644.6077922077922 58.89726918075422 C 643.7974025974027 58.4187256176853 643.7974025974027 57.700910273081924 644.6077922077922 57.222366710013 L 720.5818181818181 12.35890767230169 C 721.3922077922077 11.88036410923277 722.6077922077922 11.88036410923277 723.4181818181818 12.35890767230169 L 799.3922077922077 57.222366710013 C 800.2025974025973 57.700910273081924 800.2025974025973 58.4187256176853 799.3922077922077 58.89726918075422 L 723.4181818181818 103.64109232769829 C 723.012987012987 103.88036410923276 722.6077922077922 104 722 104 Z" fill="#CFD2DD" stroke="#0D32B2" stroke-width="2"/>
<ellipse cx="721.5" cy="221" rx="48.5" ry="35" fill="#F7F8FE" stroke="#0D32B2" stroke-width="2"/>
<ellipse cx="721.5" cy="389.5" rx="51.5" ry="51.5" fill="#F7F8FE" stroke="#0D32B2" stroke-width="2"/>
<path d="M 852 35 L 916 35 L 948 69.5 L 916 104 L 852 104 L 820 69.5 Z" fill="#DEE1EB" stroke="#0D32B2" stroke-width="2"/>
<path d="M 849.1878081534772 203.36514722753347 C 849.1878081534772 204.25750669216063 848.4949736211031 205.14970554493308 847.8022637889688 205.14970554493308 C 838.9693717026379 206.26499426386235 832.0415251798561 217.6417743785851 832.0415251798561 231.47222179732313 C 832.0415251798561 246.19502868068832 839.8352901678657 258.01782791587 849.7074340527578 258.01782791587 H 916.7338129496403 C 927.2987913669065 258.01782791587 935.9584748201439 245.3026692160612 935.9584748201439 229.9107533460803 C 935.9584748201439 215.1879464627151 927.991376498801 202.91896749521987 917.946273381295 202.02676864244742 C 917.2534388489208 202.02676864244742 916.5607290167866 201.35749904397707 916.3875203836931 200.2422103250478 C 914.135932853717 185.2964741873805 903.7441630695444 174.14278393881455 891.620681055156 174.14278393881455 C 883.6537074340529 174.14278393881455 876.5526522781776 178.82734990439772 872.0497266187051 186.188673040153 C 871.5301007194246 187.08103250478015 870.6641822541967 187.30412237093694 870.1445563549162 187.08103250478015 C 868.4125947242208 186.188673040153 866.5075491606716 185.7426539196941 864.429170263789 185.7426539196941 C 856.4620719424461 185.51940344168258 849.8806426858513 193.32690630975142 849.1878081534772 203.36514722753347 Z" fill="#FFFFFF" stroke="#0D32B2" stroke-width="2"/>
<path d="M 67.5 106 L 67.5 170" fill="none" stroke="#0D32B2" stroke-width="2" marker-end="url(#mk-161592640)" mask="url(#edge-label-mask)"/>
<path d="M 67.5 270 L 67.5 334" fill="none" stroke="#0D32B2" stroke-width="2" marker-end="url(#mk-161592640)" mask="url(#edge-label-mask)"/>
<path d="M 241 106 L 241 179" fill="none" stroke="#0D32B2" stroke-width="2" marker-end="url(#mk-161592640)" mask="url(#edge-label-mask)"/>
<path d="M 241 250 L 241 334" fill="none" stroke="#0D32B2" stroke-width="2" marker-end="url(#mk-161592640)" mask="url(#edge-label-mask)"/>
<path d="M 429.5 106 L 429.5 181" fill="none" stroke="#0D32B2" stroke-width="2" marker-end="url(#mk-161592640)" mask="url(#edge-label-mask)"/>
<path d="M 429.5 259.5 L 429.5 334.5" fill="none" stroke="#0D32B2" stroke-width="2" marker-end="url(#mk-161592640)" mask="url(#edge-label-mask)"/>
<path d="M 576.5 61 L 576.5 184" fill="none" stroke="#0D32B2" stroke-width="2" marker-end="url(#mk-161592640)" mask="url(#edge-label-mask)"/>
<path d="M 576.5 256 L 576.5 334" fill="none" stroke="#0D32B2" stroke-width="2" marker-end="url(#mk-161592640)" mask="url(#edge-label-mask)"/>
<path d="M 722 106 L 722 182" fill="none" stroke="#0D32B2" stroke-width="2" marker-end="url(#mk-161592640)" mask="url(#edge-label-mask)"/>
<path d="M 722 258 L 722 334" fill="none" stroke="#0D32B2" stroke-width="2" marker-end="url(#mk-161592640)" mask="url(#edge-label-mask)"/>
<path d="M 884 106 L 884 170" fill="none" stroke="#0D32B2" stroke-width="2" marker-end="url(#mk-161592640)" mask="url(#edge-label-mask)"/>
<text x="67.5" y="76.5" text-anchor="middle" dominant-baseline="alphabetic" font-family="Arial, sans-serif" font-size="16" style="fill: #0A0F25; font-weight: 700">rectangle</text>
<text x="67" y="226.5" text-anchor="middle" dominant-baseline="alphabetic" font-family="Arial, sans-serif" font-size="16" style="fill: #0A0F25; font-weight: 700">square</text>
<text x="67.5" y="387" text-anchor="middle" dominant-baseline="alphabetic" font-family="Arial, sans-serif" font-size="16" style="fill: #0A0F25; font-weight: 700">page</text>
<text x="241" y="76.5" text-anchor="middle" dominant-baseline="alphabetic" font-family="Arial, sans-serif" font-size="16" style="fill: #0A0F25; font-weight: 700">parallelogram</text>
<text x="240.5" y="216.610964332893" text-anchor="middle" dominant-baseline="alphabetic" font-family="Arial, sans-serif" font-size="16" style="fill: #0A0F25; font-weight: 700">document</text>
<text x="241" y="414.5" text-anchor="middle" dominant-baseline="alphabetic" font-family="Arial, sans-serif" font-size="16" style="fill: #0A0F25; font-weight: 700">cylinder</text>
<text x="417.5" y="76.5" text-anchor="middle" dominant-baseline="alphabetic" font-family="Arial, sans-serif" font-size="16" style="fill: #0A0F25; font-weight: 700">queue</text>
<text x="429.5" y="233.29999999999998" text-anchor="middle" dominant-baseline="alphabetic" font-family="Arial, sans-serif" font-size="16" style="fill: #0A0F25; font-weight: 700">package</text>
<text x="429" y="394" text-anchor="middle" dominant-baseline="alphabetic" font-family="Arial, sans-serif" font-size="16" style="fill: #0A0F25; font-weight: 700">step</text>
<text x="576.5" y="41.5" text-anchor="middle" dominant-baseline="alphabetic" font-family="Arial, sans-serif" font-size="16" style="fill: #0A0F25; font-weight: 700">callout</text>
<text x="576.5" y="226.5" text-anchor="middle" dominant-baseline="alphabetic" font-family="Arial, sans-serif" font-size="16" style="fill: #0A0F25; font-weight: 700">stored_data</text>
<text x="576.5" y="425" text-anchor="middle" dominant-baseline="alphabetic" font-family="Arial, sans-serif" font-size="16" style="fill: #0A0F25; font-weight: 700">person</text>
<text x="722" y="63.5" text-anchor="middle" dominant-baseline="alphabetic" font-family="Arial, sans-serif" font-size="16" style="fill: #0A0F25; font-weight: 700">diamond</text>
<text x="721.5" y="226.5" text-anchor="middle" dominant-baseline="alphabetic" font-family="Arial, sans-serif" font-size="16" style="fill: #0A0F25; font-weight: 700">oval</text>
<text x="721.5" y="395" text-anchor="middle" dominant-baseline="alphabetic" font-family="Arial, sans-serif" font-size="16" style="fill: #0A0F25; font-weight: 700">circle</text>
<text x="884" y="75" text-anchor="middle" dominant-baseline="alphabetic" font-family="Arial, sans-serif" font-size="16" style="fill: #0A0F25; font-weight: 700">hexagon</text>
<text x="883.588" y="237.516" text-anchor="middle" dominant-baseline="alphabetic" font-family="Arial, sans-serif" font-size="16" style="fill: #0A0F25; font-weight: 700">cloud</text>
</g>
</svg>
