<?xml version="1.0" encoding="UTF-8"?>
<svg xmlns="http://www.w3.org/2000/svg" width="1136" height="644" viewBox="-88 -88 1136 644" data-d2-version="0.2.0">
<defs><marker id="arrow-triangle" markerWidth="10" markerHeight="10" refX="10" refY="5" orient="auto" markerUnits="strokeWidth"><path d="M0,0 L10,5 L0,10 Z" fill="#0A0F25"/></marker>
<marker id="arrow-triangle-reverse" markerWidth="10" markerHeight="10" refX="0" refY="5" orient="auto" markerUnits="strokeWidth"><path d="M10,0 L0,5 L10,10 Z" fill="#0A0F25"/></marker>
<marker id="arrow-diamond" markerWidth="10" markerHeight="10" refX="10" refY="5" orient="auto" markerUnits="strokeWidth"><path d="M0,5 L5,0 L10,5 L5,10 Z" fill="#0A0F25"/></marker>
<marker id="arrow-diamond-reverse" markerWidth="10" markerHeight="10" refX="0" refY="5" orient="auto" markerUnits="strokeWidth"><path d="M0,5 L5,0 L10,5 L5,10 Z" fill="#0A0F25"/></marker>
<marker id="arrow-circle" markerWidth="10" markerHeight="10" refX="6" refY="5" orient="auto" markerUnits="strokeWidth"><circle cx="5" cy="5" r="4" fill="#0A0F25"/></marker>
<marker id="arrow-circle-reverse" markerWidth="10" markerHeight="10" refX="4" refY="5" orient="auto" markerUnits="strokeWidth"><circle cx="5" cy="5" r="4" fill="#0A0F25"/></marker>
<marker id="arrow-cf-one" markerWidth="10" markerHeight="10" refX="10" refY="5" orient="auto" markerUnits="strokeWidth"><line x1="10" y1="0" x2="10" y2="10" stroke="#0A0F25" stroke-width="2"/></marker>
<marker id="arrow-cf-one-reverse" markerWidth="10" markerHeight="10" refX="0" refY="5" orient="auto" markerUnits="strokeWidth"><line x1="0" y1="0" x2="0" y2="10" stroke="#0A0F25" stroke-width="2"/></marker>
<marker id="arrow-cf-many" markerWidth="10" markerHeight="10" refX="10" refY="5" orient="auto" markerUnits="strokeWidth"><path d="M0,5 L10,0 M0,5 L10,5 M0,5 L10,10" stroke="#0A0F25" stroke-width="2" fill="none"/></marker>
<marker id="arrow-cf-many-reverse" markerWidth="10" markerHeight="10" refX="0" refY="5" orient="auto" markerUnits="strokeWidth"><path d="M10,5 L0,0 M10,5 L0,5 M10,5 L0,10" stroke="#0A0F25" stroke-width="2" fill="none"/></marker>
<marker id="arrow-cf-one-required" markerWidth="10" markerHeight="10" refX="10" refY="5" orient="auto" markerUnits="strokeWidth"><line x1="10" y1="0" x2="10" y2="10" stroke="#0A0F25" stroke-width="2"/><line x1="7" y1="0" x2="7" y2="10" stroke="#0A0F25" stroke-width="2"/></marker>
<marker id="arrow-cf-one-required-reverse" markerWidth="10" markerHeight="10" refX="0" refY="5" orient="auto" markerUnits="strokeWidth"><line x1="0" y1="0" x2="0" y2="10" stroke="#0A0F25" stroke-width="2"/><line x1="3" y1="0" x2="3" y2="10" stroke="#0A0F25" stroke-width="2"/></marker>
<marker id="arrow-cf-many-required" markerWidth="10" markerHeight="10" refX="10" refY="5" orient="auto" markerUnits="strokeWidth"><path d="M0,5 L10,0 M0,5 L10,5 M0,5 L10,10" stroke="#0A0F25" stroke-width="2" fill="none"/><line x1="3" y1="0" x2="3" y2="10" stroke="#0A0F25" stroke-width="2"/></marker>
<marker id="arrow-cf-many-required-reverse" markerWidth="10" markerHeight="10" refX="0" refY="5" orient="auto" markerUnits="strokeWidth"><path d="M10,5 L0,0 M10,5 L0,5 M10,5 L0,10" stroke="#0A0F25" stroke-width="2" fill="none"/><line x1="7" y1="0" x2="7" y2="10" stroke="#0A0F25" stroke-width="2"/></marker>
<marker id="arrow-cf-one-optional" markerWidth="10" markerHeight="10" refX="10" refY="5" orient="auto" markerUnits="strokeWidth"><line x1="10" y1="0" x2="10" y2="10" stroke="#0A0F25" stroke-width="2"/><circle cx="7" cy="5" r="2" stroke="#0A0F25" stroke-width="2" fill="white"/></marker>
<marker id="arrow-cf-one-optional-reverse" markerWidth="10" markerHeight="10" refX="0" refY="5" orient="auto" markerUnits="strokeWidth"><line x1="0" y1="0" x2="0" y2="10" stroke="#0A0F25" stroke-width="2"/><circle cx="3" cy="5" r="2" stroke="#0A0F25" stroke-width="2" fill="white"/></marker>
<marker id="arrow-cf-many-optional" markerWidth="10" markerHeight="10" refX="10" refY="5" orient="auto" markerUnits="strokeWidth"><path d="M0,5 L10,0 M0,5 L10,5 M0,5 L10,10" stroke="#0A0F25" stroke-width="2" fill="none"/><circle cx="3" cy="5" r="2" stroke="#0A0F25" stroke-width="2" fill="white"/></marker>
<marker id="arrow-cf-many-optional-reverse" markerWidth="10" markerHeight="10" refX="0" refY="5" orient="auto" markerUnits="strokeWidth"><path d="M10,5 L0,0 M10,5 L0,5 M10,5 L0,10" stroke="#0A0F25" stroke-width="2" fill="none"/><circle cx="7" cy="5" r="2" stroke="#0A0F25" stroke-width="2" fill="white"/></marker>
<marker id="arrow-line" markerWidth="10" markerHeight="10" refX="10" refY="5" orient="auto" markerUnits="strokeWidth"><line x1="10" y1="0" x2="10" y2="10" stroke="#0A0F25" stroke-width="2"/></marker>
<marker id="arrow-line-reverse" markerWidth="10" markerHeight="10" refX="0" refY="5" orient="auto" markerUnits="strokeWidth"><line x1="0" y1="0" x2="0" y2="10" stroke="#0A0F25" stroke-width="2"/></marker>
<marker id="arrow-open" markerWidth="10" markerHeight="10" refX="10" refY="5" orient="auto" markerUnits="strokeWidth"><path d="M0,0 L10,5 L0,10" stroke="#0A0F25" stroke-width="2" fill="none"/></marker>
<marker id="arrow-open-reverse" markerWidth="10" markerHeight="10" refX="0" refY="5" orient="auto" markerUnits="strokeWidth"><path d="M10,0 L0,5 L10,10" stroke="#0A0F25" stroke-width="2" fill="none"/></marker>
<marker id="arrow" markerWidth="10" markerHeight="10" refX="10" refY="5" orient="auto" markerUnits="strokeWidth"><path d="M0,0 L10,5 L0,10 Z" fill="#0A0F25"/></marker>
<marker id="arrow-reverse" markerWidth="10" markerHeight="10" refX="0" refY="5" orient="auto" markerUnits="strokeWidth"><path d="M10,0 L0,5 L10,10 Z" fill="#0A0F25"/></marker>
</defs>
<rect x="-88" y="-88" width="1136" height="644" rx="0" fill="#FFFFFF" stroke="none" stroke-width="0"/>
<g id="base-layer">
<rect x="12" y="38" width="111" height="66" fill="#FFFFFF" stroke="#0A0F25" stroke-width="2" rx="0" ry="0"/>
<rect x="20" y="174" width="94" height="94" fill="#FFFFFF" stroke="#0A0F25" stroke-width="2" rx="0" ry="0"/>
<path d="M 28 338 L 87 338 L 107 358 L 107 425 L 28 425 Z" fill="#FFFFFF" stroke="#0A0F25" stroke-width="2"/>
<path d="M 87 338 L 87 358 L 107 358" fill="none" stroke="#0A0F25" stroke-width="2"/>
<polygon points="169,38 339,38 313,104 143,104" fill="#FFFFFF" stroke="#0A0F25" stroke-width="2"/>
<path d="M 182 248.45838837516513 L 182 183 L 299 183 L 299 248.45838837516513 C 279.5 234.40290620871863 260 234.40290620871863 240.5 248.45838837516513 C 221 262.5138705416116 201.5 262.5138705416116 182 248.45838837516513 Z" fill="#FFFFFF" stroke="#0A0F25" stroke-width="2"/>
<path d="M 189 362 C 189 338 235.8 338 241 338 C 246.2 338 293 338 293 362 L 293 432 C 293 456 246.2 456 241 456 C 235.8 456 189 456 189 432 L 189 362 Z" fill="#FFFFFF" stroke="#0A0F25" stroke-width="2"/>
<ellipse cx="241" cy="362" rx="52" ry="24" fill="none" stroke="none" stroke-width="0"/>
<path d="M 189 362 C 189 386 235.8 386 241 386 C 246.2 386 293 386 293 362" fill="none" stroke="#0A0F25" stroke-width="2"/>
<path d="M 374 38 L 485 38 C 493.25 38 500 54.5 500 71 C 500 87.5 493.25 104 485 104 L 374 104 C 365.75 104 359 87.5 359 71 C 359 54.5 365.75 38 374 38 Z" fill="#FFFFFF" stroke="#0A0F25" stroke-width="2"/>
<path d="M 378 184 L 429.5 184 L 429.5 198.6 L 481 198.6 L 481 257 L 378 257 Z" fill="#FFFFFF" stroke="#0A0F25" stroke-width="2"/>
<polygon points="371,338 452,338 487,388.5 452,439 371,439 406,388.5" fill="#FFFFFF" stroke="#0A0F25" stroke-width="2"/>
<path d="M 529 13 L 529 59 L 577 59 L 577 104 L 607 59 L 624 59 L 624 13 L 529 13 Z" fill="#FFFFFF" stroke="#0A0F25" stroke-width="2"/>
<path d="M 516 188 L 637 188 C 647.95 188 652 204.5 652 221 C 652 237.5 647.95 254 637 254 L 516 254 C 505.05 254 501 237.5 501 221 C 501 204.5 505.05 188 516 188 Z" fill="#FFFFFF" stroke="#0A0F25" stroke-width="2"/>
<path d="M 608 404 H 545 v -0.937984496124031 c 0 -11.25581395348837 6.91800878477306 -21.4031007751938 17.80234260614934 -26.26356589147287 C 556.8067349926794 372.8759689922481 553.2093704245974 366.48062015503876 553.2093704245974 359.48837209302326 C 553.2093704245974 347.6356589147287 563.6325036603221 338 576.4538799414348 338 c 12.82137628111274 0 23.244509516837482 9.635658914728682 23.244509516837482 21.488372093023255 c 0 6.992248062015503 -3.505124450951684 13.302325581395348 -9.592972181551978 17.3953488372093 c 10.884333821376282 4.8604651162790695 17.80234260614934 15.007751937984496 17.80234260614934 26.26356589147287 v 0.8527131782945736 Z" fill="#FFFFFF" stroke="#0A0F25" stroke-width="2"/>
<polygon points="722,12 800,58 722,104 644,58" fill="#FFFFFF" stroke="#0A0F25" stroke-width="2"/>
<ellipse cx="721.5" cy="221" rx="48.5" ry="35" fill="#FFFFFF" stroke="#0A0F25" stroke-width="2"/>
<ellipse cx="721.5" cy="389.5" rx="51.5" ry="51.5" fill="#FFFFFF" stroke="#0A0F25" stroke-width="2"/>
<polygon points="852,35 916,35 948,69.5 916,104 852,104 820,69.5" fill="#FFFFFF" stroke="#0A0F25" stroke-width="2"/>
<path d="M 849.1878081534772 203.36514722753347 C 849.1878081534772 204.25750669216063 848.4949736211031 205.14970554493308 847.8022637889688 205.14970554493308 C 838.9693717026379 206.26499426386235 832.0415251798561 217.6417743785851 832.0415251798561 231.47222179732313 C 832.0415251798561 246.19502868068832 839.8352901678657 258.01782791587 849.7074340527578 258.01782791587 H 916.7338129496403 C 927.2987913669065 258.01782791587 935.9584748201439 245.3026692160612 935.9584748201439 229.9107533460803 C 935.9584748201439 215.1879464627151 927.991376498801 202.91896749521987 917.946273381295 202.02676864244742 C 917.2534388489208 202.02676864244742 916.5607290167866 201.35749904397707 916.3875203836931 200.2422103250478 C 914.135932853717 185.2964741873805 903.7441630695444 174.14278393881455 891.620681055156 174.14278393881455 C 883.6537074340529 174.14278393881455 876.5526522781776 178.82734990439772 872.0497266187051 186.188673040153 C 871.5301007194246 187.08103250478015 870.6641822541967 187.30412237093694 870.1445563549162 187.08103250478015 C 868.4125947242208 186.188673040153 866.5075491606716 185.7426539196941 864.429170263789 185.7426539196941 C 856.4620719424461 185.51940344168258 849.8806426858513 193.32690630975142 849.1878081534772 203.36514722753347 Z" fill="#FFFFFF" stroke="#0A0F25" stroke-width="2"/>
<path d="M 67.5 106 L 67.5 170" fill="none" stroke="#0A0F25" stroke-width="2" marker-end="url(#arrow-triangle)"/>
<path d="M 67.5 270 L 67.5 334" fill="none" stroke="#0A0F25" stroke-width="2" marker-end="url(#arrow-triangle)"/>
<path d="M 241 106 L 241 179" fill="none" stroke="#0A0F25" stroke-width="2" marker-end="url(#arrow-triangle)"/>
<path d="M 241 250 L 241 334" fill="none" stroke="#0A0F25" stroke-width="2" marker-end="url(#arrow-triangle)"/>
<path d="M 429.5 106 L 429.5 181" fill="none" stroke="#0A0F25" stroke-width="2" marker-end="url(#arrow-triangle)"/>
<path d="M 429.5 259.5 L 429.5 334.5" fill="none" stroke="#0A0F25" stroke-width="2" marker-end="url(#arrow-triangle)"/>
<path d="M 576.5 61 L 576.5 184" fill="none" stroke="#0A0F25" stroke-width="2" marker-end="url(#arrow-triangle)"/>
<path d="M 576.5 256 L 576.5 334" fill="none" stroke="#0A0F25" stroke-width="2" marker-end="url(#arrow-triangle)"/>
<path d="M 722 106 L 722 182" fill="none" stroke="#0A0F25" stroke-width="2" marker-end="url(#arrow-triangle)"/>
<path d="M 722 258 L 722 334" fill="none" stroke="#0A0F25" stroke-width="2" marker-end="url(#arrow-triangle)"/>
<path d="M 884 106 L 884 170" fill="none" stroke="#0A0F25" stroke-width="2" marker-end="url(#arrow-triangle)"/>
<text x="67.5" y="76.5" text-anchor="middle" dominant-baseline="alphabetic" font-family="Arial, sans-serif" font-size="16" style="fill: #0A0F25; font-weight: 700">rectangle</text>
<text x="67" y="226.5" text-anchor="middle" dominant-baseline="alphabetic" font-family="Arial, sans-serif" font-size="16" style="fill: #0A0F25; font-weight: 700">square</text>
<text x="67.5" y="387" text-anchor="middle" dominant-baseline="alphabetic" font-family="Arial, sans-serif" font-size="16" style="fill: #0A0F25; font-weight: 700">page</text>
<text x="241" y="76.5" text-anchor="middle" dominant-baseline="alphabetic" font-family="Arial, sans-serif" font-size="16" style="fill: #0A0F25; font-weight: 700">parallelogram</text>
<text x="240.5" y="216.610964332893" text-anchor="middle" dominant-baseline="alphabetic" font-family="Arial, sans-serif" font-size="16" style="fill: #0A0F25; font-weight: 700">document</text>
<text x="241" y="414.5" text-anchor="middle" dominant-baseline="alphabetic" font-family="Arial, sans-serif" font-size="16" style="fill: #0A0F25; font-weight: 700">cylinder</text>
<text x="417.5" y="76.5" text-anchor="middle" dominant-baseline="alphabetic" font-family="Arial, sans-serif" font-size="16" style="fill: #0A0F25; font-weight: 700">queue</text>
<text x="429.5" y="233.29999999999998" text-anchor="middle" dominant-baseline="alphabetic" font-family="Arial, sans-serif" font-size="16" style="fill: #0A0F25; font-weight: 700">package</text>
<text x="429" y="394" text-anchor="middle" dominant-baseline="alphabetic" font-family="Arial, sans-serif" font-size="16" style="fill: #0A0F25; font-weight: 700">step</text>
<text x="576.5" y="41.5" text-anchor="middle" dominant-baseline="alphabetic" font-family="Arial, sans-serif" font-size="16" style="fill: #0A0F25; font-weight: 700">callout</text>
<text x="576.5" y="226.5" text-anchor="middle" dominant-baseline="alphabetic" font-family="Arial, sans-serif" font-size="16" style="fill: #0A0F25; font-weight: 700">stored_data</text>
<text x="576.5" y="425" text-anchor="middle" dominant-baseline="alphabetic" font-family="Arial, sans-serif" font-size="16" style="fill: #0A0F25; font-weight: 700">person</text>
<text x="722" y="63.5" text-anchor="middle" dominant-baseline="alphabetic" font-family="Arial, sans-serif" font-size="16" style="fill: #0A0F25; font-weight: 700">diamond</text>
<text x="721.5" y="226.5" text-anchor="middle" dominant-baseline="alphabetic" font-family="Arial, sans-serif" font-size="16" style="fill: #0A0F25; font-weight: 700">oval</text>
<text x="721.5" y="395" text-anchor="middle" dominant-baseline="alphabetic" font-family="Arial, sans-serif" font-size="16" style="fill: #0A0F25; font-weight: 700">circle</text>
<text x="884" y="75" text-anchor="middle" dominant-baseline="alphabetic" font-family="Arial, sans-serif" font-size="16" style="fill: #0A0F25; font-weight: 700">hexagon</text>
<text x="883.588" y="237.516" text-anchor="middle" dominant-baseline="alphabetic" font-family="Arial, sans-serif" font-size="16" style="fill: #0A0F25; font-weight: 700">cloud</text>
</g>
</svg>
