<?xml version="1.0" encoding="UTF-8"?>
<svg xmlns="http://www.w3.org/2000/svg" width="1036.75" height="840" viewBox="-88 -88 1036.75 840" data-d2-version="0.1.0">
<defs><marker id="arrow-triangle" markerWidth="10" markerHeight="10" refX="10" refY="5" orient="auto" markerUnits="strokeWidth"><path d="M0,0 L10,5 L0,10 Z" fill="#0A0F25"/></marker>
<marker id="arrow-triangle-reverse" markerWidth="10" markerHeight="10" refX="0" refY="5" orient="auto" markerUnits="strokeWidth"><path d="M10,0 L0,5 L10,10 Z" fill="#0A0F25"/></marker>
<marker id="arrow-diamond" markerWidth="10" markerHeight="10" refX="10" refY="5" orient="auto" markerUnits="strokeWidth"><path d="M0,5 L5,0 L10,5 L5,10 Z" fill="#0A0F25"/></marker>
<marker id="arrow-diamond-reverse" markerWidth="10" markerHeight="10" refX="0" refY="5" orient="auto" markerUnits="strokeWidth"><path d="M0,5 L5,0 L10,5 L5,10 Z" fill="#0A0F25"/></marker>
<marker id="arrow-circle" markerWidth="10" markerHeight="10" refX="6" refY="5" orient="auto" markerUnits="strokeWidth"><circle cx="5" cy="5" r="4" fill="#0A0F25"/></marker>
<marker id="arrow-circle-reverse" markerWidth="10" markerHeight="10" refX="4" refY="5" orient="auto" markerUnits="strokeWidth"><circle cx="5" cy="5" r="4" fill="#0A0F25"/></marker>
<marker id="arrow-cf-one" markerWidth="10" markerHeight="10" refX="10" refY="5" orient="auto" markerUnits="strokeWidth"><line x1="10" y1="0" x2="10" y2="10" stroke="#0A0F25" stroke-width="2"/></marker>
<marker id="arrow-cf-one-reverse" markerWidth="10" markerHeight="10" refX="0" refY="5" orient="auto" markerUnits="strokeWidth"><line x1="0" y1="0" x2="0" y2="10" stroke="#0A0F25" stroke-width="2"/></marker>
<marker id="arrow-cf-many" markerWidth="10" markerHeight="10" refX="10" refY="5" orient="auto" markerUnits="strokeWidth"><path d="M0,5 L10,0 M0,5 L10,5 M0,5 L10,10" stroke="#0A0F25" stroke-width="2" fill="none"/></marker>
<marker id="arrow-cf-many-reverse" markerWidth="10" markerHeight="10" refX="0" refY="5" orient="auto" markerUnits="strokeWidth"><path d="M10,5 L0,0 M10,5 L0,5 M10,5 L0,10" stroke="#0A0F25" stroke-width="2" fill="none"/></marker>
<marker id="arrow-cf-one-required" markerWidth="10" markerHeight="10" refX="10" refY="5" orient="auto" markerUnits="strokeWidth"><line x1="10" y1="0" x2="10" y2="10" stroke="#0A0F25" stroke-width="2"/><line x1="7" y1="0" x2="7" y2="10" stroke="#0A0F25" stroke-width="2"/></marker>
<marker id="arrow-cf-one-required-reverse" markerWidth="10" markerHeight="10" refX="0" refY="5" orient="auto" markerUnits="strokeWidth"><line x1="0" y1="0" x2="0" y2="10" stroke="#0A0F25" stroke-width="2"/><line x1="3" y1="0" x2="3" y2="10" stroke="#0A0F25" stroke-width="2"/></marker>
<marker id="arrow-cf-many-required" markerWidth="10" markerHeight="10" refX="10" refY="5" orient="auto" markerUnits="strokeWidth"><path d="M0,5 L10,0 M0,5 L10,5 M0,5 L10,10" stroke="#0A0F25" stroke-width="2" fill="none"/><line x1="3" y1="0" x2="3" y2="10" stroke="#0A0F25" stroke-width="2"/></marker>
<marker id="arrow-cf-many-required-reverse" markerWidth="10" markerHeight="10" refX="0" refY="5" orient="auto" markerUnits="strokeWidth"><path d="M10,5 L0,0 M10,5 L0,5 M10,5 L0,10" stroke="#0A0F25" stroke-width="2" fill="none"/><line x1="7" y1="0" x2="7" y2="10" stroke="#0A0F25" stroke-width="2"/></marker>
<marker id="arrow-cf-one-optional" markerWidth="10" markerHeight="10" refX="10" refY="5" orient="auto" markerUnits="strokeWidth"><line x1="10" y1="0" x2="10" y2="10" stroke="#0A0F25" stroke-width="2"/><circle cx="7" cy="5" r="2" stroke="#0A0F25" stroke-width="2" fill="white"/></marker>
<marker id="arrow-cf-one-optional-reverse" markerWidth="10" markerHeight="10" refX="0" refY="5" orient="auto" markerUnits="strokeWidth"><line x1="0" y1="0" x2="0" y2="10" stroke="#0A0F25" stroke-width="2"/><circle cx="3" cy="5" r="2" stroke="#0A0F25" stroke-width="2" fill="white"/></marker>
<marker id="arrow-cf-many-optional" markerWidth="10" markerHeight="10" refX="10" refY="5" orient="auto" markerUnits="strokeWidth"><path d="M0,5 L10,0 M0,5 L10,5 M0,5 L10,10" stroke="#0A0F25" stroke-width="2" fill="none"/><circle cx="3" cy="5" r="2" stroke="#0A0F25" stroke-width="2" fill="white"/></marker>
<marker id="arrow-cf-many-optional-reverse" markerWidth="10" markerHeight="10" refX="0" refY="5" orient="auto" markerUnits="strokeWidth"><path d="M10,5 L0,0 M10,5 L0,5 M10,5 L0,10" stroke="#0A0F25" stroke-width="2" fill="none"/><circle cx="7" cy="5" r="2" stroke="#0A0F25" stroke-width="2" fill="white"/></marker>
<marker id="arrow-line" markerWidth="10" markerHeight="10" refX="10" refY="5" orient="auto" markerUnits="strokeWidth"><line x1="10" y1="0" x2="10" y2="10" stroke="#0A0F25" stroke-width="2"/></marker>
<marker id="arrow-line-reverse" markerWidth="10" markerHeight="10" refX="0" refY="5" orient="auto" markerUnits="strokeWidth"><line x1="0" y1="0" x2="0" y2="10" stroke="#0A0F25" stroke-width="2"/></marker>
<marker id="arrow-open" markerWidth="10" markerHeight="10" refX="10" refY="5" orient="auto" markerUnits="strokeWidth"><path d="M0,0 L10,5 L0,10" stroke="#0A0F25" stroke-width="2" fill="none"/></marker>
<marker id="arrow-open-reverse" markerWidth="10" markerHeight="10" refX="0" refY="5" orient="auto" markerUnits="strokeWidth"><path d="M10,0 L0,5 L10,10" stroke="#0A0F25" stroke-width="2" fill="none"/></marker>
<marker id="arrow" markerWidth="10" markerHeight="10" refX="10" refY="5" orient="auto" markerUnits="strokeWidth"><path d="M0,0 L10,5 L0,10 Z" fill="#0A0F25"/></marker>
<marker id="arrow-reverse" markerWidth="10" markerHeight="10" refX="0" refY="5" orient="auto" markerUnits="strokeWidth"><path d="M10,0 L0,5 L10,10 Z" fill="#0A0F25"/></marker>
</defs>
<rect width="100%" height="100%" fill="#FFFFFF"/>
<g id="base-layer">
<rect x="257.75" y="12" width="591" height="160" fill="#FFFFFF" stroke="#0A0F25" stroke-width="2"/>
<rect x="257.75" y="12" width="591" height="32" fill="#0A0F25" stroke="none" stroke-width="0"/>
<line x1="257.75" y1="44" x2="848.75" y2="44" stroke="#0A0F25" stroke-width="2"/>
<line x1="257.75" y1="76" x2="848.75" y2="76" stroke="#0A0F25" stroke-width="2"/>
<line x1="257.75" y1="108" x2="848.75" y2="108" stroke="#0A0F25" stroke-width="2"/>
<line x1="257.75" y1="140" x2="848.75" y2="140" stroke="#0A0F25" stroke-width="2"/>
<rect x="12" y="252" width="695" height="160" fill="#FFFFFF" stroke="#0A0F25" stroke-width="2"/>
<rect x="12" y="252" width="695" height="26.666666666666668" fill="#0A0F25" stroke="none" stroke-width="0"/>
<line x1="12" y1="278.6666666666667" x2="707" y2="278.6666666666667" stroke="#0A0F25" stroke-width="2"/>
<line x1="12" y1="305.33333333333337" x2="707" y2="305.33333333333337" stroke="#0A0F25" stroke-width="2"/>
<line x1="12" y1="332.00000000000006" x2="707" y2="332.00000000000006" stroke="#0A0F25" stroke-width="2"/>
<line x1="12" y1="358.66666666666674" x2="707" y2="358.66666666666674" stroke="#0A0F25" stroke-width="2"/>
<line x1="12" y1="385.3333333333334" x2="707" y2="385.3333333333334" stroke="#0A0F25" stroke-width="2"/>
<rect x="273.25" y="492" width="560" height="160" fill="#FFFFFF" stroke="#0A0F25" stroke-width="2"/>
<rect x="273.25" y="492" width="560" height="32" fill="#0A0F25" stroke="none" stroke-width="0"/>
<line x1="273.25" y1="524" x2="833.25" y2="524" stroke="#0A0F25" stroke-width="2"/>
<line x1="273.25" y1="556" x2="833.25" y2="556" stroke="#0A0F25" stroke-width="2"/>
<line x1="273.25" y1="588" x2="833.25" y2="588" stroke="#0A0F25" stroke-width="2"/>
<line x1="273.25" y1="620" x2="833.25" y2="620" stroke="#0A0F25" stroke-width="2"/>
<path d="M 485.0454746910542 175.09180748297968 C 475.4651434569117 186.76327700680815 470.6749778398404 192.59901176872236 461.09464660569785 204.27048129255084 C 461.09464660569785 204.27048129255084 454.75 212 444.75 212 C 414.65 212 399.6 212 369.5 212 C 369.5 212 359.5 212 359.5 222 C 359.5 232.4 359.5 237.6 359.5 248" fill="none" stroke="#0A0F25" stroke-width="2" marker-start="url(#arrow-triangle-reverse)" marker-end="url(#arrow-triangle)"/>
<path d="M 359.5 416 C 359.5 426.4 359.5 431.6 359.5 442 C 359.5 442 359.5 452 369.5 452 C 401.66666666666663 452 417.75 452 449.91666666666663 452 C 449.91666666666663 452 459.91666666666663 452 466.05607280181584 459.89352217376324 C 475.0624498105767 471.4731497564558 479.5656383149572 477.2629635478021 488.57201532371806 488.84259113049467" fill="none" stroke="#0A0F25" stroke-width="2" marker-start="url(#arrow-triangle-reverse)" marker-end="url(#arrow-triangle)"/>
<path d="M 621.4545253089458 175.09180748297968 C 631.0348565430883 186.76327700680815 635.8250221601596 192.59901176872236 645.4053533943021 204.27048129255084 C 645.4053533943021 204.27048129255084 651.75 212 661.75 212 C 691.85 212 706.9 212 737 212 C 737 212 747 212 747 222 C 747 310 747 354 747 442 C 747 442 747 452 737 452 C 704.8333333333333 452 688.75 452 656.5833333333333 452 C 656.5833333333333 452 646.5833333333333 452 640.443927198184 459.89352217376324 C 631.4375501894232 471.4731497564558 626.9343616850427 477.2629635478021 617.9279846762819 488.84259113049467" fill="none" stroke="#0A0F25" stroke-width="2" marker-start="url(#arrow-triangle-reverse)" marker-end="url(#arrow-triangle)"/>
<text x="269.75" y="35.75" text-anchor="start" font-family="Arial, sans-serif" font-size="24">users</text>
<text x="269.75" y="65" text-anchor="start" font-family="Arial, sans-serif" font-size="20">id</text>
<text x="379.75" y="65" text-anchor="start" font-family="Arial, sans-serif" font-size="20">int</text>
<text x="838.75" y="65" text-anchor="end" font-family="Arial, sans-serif" font-size="20">PK</text>
<text x="269.75" y="97" text-anchor="start" font-family="Arial, sans-serif" font-size="20">name</text>
<text x="379.75" y="97" text-anchor="start" font-family="Arial, sans-serif" font-size="20">varchar(255)</text>
<text x="269.75" y="129" text-anchor="start" font-family="Arial, sans-serif" font-size="20">email</text>
<text x="379.75" y="129" text-anchor="start" font-family="Arial, sans-serif" font-size="20">varchar(255)</text>
<text x="838.75" y="129" text-anchor="end" font-family="Arial, sans-serif" font-size="20">UNQ</text>
<text x="269.75" y="161" text-anchor="start" font-family="Arial, sans-serif" font-size="20">created_at</text>
<text x="379.75" y="161" text-anchor="start" font-family="Arial, sans-serif" font-size="20">timestamp</text>
<text x="24" y="273.0833333333333" text-anchor="start" font-family="Arial, sans-serif" font-size="24">posts</text>
<text x="24" y="297" text-anchor="start" font-family="Arial, sans-serif" font-size="20">id</text>
<text x="126" y="297" text-anchor="start" font-family="Arial, sans-serif" font-size="20">int</text>
<text x="697" y="297" text-anchor="end" font-family="Arial, sans-serif" font-size="20">PK</text>
<text x="24" y="323.66666666666663" text-anchor="start" font-family="Arial, sans-serif" font-size="20">user_id</text>
<text x="126" y="323.66666666666663" text-anchor="start" font-family="Arial, sans-serif" font-size="20">int</text>
<text x="697" y="323.66666666666663" text-anchor="end" font-family="Arial, sans-serif" font-size="20">FK</text>
<text x="24" y="350.3333333333333" text-anchor="start" font-family="Arial, sans-serif" font-size="20">title</text>
<text x="126" y="350.3333333333333" text-anchor="start" font-family="Arial, sans-serif" font-size="20">varchar(255)</text>
<text x="24" y="377" text-anchor="start" font-family="Arial, sans-serif" font-size="20">content</text>
<text x="126" y="377" text-anchor="start" font-family="Arial, sans-serif" font-size="20">text</text>
<text x="24" y="403.6666666666667" text-anchor="start" font-family="Arial, sans-serif" font-size="20">published</text>
<text x="126" y="403.6666666666667" text-anchor="start" font-family="Arial, sans-serif" font-size="20">boolean</text>
<text x="285.25" y="515.75" text-anchor="start" font-family="Arial, sans-serif" font-size="24">comments</text>
<text x="285.25" y="545" text-anchor="start" font-family="Arial, sans-serif" font-size="20">id</text>
<text x="366.25" y="545" text-anchor="start" font-family="Arial, sans-serif" font-size="20">int</text>
<text x="823.25" y="545" text-anchor="end" font-family="Arial, sans-serif" font-size="20">PK</text>
<text x="285.25" y="577" text-anchor="start" font-family="Arial, sans-serif" font-size="20">post_id</text>
<text x="366.25" y="577" text-anchor="start" font-family="Arial, sans-serif" font-size="20">int</text>
<text x="823.25" y="577" text-anchor="end" font-family="Arial, sans-serif" font-size="20">FK</text>
<text x="285.25" y="609" text-anchor="start" font-family="Arial, sans-serif" font-size="20">user_id</text>
<text x="366.25" y="609" text-anchor="start" font-family="Arial, sans-serif" font-size="20">int</text>
<text x="823.25" y="609" text-anchor="end" font-family="Arial, sans-serif" font-size="20">FK</text>
<text x="285.25" y="641" text-anchor="start" font-family="Arial, sans-serif" font-size="20">body</text>
<text x="366.25" y="641" text-anchor="start" font-family="Arial, sans-serif" font-size="20">text</text>
</g>
</svg>
