<?xml version="1.0" encoding="UTF-8"?>
<svg xmlns="http://www.w3.org/2000/svg" width="843" height="938" viewBox="-100 -100 843 938" data-d2-version="0.1.0">
<defs><marker id="arrow-triangle" markerWidth="10" markerHeight="10" refX="10" refY="5" orient="auto" markerUnits="strokeWidth"><path d="M0,0 L10,5 L0,10 Z" fill="#0A0F25"/></marker>
<marker id="arrow-triangle-reverse" markerWidth="10" markerHeight="10" refX="0" refY="5" orient="auto" markerUnits="strokeWidth"><path d="M10,0 L0,5 L10,10 Z" fill="#0A0F25"/></marker>
<marker id="arrow-diamond" markerWidth="10" markerHeight="10" refX="10" refY="5" orient="auto" markerUnits="strokeWidth"><path d="M0,5 L5,0 L10,5 L5,10 Z" fill="#0A0F25"/></marker>
<marker id="arrow-diamond-reverse" markerWidth="10" markerHeight="10" refX="0" refY="5" orient="auto" markerUnits="strokeWidth"><path d="M0,5 L5,0 L10,5 L5,10 Z" fill="#0A0F25"/></marker>
<marker id="arrow-circle" markerWidth="10" markerHeight="10" refX="6" refY="5" orient="auto" markerUnits="strokeWidth"><circle cx="5" cy="5" r="4" fill="#0A0F25"/></marker>
<marker id="arrow-circle-reverse" markerWidth="10" markerHeight="10" refX="4" refY="5" orient="auto" markerUnits="strokeWidth"><circle cx="5" cy="5" r="4" fill="#0A0F25"/></marker>
<marker id="arrow-cf-one" markerWidth="10" markerHeight="10" refX="10" refY="5" orient="auto" markerUnits="strokeWidth"><line x1="10" y1="0" x2="10" y2="10" stroke="#0A0F25" stroke-width="2"/></marker>
<marker id="arrow-cf-one-reverse" markerWidth="10" markerHeight="10" refX="0" refY="5" orient="auto" markerUnits="strokeWidth"><line x1="0" y1="0" x2="0" y2="10" stroke="#0A0F25" stroke-width="2"/></marker>
<marker id="arrow-cf-many" markerWidth="10" markerHeight="10" refX="10" refY="5" orient="auto" markerUnits="strokeWidth"><path d="M0,5 L10,0 M0,5 L10,5 M0,5 L10,10" stroke="#0A0F25" stroke-width="2" fill="none"/></marker>
<marker id="arrow-cf-many-reverse" markerWidth="10" markerHeight="10" refX="0" refY="5" orient="auto" markerUnits="strokeWidth"><path d="M10,5 L0,0 M10,5 L0,5 M10,5 L0,10" stroke="#0A0F25" stroke-width="2" fill="none"/></marker>
<marker id="arrow-cf-one-required" markerWidth="10" markerHeight="10" refX="10" refY="5" orient="auto" markerUnits="strokeWidth"><line x1="10" y1="0" x2="10" y2="10" stroke="#0A0F25" stroke-width="2"/><line x1="7" y1="0" x2="7" y2="10" stroke="#0A0F25" stroke-width="2"/></marker>
<marker id="arrow-cf-one-required-reverse" markerWidth="10" markerHeight="10" refX="0" refY="5" orient="auto" markerUnits="strokeWidth"><line x1="0" y1="0" x2="0" y2="10" stroke="#0A0F25" stroke-width="2"/><line x1="3" y1="0" x2="3" y2="10" stroke="#0A0F25" stroke-width="2"/></marker>
<marker id="arrow-cf-many-required" markerWidth="10" markerHeight="10" refX="10" refY="5" orient="auto" markerUnits="strokeWidth"><path d="M0,5 L10,0 M0,5 L10,5 M0,5 L10,10" stroke="#0A0F25" stroke-width="2" fill="none"/><line x1="3" y1="0" x2="3" y2="10" stroke="#0A0F25" stroke-width="2"/></marker>
<marker id="arrow-cf-many-required-reverse" markerWidth="10" markerHeight="10" refX="0" refY="5" orient="auto" markerUnits="strokeWidth"><path d="M10,5 L0,0 M10,5 L0,5 M10,5 L0,10" stroke="#0A0F25" stroke-width="2" fill="none"/><line x1="7" y1="0" x2="7" y2="10" stroke="#0A0F25" stroke-width="2"/></marker>
<marker id="arrow-cf-one-optional" markerWidth="10" markerHeight="10" refX="10" refY="5" orient="auto" markerUnits="strokeWidth"><line x1="10" y1="0" x2="10" y2="10" stroke="#0A0F25" stroke-width="2"/><circle cx="7" cy="5" r="2" stroke="#0A0F25" stroke-width="2" fill="white"/></marker>
<marker id="arrow-cf-one-optional-reverse" markerWidth="10" markerHeight="10" refX="0" refY="5" orient="auto" markerUnits="strokeWidth"><line x1="0" y1="0" x2="0" y2="10" stroke="#0A0F25" stroke-width="2"/><circle cx="3" cy="5" r="2" stroke="#0A0F25" stroke-width="2" fill="white"/></marker>
<marker id="arrow-cf-many-optional" markerWidth="10" markerHeight="10" refX="10" refY="5" orient="auto" markerUnits="strokeWidth"><path d="M0,5 L10,0 M0,5 L10,5 M0,5 L10,10" stroke="#0A0F25" stroke-width="2" fill="none"/><circle cx="3" cy="5" r="2" stroke="#0A0F25" stroke-width="2" fill="white"/></marker>
<marker id="arrow-cf-many-optional-reverse" markerWidth="10" markerHeight="10" refX="0" refY="5" orient="auto" markerUnits="strokeWidth"><path d="M10,5 L0,0 M10,5 L0,5 M10,5 L0,10" stroke="#0A0F25" stroke-width="2" fill="none"/><circle cx="7" cy="5" r="2" stroke="#0A0F25" stroke-width="2" fill="white"/></marker>
<marker id="arrow-line" markerWidth="10" markerHeight="10" refX="10" refY="5" orient="auto" markerUnits="strokeWidth"><line x1="10" y1="0" x2="10" y2="10" stroke="#0A0F25" stroke-width="2"/></marker>
<marker id="arrow-line-reverse" markerWidth="10" markerHeight="10" refX="0" refY="5" orient="auto" markerUnits="strokeWidth"><line x1="0" y1="0" x2="0" y2="10" stroke="#0A0F25" stroke-width="2"/></marker>
<marker id="arrow-open" markerWidth="10" markerHeight="10" refX="10" refY="5" orient="auto" markerUnits="strokeWidth"><path d="M0,0 L10,5 L0,10" stroke="#0A0F25" stroke-width="2" fill="none"/></marker>
<marker id="arrow-open-reverse" markerWidth="10" markerHeight="10" refX="0" refY="5" orient="auto" markerUnits="strokeWidth"><path d="M10,0 L0,5 L10,10" stroke="#0A0F25" stroke-width="2" fill="none"/></marker>
<marker id="arrow" markerWidth="10" markerHeight="10" refX="10" refY="5" orient="auto" markerUnits="strokeWidth"><path d="M0,0 L10,5 L0,10 Z" fill="#0A0F25"/></marker>
<marker id="arrow-reverse" markerWidth="10" markerHeight="10" refX="0" refY="5" orient="auto" markerUnits="strokeWidth"><path d="M10,0 L0,5 L10,10 Z" fill="#0A0F25"/></marker>
</defs>
<rect width="100%" height="100%" fill="#FFFFFF"/>
<g id="base-layer">
<rect x="12" y="12" width="304" height="180" fill="#FFFFFF" stroke="#0A0F25" stroke-width="2"/>
<rect x="12" y="12" width="304" height="36" fill="#0A0F25" stroke="none" stroke-width="0"/>
<line x1="12" y1="48" x2="316" y2="48" stroke="#0A0F25" stroke-width="2"/>
<line x1="12" y1="84" x2="316" y2="84" stroke="#0A0F25" stroke-width="2"/>
<line x1="12" y1="120" x2="316" y2="120" stroke="#0A0F25" stroke-width="2"/>
<line x1="12" y1="156" x2="316" y2="156" stroke="#0A0F25" stroke-width="2"/>
<rect x="156" y="262" width="280" height="216" fill="#FFFFFF" stroke="#0A0F25" stroke-width="2"/>
<rect x="156" y="262" width="280" height="36" fill="#0A0F25" stroke="none" stroke-width="0"/>
<line x1="156" y1="298" x2="436" y2="298" stroke="#0A0F25" stroke-width="2"/>
<line x1="156" y1="334" x2="436" y2="334" stroke="#0A0F25" stroke-width="2"/>
<line x1="156" y1="370" x2="436" y2="370" stroke="#0A0F25" stroke-width="2"/>
<line x1="156" y1="406" x2="436" y2="406" stroke="#0A0F25" stroke-width="2"/>
<line x1="156" y1="442" x2="436" y2="442" stroke="#0A0F25" stroke-width="2"/>
<rect x="456" y="558" width="187" height="180" fill="#FFFFFF" stroke="#0A0F25" stroke-width="2"/>
<rect x="456" y="558" width="187" height="36" fill="#0A0F25" stroke="none" stroke-width="0"/>
<line x1="456" y1="594" x2="643" y2="594" stroke="#0A0F25" stroke-width="2"/>
<line x1="456" y1="630" x2="643" y2="630" stroke="#0A0F25" stroke-width="2"/>
<line x1="456" y1="666" x2="643" y2="666" stroke="#0A0F25" stroke-width="2"/>
<line x1="456" y1="702" x2="643" y2="702" stroke="#0A0F25" stroke-width="2"/>
<path d="M 314.0470733996816 69.49085629806912 C 251.60941467993632 181.09817125961382 220.39058532006368 236.90182874038618 157.9529266003184 348.5091437019309" fill="none" stroke="#0A0F25" stroke-width="2" marker-start="url(#arrow-triangle-reverse)" marker-end="url(#arrow-triangle)"/>
<path d="M 436.24052781609475 319.9927617471726 C 444.04810556321894 449.5985523494345 447.95189443678106 514.4014476505655 455.75947218390525 644.0072382528274" fill="none" stroke="#0A0F25" stroke-width="2" marker-start="url(#arrow-triangle-reverse)" marker-end="url(#arrow-triangle)"/>
<path d="M 317.3347708399095 69.77072762274435 C 379.4660916640362 245.29170895090226 410.5317520760995 333.0521996149812 472.6630729002262 508.5731809431391 C 472.6630729002262 508.5731809431391 476 518 466 518 C 466 518 466 518 466 518 C 466 518 456 518 456 528 C 456 588.8 456 619.2 456 680" fill="none" stroke="#0A0F25" stroke-width="2" marker-start="url(#arrow-triangle-reverse)" marker-end="url(#arrow-triangle)"/>
<text x="24" y="37.75" text-anchor="start" font-family="Arial, sans-serif" font-size="24">users</text>
<text x="24" y="71" text-anchor="start" font-family="Arial, sans-serif" font-size="20">id</text>
<text x="134" y="71" text-anchor="start" font-family="Arial, sans-serif" font-size="20">int</text>
<text x="306" y="71" text-anchor="end" font-family="Arial, sans-serif" font-size="20">PK</text>
<text x="24" y="107" text-anchor="start" font-family="Arial, sans-serif" font-size="20">name</text>
<text x="134" y="107" text-anchor="start" font-family="Arial, sans-serif" font-size="20">varchar(255)</text>
<text x="24" y="143" text-anchor="start" font-family="Arial, sans-serif" font-size="20">email</text>
<text x="134" y="143" text-anchor="start" font-family="Arial, sans-serif" font-size="20">varchar(255)</text>
<text x="306" y="143" text-anchor="end" font-family="Arial, sans-serif" font-size="20">UNQ</text>
<text x="24" y="179" text-anchor="start" font-family="Arial, sans-serif" font-size="20">created_at</text>
<text x="134" y="179" text-anchor="start" font-family="Arial, sans-serif" font-size="20">timestamp</text>
<text x="168" y="287.75" text-anchor="start" font-family="Arial, sans-serif" font-size="24">posts</text>
<text x="168" y="321" text-anchor="start" font-family="Arial, sans-serif" font-size="20">id</text>
<text x="270" y="321" text-anchor="start" font-family="Arial, sans-serif" font-size="20">int</text>
<text x="427" y="321" text-anchor="end" font-family="Arial, sans-serif" font-size="20">PK</text>
<text x="168" y="357" text-anchor="start" font-family="Arial, sans-serif" font-size="20">user_id</text>
<text x="270" y="357" text-anchor="start" font-family="Arial, sans-serif" font-size="20">int</text>
<text x="427" y="357" text-anchor="end" font-family="Arial, sans-serif" font-size="20">FK</text>
<text x="168" y="393" text-anchor="start" font-family="Arial, sans-serif" font-size="20">title</text>
<text x="270" y="393" text-anchor="start" font-family="Arial, sans-serif" font-size="20">varchar(255)</text>
<text x="168" y="429" text-anchor="start" font-family="Arial, sans-serif" font-size="20">content</text>
<text x="270" y="429" text-anchor="start" font-family="Arial, sans-serif" font-size="20">text</text>
<text x="168" y="465" text-anchor="start" font-family="Arial, sans-serif" font-size="20">published</text>
<text x="270" y="465" text-anchor="start" font-family="Arial, sans-serif" font-size="20">boolean</text>
<text x="468" y="583.75" text-anchor="start" font-family="Arial, sans-serif" font-size="24">comments</text>
<text x="468" y="617" text-anchor="start" font-family="Arial, sans-serif" font-size="20">id</text>
<text x="549" y="617" text-anchor="start" font-family="Arial, sans-serif" font-size="20">int</text>
<text x="634" y="617" text-anchor="end" font-family="Arial, sans-serif" font-size="20">PK</text>
<text x="468" y="653" text-anchor="start" font-family="Arial, sans-serif" font-size="20">post_id</text>
<text x="549" y="653" text-anchor="start" font-family="Arial, sans-serif" font-size="20">int</text>
<text x="634" y="653" text-anchor="end" font-family="Arial, sans-serif" font-size="20">FK</text>
<text x="468" y="689" text-anchor="start" font-family="Arial, sans-serif" font-size="20">user_id</text>
<text x="549" y="689" text-anchor="start" font-family="Arial, sans-serif" font-size="20">int</text>
<text x="634" y="689" text-anchor="end" font-family="Arial, sans-serif" font-size="20">FK</text>
<text x="468" y="725" text-anchor="start" font-family="Arial, sans-serif" font-size="20">body</text>
<text x="549" y="725" text-anchor="start" font-family="Arial, sans-serif" font-size="20">text</text>
</g>
</svg>
