<?xml version="1.0" encoding="UTF-8"?>
<svg xmlns="http://www.w3.org/2000/svg" width="415" height="2480" viewBox="-50 -50 415 2480" data-d2-version="0.1.0">
<defs><marker id="arrow-triangle" markerWidth="10" markerHeight="10" refX="10" refY="5" orient="auto" markerUnits="strokeWidth"><path d="M0,0 L10,5 L0,10 Z" fill="#0A0F25"/></marker>
<marker id="arrow-triangle-reverse" markerWidth="10" markerHeight="10" refX="0" refY="5" orient="auto" markerUnits="strokeWidth"><path d="M10,0 L0,5 L10,10 Z" fill="#0A0F25"/></marker>
<marker id="arrow-diamond" markerWidth="10" markerHeight="10" refX="10" refY="5" orient="auto" markerUnits="strokeWidth"><path d="M0,5 L5,0 L10,5 L5,10 Z" fill="#0A0F25"/></marker>
<marker id="arrow-diamond-reverse" markerWidth="10" markerHeight="10" refX="0" refY="5" orient="auto" markerUnits="strokeWidth"><path d="M0,5 L5,0 L10,5 L5,10 Z" fill="#0A0F25"/></marker>
<marker id="arrow-circle" markerWidth="10" markerHeight="10" refX="6" refY="5" orient="auto" markerUnits="strokeWidth"><circle cx="5" cy="5" r="4" fill="#0A0F25"/></marker>
<marker id="arrow-circle-reverse" markerWidth="10" markerHeight="10" refX="4" refY="5" orient="auto" markerUnits="strokeWidth"><circle cx="5" cy="5" r="4" fill="#0A0F25"/></marker>
<marker id="arrow-cf-one" markerWidth="10" markerHeight="10" refX="10" refY="5" orient="auto" markerUnits="strokeWidth"><line x1="10" y1="0" x2="10" y2="10" stroke="#0A0F25" stroke-width="2"/></marker>
<marker id="arrow-cf-one-reverse" markerWidth="10" markerHeight="10" refX="0" refY="5" orient="auto" markerUnits="strokeWidth"><line x1="0" y1="0" x2="0" y2="10" stroke="#0A0F25" stroke-width="2"/></marker>
<marker id="arrow-cf-many" markerWidth="10" markerHeight="10" refX="10" refY="5" orient="auto" markerUnits="strokeWidth"><path d="M0,5 L10,0 M0,5 L10,5 M0,5 L10,10" stroke="#0A0F25" stroke-width="2" fill="none"/></marker>
<marker id="arrow-cf-many-reverse" markerWidth="10" markerHeight="10" refX="0" refY="5" orient="auto" markerUnits="strokeWidth"><path d="M10,5 L0,0 M10,5 L0,5 M10,5 L0,10" stroke="#0A0F25" stroke-width="2" fill="none"/></marker>
<marker id="arrow-cf-one-required" markerWidth="10" markerHeight="10" refX="10" refY="5" orient="auto" markerUnits="strokeWidth"><line x1="10" y1="0" x2="10" y2="10" stroke="#0A0F25" stroke-width="2"/><line x1="7" y1="0" x2="7" y2="10" stroke="#0A0F25" stroke-width="2"/></marker>
<marker id="arrow-cf-one-required-reverse" markerWidth="10" markerHeight="10" refX="0" refY="5" orient="auto" markerUnits="strokeWidth"><line x1="0" y1="0" x2="0" y2="10" stroke="#0A0F25" stroke-width="2"/><line x1="3" y1="0" x2="3" y2="10" stroke="#0A0F25" stroke-width="2"/></marker>
<marker id="arrow-cf-many-required" markerWidth="10" markerHeight="10" refX="10" refY="5" orient="auto" markerUnits="strokeWidth"><path d="M0,5 L10,0 M0,5 L10,5 M0,5 L10,10" stroke="#0A0F25" stroke-width="2" fill="none"/><line x1="3" y1="0" x2="3" y2="10" stroke="#0A0F25" stroke-width="2"/></marker>
<marker id="arrow-cf-many-required-reverse" markerWidth="10" markerHeight="10" refX="0" refY="5" orient="auto" markerUnits="strokeWidth"><path d="M10,5 L0,0 M10,5 L0,5 M10,5 L0,10" stroke="#0A0F25" stroke-width="2" fill="none"/><line x1="7" y1="0" x2="7" y2="10" stroke="#0A0F25" stroke-width="2"/></marker>
<marker id="arrow-cf-one-optional" markerWidth="10" markerHeight="10" refX="10" refY="5" orient="auto" markerUnits="strokeWidth"><line x1="10" y1="0" x2="10" y2="10" stroke="#0A0F25" stroke-width="2"/><circle cx="7" cy="5" r="2" stroke="#0A0F25" stroke-width="2" fill="white"/></marker>
<marker id="arrow-cf-one-optional-reverse" markerWidth="10" markerHeight="10" refX="0" refY="5" orient="auto" markerUnits="strokeWidth"><line x1="0" y1="0" x2="0" y2="10" stroke="#0A0F25" stroke-width="2"/><circle cx="3" cy="5" r="2" stroke="#0A0F25" stroke-width="2" fill="white"/></marker>
<marker id="arrow-cf-many-optional" markerWidth="10" markerHeight="10" refX="10" refY="5" orient="auto" markerUnits="strokeWidth"><path d="M0,5 L10,0 M0,5 L10,5 M0,5 L10,10" stroke="#0A0F25" stroke-width="2" fill="none"/><circle cx="3" cy="5" r="2" stroke="#0A0F25" stroke-width="2" fill="white"/></marker>
<marker id="arrow-cf-many-optional-reverse" markerWidth="10" markerHeight="10" refX="0" refY="5" orient="auto" markerUnits="strokeWidth"><path d="M10,5 L0,0 M10,5 L0,5 M10,5 L0,10" stroke="#0A0F25" stroke-width="2" fill="none"/><circle cx="7" cy="5" r="2" stroke="#0A0F25" stroke-width="2" fill="white"/></marker>
<marker id="arrow-line" markerWidth="10" markerHeight="10" refX="10" refY="5" orient="auto" markerUnits="strokeWidth"><line x1="10" y1="0" x2="10" y2="10" stroke="#0A0F25" stroke-width="2"/></marker>
<marker id="arrow-line-reverse" markerWidth="10" markerHeight="10" refX="0" refY="5" orient="auto" markerUnits="strokeWidth"><line x1="0" y1="0" x2="0" y2="10" stroke="#0A0F25" stroke-width="2"/></marker>
<marker id="arrow-open" markerWidth="10" markerHeight="10" refX="10" refY="5" orient="auto" markerUnits="strokeWidth"><path d="M0,0 L10,5 L0,10" stroke="#0A0F25" stroke-width="2" fill="none"/></marker>
<marker id="arrow-open-reverse" markerWidth="10" markerHeight="10" refX="0" refY="5" orient="auto" markerUnits="strokeWidth"><path d="M10,0 L0,5 L10,10" stroke="#0A0F25" stroke-width="2" fill="none"/></marker>
<marker id="arrow" markerWidth="10" markerHeight="10" refX="10" refY="5" orient="auto" markerUnits="strokeWidth"><path d="M0,0 L10,5 L0,10 Z" fill="#0A0F25"/></marker>
<marker id="arrow-reverse" markerWidth="10" markerHeight="10" refX="0" refY="5" orient="auto" markerUnits="strokeWidth"><path d="M10,0 L0,5 L10,10 Z" fill="#0A0F25"/></marker>
</defs>
<rect width="100%" height="100%" fill="#FFFFFF"/>
<g id="base-layer">
<rect x="50" y="50" width="215" height="640" fill="#FFFFFF" stroke="#0A0F25" stroke-width="2"/>
<rect x="50" y="50" width="215" height="128" fill="#0A0F25" stroke="none" stroke-width="0"/>
<line x1="50" y1="178" x2="265" y2="178" stroke="#0A0F25" stroke-width="2"/>
<line x1="50" y1="306" x2="265" y2="306" stroke="#0A0F25" stroke-width="2"/>
<line x1="50" y1="434" x2="265" y2="434" stroke="#0A0F25" stroke-width="2"/>
<line x1="50" y1="562" x2="265" y2="562" stroke="#0A0F25" stroke-width="2"/>
<rect x="50" y="790" width="215" height="800" fill="#FFFFFF" stroke="#0A0F25" stroke-width="2"/>
<rect x="50" y="790" width="215" height="133.33333333333334" fill="#0A0F25" stroke="none" stroke-width="0"/>
<line x1="50" y1="923.3333333333334" x2="265" y2="923.3333333333334" stroke="#0A0F25" stroke-width="2"/>
<line x1="50" y1="1056.6666666666667" x2="265" y2="1056.6666666666667" stroke="#0A0F25" stroke-width="2"/>
<line x1="50" y1="1190" x2="265" y2="1190" stroke="#0A0F25" stroke-width="2"/>
<line x1="50" y1="1323.3333333333333" x2="265" y2="1323.3333333333333" stroke="#0A0F25" stroke-width="2"/>
<line x1="50" y1="1456.6666666666665" x2="265" y2="1456.6666666666665" stroke="#0A0F25" stroke-width="2"/>
<rect x="50" y="1690" width="200" height="640" fill="#FFFFFF" stroke="#0A0F25" stroke-width="2"/>
<rect x="50" y="1690" width="200" height="128" fill="#0A0F25" stroke="none" stroke-width="0"/>
<line x1="50" y1="1818" x2="250" y2="1818" stroke="#0A0F25" stroke-width="2"/>
<line x1="50" y1="1946" x2="250" y2="1946" stroke="#0A0F25" stroke-width="2"/>
<line x1="50" y1="2074" x2="250" y2="2074" stroke="#0A0F25" stroke-width="2"/>
<line x1="50" y1="2202" x2="250" y2="2202" stroke="#0A0F25" stroke-width="2"/>
<path d="M 157.12209523721066 693.9999988390027 C 157.15013333315642 730.7999997678005 157.1641523811293 749.2000002321995 157.19219047707506 786.0000011609973" fill="none" stroke="#0A0F25" stroke-width="2" marker-start="url(#arrow-triangle-reverse)" marker-end="url(#arrow-triangle)"/>
<path d="M 151.48571437682128 1593.99997449004 C 151.35428573250712 1630.799994898008 151.28857141035002 1649.200005101992 151.15714276603586 1686.00002550996" fill="none" stroke="#0A0F25" stroke-width="2" marker-start="url(#arrow-triangle-reverse)" marker-end="url(#arrow-triangle)"/>
<path d="M 155.66460071046546 693.9999629446634 C 153.9566116021482 1090.7999925889326 153.10261704798955 1289.2000074110674 151.3946279396723 1686.0000370553366" fill="none" stroke="#0A0F25" stroke-width="2" marker-start="url(#arrow-triangle-reverse)" marker-end="url(#arrow-triangle)"/>
<text x="62" y="121.75" text-anchor="start" font-family="Arial, sans-serif" font-size="24">users</text>
<text x="62" y="247" text-anchor="start" font-family="Arial, sans-serif" font-size="20">id</text>
<text x="172" y="247" text-anchor="start" font-family="Arial, sans-serif" font-size="20">int</text>
<text x="256" y="247" text-anchor="end" font-family="Arial, sans-serif" font-size="20">PK</text>
<text x="62" y="375" text-anchor="start" font-family="Arial, sans-serif" font-size="20">name</text>
<text x="172" y="375" text-anchor="start" font-family="Arial, sans-serif" font-size="20">varchar(255)</text>
<text x="62" y="503" text-anchor="start" font-family="Arial, sans-serif" font-size="20">email</text>
<text x="172" y="503" text-anchor="start" font-family="Arial, sans-serif" font-size="20">varchar(255)</text>
<text x="256" y="503" text-anchor="end" font-family="Arial, sans-serif" font-size="20">UNQ</text>
<text x="62" y="631" text-anchor="start" font-family="Arial, sans-serif" font-size="20">created_at</text>
<text x="172" y="631" text-anchor="start" font-family="Arial, sans-serif" font-size="20">timestamp</text>
<text x="62" y="864.4166666666666" text-anchor="start" font-family="Arial, sans-serif" font-size="24">posts</text>
<text x="62" y="995" text-anchor="start" font-family="Arial, sans-serif" font-size="20">id</text>
<text x="164" y="995" text-anchor="start" font-family="Arial, sans-serif" font-size="20">int</text>
<text x="256" y="995" text-anchor="end" font-family="Arial, sans-serif" font-size="20">PK</text>
<text x="62" y="1128.3333333333335" text-anchor="start" font-family="Arial, sans-serif" font-size="20">user_id</text>
<text x="164" y="1128.3333333333335" text-anchor="start" font-family="Arial, sans-serif" font-size="20">int</text>
<text x="256" y="1128.3333333333335" text-anchor="end" font-family="Arial, sans-serif" font-size="20">FK</text>
<text x="62" y="1261.6666666666667" text-anchor="start" font-family="Arial, sans-serif" font-size="20">title</text>
<text x="164" y="1261.6666666666667" text-anchor="start" font-family="Arial, sans-serif" font-size="20">varchar(255)</text>
<text x="62" y="1395.0000000000002" text-anchor="start" font-family="Arial, sans-serif" font-size="20">content</text>
<text x="164" y="1395.0000000000002" text-anchor="start" font-family="Arial, sans-serif" font-size="20">text</text>
<text x="62" y="1528.3333333333335" text-anchor="start" font-family="Arial, sans-serif" font-size="20">published</text>
<text x="164" y="1528.3333333333335" text-anchor="start" font-family="Arial, sans-serif" font-size="20">boolean</text>
<text x="62" y="1761.75" text-anchor="start" font-family="Arial, sans-serif" font-size="24">comments</text>
<text x="62" y="1887" text-anchor="start" font-family="Arial, sans-serif" font-size="20">id</text>
<text x="143" y="1887" text-anchor="start" font-family="Arial, sans-serif" font-size="20">int</text>
<text x="241" y="1887" text-anchor="end" font-family="Arial, sans-serif" font-size="20">PK</text>
<text x="62" y="2015" text-anchor="start" font-family="Arial, sans-serif" font-size="20">post_id</text>
<text x="143" y="2015" text-anchor="start" font-family="Arial, sans-serif" font-size="20">int</text>
<text x="241" y="2015" text-anchor="end" font-family="Arial, sans-serif" font-size="20">FK</text>
<text x="62" y="2143" text-anchor="start" font-family="Arial, sans-serif" font-size="20">user_id</text>
<text x="143" y="2143" text-anchor="start" font-family="Arial, sans-serif" font-size="20">int</text>
<text x="241" y="2143" text-anchor="end" font-family="Arial, sans-serif" font-size="20">FK</text>
<text x="62" y="2271" text-anchor="start" font-family="Arial, sans-serif" font-size="20">body</text>
<text x="143" y="2271" text-anchor="start" font-family="Arial, sans-serif" font-size="20">text</text>
</g>
</svg>
