<?xml version="1.0" encoding="UTF-8"?>
<svg xmlns="http://www.w3.org/2000/svg" width="473.75" height="1680" viewBox="-50 -50 473.75 1680" data-d2-version="0.1.0">
<defs><marker id="arrow-triangle" markerWidth="10" markerHeight="10" refX="10" refY="5" orient="auto" markerUnits="strokeWidth"><path d="M0,0 L10,5 L0,10 Z" fill="#0A0F25"/></marker>
<marker id="arrow-triangle-reverse" markerWidth="10" markerHeight="10" refX="0" refY="5" orient="auto" markerUnits="strokeWidth"><path d="M10,0 L0,5 L10,10 Z" fill="#0A0F25"/></marker>
<marker id="arrow-diamond" markerWidth="10" markerHeight="10" refX="10" refY="5" orient="auto" markerUnits="strokeWidth"><path d="M0,5 L5,0 L10,5 L5,10 Z" fill="#0A0F25"/></marker>
<marker id="arrow-diamond-reverse" markerWidth="10" markerHeight="10" refX="0" refY="5" orient="auto" markerUnits="strokeWidth"><path d="M0,5 L5,0 L10,5 L5,10 Z" fill="#0A0F25"/></marker>
<marker id="arrow-circle" markerWidth="10" markerHeight="10" refX="6" refY="5" orient="auto" markerUnits="strokeWidth"><circle cx="5" cy="5" r="4" fill="#0A0F25"/></marker>
<marker id="arrow-circle-reverse" markerWidth="10" markerHeight="10" refX="4" refY="5" orient="auto" markerUnits="strokeWidth"><circle cx="5" cy="5" r="4" fill="#0A0F25"/></marker>
<marker id="arrow-cf-one" markerWidth="10" markerHeight="10" refX="10" refY="5" orient="auto" markerUnits="strokeWidth"><line x1="10" y1="0" x2="10" y2="10" stroke="#0A0F25" stroke-width="2"/></marker>
<marker id="arrow-cf-one-reverse" markerWidth="10" markerHeight="10" refX="0" refY="5" orient="auto" markerUnits="strokeWidth"><line x1="0" y1="0" x2="0" y2="10" stroke="#0A0F25" stroke-width="2"/></marker>
<marker id="arrow-cf-many" markerWidth="10" markerHeight="10" refX="10" refY="5" orient="auto" markerUnits="strokeWidth"><path d="M0,5 L10,0 M0,5 L10,5 M0,5 L10,10" stroke="#0A0F25" stroke-width="2" fill="none"/></marker>
<marker id="arrow-cf-many-reverse" markerWidth="10" markerHeight="10" refX="0" refY="5" orient="auto" markerUnits="strokeWidth"><path d="M10,5 L0,0 M10,5 L0,5 M10,5 L0,10" stroke="#0A0F25" stroke-width="2" fill="none"/></marker>
<marker id="arrow-cf-one-required" markerWidth="10" markerHeight="10" refX="10" refY="5" orient="auto" markerUnits="strokeWidth"><line x1="10" y1="0" x2="10" y2="10" stroke="#0A0F25" stroke-width="2"/><line x1="7" y1="0" x2="7" y2="10" stroke="#0A0F25" stroke-width="2"/></marker>
<marker id="arrow-cf-one-required-reverse" markerWidth="10" markerHeight="10" refX="0" refY="5" orient="auto" markerUnits="strokeWidth"><line x1="0" y1="0" x2="0" y2="10" stroke="#0A0F25" stroke-width="2"/><line x1="3" y1="0" x2="3" y2="10" stroke="#0A0F25" stroke-width="2"/></marker>
<marker id="arrow-cf-many-required" markerWidth="10" markerHeight="10" refX="10" refY="5" orient="auto" markerUnits="strokeWidth"><path d="M0,5 L10,0 M0,5 L10,5 M0,5 L10,10" stroke="#0A0F25" stroke-width="2" fill="none"/><line x1="3" y1="0" x2="3" y2="10" stroke="#0A0F25" stroke-width="2"/></marker>
<marker id="arrow-cf-many-required-reverse" markerWidth="10" markerHeight="10" refX="0" refY="5" orient="auto" markerUnits="strokeWidth"><path d="M10,5 L0,0 M10,5 L0,5 M10,5 L0,10" stroke="#0A0F25" stroke-width="2" fill="none"/><line x1="7" y1="0" x2="7" y2="10" stroke="#0A0F25" stroke-width="2"/></marker>
<marker id="arrow-cf-one-optional" markerWidth="10" markerHeight="10" refX="10" refY="5" orient="auto" markerUnits="strokeWidth"><line x1="10" y1="0" x2="10" y2="10" stroke="#0A0F25" stroke-width="2"/><circle cx="7" cy="5" r="2" stroke="#0A0F25" stroke-width="2" fill="white"/></marker>
<marker id="arrow-cf-one-optional-reverse" markerWidth="10" markerHeight="10" refX="0" refY="5" orient="auto" markerUnits="strokeWidth"><line x1="0" y1="0" x2="0" y2="10" stroke="#0A0F25" stroke-width="2"/><circle cx="3" cy="5" r="2" stroke="#0A0F25" stroke-width="2" fill="white"/></marker>
<marker id="arrow-cf-many-optional" markerWidth="10" markerHeight="10" refX="10" refY="5" orient="auto" markerUnits="strokeWidth"><path d="M0,5 L10,0 M0,5 L10,5 M0,5 L10,10" stroke="#0A0F25" stroke-width="2" fill="none"/><circle cx="3" cy="5" r="2" stroke="#0A0F25" stroke-width="2" fill="white"/></marker>
<marker id="arrow-cf-many-optional-reverse" markerWidth="10" markerHeight="10" refX="0" refY="5" orient="auto" markerUnits="strokeWidth"><path d="M10,5 L0,0 M10,5 L0,5 M10,5 L0,10" stroke="#0A0F25" stroke-width="2" fill="none"/><circle cx="7" cy="5" r="2" stroke="#0A0F25" stroke-width="2" fill="white"/></marker>
<marker id="arrow-line" markerWidth="10" markerHeight="10" refX="10" refY="5" orient="auto" markerUnits="strokeWidth"><line x1="10" y1="0" x2="10" y2="10" stroke="#0A0F25" stroke-width="2"/></marker>
<marker id="arrow-line-reverse" markerWidth="10" markerHeight="10" refX="0" refY="5" orient="auto" markerUnits="strokeWidth"><line x1="0" y1="0" x2="0" y2="10" stroke="#0A0F25" stroke-width="2"/></marker>
<marker id="arrow-open" markerWidth="10" markerHeight="10" refX="10" refY="5" orient="auto" markerUnits="strokeWidth"><path d="M0,0 L10,5 L0,10" stroke="#0A0F25" stroke-width="2" fill="none"/></marker>
<marker id="arrow-open-reverse" markerWidth="10" markerHeight="10" refX="0" refY="5" orient="auto" markerUnits="strokeWidth"><path d="M10,0 L0,5 L10,10" stroke="#0A0F25" stroke-width="2" fill="none"/></marker>
<marker id="arrow" markerWidth="10" markerHeight="10" refX="10" refY="5" orient="auto" markerUnits="strokeWidth"><path d="M0,0 L10,5 L0,10 Z" fill="#0A0F25"/></marker>
<marker id="arrow-reverse" markerWidth="10" markerHeight="10" refX="0" refY="5" orient="auto" markerUnits="strokeWidth"><path d="M10,0 L0,5 L10,10 Z" fill="#0A0F25"/></marker>
</defs>
<rect width="100%" height="100%" fill="#FFFFFF"/>
<g id="base-layer">
<rect x="108.75000000000001" y="50" width="215" height="400" fill="#FFFFFF" stroke="#0A0F25" stroke-width="2"/>
<rect x="108.75000000000001" y="50" width="215" height="80" fill="#0A0F25" stroke="none" stroke-width="0"/>
<line x1="108.75000000000001" y1="130" x2="323.75" y2="130" stroke="#0A0F25" stroke-width="2"/>
<line x1="108.75000000000001" y1="210" x2="323.75" y2="210" stroke="#0A0F25" stroke-width="2"/>
<line x1="108.75000000000001" y1="290" x2="323.75" y2="290" stroke="#0A0F25" stroke-width="2"/>
<line x1="108.75000000000001" y1="370" x2="323.75" y2="370" stroke="#0A0F25" stroke-width="2"/>
<rect x="50" y="550" width="215" height="480" fill="#FFFFFF" stroke="#0A0F25" stroke-width="2"/>
<rect x="50" y="550" width="215" height="80" fill="#0A0F25" stroke="none" stroke-width="0"/>
<line x1="50" y1="630" x2="265" y2="630" stroke="#0A0F25" stroke-width="2"/>
<line x1="50" y1="710" x2="265" y2="710" stroke="#0A0F25" stroke-width="2"/>
<line x1="50" y1="790" x2="265" y2="790" stroke="#0A0F25" stroke-width="2"/>
<line x1="50" y1="870" x2="265" y2="870" stroke="#0A0F25" stroke-width="2"/>
<line x1="50" y1="950" x2="265" y2="950" stroke="#0A0F25" stroke-width="2"/>
<rect x="116.25000000000001" y="1130" width="200" height="400" fill="#FFFFFF" stroke="#0A0F25" stroke-width="2"/>
<rect x="116.25000000000001" y="1130" width="200" height="80" fill="#0A0F25" stroke="none" stroke-width="0"/>
<line x1="116.25000000000001" y1="1210" x2="316.25" y2="1210" stroke="#0A0F25" stroke-width="2"/>
<line x1="116.25000000000001" y1="1290" x2="316.25" y2="1290" stroke="#0A0F25" stroke-width="2"/>
<line x1="116.25000000000001" y1="1370" x2="316.25" y2="1370" stroke="#0A0F25" stroke-width="2"/>
<line x1="116.25000000000001" y1="1450" x2="316.25" y2="1450" stroke="#0A0F25" stroke-width="2"/>
<path d="M 181.4502008459884 453.94300899560295 C 181.24349401012407 455.15440719648234 181.14014059219187 455.76010629692206 180.93343375632753 456.97150449780145 C 180.93343375632753 456.97150449780145 180.41666666666669 460 177.34439824873942 460 C 173.40663894924364 460 171.43775929949578 460 167.5 460 C 167.5 460 157.5 460 157.5 470 C 157.5 500.4 157.5 515.6 157.5 546" fill="none" stroke="#0A0F25" stroke-width="2" marker-start="url(#arrow-triangle-reverse)" marker-end="url(#arrow-triangle)"/>
<path d="M 157.5 1034 C 157.5 1035.2 157.5 1035.8 157.5 1037 C 157.5 1037 157.5 1040 160.5 1040 C 165.46666666666667 1040 167.95000000000002 1040 172.91666666666669 1040 C 172.91666666666669 1040 182.91666666666669 1040 184.05857339291165 1049.934588518331 C 187.55703666069724 1080.3712189480657 189.30626829459 1095.589534162933 192.8047315623756 1126.0261645926676" fill="none" stroke="#0A0F25" stroke-width="2" marker-start="url(#arrow-triangle-reverse)" marker-end="url(#arrow-triangle)"/>
<path d="M 251.0497991540116 453.94300899560295 C 251.25650598987593 455.15440719648234 251.35985940780813 455.76010629692206 251.56656624367247 456.97150449780145 C 251.56656624367247 456.97150449780145 252.08333333333331 460 255.15560175126058 460 C 259.09336105075636 460 261.0622407005042 460 265 460 C 265 460 275 460 275 470 C 275 694 275 806 275 1030 C 275 1030 275 1040 265 1040 C 262.8333333333333 1040 261.75 1040 259.5833333333333 1040 C 259.5833333333333 1040 249.58333333333331 1040 248.44142660708835 1049.934588518331 C 244.94296333930276 1080.3712189480657 243.19373170541 1095.589534162933 239.6952684376244 1126.0261645926676" fill="none" stroke="#0A0F25" stroke-width="2" marker-start="url(#arrow-triangle-reverse)" marker-end="url(#arrow-triangle)"/>
<text x="120.75000000000001" y="97.75" text-anchor="start" font-family="Arial, sans-serif" font-size="24">users</text>
<text x="120.75000000000001" y="175" text-anchor="start" font-family="Arial, sans-serif" font-size="20">id</text>
<text x="230.75" y="175" text-anchor="start" font-family="Arial, sans-serif" font-size="20">int</text>
<text x="314.75" y="175" text-anchor="end" font-family="Arial, sans-serif" font-size="20">PK</text>
<text x="120.75000000000001" y="255" text-anchor="start" font-family="Arial, sans-serif" font-size="20">name</text>
<text x="230.75" y="255" text-anchor="start" font-family="Arial, sans-serif" font-size="20">varchar(255)</text>
<text x="120.75000000000001" y="335" text-anchor="start" font-family="Arial, sans-serif" font-size="20">email</text>
<text x="230.75" y="335" text-anchor="start" font-family="Arial, sans-serif" font-size="20">varchar(255)</text>
<text x="314.75" y="335" text-anchor="end" font-family="Arial, sans-serif" font-size="20">UNQ</text>
<text x="120.75000000000001" y="415" text-anchor="start" font-family="Arial, sans-serif" font-size="20">created_at</text>
<text x="230.75" y="415" text-anchor="start" font-family="Arial, sans-serif" font-size="20">timestamp</text>
<text x="62" y="597.75" text-anchor="start" font-family="Arial, sans-serif" font-size="24">posts</text>
<text x="62" y="675" text-anchor="start" font-family="Arial, sans-serif" font-size="20">id</text>
<text x="164" y="675" text-anchor="start" font-family="Arial, sans-serif" font-size="20">int</text>
<text x="256" y="675" text-anchor="end" font-family="Arial, sans-serif" font-size="20">PK</text>
<text x="62" y="755" text-anchor="start" font-family="Arial, sans-serif" font-size="20">user_id</text>
<text x="164" y="755" text-anchor="start" font-family="Arial, sans-serif" font-size="20">int</text>
<text x="256" y="755" text-anchor="end" font-family="Arial, sans-serif" font-size="20">FK</text>
<text x="62" y="835" text-anchor="start" font-family="Arial, sans-serif" font-size="20">title</text>
<text x="164" y="835" text-anchor="start" font-family="Arial, sans-serif" font-size="20">varchar(255)</text>
<text x="62" y="915" text-anchor="start" font-family="Arial, sans-serif" font-size="20">content</text>
<text x="164" y="915" text-anchor="start" font-family="Arial, sans-serif" font-size="20">text</text>
<text x="62" y="995" text-anchor="start" font-family="Arial, sans-serif" font-size="20">published</text>
<text x="164" y="995" text-anchor="start" font-family="Arial, sans-serif" font-size="20">boolean</text>
<text x="128.25" y="1177.75" text-anchor="start" font-family="Arial, sans-serif" font-size="24">comments</text>
<text x="128.25" y="1255" text-anchor="start" font-family="Arial, sans-serif" font-size="20">id</text>
<text x="209.25" y="1255" text-anchor="start" font-family="Arial, sans-serif" font-size="20">int</text>
<text x="307.25" y="1255" text-anchor="end" font-family="Arial, sans-serif" font-size="20">PK</text>
<text x="128.25" y="1335" text-anchor="start" font-family="Arial, sans-serif" font-size="20">post_id</text>
<text x="209.25" y="1335" text-anchor="start" font-family="Arial, sans-serif" font-size="20">int</text>
<text x="307.25" y="1335" text-anchor="end" font-family="Arial, sans-serif" font-size="20">FK</text>
<text x="128.25" y="1415" text-anchor="start" font-family="Arial, sans-serif" font-size="20">user_id</text>
<text x="209.25" y="1415" text-anchor="start" font-family="Arial, sans-serif" font-size="20">int</text>
<text x="307.25" y="1415" text-anchor="end" font-family="Arial, sans-serif" font-size="20">FK</text>
<text x="128.25" y="1495" text-anchor="start" font-family="Arial, sans-serif" font-size="20">body</text>
<text x="209.25" y="1495" text-anchor="start" font-family="Arial, sans-serif" font-size="20">text</text>
</g>
</svg>
