<?xml version="1.0" encoding="UTF-8"?>
<svg xmlns="http://www.w3.org/2000/svg" width="1148" height="938" viewBox="-100 -100 1148 938" data-d2-version="0.2.0">
<defs><mask id="edge-label-mask" maskUnits="userSpaceOnUse" x="-100" y="-100" width="1148" height="938"><rect x="-100" y="-100" width="1148" height="938" fill="white"></rect></mask>
<marker id="mk-2090524415" markerWidth="10" markerHeight="12" refX="3" refY="6" viewBox="0 0 10 12" orient="auto" markerUnits="userSpaceOnUse"><polygon points="10,0 0,6 10,12" fill="#0D32B2" stroke-width="2"/></marker>
<marker id="mk-161592640" markerWidth="10" markerHeight="12" refX="7" refY="6" viewBox="0 0 10 12" orient="auto" markerUnits="userSpaceOnUse"><polygon points="0,0 10,6 0,12" fill="#0D32B2" stroke-width="2"/></marker>
</defs>
<rect x="-100" y="-100" width="1148" height="938" rx="0" fill="#FFFFFF" stroke-width="0"/>
<g id="base-layer">
<rect x="12" y="12" width="304" height="180" fill="#FFFFFF" stroke="#0A0F25" stroke-width="2"/>
<rect x="12" y="12" width="304" height="36" fill="#0A0F25"/>
<line x1="12" y1="48" x2="316" y2="48" stroke="#0A0F25" stroke-width="2"/>
<line x1="12" y1="84" x2="316" y2="84" stroke="#0A0F25" stroke-width="2"/>
<line x1="12" y1="120" x2="316" y2="120" stroke="#0A0F25" stroke-width="2"/>
<line x1="12" y1="156" x2="316" y2="156" stroke="#0A0F25" stroke-width="2"/>
<rect x="401" y="272" width="280" height="216" fill="#FFFFFF" stroke="#0A0F25" stroke-width="2"/>
<rect x="401" y="272" width="280" height="36" fill="#0A0F25"/>
<line x1="401" y1="308" x2="681" y2="308" stroke="#0A0F25" stroke-width="2"/>
<line x1="401" y1="344" x2="681" y2="344" stroke="#0A0F25" stroke-width="2"/>
<line x1="401" y1="380" x2="681" y2="380" stroke="#0A0F25" stroke-width="2"/>
<line x1="401" y1="416" x2="681" y2="416" stroke="#0A0F25" stroke-width="2"/>
<line x1="401" y1="452" x2="681" y2="452" stroke="#0A0F25" stroke-width="2"/>
<rect x="761" y="558" width="187" height="180" fill="#FFFFFF" stroke="#0A0F25" stroke-width="2"/>
<rect x="761" y="558" width="187" height="36" fill="#0A0F25"/>
<line x1="761" y1="594" x2="948" y2="594" stroke="#0A0F25" stroke-width="2"/>
<line x1="761" y1="630" x2="948" y2="630" stroke="#0A0F25" stroke-width="2"/>
<line x1="761" y1="666" x2="948" y2="666" stroke="#0A0F25" stroke-width="2"/>
<line x1="761" y1="702" x2="948" y2="702" stroke="#0A0F25" stroke-width="2"/>
<path d="M 320 66 L 346 66 S 356 66 356 76 L 356 229.25 C 356 234.75 361.5 229.25 361.5 234.75 L 361.5 352 S 361.5 362 371.5 362 L 397.5 362" fill="none" stroke="#0D32B2" stroke-width="2" marker-start="url(#mk-2090524415)" marker-end="url(#mk-161592640)" mask="url(#edge-label-mask)"/>
<path d="M 685.5 326 L 711.5 326 S 721.5 326 721.5 336 L 721.5 638 S 721.5 648 731.5 648 L 757.5 648" fill="none" stroke="#0D32B2" stroke-width="2" marker-start="url(#mk-2090524415)" marker-end="url(#mk-161592640)" mask="url(#edge-label-mask)"/>
<path d="M 320 66 L 346 66 S 356 66 356 76 L 356 229.25 C 356 234.75 350.5 229.25 350.5 234.75 L 350.5 674 S 350.5 684 360.5 684 L 757.5 684" fill="none" stroke="#0D32B2" stroke-width="2" marker-start="url(#mk-2090524415)" marker-end="url(#mk-161592640)" mask="url(#edge-label-mask)"/>
<text x="22" y="37.75" text-anchor="start" font-family="Arial, sans-serif" font-size="24" fill="#FFFFFF">users</text>
<text x="22" y="71" text-anchor="start" font-family="Arial, sans-serif" font-size="20" fill="#0D32B2">id</text>
<text x="133" y="71" text-anchor="start" font-family="Arial, sans-serif" font-size="20" fill="#676C7E">int</text>
<text x="306" y="71" text-anchor="end" font-family="Arial, sans-serif" font-size="20" fill="#4A6FF3">PK</text>
<text x="22" y="107" text-anchor="start" font-family="Arial, sans-serif" font-size="20" fill="#0D32B2">name</text>
<text x="133" y="107" text-anchor="start" font-family="Arial, sans-serif" font-size="20" fill="#676C7E">varchar(255)</text>
<text x="22" y="143" text-anchor="start" font-family="Arial, sans-serif" font-size="20" fill="#0D32B2">email</text>
<text x="133" y="143" text-anchor="start" font-family="Arial, sans-serif" font-size="20" fill="#676C7E">varchar(255)</text>
<text x="306" y="143" text-anchor="end" font-family="Arial, sans-serif" font-size="20" fill="#4A6FF3">UNQ</text>
<text x="22" y="179" text-anchor="start" font-family="Arial, sans-serif" font-size="20" fill="#0D32B2">created_at</text>
<text x="133" y="179" text-anchor="start" font-family="Arial, sans-serif" font-size="20" fill="#676C7E">timestamp</text>
<text x="411" y="297.75" text-anchor="start" font-family="Arial, sans-serif" font-size="24" fill="#FFFFFF">posts</text>
<text x="411" y="331" text-anchor="start" font-family="Arial, sans-serif" font-size="20" fill="#0D32B2">id</text>
<text x="513" y="331" text-anchor="start" font-family="Arial, sans-serif" font-size="20" fill="#676C7E">int</text>
<text x="671" y="331" text-anchor="end" font-family="Arial, sans-serif" font-size="20" fill="#4A6FF3">PK</text>
<text x="411" y="367" text-anchor="start" font-family="Arial, sans-serif" font-size="20" fill="#0D32B2">user_id</text>
<text x="513" y="367" text-anchor="start" font-family="Arial, sans-serif" font-size="20" fill="#676C7E">int</text>
<text x="671" y="367" text-anchor="end" font-family="Arial, sans-serif" font-size="20" fill="#4A6FF3">FK</text>
<text x="411" y="403" text-anchor="start" font-family="Arial, sans-serif" font-size="20" fill="#0D32B2">title</text>
<text x="513" y="403" text-anchor="start" font-family="Arial, sans-serif" font-size="20" fill="#676C7E">varchar(255)</text>
<text x="411" y="439" text-anchor="start" font-family="Arial, sans-serif" font-size="20" fill="#0D32B2">content</text>
<text x="513" y="439" text-anchor="start" font-family="Arial, sans-serif" font-size="20" fill="#676C7E">text</text>
<text x="411" y="475" text-anchor="start" font-family="Arial, sans-serif" font-size="20" fill="#0D32B2">published</text>
<text x="513" y="475" text-anchor="start" font-family="Arial, sans-serif" font-size="20" fill="#676C7E">boolean</text>
<text x="771" y="583.75" text-anchor="start" font-family="Arial, sans-serif" font-size="24" fill="#FFFFFF">comments</text>
<text x="771" y="617" text-anchor="start" font-family="Arial, sans-serif" font-size="20" fill="#0D32B2">id</text>
<text x="852" y="617" text-anchor="start" font-family="Arial, sans-serif" font-size="20" fill="#676C7E">int</text>
<text x="938" y="617" text-anchor="end" font-family="Arial, sans-serif" font-size="20" fill="#4A6FF3">PK</text>
<text x="771" y="653" text-anchor="start" font-family="Arial, sans-serif" font-size="20" fill="#0D32B2">post_id</text>
<text x="852" y="653" text-anchor="start" font-family="Arial, sans-serif" font-size="20" fill="#676C7E">int</text>
<text x="938" y="653" text-anchor="end" font-family="Arial, sans-serif" font-size="20" fill="#4A6FF3">FK</text>
<text x="771" y="689" text-anchor="start" font-family="Arial, sans-serif" font-size="20" fill="#0D32B2">user_id</text>
<text x="852" y="689" text-anchor="start" font-family="Arial, sans-serif" font-size="20" fill="#676C7E">int</text>
<text x="938" y="689" text-anchor="end" font-family="Arial, sans-serif" font-size="20" fill="#4A6FF3">FK</text>
<text x="771" y="725" text-anchor="start" font-family="Arial, sans-serif" font-size="20" fill="#0D32B2">body</text>
<text x="852" y="725" text-anchor="start" font-family="Arial, sans-serif" font-size="20" fill="#676C7E">text</text>
</g>
</svg>
