<?xml version="1.0" encoding="UTF-8"?>
<svg xmlns="http://www.w3.org/2000/svg" width="1148.5" height="938" viewBox="-100 -100 1148.5 938" data-d2-version="0.1.0">
<defs><marker id="arrow-triangle" markerWidth="10" markerHeight="10" refX="10" refY="5" orient="auto" markerUnits="strokeWidth"><path d="M0,0 L10,5 L0,10 Z" fill="#0A0F25"/></marker>
<marker id="arrow-triangle-reverse" markerWidth="10" markerHeight="10" refX="0" refY="5" orient="auto" markerUnits="strokeWidth"><path d="M10,0 L0,5 L10,10 Z" fill="#0A0F25"/></marker>
<marker id="arrow-diamond" markerWidth="10" markerHeight="10" refX="10" refY="5" orient="auto" markerUnits="strokeWidth"><path d="M0,5 L5,0 L10,5 L5,10 Z" fill="#0A0F25"/></marker>
<marker id="arrow-diamond-reverse" markerWidth="10" markerHeight="10" refX="0" refY="5" orient="auto" markerUnits="strokeWidth"><path d="M0,5 L5,0 L10,5 L5,10 Z" fill="#0A0F25"/></marker>
<marker id="arrow-circle" markerWidth="10" markerHeight="10" refX="6" refY="5" orient="auto" markerUnits="strokeWidth"><circle cx="5" cy="5" r="4" fill="#0A0F25"/></marker>
<marker id="arrow-circle-reverse" markerWidth="10" markerHeight="10" refX="4" refY="5" orient="auto" markerUnits="strokeWidth"><circle cx="5" cy="5" r="4" fill="#0A0F25"/></marker>
<marker id="arrow-cf-one" markerWidth="10" markerHeight="10" refX="10" refY="5" orient="auto" markerUnits="strokeWidth"><line x1="10" y1="0" x2="10" y2="10" stroke="#0A0F25" stroke-width="2"/></marker>
<marker id="arrow-cf-one-reverse" markerWidth="10" markerHeight="10" refX="0" refY="5" orient="auto" markerUnits="strokeWidth"><line x1="0" y1="0" x2="0" y2="10" stroke="#0A0F25" stroke-width="2"/></marker>
<marker id="arrow-cf-many" markerWidth="10" markerHeight="10" refX="10" refY="5" orient="auto" markerUnits="strokeWidth"><path d="M0,5 L10,0 M0,5 L10,5 M0,5 L10,10" stroke="#0A0F25" stroke-width="2" fill="none"/></marker>
<marker id="arrow-cf-many-reverse" markerWidth="10" markerHeight="10" refX="0" refY="5" orient="auto" markerUnits="strokeWidth"><path d="M10,5 L0,0 M10,5 L0,5 M10,5 L0,10" stroke="#0A0F25" stroke-width="2" fill="none"/></marker>
<marker id="arrow-cf-one-required" markerWidth="10" markerHeight="10" refX="10" refY="5" orient="auto" markerUnits="strokeWidth"><line x1="10" y1="0" x2="10" y2="10" stroke="#0A0F25" stroke-width="2"/><line x1="7" y1="0" x2="7" y2="10" stroke="#0A0F25" stroke-width="2"/></marker>
<marker id="arrow-cf-one-required-reverse" markerWidth="10" markerHeight="10" refX="0" refY="5" orient="auto" markerUnits="strokeWidth"><line x1="0" y1="0" x2="0" y2="10" stroke="#0A0F25" stroke-width="2"/><line x1="3" y1="0" x2="3" y2="10" stroke="#0A0F25" stroke-width="2"/></marker>
<marker id="arrow-cf-many-required" markerWidth="10" markerHeight="10" refX="10" refY="5" orient="auto" markerUnits="strokeWidth"><path d="M0,5 L10,0 M0,5 L10,5 M0,5 L10,10" stroke="#0A0F25" stroke-width="2" fill="none"/><line x1="3" y1="0" x2="3" y2="10" stroke="#0A0F25" stroke-width="2"/></marker>
<marker id="arrow-cf-many-required-reverse" markerWidth="10" markerHeight="10" refX="0" refY="5" orient="auto" markerUnits="strokeWidth"><path d="M10,5 L0,0 M10,5 L0,5 M10,5 L0,10" stroke="#0A0F25" stroke-width="2" fill="none"/><line x1="7" y1="0" x2="7" y2="10" stroke="#0A0F25" stroke-width="2"/></marker>
<marker id="arrow-cf-one-optional" markerWidth="10" markerHeight="10" refX="10" refY="5" orient="auto" markerUnits="strokeWidth"><line x1="10" y1="0" x2="10" y2="10" stroke="#0A0F25" stroke-width="2"/><circle cx="7" cy="5" r="2" stroke="#0A0F25" stroke-width="2" fill="white"/></marker>
<marker id="arrow-cf-one-optional-reverse" markerWidth="10" markerHeight="10" refX="0" refY="5" orient="auto" markerUnits="strokeWidth"><line x1="0" y1="0" x2="0" y2="10" stroke="#0A0F25" stroke-width="2"/><circle cx="3" cy="5" r="2" stroke="#0A0F25" stroke-width="2" fill="white"/></marker>
<marker id="arrow-cf-many-optional" markerWidth="10" markerHeight="10" refX="10" refY="5" orient="auto" markerUnits="strokeWidth"><path d="M0,5 L10,0 M0,5 L10,5 M0,5 L10,10" stroke="#0A0F25" stroke-width="2" fill="none"/><circle cx="3" cy="5" r="2" stroke="#0A0F25" stroke-width="2" fill="white"/></marker>
<marker id="arrow-cf-many-optional-reverse" markerWidth="10" markerHeight="10" refX="0" refY="5" orient="auto" markerUnits="strokeWidth"><path d="M10,5 L0,0 M10,5 L0,5 M10,5 L0,10" stroke="#0A0F25" stroke-width="2" fill="none"/><circle cx="7" cy="5" r="2" stroke="#0A0F25" stroke-width="2" fill="white"/></marker>
<marker id="arrow-line" markerWidth="10" markerHeight="10" refX="10" refY="5" orient="auto" markerUnits="strokeWidth"><line x1="10" y1="0" x2="10" y2="10" stroke="#0A0F25" stroke-width="2"/></marker>
<marker id="arrow-line-reverse" markerWidth="10" markerHeight="10" refX="0" refY="5" orient="auto" markerUnits="strokeWidth"><line x1="0" y1="0" x2="0" y2="10" stroke="#0A0F25" stroke-width="2"/></marker>
<marker id="arrow-open" markerWidth="10" markerHeight="10" refX="10" refY="5" orient="auto" markerUnits="strokeWidth"><path d="M0,0 L10,5 L0,10" stroke="#0A0F25" stroke-width="2" fill="none"/></marker>
<marker id="arrow-open-reverse" markerWidth="10" markerHeight="10" refX="0" refY="5" orient="auto" markerUnits="strokeWidth"><path d="M10,0 L0,5 L10,10" stroke="#0A0F25" stroke-width="2" fill="none"/></marker>
<marker id="arrow" markerWidth="10" markerHeight="10" refX="10" refY="5" orient="auto" markerUnits="strokeWidth"><path d="M0,0 L10,5 L0,10 Z" fill="#0A0F25"/></marker>
<marker id="arrow-reverse" markerWidth="10" markerHeight="10" refX="0" refY="5" orient="auto" markerUnits="strokeWidth"><path d="M10,0 L0,5 L10,10 Z" fill="#0A0F25"/></marker>
</defs>
<rect width="100%" height="100%" fill="#FFFFFF"/>
<g id="base-layer">
<rect x="12" y="12" width="304" height="180" fill="#FFFFFF" stroke="#0A0F25" stroke-width="2"/>
<rect x="12" y="12" width="304" height="36" fill="#0A0F25" stroke="none" stroke-width="0"/>
<line x1="12" y1="48" x2="316" y2="48" stroke="#0A0F25" stroke-width="2"/>
<line x1="12" y1="84" x2="316" y2="84" stroke="#0A0F25" stroke-width="2"/>
<line x1="12" y1="120" x2="316" y2="120" stroke="#0A0F25" stroke-width="2"/>
<line x1="12" y1="156" x2="316" y2="156" stroke="#0A0F25" stroke-width="2"/>
<rect x="401.5" y="272" width="280" height="216" fill="#FFFFFF" stroke="#0A0F25" stroke-width="2"/>
<rect x="401.5" y="272" width="280" height="36" fill="#0A0F25" stroke="none" stroke-width="0"/>
<line x1="401.5" y1="308" x2="681.5" y2="308" stroke="#0A0F25" stroke-width="2"/>
<line x1="401.5" y1="344" x2="681.5" y2="344" stroke="#0A0F25" stroke-width="2"/>
<line x1="401.5" y1="380" x2="681.5" y2="380" stroke="#0A0F25" stroke-width="2"/>
<line x1="401.5" y1="416" x2="681.5" y2="416" stroke="#0A0F25" stroke-width="2"/>
<line x1="401.5" y1="452" x2="681.5" y2="452" stroke="#0A0F25" stroke-width="2"/>
<rect x="761.5" y="558" width="187" height="180" fill="#FFFFFF" stroke="#0A0F25" stroke-width="2"/>
<rect x="761.5" y="558" width="187" height="36" fill="#0A0F25" stroke="none" stroke-width="0"/>
<line x1="761.5" y1="594" x2="948.5" y2="594" stroke="#0A0F25" stroke-width="2"/>
<line x1="761.5" y1="630" x2="948.5" y2="630" stroke="#0A0F25" stroke-width="2"/>
<line x1="761.5" y1="666" x2="948.5" y2="666" stroke="#0A0F25" stroke-width="2"/>
<line x1="761.5" y1="702" x2="948.5" y2="702" stroke="#0A0F25" stroke-width="2"/>
<path d="M 320 66 L 346 66 C 346 66 356 66 356 76 L 356 352 C 356 352 356 362 366 362 L 397.5 362" fill="none" stroke="#0A0F25" stroke-width="2" marker-start="url(#arrow-triangle-reverse)" marker-end="url(#arrow-triangle)"/>
<path d="M 685.5 326 L 711.5 326 C 711.5 326 721.5 326 721.5 336 L 721.5 638 C 721.5 638 721.5 648 731.5 648 L 757.5 648" fill="none" stroke="#0A0F25" stroke-width="2" marker-start="url(#arrow-triangle-reverse)" marker-end="url(#arrow-triangle)"/>
<path d="M 320 66 L 346 66 C 346 66 356 66 356 76 L 356 229.25 C 356 229.25 356 232 353.25 232 L 353.25 232 C 353.25 232 350.5 232 350.5 234.75 L 350.5 674 C 350.5 674 350.5 684 360.5 684 L 757.5 684" fill="none" stroke="#0A0F25" stroke-width="2" marker-start="url(#arrow-triangle-reverse)" marker-end="url(#arrow-triangle)"/>
<text x="24" y="37.75" text-anchor="start" font-family="Arial, sans-serif" font-size="24">users</text>
<text x="24" y="71" text-anchor="start" font-family="Arial, sans-serif" font-size="20">id</text>
<text x="134" y="71" text-anchor="start" font-family="Arial, sans-serif" font-size="20">int</text>
<text x="306" y="71" text-anchor="end" font-family="Arial, sans-serif" font-size="20">PK</text>
<text x="24" y="107" text-anchor="start" font-family="Arial, sans-serif" font-size="20">name</text>
<text x="134" y="107" text-anchor="start" font-family="Arial, sans-serif" font-size="20">varchar(255)</text>
<text x="24" y="143" text-anchor="start" font-family="Arial, sans-serif" font-size="20">email</text>
<text x="134" y="143" text-anchor="start" font-family="Arial, sans-serif" font-size="20">varchar(255)</text>
<text x="306" y="143" text-anchor="end" font-family="Arial, sans-serif" font-size="20">UNQ</text>
<text x="24" y="179" text-anchor="start" font-family="Arial, sans-serif" font-size="20">created_at</text>
<text x="134" y="179" text-anchor="start" font-family="Arial, sans-serif" font-size="20">timestamp</text>
<text x="413.5" y="297.75" text-anchor="start" font-family="Arial, sans-serif" font-size="24">posts</text>
<text x="413.5" y="331" text-anchor="start" font-family="Arial, sans-serif" font-size="20">id</text>
<text x="515.5" y="331" text-anchor="start" font-family="Arial, sans-serif" font-size="20">int</text>
<text x="672.5" y="331" text-anchor="end" font-family="Arial, sans-serif" font-size="20">PK</text>
<text x="413.5" y="367" text-anchor="start" font-family="Arial, sans-serif" font-size="20">user_id</text>
<text x="515.5" y="367" text-anchor="start" font-family="Arial, sans-serif" font-size="20">int</text>
<text x="672.5" y="367" text-anchor="end" font-family="Arial, sans-serif" font-size="20">FK</text>
<text x="413.5" y="403" text-anchor="start" font-family="Arial, sans-serif" font-size="20">title</text>
<text x="515.5" y="403" text-anchor="start" font-family="Arial, sans-serif" font-size="20">varchar(255)</text>
<text x="413.5" y="439" text-anchor="start" font-family="Arial, sans-serif" font-size="20">content</text>
<text x="515.5" y="439" text-anchor="start" font-family="Arial, sans-serif" font-size="20">text</text>
<text x="413.5" y="475" text-anchor="start" font-family="Arial, sans-serif" font-size="20">published</text>
<text x="515.5" y="475" text-anchor="start" font-family="Arial, sans-serif" font-size="20">boolean</text>
<text x="773.5" y="583.75" text-anchor="start" font-family="Arial, sans-serif" font-size="24">comments</text>
<text x="773.5" y="617" text-anchor="start" font-family="Arial, sans-serif" font-size="20">id</text>
<text x="854.5" y="617" text-anchor="start" font-family="Arial, sans-serif" font-size="20">int</text>
<text x="939.5" y="617" text-anchor="end" font-family="Arial, sans-serif" font-size="20">PK</text>
<text x="773.5" y="653" text-anchor="start" font-family="Arial, sans-serif" font-size="20">post_id</text>
<text x="854.5" y="653" text-anchor="start" font-family="Arial, sans-serif" font-size="20">int</text>
<text x="939.5" y="653" text-anchor="end" font-family="Arial, sans-serif" font-size="20">FK</text>
<text x="773.5" y="689" text-anchor="start" font-family="Arial, sans-serif" font-size="20">user_id</text>
<text x="854.5" y="689" text-anchor="start" font-family="Arial, sans-serif" font-size="20">int</text>
<text x="939.5" y="689" text-anchor="end" font-family="Arial, sans-serif" font-size="20">FK</text>
<text x="773.5" y="725" text-anchor="start" font-family="Arial, sans-serif" font-size="20">body</text>
<text x="854.5" y="725" text-anchor="start" font-family="Arial, sans-serif" font-size="20">text</text>
</g>
</svg>
