<?xml version="1.0" encoding="UTF-8"?>
<svg xmlns="http://www.w3.org/2000/svg" width="450.8333333333333" height="1680" viewBox="-50 -50 450.8333333333333 1680" data-d2-version="0.1.0">
<defs><marker id="arrow-triangle" markerWidth="10" markerHeight="10" refX="10" refY="5" orient="auto" markerUnits="strokeWidth"><path d="M0,0 L10,5 L0,10 Z" fill="#0A0F25"/></marker>
<marker id="arrow-triangle-reverse" markerWidth="10" markerHeight="10" refX="0" refY="5" orient="auto" markerUnits="strokeWidth"><path d="M10,0 L0,5 L10,10 Z" fill="#0A0F25"/></marker>
<marker id="arrow-diamond" markerWidth="10" markerHeight="10" refX="10" refY="5" orient="auto" markerUnits="strokeWidth"><path d="M0,5 L5,0 L10,5 L5,10 Z" fill="#0A0F25"/></marker>
<marker id="arrow-diamond-reverse" markerWidth="10" markerHeight="10" refX="0" refY="5" orient="auto" markerUnits="strokeWidth"><path d="M0,5 L5,0 L10,5 L5,10 Z" fill="#0A0F25"/></marker>
<marker id="arrow-circle" markerWidth="10" markerHeight="10" refX="6" refY="5" orient="auto" markerUnits="strokeWidth"><circle cx="5" cy="5" r="4" fill="#0A0F25"/></marker>
<marker id="arrow-circle-reverse" markerWidth="10" markerHeight="10" refX="4" refY="5" orient="auto" markerUnits="strokeWidth"><circle cx="5" cy="5" r="4" fill="#0A0F25"/></marker>
<marker id="arrow-cf-one" markerWidth="10" markerHeight="10" refX="10" refY="5" orient="auto" markerUnits="strokeWidth"><line x1="10" y1="0" x2="10" y2="10" stroke="#0A0F25" stroke-width="2"/></marker>
<marker id="arrow-cf-one-reverse" markerWidth="10" markerHeight="10" refX="0" refY="5" orient="auto" markerUnits="strokeWidth"><line x1="0" y1="0" x2="0" y2="10" stroke="#0A0F25" stroke-width="2"/></marker>
<marker id="arrow-cf-many" markerWidth="10" markerHeight="10" refX="10" refY="5" orient="auto" markerUnits="strokeWidth"><path d="M0,5 L10,0 M0,5 L10,5 M0,5 L10,10" stroke="#0A0F25" stroke-width="2" fill="none"/></marker>
<marker id="arrow-cf-many-reverse" markerWidth="10" markerHeight="10" refX="0" refY="5" orient="auto" markerUnits="strokeWidth"><path d="M10,5 L0,0 M10,5 L0,5 M10,5 L0,10" stroke="#0A0F25" stroke-width="2" fill="none"/></marker>
<marker id="arrow-cf-one-required" markerWidth="10" markerHeight="10" refX="10" refY="5" orient="auto" markerUnits="strokeWidth"><line x1="10" y1="0" x2="10" y2="10" stroke="#0A0F25" stroke-width="2"/><line x1="7" y1="0" x2="7" y2="10" stroke="#0A0F25" stroke-width="2"/></marker>
<marker id="arrow-cf-one-required-reverse" markerWidth="10" markerHeight="10" refX="0" refY="5" orient="auto" markerUnits="strokeWidth"><line x1="0" y1="0" x2="0" y2="10" stroke="#0A0F25" stroke-width="2"/><line x1="3" y1="0" x2="3" y2="10" stroke="#0A0F25" stroke-width="2"/></marker>
<marker id="arrow-cf-many-required" markerWidth="10" markerHeight="10" refX="10" refY="5" orient="auto" markerUnits="strokeWidth"><path d="M0,5 L10,0 M0,5 L10,5 M0,5 L10,10" stroke="#0A0F25" stroke-width="2" fill="none"/><line x1="3" y1="0" x2="3" y2="10" stroke="#0A0F25" stroke-width="2"/></marker>
<marker id="arrow-cf-many-required-reverse" markerWidth="10" markerHeight="10" refX="0" refY="5" orient="auto" markerUnits="strokeWidth"><path d="M10,5 L0,0 M10,5 L0,5 M10,5 L0,10" stroke="#0A0F25" stroke-width="2" fill="none"/><line x1="7" y1="0" x2="7" y2="10" stroke="#0A0F25" stroke-width="2"/></marker>
<marker id="arrow-cf-one-optional" markerWidth="10" markerHeight="10" refX="10" refY="5" orient="auto" markerUnits="strokeWidth"><line x1="10" y1="0" x2="10" y2="10" stroke="#0A0F25" stroke-width="2"/><circle cx="7" cy="5" r="2" stroke="#0A0F25" stroke-width="2" fill="white"/></marker>
<marker id="arrow-cf-one-optional-reverse" markerWidth="10" markerHeight="10" refX="0" refY="5" orient="auto" markerUnits="strokeWidth"><line x1="0" y1="0" x2="0" y2="10" stroke="#0A0F25" stroke-width="2"/><circle cx="3" cy="5" r="2" stroke="#0A0F25" stroke-width="2" fill="white"/></marker>
<marker id="arrow-cf-many-optional" markerWidth="10" markerHeight="10" refX="10" refY="5" orient="auto" markerUnits="strokeWidth"><path d="M0,5 L10,0 M0,5 L10,5 M0,5 L10,10" stroke="#0A0F25" stroke-width="2" fill="none"/><circle cx="3" cy="5" r="2" stroke="#0A0F25" stroke-width="2" fill="white"/></marker>
<marker id="arrow-cf-many-optional-reverse" markerWidth="10" markerHeight="10" refX="0" refY="5" orient="auto" markerUnits="strokeWidth"><path d="M10,5 L0,0 M10,5 L0,5 M10,5 L0,10" stroke="#0A0F25" stroke-width="2" fill="none"/><circle cx="7" cy="5" r="2" stroke="#0A0F25" stroke-width="2" fill="white"/></marker>
<marker id="arrow-line" markerWidth="10" markerHeight="10" refX="10" refY="5" orient="auto" markerUnits="strokeWidth"><line x1="10" y1="0" x2="10" y2="10" stroke="#0A0F25" stroke-width="2"/></marker>
<marker id="arrow-line-reverse" markerWidth="10" markerHeight="10" refX="0" refY="5" orient="auto" markerUnits="strokeWidth"><line x1="0" y1="0" x2="0" y2="10" stroke="#0A0F25" stroke-width="2"/></marker>
<marker id="arrow-open" markerWidth="10" markerHeight="10" refX="10" refY="5" orient="auto" markerUnits="strokeWidth"><path d="M0,0 L10,5 L0,10" stroke="#0A0F25" stroke-width="2" fill="none"/></marker>
<marker id="arrow-open-reverse" markerWidth="10" markerHeight="10" refX="0" refY="5" orient="auto" markerUnits="strokeWidth"><path d="M10,0 L0,5 L10,10" stroke="#0A0F25" stroke-width="2" fill="none"/></marker>
<marker id="arrow" markerWidth="10" markerHeight="10" refX="10" refY="5" orient="auto" markerUnits="strokeWidth"><path d="M0,0 L10,5 L0,10 Z" fill="#0A0F25"/></marker>
<marker id="arrow-reverse" markerWidth="10" markerHeight="10" refX="0" refY="5" orient="auto" markerUnits="strokeWidth"><path d="M10,0 L0,5 L10,10 Z" fill="#0A0F25"/></marker>
</defs>
<rect width="100%" height="100%" fill="#FFFFFF"/>
<g id="base-layer">
<rect x="50" y="50" width="215" height="400" fill="#FFFFFF" stroke="#0A0F25" stroke-width="2"/>
<rect x="50" y="50" width="215" height="80" fill="#0A0F25" stroke="none" stroke-width="0"/>
<line x1="50" y1="130" x2="265" y2="130" stroke="#0A0F25" stroke-width="2"/>
<line x1="50" y1="210" x2="265" y2="210" stroke="#0A0F25" stroke-width="2"/>
<line x1="50" y1="290" x2="265" y2="290" stroke="#0A0F25" stroke-width="2"/>
<line x1="50" y1="370" x2="265" y2="370" stroke="#0A0F25" stroke-width="2"/>
<rect x="85.83333333333331" y="550" width="215" height="480" fill="#FFFFFF" stroke="#0A0F25" stroke-width="2"/>
<rect x="85.83333333333331" y="550" width="215" height="80" fill="#0A0F25" stroke="none" stroke-width="0"/>
<line x1="85.83333333333331" y1="630" x2="300.8333333333333" y2="630" stroke="#0A0F25" stroke-width="2"/>
<line x1="85.83333333333331" y1="710" x2="300.8333333333333" y2="710" stroke="#0A0F25" stroke-width="2"/>
<line x1="85.83333333333331" y1="790" x2="300.8333333333333" y2="790" stroke="#0A0F25" stroke-width="2"/>
<line x1="85.83333333333331" y1="870" x2="300.8333333333333" y2="870" stroke="#0A0F25" stroke-width="2"/>
<line x1="85.83333333333331" y1="950" x2="300.8333333333333" y2="950" stroke="#0A0F25" stroke-width="2"/>
<rect x="60" y="1130" width="200" height="400" fill="#FFFFFF" stroke="#0A0F25" stroke-width="2"/>
<rect x="60" y="1130" width="200" height="80" fill="#0A0F25" stroke="none" stroke-width="0"/>
<line x1="60" y1="1210" x2="260" y2="1210" stroke="#0A0F25" stroke-width="2"/>
<line x1="60" y1="1290" x2="260" y2="1290" stroke="#0A0F25" stroke-width="2"/>
<line x1="60" y1="1370" x2="260" y2="1370" stroke="#0A0F25" stroke-width="2"/>
<line x1="60" y1="1450" x2="260" y2="1450" stroke="#0A0F25" stroke-width="2"/>
<path d="M 181.52932513051132 453.99753394757806 C 182.82220489538332 490.7995067895156 183.4686447778193 509.2004932104844 184.7615245426913 546.0024660524219" fill="none" stroke="#0A0F25" stroke-width="2" marker-start="url(#arrow-triangle-reverse)" marker-end="url(#arrow-triangle)"/>
<path d="M 192.89160722903392 1033.9755349386944 C 188.80054366802898 1070.7951069877388 186.75501188752654 1089.2048930122612 182.6639483265216 1126.0244650613056" fill="none" stroke="#0A0F25" stroke-width="2" marker-start="url(#arrow-triangle-reverse)" marker-end="url(#arrow-triangle)"/>
<path d="M 122.70020084598838 453.94300899560295 C 122.49349401012404 455.15440719648234 122.39014059219186 455.76010629692206 122.18343375632752 456.97150449780145 C 122.18343375632752 456.97150449780145 121.66666666666666 460 118.5943982487394 460 C 105.08997228257697 460 98.33775929949574 460 84.83333333333331 460 C 84.83333333333331 460 74.83333333333331 460 74.83333333333331 470 C 74.83333333333331 694 74.83333333333331 806 74.83333333333331 1030 C 74.83333333333331 1030 74.83333333333331 1040 84.83333333333331 1040 C 97.56666666666665 1040 103.93333333333332 1040 116.66666666666666 1040 C 116.66666666666666 1040 126.66666666666666 1040 127.80857339291161 1049.934588518331 C 131.30703666069718 1080.3712189480657 133.05626829458998 1095.589534162933 136.55473156237557 1126.0261645926676" fill="none" stroke="#0A0F25" stroke-width="2" marker-start="url(#arrow-triangle-reverse)" marker-end="url(#arrow-triangle)"/>
<text x="62" y="97.75" text-anchor="start" font-family="Arial, sans-serif" font-size="24">users</text>
<text x="62" y="175" text-anchor="start" font-family="Arial, sans-serif" font-size="20">id</text>
<text x="172" y="175" text-anchor="start" font-family="Arial, sans-serif" font-size="20">int</text>
<text x="256" y="175" text-anchor="end" font-family="Arial, sans-serif" font-size="20">PK</text>
<text x="62" y="255" text-anchor="start" font-family="Arial, sans-serif" font-size="20">name</text>
<text x="172" y="255" text-anchor="start" font-family="Arial, sans-serif" font-size="20">varchar(255)</text>
<text x="62" y="335" text-anchor="start" font-family="Arial, sans-serif" font-size="20">email</text>
<text x="172" y="335" text-anchor="start" font-family="Arial, sans-serif" font-size="20">varchar(255)</text>
<text x="256" y="335" text-anchor="end" font-family="Arial, sans-serif" font-size="20">UNQ</text>
<text x="62" y="415" text-anchor="start" font-family="Arial, sans-serif" font-size="20">created_at</text>
<text x="172" y="415" text-anchor="start" font-family="Arial, sans-serif" font-size="20">timestamp</text>
<text x="97.83333333333331" y="597.75" text-anchor="start" font-family="Arial, sans-serif" font-size="24">posts</text>
<text x="97.83333333333331" y="675" text-anchor="start" font-family="Arial, sans-serif" font-size="20">id</text>
<text x="199.83333333333331" y="675" text-anchor="start" font-family="Arial, sans-serif" font-size="20">int</text>
<text x="291.8333333333333" y="675" text-anchor="end" font-family="Arial, sans-serif" font-size="20">PK</text>
<text x="97.83333333333331" y="755" text-anchor="start" font-family="Arial, sans-serif" font-size="20">user_id</text>
<text x="199.83333333333331" y="755" text-anchor="start" font-family="Arial, sans-serif" font-size="20">int</text>
<text x="291.8333333333333" y="755" text-anchor="end" font-family="Arial, sans-serif" font-size="20">FK</text>
<text x="97.83333333333331" y="835" text-anchor="start" font-family="Arial, sans-serif" font-size="20">title</text>
<text x="199.83333333333331" y="835" text-anchor="start" font-family="Arial, sans-serif" font-size="20">varchar(255)</text>
<text x="97.83333333333331" y="915" text-anchor="start" font-family="Arial, sans-serif" font-size="20">content</text>
<text x="199.83333333333331" y="915" text-anchor="start" font-family="Arial, sans-serif" font-size="20">text</text>
<text x="97.83333333333331" y="995" text-anchor="start" font-family="Arial, sans-serif" font-size="20">published</text>
<text x="199.83333333333331" y="995" text-anchor="start" font-family="Arial, sans-serif" font-size="20">boolean</text>
<text x="72" y="1177.75" text-anchor="start" font-family="Arial, sans-serif" font-size="24">comments</text>
<text x="72" y="1255" text-anchor="start" font-family="Arial, sans-serif" font-size="20">id</text>
<text x="153" y="1255" text-anchor="start" font-family="Arial, sans-serif" font-size="20">int</text>
<text x="251" y="1255" text-anchor="end" font-family="Arial, sans-serif" font-size="20">PK</text>
<text x="72" y="1335" text-anchor="start" font-family="Arial, sans-serif" font-size="20">post_id</text>
<text x="153" y="1335" text-anchor="start" font-family="Arial, sans-serif" font-size="20">int</text>
<text x="251" y="1335" text-anchor="end" font-family="Arial, sans-serif" font-size="20">FK</text>
<text x="72" y="1415" text-anchor="start" font-family="Arial, sans-serif" font-size="20">user_id</text>
<text x="153" y="1415" text-anchor="start" font-family="Arial, sans-serif" font-size="20">int</text>
<text x="251" y="1415" text-anchor="end" font-family="Arial, sans-serif" font-size="20">FK</text>
<text x="72" y="1495" text-anchor="start" font-family="Arial, sans-serif" font-size="20">body</text>
<text x="153" y="1495" text-anchor="start" font-family="Arial, sans-serif" font-size="20">text</text>
</g>
</svg>
