<?xml version="1.0" encoding="UTF-8"?>
<svg xmlns="http://www.w3.org/2000/svg" width="503" height="763" viewBox="-89 -89 503 763" data-d2-version="0.2.0" class="d2-1341585658 d2-svg">
<defs><mask id="edge-label-mask" maskUnits="userSpaceOnUse" x="-89" y="-89" width="503" height="763"><rect x="-89" y="-89" width="503" height="763" fill="white"></rect><rect x="41" y="151" width="53" height="21" fill="black"></rect></mask>
<mask id="border-mask-1267179592" maskUnits="userSpaceOnUse" x="12" y="492" width="109" height="81"><rect x="12" y="492" width="109" height="81" fill="white"></rect><path d="M 12 507 L 27 492 L 121 492 L 121 558 L 106 573 L 12 573 L 12 507 L 106 507 L 106 573 M 106 507 L 121 492" style="stroke-width:2;stroke:#000;fill:none;opacity:1;"/></mask>
<marker id="mk-1554537013" markerWidth="10" markerHeight="12" refX="7" refY="6" viewBox="0 0 10 12" orient="auto" markerUnits="userSpaceOnUse"><polygon points="0,0 10,6 0,12" fill="#666" stroke-width="2"/></marker>
<marker id="mk-161592640" markerWidth="10" markerHeight="12" refX="7" refY="6" viewBox="0 0 10 12" orient="auto" markerUnits="userSpaceOnUse"><polygon points="0,0 10,6 0,12" fill="#0D32B2" stroke-width="2"/></marker>
</defs>
<rect x="-89" y="-89" width="503" height="763" rx="0" fill="#FFFFFF" stroke-width="0"/>
<g id="base-layer">
<rect x="84" y="12" width="126" height="66" fill="#e8f4f8" stroke="#2196F3" stroke-width="2" rx="0" ry="0"/>
<path d="M 12 328 C 12 304 61.5 304 67 304 C 72.5 304 122 304 122 328 L 122 398 C 122 422 72.5 422 67 422 C 61.5 422 12 422 12 398 L 12 328 Z" fill="#fff3e0" stroke="#FF9800" stroke-width="2"/>
<path d="M 12 328 C 12 352 61.5 352 67 352 C 72.5 352 122 352 122 328" fill="#fff3e0" stroke="#FF9800" stroke-width="2"/>
<rect x="142" y="304" width="171" height="68" fill="#ffebee" stroke="red" stroke-width="2" rx="0" ry="0"/>
<path d="M 167 158 L 298 158 C 322 158 322 187.7 322 191 C 322 194.3 322 224 298 224 L 167 224 C 153.8 224 143 194.3 143 191 C 143 187.7 153.8 158 167 158 Z" fill="#e8f5e9" stroke="#0D32B2" stroke-width="2"/>
<path d="M 298 158 C 274 158 274 187.7 274 191 C 274 194.3 274 224 298 224" fill="#e8f5e9" stroke="#0D32B2" stroke-width="2"/>
<path d="M 157 168 L 288 168 C 312 168 312 197.7 312 201 C 312 204.3 312 234 288 234 L 157 234 C 143.8 234 133 204.3 133 201 C 133 197.7 143.8 168 157 168 Z" fill="#e8f5e9" stroke="#0D32B2" stroke-width="2"/>
<path d="M 288 168 C 264 168 264 197.7 264 201 C 264 204.3 264 234 288 234" fill="#e8f5e9" stroke="#0D32B2" stroke-width="2"/>
<rect x="12" y="507" width="94" height="66" mask="url(#border-mask-1267179592)" stroke="none" fill="#f3e5f5" stroke-width="2"/>
<polygon mask="url(#border-mask-1267179592)" points="12,507 27,492 121,492 121,558 106,573 106,507" fill="#e2c0e7" stroke="none" stroke-width="2"/>
<path d="M 12 507 L 27 492 L 121 492 L 121 558 L 106 573 L 12 573 L 12 507 L 106 507 L 106 573 M 106 507 L 121 492" fill="none" stroke="#0D32B2" stroke-width="2"/>
<path d="M 126.25 80 L 126.25 108 S 126.25 118 116.25 118 L 77 118 S 67 118 67 128 L 67 300" fill="none" stroke="#666" stroke-width="2" marker-end="url(#mk-1554537013)" mask="url(#edge-label-mask)" stroke-dasharray="10.000000,9.865639"/>
<text x="67.5" y="167" text-anchor="middle" dominant-baseline="alphabetic" font-family="Arial, sans-serif" font-size="16" style="fill: #676C7E; font-style: italic">queries</text>
<path d="M 168.25 80 L 168.25 164" fill="none" stroke="#0D32B2" stroke-width="2" marker-end="url(#mk-161592640)" mask="url(#edge-label-mask)"/>
<path d="M 227.5 236 L 227.5 300" fill="none" stroke="#0D32B2" stroke-width="2" marker-end="url(#mk-161592640)" mask="url(#edge-label-mask)"/>
<path d="M 67 424 L 67 488" fill="none" stroke="#0D32B2" stroke-width="2" marker-end="url(#mk-161592640)" mask="url(#edge-label-mask)"/>
<text x="147" y="50.5" text-anchor="middle" dominant-baseline="alphabetic" font-family="Arial, sans-serif" font-size="16" style="fill: #0A0F25; font-weight: 700">Web Server</text>
<text x="67" y="380.5" text-anchor="middle" dominant-baseline="alphabetic" font-family="Arial, sans-serif" font-size="16" style="fill: #0A0F25; font-weight: 700">Database</text>
<text x="227.5" y="344.5" text-anchor="middle" dominant-baseline="alphabetic" font-family="Arial, sans-serif" font-size="18" style="fill: #0A0F25; font-weight: 700">Important Node</text>
<text x="210.5" y="206.5" text-anchor="middle" dominant-baseline="alphabetic" font-family="Arial, sans-serif" font-size="16" style="fill: #0A0F25; font-weight: 700">Task Queue</text>
<text x="59" y="545.5" text-anchor="middle" dominant-baseline="alphabetic" font-family="Arial, sans-serif" font-size="16" style="fill: #0A0F25; font-weight: 700">3D Box</text>
</g>
</svg>
