<?xml version="1.0" encoding="UTF-8"?>
<svg xmlns="http://www.w3.org/2000/svg" width="530" height="550" viewBox="-89 -89 530 550" data-d2-version="0.2.0" class="d2-123265212 d2-svg">
<defs><mask id="edge-label-mask" maskUnits="userSpaceOnUse" x="-89" y="-89" width="530" height="550"><rect x="-89" y="-89" width="530" height="550" fill="white"></rect></mask>
<marker id="mk-161592640" markerWidth="10" markerHeight="12" refX="7" refY="6" viewBox="0 0 10 12" orient="auto" markerUnits="userSpaceOnUse"><polygon points="0,0 10,6 0,12" fill="#0D32B2" stroke-width="2"/></marker>
</defs>
<rect x="-89" y="-89" width="530" height="550" rx="0" fill="#FFFFFF" stroke-width="0"/>
<g id="base-layer">
<rect x="133" y="12" width="96" height="66" fill="#2196F3" stroke="#0D32B2" stroke-width="2" rx="0" ry="0"/>
<rect x="130" y="148" width="101" height="66" fill="#FF9800" stroke="#0D32B2" stroke-width="2" rx="0" ry="0"/>
<rect x="12" y="294" width="164" height="66" fill="#4CAF50" stroke="#0D32B2" stroke-width="2" rx="0" ry="0"/>
<rect x="196" y="294" width="144" height="66" fill="#f44336" stroke="#0D32B2" stroke-width="2" rx="0" ry="0"/>
<path d="M 181 80 L 181 144" fill="none" stroke="#0D32B2" stroke-width="2" marker-end="url(#mk-161592640)" mask="url(#edge-label-mask)"/>
<path d="M 164.16666666666669 216 L 164.16666666666669 244 S 164.16666666666669 254 154.16666666666669 254 L 104 254 S 94 254 94 264 L 94 290" fill="none" stroke="#0D32B2" stroke-width="2" marker-end="url(#mk-161592640)" mask="url(#edge-label-mask)"/>
<path d="M 197.83333333333334 216 L 197.83333333333334 244 S 197.83333333333334 254 207.83333333333334 254 L 258 254 S 268 254 268 264 L 268 290" fill="none" stroke="#0D32B2" stroke-width="2" marker-end="url(#mk-161592640)" mask="url(#edge-label-mask)"/>
<text x="181" y="50.5" text-anchor="middle" dominant-baseline="alphabetic" font-family="Arial, sans-serif" font-size="16" style="fill: #0A0F25; font-weight: 700">Header</text>
<text x="180.5" y="186.5" text-anchor="middle" dominant-baseline="alphabetic" font-family="Arial, sans-serif" font-size="16" style="fill: #0A0F25; font-weight: 700">Sidebar</text>
<text x="94" y="332.5" text-anchor="middle" dominant-baseline="alphabetic" font-family="Arial, sans-serif" font-size="16" style="fill: #0A0F25; font-weight: 700">Success Message</text>
<text x="268" y="332.5" text-anchor="middle" dominant-baseline="alphabetic" font-family="Arial, sans-serif" font-size="16" style="fill: #0A0F25; font-weight: 700">Error Message</text>
</g>
</svg>
