<?xml version="1.0" encoding="UTF-8"?>
<svg xmlns="http://www.w3.org/2000/svg" width="1428" height="1713" viewBox="-148 -101 1428 1713" data-d2-version="0.2.0" class="d2-327844436 d2-svg">
<defs><mask id="edge-label-mask" maskUnits="userSpaceOnUse" x="-148" y="-101" width="1428" height="1713"><rect x="-148" y="-101" width="1428" height="1713" fill="white"></rect><rect x="7" y="1360" width="35" height="21" fill="black"></rect><rect x="258" y="1371" width="35" height="21" fill="black"></rect></mask>
<marker id="mk-161592640" markerWidth="10" markerHeight="12" refX="7" refY="6" viewBox="0 0 10 12" orient="auto" markerUnits="userSpaceOnUse"><polygon points="0,0 10,6 0,12" fill="#0D32B2" stroke-width="2"/></marker>
</defs>
<rect x="-148" y="-101" width="1428" height="1713" rx="0" fill="#FFFFFF" stroke-width="0"/>
<g id="base-layer">
<rect x="-30" y="384" width="1209" height="166" fill="#e8f5e9" stroke="#0D32B2" stroke-width="2" rx="0" ry="0"/>
<rect x="-30" y="604" width="816" height="166" fill="#f3e5f5" stroke="#0D32B2" stroke-width="2" rx="0" ry="0"/>
<rect x="-30" y="1184" width="792" height="327" fill="#fff8e1" stroke="#0D32B2" stroke-width="2" rx="0" ry="0"/>
<rect x="-30" y="964" width="804" height="166" fill="#fce4ec" stroke="#0D32B2" stroke-width="2" rx="0" ry="0"/>
<rect x="0" y="0" width="333" height="60" fill="#F7F8FE" stroke="#0D32B2" stroke-width="2" rx="0" ry="0"/>
<path d="M 736 50 H 403 v -0.8527131782945736 c 0 -10.232558139534882 36.566617862371885 -19.45736434108527 94.09809663250367 -23.875968992248062 C 465.407027818448 21.705426356589143 446.3923865300146 15.89147286821705 446.3923865300146 9.534883720930232 C 446.3923865300146 -1.2403100775193803 501.48609077598826 -10 569.2562225475842 -10 c 67.7701317715959 0 122.86383601756954 8.75968992248062 122.86383601756954 19.53488372093023 c 0 6.356589147286821 -18.527086383601755 12.093023255813952 -50.70571010248902 15.813953488372091 c 57.53147877013178 4.4186046511627906 94.09809663250367 13.643410852713178 94.09809663250367 23.875968992248062 v 0.7751937984496123 Z" fill="#E3E9FD" stroke="#0D32B2" stroke-width="2"/>
<path d="M 726 60 H 393 v -0.8527131782945736 c 0 -10.232558139534882 36.566617862371885 -19.45736434108527 94.09809663250367 -23.875968992248062 C 455.407027818448 31.705426356589143 436.3923865300146 25.89147286821705 436.3923865300146 19.53488372093023 C 436.3923865300146 8.75968992248062 491.48609077598826 0 559.2562225475842 0 c 67.7701317715959 0 122.86383601756954 8.75968992248062 122.86383601756954 19.53488372093023 c 0 6.356589147286821 -18.527086383601755 12.093023255813952 -50.70571010248902 15.813953488372091 c 57.53147877013178 4.4186046511627906 94.09809663250367 13.643410852713178 94.09809663250367 23.875968992248062 v 0.7751937984496123 Z" fill="#E3E9FD" stroke="#0D32B2" stroke-width="2"/>
<path d="M 55.03403956834533 160.9751051625239 C 55.03403956834533 161.61250478011473 52.81563669064749 162.2497896749522 50.59763309352518 162.2497896749522 C 22.315392086330938 163.0464244741874 0.13296043165468063 171.17269598470364 0.13296043165468063 181.05158699808797 C 0.13296043165468063 191.5678776290631 25.087996402877703 200.01273422562144 56.69784172661871 200.01273422562144 H 271.3111510791367 C 305.13939928057556 200.01273422562144 332.8670395683454 190.9304780114723 332.8670395683454 179.9362523900574 C 332.8670395683454 169.41996175908227 307.35700359712234 160.65640535372853 275.193356115108 160.01912045889105 C 272.97495323741015 160.01912045889105 270.7569496402878 159.54107074569794 270.20234892086336 158.74443594646274 C 262.9929388489209 148.06891013384325 229.71929136690653 140.1019885277247 190.90083453237415 140.1019885277247 C 165.39119784172667 140.1019885277247 142.65416546762594 143.44810707456983 128.23614388489213 148.70619502868072 C 126.57234172661875 149.34359464627155 123.79973741007198 149.50294455066924 122.1359352517986 149.34359464627155 C 116.59032733812954 148.70619502868072 110.49051798561155 148.38760994263868 103.83570863309356 148.38760994263868 C 78.32567266187051 148.22814531548758 57.25244244604317 153.80493307839387 55.03403956834533 160.9751051625239 Z" fill="#e3f2fd" stroke="#0D32B2" stroke-width="2"/>
<path d="M 83.25 280 L 249.75 280 L 333 310 L 249.75 340 L 83.25 340 L 0 310 Z" fill="#fff3e0" stroke="#0D32B2" stroke-width="2"/>
<path d="M 0 884 C 0 860 149.85 860 166.5 860 C 183.15 860 333 860 333 884 L 333 896 C 333 920 183.15 920 166.5 920 C 149.85 920 0 920 0 896 L 0 884 Z" fill="#ffebee" stroke="#0D32B2" stroke-width="2"/>
<path d="M 0 884 C 0 908 149.85 908 166.5 908 C 183.15 908 333 908 333 884" fill="#ffebee" stroke="#0D32B2" stroke-width="2"/>
<path d="M 429 860 L 714 860 C 738 860 738 887 738 890 C 738 893 738 920 714 920 L 429 920 C 415.8 920 405 893 405 890 C 405 887 415.8 860 429 860 Z" fill="#e0f2f1" stroke="#0D32B2" stroke-width="2"/>
<path d="M 714 860 C 690 860 690 887 690 890 C 690 893 690 920 714 920" fill="#e0f2f1" stroke="#0D32B2" stroke-width="2"/>
<path d="M 438 1260 L 741 1260 C 751.95 1260 756 1275 756 1290 C 756 1305 751.95 1320 741 1320 L 438 1320 C 427.05 1320 423 1305 423 1290 C 423 1275 427.05 1260 438 1260 Z" fill="#f5f5f5" stroke="#0D32B2" stroke-width="2"/>
<rect x="0" y="460" width="333" height="60" fill="#EDF0FD" stroke="#0D32B2" stroke-width="2" rx="0" ry="0"/>
<rect x="405" y="460" width="333" height="60" fill="#EDF0FD" stroke="#0D32B2" stroke-width="2" rx="0" ry="0"/>
<rect x="816" y="460" width="333" height="60" fill="#EDF0FD" stroke="#0D32B2" stroke-width="2" rx="0" ry="0"/>
<rect x="0" y="680" width="333" height="60" fill="#EDF0FD" stroke="#0D32B2" stroke-width="2" rx="0" ry="0"/>
<rect x="423" y="680" width="333" height="60" fill="#EDF0FD" stroke="#0D32B2" stroke-width="2" rx="0" ry="0"/>
<path d="M 0 1284 C 0 1260 149.85 1260 166.5 1260 C 183.15 1260 333 1260 333 1284 L 333 1296 C 333 1320 183.15 1320 166.5 1320 C 149.85 1320 0 1320 0 1296 L 0 1284 Z" fill="#F7F8FE" stroke="#0D32B2" stroke-width="2"/>
<path d="M 0 1284 C 0 1308 149.85 1308 166.5 1308 C 183.15 1308 333 1308 333 1284" fill="#F7F8FE" stroke="#0D32B2" stroke-width="2"/>
<path d="M 0 1445 C 0 1421 149.85 1421 166.5 1421 C 183.15 1421 333 1421 333 1445 L 333 1457 C 333 1481 183.15 1481 166.5 1481 C 149.85 1481 0 1481 0 1457 L 0 1445 Z" fill="#F7F8FE" stroke="#0D32B2" stroke-width="2"/>
<path d="M 0 1445 C 0 1469 149.85 1469 166.5 1469 C 183.15 1469 333 1469 333 1445" fill="#F7F8FE" stroke="#0D32B2" stroke-width="2"/>
<path d="M 399 1445 C 399 1421 548.85 1421 565.5 1421 C 582.15 1421 732 1421 732 1445 L 732 1457 C 732 1481 582.15 1481 565.5 1481 C 548.85 1481 399 1481 399 1457 L 399 1445 Z" fill="#F7F8FE" stroke="#0D32B2" stroke-width="2"/>
<path d="M 399 1445 C 399 1469 548.85 1469 565.5 1469 C 582.15 1469 732 1469 732 1445" fill="#F7F8FE" stroke="#0D32B2" stroke-width="2"/>
<rect x="0" y="1040" width="333" height="60" fill="#EDF0FD" stroke="#0D32B2" stroke-width="2" rx="0" ry="0"/>
<rect x="411" y="1040" width="333" height="60" fill="#EDF0FD" stroke="#0D32B2" stroke-width="2" rx="0" ry="0"/>
<path d="M 24 1322 L 24 1417" fill="none" stroke="#0D32B2" stroke-width="2" marker-end="url(#mk-161592640)" mask="url(#edge-label-mask)"/>
<text x="24.5" y="1376" text-anchor="middle" dominant-baseline="alphabetic" font-family="Arial, sans-serif" font-size="16" style="fill: #676C7E; font-style: italic">sync</text>
<path d="M 128.33333333333331 1322 L 128.33333333333331 1360.5 S 128.33333333333331 1370.5 138.33333333333331 1370.5 L 413 1370.5 S 423 1370.5 423 1380.5 L 423 1417" fill="none" stroke="#0D32B2" stroke-width="2" marker-end="url(#mk-161592640)" mask="url(#edge-label-mask)"/>
<text x="275.5" y="1387" text-anchor="middle" dominant-baseline="alphabetic" font-family="Arial, sans-serif" font-size="16" style="fill: #676C7E; font-style: italic">sync</text>
<path d="M 417 62 L 417 90 S 417 100 407 100 L 34 100 S 24 100 24 110 L 24 136" fill="none" stroke="#0D32B2" stroke-width="2" marker-end="url(#mk-161592640)" mask="url(#edge-label-mask)"/>
<path d="M 24 202 L 24 276" fill="none" stroke="#0D32B2" stroke-width="2" marker-end="url(#mk-161592640)" mask="url(#edge-label-mask)"/>
<path d="M 24 342 L 24 456" fill="none" stroke="#0D32B2" stroke-width="2" marker-end="url(#mk-161592640)" mask="url(#edge-label-mask)"/>
<path d="M 102.25 342 L 102.25 395 S 102.25 405 112.25 405 L 419 405 S 429 405 429 415 L 429 456" fill="none" stroke="#0D32B2" stroke-width="2" marker-end="url(#mk-161592640)" mask="url(#edge-label-mask)"/>
<path d="M 180.5 342 L 180.5 385 S 180.5 395 190.5 395 L 830 395 S 840 395 840 405 L 840 456" fill="none" stroke="#0D32B2" stroke-width="2" marker-end="url(#mk-161592640)" mask="url(#edge-label-mask)"/>
<path d="M 24 522 L 24 676" fill="none" stroke="#0D32B2" stroke-width="2" marker-end="url(#mk-161592640)" mask="url(#edge-label-mask)"/>
<path d="M 429 522 L 429 590 S 429 600 419 600 L 138.33333333333331 600 S 128.33333333333331 600 128.33333333333331 610 L 128.33333333333331 676" fill="none" stroke="#0D32B2" stroke-width="2" marker-end="url(#mk-161592640)" mask="url(#edge-label-mask)"/>
<path d="M 533.3333333333334 522 L 533.3333333333334 590 S 533.3333333333334 600 523.3333333333334 600 L 457 600 S 447 600 447 610 L 447 676" fill="none" stroke="#0D32B2" stroke-width="2" marker-end="url(#mk-161592640)" mask="url(#edge-label-mask)"/>
<path d="M 840 522 L 840 584 S 840 594 830 594 L 561.3333333333334 594 S 551.3333333333334 594 551.3333333333334 604 L 551.3333333333334 676" fill="none" stroke="#0D32B2" stroke-width="2" marker-end="url(#mk-161592640)" mask="url(#edge-label-mask)"/>
<path d="M 24 742 L 24 856" fill="none" stroke="#0D32B2" stroke-width="2" marker-end="url(#mk-161592640)" mask="url(#edge-label-mask)"/>
<path d="M 447 742 L 447 785 S 447 795 437 795 L 138.33333333333331 795 S 128.33333333333331 795 128.33333333333331 805 L 128.33333333333331 856" fill="none" stroke="#0D32B2" stroke-width="2" marker-end="url(#mk-161592640)" mask="url(#edge-label-mask)"/>
<path d="M 102.25 742 L 102.25 790 S 102.25 800 92.25 800 L -37 800 S -47 800 -47 810 L -47 1170 S -47 1180 -37 1180 L 14 1180 S 24 1180 24 1190 L 24 1256" fill="none" stroke="#0D32B2" stroke-width="2" marker-end="url(#mk-161592640)" mask="url(#edge-label-mask)"/>
<path d="M 525.25 742 L 525.25 790 S 525.25 800 515.25 800 L -37 800 S -47 800 -47 810 L -47 1170 S -47 1180 -37 1180 L 170.5 1180 S 180.5 1180 180.5 1190 L 180.5 1256" fill="none" stroke="#0D32B2" stroke-width="2" marker-end="url(#mk-161592640)" mask="url(#edge-label-mask)"/>
<path d="M 180.5 742 L 180.5 795 S 180.5 805 190.5 805 L 419 805 S 429 805 429 815 L 429 856" fill="none" stroke="#0D32B2" stroke-width="2" marker-end="url(#mk-161592640)" mask="url(#edge-label-mask)"/>
<path d="M 603.5 742 L 603.5 785 S 603.5 795 593.5 795 L 543.3333333333334 795 S 533.3333333333334 795 533.3333333333334 805 L 533.3333333333334 856" fill="none" stroke="#0D32B2" stroke-width="2" marker-end="url(#mk-161592640)" mask="url(#edge-label-mask)"/>
<path d="M 429 922 L 429 970 S 429 980 419 980 L 34 980 S 24 980 24 990 L 24 1036" fill="none" stroke="#0D32B2" stroke-width="2" marker-end="url(#mk-161592640)" mask="url(#edge-label-mask)"/>
<path d="M 533.3333333333334 922 L 533.3333333333334 970 S 533.3333333333334 980 523.3333333333334 980 L 445 980 S 435 980 435 990 L 435 1036" fill="none" stroke="#0D32B2" stroke-width="2" marker-end="url(#mk-161592640)" mask="url(#edge-label-mask)"/>
<path d="M 128.33333333333331 1102 L 128.33333333333331 1175 S 128.33333333333331 1185 138.33333333333331 1185 L 437 1185 S 447 1185 447 1195 L 447 1256" fill="none" stroke="#0D32B2" stroke-width="2" marker-end="url(#mk-161592640)" mask="url(#edge-label-mask)"/>
<path d="M 435 1102 L 435 1184 S 435 1194 445 1194 L 541.3333333333334 1194 S 551.3333333333334 1194 551.3333333333334 1204 L 551.3333333333334 1256" fill="none" stroke="#0D32B2" stroke-width="2" marker-end="url(#mk-161592640)" mask="url(#edge-label-mask)"/>
<path d="M 24 1102 L 24 1175 S 24 1185 34 1185 L 92.25 1185 S 102.25 1185 102.25 1195 L 102.25 1256" fill="none" stroke="#0D32B2" stroke-width="2" marker-end="url(#mk-161592640)" mask="url(#edge-label-mask)"/>
<text x="574.5" y="371" text-anchor="middle" dominant-baseline="alphabetic" font-family="Arial, sans-serif" font-size="28" style="fill: #0A0F25">Web Tier</text>
<text x="688" y="637" text-anchor="middle" dominant-baseline="alphabetic" font-family="Arial, sans-serif" font-size="28" style="fill: #0A0F25">Application Tier</text>
<text x="658" y="1171" text-anchor="middle" dominant-baseline="alphabetic" font-family="Arial, sans-serif" font-size="28" style="fill: #0A0F25">Database Cluster</text>
<text x="96.5" y="951" text-anchor="middle" dominant-baseline="alphabetic" font-family="Arial, sans-serif" font-size="28" style="fill: #0A0F25">Background Workers</text>
<text x="166.5" y="38.5" text-anchor="middle" dominant-baseline="alphabetic" font-family="Arial, sans-serif" font-size="24" style="fill: #0A0F25; font-weight: 700">Web Application Architecture</text>
<text x="559.5" y="81" text-anchor="middle" dominant-baseline="alphabetic" font-family="Arial, sans-serif" font-size="16" style="fill: #0A0F25; font-weight: 700">Users</text>
<text x="165.3635" y="186.94" text-anchor="middle" dominant-baseline="alphabetic" font-family="Arial, sans-serif" font-size="16" style="fill: #0A0F25; font-weight: 700">CDN</text>
<text x="166.5" y="315.5" text-anchor="middle" dominant-baseline="alphabetic" font-family="Arial, sans-serif" font-size="16" style="fill: #0A0F25; font-weight: 700">Load Balancer</text>
<text x="166.5" y="895.5" text-anchor="middle" dominant-baseline="alphabetic" font-family="Arial, sans-serif" font-size="16" style="fill: #0A0F25; font-weight: 700">Redis Cache</text>
<text x="559.5" y="895.5" text-anchor="middle" dominant-baseline="alphabetic" font-family="Arial, sans-serif" font-size="16" style="fill: #0A0F25; font-weight: 700">Message Queue</text>
<text x="589.5" y="1295.5" text-anchor="middle" dominant-baseline="alphabetic" font-family="Arial, sans-serif" font-size="16" style="fill: #0A0F25; font-weight: 700">Object Storage</text>
<text x="166.5" y="495.5" text-anchor="middle" dominant-baseline="alphabetic" font-family="Arial, sans-serif" font-size="16" style="fill: #0A0F25; font-weight: 700">Web Server 1</text>
<text x="571.5" y="495.5" text-anchor="middle" dominant-baseline="alphabetic" font-family="Arial, sans-serif" font-size="16" style="fill: #0A0F25; font-weight: 700">Web Server 2</text>
<text x="982.5" y="495.5" text-anchor="middle" dominant-baseline="alphabetic" font-family="Arial, sans-serif" font-size="16" style="fill: #0A0F25; font-weight: 700">Web Server 3</text>
<text x="166.5" y="715.5" text-anchor="middle" dominant-baseline="alphabetic" font-family="Arial, sans-serif" font-size="16" style="fill: #0A0F25; font-weight: 700">App Server 1</text>
<text x="589.5" y="715.5" text-anchor="middle" dominant-baseline="alphabetic" font-family="Arial, sans-serif" font-size="16" style="fill: #0A0F25; font-weight: 700">App Server 2</text>
<text x="166.5" y="1295.5" text-anchor="middle" dominant-baseline="alphabetic" font-family="Arial, sans-serif" font-size="16" style="fill: #0A0F25; font-weight: 700">Primary DB</text>
<text x="166.5" y="1456.5" text-anchor="middle" dominant-baseline="alphabetic" font-family="Arial, sans-serif" font-size="16" style="fill: #0A0F25; font-weight: 700">Replica 1</text>
<text x="565.5" y="1456.5" text-anchor="middle" dominant-baseline="alphabetic" font-family="Arial, sans-serif" font-size="16" style="fill: #0A0F25; font-weight: 700">Replica 2</text>
<text x="166.5" y="1075.5" text-anchor="middle" dominant-baseline="alphabetic" font-family="Arial, sans-serif" font-size="16" style="fill: #0A0F25; font-weight: 700">Worker 1</text>
<text x="577.5" y="1075.5" text-anchor="middle" dominant-baseline="alphabetic" font-family="Arial, sans-serif" font-size="16" style="fill: #0A0F25; font-weight: 700">Worker 2</text>
</g>
</svg>
