<?xml version="1.0" encoding="UTF-8"?>
<svg xmlns="http://www.w3.org/2000/svg" width="872" height="1570" viewBox="293 -100 872 1570" data-d2-version="0.1.0">
<defs><marker id="arrow-triangle" markerWidth="10" markerHeight="10" refX="10" refY="5" orient="auto" markerUnits="strokeWidth"><path d="M0,0 L10,5 L0,10 Z" fill="#0A0F25"/></marker>
<marker id="arrow-triangle-reverse" markerWidth="10" markerHeight="10" refX="0" refY="5" orient="auto" markerUnits="strokeWidth"><path d="M10,0 L0,5 L10,10 Z" fill="#0A0F25"/></marker>
<marker id="arrow-diamond" markerWidth="10" markerHeight="10" refX="10" refY="5" orient="auto" markerUnits="strokeWidth"><path d="M0,5 L5,0 L10,5 L5,10 Z" fill="#0A0F25"/></marker>
<marker id="arrow-diamond-reverse" markerWidth="10" markerHeight="10" refX="0" refY="5" orient="auto" markerUnits="strokeWidth"><path d="M0,5 L5,0 L10,5 L5,10 Z" fill="#0A0F25"/></marker>
<marker id="arrow-circle" markerWidth="10" markerHeight="10" refX="6" refY="5" orient="auto" markerUnits="strokeWidth"><circle cx="5" cy="5" r="4" fill="#0A0F25"/></marker>
<marker id="arrow-circle-reverse" markerWidth="10" markerHeight="10" refX="4" refY="5" orient="auto" markerUnits="strokeWidth"><circle cx="5" cy="5" r="4" fill="#0A0F25"/></marker>
<marker id="arrow-cf-one" markerWidth="10" markerHeight="10" refX="10" refY="5" orient="auto" markerUnits="strokeWidth"><line x1="10" y1="0" x2="10" y2="10" stroke="#0A0F25" stroke-width="2"/></marker>
<marker id="arrow-cf-one-reverse" markerWidth="10" markerHeight="10" refX="0" refY="5" orient="auto" markerUnits="strokeWidth"><line x1="0" y1="0" x2="0" y2="10" stroke="#0A0F25" stroke-width="2"/></marker>
<marker id="arrow-cf-many" markerWidth="10" markerHeight="10" refX="10" refY="5" orient="auto" markerUnits="strokeWidth"><path d="M0,5 L10,0 M0,5 L10,5 M0,5 L10,10" stroke="#0A0F25" stroke-width="2" fill="none"/></marker>
<marker id="arrow-cf-many-reverse" markerWidth="10" markerHeight="10" refX="0" refY="5" orient="auto" markerUnits="strokeWidth"><path d="M10,5 L0,0 M10,5 L0,5 M10,5 L0,10" stroke="#0A0F25" stroke-width="2" fill="none"/></marker>
<marker id="arrow-cf-one-required" markerWidth="10" markerHeight="10" refX="10" refY="5" orient="auto" markerUnits="strokeWidth"><line x1="10" y1="0" x2="10" y2="10" stroke="#0A0F25" stroke-width="2"/><line x1="7" y1="0" x2="7" y2="10" stroke="#0A0F25" stroke-width="2"/></marker>
<marker id="arrow-cf-one-required-reverse" markerWidth="10" markerHeight="10" refX="0" refY="5" orient="auto" markerUnits="strokeWidth"><line x1="0" y1="0" x2="0" y2="10" stroke="#0A0F25" stroke-width="2"/><line x1="3" y1="0" x2="3" y2="10" stroke="#0A0F25" stroke-width="2"/></marker>
<marker id="arrow-cf-many-required" markerWidth="10" markerHeight="10" refX="10" refY="5" orient="auto" markerUnits="strokeWidth"><path d="M0,5 L10,0 M0,5 L10,5 M0,5 L10,10" stroke="#0A0F25" stroke-width="2" fill="none"/><line x1="3" y1="0" x2="3" y2="10" stroke="#0A0F25" stroke-width="2"/></marker>
<marker id="arrow-cf-many-required-reverse" markerWidth="10" markerHeight="10" refX="0" refY="5" orient="auto" markerUnits="strokeWidth"><path d="M10,5 L0,0 M10,5 L0,5 M10,5 L0,10" stroke="#0A0F25" stroke-width="2" fill="none"/><line x1="7" y1="0" x2="7" y2="10" stroke="#0A0F25" stroke-width="2"/></marker>
<marker id="arrow-cf-one-optional" markerWidth="10" markerHeight="10" refX="10" refY="5" orient="auto" markerUnits="strokeWidth"><line x1="10" y1="0" x2="10" y2="10" stroke="#0A0F25" stroke-width="2"/><circle cx="7" cy="5" r="2" stroke="#0A0F25" stroke-width="2" fill="white"/></marker>
<marker id="arrow-cf-one-optional-reverse" markerWidth="10" markerHeight="10" refX="0" refY="5" orient="auto" markerUnits="strokeWidth"><line x1="0" y1="0" x2="0" y2="10" stroke="#0A0F25" stroke-width="2"/><circle cx="3" cy="5" r="2" stroke="#0A0F25" stroke-width="2" fill="white"/></marker>
<marker id="arrow-cf-many-optional" markerWidth="10" markerHeight="10" refX="10" refY="5" orient="auto" markerUnits="strokeWidth"><path d="M0,5 L10,0 M0,5 L10,5 M0,5 L10,10" stroke="#0A0F25" stroke-width="2" fill="none"/><circle cx="3" cy="5" r="2" stroke="#0A0F25" stroke-width="2" fill="white"/></marker>
<marker id="arrow-cf-many-optional-reverse" markerWidth="10" markerHeight="10" refX="0" refY="5" orient="auto" markerUnits="strokeWidth"><path d="M10,5 L0,0 M10,5 L0,5 M10,5 L0,10" stroke="#0A0F25" stroke-width="2" fill="none"/><circle cx="7" cy="5" r="2" stroke="#0A0F25" stroke-width="2" fill="white"/></marker>
<marker id="arrow-line" markerWidth="10" markerHeight="10" refX="10" refY="5" orient="auto" markerUnits="strokeWidth"><line x1="10" y1="0" x2="10" y2="10" stroke="#0A0F25" stroke-width="2"/></marker>
<marker id="arrow-line-reverse" markerWidth="10" markerHeight="10" refX="0" refY="5" orient="auto" markerUnits="strokeWidth"><line x1="0" y1="0" x2="0" y2="10" stroke="#0A0F25" stroke-width="2"/></marker>
<marker id="arrow-open" markerWidth="10" markerHeight="10" refX="10" refY="5" orient="auto" markerUnits="strokeWidth"><path d="M0,0 L10,5 L0,10" stroke="#0A0F25" stroke-width="2" fill="none"/></marker>
<marker id="arrow-open-reverse" markerWidth="10" markerHeight="10" refX="0" refY="5" orient="auto" markerUnits="strokeWidth"><path d="M10,0 L0,5 L10,10" stroke="#0A0F25" stroke-width="2" fill="none"/></marker>
<marker id="arrow" markerWidth="10" markerHeight="10" refX="10" refY="5" orient="auto" markerUnits="strokeWidth"><path d="M0,0 L10,5 L0,10 Z" fill="#0A0F25"/></marker>
<marker id="arrow-reverse" markerWidth="10" markerHeight="10" refX="0" refY="5" orient="auto" markerUnits="strokeWidth"><path d="M10,0 L0,5 L10,10 Z" fill="#0A0F25"/></marker>
</defs>
<rect width="100%" height="100%" fill="#FFFFFF"/>
<g id="base-layer">
<rect x="393" y="0" width="333" height="60" fill="#FFFFFF" stroke="#0A0F25" stroke-width="2" rx="0" ry="0"/>
<path d="M 1002.5 60 H 902.5 v -0.8527131782945736 c 0 -10.232558139534882 10.980966325036604 -19.45736434108527 28.25768667642753 -23.875968992248062 C 921.2408491947291 31.705426356589143 915.5307467057102 25.89147286821705 915.5307467057102 19.53488372093023 C 915.5307467057102 8.75968992248062 932.0754026354319 0 952.4267935578331 0 c 20.351390922401173 0 36.896046852122986 8.75968992248062 36.896046852122986 19.53488372093023 c 0 6.356589147286821 -5.563689604685212 12.093023255813952 -15.226939970717424 15.813953488372091 c 17.276720351390924 4.4186046511627906 28.25768667642753 13.643410852713178 28.25768667642753 23.875968992248062 v 0.7751937984496123 Z" fill="#FFFFFF" stroke="#0A0F25" stroke-width="2"/>
<path d="M 722.5267386091127 180.9751051625239 C 722.5267386091127 181.61250478011473 721.8605515587531 182.2497896749522 721.19448441247 182.2497896749522 C 712.7013189448442 183.0464244741874 706.039928057554 191.17269598470364 706.039928057554 201.05158699808797 C 706.039928057554 211.5678776290631 713.533932853717 220.01273422562144 723.0263788968825 220.01273422562144 H 787.4748201438849 C 797.6334532374101 220.01273422562144 805.9600719424461 210.9304780114723 805.9600719424461 199.9362523900574 C 805.9600719424461 189.41996175908227 798.2994004796163 180.65640535372853 788.6406474820145 180.01912045889105 C 787.9744604316548 180.01912045889105 787.3083932853718 179.54107074569794 787.1418465227819 178.74443594646274 C 784.9768585131895 168.06891013384325 774.9847721822542 160.1019885277247 763.32757793765 160.1019885277247 C 755.6670263788969 160.1019885277247 748.8390887290169 163.44810707456983 744.5093525179857 168.70619502868072 C 744.0097122302159 169.34359464627155 743.177098321343 169.50294455066924 742.6774580335732 169.34359464627155 C 741.0121103117507 168.70619502868072 739.180335731415 168.38760994263868 737.1818944844125 168.38760994263868 C 729.5212230215827 168.22814531548758 723.1929256594724 173.80493307839387 722.5267386091127 180.9751051625239 Z" fill="#e3f2fd" stroke="#0A0F25" stroke-width="2"/>
<polygon points="724.75,320 787.25,320 818.5,350 787.25,380 724.75,380 693.5,350" fill="#fff3e0" stroke="#0A0F25" stroke-width="2"/>
<rect x="492" y="450" width="528" height="120" fill="#e8f5e9" stroke="#0A0F25" stroke-width="2" rx="0" ry="0"/>
<rect x="582" y="610" width="348" height="120" fill="#f3e5f5" stroke="#0A0F25" stroke-width="2" rx="0" ry="0"/>
<path d="M 606 824 C 606 800 654.6 800 660 800 C 665.4 800 714 800 714 824 L 714 836 C 714 860 665.4 860 660 860 C 654.6 860 606 860 606 836 L 606 824 Z" fill="#ffebee" stroke="#0A0F25" stroke-width="2"/>
<ellipse cx="660" cy="824" rx="54" ry="24" fill="none" stroke="none" stroke-width="0"/>
<path d="M 606 824 C 606 848 654.6 848 660 848 C 665.4 848 714 848 714 824" fill="none" stroke="#0A0F25" stroke-width="2"/>
<rect x="579.5" y="1090" width="336.5" height="280" fill="#fff8e1" stroke="#0A0F25" stroke-width="2" rx="0" ry="0"/>
<path d="M 801 800 L 903 800 C 911.25 800 918 815 918 830 C 918 845 911.25 860 903 860 L 801 860 C 792.75 860 786 845 786 830 C 786 815 792.75 800 801 800 Z" fill="#e0f2f1" stroke="#0A0F25" stroke-width="2"/>
<rect x="596" y="930" width="320" height="120" fill="#fce4ec" stroke="#0A0F25" stroke-width="2" rx="0" ry="0"/>
<path d="M 951 1120 L 1050 1120 C 1060.95 1120 1065 1135 1065 1150 C 1065 1165 1060.95 1180 1050 1180 L 951 1180 C 940.05 1180 936 1165 936 1150 C 936 1135 940.05 1120 951 1120 Z" fill="#f5f5f5" stroke="#0A0F25" stroke-width="2"/>
<rect x="698" y="480" width="116" height="60" fill="#FFFFFF" stroke="#0A0F25" stroke-width="2" rx="0" ry="0"/>
<rect x="874" y="480" width="116" height="60" fill="#FFFFFF" stroke="#0A0F25" stroke-width="2" rx="0" ry="0"/>
<path d="M 609.5 1144 C 609.5 1120 656.3 1120 661.5 1120 C 666.7 1120 713.5 1120 713.5 1144 L 713.5 1156 C 713.5 1180 666.7 1180 661.5 1180 C 656.3 1180 609.5 1180 609.5 1156 L 609.5 1144 Z" fill="#FFFFFF" stroke="#0A0F25" stroke-width="2"/>
<ellipse cx="661.5" cy="1144" rx="52" ry="24" fill="none" stroke="none" stroke-width="0"/>
<path d="M 609.5 1144 C 609.5 1168 656.3 1168 661.5 1168 C 666.7 1168 713.5 1168 713.5 1144" fill="none" stroke="#0A0F25" stroke-width="2"/>
<path d="M 626 1304 C 626 1280 671 1280 676 1280 C 681 1280 726 1280 726 1304 L 726 1316 C 726 1340 681 1340 676 1340 C 671 1340 626 1340 626 1316 L 626 1304 Z" fill="#FFFFFF" stroke="#0A0F25" stroke-width="2"/>
<ellipse cx="676" cy="1304" rx="50" ry="24" fill="none" stroke="none" stroke-width="0"/>
<path d="M 626 1304 C 626 1328 671 1328 676 1328 C 681 1328 726 1328 726 1304" fill="none" stroke="#0A0F25" stroke-width="2"/>
<path d="M 786 1304 C 786 1280 831 1280 836 1280 C 841 1280 886 1280 886 1304 L 886 1316 C 886 1340 841 1340 836 1340 C 831 1340 786 1340 786 1316 L 786 1304 Z" fill="#FFFFFF" stroke="#0A0F25" stroke-width="2"/>
<ellipse cx="836" cy="1304" rx="50" ry="24" fill="none" stroke="none" stroke-width="0"/>
<path d="M 786 1304 C 786 1328 831 1328 836 1328 C 841 1328 886 1328 886 1304" fill="none" stroke="#0A0F25" stroke-width="2"/>
<rect x="522" y="480" width="116" height="60" fill="#FFFFFF" stroke="#0A0F25" stroke-width="2" rx="0" ry="0"/>
<rect x="612" y="640" width="114" height="60" fill="#FFFFFF" stroke="#0A0F25" stroke-width="2" rx="0" ry="0"/>
<rect x="626" y="960" width="100" height="60" fill="#FFFFFF" stroke="#0A0F25" stroke-width="2" rx="0" ry="0"/>
<rect x="786" y="960" width="100" height="60" fill="#FFFFFF" stroke="#0A0F25" stroke-width="2" rx="0" ry="0"/>
<rect x="786" y="640" width="114" height="60" fill="#FFFFFF" stroke="#0A0F25" stroke-width="2" rx="0" ry="0"/>
<path d="M 675.5 1182 C 675.5 1201.2 675.5 1210.8 675.5 1230 C 675.7 1230 675.8 1230 676 1230 C 676 1248.4 676 1257.6 676 1276" fill="none" stroke="#0A0F25" stroke-width="2" marker-end="url(#arrow-triangle)"/>
<rect x="660.25" y="1219.5" width="31" height="21" fill="#FFFFFF" stroke="none" stroke-width="1" rx="3" ry="3"/>
<text x="675.75" y="1235.5" text-anchor="middle" dominant-baseline="alphabetic" font-family="Arial, sans-serif" font-size="16" style="fill: #676C7E; font-style: italic">sync</text>
<path d="M 703.5 1182 C 703.5 1197.2 703.5 1204.8 703.5 1220 C 703.5 1220 703.5 1230 713.5 1230 C 758.5 1230 781 1230 826 1230 C 826 1230 836 1230 836 1240 C 836 1254.4 836 1261.6 836 1276" fill="none" stroke="#0A0F25" stroke-width="2" marker-end="url(#arrow-triangle)"/>
<rect x="754.25" y="1219.5" width="31" height="21" fill="#FFFFFF" stroke="none" stroke-width="1" rx="3" ry="3"/>
<text x="769.75" y="1235.5" text-anchor="middle" dominant-baseline="alphabetic" font-family="Arial, sans-serif" font-size="16" style="fill: #676C7E; font-style: italic">sync</text>
<path d="M 952.5 62 C 952.5 77.2 952.5 84.8 952.5 100 C 952.5 100 952.5 110 942.5 110 C 871.9 110 836.6 110 766 110 C 766 110 756 110 756 120 C 756 134.4 756 141.6 756 156" fill="none" stroke="#0A0F25" stroke-width="2" marker-end="url(#arrow-triangle)"/>
<path d="M 756 222 C 756 259.6 756 278.4 756 316" fill="none" stroke="#0A0F25" stroke-width="2" marker-end="url(#arrow-triangle)"/>
<path d="M 703.5 382 C 703.5 397.2 703.5 404.8 703.5 420 C 703.5 420 703.5 430 693.5 430 C 652.1 430 631.4 430 590 430 C 590 430 580 430 580 440 C 580 454.4 580 461.6 580 476" fill="none" stroke="#0A0F25" stroke-width="2" marker-end="url(#arrow-triangle)"/>
<path d="M 756 382 C 756 419.6 756 438.4 756 476" fill="none" stroke="#0A0F25" stroke-width="2" marker-end="url(#arrow-triangle)"/>
<path d="M 808.5 382 C 808.5 397.2 808.5 404.8 808.5 420 C 808.5 420 808.5 430 818.5 430 C 859.9 430 880.6 430 922 430 C 922 430 932 430 932 440 C 932 454.4 932 461.6 932 476" fill="none" stroke="#0A0F25" stroke-width="2" marker-end="url(#arrow-triangle)"/>
<path d="M 580 542 C 580 557.2 580 564.8 580 580 C 580 580 580 590 590 590 C 598.8 590 603.2 590 612 590 C 612 590 622 590 622 600 C 622 614.4 622 621.6 622 636" fill="none" stroke="#0A0F25" stroke-width="2" marker-end="url(#arrow-triangle)"/>
<path d="M 708 542 C 708 559.6 708 568.4 708 586 C 708 586 708 590 712 590 C 712 590 712 590 712 590 C 712 590 716 590 716 594 C 716 610.8 716 619.2 716 636" fill="none" stroke="#0A0F25" stroke-width="2" marker-end="url(#arrow-triangle)"/>
<path d="M 804 542 C 804 559.6 804 568.4 804 586 C 804 586 804 590 800 590 C 800 590 800 590 800 590 C 800 590 796 590 796 594 C 796 610.8 796 619.2 796 636" fill="none" stroke="#0A0F25" stroke-width="2" marker-end="url(#arrow-triangle)"/>
<path d="M 932 542 C 932 557.2 932 564.8 932 580 C 932 580 932 590 922 590 C 913.2 590 908.8 590 900 590 C 900 590 890 590 890 600 C 890 614.4 890 621.6 890 636" fill="none" stroke="#0A0F25" stroke-width="2" marker-end="url(#arrow-triangle)"/>
<path d="M 651.1666666666666 702 C 651.1666666666666 715.6333333333333 651.1666666666666 722.4499999999999 651.1666666666666 736.0833333333333 C 651.1666666666666 736.0833333333333 651.1666666666666 745 660.0833333333333 745 C 660.0833333333333 745 660.0833333333333 745 660.0833333333333 745 C 660.0833333333333 745 669 745 669 753.9166666666667 C 669 770.75 669 779.1666666666667 669 796" fill="none" stroke="#0A0F25" stroke-width="2" marker-end="url(#arrow-triangle)"/>
<path d="M 796 702 C 796 715.2 796 721.8 796 735 C 796 735 796 745 786 745 C 757.2 745 742.8 745 714 745 C 714 745 704 745 704 755 C 704 771.4 704 779.6 704 796" fill="none" stroke="#0A0F25" stroke-width="2" marker-end="url(#arrow-triangle)"/>
<path d="M 674.6666666666666 702 C 674.6666666666666 717.2 674.6666666666666 724.8 674.6666666666666 740 C 674.6666666666666 740 674.6666666666666 750 664.6666666666666 750 C 590 750 552.6666666666666 750 478 750 C 478 750 468 750 468 760 C 468 880 468 940 468 1060 C 468 1060 468 1070 478 1070 C 547.4 1070 582.1 1070 651.5 1070 C 651.5 1070 661.5 1070 661.5 1080 C 661.5 1094.4 661.5 1101.6 661.5 1116" fill="none" stroke="#0A0F25" stroke-width="2" marker-end="url(#arrow-triangle)"/>
<path d="M 819.5 702 C 819.5 717.2 819.5 724.8 819.5 740 C 819.5 740 819.5 750 809.5 750 C 672.9 750 604.6 750 468 750 C 468 750 458 750 458 760 C 458 880 458 940 458 1060 C 458 1060 458 1070 468 1070 C 558.2 1070 603.3 1070 693.5 1070 C 693.5 1070 703.5 1070 703.5 1080 C 703.5 1094.4 703.5 1101.6 703.5 1116" fill="none" stroke="#0A0F25" stroke-width="2" marker-end="url(#arrow-triangle)"/>
<path d="M 707.1666666666666 702 C 707.1666666666666 719.2 707.1666666666666 727.8 707.1666666666666 745 C 707.1666666666666 745 707.1666666666666 755 717.1666666666666 755 C 744.6999999999999 755 758.4666666666667 755 786 755 C 786 755 796 755 796 765 C 796 777.4 796 783.6 796 796" fill="none" stroke="#0A0F25" stroke-width="2" marker-end="url(#arrow-triangle)"/>
<path d="M 852 702 C 852 717.4 852 725.1 852 740.5 C 852 740.5 852 745 847.5 745 C 847.5 745 847.5 745 847.5 745 C 847.5 745 843 745 843 749.5 C 843 768.1 843 777.4 843 796" fill="none" stroke="#0A0F25" stroke-width="2" marker-end="url(#arrow-triangle)"/>
<path d="M 796 862 C 796 877.2 796 884.8 796 900 C 796 900 796 910 786 910 C 746 910 726 910 686 910 C 686 910 676 910 676 920 C 676 934.4 676 941.6 676 956" fill="none" stroke="#0A0F25" stroke-width="2" marker-end="url(#arrow-triangle)"/>
<path d="M 836 862 C 836 899.6 836 918.4 836 956" fill="none" stroke="#0A0F25" stroke-width="2" marker-end="url(#arrow-triangle)"/>
<path d="M 716 1022 C 716 1035.2 716 1041.8 716 1055 C 716 1055 716 1065 726 1065 C 810 1065 852 1065 936 1065 C 936 1065 946 1065 946 1075 C 946 1091.4 946 1099.6 946 1116" fill="none" stroke="#0A0F25" stroke-width="2" marker-end="url(#arrow-triangle)"/>
<path d="M 836 1022 C 836 1039.2 836 1047.8 836 1065 C 836 1065 836 1075 846 1075 C 896.5333333333333 1075 921.8000000000001 1075 972.3333333333334 1075 C 972.3333333333334 1075 982.3333333333334 1075 982.3333333333334 1085 C 982.3333333333334 1097.4 982.3333333333334 1103.6 982.3333333333334 1116" fill="none" stroke="#0A0F25" stroke-width="2" marker-end="url(#arrow-triangle)"/>
<path d="M 661.5 1022 C 661.5 1035.2 661.5 1041.8 661.5 1055 C 661.5 1055 661.5 1065 671.5 1065 C 671.9 1065 672.1 1065 672.5 1065 C 672.5 1065 682.5 1065 682.5 1075 C 682.5 1091.4 682.5 1099.6 682.5 1116" fill="none" stroke="#0A0F25" stroke-width="2" marker-end="url(#arrow-triangle)"/>
<text x="559.5" y="38.5" text-anchor="middle" dominant-baseline="alphabetic" font-family="Arial, sans-serif" font-size="24" style="fill: #0A0F25; font-weight: 700">Web Application Architecture</text>
<text x="952.5" y="81" text-anchor="middle" dominant-baseline="alphabetic" font-family="Arial, sans-serif" font-size="16" style="fill: #0A0F25; font-weight: 700">Users</text>
<text x="755.95" y="206.94" text-anchor="middle" dominant-baseline="alphabetic" font-family="Arial, sans-serif" font-size="16" style="fill: #0A0F25; font-weight: 700">CDN</text>
<text x="756" y="355.5" text-anchor="middle" dominant-baseline="alphabetic" font-family="Arial, sans-serif" font-size="16" style="fill: #0A0F25; font-weight: 700">Load Balancer</text>
<text x="756" y="437" text-anchor="middle" dominant-baseline="alphabetic" font-family="Arial, sans-serif" font-size="28" style="fill: #0A0F25">Web Tier</text>
<text x="756" y="597" text-anchor="middle" dominant-baseline="alphabetic" font-family="Arial, sans-serif" font-size="28" style="fill: #0A0F25">Application Tier</text>
<text x="660" y="835.5" text-anchor="middle" dominant-baseline="alphabetic" font-family="Arial, sans-serif" font-size="16" style="fill: #0A0F25; font-weight: 700">Redis Cache</text>
<text x="747.75" y="1077" text-anchor="middle" dominant-baseline="alphabetic" font-family="Arial, sans-serif" font-size="28" style="fill: #0A0F25">Database Cluster</text>
<text x="840" y="835.5" text-anchor="middle" dominant-baseline="alphabetic" font-family="Arial, sans-serif" font-size="16" style="fill: #0A0F25; font-weight: 700">Message Queue</text>
<text x="756" y="917" text-anchor="middle" dominant-baseline="alphabetic" font-family="Arial, sans-serif" font-size="28" style="fill: #0A0F25">Background Workers</text>
<text x="1000.5" y="1155.5" text-anchor="middle" dominant-baseline="alphabetic" font-family="Arial, sans-serif" font-size="16" style="fill: #0A0F25; font-weight: 700">Object Storage</text>
<text x="756" y="515.5" text-anchor="middle" dominant-baseline="alphabetic" font-family="Arial, sans-serif" font-size="16" style="fill: #0A0F25; font-weight: 700">Web Server 2</text>
<text x="932" y="515.5" text-anchor="middle" dominant-baseline="alphabetic" font-family="Arial, sans-serif" font-size="16" style="fill: #0A0F25; font-weight: 700">Web Server 3</text>
<text x="661.5" y="1155.5" text-anchor="middle" dominant-baseline="alphabetic" font-family="Arial, sans-serif" font-size="16" style="fill: #0A0F25; font-weight: 700">Primary DB</text>
<text x="676" y="1315.5" text-anchor="middle" dominant-baseline="alphabetic" font-family="Arial, sans-serif" font-size="16" style="fill: #0A0F25; font-weight: 700">Replica 1</text>
<text x="836" y="1315.5" text-anchor="middle" dominant-baseline="alphabetic" font-family="Arial, sans-serif" font-size="16" style="fill: #0A0F25; font-weight: 700">Replica 2</text>
<text x="580" y="515.5" text-anchor="middle" dominant-baseline="alphabetic" font-family="Arial, sans-serif" font-size="16" style="fill: #0A0F25; font-weight: 700">Web Server 1</text>
<text x="669" y="675.5" text-anchor="middle" dominant-baseline="alphabetic" font-family="Arial, sans-serif" font-size="16" style="fill: #0A0F25; font-weight: 700">App Server 1</text>
<text x="676" y="995.5" text-anchor="middle" dominant-baseline="alphabetic" font-family="Arial, sans-serif" font-size="16" style="fill: #0A0F25; font-weight: 700">Worker 1</text>
<text x="836" y="995.5" text-anchor="middle" dominant-baseline="alphabetic" font-family="Arial, sans-serif" font-size="16" style="fill: #0A0F25; font-weight: 700">Worker 2</text>
<text x="843" y="675.5" text-anchor="middle" dominant-baseline="alphabetic" font-family="Arial, sans-serif" font-size="16" style="fill: #0A0F25; font-weight: 700">App Server 2</text>
</g>
</svg>
