<?xml version="1.0" encoding="UTF-8"?>
<svg xmlns="http://www.w3.org/2000/svg" width="995" height="1941" viewBox="-100 -100 995 1941" data-d2-version="0.1.0">
<defs><marker id="arrow-triangle" markerWidth="10" markerHeight="10" refX="10" refY="5" orient="auto" markerUnits="strokeWidth"><path d="M0,0 L10,5 L0,10 Z" fill="#0A0F25"/></marker>
<marker id="arrow-triangle-reverse" markerWidth="10" markerHeight="10" refX="0" refY="5" orient="auto" markerUnits="strokeWidth"><path d="M10,0 L0,5 L10,10 Z" fill="#0A0F25"/></marker>
<marker id="arrow-diamond" markerWidth="10" markerHeight="10" refX="10" refY="5" orient="auto" markerUnits="strokeWidth"><path d="M0,5 L5,0 L10,5 L5,10 Z" fill="#0A0F25"/></marker>
<marker id="arrow-diamond-reverse" markerWidth="10" markerHeight="10" refX="0" refY="5" orient="auto" markerUnits="strokeWidth"><path d="M0,5 L5,0 L10,5 L5,10 Z" fill="#0A0F25"/></marker>
<marker id="arrow-circle" markerWidth="10" markerHeight="10" refX="6" refY="5" orient="auto" markerUnits="strokeWidth"><circle cx="5" cy="5" r="4" fill="#0A0F25"/></marker>
<marker id="arrow-circle-reverse" markerWidth="10" markerHeight="10" refX="4" refY="5" orient="auto" markerUnits="strokeWidth"><circle cx="5" cy="5" r="4" fill="#0A0F25"/></marker>
<marker id="arrow-cf-one" markerWidth="10" markerHeight="10" refX="10" refY="5" orient="auto" markerUnits="strokeWidth"><line x1="10" y1="0" x2="10" y2="10" stroke="#0A0F25" stroke-width="2"/></marker>
<marker id="arrow-cf-one-reverse" markerWidth="10" markerHeight="10" refX="0" refY="5" orient="auto" markerUnits="strokeWidth"><line x1="0" y1="0" x2="0" y2="10" stroke="#0A0F25" stroke-width="2"/></marker>
<marker id="arrow-cf-many" markerWidth="10" markerHeight="10" refX="10" refY="5" orient="auto" markerUnits="strokeWidth"><path d="M0,5 L10,0 M0,5 L10,5 M0,5 L10,10" stroke="#0A0F25" stroke-width="2" fill="none"/></marker>
<marker id="arrow-cf-many-reverse" markerWidth="10" markerHeight="10" refX="0" refY="5" orient="auto" markerUnits="strokeWidth"><path d="M10,5 L0,0 M10,5 L0,5 M10,5 L0,10" stroke="#0A0F25" stroke-width="2" fill="none"/></marker>
<marker id="arrow-cf-one-required" markerWidth="10" markerHeight="10" refX="10" refY="5" orient="auto" markerUnits="strokeWidth"><line x1="10" y1="0" x2="10" y2="10" stroke="#0A0F25" stroke-width="2"/><line x1="7" y1="0" x2="7" y2="10" stroke="#0A0F25" stroke-width="2"/></marker>
<marker id="arrow-cf-one-required-reverse" markerWidth="10" markerHeight="10" refX="0" refY="5" orient="auto" markerUnits="strokeWidth"><line x1="0" y1="0" x2="0" y2="10" stroke="#0A0F25" stroke-width="2"/><line x1="3" y1="0" x2="3" y2="10" stroke="#0A0F25" stroke-width="2"/></marker>
<marker id="arrow-cf-many-required" markerWidth="10" markerHeight="10" refX="10" refY="5" orient="auto" markerUnits="strokeWidth"><path d="M0,5 L10,0 M0,5 L10,5 M0,5 L10,10" stroke="#0A0F25" stroke-width="2" fill="none"/><line x1="3" y1="0" x2="3" y2="10" stroke="#0A0F25" stroke-width="2"/></marker>
<marker id="arrow-cf-many-required-reverse" markerWidth="10" markerHeight="10" refX="0" refY="5" orient="auto" markerUnits="strokeWidth"><path d="M10,5 L0,0 M10,5 L0,5 M10,5 L0,10" stroke="#0A0F25" stroke-width="2" fill="none"/><line x1="7" y1="0" x2="7" y2="10" stroke="#0A0F25" stroke-width="2"/></marker>
<marker id="arrow-cf-one-optional" markerWidth="10" markerHeight="10" refX="10" refY="5" orient="auto" markerUnits="strokeWidth"><line x1="10" y1="0" x2="10" y2="10" stroke="#0A0F25" stroke-width="2"/><circle cx="7" cy="5" r="2" stroke="#0A0F25" stroke-width="2" fill="white"/></marker>
<marker id="arrow-cf-one-optional-reverse" markerWidth="10" markerHeight="10" refX="0" refY="5" orient="auto" markerUnits="strokeWidth"><line x1="0" y1="0" x2="0" y2="10" stroke="#0A0F25" stroke-width="2"/><circle cx="3" cy="5" r="2" stroke="#0A0F25" stroke-width="2" fill="white"/></marker>
<marker id="arrow-cf-many-optional" markerWidth="10" markerHeight="10" refX="10" refY="5" orient="auto" markerUnits="strokeWidth"><path d="M0,5 L10,0 M0,5 L10,5 M0,5 L10,10" stroke="#0A0F25" stroke-width="2" fill="none"/><circle cx="3" cy="5" r="2" stroke="#0A0F25" stroke-width="2" fill="white"/></marker>
<marker id="arrow-cf-many-optional-reverse" markerWidth="10" markerHeight="10" refX="0" refY="5" orient="auto" markerUnits="strokeWidth"><path d="M10,5 L0,0 M10,5 L0,5 M10,5 L0,10" stroke="#0A0F25" stroke-width="2" fill="none"/><circle cx="7" cy="5" r="2" stroke="#0A0F25" stroke-width="2" fill="white"/></marker>
<marker id="arrow-line" markerWidth="10" markerHeight="10" refX="10" refY="5" orient="auto" markerUnits="strokeWidth"><line x1="10" y1="0" x2="10" y2="10" stroke="#0A0F25" stroke-width="2"/></marker>
<marker id="arrow-line-reverse" markerWidth="10" markerHeight="10" refX="0" refY="5" orient="auto" markerUnits="strokeWidth"><line x1="0" y1="0" x2="0" y2="10" stroke="#0A0F25" stroke-width="2"/></marker>
<marker id="arrow-open" markerWidth="10" markerHeight="10" refX="10" refY="5" orient="auto" markerUnits="strokeWidth"><path d="M0,0 L10,5 L0,10" stroke="#0A0F25" stroke-width="2" fill="none"/></marker>
<marker id="arrow-open-reverse" markerWidth="10" markerHeight="10" refX="0" refY="5" orient="auto" markerUnits="strokeWidth"><path d="M10,0 L0,5 L10,10" stroke="#0A0F25" stroke-width="2" fill="none"/></marker>
<marker id="arrow" markerWidth="10" markerHeight="10" refX="10" refY="5" orient="auto" markerUnits="strokeWidth"><path d="M0,0 L10,5 L0,10 Z" fill="#0A0F25"/></marker>
<marker id="arrow-reverse" markerWidth="10" markerHeight="10" refX="0" refY="5" orient="auto" markerUnits="strokeWidth"><path d="M10,0 L0,5 L10,10 Z" fill="#0A0F25"/></marker>
</defs>
<rect width="100%" height="100%" fill="#FFFFFF"/>
<g id="base-layer">
<rect x="0" y="0" width="333" height="60" fill="#FFFFFF" stroke="#0A0F25" stroke-width="2" rx="0" ry="0"/>
<path d="M 493 60 H 393 v -0.8527131782945736 c 0 -10.232558139534882 10.980966325036604 -19.45736434108527 28.25768667642753 -23.875968992248062 C 411.74084919472915 31.705426356589143 406.0307467057101 25.89147286821705 406.0307467057101 19.53488372093023 C 406.0307467057101 8.75968992248062 422.57540263543194 0 442.9267935578331 0 c 20.351390922401173 0 36.896046852122986 8.75968992248062 36.896046852122986 19.53488372093023 c 0 6.356589147286821 -5.563689604685212 12.093023255813952 -15.226939970717424 15.813953488372091 c 17.276720351390924 4.4186046511627906 28.25768667642753 13.643410852713178 28.25768667642753 23.875968992248062 v 0.7751937984496123 Z" fill="#FFFFFF" stroke="#0A0F25" stroke-width="2"/>
<path d="M 409.5267386091127 180.9751051625239 C 409.5267386091127 181.61250478011473 408.860551558753 182.2497896749522 408.19448441247005 182.2497896749522 C 399.70131894484416 183.0464244741874 393.039928057554 191.17269598470364 393.039928057554 201.05158699808797 C 393.039928057554 211.5678776290631 400.5339328537171 220.01273422562144 410.02637889688253 220.01273422562144 H 474.4748201438849 C 484.6334532374101 220.01273422562144 492.96007194244606 210.9304780114723 492.96007194244606 199.9362523900574 C 492.96007194244606 189.41996175908227 485.29940047961634 180.65640535372853 475.6406474820144 180.01912045889105 C 474.9744604316547 180.01912045889105 474.3083932853717 179.54107074569794 474.1418465227818 178.74443594646274 C 471.9768585131895 168.06891013384325 461.98477218225423 160.1019885277247 450.3275779376499 160.1019885277247 C 442.6670263788969 160.1019885277247 435.8390887290168 163.44810707456983 431.50935251798563 168.70619502868072 C 431.0097122302158 169.34359464627155 430.17709832134295 169.50294455066924 429.67745803357315 169.34359464627155 C 428.0121103117506 168.70619502868072 426.18033573141486 168.38760994263868 424.18189448441245 168.38760994263868 C 416.5212230215827 168.22814531548758 410.1929256594724 173.80493307839387 409.5267386091127 180.9751051625239 Z" fill="#e3f2fd" stroke="#0A0F25" stroke-width="2"/>
<polygon points="412.25,320 474.75,320 506,350 474.75,380 412.25,380 381,350" fill="#fff3e0" stroke="#0A0F25" stroke-width="2"/>
<rect x="214" y="500" width="528" height="120" fill="#e8f5e9" stroke="#0A0F25" stroke-width="2" rx="0" ry="0"/>
<rect x="265" y="760" width="373" height="120" fill="#f3e5f5" stroke="#0A0F25" stroke-width="2" rx="0" ry="0"/>
<path d="M 184 1024 C 184 1000 232.6 1000 238 1000 C 243.4 1000 292 1000 292 1024 L 292 1036 C 292 1060 243.4 1060 238 1060 C 232.6 1060 184 1060 184 1036 L 184 1024 Z" fill="#ffebee" stroke="#0A0F25" stroke-width="2"/>
<ellipse cx="238" cy="1024" rx="54" ry="24" fill="none" stroke="none" stroke-width="0"/>
<path d="M 184 1024 C 184 1048 232.6 1048 238 1048 C 243.4 1048 292 1048 292 1024" fill="none" stroke="#0A0F25" stroke-width="2"/>
<rect x="182" y="1440" width="362" height="301" fill="#fff8e1" stroke="#0A0F25" stroke-width="2" rx="0" ry="0"/>
<path d="M 625 1000 L 727 1000 C 735.25 1000 742 1015 742 1030 C 742 1045 735.25 1060 727 1060 L 625 1060 C 616.75 1060 610 1045 610 1030 C 610 1015 616.75 1000 625 1000 Z" fill="#e0f2f1" stroke="#0A0F25" stroke-width="2"/>
<rect x="475" y="1180" width="320" height="120" fill="#fce4ec" stroke="#0A0F25" stroke-width="2" rx="0" ry="0"/>
<path d="M 655 1470 L 754 1470 C 764.95 1470 769 1485 769 1500 C 769 1515 764.95 1530 754 1530 L 655 1530 C 644.05 1530 640 1515 640 1500 C 640 1485 644.05 1470 655 1470 Z" fill="#f5f5f5" stroke="#0A0F25" stroke-width="2"/>
<rect x="420" y="530" width="116" height="60" fill="#FFFFFF" stroke="#0A0F25" stroke-width="2" rx="0" ry="0"/>
<rect x="596" y="530" width="116" height="60" fill="#FFFFFF" stroke="#0A0F25" stroke-width="2" rx="0" ry="0"/>
<path d="M 352 1494 C 352 1470 398.8 1470 404 1470 C 409.2 1470 456 1470 456 1494 L 456 1506 C 456 1530 409.2 1530 404 1530 C 398.8 1530 352 1530 352 1506 L 352 1494 Z" fill="#FFFFFF" stroke="#0A0F25" stroke-width="2"/>
<ellipse cx="404" cy="1494" rx="52" ry="24" fill="none" stroke="none" stroke-width="0"/>
<path d="M 352 1494 C 352 1518 398.8 1518 404 1518 C 409.2 1518 456 1518 456 1494" fill="none" stroke="#0A0F25" stroke-width="2"/>
<path d="M 212 1675 C 212 1651 257 1651 262 1651 C 267 1651 312 1651 312 1675 L 312 1687 C 312 1711 267 1711 262 1711 C 257 1711 212 1711 212 1687 L 212 1675 Z" fill="#FFFFFF" stroke="#0A0F25" stroke-width="2"/>
<ellipse cx="262" cy="1675" rx="50" ry="24" fill="none" stroke="none" stroke-width="0"/>
<path d="M 212 1675 C 212 1699 257 1699 262 1699 C 267 1699 312 1699 312 1675" fill="none" stroke="#0A0F25" stroke-width="2"/>
<path d="M 414 1675 C 414 1651 459 1651 464 1651 C 469 1651 514 1651 514 1675 L 514 1687 C 514 1711 469 1711 464 1711 C 459 1711 414 1711 414 1687 L 414 1675 Z" fill="#FFFFFF" stroke="#0A0F25" stroke-width="2"/>
<ellipse cx="464" cy="1675" rx="50" ry="24" fill="none" stroke="none" stroke-width="0"/>
<path d="M 414 1675 C 414 1699 459 1699 464 1699 C 469 1699 514 1699 514 1675" fill="none" stroke="#0A0F25" stroke-width="2"/>
<rect x="244" y="530" width="116" height="60" fill="#FFFFFF" stroke="#0A0F25" stroke-width="2" rx="0" ry="0"/>
<rect x="295" y="790" width="114" height="60" fill="#FFFFFF" stroke="#0A0F25" stroke-width="2" rx="0" ry="0"/>
<rect x="505" y="1210" width="100" height="60" fill="#FFFFFF" stroke="#0A0F25" stroke-width="2" rx="0" ry="0"/>
<rect x="665" y="1210" width="100" height="60" fill="#FFFFFF" stroke="#0A0F25" stroke-width="2" rx="0" ry="0"/>
<rect x="494" y="790" width="114" height="60" fill="#FFFFFF" stroke="#0A0F25" stroke-width="2" rx="0" ry="0"/>
<path d="M 362 1532 C 362 1551.4 362 1561.1 362 1580.5 C 362 1580.5 362 1590.5 352 1590.5 C 320 1590.5 304 1590.5 272 1590.5 C 272 1590.5 262 1590.5 262 1600.5 C 262 1619.1 262 1628.4 262 1647" fill="none" stroke="#0A0F25" stroke-width="2" marker-end="url(#arrow-triangle)"/>
<rect x="296.5" y="1580" width="31" height="21" fill="#FFFFFF" stroke="none" stroke-width="1" rx="3" ry="3"/>
<text x="312" y="1596" text-anchor="middle" dominant-baseline="alphabetic" font-family="Arial, sans-serif" font-size="16" style="fill: #676C7E; font-style: italic">sync</text>
<path d="M 446 1532 C 446 1551.8 446 1561.7 446 1581.5 C 446 1581.5 446 1590.5 455 1590.5 C 455 1590.5 455 1590.5 455 1590.5 C 455 1590.5 464 1590.5 464 1599.5 C 464 1618.5 464 1628 464 1647" fill="none" stroke="#0A0F25" stroke-width="2" marker-end="url(#arrow-triangle)"/>
<rect x="439.5" y="1580" width="31" height="21" fill="#FFFFFF" stroke="none" stroke-width="1" rx="3" ry="3"/>
<text x="455" y="1596" text-anchor="middle" dominant-baseline="alphabetic" font-family="Arial, sans-serif" font-size="16" style="fill: #676C7E; font-style: italic">sync</text>
<path d="M 443 62 C 443 99.6 443 118.4 443 156" fill="none" stroke="#0A0F25" stroke-width="2" marker-end="url(#arrow-triangle)"/>
<path d="M 443 222 C 443 241.2 443 250.8 443 270 C 443.2 270 443.3 270 443.5 270 C 443.5 288.4 443.5 297.6 443.5 316" fill="none" stroke="#0A0F25" stroke-width="2" marker-end="url(#arrow-triangle)"/>
<path d="M 391 382 C 391 407.2 391 419.8 391 445 C 391 445 391 455 381 455 C 353.4 455 339.6 455 312 455 C 312 455 302 455 302 465 C 302 489.4 302 501.6 302 526" fill="none" stroke="#0A0F25" stroke-width="2" marker-end="url(#arrow-triangle)"/>
<path d="M 469.75 382 C 469.75 409.55 469.75 423.325 469.75 450.875 C 469.75 450.875 469.75 455 473.875 455 C 473.875 455 473.875 455 473.875 455 C 473.875 455 478 455 478 459.125 C 478 485.875 478 499.25 478 526" fill="none" stroke="#0A0F25" stroke-width="2" marker-end="url(#arrow-triangle)"/>
<path d="M 496 382 C 496 407.2 496 419.8 496 445 C 496 445 496 455 506 455 C 561.2 455 588.8 455 644 455 C 644 455 654 455 654 465 C 654 489.4 654 501.6 654 526" fill="none" stroke="#0A0F25" stroke-width="2" marker-end="url(#arrow-triangle)"/>
<path d="M 302 592 C 302 630.6 302 649.9 302 688.5 C 302 688.5 302 690 303.5 690 C 303.5 690 303.5 690 303.5 690 C 303.5 690 305 690 305 691.5 C 305 729.3 305 748.2 305 786" fill="none" stroke="#0A0F25" stroke-width="2" marker-end="url(#arrow-triangle)"/>
<path d="M 430 592 C 430 627.2 430 644.8 430 680 C 430 680 430 690 420 690 C 415.6 690 413.4 690 409 690 C 409 690 399 690 399 700 C 399 734.4 399 751.6 399 786" fill="none" stroke="#0A0F25" stroke-width="2" marker-end="url(#arrow-triangle)"/>
<path d="M 526 592 C 526 627.2 526 644.8 526 680 C 526 680 526 690 516 690 C 515.2 690 514.8 690 514 690 C 514 690 504 690 504 700 C 504 734.4 504 751.6 504 786" fill="none" stroke="#0A0F25" stroke-width="2" marker-end="url(#arrow-triangle)"/>
<path d="M 654 592 C 654 627.2 654 644.8 654 680 C 654 680 654 690 644 690 C 629.6 690 622.4 690 608 690 C 608 690 598 690 598 700 C 598 734.4 598 751.6 598 786" fill="none" stroke="#0A0F25" stroke-width="2" marker-end="url(#arrow-triangle)"/>
<path d="M 305 852 C 305 875.2 305 886.8 305 910 C 305 910 305 920 295 920 C 282.06666666666666 920 275.59999999999997 920 262.66666666666663 920 C 262.66666666666663 920 252.66666666666666 920 252.66666666666666 930 C 252.66666666666666 956.4 252.66666666666666 969.6 252.66666666666666 996" fill="none" stroke="#0A0F25" stroke-width="2" marker-end="url(#arrow-triangle)"/>
<path d="M 504 852 C 504 879.2 504 892.8 504 920 C 504 920 504 930 494 930 C 413.2 930 372.8 930 292 930 C 292 930 282 930 282 940 C 282 962.4 282 973.6 282 996" fill="none" stroke="#0A0F25" stroke-width="2" marker-end="url(#arrow-triangle)"/>
<path d="M 375.5 852 C 375.5 879.85 375.5 893.775 375.5 921.625 C 375.5 921.625 375.5 925 372.125 925 C 372.125 925 372.125 925 372.125 925 C 372.125 925 368.75 925 368.75 928.375 C 368.75 1103.675 368.75 1191.325 368.75 1366.625 C 368.75 1366.625 368.75 1370 365.375 1370 C 365.375 1370 365.375 1370 365.375 1370 C 365.375 1370 362 1370 362 1373.375 C 362 1410.425 362 1428.95 362 1466" fill="none" stroke="#0A0F25" stroke-width="2" marker-end="url(#arrow-triangle)"/>
<path d="M 527.5 852 C 527.5 879.2 527.5 892.8 527.5 920 C 527.5 920 527.5 925 532.5 925 C 532.5 925 532.5 925 532.5 925 C 532.5 925 537.5 925 537.5 930 C 537.5 1102 537.5 1188 537.5 1360 C 537.5 1360 537.5 1370 527.5 1370 C 490.5 1370 472 1370 435 1370 C 435 1370 425 1370 425 1380 C 425 1414.4 425 1431.6 425 1466" fill="none" stroke="#0A0F25" stroke-width="2" marker-end="url(#arrow-triangle)"/>
<path d="M 399 852 C 399 875.2 399 886.8 399 910 C 399 910 399 920 409 920 C 489.4 920 529.6 920 610 920 C 610 920 620 920 620 930 C 620 956.4 620 969.6 620 996" fill="none" stroke="#0A0F25" stroke-width="2" marker-end="url(#arrow-triangle)"/>
<path d="M 598 852 C 598 879.2 598 892.8 598 920 C 598 920 598 930 608 930 C 623.7333333333333 930 631.6 930 647.3333333333334 930 C 647.3333333333334 930 657.3333333333334 930 657.3333333333334 940 C 657.3333333333334 962.4 657.3333333333334 973.6 657.3333333333334 996" fill="none" stroke="#0A0F25" stroke-width="2" marker-end="url(#arrow-triangle)"/>
<path d="M 620 1062 C 620 1087.2 620 1099.8 620 1125 C 620 1125 620 1135 610 1135 C 592 1135 583 1135 565 1135 C 565 1135 555 1135 555 1145 C 555 1169.4 555 1181.6 555 1206" fill="none" stroke="#0A0F25" stroke-width="2" marker-end="url(#arrow-triangle)"/>
<path d="M 715 1062 C 715 1119.6 715 1148.4 715 1206" fill="none" stroke="#0A0F25" stroke-width="2" marker-end="url(#arrow-triangle)"/>
<path d="M 595 1272 C 595 1307.2 595 1324.8 595 1360 C 595 1360 595 1370 605 1370 C 619 1370 626 1370 640 1370 C 640 1370 650 1370 650 1380 C 650 1414.4 650 1431.6 650 1466" fill="none" stroke="#0A0F25" stroke-width="2" marker-end="url(#arrow-triangle)"/>
<path d="M 715 1272 C 715 1349.6 715 1388.4 715 1466" fill="none" stroke="#0A0F25" stroke-width="2" marker-end="url(#arrow-triangle)"/>
<path d="M 515 1272 C 515 1307.2 515 1324.8 515 1360 C 515 1360 515 1370 505 1370 C 485.4 1370 475.6 1370 456 1370 C 456 1370 446 1370 446 1380 C 446 1414.4 446 1431.6 446 1466" fill="none" stroke="#0A0F25" stroke-width="2" marker-end="url(#arrow-triangle)"/>
<text x="166.5" y="38.5" text-anchor="middle" dominant-baseline="alphabetic" font-family="Arial, sans-serif" font-size="24" style="fill: #0A0F25; font-weight: 700">Web Application Architecture</text>
<text x="443" y="81" text-anchor="middle" dominant-baseline="alphabetic" font-family="Arial, sans-serif" font-size="16" style="fill: #0A0F25; font-weight: 700">Users</text>
<text x="442.95" y="206.94" text-anchor="middle" dominant-baseline="alphabetic" font-family="Arial, sans-serif" font-size="16" style="fill: #0A0F25; font-weight: 700">CDN</text>
<text x="443.5" y="355.5" text-anchor="middle" dominant-baseline="alphabetic" font-family="Arial, sans-serif" font-size="16" style="fill: #0A0F25; font-weight: 700">Load Balancer</text>
<text x="478" y="487" text-anchor="middle" dominant-baseline="alphabetic" font-family="Arial, sans-serif" font-size="28" style="fill: #0A0F25">Web Tier</text>
<text x="451.5" y="747" text-anchor="middle" dominant-baseline="alphabetic" font-family="Arial, sans-serif" font-size="28" style="fill: #0A0F25">Application Tier</text>
<text x="238" y="1035.5" text-anchor="middle" dominant-baseline="alphabetic" font-family="Arial, sans-serif" font-size="16" style="fill: #0A0F25; font-weight: 700">Redis Cache</text>
<text x="363" y="1427" text-anchor="middle" dominant-baseline="alphabetic" font-family="Arial, sans-serif" font-size="28" style="fill: #0A0F25">Database Cluster</text>
<text x="664" y="1035.5" text-anchor="middle" dominant-baseline="alphabetic" font-family="Arial, sans-serif" font-size="16" style="fill: #0A0F25; font-weight: 700">Message Queue</text>
<text x="635" y="1167" text-anchor="middle" dominant-baseline="alphabetic" font-family="Arial, sans-serif" font-size="28" style="fill: #0A0F25">Background Workers</text>
<text x="704.5" y="1505.5" text-anchor="middle" dominant-baseline="alphabetic" font-family="Arial, sans-serif" font-size="16" style="fill: #0A0F25; font-weight: 700">Object Storage</text>
<text x="478" y="565.5" text-anchor="middle" dominant-baseline="alphabetic" font-family="Arial, sans-serif" font-size="16" style="fill: #0A0F25; font-weight: 700">Web Server 2</text>
<text x="654" y="565.5" text-anchor="middle" dominant-baseline="alphabetic" font-family="Arial, sans-serif" font-size="16" style="fill: #0A0F25; font-weight: 700">Web Server 3</text>
<text x="404" y="1505.5" text-anchor="middle" dominant-baseline="alphabetic" font-family="Arial, sans-serif" font-size="16" style="fill: #0A0F25; font-weight: 700">Primary DB</text>
<text x="262" y="1686.5" text-anchor="middle" dominant-baseline="alphabetic" font-family="Arial, sans-serif" font-size="16" style="fill: #0A0F25; font-weight: 700">Replica 1</text>
<text x="464" y="1686.5" text-anchor="middle" dominant-baseline="alphabetic" font-family="Arial, sans-serif" font-size="16" style="fill: #0A0F25; font-weight: 700">Replica 2</text>
<text x="302" y="565.5" text-anchor="middle" dominant-baseline="alphabetic" font-family="Arial, sans-serif" font-size="16" style="fill: #0A0F25; font-weight: 700">Web Server 1</text>
<text x="352" y="825.5" text-anchor="middle" dominant-baseline="alphabetic" font-family="Arial, sans-serif" font-size="16" style="fill: #0A0F25; font-weight: 700">App Server 1</text>
<text x="555" y="1245.5" text-anchor="middle" dominant-baseline="alphabetic" font-family="Arial, sans-serif" font-size="16" style="fill: #0A0F25; font-weight: 700">Worker 1</text>
<text x="715" y="1245.5" text-anchor="middle" dominant-baseline="alphabetic" font-family="Arial, sans-serif" font-size="16" style="fill: #0A0F25; font-weight: 700">Worker 2</text>
<text x="551" y="825.5" text-anchor="middle" dominant-baseline="alphabetic" font-family="Arial, sans-serif" font-size="16" style="fill: #0A0F25; font-weight: 700">App Server 2</text>
</g>
</svg>
