<?xml version="1.0" encoding="UTF-8"?>
<svg xmlns="http://www.w3.org/2000/svg" width="1132" height="423" viewBox="-95 -101 1132 423" data-d2-version="0.2.0" class="d2-676159399 d2-svg">
<defs><mask id="edge-label-mask" maskUnits="userSpaceOnUse" x="-95" y="-101" width="1132" height="423"><rect x="-95" y="-101" width="1132" height="423" fill="white"></rect><rect x="-1" y="100" width="115" height="21" fill="black"></rect><rect x="190" y="100" width="64" height="21" fill="black"></rect><rect x="368" y="100" width="40" height="21" fill="black"></rect><rect x="511" y="100" width="86" height="21" fill="black"></rect><rect x="671" y="100" width="99" height="21" fill="black"></rect><rect x="864" y="100" width="45" height="21" fill="black"></rect></mask>
<marker id="mk-161592640" markerWidth="10" markerHeight="12" refX="7" refY="6" viewBox="0 0 10 12" orient="auto" markerUnits="userSpaceOnUse"><polygon points="0,0 10,6 0,12" fill="#0D32B2" stroke-width="2"/></marker>
<marker id="mk-1734378072" markerWidth="24.200000000000003" markerHeight="18" refX="20.8" refY="9" viewBox="0 0 24.200000000000003 18" orient="auto" markerUnits="userSpaceOnUse"><polygon points="0,9 11,2.25 22,9 11,16.2" fill="#FFFFFF" stroke="#0D32B2" stroke-width="2"/></marker>
<marker id="mk-2052270848" markerWidth="18" markerHeight="18" refX="15" refY="9" viewBox="0 0 18 18" orient="auto" markerUnits="userSpaceOnUse"><circle cx="10" cy="9" r="7" fill="#FFFFFF" stroke="#0D32B2" stroke-width="2"/></marker>
<marker id="mk-1183370137" markerWidth="18" markerHeight="18" refX="15" refY="9" viewBox="0 0 18 18" orient="auto" markerUnits="userSpaceOnUse"><g fill="#FFFFFF" stroke="#0D32B2" stroke-width="2"><circle cx="5.3" cy="9" r="3.3" fill="#FFFFFF" stroke="#0D32B2" stroke-width="2"/><path d="M15,9 24.6,9 M9.6,9 24.6,0 M9.6,9 24.6,18"/></g></marker>
<marker id="mk-548447935" markerWidth="18" markerHeight="18" refX="3" refY="9" viewBox="0 0 18 18" orient="auto" markerUnits="userSpaceOnUse"><circle cx="8" cy="9" r="7" fill="#FFFFFF" stroke="#0D32B2" stroke-width="2"/></marker>
</defs>
<rect x="-95" y="-101" width="1132" height="423" rx="0" fill="#FFFFFF" stroke-width="0"/>
<g id="base-layer">
<rect x="6" y="0" width="100" height="60" fill="#F7F8FE" stroke="#0D32B2" stroke-width="2" rx="0" ry="0"/>
<rect x="6" y="161" width="100" height="60" fill="#F7F8FE" stroke="#0D32B2" stroke-width="2" rx="0" ry="0"/>
<rect x="172" y="0" width="100" height="60" fill="#F7F8FE" stroke="#0D32B2" stroke-width="2" rx="0" ry="0"/>
<rect x="172" y="161" width="100" height="60" fill="#F7F8FE" stroke="#0D32B2" stroke-width="2" rx="0" ry="0"/>
<rect x="338" y="0" width="100" height="60" fill="#F7F8FE" stroke="#0D32B2" stroke-width="2" rx="0" ry="0"/>
<rect x="338" y="161" width="100" height="60" fill="#F7F8FE" stroke="#0D32B2" stroke-width="2" rx="0" ry="0"/>
<rect x="504" y="0" width="100" height="60" fill="#F7F8FE" stroke="#0D32B2" stroke-width="2" rx="0" ry="0"/>
<rect x="504" y="161" width="100" height="60" fill="#F7F8FE" stroke="#0D32B2" stroke-width="2" rx="0" ry="0"/>
<rect x="670" y="0" width="100" height="60" fill="#F7F8FE" stroke="#0D32B2" stroke-width="2" rx="0" ry="0"/>
<rect x="670" y="161" width="100" height="60" fill="#F7F8FE" stroke="#0D32B2" stroke-width="2" rx="0" ry="0"/>
<rect x="836" y="0" width="100" height="60" fill="#F7F8FE" stroke="#0D32B2" stroke-width="2" rx="0" ry="0"/>
<rect x="836" y="161" width="100" height="60" fill="#F7F8FE" stroke="#0D32B2" stroke-width="2" rx="0" ry="0"/>
<path d="M 56 62 L 56 157" fill="none" stroke="#0D32B2" stroke-width="2" marker-end="url(#mk-161592640)" mask="url(#edge-label-mask)"/>
<text x="56.5" y="116" text-anchor="middle" dominant-baseline="alphabetic" font-family="Arial, sans-serif" font-size="16" style="fill: #676C7E; font-style: italic">triangle (default)</text>
<path d="M 222 62 L 222 157" fill="none" stroke="#0D32B2" stroke-width="2" marker-end="url(#mk-1734378072)" mask="url(#edge-label-mask)"/>
<text x="222" y="116" text-anchor="middle" dominant-baseline="alphabetic" font-family="Arial, sans-serif" font-size="16" style="fill: #676C7E; font-style: italic">diamond</text>
<path d="M 388 62 L 388 157" fill="none" stroke="#0D32B2" stroke-width="2" marker-end="url(#mk-2052270848)" mask="url(#edge-label-mask)"/>
<text x="388" y="116" text-anchor="middle" dominant-baseline="alphabetic" font-family="Arial, sans-serif" font-size="16" style="fill: #676C7E; font-style: italic">circle</text>
<path d="M 554 62 L 554 157" fill="none" stroke="#0D32B2" stroke-width="2" marker-end="url(#mk-1183370137)" mask="url(#edge-label-mask)"/>
<text x="554" y="116" text-anchor="middle" dominant-baseline="alphabetic" font-family="Arial, sans-serif" font-size="16" style="fill: #676C7E; font-style: italic">one to many</text>
<path d="M 720 62 L 720 157" fill="none" stroke="#0D32B2" stroke-width="2" marker-end="url(#mk-1183370137)" mask="url(#edge-label-mask)"/>
<text x="720.5" y="116" text-anchor="middle" dominant-baseline="alphabetic" font-family="Arial, sans-serif" font-size="16" style="fill: #676C7E; font-style: italic">many to many</text>
<path d="M 886 64 L 886 157" fill="none" stroke="#0D32B2" stroke-width="2" marker-start="url(#mk-548447935)" marker-end="url(#mk-1734378072)" mask="url(#edge-label-mask)"/>
<text x="886.5" y="116" text-anchor="middle" dominant-baseline="alphabetic" font-family="Arial, sans-serif" font-size="16" style="fill: #676C7E; font-style: italic">mixed</text>
<text x="56" y="35.5" text-anchor="middle" dominant-baseline="alphabetic" font-family="Arial, sans-serif" font-size="16" style="fill: #0A0F25; font-weight: 700">a</text>
<text x="56" y="196.5" text-anchor="middle" dominant-baseline="alphabetic" font-family="Arial, sans-serif" font-size="16" style="fill: #0A0F25; font-weight: 700">b</text>
<text x="222" y="35.5" text-anchor="middle" dominant-baseline="alphabetic" font-family="Arial, sans-serif" font-size="16" style="fill: #0A0F25; font-weight: 700">c</text>
<text x="222" y="196.5" text-anchor="middle" dominant-baseline="alphabetic" font-family="Arial, sans-serif" font-size="16" style="fill: #0A0F25; font-weight: 700">d</text>
<text x="388" y="35.5" text-anchor="middle" dominant-baseline="alphabetic" font-family="Arial, sans-serif" font-size="16" style="fill: #0A0F25; font-weight: 700">e</text>
<text x="388" y="196.5" text-anchor="middle" dominant-baseline="alphabetic" font-family="Arial, sans-serif" font-size="16" style="fill: #0A0F25; font-weight: 700">f</text>
<text x="554" y="35.5" text-anchor="middle" dominant-baseline="alphabetic" font-family="Arial, sans-serif" font-size="16" style="fill: #0A0F25; font-weight: 700">user</text>
<text x="554" y="196.5" text-anchor="middle" dominant-baseline="alphabetic" font-family="Arial, sans-serif" font-size="16" style="fill: #0A0F25; font-weight: 700">orders</text>
<text x="720" y="35.5" text-anchor="middle" dominant-baseline="alphabetic" font-family="Arial, sans-serif" font-size="16" style="fill: #0A0F25; font-weight: 700">students</text>
<text x="720" y="196.5" text-anchor="middle" dominant-baseline="alphabetic" font-family="Arial, sans-serif" font-size="16" style="fill: #0A0F25; font-weight: 700">courses</text>
<text x="886" y="35.5" text-anchor="middle" dominant-baseline="alphabetic" font-family="Arial, sans-serif" font-size="16" style="fill: #0A0F25; font-weight: 700">g</text>
<text x="886" y="196.5" text-anchor="middle" dominant-baseline="alphabetic" font-family="Arial, sans-serif" font-size="16" style="fill: #0A0F25; font-weight: 700">h</text>
</g>
</svg>
