<?xml version="1.0" encoding="UTF-8"?>
<svg xmlns="http://www.w3.org/2000/svg" width="764" height="855" viewBox="-91 -101 764 855" data-d2-version="0.2.0" class="d2-1716521580 d2-svg">
<defs><mask id="edge-label-mask" maskUnits="userSpaceOnUse" x="-91" y="-101" width="764" height="855"><rect x="-91" y="-101" width="764" height="855" fill="white"></rect><rect x="70" y="134" width="59" height="21" fill="black"></rect><rect x="100" y="315" width="35" height="21" fill="black"></rect><rect x="-24" y="470" width="87" height="21" fill="black"></rect><rect x="190" y="507" width="138" height="21" fill="black"></rect><rect x="263" y="484" width="128" height="21" fill="black"></rect></mask>
<marker id="mk-161592640" markerWidth="10" markerHeight="12" refX="7" refY="6" viewBox="0 0 10 12" orient="auto" markerUnits="userSpaceOnUse"><polygon points="0,0 10,6 0,12" fill="#0D32B2" stroke-width="2"/></marker>
</defs>
<rect x="-91" y="-101" width="764" height="855" rx="0" fill="#FFFFFF" stroke-width="0"/>
<g id="base-layer">
<path d="M 140 60 H 40 v -0.8527131782945736 c 0 -10.232558139534882 10.980966325036604 -19.45736434108527 28.25768667642753 -23.875968992248062 C 58.74084919472914 31.705426356589143 53.0307467057101 25.89147286821705 53.0307467057101 19.53488372093023 C 53.0307467057101 8.75968992248062 69.57540263543191 0 89.9267935578331 0 c 20.351390922401173 0 36.896046852122986 8.75968992248062 36.896046852122986 19.53488372093023 c 0 6.356589147286821 -5.563689604685212 12.093023255813952 -15.226939970717424 15.813953488372091 c 17.276720351390924 4.4186046511627906 28.25768667642753 13.643410852713178 28.25768667642753 23.875968992248062 v 0.7751937984496123 Z" fill="#E3E9FD" stroke="#0D32B2" stroke-width="2"/>
<rect x="10" y="171" width="199" height="482" fill="#E3E9FD" stroke="#0D32B2" stroke-width="2" rx="0" ry="0"/>
<rect x="176" y="533" width="396" height="120" fill="#E3E9FD" stroke="#0D32B2" stroke-width="2" rx="0" ry="0"/>
<rect x="40" y="362" width="115" height="60" fill="#438DD5" stroke="#0D32B2" stroke-width="2" rx="0" ry="0"/>
<path d="M 40 587 C 40 563 85 563 90 563 C 95 563 140 563 140 587 L 140 599 C 140 623 95 623 90 623 C 85 623 40 623 40 599 L 40 587 Z" fill="#438DD5" stroke="#0D32B2" stroke-width="2"/>
<path d="M 40 587 C 40 611 85 611 90 611 C 95 611 140 611 140 587" fill="#438DD5" stroke="#0D32B2" stroke-width="2"/>
<rect x="40" y="201" width="139" height="60" fill="#438DD5" stroke="#0D32B2" stroke-width="2" rx="0" ry="0"/>
<rect x="206" y="563" width="152" height="60" fill="#999999" stroke="#0D32B2" stroke-width="2" rx="0" ry="0"/>
<rect x="424" y="563" width="118" height="60" fill="#999999" stroke="#0D32B2" stroke-width="2" rx="0" ry="0"/>
<path d="M 90 62 L 90 120.75 C 90 140.25 109.5 120.75 109.5 140.25 L 109.5 197" fill="none" stroke="#0D32B2" stroke-width="2" marker-end="url(#mk-161592640)" mask="url(#edge-label-mask)"/>
<text x="99.5" y="150" text-anchor="middle" dominant-baseline="alphabetic" font-family="Arial, sans-serif" font-size="16" style="fill: #676C7E; font-style: italic">browses</text>
<path d="M 109.5 263 L 109.5 305.5 C 109.5 317.5 97.5 305.5 97.5 317.5 L 97.5 358" fill="none" stroke="#0D32B2" stroke-width="2" marker-end="url(#mk-161592640)" mask="url(#edge-label-mask)"/>
<text x="117.5" y="331" text-anchor="middle" dominant-baseline="alphabetic" font-family="Arial, sans-serif" font-size="16" style="fill: #676C7E; font-style: italic">calls</text>
<path d="M 90 424 L 90 559" fill="none" stroke="#0D32B2" stroke-width="2" marker-end="url(#mk-161592640)" mask="url(#edge-label-mask)"/>
<text x="19.5" y="486" text-anchor="middle" dominant-baseline="alphabetic" font-family="Arial, sans-serif" font-size="16" style="fill: #676C7E; font-style: italic">reads/writes</text>
<path d="M 121.25 424 L 121.25 495 S 121.25 505 131.25 505 L 272 505 S 282 505 282 515 L 282 559" fill="none" stroke="#0D32B2" stroke-width="2" marker-end="url(#mk-161592640)" mask="url(#edge-label-mask)"/>
<text x="259" y="523" text-anchor="middle" dominant-baseline="alphabetic" font-family="Arial, sans-serif" font-size="16" style="fill: #676C7E; font-style: italic">processes payments</text>
<path d="M 145 424 L 145 470 S 145 480 155 480 L 473 480 S 483 480 483 490 L 483 559" fill="none" stroke="#0D32B2" stroke-width="2" marker-end="url(#mk-161592640)" mask="url(#edge-label-mask)"/>
<text x="327" y="500" text-anchor="middle" dominant-baseline="alphabetic" font-family="Arial, sans-serif" font-size="16" style="fill: #676C7E; font-style: italic">sends notifications</text>
<text x="90" y="81" text-anchor="middle" dominant-baseline="alphabetic" font-family="Arial, sans-serif" font-size="16" style="fill: #0A0F25; font-weight: 700">Customer</text>
<text x="109.5" y="158" text-anchor="middle" dominant-baseline="alphabetic" font-family="Arial, sans-serif" font-size="28" style="fill: #0A0F25">E-Commerce System</text>
<text x="374" y="520" text-anchor="middle" dominant-baseline="alphabetic" font-family="Arial, sans-serif" font-size="28" style="fill: #0A0F25">external</text>
<text x="97.5" y="397.5" text-anchor="middle" dominant-baseline="alphabetic" font-family="Arial, sans-serif" font-size="16" style="fill: #0A0F25; font-weight: 700">API Gateway</text>
<text x="90" y="598.5" text-anchor="middle" dominant-baseline="alphabetic" font-family="Arial, sans-serif" font-size="16" style="fill: #0A0F25; font-weight: 700">Database</text>
<text x="109.5" y="236.5" text-anchor="middle" dominant-baseline="alphabetic" font-family="Arial, sans-serif" font-size="16" style="fill: #0A0F25; font-weight: 700">Web Application</text>
<text x="282" y="598.5" text-anchor="middle" dominant-baseline="alphabetic" font-family="Arial, sans-serif" font-size="16" style="fill: #0A0F25; font-weight: 700">Payment Provider</text>
<text x="483" y="598.5" text-anchor="middle" dominant-baseline="alphabetic" font-family="Arial, sans-serif" font-size="16" style="fill: #0A0F25; font-weight: 700">Email Service</text>
</g>
</svg>
