<?xml version="1.0" encoding="UTF-8"?>
<svg xmlns="http://www.w3.org/2000/svg" width="1422" height="855" viewBox="-199 -101 1422 855" data-d2-version="0.2.0" class="d2-1716521580 d2-svg">
<defs><mask id="edge-label-mask" maskUnits="userSpaceOnUse" x="-199" y="-101" width="1422" height="855"><rect x="-199" y="-101" width="1422" height="855" fill="white"></rect><rect x="35" y="55" width="59" height="21" fill="black"></rect><rect x="47" y="301" width="35" height="21" fill="black"></rect><rect x="21" y="482" width="87" height="21" fill="black"></rect><rect x="441" y="374" width="138" height="21" fill="black"></rect><rect x="467" y="459" width="128" height="21" fill="black"></rect></mask>
<marker id="mk-161592640" markerWidth="10" markerHeight="12" refX="7" refY="6" viewBox="0 0 10 12" orient="auto" markerUnits="userSpaceOnUse"><polygon points="0,0 10,6 0,12" fill="#0D32B2" stroke-width="2"/></marker>
</defs>
<rect x="-199" y="-101" width="1422" height="855" rx="0" fill="#FFFFFF" stroke-width="0"/>
<g id="base-layer">
<rect x="-98" y="125" width="542" height="528" fill="#E3E9FD" stroke="#0D32B2" stroke-width="2" rx="0" ry="0"/>
<rect x="464" y="487" width="658" height="166" fill="#E3E9FD" stroke="#0D32B2" stroke-width="2" rx="0" ry="0"/>
<path d="M 306 60 H 40 v -0.8527131782945736 c 0 -10.232558139534882 29.209370424597367 -19.45736434108527 75.16544655929722 -23.875968992248062 C 89.85065885797951 31.705426356589143 74.66178623718888 25.89147286821705 74.66178623718888 19.53488372093023 C 74.66178623718888 8.75968992248062 118.6705710102489 0 172.80527086383603 0 c 54.13469985358712 0 98.14348462664715 8.75968992248062 98.14348462664715 19.53488372093023 c 0 6.356589147286821 -14.799414348462665 12.093023255813952 -40.50366032210835 15.813953488372091 c 45.956076134699856 4.4186046511627906 75.16544655929722 13.643410852713178 75.16544655929722 23.875968992248062 v 0.7751937984496123 Z" fill="#E3E9FD" stroke="#0D32B2" stroke-width="2"/>
<rect x="40" y="201" width="266" height="60" fill="#438DD5" stroke="#0D32B2" stroke-width="2" rx="0" ry="0"/>
<rect x="40" y="362" width="266" height="60" fill="#438DD5" stroke="#0D32B2" stroke-width="2" rx="0" ry="0"/>
<path d="M 40 587 C 40 563 159.7 563 173 563 C 186.3 563 306 563 306 587 L 306 599 C 306 623 186.3 623 173 623 C 159.7 623 40 623 40 599 L 40 587 Z" fill="#438DD5" stroke="#0D32B2" stroke-width="2"/>
<path d="M 40 587 C 40 611 159.7 611 173 611 C 186.3 611 306 611 306 587" fill="#438DD5" stroke="#0D32B2" stroke-width="2"/>
<rect x="494" y="563" width="266" height="60" fill="#999999" stroke="#0D32B2" stroke-width="2" rx="0" ry="0"/>
<rect x="826" y="563" width="266" height="60" fill="#999999" stroke="#0D32B2" stroke-width="2" rx="0" ry="0"/>
<path d="M 64 62 L 64 197" fill="none" stroke="#0D32B2" stroke-width="2" marker-end="url(#mk-161592640)" mask="url(#edge-label-mask)"/>
<text x="64.5" y="71" text-anchor="middle" dominant-baseline="alphabetic" font-family="Arial, sans-serif" font-size="16" style="fill: #676C7E; font-style: italic">browses</text>
<path d="M 64 263 L 64 358" fill="none" stroke="#0D32B2" stroke-width="2" marker-end="url(#mk-161592640)" mask="url(#edge-label-mask)"/>
<text x="64.5" y="317" text-anchor="middle" dominant-baseline="alphabetic" font-family="Arial, sans-serif" font-size="16" style="fill: #676C7E; font-style: italic">calls</text>
<path d="M 64 424 L 64 559" fill="none" stroke="#0D32B2" stroke-width="2" marker-end="url(#mk-161592640)" mask="url(#edge-label-mask)"/>
<text x="64.5" y="498" text-anchor="middle" dominant-baseline="alphabetic" font-family="Arial, sans-serif" font-size="16" style="fill: #676C7E; font-style: italic">reads/writes</text>
<path d="M 125.5 424 L 125.5 495 S 125.5 505 135.5 505 L 508 505 S 518 505 518 515 L 518 559" fill="none" stroke="#0D32B2" stroke-width="2" marker-end="url(#mk-161592640)" mask="url(#edge-label-mask)"/>
<text x="510" y="390" text-anchor="middle" dominant-baseline="alphabetic" font-family="Arial, sans-serif" font-size="16" style="fill: #676C7E; font-style: italic">processes payments</text>
<path d="M 187 424 L 187 470 S 187 480 197 480 L 840 480 S 850 480 850 490 L 850 559" fill="none" stroke="#0D32B2" stroke-width="2" marker-end="url(#mk-161592640)" mask="url(#edge-label-mask)"/>
<text x="531" y="475" text-anchor="middle" dominant-baseline="alphabetic" font-family="Arial, sans-serif" font-size="16" style="fill: #676C7E; font-style: italic">sends notifications</text>
<text x="173" y="112" text-anchor="middle" dominant-baseline="alphabetic" font-family="Arial, sans-serif" font-size="28" style="fill: #0A0F25">E-Commerce System</text>
<text x="793" y="474" text-anchor="middle" dominant-baseline="alphabetic" font-family="Arial, sans-serif" font-size="28" style="fill: #0A0F25">external</text>
<text x="173" y="81" text-anchor="middle" dominant-baseline="alphabetic" font-family="Arial, sans-serif" font-size="16" style="fill: #0A0F25; font-weight: 700">Customer</text>
<text x="173" y="236.5" text-anchor="middle" dominant-baseline="alphabetic" font-family="Arial, sans-serif" font-size="16" style="fill: #0A0F25; font-weight: 700">Web Application</text>
<text x="173" y="397.5" text-anchor="middle" dominant-baseline="alphabetic" font-family="Arial, sans-serif" font-size="16" style="fill: #0A0F25; font-weight: 700">API Gateway</text>
<text x="173" y="598.5" text-anchor="middle" dominant-baseline="alphabetic" font-family="Arial, sans-serif" font-size="16" style="fill: #0A0F25; font-weight: 700">Database</text>
<text x="627" y="598.5" text-anchor="middle" dominant-baseline="alphabetic" font-family="Arial, sans-serif" font-size="16" style="fill: #0A0F25; font-weight: 700">Payment Provider</text>
<text x="959" y="598.5" text-anchor="middle" dominant-baseline="alphabetic" font-family="Arial, sans-serif" font-size="16" style="fill: #0A0F25; font-weight: 700">Email Service</text>
</g>
</svg>
