<?xml version="1.0" encoding="UTF-8"?>
<svg xmlns="http://www.w3.org/2000/svg" width="517.5" height="703" viewBox="-112.5 -101 517.5 703" data-d2-version="0.2.0" class="d2-911176571 d2-svg">
<defs><mask id="edge-label-mask" maskUnits="userSpaceOnUse" x="-112.5" y="-101" width="517.5" height="703"><rect x="-112.5" y="-101" width="517.5" height="703" fill="white"></rect><rect x="-14" y="380" width="75" height="21" fill="black"></rect></mask>
<marker id="mk-161592640" markerWidth="10" markerHeight="12" refX="7" refY="6" viewBox="0 0 10 12" orient="auto" markerUnits="userSpaceOnUse"><polygon points="0,0 10,6 0,12" fill="#0D32B2" stroke-width="2"/></marker>
</defs>
<rect x="-112.5" y="-101" width="517.5" height="703" rx="0" fill="#FFFFFF" stroke-width="0"/>
<g id="base-layer">
<rect x="188" y="140" width="116" height="60" fill="#e3f2fd" stroke="#1976D2" stroke-width="2" rx="0" ry="0"/>
<rect x="0" y="140" width="116" height="60" fill="#e3f2fd" stroke="#1976D2" stroke-width="2" rx="0" ry="0"/>
<path d="M 0 304 C 0 280 52.2 280 58 280 C 63.8 280 116 280 116 304 L 116 316 C 116 340 63.8 340 58 340 C 52.2 340 0 340 0 316 L 0 304 Z" fill="#fff8e1" stroke="#FFA000" stroke-width="2"/>
<path d="M 0 304 C 0 328 52.2 328 58 328 C 63.8 328 116 328 116 304" fill="#fff8e1" stroke="#FFA000" stroke-width="2"/>
<path d="M 0 465 C 0 441 52.2 441 58 441 C 63.8 441 116 441 116 465 L 116 477 C 116 501 63.8 501 58 501 C 52.2 501 0 501 0 477 L 0 465 Z" fill="#fff8e1" stroke="#FFA000" stroke-width="2"/>
<path d="M 0 465 C 0 489 52.2 489 58 489 C 63.8 489 116 489 116 465" fill="#fff8e1" stroke="#FFA000" stroke-width="2"/>
<path d="M 298 60 H 182 v -0.8527131782945736 c 0 -10.232558139534882 12.73792093704246 -19.45736434108527 32.778916544655935 -23.875968992248062 C 203.7393850658858 31.705426356589143 197.1156661786237 25.89147286821705 197.1156661786237 19.53488372093023 C 197.1156661786237 8.75968992248062 216.307467057101 0 239.9150805270864 0 c 23.60761346998536 0 42.79941434846266 8.75968992248062 42.79941434846266 19.53488372093023 c 0 6.356589147286821 -6.453879941434846 12.093023255813952 -17.663250366032212 15.813953488372091 c 20.04099560761347 4.4186046511627906 32.778916544655935 13.643410852713178 32.778916544655935 23.875968992248062 v 0.7751937984496123 Z" fill="#f3e5f5" stroke="#0D32B2" stroke-width="2"/>
<path d="M 116 60 H 0 v -0.8527131782945736 c 0 -10.232558139534882 12.73792093704246 -19.45736434108527 32.778916544655935 -23.875968992248062 C 21.7393850658858 31.705426356589143 15.11566617862372 25.89147286821705 15.11566617862372 19.53488372093023 C 15.11566617862372 8.75968992248062 34.30746705710102 0 57.91508052708639 0 c 23.60761346998536 0 42.79941434846266 8.75968992248062 42.79941434846266 19.53488372093023 c 0 6.356589147286821 -6.453879941434846 12.093023255813952 -17.663250366032212 15.813953488372091 c 20.04099560761347 4.4186046511627906 32.778916544655935 13.643410852713178 32.778916544655935 23.875968992248062 v 0.7751937984496123 Z" fill="#f3e5f5" stroke="#0D32B2" stroke-width="2"/>
<path d="M 206 62 L 206 136" fill="none" stroke="#0D32B2" stroke-width="2" marker-end="url(#mk-161592640)" mask="url(#edge-label-mask)"/>
<path d="M 24 62 L 24 136" fill="none" stroke="#0D32B2" stroke-width="2" marker-end="url(#mk-161592640)" mask="url(#edge-label-mask)"/>
<path d="M 212 202 L 212 230 S 212 240 202 240 L 66 240 S 56 240 56 250 L 56 276" fill="none" stroke="#0D32B2" stroke-width="2" marker-end="url(#mk-161592640)" mask="url(#edge-label-mask)"/>
<path d="M 24 202 L 24 276" fill="none" stroke="#0D32B2" stroke-width="2" marker-end="url(#mk-161592640)" mask="url(#edge-label-mask)"/>
<path d="M 24 342 L 24 437" fill="none" stroke="#0D32B2" stroke-width="2" marker-end="url(#mk-161592640)" mask="url(#edge-label-mask)"/>
<text x="23.5" y="396" text-anchor="middle" dominant-baseline="alphabetic" font-family="Arial, sans-serif" font-size="16" style="fill: #676C7E; font-style: italic">replication</text>
<text x="246" y="175.5" text-anchor="middle" dominant-baseline="alphabetic" font-family="Arial, sans-serif" font-size="16" style="fill: #0A0F25; font-weight: 700">Web Server 1</text>
<text x="58" y="175.5" text-anchor="middle" dominant-baseline="alphabetic" font-family="Arial, sans-serif" font-size="16" style="fill: #0A0F25; font-weight: 700">Web Server 2</text>
<text x="58" y="315.5" text-anchor="middle" dominant-baseline="alphabetic" font-family="Arial, sans-serif" font-size="16" style="fill: #0A0F25; font-weight: 700">Primary DB</text>
<text x="58" y="476.5" text-anchor="middle" dominant-baseline="alphabetic" font-family="Arial, sans-serif" font-size="16" style="fill: #0A0F25; font-weight: 700">Replica DB</text>
<text x="240" y="81" text-anchor="middle" dominant-baseline="alphabetic" font-family="Arial, sans-serif" font-size="16" style="fill: #0A0F25; font-weight: 700">Alice</text>
<text x="58" y="81" text-anchor="middle" dominant-baseline="alphabetic" font-family="Arial, sans-serif" font-size="16" style="fill: #0A0F25; font-weight: 700">Bob</text>
</g>
</svg>
