<?xml version="1.0" encoding="UTF-8"?>
<svg xmlns="http://www.w3.org/2000/svg" width="830" height="491" viewBox="-90 -90 830 491" data-d2-version="0.2.0">
<defs><mask id="edge-label-mask" maskUnits="userSpaceOnUse" x="-90" y="-90" width="830" height="491"><rect x="-90" y="-90" width="830" height="491" fill="white"></rect><rect x="569" y="160" width="42" height="21" fill="black"></rect></mask>
<marker id="mk-161592640" markerWidth="10" markerHeight="12" refX="7" refY="6" viewBox="0 0 10 12" orient="auto" markerUnits="userSpaceOnUse"><polygon points="0,0 10,6 0,12" fill="#0D32B2" stroke-width="2"/></marker>
</defs>
<rect x="-90" y="-90" width="830" height="491" rx="0" fill="#FFFFFF" stroke-width="0"/>
<g id="base-layer">
<rect x="10" y="10" width="480" height="120" fill="#E3E9FD" stroke="#0D32B2" stroke-width="2" rx="0" ry="0"/>
<rect x="540" y="40" width="100" height="60" fill="#F7F8FE" stroke="#0D32B2" stroke-width="2" rx="0" ry="0"/>
<path d="M 540 265 C 540 241 585 241 590 241 C 595 241 640 241 640 265 L 640 277 C 640 301 595 301 590 301 C 585 301 540 301 540 277 L 540 265 Z" fill="#EDF0FD" stroke="#0D32B2" stroke-width="2"/>
<path d="M 540 265 C 540 289 585 289 590 289 C 595 289 640 289 640 265" fill="#EDF0FD" stroke="#0D32B2" stroke-width="2"/>
<rect x="360" y="40" width="100" height="60" fill="#EDF0FD" stroke="#0D32B2" stroke-width="2" rx="0" ry="0"/>
<rect x="40" y="40" width="100" height="60" fill="#EDF0FD" stroke="#0D32B2" stroke-width="2" rx="0" ry="0"/>
<rect x="200" y="40" width="100" height="60" fill="#EDF0FD" stroke="#0D32B2" stroke-width="2" rx="0" ry="0"/>
<path d="M 590 102 L 590 237" fill="none" stroke="#0D32B2" stroke-width="2" marker-end="url(#mk-161592640)" mask="url(#edge-label-mask)"/>
<text x="590" y="176" text-anchor="middle" dominant-baseline="alphabetic" font-family="Arial, sans-serif" font-size="16" style="fill: #676C7E; font-style: italic">reads</text>
<text x="250" y="-3" text-anchor="middle" dominant-baseline="alphabetic" font-family="Arial, sans-serif" font-size="28" style="fill: #0A0F25">legend</text>
<text x="590" y="75.5" text-anchor="middle" dominant-baseline="alphabetic" font-family="Arial, sans-serif" font-size="16" style="fill: #0A0F25; font-weight: 700">Service</text>
<text x="590" y="276.5" text-anchor="middle" dominant-baseline="alphabetic" font-family="Arial, sans-serif" font-size="16" style="fill: #0A0F25; font-weight: 700">DB</text>
<text x="410" y="75.5" text-anchor="middle" dominant-baseline="alphabetic" font-family="Arial, sans-serif" font-size="16" style="fill: #0A0F25; font-weight: 700">entries</text>
<text x="90" y="75.5" text-anchor="middle" dominant-baseline="alphabetic" font-family="Arial, sans-serif" font-size="16" style="fill: #0A0F25; font-weight: 700">Key</text>
<text x="250" y="75.5" text-anchor="middle" dominant-baseline="alphabetic" font-family="Arial, sans-serif" font-size="16" style="fill: #0A0F25; font-weight: 700">top-right</text>
</g>
</svg>
