<?xml version="1.0" encoding="UTF-8"?>
<svg xmlns="http://www.w3.org/2000/svg" width="475.5" height="584" viewBox="-114.5 -101 475.5 584" data-d2-version="0.2.0" class="d2-755771880 d2-svg">
<defs><mask id="edge-label-mask" maskUnits="userSpaceOnUse" x="-114.5" y="-101" width="475.5" height="584"><rect x="-114.5" y="-101" width="475.5" height="584" fill="white"></rect><rect x="-16" y="119" width="55" height="21" fill="black"></rect><rect x="-10" y="268" width="43" height="21" fill="black"></rect><rect x="12" y="246" width="49" height="21" fill="black"></rect><rect x="175" y="91" width="64" height="21" fill="black"></rect></mask>
<marker id="mk-161592640" markerWidth="10" markerHeight="12" refX="7" refY="6" viewBox="0 0 10 12" orient="auto" markerUnits="userSpaceOnUse"><polygon points="0,0 10,6 0,12" fill="#0D32B2" stroke-width="2"/></marker>
</defs>
<rect x="-114.5" y="-101" width="475.5" height="584" rx="0" fill="#FFFFFF" stroke-width="0"/>
<g id="base-layer">
<rect x="0" y="0" width="100" height="60" fill="#F7F8FE" stroke="#0D32B2" stroke-width="2" rx="0" ry="0"/>
<rect x="160" y="0" width="100" height="60" fill="#F7F8FE" stroke="#0D32B2" stroke-width="2" rx="0" ry="0"/>
<rect x="0" y="161" width="100" height="60" fill="#F7F8FE" stroke="#0D32B2" stroke-width="2" rx="0" ry="0"/>
<path d="M 0 346 C 0 322 45 322 50 322 C 55 322 100 322 100 346 L 100 358 C 100 382 55 382 50 382 C 45 382 0 382 0 358 L 0 346 Z" fill="#EDF0FD" stroke="#0D32B2" stroke-width="2"/>
<path d="M 0 346 C 0 370 45 370 50 370 C 55 370 100 370 100 346" fill="#EDF0FD" stroke="#0D32B2" stroke-width="2"/>
<path d="M 172 62 L 172 88 S 172 98 162 98 L 22 98 S 12 98 12 108 L 12 157" fill="none" stroke="#0D32B2" stroke-width="2" marker-end="url(#mk-161592640)" mask="url(#edge-label-mask)"/>
<text x="11.5" y="135" text-anchor="middle" dominant-baseline="alphabetic" font-family="Arial, sans-serif" font-size="16" style="fill: #676C7E; font-style: italic">request</text>
<path d="M 12 223 L 12 318" fill="none" stroke="#0D32B2" stroke-width="2" marker-end="url(#mk-161592640)" mask="url(#edge-label-mask)"/>
<text x="11.5" y="284" text-anchor="middle" dominant-baseline="alphabetic" font-family="Arial, sans-serif" font-size="16" style="fill: #676C7E; font-style: italic">query</text>
<path d="M 36 320 L 36 301.5 S 36 291.5 36 281.5 L 36 225" fill="none" stroke="#0D32B2" stroke-width="2" marker-end="url(#mk-161592640)" mask="url(#edge-label-mask)"/>
<text x="36.5" y="262" text-anchor="middle" dominant-baseline="alphabetic" font-family="Arial, sans-serif" font-size="16" style="fill: #676C7E; font-style: italic">results</text>
<path d="M 36 159 L 36 153 S 36 143 46 143 L 186 143 S 196 143 196 133 L 196 64" fill="none" stroke="#0D32B2" stroke-width="2" marker-end="url(#mk-161592640)" mask="url(#edge-label-mask)"/>
<text x="207" y="107" text-anchor="middle" dominant-baseline="alphabetic" font-family="Arial, sans-serif" font-size="16" style="fill: #676C7E; font-style: italic">response</text>
<text x="50" y="35.5" text-anchor="middle" dominant-baseline="alphabetic" font-family="Arial, sans-serif" font-size="16" style="fill: #0A0F25; font-weight: 700">true</text>
<text x="210" y="35.5" text-anchor="middle" dominant-baseline="alphabetic" font-family="Arial, sans-serif" font-size="16" style="fill: #0A0F25; font-weight: 700">Client</text>
<text x="50" y="196.5" text-anchor="middle" dominant-baseline="alphabetic" font-family="Arial, sans-serif" font-size="16" style="fill: #0A0F25; font-weight: 700">API Server</text>
<text x="50" y="357.5" text-anchor="middle" dominant-baseline="alphabetic" font-family="Arial, sans-serif" font-size="16" style="fill: #0A0F25; font-weight: 700">Database</text>
</g>
</svg>
