<?xml version="1.0" encoding="UTF-8"?>
<svg xmlns="http://www.w3.org/2000/svg" width="464" height="584" viewBox="-101 -101 464 584" data-d2-version="0.2.0" class="d2-755771880 d2-svg">
<defs><mask id="edge-label-mask" maskUnits="userSpaceOnUse" x="-101" y="-101" width="464" height="584"><rect x="-101" y="-101" width="464" height="584" fill="white"></rect><rect x="91" y="100" width="55" height="21" fill="black"></rect><rect x="17" y="261" width="43" height="21" fill="black"></rect><rect x="78" y="262" width="49" height="21" fill="black"></rect><rect x="200" y="150" width="64" height="21" fill="black"></rect></mask>
<marker id="mk-161592640" markerWidth="10" markerHeight="12" refX="7" refY="6" viewBox="0 0 10 12" orient="auto" markerUnits="userSpaceOnUse"><polygon points="0,0 10,6 0,12" fill="#0D32B2" stroke-width="2"/></marker>
</defs>
<rect x="-101" y="-101" width="464" height="584" rx="0" fill="#FFFFFF" stroke-width="0"/>
<g id="base-layer">
<rect x="0" y="0" width="100" height="60" fill="#F7F8FE" stroke="#0D32B2" stroke-width="2" rx="0" ry="0"/>
<rect x="160" y="0" width="100" height="60" fill="#F7F8FE" stroke="#0D32B2" stroke-width="2" rx="0" ry="0"/>
<rect x="0" y="161" width="100" height="60" fill="#F7F8FE" stroke="#0D32B2" stroke-width="2" rx="0" ry="0"/>
<path d="M 0 346 C 0 322 45 322 50 322 C 55 322 100 322 100 346 L 100 358 C 100 382 55 382 50 382 C 45 382 0 382 0 358 L 0 346 Z" fill="#EDF0FD" stroke="#0D32B2" stroke-width="2"/>
<path d="M 0 346 C 0 370 45 370 50 370 C 55 370 100 370 100 346" fill="#EDF0FD" stroke="#0D32B2" stroke-width="2"/>
<path d="M 198 62 L 198 100.5 S 198 110.5 188 110.5 L 48 110.5 S 38 110.5 38 120.5 L 38 157" fill="none" stroke="#0D32B2" stroke-width="2" marker-end="url(#mk-161592640)" mask="url(#edge-label-mask)"/>
<text x="118.5" y="116" text-anchor="middle" dominant-baseline="alphabetic" font-family="Arial, sans-serif" font-size="16" style="fill: #676C7E; font-style: italic">request</text>
<path d="M 38 223 L 38 318" fill="none" stroke="#0D32B2" stroke-width="2" marker-end="url(#mk-161592640)" mask="url(#edge-label-mask)"/>
<text x="38.5" y="277" text-anchor="middle" dominant-baseline="alphabetic" font-family="Arial, sans-serif" font-size="16" style="fill: #676C7E; font-style: italic">query</text>
<path d="M 62 320 L 62 311 S 62 321 71.99687646408123 321.24992191160203 L 92.00312353591877 321.75007808839797 S 102 322 102 312 L 102 281.5 S 102 271.5 92 271.5 L 72 271.5 S 62 271.5 62 261.5 L 62 225" fill="none" stroke="#0D32B2" stroke-width="2" marker-end="url(#mk-161592640)" mask="url(#edge-label-mask)"/>
<text x="102.5" y="278" text-anchor="middle" dominant-baseline="alphabetic" font-family="Arial, sans-serif" font-size="16" style="fill: #676C7E; font-style: italic">results</text>
<path d="M 62 159 L 62 150 S 62 160 71.9998750023437 160.0499993750117 L 252.0001249976563 160.9500006249883 S 262 161 262 151 L 262 120.5 S 262 110.5 252 110.5 L 232 110.5 S 222 110.5 222 100.5 L 222 64" fill="none" stroke="#0D32B2" stroke-width="2" marker-end="url(#mk-161592640)" mask="url(#edge-label-mask)"/>
<text x="232" y="166" text-anchor="middle" dominant-baseline="alphabetic" font-family="Arial, sans-serif" font-size="16" style="fill: #676C7E; font-style: italic">response</text>
<text x="50" y="35.5" text-anchor="middle" dominant-baseline="alphabetic" font-family="Arial, sans-serif" font-size="16" style="fill: #0A0F25; font-weight: 700">true</text>
<text x="210" y="35.5" text-anchor="middle" dominant-baseline="alphabetic" font-family="Arial, sans-serif" font-size="16" style="fill: #0A0F25; font-weight: 700">Client</text>
<text x="50" y="196.5" text-anchor="middle" dominant-baseline="alphabetic" font-family="Arial, sans-serif" font-size="16" style="fill: #0A0F25; font-weight: 700">API Server</text>
<text x="50" y="357.5" text-anchor="middle" dominant-baseline="alphabetic" font-family="Arial, sans-serif" font-size="16" style="fill: #0A0F25; font-weight: 700">Database</text>
</g>
</svg>
