<?xml version="1.0" encoding="UTF-8"?>
<svg xmlns="http://www.w3.org/2000/svg" width="812" height="493" viewBox="-91 -91 812 493" data-d2-version="0.2.0" class="d2-1950815669 d2-svg">
<defs><mask id="edge-label-mask" maskUnits="userSpaceOnUse" x="-91" y="-91" width="812" height="493"><rect x="-91" y="-91" width="812" height="493" fill="white"></rect><rect x="309" y="174" width="42" height="21" fill="black"></rect></mask>
<marker id="mk-161592640" markerWidth="10" markerHeight="12" refX="7" refY="6" viewBox="0 0 10 12" orient="auto" markerUnits="userSpaceOnUse"><polygon points="0,0 10,6 0,12" fill="#0D32B2" stroke-width="2"/></marker>
</defs>
<rect x="-91" y="-91" width="812" height="493" rx="0" fill="#FFFFFF" stroke-width="0"/>
<g id="base-layer">
<rect x="10" y="10" width="480" height="120" fill="#E3E9FD" stroke="#0D32B2" stroke-width="2" rx="0" ry="0"/>
<rect x="520" y="40" width="100" height="60" fill="#F7F8FE" stroke="#0D32B2" stroke-width="2" rx="0" ry="0"/>
<path d="M 40 265 C 40 241 85 241 90 241 C 95 241 140 241 140 265 L 140 277 C 140 301 95 301 90 301 C 85 301 40 301 40 277 L 40 265 Z" fill="#EDF0FD" stroke="#0D32B2" stroke-width="2"/>
<path d="M 40 265 C 40 289 85 289 90 289 C 95 289 140 289 140 265" fill="#EDF0FD" stroke="#0D32B2" stroke-width="2"/>
<rect x="360" y="40" width="100" height="60" fill="#EDF0FD" stroke="#0D32B2" stroke-width="2" rx="0" ry="0"/>
<rect x="40" y="40" width="100" height="60" fill="#EDF0FD" stroke="#0D32B2" stroke-width="2" rx="0" ry="0"/>
<rect x="200" y="40" width="100" height="60" fill="#EDF0FD" stroke="#0D32B2" stroke-width="2" rx="0" ry="0"/>
<path d="M 570 102 L 570 160.5 S 570 170.5 560 170.5 L 100 170.5 S 90 170.5 90 180.5 L 90 237" fill="none" stroke="#0D32B2" stroke-width="2" marker-end="url(#mk-161592640)" mask="url(#edge-label-mask)"/>
<text x="330" y="190" text-anchor="middle" dominant-baseline="alphabetic" font-family="Arial, sans-serif" font-size="16" style="fill: #676C7E; font-style: italic">reads</text>
<text x="250" y="-3" text-anchor="middle" dominant-baseline="alphabetic" font-family="Arial, sans-serif" font-size="28" style="fill: #0A0F25">legend</text>
<text x="570" y="75.5" text-anchor="middle" dominant-baseline="alphabetic" font-family="Arial, sans-serif" font-size="16" style="fill: #0A0F25; font-weight: 700">Service</text>
<text x="90" y="276.5" text-anchor="middle" dominant-baseline="alphabetic" font-family="Arial, sans-serif" font-size="16" style="fill: #0A0F25; font-weight: 700">DB</text>
<text x="410" y="75.5" text-anchor="middle" dominant-baseline="alphabetic" font-family="Arial, sans-serif" font-size="16" style="fill: #0A0F25; font-weight: 700">entries</text>
<text x="90" y="75.5" text-anchor="middle" dominant-baseline="alphabetic" font-family="Arial, sans-serif" font-size="16" style="fill: #0A0F25; font-weight: 700">Key</text>
<text x="250" y="75.5" text-anchor="middle" dominant-baseline="alphabetic" font-family="Arial, sans-serif" font-size="16" style="fill: #0A0F25; font-weight: 700">top-right</text>
</g>
</svg>
