<?xml version="1.0" encoding="UTF-8"?>
<svg xmlns="http://www.w3.org/2000/svg" width="462" height="582" viewBox="-100 -100 462 582" data-d2-version="0.2.0">
<defs><mask id="edge-label-mask" maskUnits="userSpaceOnUse" x="-100" y="-100" width="462" height="582"><rect x="-100" y="-100" width="462" height="582" fill="white"></rect><rect x="171" y="100" width="55" height="21" fill="black"></rect><rect x="177" y="261" width="43" height="21" fill="black"></rect><rect x="238" y="262" width="49" height="21" fill="black"></rect><rect x="230" y="101" width="64" height="21" fill="black"></rect></mask>
<marker id="mk-161592640" markerWidth="10" markerHeight="12" refX="7" refY="6" viewBox="0 0 10 12" orient="auto" markerUnits="userSpaceOnUse"><polygon points="0,0 10,6 0,12" fill="#0D32B2" stroke-width="2"/></marker>
</defs>
<rect x="-100" y="-100" width="462" height="582" rx="0" fill="#FFFFFF" stroke-width="0"/>
<g id="base-layer">
<rect x="0" y="0" width="100" height="60" fill="#F7F8FE" stroke="#0D32B2" stroke-width="2" rx="0" ry="0"/>
<rect x="160" y="0" width="100" height="60" fill="#F7F8FE" stroke="#0D32B2" stroke-width="2" rx="0" ry="0"/>
<rect x="160" y="161" width="100" height="60" fill="#F7F8FE" stroke="#0D32B2" stroke-width="2" rx="0" ry="0"/>
<path d="M 160 346 C 160 322 205 322 210 322 C 215 322 260 322 260 346 L 260 358 C 260 382 215 382 210 382 C 205 382 160 382 160 358 L 160 346 Z" fill="#EDF0FD" stroke="#0D32B2" stroke-width="2"/>
<path d="M 160 346 C 160 370 205 370 210 370 C 215 370 260 370 260 346" fill="#EDF0FD" stroke="#0D32B2" stroke-width="2"/>
<path d="M 198 62 L 198 157" fill="none" stroke="#0D32B2" stroke-width="2" marker-end="url(#mk-161592640)" mask="url(#edge-label-mask)"/>
<text x="198.5" y="116" text-anchor="middle" dominant-baseline="alphabetic" font-family="Arial, sans-serif" font-size="16" style="fill: #676C7E; font-style: italic">request</text>
<path d="M 198 223 L 198 318" fill="none" stroke="#0D32B2" stroke-width="2" marker-end="url(#mk-161592640)" mask="url(#edge-label-mask)"/>
<text x="198.5" y="277" text-anchor="middle" dominant-baseline="alphabetic" font-family="Arial, sans-serif" font-size="16" style="fill: #676C7E; font-style: italic">query</text>
<path d="M 222 320 L 222 311 S 222 321 231.99687646408123 321.24992191160203 L 252.00312353591877 321.75007808839797 S 262 322 262 312 L 262 281.5 S 262 271.5 252 271.5 L 232 271.5 S 222 271.5 222 261.5 L 222 225" fill="none" stroke="#0D32B2" stroke-width="2" marker-end="url(#mk-161592640)" mask="url(#edge-label-mask)"/>
<text x="262.5" y="278" text-anchor="middle" dominant-baseline="alphabetic" font-family="Arial, sans-serif" font-size="16" style="fill: #676C7E; font-style: italic">results</text>
<path d="M 222 159 L 222 150 S 222 160 231.99687646408123 160.24992191160203 L 252.00312353591877 160.75007808839797 S 262 161 262 151 L 262 120.5 S 262 110.5 252 110.5 L 232 110.5 S 222 110.5 222 100.5 L 222 64" fill="none" stroke="#0D32B2" stroke-width="2" marker-end="url(#mk-161592640)" mask="url(#edge-label-mask)"/>
<text x="262" y="117" text-anchor="middle" dominant-baseline="alphabetic" font-family="Arial, sans-serif" font-size="16" style="fill: #676C7E; font-style: italic">response</text>
<text x="50" y="35.5" text-anchor="middle" dominant-baseline="alphabetic" font-family="Arial, sans-serif" font-size="16" style="fill: #0A0F25; font-weight: 700">true</text>
<text x="210" y="35.5" text-anchor="middle" dominant-baseline="alphabetic" font-family="Arial, sans-serif" font-size="16" style="fill: #0A0F25; font-weight: 700">Client</text>
<text x="210" y="196.5" text-anchor="middle" dominant-baseline="alphabetic" font-family="Arial, sans-serif" font-size="16" style="fill: #0A0F25; font-weight: 700">API Server</text>
<text x="210" y="357.5" text-anchor="middle" dominant-baseline="alphabetic" font-family="Arial, sans-serif" font-size="16" style="fill: #0A0F25; font-weight: 700">Database</text>
</g>
</svg>
