<?xml version="1.0" encoding="UTF-8"?>
<svg xmlns="http://www.w3.org/2000/svg" width="622" height="262" viewBox="-101 -101 622 262" data-d2-version="0.2.0" class="d2-1746807485 d2-svg">
<defs><mask id="edge-label-mask" maskUnits="userSpaceOnUse" x="-101" y="-101" width="622" height="262"><rect x="-101" y="-101" width="622" height="262" fill="white"></rect></mask>
</defs>
<rect x="-101" y="-101" width="622" height="262" rx="0" fill="#FFFFFF" stroke-width="0"/>
<g id="base-layer">
<ellipse cx="50" cy="30" rx="50" ry="30" fill="#F7F8FE" stroke="#0D32B2" stroke-width="2"/>
<path d="M 160 24 C 160 0 205 0 210 0 C 215 0 260 0 260 24 L 260 36 C 260 60 215 60 210 60 C 205 60 160 60 160 36 L 160 24 Z" fill="#EDF0FD" stroke="#0D32B2" stroke-width="2"/>
<path d="M 160 24 C 160 48 205 48 210 48 C 215 48 260 48 260 24" fill="#EDF0FD" stroke="#0D32B2" stroke-width="2"/>
<path d="M 420 60 H 320 v -0.8527131782945736 c 0 -10.232558139534882 10.980966325036604 -19.45736434108527 28.25768667642753 -23.875968992248062 C 338.74084919472915 31.705426356589143 333.0307467057101 25.89147286821705 333.0307467057101 19.53488372093023 C 333.0307467057101 8.75968992248062 349.57540263543194 0 369.9267935578331 0 c 20.351390922401173 0 36.896046852122986 8.75968992248062 36.896046852122986 19.53488372093023 c 0 6.356589147286821 -5.563689604685212 12.093023255813952 -15.226939970717424 15.813953488372091 c 17.276720351390924 4.4186046511627906 28.25768667642753 13.643410852713178 28.25768667642753 23.875968992248062 v 0.7751937984496123 Z" fill="#E3E9FD" stroke="#0D32B2" stroke-width="2"/>
<text x="50" y="35.5" text-anchor="middle" dominant-baseline="alphabetic" font-family="Arial, sans-serif" font-size="16" style="fill: #0A0F25; font-weight: 700">donut</text>
<text x="210" y="35.5" text-anchor="middle" dominant-baseline="alphabetic" font-family="Arial, sans-serif" font-size="16" style="fill: #0A0F25; font-weight: 700">database</text>
<text x="370" y="81" text-anchor="middle" dominant-baseline="alphabetic" font-family="Arial, sans-serif" font-size="16" style="fill: #0A0F25; font-weight: 700">you</text>
</g>
</svg>
