<?xml version="1.0" encoding="UTF-8"?>
<svg xmlns="http://www.w3.org/2000/svg" width="496" height="642" viewBox="-101 -101 496 642" data-d2-version="0.2.0" class="d2-2076840950 d2-svg">
<defs><mask id="edge-label-mask" maskUnits="userSpaceOnUse" x="-101" y="-101" width="496" height="642"><rect x="-101" y="-101" width="496" height="642" fill="white"></rect></mask>
<marker id="mk-161592640" markerWidth="10" markerHeight="12" refX="7" refY="6" viewBox="0 0 10 12" orient="auto" markerUnits="userSpaceOnUse"><polygon points="0,0 10,6 0,12" fill="#0D32B2" stroke-width="2"/></marker>
</defs>
<rect x="-101" y="-101" width="496" height="642" rx="0" fill="#FFFFFF" stroke-width="0"/>
<g id="base-layer">
<rect x="0" y="0" width="294" height="180" fill="#FFFFFF" stroke="#0A0F25" stroke-width="2"/>
<rect x="0" y="0" width="294" height="36" fill="#0A0F25"/>
<line x1="0" y1="36" x2="294" y2="36" stroke="#0A0F25" stroke-width="2"/>
<line x1="0" y1="72" x2="294" y2="72" stroke="#0A0F25" stroke-width="2"/>
<line x1="0" y1="108" x2="294" y2="108" stroke="#0A0F25" stroke-width="2"/>
<line x1="0" y1="144" x2="294" y2="144" stroke="#0A0F25" stroke-width="2"/>
<rect x="0" y="260" width="294" height="180" fill="#FFFFFF" stroke="#0A0F25" stroke-width="2"/>
<rect x="0" y="260" width="294" height="36" fill="#0A0F25"/>
<line x1="0" y1="296" x2="294" y2="296" stroke="#0A0F25" stroke-width="2"/>
<line x1="0" y1="332" x2="294" y2="332" stroke="#0A0F25" stroke-width="2"/>
<line x1="0" y1="368" x2="294" y2="368" stroke="#0A0F25" stroke-width="2"/>
<line x1="0" y1="404" x2="294" y2="404" stroke="#0A0F25" stroke-width="2"/>
<path d="M 24 182 L 24 256" fill="none" stroke="#0D32B2" stroke-width="2" marker-end="url(#mk-161592640)" mask="url(#edge-label-mask)"/>
<text x="10" y="25.75" text-anchor="start" font-family="Arial, sans-serif" font-size="24" fill="#FFFFFF">costumes</text>
<text x="10" y="59" text-anchor="start" font-family="Arial, sans-serif" font-size="20" fill="#0D32B2">id</text>
<text x="140" y="59" text-anchor="start" font-family="Arial, sans-serif" font-size="20" fill="#676C7E">int</text>
<text x="284" y="59" text-anchor="end" font-family="Arial, sans-serif" font-size="20" fill="#4A6FF3">PK</text>
<text x="10" y="95" text-anchor="start" font-family="Arial, sans-serif" font-size="20" fill="#0D32B2">silliness</text>
<text x="140" y="95" text-anchor="start" font-family="Arial, sans-serif" font-size="20" fill="#676C7E">int</text>
<text x="10" y="131" text-anchor="start" font-family="Arial, sans-serif" font-size="20" fill="#0D32B2">monster</text>
<text x="140" y="131" text-anchor="start" font-family="Arial, sans-serif" font-size="20" fill="#676C7E">int</text>
<text x="10" y="167" text-anchor="start" font-family="Arial, sans-serif" font-size="20" fill="#0D32B2">last_updated</text>
<text x="140" y="167" text-anchor="start" font-family="Arial, sans-serif" font-size="20" fill="#676C7E">timestamp</text>
<text x="10" y="285.75" text-anchor="start" font-family="Arial, sans-serif" font-size="24" fill="#FFFFFF">monsters</text>
<text x="10" y="319" text-anchor="start" font-family="Arial, sans-serif" font-size="20" fill="#0D32B2">id</text>
<text x="140" y="319" text-anchor="start" font-family="Arial, sans-serif" font-size="20" fill="#676C7E">int</text>
<text x="284" y="319" text-anchor="end" font-family="Arial, sans-serif" font-size="20" fill="#4A6FF3">PK</text>
<text x="10" y="355" text-anchor="start" font-family="Arial, sans-serif" font-size="20" fill="#0D32B2">movie</text>
<text x="140" y="355" text-anchor="start" font-family="Arial, sans-serif" font-size="20" fill="#676C7E">string</text>
<text x="10" y="391" text-anchor="start" font-family="Arial, sans-serif" font-size="20" fill="#0D32B2">weight</text>
<text x="140" y="391" text-anchor="start" font-family="Arial, sans-serif" font-size="20" fill="#676C7E">int</text>
<text x="10" y="427" text-anchor="start" font-family="Arial, sans-serif" font-size="20" fill="#0D32B2">last_updated</text>
<text x="140" y="427" text-anchor="start" font-family="Arial, sans-serif" font-size="20" fill="#676C7E">timestamp</text>
</g>
</svg>
