<?xml version="1.0" encoding="UTF-8"?>
<svg xmlns="http://www.w3.org/2000/svg" width="1591" height="469" viewBox="-91 -168 1591 469" data-d2-version="0.2.0" class="d2-796831677 d2-svg">
<defs><mask id="edge-label-mask" maskUnits="userSpaceOnUse" x="-91" y="-168" width="1591" height="469"><rect x="-91" y="-168" width="1591" height="469" fill="white"></rect></mask>
</defs>
<rect x="-91" y="-168" width="1591" height="469" rx="0" fill="#FFFFFF" stroke-width="0"/>
<g id="base-layer">
<rect x="10" y="4" width="1389" height="166" fill="#E3E9FD" stroke="#0D32B2" stroke-width="2" rx="0" ry="0"/>
<rect x="447" y="4" width="952" height="166" fill="#E3E9FD" stroke="#0D32B2" stroke-width="2" rx="0" ry="0"/>
<rect x="770" y="-67" width="416" height="267" fill="#E3E9FD" stroke="#0D32B2" stroke-width="2" rx="0" ry="0"/>
<rect x="807" y="9" width="342" height="161" fill="#EDF0FD" stroke="#0D32B2" stroke-width="2" rx="0" ry="0"/>
<rect x="40" y="80" width="153" height="60" fill="#EDF0FD" stroke="#0D32B2" stroke-width="2" rx="0" ry="0"/>
<rect x="1216" y="80" width="153" height="60" fill="#EDF0FD" stroke="#0D32B2" stroke-width="2" rx="0" ry="0"/>
<rect x="477" y="80" width="153" height="60" fill="#EDF0FD" stroke="#0D32B2" stroke-width="2" rx="0" ry="0"/>
<rect x="1216" y="80" width="153" height="60" fill="#EDF0FD" stroke="#0D32B2" stroke-width="2" rx="0" ry="0"/>
<rect x="902" y="80" width="153" height="60" fill="#F7F8FE" stroke="#0D32B2" stroke-width="2" rx="0" ry="0"/>
<text x="79.5" y="-9" text-anchor="middle" dominant-baseline="alphabetic" font-family="Arial, sans-serif" font-size="28" style="fill: #0A0F25">good chips</text>
<text x="508.5" y="-9" text-anchor="middle" dominant-baseline="alphabetic" font-family="Arial, sans-serif" font-size="28" style="fill: #0A0F25">bad chips</text>
<text x="978.5" y="-34" text-anchor="middle" dominant-baseline="alphabetic" font-family="Arial, sans-serif" font-size="28" style="fill: #0A0F25">chocolate</text>
<text x="833.5" y="-3" text-anchor="middle" dominant-baseline="alphabetic" font-family="Arial, sans-serif" font-size="24" style="fill: #0A0F25">chip</text>
<text x="116.5" y="115.5" text-anchor="middle" dominant-baseline="alphabetic" font-family="Arial, sans-serif" font-size="16" style="fill: #0A0F25; font-weight: 700">doritos</text>
<text x="1292.5" y="115.5" text-anchor="middle" dominant-baseline="alphabetic" font-family="Arial, sans-serif" font-size="16" style="fill: #0A0F25; font-weight: 700">ruffles</text>
<text x="553.5" y="115.5" text-anchor="middle" dominant-baseline="alphabetic" font-family="Arial, sans-serif" font-size="16" style="fill: #0A0F25; font-weight: 700">lays</text>
<text x="1292.5" y="115.5" text-anchor="middle" dominant-baseline="alphabetic" font-family="Arial, sans-serif" font-size="16" style="fill: #0A0F25; font-weight: 700">pringles</text>
<text x="978.5" y="115.5" text-anchor="middle" dominant-baseline="alphabetic" font-family="Arial, sans-serif" font-size="16" style="fill: #0A0F25; font-weight: 700">cookies</text>
</g>
</svg>
