<?xml version="1.0" encoding="UTF-8"?>
<svg xmlns="http://www.w3.org/2000/svg" width="300" height="400" viewBox="-100 -100 300 400" data-d2-version="0.2.0">
<defs><mask id="edge-label-mask" maskUnits="userSpaceOnUse" x="-100" y="-100" width="300" height="400"><rect x="-100" y="-100" width="300" height="400" fill="white"></rect></mask>
<mask id="border-mask-1446229049" maskUnits="userSpaceOnUse" x="0" y="125" width="115" height="75"><rect x="0" y="125" width="115" height="75" fill="white"></rect><path d="M 0 140 L 15 125 L 115 125 L 115 185 L 100 200 L 0 200 L 0 140 L 100 140 L 100 200 M 100 140 L 115 125" style="stroke-width:2;stroke:#000;fill:none;opacity:1;"/></mask>
<marker id="mk-499373415" markerWidth="10" markerHeight="12" refX="7" refY="6" viewBox="0 0 10 12" orient="auto" markerUnits="userSpaceOnUse"><polygon points="0,0 10,6 0,12" fill="green" stroke-width="2"/></marker>
</defs>
<rect x="-100" y="-100" width="300" height="400" rx="0" fill="#FFFFFF" stroke-width="0"/>
<g id="base-layer">
<rect x="0" y="0" width="100" height="60" fill="#F7F8FE" stroke="#53C0D8" stroke-width="5" rx="0" ry="0"/>
<rect x="0" y="140" width="100" height="60" mask="url(#border-mask-1446229049)" stroke="none" fill="red" stroke-width="2"/>
<polygon mask="url(#border-mask-1446229049)" points="0,140 15,125 115,125 115,185 100,200 100,140" fill="#cc0000" stroke="none" stroke-width="2"/>
<path d="M 0 140 L 15 125 L 115 125 L 115 185 L 100 200 L 0 200 L 0 140 L 100 140 L 100 200 M 100 140 L 115 125" fill="none" stroke="black" stroke-width="2"/>
<path d="M 50 63.5 L 50 136" fill="none" stroke="green" stroke-width="2" marker-end="url(#mk-499373415)" mask="url(#edge-label-mask)" stroke-dasharray="10.000000,9.865639"/>
<text x="50" y="35.5" text-anchor="middle" dominant-baseline="alphabetic" font-family="Arial, sans-serif" font-size="16" style="fill: #0A0F25; font-weight: 700">x</text>
<text x="50" y="175.5" text-anchor="middle" dominant-baseline="alphabetic" font-family="Arial, sans-serif" font-size="16" style="fill: #0A0F25; font-weight: 700">y</text>
</g>
</svg>
