<?xml version="1.0" encoding="UTF-8"?>
<svg xmlns="http://www.w3.org/2000/svg" width="462" height="402" viewBox="-101 -101 462 402" data-d2-version="0.2.0" class="d2-490520228 d2-svg">
<defs><mask id="edge-label-mask" maskUnits="userSpaceOnUse" x="-101" y="-101" width="462" height="402"><rect x="-101" y="-101" width="462" height="402" fill="white"></rect></mask>
<marker id="mk-161592640" markerWidth="10" markerHeight="12" refX="7" refY="6" viewBox="0 0 10 12" orient="auto" markerUnits="userSpaceOnUse"><polygon points="0,0 10,6 0,12" fill="#0D32B2" stroke-width="2"/></marker>
</defs>
<rect x="-101" y="-101" width="462" height="402" rx="0" fill="#FFFFFF" stroke-width="0"/>
<g id="base-layer">
<rect x="0" y="0" width="100" height="60" fill="yellow" stroke="#0D32B2" stroke-width="2" rx="0" ry="0"/>
<rect x="160" y="140" width="100" height="60" fill="yellow" stroke="#0D32B2" stroke-width="2" rx="0" ry="0"/>
<rect x="0" y="140" width="100" height="60" fill="yellow" stroke="#0D32B2" stroke-width="2" rx="0" ry="0"/>
<path d="M 90 62 L 90 90 S 90 100 100 100 L 200 100 S 210 100 210 110 L 210 136" fill="none" stroke="#0D32B2" stroke-width="2" marker-end="url(#mk-161592640)" mask="url(#edge-label-mask)"/>
<path d="M 50 62 L 50 136" fill="none" stroke="#0D32B2" stroke-width="2" marker-end="url(#mk-161592640)" mask="url(#edge-label-mask)"/>
<text x="50" y="35.5" text-anchor="middle" dominant-baseline="alphabetic" font-family="Arial, sans-serif" font-size="16" style="fill: #0A0F25; font-weight: 700">x</text>
<text x="210" y="175.5" text-anchor="middle" dominant-baseline="alphabetic" font-family="Arial, sans-serif" font-size="16" style="fill: #0A0F25; font-weight: 700">y</text>
<text x="50" y="175.5" text-anchor="middle" dominant-baseline="alphabetic" font-family="Arial, sans-serif" font-size="16" style="fill: #0A0F25; font-weight: 700">z</text>
</g>
</svg>
