<?xml version="1.0" encoding="UTF-8"?>
<svg xmlns="http://www.w3.org/2000/svg" width="494" height="640" viewBox="-100 -100 494 640" data-d2-version="0.2.0">
<defs><mask id="edge-label-mask" maskUnits="userSpaceOnUse" x="-100" y="-100" width="494" height="640"><rect x="-100" y="-100" width="494" height="640" fill="white"></rect></mask>
<marker id="mk-161592640" markerWidth="10" markerHeight="12" refX="7" refY="6" viewBox="0 0 10 12" orient="auto" markerUnits="userSpaceOnUse"><polygon points="0,0 10,6 0,12" fill="#0D32B2" stroke-width="2"/></marker>
</defs>
<rect x="-100" y="-100" width="494" height="640" rx="0" fill="#FFFFFF" stroke-width="0"/>
<g id="base-layer">
<rect x="0" y="0" width="294" height="180" fill="#0A0F25" stroke="#FFFFFF" stroke-width="2"/>
<rect x="0" y="0" width="294" height="36" fill="#FFFFFF" stroke="none" stroke-width="0"/>
<line x1="0" y1="36" x2="294" y2="36" stroke="#FFFFFF" stroke-width="2"/>
<line x1="0" y1="72" x2="294" y2="72" stroke="#FFFFFF" stroke-width="2"/>
<line x1="0" y1="108" x2="294" y2="108" stroke="#FFFFFF" stroke-width="2"/>
<line x1="0" y1="144" x2="294" y2="144" stroke="#FFFFFF" stroke-width="2"/>
<rect x="0" y="260" width="294" height="180" fill="#0A0F25" stroke="#FFFFFF" stroke-width="2"/>
<rect x="0" y="260" width="294" height="36" fill="#FFFFFF" stroke="none" stroke-width="0"/>
<line x1="0" y1="296" x2="294" y2="296" stroke="#FFFFFF" stroke-width="2"/>
<line x1="0" y1="332" x2="294" y2="332" stroke="#FFFFFF" stroke-width="2"/>
<line x1="0" y1="368" x2="294" y2="368" stroke="#FFFFFF" stroke-width="2"/>
<line x1="0" y1="404" x2="294" y2="404" stroke="#FFFFFF" stroke-width="2"/>
<path d="M 147 182 L 147 256" fill="none" stroke="#0D32B2" stroke-width="2" marker-end="url(#mk-161592640)" mask="url(#edge-label-mask)"/>
<text x="10" y="25.75" text-anchor="start" font-family="Arial, sans-serif" font-size="24">costumes</text>
<text x="10" y="59" text-anchor="start" font-family="Arial, sans-serif" font-size="20">id</text>
<text x="140" y="59" text-anchor="start" font-family="Arial, sans-serif" font-size="20">int</text>
<text x="284" y="59" text-anchor="end" font-family="Arial, sans-serif" font-size="20">PK</text>
<text x="10" y="95" text-anchor="start" font-family="Arial, sans-serif" font-size="20">silliness</text>
<text x="140" y="95" text-anchor="start" font-family="Arial, sans-serif" font-size="20">int</text>
<text x="10" y="131" text-anchor="start" font-family="Arial, sans-serif" font-size="20">monster</text>
<text x="140" y="131" text-anchor="start" font-family="Arial, sans-serif" font-size="20">int</text>
<text x="10" y="167" text-anchor="start" font-family="Arial, sans-serif" font-size="20">last_updated</text>
<text x="140" y="167" text-anchor="start" font-family="Arial, sans-serif" font-size="20">timestamp</text>
<text x="10" y="285.75" text-anchor="start" font-family="Arial, sans-serif" font-size="24">monsters</text>
<text x="10" y="319" text-anchor="start" font-family="Arial, sans-serif" font-size="20">id</text>
<text x="140" y="319" text-anchor="start" font-family="Arial, sans-serif" font-size="20">int</text>
<text x="284" y="319" text-anchor="end" font-family="Arial, sans-serif" font-size="20">PK</text>
<text x="10" y="355" text-anchor="start" font-family="Arial, sans-serif" font-size="20">movie</text>
<text x="140" y="355" text-anchor="start" font-family="Arial, sans-serif" font-size="20">string</text>
<text x="10" y="391" text-anchor="start" font-family="Arial, sans-serif" font-size="20">weight</text>
<text x="140" y="391" text-anchor="start" font-family="Arial, sans-serif" font-size="20">int</text>
<text x="10" y="427" text-anchor="start" font-family="Arial, sans-serif" font-size="20">last_updated</text>
<text x="140" y="427" text-anchor="start" font-family="Arial, sans-serif" font-size="20">timestamp</text>
</g>
</svg>
