<?xml version="1.0" encoding="UTF-8"?>
<svg xmlns="http://www.w3.org/2000/svg" width="302" height="402" viewBox="-101 -101 302 402" data-d2-version="0.2.0" class="d2-1928972951 d2-svg">
<defs><mask id="edge-label-mask" maskUnits="userSpaceOnUse" x="-101" y="-101" width="302" height="402"><rect x="-101" y="-101" width="302" height="402" fill="white"></rect></mask>
<marker id="mk-161592640" markerWidth="10" markerHeight="12" refX="7" refY="6" viewBox="0 0 10 12" orient="auto" markerUnits="userSpaceOnUse"><polygon points="0,0 10,6 0,12" fill="#0D32B2" stroke-width="2"/></marker>
</defs>
<rect x="-101" y="-101" width="302" height="402" rx="0" fill="#FFFFFF" stroke-width="0"/>
<g id="base-layer">
<rect x="0" y="0" width="100" height="60" fill="#F7F8FE" stroke="#0D32B2" stroke-width="2" rx="0" ry="0"/>
<rect x="0" y="140" width="100" height="60" fill="#F7F8FE" stroke="#0D32B2" stroke-width="2" rx="0" ry="0"/>
<path d="M 24 62 L 24 136" fill="none" stroke="#0D32B2" stroke-width="2" marker-end="url(#mk-161592640)" mask="url(#edge-label-mask)"/>
<g>
<title>Total abstinence is easier than perfect moderation</title>
<text x="50" y="35.5" text-anchor="middle" dominant-baseline="alphabetic" font-family="Arial, sans-serif" font-size="16" style="fill: #0A0F25; font-weight: 700">x</text>
</g>
<g transform="translate(84 -16)" class="appendix-icon"><svg width="32" height="32" viewBox="0 0 32 32" fill="none" xmlns="http://www.w3.org/2000/svg"><g clip-path="url(#clip0_3427_35082111-860782366-1429451430)"><path d="M16 31.1109C24.3456 31.1109 31.1111 24.3454 31.1111 15.9998C31.1111 7.65415 24.3456 0.888672 16 0.888672C7.65436 0.888672 0.888885 7.65415 0.888885 15.9998C0.888885 24.3454 7.65436 31.1109 16 31.1109Z" fill="white" stroke="#DEE1EB"/><path d="M16 26C21.5228 26 26 21.5228 26 16C26 10.4772 21.5228 6 16 6C10.4772 6 6 10.4772 6 16C6 21.5228 10.4772 26 16 26Z" stroke="#2E3346" stroke-width="2" stroke-linecap="round" stroke-linejoin="round"/><path d="M16 19.998V15.998" stroke="#2E3346" stroke-width="2" stroke-linecap="round" stroke-linejoin="round"/><path d="M16 12H16.0098" stroke="#2E3346" stroke-width="2" stroke-linecap="round" stroke-linejoin="round"/></g><defs><clipPath id="clip0_3427_35082111-860782366-1429451430"><rect width="32" height="32" fill="white"/></clipPath></defs></svg><title>Total abstinence is easier than perfect moderation</title></g>
<g>
<title>I can&#39;t make my satellite dish PAYMENTS!</title>
<text x="50" y="175.5" text-anchor="middle" dominant-baseline="alphabetic" font-family="Arial, sans-serif" font-size="16" style="fill: #0A0F25; font-weight: 700">y</text>
</g>
<g transform="translate(84 124)" class="appendix-icon"><svg width="32" height="32" viewBox="0 0 32 32" fill="none" xmlns="http://www.w3.org/2000/svg"><g clip-path="url(#clip0_3427_35082111-877559985-1446229049)"><path d="M16 31.1109C24.3456 31.1109 31.1111 24.3454 31.1111 15.9998C31.1111 7.65415 24.3456 0.888672 16 0.888672C7.65436 0.888672 0.888885 7.65415 0.888885 15.9998C0.888885 24.3454 7.65436 31.1109 16 31.1109Z" fill="white" stroke="#DEE1EB"/><path d="M16 26C21.5228 26 26 21.5228 26 16C26 10.4772 21.5228 6 16 6C10.4772 6 6 10.4772 6 16C6 21.5228 10.4772 26 16 26Z" stroke="#2E3346" stroke-width="2" stroke-linecap="round" stroke-linejoin="round"/><path d="M16 19.998V15.998" stroke="#2E3346" stroke-width="2" stroke-linecap="round" stroke-linejoin="round"/><path d="M16 12H16.0098" stroke="#2E3346" stroke-width="2" stroke-linecap="round" stroke-linejoin="round"/></g><defs><clipPath id="clip0_3427_35082111-877559985-1446229049"><rect width="32" height="32" fill="white"/></clipPath></defs></svg><title>I can&#39;t make my satellite dish PAYMENTS!</title></g>
</g>
</svg>
