<?xml version="1.0" encoding="UTF-8"?>
<svg xmlns="http://www.w3.org/2000/svg" width="658.5" height="584" viewBox="-101 -101 658.5 584" data-d2-version="0.2.0" class="d2-1397033394 d2-svg">
<defs><mask id="edge-label-mask" maskUnits="userSpaceOnUse" x="-101" y="-101" width="658.5" height="584"><rect x="-101" y="-101" width="658.5" height="584" fill="white"></rect><rect x="3" y="100" width="43" height="21" fill="black"></rect><rect x="3" y="261" width="43" height="21" fill="black"></rect><rect x="254" y="100" width="205" height="21" fill="black"></rect></mask>
<marker id="mk-161592640" markerWidth="10" markerHeight="12" refX="7" refY="6" viewBox="0 0 10 12" orient="auto" markerUnits="userSpaceOnUse"><polygon points="0,0 10,6 0,12" fill="#0D32B2" stroke-width="2"/></marker>
<marker id="mk-2090524415" markerWidth="10" markerHeight="12" refX="3" refY="6" viewBox="0 0 10 12" orient="auto" markerUnits="userSpaceOnUse"><polygon points="10,0 0,6 10,12" fill="#0D32B2" stroke-width="2"/></marker>
<marker id="mk-1734378072" markerWidth="24.200000000000003" markerHeight="18" refX="20.8" refY="9" viewBox="0 0 24.200000000000003 18" orient="auto" markerUnits="userSpaceOnUse"><polygon points="0,9 11,2.25 22,9 11,16.2" fill="#FFFFFF" stroke="#0D32B2" stroke-width="2"/></marker>
</defs>
<rect x="-101" y="-101" width="658.5" height="584" rx="0" fill="#FFFFFF" stroke-width="0"/>
<g id="base-layer">
<rect x="0" y="0" width="100" height="60" fill="#F7F8FE" stroke="#0D32B2" stroke-width="2" rx="0" ry="0"/>
<rect x="0" y="161" width="100" height="60" fill="#F7F8FE" stroke="#0D32B2" stroke-width="2" rx="0" ry="0"/>
<rect x="0" y="322" width="100" height="60" fill="#F7F8FE" stroke="#0D32B2" stroke-width="2" rx="0" ry="0"/>
<rect x="166" y="0" width="100" height="60" fill="#F7F8FE" stroke="#0D32B2" stroke-width="2" rx="0" ry="0"/>
<rect x="172" y="161" width="100" height="60" fill="#F7F8FE" stroke="#0D32B2" stroke-width="2" rx="0" ry="0"/>
<rect x="332" y="0" width="100" height="60" fill="#F7F8FE" stroke="#0D32B2" stroke-width="2" rx="0" ry="0"/>
<rect x="338" y="161" width="100" height="60" fill="#F7F8FE" stroke="#0D32B2" stroke-width="2" rx="0" ry="0"/>
<path d="M 24 62 L 24 157" fill="none" stroke="#0D32B2" stroke-width="2" marker-end="url(#mk-161592640)" mask="url(#edge-label-mask)"/>
<text x="24.5" y="116" text-anchor="middle" dominant-baseline="alphabetic" font-family="Arial, sans-serif" font-size="16" style="fill: #676C7E; font-style: italic">chase</text>
<path d="M 24 223 L 24 318" fill="none" stroke="#0D32B2" stroke-width="2" marker-end="url(#mk-161592640)" mask="url(#edge-label-mask)"/>
<text x="24.5" y="277" text-anchor="middle" dominant-baseline="alphabetic" font-family="Arial, sans-serif" font-size="16" style="fill: #676C7E; font-style: italic">chase</text>
<path d="M 190 64 L 190 157" fill="none" stroke="#0D32B2" stroke-width="2" marker-start="url(#mk-2090524415)" marker-end="url(#mk-161592640)" mask="url(#edge-label-mask)"/>
<path d="M 356 62 L 356 157" fill="none" stroke="#0D32B2" stroke-width="2" marker-end="url(#mk-1734378072)" mask="url(#edge-label-mask)"/>
<text x="356.5" y="116" text-anchor="middle" dominant-baseline="alphabetic" font-family="Arial, sans-serif" font-size="16" style="fill: #676C7E; font-style: italic">To err is human, to moo bovine</text>
<text x="365.5" y="81" text-anchor="middle" dominant-baseline="alphabetic" font-family="Arial, sans-serif" font-size="16" style="fill: #0A0F25; font-style: italic">1</text>
<text x="369.5" y="151" text-anchor="middle" dominant-baseline="alphabetic" font-family="Arial, sans-serif" font-size="16" style="fill: #0A0F25; font-style: italic">*</text>
<text x="50" y="35.5" text-anchor="middle" dominant-baseline="alphabetic" font-family="Arial, sans-serif" font-size="16" style="fill: #0A0F25; font-weight: 700">dogs</text>
<text x="50" y="196.5" text-anchor="middle" dominant-baseline="alphabetic" font-family="Arial, sans-serif" font-size="16" style="fill: #0A0F25; font-weight: 700">cats</text>
<text x="50" y="357.5" text-anchor="middle" dominant-baseline="alphabetic" font-family="Arial, sans-serif" font-size="16" style="fill: #0A0F25; font-weight: 700">mice</text>
<text x="216" y="35.5" text-anchor="middle" dominant-baseline="alphabetic" font-family="Arial, sans-serif" font-size="16" style="fill: #0A0F25; font-weight: 700">replica 1</text>
<text x="222" y="196.5" text-anchor="middle" dominant-baseline="alphabetic" font-family="Arial, sans-serif" font-size="16" style="fill: #0A0F25; font-weight: 700">replica 2</text>
<text x="382" y="35.5" text-anchor="middle" dominant-baseline="alphabetic" font-family="Arial, sans-serif" font-size="16" style="fill: #0A0F25; font-weight: 700">a</text>
<text x="388" y="196.5" text-anchor="middle" dominant-baseline="alphabetic" font-family="Arial, sans-serif" font-size="16" style="fill: #0A0F25; font-weight: 700">b</text>
</g>
</svg>
