<?xml version="1.0" encoding="UTF-8"?>
<svg xmlns="http://www.w3.org/2000/svg" width="1152" height="540" viewBox="-100 -100 1152 540" data-d2-version="0.2.0">
<defs><mask id="edge-label-mask" maskUnits="userSpaceOnUse" x="-100" y="-100" width="1152" height="540"><rect x="-100" y="-100" width="1152" height="540" fill="white"></rect></mask>
<marker id="mk-161592640" markerWidth="10" markerHeight="12" refX="7" refY="6" viewBox="0 0 10 12" orient="auto" markerUnits="userSpaceOnUse"><polygon points="0,0 10,6 0,12" fill="#0D32B2" stroke-width="2"/></marker>
</defs>
<rect x="-100" y="-100" width="1152" height="540" rx="0" fill="#FFFFFF" stroke-width="0"/>
<g id="base-layer">
<rect x="0" y="0" width="100" height="60" fill="#F7F8FE" stroke="#0D32B2" stroke-width="2" rx="0" ry="0"/>
<rect x="0" y="140" width="100" height="60" fill="#F7F8FE" stroke="#0D32B2" stroke-width="2" rx="0" ry="0"/>
<path d="M 0 280 L 80 280 L 100 300 L 100 340 L 0 340 Z" fill="#EDF0FD" stroke="#0D32B2" stroke-width="2"/>
<path d="M 100 340 L 0 340 L 0 280 L 80 280 L 80 300 L 100 300 L 100 340 Z" fill="#EDF0FD" stroke="#0D32B2" stroke-width="2"/>
<path d="M 186 0 L 283 0 L 257 60 L 160 60 Z" fill="#DEE1EB" stroke="#0D32B2" stroke-width="2"/>
<path d="M 172 191.6776750330251 L 172 140 L 272 140 L 272 191.6776750330251 C 255.33333333333334 180.58124174372523 238.66666666666666 180.58124174372523 222 191.6776750330251 C 205.33333333333331 202.77410832232496 188.66666666666666 202.77410832232496 172 191.6776750330251 Z" fill="#EDF0FD" stroke="#0D32B2" stroke-width="2"/>
<path d="M 172 304 C 172 280 217 280 222 280 C 227 280 272 280 272 304 L 272 316 C 272 340 227 340 222 340 C 217 340 172 340 172 316 L 172 304 Z" fill="#EDF0FD" stroke="#0D32B2" stroke-width="2"/>
<path d="M 172 304 C 172 328 217 328 222 328 C 227 328 272 328 272 304" fill="#EDF0FD" stroke="#0D32B2" stroke-width="2"/>
<path d="M 367 0 L 443 0 C 467 0 467 27 467 30 C 467 33 467 60 443 60 L 367 60 C 353.8 60 343 33 343 30 C 343 27 353.8 0 367 0 Z" fill="#DEE1EB" stroke="#0D32B2" stroke-width="2"/>
<path d="M 443 0 C 419 0 419 27 419 30 C 419 33 419 60 443 60" fill="#DEE1EB" stroke="#0D32B2" stroke-width="2"/>
<path d="M 355 140 L 405 140 L 405 152 L 455 152 L 455 200 L 355 200 Z" fill="#EDF0FD" stroke="#0D32B2" stroke-width="2"/>
<path d="M 355 280 L 420 280 L 455 310 L 420 340 L 355 340 L 390 310 Z" fill="#EDF0FD" stroke="#0D32B2" stroke-width="2"/>
<path d="M 527 0 L 527 30 L 577 30 L 577 60 L 607 30 L 627 30 L 627 0 L 527 0 Z" fill="#FFFFFF" stroke="#0D32B2" stroke-width="2"/>
<path d="M 537 140 L 617 140 C 627.95 140 632 155 632 170 C 632 185 627.95 200 617 200 L 537 200 C 526.05 200 522 185 522 170 C 522 155 526.05 140 537 140 Z" fill="#EDF0FD" stroke="#0D32B2" stroke-width="2"/>
<path d="M 627 340 H 527 v -0.8527131782945736 c 0 -10.232558139534882 10.980966325036604 -19.45736434108527 28.25768667642753 -23.875968992248062 C 545.7408491947291 311.70542635658916 540.0307467057102 305.8914728682171 540.0307467057102 299.5348837209302 C 540.0307467057102 288.7596899224806 556.5754026354319 280 576.9267935578331 280 c 20.351390922401173 0 36.896046852122986 8.75968992248062 36.896046852122986 19.53488372093023 c 0 6.356589147286821 -5.563689604685212 12.093023255813952 -15.226939970717424 15.813953488372091 c 17.276720351390924 4.4186046511627906 28.25768667642753 13.643410852713178 28.25768667642753 23.875968992248062 v 0.7751937984496123 Z" fill="#E3E9FD" stroke="#0D32B2" stroke-width="2"/>
<path d="M 742 60 C 741.6103896103896 60 741.3506493506493 59.921976592977884 741.0909090909091 59.765929778933675 L 692.3896103896104 30.5851755526658 C 691.8701298701299 30.27308192457737 691.8701298701299 29.804941482444733 692.3896103896104 29.492847854356302 L 741.0909090909091 0.23407022106631986 C 741.6103896103896 -0.07802340702210664 742.3896103896104 -0.07802340702210664 742.9090909090909 0.23407022106631986 L 791.6103896103896 29.492847854356302 C 792.1298701298701 29.804941482444733 792.1298701298701 30.27308192457737 791.6103896103896 30.5851755526658 L 742.9090909090909 59.765929778933675 C 742.6493506493507 59.921976592977884 742.3896103896104 60 742 60 Z" fill="#CFD2DD" stroke="#0D32B2" stroke-width="2"/>
<ellipse cx="742" cy="170" rx="50" ry="30" fill="#F7F8FE" stroke="#0D32B2" stroke-width="2"/>
<ellipse cx="742" cy="310" rx="50" ry="30" fill="#F7F8FE" stroke="#0D32B2" stroke-width="2"/>
<path d="M 877 0 L 927 0 L 952 30 L 927 60 L 877 60 L 852 30 Z" fill="#DEE1EB" stroke="#0D32B2" stroke-width="2"/>
<path d="M 868.5267386091127 160.9751051625239 C 868.5267386091127 161.61250478011473 867.8605515587531 162.2497896749522 867.19448441247 162.2497896749522 C 858.7013189448442 163.0464244741874 852.039928057554 171.17269598470364 852.039928057554 181.05158699808797 C 852.039928057554 191.5678776290631 859.533932853717 200.01273422562144 869.0263788968825 200.01273422562144 H 933.4748201438849 C 943.6334532374101 200.01273422562144 951.9600719424461 190.9304780114723 951.9600719424461 179.9362523900574 C 951.9600719424461 169.41996175908227 944.2994004796163 160.65640535372853 934.6406474820145 160.01912045889105 C 933.9744604316548 160.01912045889105 933.3083932853718 159.54107074569794 933.1418465227819 158.74443594646274 C 930.9768585131895 148.06891013384325 920.9847721822542 140.1019885277247 909.32757793765 140.1019885277247 C 901.6670263788969 140.1019885277247 894.8390887290169 143.44810707456983 890.5093525179857 148.70619502868072 C 890.0097122302159 149.34359464627155 889.177098321343 149.50294455066924 888.6774580335732 149.34359464627155 C 887.0121103117507 148.70619502868072 885.180335731415 148.38760994263868 883.1818944844125 148.38760994263868 C 875.5212230215827 148.22814531548758 869.1929256594724 153.80493307839387 868.5267386091127 160.9751051625239 Z" fill="#FFFFFF" stroke="#0D32B2" stroke-width="2"/>
<path d="M 50 62 L 50 136" fill="none" stroke="#0D32B2" stroke-width="2" marker-end="url(#mk-161592640)" mask="url(#edge-label-mask)"/>
<path d="M 50 202 L 50 276" fill="none" stroke="#0D32B2" stroke-width="2" marker-end="url(#mk-161592640)" mask="url(#edge-label-mask)"/>
<path d="M 221.5 62 L 221.5 99.75 C 221.5 100.25 222 99.75 222 100.25 L 222 136" fill="none" stroke="#0D32B2" stroke-width="2" marker-end="url(#mk-161592640)" mask="url(#edge-label-mask)"/>
<path d="M 222 202 L 222 276" fill="none" stroke="#0D32B2" stroke-width="2" marker-end="url(#mk-161592640)" mask="url(#edge-label-mask)"/>
<path d="M 405 62 L 405 136" fill="none" stroke="#0D32B2" stroke-width="2" marker-end="url(#mk-161592640)" mask="url(#edge-label-mask)"/>
<path d="M 405 202 L 405 276" fill="none" stroke="#0D32B2" stroke-width="2" marker-end="url(#mk-161592640)" mask="url(#edge-label-mask)"/>
<path d="M 577 62 L 577 136" fill="none" stroke="#0D32B2" stroke-width="2" marker-end="url(#mk-161592640)" mask="url(#edge-label-mask)"/>
<path d="M 577 202 L 577 276" fill="none" stroke="#0D32B2" stroke-width="2" marker-end="url(#mk-161592640)" mask="url(#edge-label-mask)"/>
<path d="M 742 62 L 742 136" fill="none" stroke="#0D32B2" stroke-width="2" marker-end="url(#mk-161592640)" mask="url(#edge-label-mask)"/>
<path d="M 742 202 L 742 276" fill="none" stroke="#0D32B2" stroke-width="2" marker-end="url(#mk-161592640)" mask="url(#edge-label-mask)"/>
<path d="M 902 62 L 902 136" fill="none" stroke="#0D32B2" stroke-width="2" marker-end="url(#mk-161592640)" mask="url(#edge-label-mask)"/>
<text x="50" y="35.5" text-anchor="middle" dominant-baseline="alphabetic" font-family="Arial, sans-serif" font-size="16" style="fill: #0A0F25; font-weight: 700">rectangle</text>
<text x="50" y="175.5" text-anchor="middle" dominant-baseline="alphabetic" font-family="Arial, sans-serif" font-size="16" style="fill: #0A0F25; font-weight: 700">square</text>
<text x="50" y="315.5" text-anchor="middle" dominant-baseline="alphabetic" font-family="Arial, sans-serif" font-size="16" style="fill: #0A0F25; font-weight: 700">page</text>
<text x="221.5" y="35.5" text-anchor="middle" dominant-baseline="alphabetic" font-family="Arial, sans-serif" font-size="16" style="fill: #0A0F25; font-weight: 700">parallelogram</text>
<text x="222" y="167.69286657859973" text-anchor="middle" dominant-baseline="alphabetic" font-family="Arial, sans-serif" font-size="16" style="fill: #0A0F25; font-weight: 700">document</text>
<text x="222" y="315.5" text-anchor="middle" dominant-baseline="alphabetic" font-family="Arial, sans-serif" font-size="16" style="fill: #0A0F25; font-weight: 700">cylinder</text>
<text x="393" y="35.5" text-anchor="middle" dominant-baseline="alphabetic" font-family="Arial, sans-serif" font-size="16" style="fill: #0A0F25; font-weight: 700">queue</text>
<text x="405" y="181.5" text-anchor="middle" dominant-baseline="alphabetic" font-family="Arial, sans-serif" font-size="16" style="fill: #0A0F25; font-weight: 700">package</text>
<text x="405" y="315.5" text-anchor="middle" dominant-baseline="alphabetic" font-family="Arial, sans-serif" font-size="16" style="fill: #0A0F25; font-weight: 700">step</text>
<text x="577" y="20.5" text-anchor="middle" dominant-baseline="alphabetic" font-family="Arial, sans-serif" font-size="16" style="fill: #0A0F25; font-weight: 700">callout</text>
<text x="577" y="175.5" text-anchor="middle" dominant-baseline="alphabetic" font-family="Arial, sans-serif" font-size="16" style="fill: #0A0F25; font-weight: 700">stored_data</text>
<text x="577" y="361" text-anchor="middle" dominant-baseline="alphabetic" font-family="Arial, sans-serif" font-size="16" style="fill: #0A0F25; font-weight: 700">person</text>
<text x="742" y="35.5" text-anchor="middle" dominant-baseline="alphabetic" font-family="Arial, sans-serif" font-size="16" style="fill: #0A0F25; font-weight: 700">diamond</text>
<text x="742" y="175.5" text-anchor="middle" dominant-baseline="alphabetic" font-family="Arial, sans-serif" font-size="16" style="fill: #0A0F25; font-weight: 700">oval</text>
<text x="742" y="315.5" text-anchor="middle" dominant-baseline="alphabetic" font-family="Arial, sans-serif" font-size="16" style="fill: #0A0F25; font-weight: 700">circle</text>
<text x="902" y="35.5" text-anchor="middle" dominant-baseline="alphabetic" font-family="Arial, sans-serif" font-size="16" style="fill: #0A0F25; font-weight: 700">hexagon</text>
<text x="901.95" y="186.94" text-anchor="middle" dominant-baseline="alphabetic" font-family="Arial, sans-serif" font-size="16" style="fill: #0A0F25; font-weight: 700">cloud</text>
</g>
</svg>
