<?xml version="1.0" encoding="UTF-8"?>
<svg xmlns="http://www.w3.org/2000/svg" width="2575" height="580" viewBox="82.5 -100 2575 580" data-d2-version="0.1.0">
<defs><marker id="arrow-triangle" markerWidth="10" markerHeight="10" refX="10" refY="5" orient="auto" markerUnits="strokeWidth"><path d="M0,0 L10,5 L0,10 Z" fill="#0A0F25"/></marker>
<marker id="arrow-triangle-reverse" markerWidth="10" markerHeight="10" refX="0" refY="5" orient="auto" markerUnits="strokeWidth"><path d="M10,0 L0,5 L10,10 Z" fill="#0A0F25"/></marker>
<marker id="arrow-diamond" markerWidth="10" markerHeight="10" refX="10" refY="5" orient="auto" markerUnits="strokeWidth"><path d="M0,5 L5,0 L10,5 L5,10 Z" fill="#0A0F25"/></marker>
<marker id="arrow-diamond-reverse" markerWidth="10" markerHeight="10" refX="0" refY="5" orient="auto" markerUnits="strokeWidth"><path d="M0,5 L5,0 L10,5 L5,10 Z" fill="#0A0F25"/></marker>
<marker id="arrow-circle" markerWidth="10" markerHeight="10" refX="6" refY="5" orient="auto" markerUnits="strokeWidth"><circle cx="5" cy="5" r="4" fill="#0A0F25"/></marker>
<marker id="arrow-circle-reverse" markerWidth="10" markerHeight="10" refX="4" refY="5" orient="auto" markerUnits="strokeWidth"><circle cx="5" cy="5" r="4" fill="#0A0F25"/></marker>
<marker id="arrow-cf-one" markerWidth="10" markerHeight="10" refX="10" refY="5" orient="auto" markerUnits="strokeWidth"><line x1="10" y1="0" x2="10" y2="10" stroke="#0A0F25" stroke-width="2"/></marker>
<marker id="arrow-cf-one-reverse" markerWidth="10" markerHeight="10" refX="0" refY="5" orient="auto" markerUnits="strokeWidth"><line x1="0" y1="0" x2="0" y2="10" stroke="#0A0F25" stroke-width="2"/></marker>
<marker id="arrow-cf-many" markerWidth="10" markerHeight="10" refX="10" refY="5" orient="auto" markerUnits="strokeWidth"><path d="M0,5 L10,0 M0,5 L10,5 M0,5 L10,10" stroke="#0A0F25" stroke-width="2" fill="none"/></marker>
<marker id="arrow-cf-many-reverse" markerWidth="10" markerHeight="10" refX="0" refY="5" orient="auto" markerUnits="strokeWidth"><path d="M10,5 L0,0 M10,5 L0,5 M10,5 L0,10" stroke="#0A0F25" stroke-width="2" fill="none"/></marker>
<marker id="arrow-cf-one-required" markerWidth="10" markerHeight="10" refX="10" refY="5" orient="auto" markerUnits="strokeWidth"><line x1="10" y1="0" x2="10" y2="10" stroke="#0A0F25" stroke-width="2"/><line x1="7" y1="0" x2="7" y2="10" stroke="#0A0F25" stroke-width="2"/></marker>
<marker id="arrow-cf-one-required-reverse" markerWidth="10" markerHeight="10" refX="0" refY="5" orient="auto" markerUnits="strokeWidth"><line x1="0" y1="0" x2="0" y2="10" stroke="#0A0F25" stroke-width="2"/><line x1="3" y1="0" x2="3" y2="10" stroke="#0A0F25" stroke-width="2"/></marker>
<marker id="arrow-cf-many-required" markerWidth="10" markerHeight="10" refX="10" refY="5" orient="auto" markerUnits="strokeWidth"><path d="M0,5 L10,0 M0,5 L10,5 M0,5 L10,10" stroke="#0A0F25" stroke-width="2" fill="none"/><line x1="3" y1="0" x2="3" y2="10" stroke="#0A0F25" stroke-width="2"/></marker>
<marker id="arrow-cf-many-required-reverse" markerWidth="10" markerHeight="10" refX="0" refY="5" orient="auto" markerUnits="strokeWidth"><path d="M10,5 L0,0 M10,5 L0,5 M10,5 L0,10" stroke="#0A0F25" stroke-width="2" fill="none"/><line x1="7" y1="0" x2="7" y2="10" stroke="#0A0F25" stroke-width="2"/></marker>
<marker id="arrow-cf-one-optional" markerWidth="10" markerHeight="10" refX="10" refY="5" orient="auto" markerUnits="strokeWidth"><line x1="10" y1="0" x2="10" y2="10" stroke="#0A0F25" stroke-width="2"/><circle cx="7" cy="5" r="2" stroke="#0A0F25" stroke-width="2" fill="white"/></marker>
<marker id="arrow-cf-one-optional-reverse" markerWidth="10" markerHeight="10" refX="0" refY="5" orient="auto" markerUnits="strokeWidth"><line x1="0" y1="0" x2="0" y2="10" stroke="#0A0F25" stroke-width="2"/><circle cx="3" cy="5" r="2" stroke="#0A0F25" stroke-width="2" fill="white"/></marker>
<marker id="arrow-cf-many-optional" markerWidth="10" markerHeight="10" refX="10" refY="5" orient="auto" markerUnits="strokeWidth"><path d="M0,5 L10,0 M0,5 L10,5 M0,5 L10,10" stroke="#0A0F25" stroke-width="2" fill="none"/><circle cx="3" cy="5" r="2" stroke="#0A0F25" stroke-width="2" fill="white"/></marker>
<marker id="arrow-cf-many-optional-reverse" markerWidth="10" markerHeight="10" refX="0" refY="5" orient="auto" markerUnits="strokeWidth"><path d="M10,5 L0,0 M10,5 L0,5 M10,5 L0,10" stroke="#0A0F25" stroke-width="2" fill="none"/><circle cx="7" cy="5" r="2" stroke="#0A0F25" stroke-width="2" fill="white"/></marker>
<marker id="arrow-line" markerWidth="10" markerHeight="10" refX="10" refY="5" orient="auto" markerUnits="strokeWidth"><line x1="10" y1="0" x2="10" y2="10" stroke="#0A0F25" stroke-width="2"/></marker>
<marker id="arrow-line-reverse" markerWidth="10" markerHeight="10" refX="0" refY="5" orient="auto" markerUnits="strokeWidth"><line x1="0" y1="0" x2="0" y2="10" stroke="#0A0F25" stroke-width="2"/></marker>
<marker id="arrow-open" markerWidth="10" markerHeight="10" refX="10" refY="5" orient="auto" markerUnits="strokeWidth"><path d="M0,0 L10,5 L0,10" stroke="#0A0F25" stroke-width="2" fill="none"/></marker>
<marker id="arrow-open-reverse" markerWidth="10" markerHeight="10" refX="0" refY="5" orient="auto" markerUnits="strokeWidth"><path d="M10,0 L0,5 L10,10" stroke="#0A0F25" stroke-width="2" fill="none"/></marker>
<marker id="arrow" markerWidth="10" markerHeight="10" refX="10" refY="5" orient="auto" markerUnits="strokeWidth"><path d="M0,0 L10,5 L0,10 Z" fill="#0A0F25"/></marker>
<marker id="arrow-reverse" markerWidth="10" markerHeight="10" refX="0" refY="5" orient="auto" markerUnits="strokeWidth"><path d="M10,0 L0,5 L10,10 Z" fill="#0A0F25"/></marker>
</defs>
<rect width="100%" height="100%" fill="#FFFFFF"/>
<g id="base-layer">
<rect x="182.5" y="0" width="100" height="60" fill="#FFFFFF" stroke="#0A0F25" stroke-width="2"/>
<rect x="182.5" y="0" width="100" height="12" fill="#0A0F25" stroke="none" stroke-width="0"/>
<line x1="182.5" y1="12" x2="282.5" y2="12" stroke="#0A0F25" stroke-width="2"/>
<line x1="182.5" y1="24" x2="282.5" y2="24" stroke="#0A0F25" stroke-width="2"/>
<line x1="182.5" y1="36" x2="282.5" y2="36" stroke="#0A0F25" stroke-width="2"/>
<line x1="182.5" y1="48" x2="282.5" y2="48" stroke="#0A0F25" stroke-width="2"/>
<rect x="1320" y="160" width="100" height="60" fill="#FFFFFF" stroke="#0A0F25" stroke-width="2"/>
<rect x="1320" y="160" width="100" height="10" fill="#0A0F25" stroke="none" stroke-width="0"/>
<line x1="1320" y1="170" x2="1420" y2="170" stroke="#0A0F25" stroke-width="2"/>
<line x1="1320" y1="180" x2="1420" y2="180" stroke="#0A0F25" stroke-width="2"/>
<line x1="1320" y1="190" x2="1420" y2="190" stroke="#0A0F25" stroke-width="2"/>
<line x1="1320" y1="200" x2="1420" y2="200" stroke="#0A0F25" stroke-width="2"/>
<line x1="1320" y1="210" x2="1420" y2="210" stroke="#0A0F25" stroke-width="2"/>
<rect x="1313.5" y="320" width="113" height="60" fill="#FFFFFF" stroke="#0A0F25" stroke-width="2"/>
<rect x="1313.5" y="320" width="113" height="12" fill="#0A0F25" stroke="none" stroke-width="0"/>
<line x1="1313.5" y1="332" x2="1426.5" y2="332" stroke="#0A0F25" stroke-width="2"/>
<line x1="1313.5" y1="344" x2="1426.5" y2="344" stroke="#0A0F25" stroke-width="2"/>
<line x1="1313.5" y1="356" x2="1426.5" y2="356" stroke="#0A0F25" stroke-width="2"/>
<line x1="1313.5" y1="368" x2="1426.5" y2="368" stroke="#0A0F25" stroke-width="2"/>
<path d="M 245.83333333333334 64 C 245.83333333333334 78.4 245.83333333333334 85.6 245.83333333333334 100 C 245.83333333333334 100 245.83333333333334 110 255.83333333333334 110 C 697.5000000000001 110 918.3333333333334 110 1360 110 C 1360 110 1370 110 1370 120 C 1370 134.4 1370 141.6 1370 156" fill="none" stroke="#0A0F25" stroke-width="2" marker-start="url(#arrow-triangle-reverse)" marker-end="url(#arrow-triangle)"/>
<path d="M 1370 224 C 1370 260.8 1370 279.2 1370 316" fill="none" stroke="#0A0F25" stroke-width="2" marker-start="url(#arrow-triangle-reverse)" marker-end="url(#arrow-triangle)"/>
<path d="M 272.5 64 C 272.5 78.4 272.5 85.6 272.5 100 C 272.5 100 272.5 110 282.5 110 C 649.5 110 833 110 1200 110 C 1200 110 1210 110 1210 120 C 1210 176 1210 204 1210 260 C 1210 260 1210 270 1220 270 C 1257.4 270 1276.1 270 1313.5 270 C 1313.5 270 1323.5 270 1323.5 280 C 1323.5 294.4 1323.5 301.6 1323.5 316" fill="none" stroke="#0A0F25" stroke-width="2" marker-start="url(#arrow-triangle-reverse)" marker-end="url(#arrow-triangle)"/>
<text x="194.5" y="13.75" text-anchor="start" font-family="Arial, sans-serif" font-size="24">users</text>
<text x="194.5" y="23" text-anchor="start" font-family="Arial, sans-serif" font-size="20">id</text>
<text x="304.5" y="23" text-anchor="start" font-family="Arial, sans-serif" font-size="20">int</text>
<text x="273.5" y="23" text-anchor="end" font-family="Arial, sans-serif" font-size="20">PK</text>
<text x="194.5" y="35" text-anchor="start" font-family="Arial, sans-serif" font-size="20">name</text>
<text x="304.5" y="35" text-anchor="start" font-family="Arial, sans-serif" font-size="20">varchar(255)</text>
<text x="194.5" y="47" text-anchor="start" font-family="Arial, sans-serif" font-size="20">email</text>
<text x="304.5" y="47" text-anchor="start" font-family="Arial, sans-serif" font-size="20">varchar(255)</text>
<text x="273.5" y="47" text-anchor="end" font-family="Arial, sans-serif" font-size="20">UNQ</text>
<text x="194.5" y="59" text-anchor="start" font-family="Arial, sans-serif" font-size="20">created_at</text>
<text x="304.5" y="59" text-anchor="start" font-family="Arial, sans-serif" font-size="20">timestamp</text>
<text x="1332" y="172.75" text-anchor="start" font-family="Arial, sans-serif" font-size="24">posts</text>
<text x="1332" y="180" text-anchor="start" font-family="Arial, sans-serif" font-size="20">id</text>
<text x="1434" y="180" text-anchor="start" font-family="Arial, sans-serif" font-size="20">int</text>
<text x="1411" y="180" text-anchor="end" font-family="Arial, sans-serif" font-size="20">PK</text>
<text x="1332" y="190" text-anchor="start" font-family="Arial, sans-serif" font-size="20">user_id</text>
<text x="1434" y="190" text-anchor="start" font-family="Arial, sans-serif" font-size="20">int</text>
<text x="1411" y="190" text-anchor="end" font-family="Arial, sans-serif" font-size="20">FK</text>
<text x="1332" y="200" text-anchor="start" font-family="Arial, sans-serif" font-size="20">title</text>
<text x="1434" y="200" text-anchor="start" font-family="Arial, sans-serif" font-size="20">varchar(255)</text>
<text x="1332" y="210" text-anchor="start" font-family="Arial, sans-serif" font-size="20">content</text>
<text x="1434" y="210" text-anchor="start" font-family="Arial, sans-serif" font-size="20">text</text>
<text x="1332" y="220" text-anchor="start" font-family="Arial, sans-serif" font-size="20">published</text>
<text x="1434" y="220" text-anchor="start" font-family="Arial, sans-serif" font-size="20">boolean</text>
<text x="1325.5" y="333.75" text-anchor="start" font-family="Arial, sans-serif" font-size="24">comments</text>
<text x="1325.5" y="343" text-anchor="start" font-family="Arial, sans-serif" font-size="20">id</text>
<text x="1406.5" y="343" text-anchor="start" font-family="Arial, sans-serif" font-size="20">int</text>
<text x="1417.5" y="343" text-anchor="end" font-family="Arial, sans-serif" font-size="20">PK</text>
<text x="1325.5" y="355" text-anchor="start" font-family="Arial, sans-serif" font-size="20">post_id</text>
<text x="1406.5" y="355" text-anchor="start" font-family="Arial, sans-serif" font-size="20">int</text>
<text x="1417.5" y="355" text-anchor="end" font-family="Arial, sans-serif" font-size="20">FK</text>
<text x="1325.5" y="367" text-anchor="start" font-family="Arial, sans-serif" font-size="20">user_id</text>
<text x="1406.5" y="367" text-anchor="start" font-family="Arial, sans-serif" font-size="20">int</text>
<text x="1417.5" y="367" text-anchor="end" font-family="Arial, sans-serif" font-size="20">FK</text>
<text x="1325.5" y="379" text-anchor="start" font-family="Arial, sans-serif" font-size="20">body</text>
<text x="1406.5" y="379" text-anchor="start" font-family="Arial, sans-serif" font-size="20">text</text>
</g>
</svg>
