<?xml version="1.0" encoding="UTF-8"?>
<svg xmlns="http://www.w3.org/2000/svg" width="536" height="563" viewBox="-101 -101 536 563" data-d2-version="0.2.0" class="d2-1341585658 d2-svg">
<defs><mask id="edge-label-mask" maskUnits="userSpaceOnUse" x="-101" y="-101" width="536" height="563"><rect x="-101" y="-101" width="536" height="563" fill="white"></rect><rect x="163" y="114" width="53" height="21" fill="black"></rect></mask>
<mask id="border-mask-1267179592" maskUnits="userSpaceOnUse" x="216" y="286" width="115" height="75"><rect x="216" y="286" width="115" height="75" fill="white"></rect><path d="M 216 301 L 231 286 L 331 286 L 331 346 L 316 361 L 216 361 L 216 301 L 316 301 L 316 361 M 316 301 L 331 286" style="stroke-width:2;stroke:#000;fill:none;opacity:1;"/></mask>
<marker id="mk-1554537013" markerWidth="10" markerHeight="12" refX="7" refY="6" viewBox="0 0 10 12" orient="auto" markerUnits="userSpaceOnUse"><polygon points="0,0 10,6 0,12" fill="#666" stroke-width="2"/></marker>
<marker id="mk-161592640" markerWidth="10" markerHeight="12" refX="7" refY="6" viewBox="0 0 10 12" orient="auto" markerUnits="userSpaceOnUse"><polygon points="0,0 10,6 0,12" fill="#0D32B2" stroke-width="2"/></marker>
</defs>
<rect x="-101" y="-101" width="536" height="563" rx="0" fill="#FFFFFF" stroke-width="0"/>
<g id="base-layer">
<rect x="0" y="0" width="105" height="60" fill="#e8f4f8" stroke="#2196F3" stroke-width="2" rx="0" ry="0"/>
<path d="M 234 185 C 234 161 279 161 284 161 C 289 161 334 161 334 185 L 334 197 C 334 221 289 221 284 221 C 279 221 234 221 234 197 L 234 185 Z" fill="#fff3e0" stroke="#FF9800" stroke-width="2"/>
<path d="M 234 185 C 234 209 279 209 284 209 C 289 209 334 209 334 185" fill="#fff3e0" stroke="#FF9800" stroke-width="2"/>
<rect x="0" y="301" width="150" height="60" fill="#ffebee" stroke="red" stroke-width="2" rx="0" ry="0"/>
<path d="M 34 151 L 148 151 C 172 151 172 178 172 181 C 172 184 172 211 148 211 L 34 211 C 20.8 211 10 184 10 181 C 10 178 20.8 151 34 151 Z" fill="#e8f5e9" stroke="#0D32B2" stroke-width="2"/>
<path d="M 148 151 C 124 151 124 178 124 181 C 124 184 124 211 148 211" fill="#e8f5e9" stroke="#0D32B2" stroke-width="2"/>
<path d="M 24 161 L 138 161 C 162 161 162 188 162 191 C 162 194 162 221 138 221 L 24 221 C 10.8 221 0 194 0 191 C 0 188 10.8 161 24 161 Z" fill="#e8f5e9" stroke="#0D32B2" stroke-width="2"/>
<path d="M 138 161 C 114 161 114 188 114 191 C 114 194 114 221 138 221" fill="#e8f5e9" stroke="#0D32B2" stroke-width="2"/>
<rect x="216" y="301" width="100" height="60" mask="url(#border-mask-1267179592)" stroke="none" fill="#f3e5f5" stroke-width="2"/>
<polygon mask="url(#border-mask-1267179592)" points="216,301 231,286 331,286 331,346 316,361 316,301" fill="#e2c0e7" stroke="none" stroke-width="2"/>
<path d="M 216 301 L 231 286 L 331 286 L 331 346 L 316 361 L 216 361 L 216 301 L 316 301 L 316 361 M 316 301 L 331 286" fill="none" stroke="#0D32B2" stroke-width="2"/>
<path d="M 95 62 L 95 100.5 S 95 110.5 105 110.5 L 274 110.5 S 284 110.5 284 120.5 L 284 157" fill="none" stroke="#666" stroke-width="2" marker-end="url(#mk-1554537013)" mask="url(#edge-label-mask)" stroke-dasharray="10.000000,9.865639"/>
<text x="189.5" y="130" text-anchor="middle" dominant-baseline="alphabetic" font-family="Arial, sans-serif" font-size="16" style="fill: #676C7E; font-style: italic">queries</text>
<path d="M 66.66666666666667 62 L 66.66666666666667 103.33333333333334 C 66.66666666666667 117.66666666666666 81 103.33333333333334 81 117.66666666666666 L 81 157" fill="none" stroke="#0D32B2" stroke-width="2" marker-end="url(#mk-161592640)" mask="url(#edge-label-mask)"/>
<path d="M 81 223 L 81 258 C 81 264 75 258 75 264 L 75 297" fill="none" stroke="#0D32B2" stroke-width="2" marker-end="url(#mk-161592640)" mask="url(#edge-label-mask)"/>
<path d="M 284 223 L 284 252 C 284 270 266 252 266 270 L 266 297" fill="none" stroke="#0D32B2" stroke-width="2" marker-end="url(#mk-161592640)" mask="url(#edge-label-mask)"/>
<text x="52.5" y="35.5" text-anchor="middle" dominant-baseline="alphabetic" font-family="Arial, sans-serif" font-size="16" style="fill: #0A0F25; font-weight: 700">Web Server</text>
<text x="284" y="196.5" text-anchor="middle" dominant-baseline="alphabetic" font-family="Arial, sans-serif" font-size="16" style="fill: #0A0F25; font-weight: 700">Database</text>
<text x="75" y="337.5" text-anchor="middle" dominant-baseline="alphabetic" font-family="Arial, sans-serif" font-size="18" style="fill: #0A0F25; font-weight: 700">Important Node</text>
<text x="69" y="196.5" text-anchor="middle" dominant-baseline="alphabetic" font-family="Arial, sans-serif" font-size="16" style="fill: #0A0F25; font-weight: 700">Task Queue</text>
<text x="266" y="336.5" text-anchor="middle" dominant-baseline="alphabetic" font-family="Arial, sans-serif" font-size="16" style="fill: #0A0F25; font-weight: 700">3D Box</text>
</g>
</svg>
