<?xml version="1.0" encoding="UTF-8"?>
<svg xmlns="http://www.w3.org/2000/svg" width="522" height="561" viewBox="-100 -100 522 561" data-d2-version="0.2.0">
<defs><mask id="edge-label-mask" maskUnits="userSpaceOnUse" x="-100" y="-100" width="522" height="561"><rect x="-100" y="-100" width="522" height="561" fill="white"></rect><rect x="219" y="100" width="53" height="21" fill="black"></rect></mask>
<mask id="border-mask-1267179592" maskUnits="userSpaceOnUse" x="222" y="286" width="115" height="75"><rect x="222" y="286" width="115" height="75" fill="white"></rect><path d="M 222 301 L 237 286 L 337 286 L 337 346 L 322 361 L 222 361 L 222 301 L 322 301 L 322 361 M 322 301 L 337 286" style="stroke-width:2;stroke:#000;fill:none;opacity:1;"/></mask>
<marker id="mk-1554537013" markerWidth="10" markerHeight="12" refX="7" refY="6" viewBox="0 0 10 12" orient="auto" markerUnits="userSpaceOnUse"><polygon points="0,0 10,6 0,12" fill="#666" stroke-width="2"/></marker>
<marker id="mk-161592640" markerWidth="10" markerHeight="12" refX="7" refY="6" viewBox="0 0 10 12" orient="auto" markerUnits="userSpaceOnUse"><polygon points="0,0 10,6 0,12" fill="#0D32B2" stroke-width="2"/></marker>
</defs>
<rect x="-100" y="-100" width="522" height="561" rx="0" fill="#FFFFFF" stroke-width="0"/>
<g id="base-layer">
<rect x="124" y="0" width="105" height="60" fill="#e8f4f8" stroke="#2196F3" stroke-width="2" rx="0" ry="0"/>
<path d="M 222 185 C 222 161 267 161 272 161 C 277 161 322 161 322 185 L 322 197 C 322 221 277 221 272 221 C 267 221 222 221 222 197 L 222 185 Z" fill="#fff3e0" stroke="#FF9800" stroke-width="2"/>
<path d="M 222 185 C 222 209 267 209 272 209 C 277 209 322 209 322 185" fill="#fff3e0" stroke="#FF9800" stroke-width="2"/>
<rect x="6" y="301" width="150" height="60" fill="#ffebee" stroke="red" stroke-width="2" rx="0" ry="0"/>
<path d="M 34 151 L 148 151 C 172 151 172 178 172 181 C 172 184 172 211 148 211 L 34 211 C 20.8 211 10 184 10 181 C 10 178 20.8 151 34 151 Z" fill="#e8f5e9" stroke="#0D32B2" stroke-width="2"/>
<path d="M 148 151 C 124 151 124 178 124 181 C 124 184 124 211 148 211" fill="#e8f5e9" stroke="#0D32B2" stroke-width="2"/>
<path d="M 24 161 L 138 161 C 162 161 162 188 162 191 C 162 194 162 221 138 221 L 24 221 C 10.8 221 0 194 0 191 C 0 188 10.8 161 24 161 Z" fill="#e8f5e9" stroke="#0D32B2" stroke-width="2"/>
<path d="M 138 161 C 114 161 114 188 114 191 C 114 194 114 221 138 221" fill="#e8f5e9" stroke="#0D32B2" stroke-width="2"/>
<rect x="222" y="301" width="100" height="60" mask="url(#border-mask-1267179592)" stroke="none" fill="#f3e5f5" stroke-width="2"/>
<polygon mask="url(#border-mask-1267179592)" points="222,301 237,286 337,286 337,346 322,361 322,301" fill="#e2c0e7" stroke="none" stroke-width="2"/>
<path d="M 222 301 L 237 286 L 337 286 L 337 346 L 322 361 L 222 361 L 222 301 L 322 301 L 322 361 M 322 301 L 337 286" fill="none" stroke="#0D32B2" stroke-width="2"/>
<path d="M 219 62 L 219 100.5 S 219 110.5 229 110.5 L 262 110.5 S 272 110.5 272 120.5 L 272 157" fill="none" stroke="#666" stroke-width="2" marker-end="url(#mk-1554537013)" mask="url(#edge-label-mask)" stroke-dasharray="5"/>
<text x="245.5" y="116" text-anchor="middle" dominant-baseline="alphabetic" font-family="Arial, sans-serif" font-size="16" style="fill: #676C7E; font-style: italic">queries</text>
<path d="M 134 62 L 134 100.5 S 134 110.5 124 110.5 L 91 110.5 S 81 110.5 81 120.5 L 81 157" fill="none" stroke="#0D32B2" stroke-width="2" marker-end="url(#mk-161592640)" mask="url(#edge-label-mask)"/>
<path d="M 81 223 L 81 297" fill="none" stroke="#0D32B2" stroke-width="2" marker-end="url(#mk-161592640)" mask="url(#edge-label-mask)"/>
<path d="M 272 223 L 272 297" fill="none" stroke="#0D32B2" stroke-width="2" marker-end="url(#mk-161592640)" mask="url(#edge-label-mask)"/>
<text x="176.5" y="35.5" text-anchor="middle" dominant-baseline="alphabetic" font-family="Arial, sans-serif" font-size="16" style="fill: #0A0F25; font-weight: 700">Web Server</text>
<text x="272" y="196.5" text-anchor="middle" dominant-baseline="alphabetic" font-family="Arial, sans-serif" font-size="16" style="fill: #0A0F25; font-weight: 700">Database</text>
<text x="81" y="337.5" text-anchor="middle" dominant-baseline="alphabetic" font-family="Arial, sans-serif" font-size="18" style="fill: #0A0F25; font-weight: 700">Important Node</text>
<text x="69" y="196.5" text-anchor="middle" dominant-baseline="alphabetic" font-family="Arial, sans-serif" font-size="16" style="fill: #0A0F25; font-weight: 700">Task Queue</text>
<text x="272" y="336.5" text-anchor="middle" dominant-baseline="alphabetic" font-family="Arial, sans-serif" font-size="16" style="fill: #0A0F25; font-weight: 700">3D Box</text>
</g>
</svg>
