<?xml version="1.0" encoding="UTF-8"?>
<svg xmlns="http://www.w3.org/2000/svg" width="526" height="540" viewBox="-100 -100 526 540" data-d2-version="0.2.0">
<defs><mask id="edge-label-mask" maskUnits="userSpaceOnUse" x="-100" y="-100" width="526" height="540"><rect x="-100" y="-100" width="526" height="540" fill="white"></rect></mask>
<marker id="mk-161592640" markerWidth="10" markerHeight="12" refX="7" refY="6" viewBox="0 0 10 12" orient="auto" markerUnits="userSpaceOnUse"><polygon points="0,0 10,6 0,12" fill="#0D32B2" stroke-width="2"/></marker>
</defs>
<rect x="-100" y="-100" width="526" height="540" rx="0" fill="#FFFFFF" stroke-width="0"/>
<g id="base-layer">
<rect x="108" y="0" width="100" height="60" fill="#2196F3" stroke="#0D32B2" stroke-width="2" rx="0" ry="0"/>
<rect x="108" y="140" width="100" height="60" fill="#FF9800" stroke="#0D32B2" stroke-width="2" rx="0" ry="0"/>
<rect x="183" y="280" width="143" height="60" fill="#4CAF50" stroke="#0D32B2" stroke-width="2" rx="0" ry="0"/>
<rect x="0" y="280" width="123" height="60" fill="#f44336" stroke="#0D32B2" stroke-width="2" rx="0" ry="0"/>
<path d="M 158 62 L 158 136" fill="none" stroke="#0D32B2" stroke-width="2" marker-end="url(#mk-161592640)" mask="url(#edge-label-mask)"/>
<path d="M 198 202 L 198 230 S 198 240 208 240 L 244.5 240 S 254.5 240 254.5 250 L 254.5 276" fill="none" stroke="#0D32B2" stroke-width="2" marker-end="url(#mk-161592640)" mask="url(#edge-label-mask)"/>
<path d="M 118 202 L 118 230 S 118 240 108 240 L 71.5 240 S 61.5 240 61.5 250 L 61.5 276" fill="none" stroke="#0D32B2" stroke-width="2" marker-end="url(#mk-161592640)" mask="url(#edge-label-mask)"/>
<text x="158" y="35.5" text-anchor="middle" dominant-baseline="alphabetic" font-family="Arial, sans-serif" font-size="16" style="fill: #0A0F25; font-weight: 700">Header</text>
<text x="158" y="175.5" text-anchor="middle" dominant-baseline="alphabetic" font-family="Arial, sans-serif" font-size="16" style="fill: #0A0F25; font-weight: 700">Sidebar</text>
<text x="254.5" y="315.5" text-anchor="middle" dominant-baseline="alphabetic" font-family="Arial, sans-serif" font-size="16" style="fill: #0A0F25; font-weight: 700">Success Message</text>
<text x="61.5" y="315.5" text-anchor="middle" dominant-baseline="alphabetic" font-family="Arial, sans-serif" font-size="16" style="fill: #0A0F25; font-weight: 700">Error Message</text>
</g>
</svg>
