<?xml version="1.0" encoding="UTF-8"?>
<svg xmlns="http://www.w3.org/2000/svg" width="1042" height="2182" viewBox="-100 -100 1042 2182" data-d2-version="0.1.0">
<defs><marker id="arrow-triangle" markerWidth="10" markerHeight="10" refX="10" refY="5" orient="auto" markerUnits="strokeWidth"><path d="M0,0 L10,5 L0,10 Z" fill="#0A0F25"/></marker>
<marker id="arrow-triangle-reverse" markerWidth="10" markerHeight="10" refX="0" refY="5" orient="auto" markerUnits="strokeWidth"><path d="M10,0 L0,5 L10,10 Z" fill="#0A0F25"/></marker>
<marker id="arrow-diamond" markerWidth="10" markerHeight="10" refX="10" refY="5" orient="auto" markerUnits="strokeWidth"><path d="M0,5 L5,0 L10,5 L5,10 Z" fill="#0A0F25"/></marker>
<marker id="arrow-diamond-reverse" markerWidth="10" markerHeight="10" refX="0" refY="5" orient="auto" markerUnits="strokeWidth"><path d="M0,5 L5,0 L10,5 L5,10 Z" fill="#0A0F25"/></marker>
<marker id="arrow-circle" markerWidth="10" markerHeight="10" refX="6" refY="5" orient="auto" markerUnits="strokeWidth"><circle cx="5" cy="5" r="4" fill="#0A0F25"/></marker>
<marker id="arrow-circle-reverse" markerWidth="10" markerHeight="10" refX="4" refY="5" orient="auto" markerUnits="strokeWidth"><circle cx="5" cy="5" r="4" fill="#0A0F25"/></marker>
<marker id="arrow-cf-one" markerWidth="10" markerHeight="10" refX="10" refY="5" orient="auto" markerUnits="strokeWidth"><line x1="10" y1="0" x2="10" y2="10" stroke="#0A0F25" stroke-width="2"/></marker>
<marker id="arrow-cf-one-reverse" markerWidth="10" markerHeight="10" refX="0" refY="5" orient="auto" markerUnits="strokeWidth"><line x1="0" y1="0" x2="0" y2="10" stroke="#0A0F25" stroke-width="2"/></marker>
<marker id="arrow-cf-many" markerWidth="10" markerHeight="10" refX="10" refY="5" orient="auto" markerUnits="strokeWidth"><path d="M0,5 L10,0 M0,5 L10,5 M0,5 L10,10" stroke="#0A0F25" stroke-width="2" fill="none"/></marker>
<marker id="arrow-cf-many-reverse" markerWidth="10" markerHeight="10" refX="0" refY="5" orient="auto" markerUnits="strokeWidth"><path d="M10,5 L0,0 M10,5 L0,5 M10,5 L0,10" stroke="#0A0F25" stroke-width="2" fill="none"/></marker>
<marker id="arrow-cf-one-required" markerWidth="10" markerHeight="10" refX="10" refY="5" orient="auto" markerUnits="strokeWidth"><line x1="10" y1="0" x2="10" y2="10" stroke="#0A0F25" stroke-width="2"/><line x1="7" y1="0" x2="7" y2="10" stroke="#0A0F25" stroke-width="2"/></marker>
<marker id="arrow-cf-one-required-reverse" markerWidth="10" markerHeight="10" refX="0" refY="5" orient="auto" markerUnits="strokeWidth"><line x1="0" y1="0" x2="0" y2="10" stroke="#0A0F25" stroke-width="2"/><line x1="3" y1="0" x2="3" y2="10" stroke="#0A0F25" stroke-width="2"/></marker>
<marker id="arrow-cf-many-required" markerWidth="10" markerHeight="10" refX="10" refY="5" orient="auto" markerUnits="strokeWidth"><path d="M0,5 L10,0 M0,5 L10,5 M0,5 L10,10" stroke="#0A0F25" stroke-width="2" fill="none"/><line x1="3" y1="0" x2="3" y2="10" stroke="#0A0F25" stroke-width="2"/></marker>
<marker id="arrow-cf-many-required-reverse" markerWidth="10" markerHeight="10" refX="0" refY="5" orient="auto" markerUnits="strokeWidth"><path d="M10,5 L0,0 M10,5 L0,5 M10,5 L0,10" stroke="#0A0F25" stroke-width="2" fill="none"/><line x1="7" y1="0" x2="7" y2="10" stroke="#0A0F25" stroke-width="2"/></marker>
<marker id="arrow-cf-one-optional" markerWidth="10" markerHeight="10" refX="10" refY="5" orient="auto" markerUnits="strokeWidth"><line x1="10" y1="0" x2="10" y2="10" stroke="#0A0F25" stroke-width="2"/><circle cx="7" cy="5" r="2" stroke="#0A0F25" stroke-width="2" fill="white"/></marker>
<marker id="arrow-cf-one-optional-reverse" markerWidth="10" markerHeight="10" refX="0" refY="5" orient="auto" markerUnits="strokeWidth"><line x1="0" y1="0" x2="0" y2="10" stroke="#0A0F25" stroke-width="2"/><circle cx="3" cy="5" r="2" stroke="#0A0F25" stroke-width="2" fill="white"/></marker>
<marker id="arrow-cf-many-optional" markerWidth="10" markerHeight="10" refX="10" refY="5" orient="auto" markerUnits="strokeWidth"><path d="M0,5 L10,0 M0,5 L10,5 M0,5 L10,10" stroke="#0A0F25" stroke-width="2" fill="none"/><circle cx="3" cy="5" r="2" stroke="#0A0F25" stroke-width="2" fill="white"/></marker>
<marker id="arrow-cf-many-optional-reverse" markerWidth="10" markerHeight="10" refX="0" refY="5" orient="auto" markerUnits="strokeWidth"><path d="M10,5 L0,0 M10,5 L0,5 M10,5 L0,10" stroke="#0A0F25" stroke-width="2" fill="none"/><circle cx="7" cy="5" r="2" stroke="#0A0F25" stroke-width="2" fill="white"/></marker>
<marker id="arrow-line" markerWidth="10" markerHeight="10" refX="10" refY="5" orient="auto" markerUnits="strokeWidth"><line x1="10" y1="0" x2="10" y2="10" stroke="#0A0F25" stroke-width="2"/></marker>
<marker id="arrow-line-reverse" markerWidth="10" markerHeight="10" refX="0" refY="5" orient="auto" markerUnits="strokeWidth"><line x1="0" y1="0" x2="0" y2="10" stroke="#0A0F25" stroke-width="2"/></marker>
<marker id="arrow-open" markerWidth="10" markerHeight="10" refX="10" refY="5" orient="auto" markerUnits="strokeWidth"><path d="M0,0 L10,5 L0,10" stroke="#0A0F25" stroke-width="2" fill="none"/></marker>
<marker id="arrow-open-reverse" markerWidth="10" markerHeight="10" refX="0" refY="5" orient="auto" markerUnits="strokeWidth"><path d="M10,0 L0,5 L10,10" stroke="#0A0F25" stroke-width="2" fill="none"/></marker>
<marker id="arrow" markerWidth="10" markerHeight="10" refX="10" refY="5" orient="auto" markerUnits="strokeWidth"><path d="M0,0 L10,5 L0,10 Z" fill="#0A0F25"/></marker>
<marker id="arrow-reverse" markerWidth="10" markerHeight="10" refX="0" refY="5" orient="auto" markerUnits="strokeWidth"><path d="M10,0 L0,5 L10,10 Z" fill="#0A0F25"/></marker>
</defs>
<rect x="-100" y="-100" width="1042" height="2182" rx="0" fill="#FFFFFF" stroke="none" stroke-width="0"/>
<g id="base-layer">
<rect x="0" y="0" width="354" height="76" fill="#FFFFFF" stroke="#0A0F25" stroke-width="2" rx="0" ry="0"/>
<path d="M 468 71 H 414 v -0.937984496124031 c 0 -11.25581395348837 5.929721815519766 -21.4031007751938 15.259150805270865 -26.26356589147287 C 424.1200585651537 39.87596899224806 421.03660322108345 33.48062015503876 421.03660322108345 26.488372093023255 C 421.03660322108345 14.635658914728682 429.97071742313324 5 440.96046852122987 5 c 10.989751098096633 0 19.923865300146414 9.635658914728682 19.923865300146414 21.488372093023255 c 0 6.992248062015503 -3.0043923865300144 13.302325581395348 -8.222547584187408 17.3953488372093 c 9.329428989751099 4.8604651162790695 15.259150805270865 15.007751937984496 15.259150805270865 26.26356589147287 v 0.8527131782945736 Z" fill="#FFFFFF" stroke="#0A0F25" stroke-width="2"/>
<path d="M 410.2045995203837 205.36514722753347 C 410.2045995203837 206.25750669216063 409.59170743405275 207.14970554493308 408.9789256594724 207.14970554493308 C 401.1652134292566 208.26499426386235 395.0367338129496 219.6417743785851 395.0367338129496 233.47222179732313 C 395.0367338129496 248.19502868068832 401.9312182254196 260.01782791587 410.6642685851318 260.01782791587 H 469.95683453237405 C 479.3027769784172 260.01782791587 486.9632661870503 247.3026692160612 486.9632661870503 231.9107533460803 C 486.9632661870503 217.1879464627151 479.91544844124695 204.91896749521987 471.0293956834532 204.02676864244742 C 470.41650359712224 204.02676864244742 469.8037218225419 203.35749904397707 469.65049880095916 202.2422103250478 C 467.6587098321342 187.2964741873805 458.46599040767376 176.14278393881455 447.7413717026378 176.14278393881455 C 440.69366426858505 176.14278393881455 434.4119616306954 180.82734990439772 430.4286043165467 188.188673040153 C 429.9689352517985 189.08103250478015 429.2029304556354 189.30412237093694 428.7432613908872 189.08103250478015 C 427.21114148681045 188.188673040153 425.5259088729016 187.7426539196941 423.6873429256594 187.7426539196941 C 416.6395251798561 187.51940344168258 410.8174916067146 195.32690630975142 410.2045995203837 205.36514722753347 Z" fill="#e3f2fd" stroke="#0A0F25" stroke-width="2"/>
<polygon points="394.25,360 488.75,360 536,394.5 488.75,429 394.25,429 347,394.5" fill="#fff3e0" stroke="#0A0F25" stroke-width="2"/>
<rect x="191" y="549" width="591" height="126" fill="#e8f5e9" stroke="#0A0F25" stroke-width="2" rx="0" ry="0"/>
<rect x="245" y="815" width="412" height="126" fill="#f3e5f5" stroke="#0A0F25" stroke-width="2" rx="0" ry="0"/>
<path d="M 163 1085 C 163 1061 221.05 1061 227.5 1061 C 233.95 1061 292 1061 292 1085 L 292 1155 C 292 1179 233.95 1179 227.5 1179 C 221.05 1179 163 1179 163 1155 L 163 1085 Z" fill="#ffebee" stroke="#0A0F25" stroke-width="2"/>
<ellipse cx="227.5" cy="1085" rx="64.5" ry="24" fill="none" stroke="none" stroke-width="0"/>
<path d="M 163 1085 C 163 1109 221.05 1109 227.5 1109 C 233.95 1109 292 1109 292 1085" fill="none" stroke="#0A0F25" stroke-width="2"/>
<rect x="174" y="1565" width="402" height="417" fill="#fff8e1" stroke="#0A0F25" stroke-width="2" rx="0" ry="0"/>
<path d="M 611 1087 L 786 1087 C 794.25 1087 801 1103.5 801 1120 C 801 1136.5 794.25 1153 786 1153 L 611 1153 C 602.75 1153 596 1136.5 596 1120 C 596 1103.5 602.75 1087 611 1087 Z" fill="#e0f2f1" stroke="#0A0F25" stroke-width="2"/>
<rect x="506" y="1299" width="336" height="126" fill="#fce4ec" stroke="#0A0F25" stroke-width="2" rx="0" ry="0"/>
<path d="M 678 1621 L 818 1621 C 828.95 1621 833 1637.5 833 1654 C 833 1670.5 828.95 1687 818 1687 L 678 1687 C 667.05 1687 663 1670.5 663 1654 C 663 1637.5 667.05 1621 678 1621 Z" fill="#f5f5f5" stroke="#0A0F25" stroke-width="2"/>
<rect x="418" y="579" width="137" height="66" fill="#FFFFFF" stroke="#0A0F25" stroke-width="2" rx="0" ry="0"/>
<rect x="615" y="579" width="137" height="66" fill="#FFFFFF" stroke="#0A0F25" stroke-width="2" rx="0" ry="0"/>
<path d="M 345 1619 C 345 1595 401.25 1595 407.5 1595 C 413.75 1595 470 1595 470 1619 L 470 1689 C 470 1713 413.75 1713 407.5 1713 C 401.25 1713 345 1713 345 1689 L 345 1619 Z" fill="#FFFFFF" stroke="#0A0F25" stroke-width="2"/>
<ellipse cx="407.5" cy="1619" rx="62.5" ry="24" fill="none" stroke="none" stroke-width="0"/>
<path d="M 345 1619 C 345 1643 401.25 1643 407.5 1643 C 413.75 1643 470 1643 470 1619" fill="none" stroke="#0A0F25" stroke-width="2"/>
<path d="M 204 1858 C 204 1834 252.6 1834 258 1834 C 263.4 1834 312 1834 312 1858 L 312 1928 C 312 1952 263.4 1952 258 1952 C 252.6 1952 204 1952 204 1928 L 204 1858 Z" fill="#FFFFFF" stroke="#0A0F25" stroke-width="2"/>
<ellipse cx="258" cy="1858" rx="54" ry="24" fill="none" stroke="none" stroke-width="0"/>
<path d="M 204 1858 C 204 1882 252.6 1882 258 1882 C 263.4 1882 312 1882 312 1858" fill="none" stroke="#0A0F25" stroke-width="2"/>
<path d="M 438 1858 C 438 1834 486.6 1834 492 1834 C 497.4 1834 546 1834 546 1858 L 546 1928 C 546 1952 497.4 1952 492 1952 C 486.6 1952 438 1952 438 1928 L 438 1858 Z" fill="#FFFFFF" stroke="#0A0F25" stroke-width="2"/>
<ellipse cx="492" cy="1858" rx="54" ry="24" fill="none" stroke="none" stroke-width="0"/>
<path d="M 438 1858 C 438 1882 486.6 1882 492 1882 C 497.4 1882 546 1882 546 1858" fill="none" stroke="#0A0F25" stroke-width="2"/>
<rect x="221" y="579" width="137" height="66" fill="#FFFFFF" stroke="#0A0F25" stroke-width="2" rx="0" ry="0"/>
<rect x="275" y="845" width="135" height="66" fill="#FFFFFF" stroke="#0A0F25" stroke-width="2" rx="0" ry="0"/>
<rect x="536" y="1329" width="108" height="66" fill="#FFFFFF" stroke="#0A0F25" stroke-width="2" rx="0" ry="0"/>
<rect x="704" y="1329" width="108" height="66" fill="#FFFFFF" stroke="#0A0F25" stroke-width="2" rx="0" ry="0"/>
<rect x="492" y="845" width="135" height="66" fill="#FFFFFF" stroke="#0A0F25" stroke-width="2" rx="0" ry="0"/>
<path d="M 348.4341420811715 1701.2442222382042 C 276 1758.8 257.6 1785.6 257.9669432776504 1830.000136595694" fill="none" stroke="#0A0F25" stroke-width="2" marker-end="url(#arrow-triangle)"/>
<rect x="266" y="1744" width="31" height="21" fill="#FFFFFF" stroke="none" stroke-width="1" rx="3" ry="3"/>
<text x="281.5" y="1760" text-anchor="middle" dominant-baseline="alphabetic" font-family="Arial, sans-serif" font-size="16" style="fill: #676C7E; font-style: italic">sync</text>
<path d="M 447.1528689488651 1710.634286751688 C 482.4 1760.6 491.6 1785.6 491.9669432776504 1830.000136595694" fill="none" stroke="#0A0F25" stroke-width="2" marker-end="url(#arrow-triangle)"/>
<rect x="469" y="1756" width="31" height="21" fill="#FFFFFF" stroke="none" stroke-width="1" rx="3" ry="3"/>
<text x="484.5" y="1772" text-anchor="middle" dominant-baseline="alphabetic" font-family="Arial, sans-serif" font-size="16" style="fill: #676C7E; font-style: italic">sync</text>
<path d="M 441 99 C 441 120.2 441 136 441 172" fill="none" stroke="#0A0F25" stroke-width="2" marker-end="url(#arrow-triangle)"/>
<path d="M 441 262 C 441 300 441 320 441 356" fill="none" stroke="#0A0F25" stroke-width="2" marker-end="url(#arrow-triangle)"/>
<path d="M 386.25483654283806 424.976936286452 C 309.4 468 289.75 539 289.75 575" fill="none" stroke="#0A0F25" stroke-width="2" marker-end="url(#arrow-triangle)"/>
<path d="M 459.97054339075964 430.74872683019754 C 481.2 469 486.75 539 486.75 575" fill="none" stroke="#0A0F25" stroke-width="2" marker-end="url(#arrow-triangle)"/>
<path d="M 507.8884195713825 417.6586892457143 C 648.2 466.6 683.75 539 683.75 575" fill="none" stroke="#0A0F25" stroke-width="2" marker-end="url(#arrow-triangle)"/>
<path d="M 289.75 647 C 289.75 685 289.75 705 289.75 720 C 289.75 735 296.15 805 319.59378521430654 841.630914397354" fill="none" stroke="#0A0F25" stroke-width="2" marker-end="url(#arrow-triangle)"/>
<path d="M 471.194522771468 646.8306300648455 C 454.4 685 450 705 450 720 C 450 735 437 805 388.1704959564184 842.5611569566013" fill="none" stroke="#0A0F25" stroke-width="2" marker-end="url(#arrow-triangle)"/>
<path d="M 490.98829044123687 646.9857536769739 C 495.55 685 496.75 705 496.75 720 C 496.75 735 504.35 805 532.3296669298658 841.8153512235076" fill="none" stroke="#0A0F25" stroke-width="2" marker-end="url(#arrow-triangle)"/>
<path d="M 683.75 647 C 683.75 685 683.75 705 683.75 720 C 683.75 735 668.75 805 612.0782011773514 842.781199215099" fill="none" stroke="#0A0F25" stroke-width="2" marker-end="url(#arrow-triangle)"/>
<path d="M 291.32916583551213 912.0992330029526 C 232.2 951 218 1021 221.601985123916 1057.01985123916" fill="none" stroke="#0A0F25" stroke-width="2" marker-end="url(#arrow-triangle)"/>
<path d="M 490.32760406498033 897.551719012741 C 313.85 948.2 265.4 1021.2 251.41253198493916 1058.2577074684727" fill="none" stroke="#0A0F25" stroke-width="2" marker-end="url(#arrow-triangle)"/>
<path d="M 338.2227043109312 912.9806834933487 C 332.9 951 331.5 971 331.5 986 C 331.5 1001 331.5 1032.8 331.5 1065.5 C 331.5 1098.2 331.5 1141.8 331.5 1174.5 C 331.5 1207.2 331.5 1239 331.5 1254 C 331.5 1269 331.5 1295.6 331.5 1320.5 C 331.5 1345.4 331.5 1378.6 331.5 1403.5 C 331.5 1428.4 331.5 1455 331.5 1470 C 331.5 1485 339 1555.8 366.71841676201865 1595.7145201373069" fill="none" stroke="#0A0F25" stroke-width="2" marker-end="url(#arrow-triangle)"/>
<path d="M 514.4058157036919 912.2077153759909 C 463.2 951 450 971 450 986 C 450 1001 450 1032.8 450 1065.5 C 450 1098.2 450 1141.8 450 1174.5 C 450 1207.2 450 1239 450 1254 C 450 1269 450 1295.6 450 1320.5 C 450 1345.4 450 1378.6 450 1403.5 C 450 1428.4 450 1455 450 1470 C 450 1485 446 1555.2 431.46035011527385 1592.2761072060518" fill="none" stroke="#0A0F25" stroke-width="2" marker-end="url(#arrow-triangle)"/>
<path d="M 412.0819670171328 908.8024318339508 C 507.05 950.4 554.4 1026.2 643.6563260500639 1084.8045855706682" fill="none" stroke="#0A0F25" stroke-width="2" marker-end="url(#arrow-triangle)"/>
<path d="M 616.7131619442 912.0320252675904 C 681.4 951 698 1026.2 698 1083" fill="none" stroke="#0A0F25" stroke-width="2" marker-end="url(#arrow-triangle)"/>
<path d="M 663.5928163670119 1154.4212087190313 C 604.8 1213.8 589.75 1289 589.75 1325" fill="none" stroke="#0A0F25" stroke-width="2" marker-end="url(#arrow-triangle)"/>
<path d="M 716.9629519746843 1154.7529185646947 C 749.4 1213.8 757.75 1289 757.75 1325" fill="none" stroke="#0A0F25" stroke-width="2" marker-end="url(#arrow-triangle)"/>
<path d="M 620.0879294632449 1396.4865882924944 C 654.75 1435 663.75 1455 663.75 1470 C 663.75 1485 675.6 1560.2 720.540647090968 1617.8453869858831" fill="none" stroke="#0A0F25" stroke-width="2" marker-end="url(#arrow-triangle)"/>
<path d="M 757.75 1397 C 757.75 1435 757.75 1455 757.75 1470 C 757.75 1485 756.4 1560.2 751.3538701922205 1617.0156837616653" fill="none" stroke="#0A0F25" stroke-width="2" marker-end="url(#arrow-triangle)"/>
<path d="M 575.7255350312898 1396.8439642112148 C 559.7 1435 555.5 1455 555.5 1470 C 555.5 1485 537.8 1558 470.2238819380463 1607.6321771076496" fill="none" stroke="#0A0F25" stroke-width="2" marker-end="url(#arrow-triangle)"/>
<text x="177" y="46.5" text-anchor="middle" dominant-baseline="alphabetic" font-family="Arial, sans-serif" font-size="24" style="fill: #0A0F25; font-weight: 700">Web Application Architecture</text>
<text x="441" y="92" text-anchor="middle" dominant-baseline="alphabetic" font-family="Arial, sans-serif" font-size="16" style="fill: #0A0F25; font-weight: 700">Users</text>
<text x="440.674" y="239.516" text-anchor="middle" dominant-baseline="alphabetic" font-family="Arial, sans-serif" font-size="16" style="fill: #0A0F25; font-weight: 700">CDN</text>
<text x="441.5" y="400" text-anchor="middle" dominant-baseline="alphabetic" font-family="Arial, sans-serif" font-size="16" style="fill: #0A0F25; font-weight: 700">Load Balancer</text>
<text x="486.5" y="536" text-anchor="middle" dominant-baseline="alphabetic" font-family="Arial, sans-serif" font-size="28" style="fill: #0A0F25">Web Tier</text>
<text x="451" y="802" text-anchor="middle" dominant-baseline="alphabetic" font-family="Arial, sans-serif" font-size="28" style="fill: #0A0F25">Application Tier</text>
<text x="227.5" y="1137.5" text-anchor="middle" dominant-baseline="alphabetic" font-family="Arial, sans-serif" font-size="16" style="fill: #0A0F25; font-weight: 700">Redis Cache</text>
<text x="375" y="1552" text-anchor="middle" dominant-baseline="alphabetic" font-family="Arial, sans-serif" font-size="28" style="fill: #0A0F25">Database Cluster</text>
<text x="686.5" y="1125.5" text-anchor="middle" dominant-baseline="alphabetic" font-family="Arial, sans-serif" font-size="16" style="fill: #0A0F25; font-weight: 700">Message Queue</text>
<text x="674" y="1286" text-anchor="middle" dominant-baseline="alphabetic" font-family="Arial, sans-serif" font-size="28" style="fill: #0A0F25">Background Workers</text>
<text x="748" y="1659.5" text-anchor="middle" dominant-baseline="alphabetic" font-family="Arial, sans-serif" font-size="16" style="fill: #0A0F25; font-weight: 700">Object Storage</text>
<text x="486.5" y="617.5" text-anchor="middle" dominant-baseline="alphabetic" font-family="Arial, sans-serif" font-size="16" style="fill: #0A0F25; font-weight: 700">Web Server 2</text>
<text x="683.5" y="617.5" text-anchor="middle" dominant-baseline="alphabetic" font-family="Arial, sans-serif" font-size="16" style="fill: #0A0F25; font-weight: 700">Web Server 3</text>
<text x="407.5" y="1671.5" text-anchor="middle" dominant-baseline="alphabetic" font-family="Arial, sans-serif" font-size="16" style="fill: #0A0F25; font-weight: 700">Primary DB</text>
<text x="258" y="1910.5" text-anchor="middle" dominant-baseline="alphabetic" font-family="Arial, sans-serif" font-size="16" style="fill: #0A0F25; font-weight: 700">Replica 1</text>
<text x="492" y="1910.5" text-anchor="middle" dominant-baseline="alphabetic" font-family="Arial, sans-serif" font-size="16" style="fill: #0A0F25; font-weight: 700">Replica 2</text>
<text x="289.5" y="617.5" text-anchor="middle" dominant-baseline="alphabetic" font-family="Arial, sans-serif" font-size="16" style="fill: #0A0F25; font-weight: 700">Web Server 1</text>
<text x="342.5" y="883.5" text-anchor="middle" dominant-baseline="alphabetic" font-family="Arial, sans-serif" font-size="16" style="fill: #0A0F25; font-weight: 700">App Server 1</text>
<text x="590" y="1367.5" text-anchor="middle" dominant-baseline="alphabetic" font-family="Arial, sans-serif" font-size="16" style="fill: #0A0F25; font-weight: 700">Worker 1</text>
<text x="758" y="1367.5" text-anchor="middle" dominant-baseline="alphabetic" font-family="Arial, sans-serif" font-size="16" style="fill: #0A0F25; font-weight: 700">Worker 2</text>
<text x="559.5" y="883.5" text-anchor="middle" dominant-baseline="alphabetic" font-family="Arial, sans-serif" font-size="16" style="fill: #0A0F25; font-weight: 700">App Server 2</text>
</g>
</svg>
