<?xml version="1.0" encoding="UTF-8"?>
<svg xmlns="http://www.w3.org/2000/svg" width="1127.75" height="2025" viewBox="-100 -100 1127.75 2025" data-d2-version="0.1.0">
<defs><marker id="arrow-triangle" markerWidth="10" markerHeight="10" refX="10" refY="5" orient="auto" markerUnits="strokeWidth"><path d="M0,0 L10,5 L0,10 Z" fill="#0A0F25"/></marker>
<marker id="arrow-triangle-reverse" markerWidth="10" markerHeight="10" refX="0" refY="5" orient="auto" markerUnits="strokeWidth"><path d="M10,0 L0,5 L10,10 Z" fill="#0A0F25"/></marker>
<marker id="arrow-diamond" markerWidth="10" markerHeight="10" refX="10" refY="5" orient="auto" markerUnits="strokeWidth"><path d="M0,5 L5,0 L10,5 L5,10 Z" fill="#0A0F25"/></marker>
<marker id="arrow-diamond-reverse" markerWidth="10" markerHeight="10" refX="0" refY="5" orient="auto" markerUnits="strokeWidth"><path d="M0,5 L5,0 L10,5 L5,10 Z" fill="#0A0F25"/></marker>
<marker id="arrow-circle" markerWidth="10" markerHeight="10" refX="6" refY="5" orient="auto" markerUnits="strokeWidth"><circle cx="5" cy="5" r="4" fill="#0A0F25"/></marker>
<marker id="arrow-circle-reverse" markerWidth="10" markerHeight="10" refX="4" refY="5" orient="auto" markerUnits="strokeWidth"><circle cx="5" cy="5" r="4" fill="#0A0F25"/></marker>
<marker id="arrow-cf-one" markerWidth="10" markerHeight="10" refX="10" refY="5" orient="auto" markerUnits="strokeWidth"><line x1="10" y1="0" x2="10" y2="10" stroke="#0A0F25" stroke-width="2"/></marker>
<marker id="arrow-cf-one-reverse" markerWidth="10" markerHeight="10" refX="0" refY="5" orient="auto" markerUnits="strokeWidth"><line x1="0" y1="0" x2="0" y2="10" stroke="#0A0F25" stroke-width="2"/></marker>
<marker id="arrow-cf-many" markerWidth="10" markerHeight="10" refX="10" refY="5" orient="auto" markerUnits="strokeWidth"><path d="M0,5 L10,0 M0,5 L10,5 M0,5 L10,10" stroke="#0A0F25" stroke-width="2" fill="none"/></marker>
<marker id="arrow-cf-many-reverse" markerWidth="10" markerHeight="10" refX="0" refY="5" orient="auto" markerUnits="strokeWidth"><path d="M10,5 L0,0 M10,5 L0,5 M10,5 L0,10" stroke="#0A0F25" stroke-width="2" fill="none"/></marker>
<marker id="arrow-cf-one-required" markerWidth="10" markerHeight="10" refX="10" refY="5" orient="auto" markerUnits="strokeWidth"><line x1="10" y1="0" x2="10" y2="10" stroke="#0A0F25" stroke-width="2"/><line x1="7" y1="0" x2="7" y2="10" stroke="#0A0F25" stroke-width="2"/></marker>
<marker id="arrow-cf-one-required-reverse" markerWidth="10" markerHeight="10" refX="0" refY="5" orient="auto" markerUnits="strokeWidth"><line x1="0" y1="0" x2="0" y2="10" stroke="#0A0F25" stroke-width="2"/><line x1="3" y1="0" x2="3" y2="10" stroke="#0A0F25" stroke-width="2"/></marker>
<marker id="arrow-cf-many-required" markerWidth="10" markerHeight="10" refX="10" refY="5" orient="auto" markerUnits="strokeWidth"><path d="M0,5 L10,0 M0,5 L10,5 M0,5 L10,10" stroke="#0A0F25" stroke-width="2" fill="none"/><line x1="3" y1="0" x2="3" y2="10" stroke="#0A0F25" stroke-width="2"/></marker>
<marker id="arrow-cf-many-required-reverse" markerWidth="10" markerHeight="10" refX="0" refY="5" orient="auto" markerUnits="strokeWidth"><path d="M10,5 L0,0 M10,5 L0,5 M10,5 L0,10" stroke="#0A0F25" stroke-width="2" fill="none"/><line x1="7" y1="0" x2="7" y2="10" stroke="#0A0F25" stroke-width="2"/></marker>
<marker id="arrow-cf-one-optional" markerWidth="10" markerHeight="10" refX="10" refY="5" orient="auto" markerUnits="strokeWidth"><line x1="10" y1="0" x2="10" y2="10" stroke="#0A0F25" stroke-width="2"/><circle cx="7" cy="5" r="2" stroke="#0A0F25" stroke-width="2" fill="white"/></marker>
<marker id="arrow-cf-one-optional-reverse" markerWidth="10" markerHeight="10" refX="0" refY="5" orient="auto" markerUnits="strokeWidth"><line x1="0" y1="0" x2="0" y2="10" stroke="#0A0F25" stroke-width="2"/><circle cx="3" cy="5" r="2" stroke="#0A0F25" stroke-width="2" fill="white"/></marker>
<marker id="arrow-cf-many-optional" markerWidth="10" markerHeight="10" refX="10" refY="5" orient="auto" markerUnits="strokeWidth"><path d="M0,5 L10,0 M0,5 L10,5 M0,5 L10,10" stroke="#0A0F25" stroke-width="2" fill="none"/><circle cx="3" cy="5" r="2" stroke="#0A0F25" stroke-width="2" fill="white"/></marker>
<marker id="arrow-cf-many-optional-reverse" markerWidth="10" markerHeight="10" refX="0" refY="5" orient="auto" markerUnits="strokeWidth"><path d="M10,5 L0,0 M10,5 L0,5 M10,5 L0,10" stroke="#0A0F25" stroke-width="2" fill="none"/><circle cx="7" cy="5" r="2" stroke="#0A0F25" stroke-width="2" fill="white"/></marker>
<marker id="arrow-line" markerWidth="10" markerHeight="10" refX="10" refY="5" orient="auto" markerUnits="strokeWidth"><line x1="10" y1="0" x2="10" y2="10" stroke="#0A0F25" stroke-width="2"/></marker>
<marker id="arrow-line-reverse" markerWidth="10" markerHeight="10" refX="0" refY="5" orient="auto" markerUnits="strokeWidth"><line x1="0" y1="0" x2="0" y2="10" stroke="#0A0F25" stroke-width="2"/></marker>
<marker id="arrow-open" markerWidth="10" markerHeight="10" refX="10" refY="5" orient="auto" markerUnits="strokeWidth"><path d="M0,0 L10,5 L0,10" stroke="#0A0F25" stroke-width="2" fill="none"/></marker>
<marker id="arrow-open-reverse" markerWidth="10" markerHeight="10" refX="0" refY="5" orient="auto" markerUnits="strokeWidth"><path d="M10,0 L0,5 L10,10" stroke="#0A0F25" stroke-width="2" fill="none"/></marker>
<marker id="arrow" markerWidth="10" markerHeight="10" refX="10" refY="5" orient="auto" markerUnits="strokeWidth"><path d="M0,0 L10,5 L0,10 Z" fill="#0A0F25"/></marker>
<marker id="arrow-reverse" markerWidth="10" markerHeight="10" refX="0" refY="5" orient="auto" markerUnits="strokeWidth"><path d="M10,0 L0,5 L10,10 Z" fill="#0A0F25"/></marker>
</defs>
<rect width="100%" height="100%" fill="#FFFFFF"/>
<g id="base-layer">
<rect x="0" y="0" width="359" height="76" fill="#FFFFFF" stroke="#0A0F25" stroke-width="2" rx="0" ry="0"/>
<path d="M 496 71 H 409 v -0.937984496124031 c 0 -11.25581395348837 9.553440702781845 -21.4031007751938 24.584187408491946 -26.26356589147287 C 425.30453879941433 39.87596899224806 420.33674963396777 33.48062015503876 420.33674963396777 26.488372093023255 C 420.33674963396777 14.635658914728682 434.7306002928258 5 452.43631039531476 5 c 17.705710102489018 0 32.099560761347 9.635658914728682 32.099560761347 21.488372093023255 c 0 6.992248062015503 -4.840409956076134 13.302325581395348 -13.247437774524158 17.3953488372093 c 15.030746705710103 4.8604651162790695 24.584187408491946 15.007751937984496 24.584187408491946 26.26356589147287 v 0.8527131782945736 Z" fill="#FFFFFF" stroke="#0A0F25" stroke-width="2"/>
<path d="M 426.3908561151079 199.0726156787763 C 426.3908561151079 199.7737552581262 425.8712302158273 200.47476864244743 425.3516978417266 200.47476864244743 C 418.7270287769784 201.35106692160613 413.53114388489206 210.289965583174 413.53114388489206 221.15674569789675 C 413.53114388489206 232.7246653919694 419.37646762589924 242.01400764818356 426.7805755395683 242.01400764818356 H 477.05035971223015 C 484.9740935251798 242.01400764818356 491.4688561151078 232.0235258126195 491.4688561151078 219.9298776290631 C 491.4688561151078 208.36195793499044 485.49353237410065 198.72204588910134 477.9597050359711 198.02103250478012 C 477.44007913669054 198.02103250478012 476.9205467625898 197.49517782026768 476.7906402877697 196.61887954110898 C 475.10194964028767 184.87580114722752 467.30812230215815 176.11218738049712 458.2155107913668 176.11218738049712 C 452.24028057553943 176.11218738049712 446.914489208633 179.79291778202676 443.53729496402866 185.57681453154873 C 443.1475755395682 186.27795411089863 442.49813669064736 186.45323900573612 442.10841726618696 186.27795411089863 C 440.8094460431654 185.57681453154873 439.3806618705035 185.22637093690247 437.8218776978416 185.22637093690247 C 431.84655395683455 185.05095984703632 426.9104820143885 191.18542638623327 426.3908561151079 199.0726156787763 Z" fill="#e3f2fd" stroke="#0A0F25" stroke-width="2"/>
<polygon points="416,342 489,342 525.5,375 489,408 416,408 379.5,375" fill="#fff3e0" stroke="#0A0F25" stroke-width="2"/>
<rect x="237" y="508" width="601" height="166" fill="#e8f5e9" stroke="#0A0F25" stroke-width="2" rx="0" ry="0"/>
<rect x="127.5" y="774" width="712.75" height="166" fill="#f3e5f5" stroke="#0A0F25" stroke-width="2" rx="0" ry="0"/>
<path d="M 162.5 1064 C 162.5 1040 221 1040 227.5 1040 C 234 1040 292.5 1040 292.5 1064 L 292.5 1082 C 292.5 1106 234 1106 227.5 1106 C 221 1106 162.5 1106 162.5 1082 L 162.5 1064 Z" fill="#ffebee" stroke="#0A0F25" stroke-width="2"/>
<ellipse cx="227.5" cy="1064" rx="65" ry="24" fill="none" stroke="none" stroke-width="0"/>
<path d="M 162.5 1064 C 162.5 1088 221 1088 227.5 1088 C 234 1088 292.5 1088 292.5 1064" fill="none" stroke="#0A0F25" stroke-width="2"/>
<rect x="174" y="1472" width="473.75" height="353" fill="#fff8e1" stroke="#0A0F25" stroke-width="2" rx="0" ry="0"/>
<path d="M 702.25 1040 L 826.25 1040 C 834.5 1040 841.25 1056.5 841.25 1073 C 841.25 1089.5 834.5 1106 826.25 1106 L 702.25 1106 C 694 1106 687.25 1089.5 687.25 1073 C 687.25 1056.5 694 1040 702.25 1040 Z" fill="#e0f2f1" stroke="#0A0F25" stroke-width="2"/>
<rect x="511" y="1206" width="416.75" height="166" fill="#fce4ec" stroke="#0A0F25" stroke-width="2" rx="0" ry="0"/>
<path d="M 747.75 1522 L 867.75 1522 C 878.7 1522 882.75 1538.5 882.75 1555 C 882.75 1571.5 878.7 1588 867.75 1588 L 747.75 1588 C 736.8 1588 732.75 1571.5 732.75 1555 C 732.75 1538.5 736.8 1522 747.75 1522 Z" fill="#f5f5f5" stroke="#0A0F25" stroke-width="2"/>
<rect x="656" y="558" width="137" height="66" fill="#FFFFFF" stroke="#0A0F25" stroke-width="2" rx="0" ry="0"/>
<path d="M 368.75 1546 C 368.75 1522 424.55 1522 430.75 1522 C 436.95 1522 492.75 1522 492.75 1546 L 492.75 1564 C 492.75 1588 436.95 1588 430.75 1588 C 424.55 1588 368.75 1588 368.75 1564 L 368.75 1546 Z" fill="#FFFFFF" stroke="#0A0F25" stroke-width="2"/>
<ellipse cx="430.75" cy="1546" rx="62" ry="24" fill="none" stroke="none" stroke-width="0"/>
<path d="M 368.75 1546 C 368.75 1570 424.55 1570 430.75 1570 C 436.95 1570 492.75 1570 492.75 1546" fill="none" stroke="#0A0F25" stroke-width="2"/>
<path d="M 222.5 1733 C 222.5 1709 272 1709 277.5 1709 C 283 1709 332.5 1709 332.5 1733 L 332.5 1751 C 332.5 1775 283 1775 277.5 1775 C 272 1775 222.5 1775 222.5 1751 L 222.5 1733 Z" fill="#FFFFFF" stroke="#0A0F25" stroke-width="2"/>
<ellipse cx="277.5" cy="1733" rx="55" ry="24" fill="none" stroke="none" stroke-width="0"/>
<path d="M 222.5 1733 C 222.5 1757 272 1757 277.5 1757 C 283 1757 332.5 1757 332.5 1733" fill="none" stroke="#0A0F25" stroke-width="2"/>
<path d="M 489.25 1733 C 489.25 1709 538.75 1709 544.25 1709 C 549.75 1709 599.25 1709 599.25 1733 L 599.25 1751 C 599.25 1775 549.75 1775 544.25 1775 C 538.75 1775 489.25 1775 489.25 1751 L 489.25 1733 Z" fill="#FFFFFF" stroke="#0A0F25" stroke-width="2"/>
<ellipse cx="544.25" cy="1733" rx="55" ry="24" fill="none" stroke="none" stroke-width="0"/>
<path d="M 489.25 1733 C 489.25 1757 538.75 1757 544.25 1757 C 549.75 1757 599.25 1757 599.25 1733" fill="none" stroke="#0A0F25" stroke-width="2"/>
<rect x="282" y="558" width="137" height="66" fill="#FFFFFF" stroke="#0A0F25" stroke-width="2" rx="0" ry="0"/>
<rect x="292" y="824" width="134" height="66" fill="#FFFFFF" stroke="#0A0F25" stroke-width="2" rx="0" ry="0"/>
<rect x="592.75" y="1256" width="110" height="66" fill="#FFFFFF" stroke="#0A0F25" stroke-width="2" rx="0" ry="0"/>
<rect x="772.75" y="1256" width="110" height="66" fill="#FFFFFF" stroke="#0A0F25" stroke-width="2" rx="0" ry="0"/>
<rect x="519" y="824" width="134" height="66" fill="#FFFFFF" stroke="#0A0F25" stroke-width="2" rx="0" ry="0"/>
<rect x="469" y="558" width="137" height="66" fill="#FFFFFF" stroke="#0A0F25" stroke-width="2" rx="0" ry="0"/>
<path d="M 452.5 71 C 452.5 113 452.5 134 452.5 176" fill="none" stroke="#0A0F25" stroke-width="2" marker-end="url(#arrow-triangle)"/>
<path d="M 452.5 242 C 452.5 282 452.5 302 452.5 342" fill="none" stroke="#0A0F25" stroke-width="2" marker-end="url(#arrow-triangle)"/>
<path d="M 411.9457831325301 408 C 390.4700641942976 425.4753399203264 379.7322047251814 434.21300988048966 358.25648578694893 451.68834980081607 C 358.25648578694893 451.68834980081607 350.5 458 350.5 468 C 350.5 504 350.5 522 350.5 558" fill="none" stroke="#0A0F25" stroke-width="2" marker-end="url(#arrow-triangle)"/>
<path d="M 486.2951807228916 408 C 503.9152123490777 425.20544264674646 512.7252281621708 433.80816397011967 530.3452597883569 451.0136066168661 C 530.3452597883569 451.0136066168661 537.5 458 537.5 468 C 537.5 504 537.5 522 537.5 558" fill="none" stroke="#0A0F25" stroke-width="2" marker-end="url(#arrow-triangle)"/>
<path d="M 525.5 397.2757352941176 C 601.2741572246725 420.3979965060581 639.1612358370087 431.9591271120284 714.9353930616812 455.0813883239689 C 714.9353930616812 455.0813883239689 724.5 458 724.5 468 C 724.5 504 724.5 522 724.5 558" fill="none" stroke="#0A0F25" stroke-width="2" marker-end="url(#arrow-triangle)"/>
<path d="M 350.5 624 C 350.5 680 350.5 708 350.5 764 C 350.5 764 350.5 774 351.5187680355651 783.9479702296353 C 353.1594535924234 799.9687821377812 353.9797963708525 807.9791880918541 355.62048192771084 824" fill="none" stroke="#0A0F25" stroke-width="2" marker-end="url(#arrow-triangle)"/>
<path d="M 511.06024096385545 624 C 497.5372173948717 640.8783602439947 490.7757056103798 649.3175403659922 477.25268204139604 666.1959006099869 C 477.25268204139604 666.1959006099869 471 674 471 684 C 471 716 471 732 471 764 C 471 764 471 774 462.9656990172653 779.953990906848 C 439.19146760313026 797.5723945441089 427.30435189606277 806.3815963627392 403.5301204819277 824" fill="none" stroke="#0A0F25" stroke-width="2" marker-end="url(#arrow-triangle)"/>
<path d="M 545.4518072289156 624 C 549.3340489080289 640.1113029683198 551.2751697475854 648.1669544524798 555.1574114266987 664.2782574207996 C 555.1574114266987 664.2782574207996 557.5 674 557.5 684 C 557.5 716 557.5 732 557.5 764 C 557.5 764 557.5 774 560.7476128348592 783.4579601857303 C 566.3160375804335 799.6747761114382 569.1002499532208 807.7831840742921 574.6686746987951 824" fill="none" stroke="#0A0F25" stroke-width="2" marker-end="url(#arrow-triangle)"/>
<path d="M 724.5 624 C 724.5 680 724.5 708 724.5 764 C 724.5 764 724.5 774 715.9223396329986 779.1404029636182 C 685.9799098038956 797.0842417781708 671.008694889344 806.0561611854473 641.066265060241 824" fill="none" stroke="#0A0F25" stroke-width="2" marker-end="url(#arrow-triangle)"/>
<path d="M 298.76506024096386 890 C 265.76707276758435 908.0781053484521 249.26807903089463 917.1171580226782 216.27009155751512 935.1952633711303 C 216.27009155751512 935.1952633711303 207.5 940 207.5 950 C 207.5 962 207.5 968 207.5 980 C 207.5 980 207.5 990 209.8425885733013 999.7217425792004 C 213.7248302524145 1015.8330455475202 215.66595109197112 1023.8886970316802 219.54819277108433 1040" fill="none" stroke="#0A0F25" stroke-width="2" marker-end="url(#arrow-triangle)"/>
<path d="M 519 874.1901081916537 C 420.27450765031483 899.5199872180026 370.9117614754722 912.1849267311771 272.186269125787 937.514805757526 C 272.186269125787 937.514805757526 262.5 940 262.5 950 C 262.5 962 262.5 968 262.5 980 C 262.5 980 262.5 990 258.61446752900076 999.2142627169411 C 251.7349455776414 1015.5285576301646 248.29518460196175 1023.6857050867765 241.4156626506024 1040" fill="none" stroke="#0A0F25" stroke-width="2" marker-end="url(#arrow-triangle)"/>
<path d="M 350.45180722891564 890 C 346.27412341939055 906.1278026135154 344.18528151462806 914.1917039202731 340.00759770510297 930.3195065337885 C 340.00759770510297 930.3195065337885 337.5 940 337.5 950 C 337.5 1154.8 337.5 1257.2 337.5 1462 C 337.5 1462 337.5 1472 344.9696720174399 1478.6486088734318 C 364.45168272853624 1495.989165324059 374.1926880840844 1504.6594435493728 393.67469879518075 1522" fill="none" stroke="#0A0F25" stroke-width="2" marker-end="url(#arrow-triangle)"/>
<path d="M 540.277108433735 890 C 515.8097255264657 907.6590676635074 503.57603407283113 916.488601495261 479.1086511655619 934.1476691587684 C 479.1086511655619 934.1476691587684 471 940 471 950 C 471 1154.8 471 1257.2 471 1462 C 471 1462 471 1472 466.6365999939368 1480.9978186460435 C 458.6831648156392 1497.3986911876261 454.70644722649035 1505.5991274584173 446.7530120481928 1522" fill="none" stroke="#0A0F25" stroke-width="2" marker-end="url(#arrow-triangle)"/>
<path d="M 426 884.5297029702971 C 476.3001506569396 905.1975866560692 501.4502259854094 915.5315284989554 551.750376642349 936.1994121847275 C 551.750376642349 936.1994121847275 561 940 561 950 C 561 962 561 968 561 980 C 561 980 561 990 570.2578258326978 993.7805635626761 C 617.0546954996187 1012.8907243614678 640.4531303330791 1022.4458047608638 687.25 1041.5559655596555" fill="none" stroke="#0A0F25" stroke-width="2" marker-end="url(#arrow-triangle)"/>
<path d="M 653 888.1977559607293 C 693.873839518557 907.2301749230868 714.3107592778355 916.7463844042657 755.1845987963925 935.7788033666232 C 755.1845987963925 935.7788033666232 764.25 940 764.25 950 C 764.25 986 764.25 1004 764.25 1040" fill="none" stroke="#0A0F25" stroke-width="2" marker-end="url(#arrow-triangle)"/>
<path d="M 717.9307228915662 1106 C 693.1161993554111 1123.679016768248 680.7089375873336 1132.5185251523717 655.8944140511785 1150.1975419206196 C 655.8944140511785 1150.1975419206196 647.75 1156 647.75 1166 C 647.75 1202 647.75 1220 647.75 1256" fill="none" stroke="#0A0F25" stroke-width="2" marker-end="url(#arrow-triangle)"/>
<path d="M 789.4969879518072 1106 C 802.3676820435409 1122.8231119624236 808.8030290894078 1131.2346679436353 821.6737231811414 1148.0577799060588 C 821.6737231811414 1148.0577799060588 827.75 1156 827.75 1166 C 827.75 1202 827.75 1220 827.75 1256" fill="none" stroke="#0A0F25" stroke-width="2" marker-end="url(#arrow-triangle)"/>
<path d="M 679.5572289156627 1322 C 696.0584372808688 1339.1200036789014 704.3090414634718 1347.680005518352 720.8102498286779 1364.8000091972533 C 720.8102498286779 1364.8000091972533 727.75 1372 727.75 1382 C 727.75 1414 727.75 1430 727.75 1462 C 727.75 1462 727.75 1472 734.6897501713221 1479.1999908027467 C 751.1909585365282 1496.319994481648 759.4415627191312 1504.8799963210986 775.9427710843373 1522" fill="none" stroke="#0A0F25" stroke-width="2" marker-end="url(#arrow-triangle)"/>
<path d="M 827.75 1322 C 827.75 1378 827.75 1406 827.75 1462 C 827.75 1462 827.75 1472 825.4074114266987 1481.7217425792005 C 821.5251697475854 1497.8330455475202 819.5840489080289 1505.8886970316803 815.7018072289156 1522" fill="none" stroke="#0A0F25" stroke-width="2" marker-end="url(#arrow-triangle)"/>
<path d="M 629.1626506024096 1322 C 619.8606285956755 1338.5148198194424 615.2096175923085 1346.7722297291634 605.9075955855744 1363.2870495486059 C 605.9075955855744 1363.2870495486059 601 1372 601 1382 C 601 1414 601 1430 601 1462 C 601 1462 601 1472 592.0113009442168 1476.3821557804993 C 552.30678056653 1495.7388382553775 532.4545203776868 1505.4171794928163 492.75 1524.7738619676945" fill="none" stroke="#0A0F25" stroke-width="2" marker-end="url(#arrow-triangle)"/>
<path d="M 376.6617647058824 1588 C 340.4116999000565 1610.1166790169314 322.28666749714347 1621.1750185253968 286.03660269131757 1643.2916975423282 C 286.03660269131757 1643.2916975423282 277.5 1648.5 277.5 1658.5 C 277.5 1678.7 277.5 1688.8 277.5 1709" fill="none" stroke="#0A0F25" stroke-width="2" marker-end="url(#arrow-triangle)"/>
<rect x="260" y="1638" width="35" height="21" fill="#FFFFFF" stroke="none" stroke-width="1" rx="3" ry="3"/>
<text x="277.5" y="1654" text-anchor="middle" dominant-baseline="alphabetic" font-family="Arial, sans-serif" font-size="16" style="fill: #676C7E; font-style: italic">sync</text>
<path d="M 470.80882352941177 1588 C 497.09796580561607 1609.6566942980185 510.24253694371816 1620.4850414470277 536.5316792199225 1642.1417357450462 C 536.5316792199225 1642.1417357450462 544.25 1648.5 544.25 1658.5 C 544.25 1678.7 544.25 1688.8 544.25 1709" fill="none" stroke="#0A0F25" stroke-width="2" marker-end="url(#arrow-triangle)"/>
<rect x="526.75" y="1638" width="35" height="21" fill="#FFFFFF" stroke="none" stroke-width="1" rx="3" ry="3"/>
<text x="544.25" y="1654" text-anchor="middle" dominant-baseline="alphabetic" font-family="Arial, sans-serif" font-size="16" style="fill: #676C7E; font-style: italic">sync</text>
<text x="179.5" y="46.16" text-anchor="middle" dominant-baseline="alphabetic" font-family="Arial, sans-serif" font-size="24" style="fill: #0A0F25">Web Application Architecture</text>
<text x="452.5" y="43.44" text-anchor="middle" dominant-baseline="alphabetic" font-family="Arial, sans-serif" font-size="16" style="fill: #0A0F25">Users</text>
<text x="452.5" y="214.44" text-anchor="middle" dominant-baseline="alphabetic" font-family="Arial, sans-serif" font-size="16" style="fill: #0A0F25">CDN</text>
<text x="452.5" y="380.44" text-anchor="middle" dominant-baseline="alphabetic" font-family="Arial, sans-serif" font-size="16" style="fill: #0A0F25">Load Balancer</text>
<text x="537.5" y="528.94" text-anchor="middle" dominant-baseline="alphabetic" font-family="Arial, sans-serif" font-size="16" style="fill: #0A0F25">Web Tier</text>
<text x="483.875" y="794.94" text-anchor="middle" dominant-baseline="alphabetic" font-family="Arial, sans-serif" font-size="16" style="fill: #0A0F25">Application Tier</text>
<text x="227.5" y="1078.44" text-anchor="middle" dominant-baseline="alphabetic" font-family="Arial, sans-serif" font-size="16" style="fill: #0A0F25">Redis Cache</text>
<text x="410.875" y="1492.94" text-anchor="middle" dominant-baseline="alphabetic" font-family="Arial, sans-serif" font-size="16" style="fill: #0A0F25">Database Cluster</text>
<text x="764.25" y="1078.44" text-anchor="middle" dominant-baseline="alphabetic" font-family="Arial, sans-serif" font-size="16" style="fill: #0A0F25">Message Queue</text>
<text x="719.375" y="1226.94" text-anchor="middle" dominant-baseline="alphabetic" font-family="Arial, sans-serif" font-size="16" style="fill: #0A0F25">Background Workers</text>
<text x="807.75" y="1560.44" text-anchor="middle" dominant-baseline="alphabetic" font-family="Arial, sans-serif" font-size="16" style="fill: #0A0F25">Object Storage</text>
<text x="724.5" y="596.44" text-anchor="middle" dominant-baseline="alphabetic" font-family="Arial, sans-serif" font-size="16" style="fill: #0A0F25">Web Server 3</text>
<text x="430.75" y="1560.44" text-anchor="middle" dominant-baseline="alphabetic" font-family="Arial, sans-serif" font-size="16" style="fill: #0A0F25">Primary DB</text>
<text x="277.5" y="1747.44" text-anchor="middle" dominant-baseline="alphabetic" font-family="Arial, sans-serif" font-size="16" style="fill: #0A0F25">Replica 1</text>
<text x="544.25" y="1747.44" text-anchor="middle" dominant-baseline="alphabetic" font-family="Arial, sans-serif" font-size="16" style="fill: #0A0F25">Replica 2</text>
<text x="350.5" y="596.44" text-anchor="middle" dominant-baseline="alphabetic" font-family="Arial, sans-serif" font-size="16" style="fill: #0A0F25">Web Server 1</text>
<text x="359" y="862.44" text-anchor="middle" dominant-baseline="alphabetic" font-family="Arial, sans-serif" font-size="16" style="fill: #0A0F25">App Server 1</text>
<text x="647.75" y="1294.44" text-anchor="middle" dominant-baseline="alphabetic" font-family="Arial, sans-serif" font-size="16" style="fill: #0A0F25">Worker 1</text>
<text x="827.75" y="1294.44" text-anchor="middle" dominant-baseline="alphabetic" font-family="Arial, sans-serif" font-size="16" style="fill: #0A0F25">Worker 2</text>
<text x="586" y="862.44" text-anchor="middle" dominant-baseline="alphabetic" font-family="Arial, sans-serif" font-size="16" style="fill: #0A0F25">App Server 2</text>
<text x="537.5" y="596.44" text-anchor="middle" dominant-baseline="alphabetic" font-family="Arial, sans-serif" font-size="16" style="fill: #0A0F25">Web Server 2</text>
</g>
</svg>
