<?xml version="1.0" encoding="UTF-8"?>
<svg xmlns="http://www.w3.org/2000/svg" width="1241" height="962" viewBox="-100 -100 1241 962" data-d2-version="0.1.0">
<defs><marker id="arrow-triangle" markerWidth="10" markerHeight="10" refX="10" refY="5" orient="auto" markerUnits="strokeWidth"><path d="M0,0 L10,5 L0,10 Z" fill="#0A0F25"/></marker>
<marker id="arrow-triangle-reverse" markerWidth="10" markerHeight="10" refX="0" refY="5" orient="auto" markerUnits="strokeWidth"><path d="M10,0 L0,5 L10,10 Z" fill="#0A0F25"/></marker>
<marker id="arrow-diamond" markerWidth="10" markerHeight="10" refX="10" refY="5" orient="auto" markerUnits="strokeWidth"><path d="M0,5 L5,0 L10,5 L5,10 Z" fill="#0A0F25"/></marker>
<marker id="arrow-diamond-reverse" markerWidth="10" markerHeight="10" refX="0" refY="5" orient="auto" markerUnits="strokeWidth"><path d="M0,5 L5,0 L10,5 L5,10 Z" fill="#0A0F25"/></marker>
<marker id="arrow-circle" markerWidth="10" markerHeight="10" refX="6" refY="5" orient="auto" markerUnits="strokeWidth"><circle cx="5" cy="5" r="4" fill="#0A0F25"/></marker>
<marker id="arrow-circle-reverse" markerWidth="10" markerHeight="10" refX="4" refY="5" orient="auto" markerUnits="strokeWidth"><circle cx="5" cy="5" r="4" fill="#0A0F25"/></marker>
<marker id="arrow-cf-one" markerWidth="10" markerHeight="10" refX="10" refY="5" orient="auto" markerUnits="strokeWidth"><line x1="10" y1="0" x2="10" y2="10" stroke="#0A0F25" stroke-width="2"/></marker>
<marker id="arrow-cf-one-reverse" markerWidth="10" markerHeight="10" refX="0" refY="5" orient="auto" markerUnits="strokeWidth"><line x1="0" y1="0" x2="0" y2="10" stroke="#0A0F25" stroke-width="2"/></marker>
<marker id="arrow-cf-many" markerWidth="10" markerHeight="10" refX="10" refY="5" orient="auto" markerUnits="strokeWidth"><path d="M0,5 L10,0 M0,5 L10,5 M0,5 L10,10" stroke="#0A0F25" stroke-width="2" fill="none"/></marker>
<marker id="arrow-cf-many-reverse" markerWidth="10" markerHeight="10" refX="0" refY="5" orient="auto" markerUnits="strokeWidth"><path d="M10,5 L0,0 M10,5 L0,5 M10,5 L0,10" stroke="#0A0F25" stroke-width="2" fill="none"/></marker>
<marker id="arrow-cf-one-required" markerWidth="10" markerHeight="10" refX="10" refY="5" orient="auto" markerUnits="strokeWidth"><line x1="10" y1="0" x2="10" y2="10" stroke="#0A0F25" stroke-width="2"/><line x1="7" y1="0" x2="7" y2="10" stroke="#0A0F25" stroke-width="2"/></marker>
<marker id="arrow-cf-one-required-reverse" markerWidth="10" markerHeight="10" refX="0" refY="5" orient="auto" markerUnits="strokeWidth"><line x1="0" y1="0" x2="0" y2="10" stroke="#0A0F25" stroke-width="2"/><line x1="3" y1="0" x2="3" y2="10" stroke="#0A0F25" stroke-width="2"/></marker>
<marker id="arrow-cf-many-required" markerWidth="10" markerHeight="10" refX="10" refY="5" orient="auto" markerUnits="strokeWidth"><path d="M0,5 L10,0 M0,5 L10,5 M0,5 L10,10" stroke="#0A0F25" stroke-width="2" fill="none"/><line x1="3" y1="0" x2="3" y2="10" stroke="#0A0F25" stroke-width="2"/></marker>
<marker id="arrow-cf-many-required-reverse" markerWidth="10" markerHeight="10" refX="0" refY="5" orient="auto" markerUnits="strokeWidth"><path d="M10,5 L0,0 M10,5 L0,5 M10,5 L0,10" stroke="#0A0F25" stroke-width="2" fill="none"/><line x1="7" y1="0" x2="7" y2="10" stroke="#0A0F25" stroke-width="2"/></marker>
<marker id="arrow-cf-one-optional" markerWidth="10" markerHeight="10" refX="10" refY="5" orient="auto" markerUnits="strokeWidth"><line x1="10" y1="0" x2="10" y2="10" stroke="#0A0F25" stroke-width="2"/><circle cx="7" cy="5" r="2" stroke="#0A0F25" stroke-width="2" fill="white"/></marker>
<marker id="arrow-cf-one-optional-reverse" markerWidth="10" markerHeight="10" refX="0" refY="5" orient="auto" markerUnits="strokeWidth"><line x1="0" y1="0" x2="0" y2="10" stroke="#0A0F25" stroke-width="2"/><circle cx="3" cy="5" r="2" stroke="#0A0F25" stroke-width="2" fill="white"/></marker>
<marker id="arrow-cf-many-optional" markerWidth="10" markerHeight="10" refX="10" refY="5" orient="auto" markerUnits="strokeWidth"><path d="M0,5 L10,0 M0,5 L10,5 M0,5 L10,10" stroke="#0A0F25" stroke-width="2" fill="none"/><circle cx="3" cy="5" r="2" stroke="#0A0F25" stroke-width="2" fill="white"/></marker>
<marker id="arrow-cf-many-optional-reverse" markerWidth="10" markerHeight="10" refX="0" refY="5" orient="auto" markerUnits="strokeWidth"><path d="M10,5 L0,0 M10,5 L0,5 M10,5 L0,10" stroke="#0A0F25" stroke-width="2" fill="none"/><circle cx="7" cy="5" r="2" stroke="#0A0F25" stroke-width="2" fill="white"/></marker>
<marker id="arrow-line" markerWidth="10" markerHeight="10" refX="10" refY="5" orient="auto" markerUnits="strokeWidth"><line x1="10" y1="0" x2="10" y2="10" stroke="#0A0F25" stroke-width="2"/></marker>
<marker id="arrow-line-reverse" markerWidth="10" markerHeight="10" refX="0" refY="5" orient="auto" markerUnits="strokeWidth"><line x1="0" y1="0" x2="0" y2="10" stroke="#0A0F25" stroke-width="2"/></marker>
<marker id="arrow-open" markerWidth="10" markerHeight="10" refX="10" refY="5" orient="auto" markerUnits="strokeWidth"><path d="M0,0 L10,5 L0,10" stroke="#0A0F25" stroke-width="2" fill="none"/></marker>
<marker id="arrow-open-reverse" markerWidth="10" markerHeight="10" refX="0" refY="5" orient="auto" markerUnits="strokeWidth"><path d="M10,0 L0,5 L10,10" stroke="#0A0F25" stroke-width="2" fill="none"/></marker>
<marker id="arrow" markerWidth="10" markerHeight="10" refX="10" refY="5" orient="auto" markerUnits="strokeWidth"><path d="M0,0 L10,5 L0,10 Z" fill="#0A0F25"/></marker>
<marker id="arrow-reverse" markerWidth="10" markerHeight="10" refX="0" refY="5" orient="auto" markerUnits="strokeWidth"><path d="M10,0 L0,5 L10,10 Z" fill="#0A0F25"/></marker>
</defs>
<rect width="100%" height="100%" fill="#FFFFFF"/>
<g id="base-layer">
<path d="M 316 66 H 200 v -0.937984496124031 c 0 -11.25581395348837 12.73792093704246 -21.4031007751938 32.778916544655935 -26.26356589147287 C 221.7393850658858 34.87596899224806 215.1156661786237 28.480620155038757 215.1156661786237 21.488372093023255 C 215.1156661786237 9.635658914728682 234.307467057101 0 257.9150805270864 0 c 23.60761346998536 0 42.79941434846266 9.635658914728682 42.79941434846266 21.488372093023255 c 0 6.992248062015503 -6.453879941434846 13.302325581395348 -17.663250366032212 17.3953488372093 c 20.04099560761347 4.8604651162790695 32.778916544655935 15.007751937984496 32.778916544655935 26.26356589147287 v 0.8527131782945736 Z" fill="#FFFFFF" stroke="#0A0F25" stroke-width="2"/>
<rect x="0" y="182" width="552" height="580" fill="#FFFFFF" stroke="#0A0F25" stroke-width="2" rx="0" ry="0"/>
<rect x="592" y="596" width="449" height="166" fill="#FFFFFF" stroke="#0A0F25" stroke-width="2" rx="0" ry="0"/>
<path d="M 45 670 C 45 646 95.4 646 101 646 C 106.6 646 157 646 157 670 L 157 688 C 157 712 106.6 712 101 712 C 95.4 712 45 712 45 688 L 45 670 Z" fill="#438DD5" stroke="#0A0F25" stroke-width="2"/>
<ellipse cx="101" cy="670" rx="56" ry="24" fill="none" stroke="none" stroke-width="0"/>
<path d="M 45 670 C 45 694 95.4 694 101 694 C 106.6 694 157 694 157 670" fill="none" stroke="#0A0F25" stroke-width="2"/>
<rect x="178.5" y="232" width="159" height="66" fill="#438DD5" stroke="#0A0F25" stroke-width="2" rx="0" ry="0"/>
<rect x="637" y="646" width="170" height="66" fill="#999999" stroke="#0A0F25" stroke-width="2" rx="0" ry="0"/>
<rect x="857" y="646" width="139" height="66" fill="#999999" stroke="#0A0F25" stroke-width="2" rx="0" ry="0"/>
<rect x="191" y="414" width="134" height="66" fill="#438DD5" stroke="#0A0F25" stroke-width="2" rx="0" ry="0"/>
<path d="M 258 66 C 258 132.4 258 165.6 258 232" fill="none" stroke="#0A0F25" stroke-width="2" marker-end="url(#arrow-triangle)"/>
<rect x="227.5" y="116" width="61" height="16" fill="#FFFFFF" stroke="none" stroke-width="1" rx="3" ry="3"/>
<text x="258" y="132" text-anchor="middle" dominant-baseline="alphabetic" font-family="Arial, sans-serif" font-size="14" style="fill: #0A0F25">browses</text>
<path d="M 258 298 C 258 344.4 258 367.6 258 414" fill="none" stroke="#0A0F25" stroke-width="2" marker-end="url(#arrow-triangle)"/>
<rect x="234.5" y="348" width="47" height="16" fill="#FFFFFF" stroke="none" stroke-width="1" rx="3" ry="3"/>
<text x="258" y="364" text-anchor="middle" dominant-baseline="alphabetic" font-family="Arial, sans-serif" font-size="14" style="fill: #0A0F25">calls</text>
<path d="M 201.06593406593407 480 C 164.50025904848727 501.19411736680036 146.21742153976388 511.79117605020053 109.65174652231708 532.9852934170009 C 109.65174652231708 532.9852934170009 101 538 101 548 C 101 587.2 101 606.8 101 646" fill="none" stroke="#0A0F25" stroke-width="2" marker-end="url(#arrow-triangle)"/>
<rect x="53" y="530" width="96" height="16" fill="#FFFFFF" stroke="none" stroke-width="1" rx="3" ry="3"/>
<text x="101" y="546" text-anchor="middle" dominant-baseline="alphabetic" font-family="Arial, sans-serif" font-size="14" style="fill: #0A0F25">reads/writes</text>
<path d="M 258 480 C 258 522.4 258 543.6 258 586 C 258 586 258 596 267.8437508427751 597.7608433619619 C 415.5062505056651 624.1746094654529 489.33750033711 637.3814925171986 637 663.7952586206897" fill="none" stroke="#0A0F25" stroke-width="2" marker-end="url(#arrow-triangle)"/>
<rect x="189" y="530" width="138" height="16" fill="#FFFFFF" stroke="none" stroke-width="1" rx="3" ry="3"/>
<text x="258" y="546" text-anchor="middle" dominant-baseline="alphabetic" font-family="Arial, sans-serif" font-size="14" style="fill: #0A0F25">processes payments</text>
<path d="M 323.81868131868134 480 C 366.5154722996753 501.40720649735783 387.8638677901723 512.1108097460368 430.5606587711663 533.5180162433946 C 430.5606587711663 533.5180162433946 439.5 538 439.5 548 C 439.5 563.2 439.5 570.8 439.5 586 C 439.5 586 439.5 596 449.35785525920744 597.6800862146082 C 612.4147131555245 625.4700640490935 693.9431421036829 639.3650529663361 857 667.1550308008214" fill="none" stroke="#0A0F25" stroke-width="2" marker-end="url(#arrow-triangle)"/>
<rect x="367" y="530" width="145" height="16" fill="#FFFFFF" stroke="none" stroke-width="1" rx="3" ry="3"/>
<text x="439.5" y="546" text-anchor="middle" dominant-baseline="alphabetic" font-family="Arial, sans-serif" font-size="14" style="fill: #0A0F25">sends notifications</text>
<text x="258" y="38.44" text-anchor="middle" dominant-baseline="alphabetic" font-family="Arial, sans-serif" font-size="16" style="fill: #0A0F25">Customer</text>
<text x="276" y="202.94" text-anchor="middle" dominant-baseline="alphabetic" font-family="Arial, sans-serif" font-size="16" style="fill: #0A0F25">E-Commerce System</text>
<text x="816.5" y="616.94" text-anchor="middle" dominant-baseline="alphabetic" font-family="Arial, sans-serif" font-size="16" style="fill: #0A0F25">external</text>
<text x="101" y="684.44" text-anchor="middle" dominant-baseline="alphabetic" font-family="Arial, sans-serif" font-size="16" style="fill: #0A0F25">Database</text>
<text x="258" y="270.44" text-anchor="middle" dominant-baseline="alphabetic" font-family="Arial, sans-serif" font-size="16" style="fill: #0A0F25">Web Application</text>
<text x="722" y="684.44" text-anchor="middle" dominant-baseline="alphabetic" font-family="Arial, sans-serif" font-size="16" style="fill: #0A0F25">Payment Provider</text>
<text x="926.5" y="684.44" text-anchor="middle" dominant-baseline="alphabetic" font-family="Arial, sans-serif" font-size="16" style="fill: #0A0F25">Email Service</text>
<text x="258" y="452.44" text-anchor="middle" dominant-baseline="alphabetic" font-family="Arial, sans-serif" font-size="16" style="fill: #0A0F25">API Gateway</text>
</g>
</svg>
