<?xml version="1.0" encoding="UTF-8"?>
<svg xmlns="http://www.w3.org/2000/svg" width="1107" height="1009" viewBox="-90 -100 1107 1009" data-d2-version="0.2.0">
<defs><mask id="edge-label-mask" maskUnits="userSpaceOnUse" x="-90" y="-100" width="1107" height="1009"><rect x="-90" y="-100" width="1107" height="1009" fill="white"></rect><rect x="194" y="154" width="59" height="21" fill="black"></rect><rect x="206" y="353" width="35" height="21" fill="black"></rect><rect x="64" y="548" width="87" height="21" fill="black"></rect><rect x="254" y="629" width="138" height="21" fill="black"></rect><rect x="426" y="629" width="128" height="21" fill="black"></rect></mask>
<marker id="mk-161592640" markerWidth="10" markerHeight="12" refX="7" refY="6" viewBox="0 0 10 12" orient="auto" markerUnits="userSpaceOnUse"><polygon points="0,0 10,6 0,12" fill="#0D32B2" stroke-width="2"/></marker>
</defs>
<rect x="-90" y="-100" width="1107" height="1009" rx="0" fill="#FFFFFF" stroke-width="0"/>
<g id="base-layer">
<path d="M 266 66 H 181 v -0.937984496124031 c 0 -11.25581395348837 9.333821376281113 -21.4031007751938 24.0190336749634 -26.26356589147287 C 196.92972181551977 34.87596899224806 192.07613469985358 28.480620155038757 192.07613469985358 21.488372093023255 C 192.07613469985358 9.635658914728682 206.13909224011712 0 223.43777452415813 0 c 17.298682284040996 0 31.36163982430454 9.635658914728682 31.36163982430454 21.488372093023255 c 0 6.992248062015503 -4.729136163982431 13.302325581395348 -12.942898975109811 17.3953488372093 c 14.685212298682286 4.8604651162790695 24.0190336749634 15.007751937984496 24.0190336749634 26.26356589147287 v 0.8527131782945736 Z" fill="#E3E9FD" stroke="#0D32B2" stroke-width="2"/>
<rect x="10" y="207" width="324" height="602" fill="#E3E9FD" stroke="#0D32B2" stroke-width="2" rx="0" ry="0"/>
<rect x="485" y="657" width="432" height="126" fill="#E3E9FD" stroke="#0D32B2" stroke-width="2" rx="0" ry="0"/>
<rect x="156" y="424" width="136" height="66" fill="#438DD5" stroke="#0D32B2" stroke-width="2" rx="0" ry="0"/>
<path d="M 40 685 C 40 661 89.5 661 95 661 C 100.5 661 150 661 150 685 L 150 755 C 150 779 100.5 779 95 779 C 89.5 779 40 779 40 755 L 40 685 Z" fill="#438DD5" stroke="#0D32B2" stroke-width="2"/>
<path d="M 40 685 C 40 709 89.5 709 95 709 C 100.5 709 150 709 150 685" fill="#438DD5" stroke="#0D32B2" stroke-width="2"/>
<rect x="144" y="237" width="160" height="66" fill="#438DD5" stroke="#0D32B2" stroke-width="2" rx="0" ry="0"/>
<rect x="515" y="687" width="173" height="66" fill="#999999" stroke="#0D32B2" stroke-width="2" rx="0" ry="0"/>
<rect x="748" y="687" width="139" height="66" fill="#999999" stroke="#0D32B2" stroke-width="2" rx="0" ry="0"/>
<path d="M 223.5 93.5 C 223.5 119.5 223.5 197 223.5 233" fill="none" stroke="#0D32B2" stroke-width="2" marker-end="url(#mk-161592640)" mask="url(#edge-label-mask)"/>
<text x="223.5" y="170" text-anchor="middle" dominant-baseline="alphabetic" font-family="Arial, sans-serif" font-size="16" style="fill: #676C7E; font-style: italic">browses</text>
<path d="M 223.5 304.5 C 223.5 351.3 223.5 375.7 223.5 420.5" fill="none" stroke="#0D32B2" stroke-width="2" marker-end="url(#mk-161592640)" mask="url(#edge-label-mask)"/>
<text x="223.5" y="369" text-anchor="middle" dominant-baseline="alphabetic" font-family="Arial, sans-serif" font-size="16" style="fill: #676C7E; font-style: italic">calls</text>
<path d="M 176.3884254659515 490.6844101997224 C 111.6 538.3 95 621 95 657" fill="none" stroke="#0D32B2" stroke-width="2" marker-end="url(#mk-161592640)" mask="url(#edge-label-mask)"/>
<text x="107.5" y="564" text-anchor="middle" dominant-baseline="alphabetic" font-family="Arial, sans-serif" font-size="16" style="fill: #676C7E; font-style: italic">reads/writes</text>
<path d="M 223.5 491.5 C 223.5 538.3 281.7 627.8047682119205 510.65699250420266 693.9142044581671" fill="none" stroke="#0D32B2" stroke-width="2" marker-end="url(#mk-161592640)" mask="url(#edge-label-mask)"/>
<text x="323" y="645" text-anchor="middle" dominant-baseline="alphabetic" font-family="Arial, sans-serif" font-size="16" style="fill: #676C7E; font-style: italic">processes payments</text>
<path d="M 278.188046631467 490.57261296374463 C 353.3 538.3 447.5 629.3914510686164 743.6150994013628 702.0046025528651" fill="none" stroke="#0D32B2" stroke-width="2" marker-end="url(#mk-161592640)" mask="url(#edge-label-mask)"/>
<text x="490" y="645" text-anchor="middle" dominant-baseline="alphabetic" font-family="Arial, sans-serif" font-size="16" style="fill: #676C7E; font-style: italic">sends notifications</text>
<text x="223.5" y="87" text-anchor="middle" dominant-baseline="alphabetic" font-family="Arial, sans-serif" font-size="16" style="fill: #0A0F25; font-weight: 700">Customer</text>
<text x="172" y="194" text-anchor="middle" dominant-baseline="alphabetic" font-family="Arial, sans-serif" font-size="28" style="fill: #0A0F25">E-Commerce System</text>
<text x="701" y="644" text-anchor="middle" dominant-baseline="alphabetic" font-family="Arial, sans-serif" font-size="28" style="fill: #0A0F25">external</text>
<text x="224" y="462.5" text-anchor="middle" dominant-baseline="alphabetic" font-family="Arial, sans-serif" font-size="16" style="fill: #0A0F25; font-weight: 700">API Gateway</text>
<text x="95" y="737.5" text-anchor="middle" dominant-baseline="alphabetic" font-family="Arial, sans-serif" font-size="16" style="fill: #0A0F25; font-weight: 700">Database</text>
<text x="224" y="275.5" text-anchor="middle" dominant-baseline="alphabetic" font-family="Arial, sans-serif" font-size="16" style="fill: #0A0F25; font-weight: 700">Web Application</text>
<text x="601.5" y="725.5" text-anchor="middle" dominant-baseline="alphabetic" font-family="Arial, sans-serif" font-size="16" style="fill: #0A0F25; font-weight: 700">Payment Provider</text>
<text x="817.5" y="725.5" text-anchor="middle" dominant-baseline="alphabetic" font-family="Arial, sans-serif" font-size="16" style="fill: #0A0F25; font-weight: 700">Email Service</text>
</g>
</svg>
