<?xml version="1.0" encoding="UTF-8"?>
<svg xmlns="http://www.w3.org/2000/svg" width="536" height="891" viewBox="-101 -101 536 891" data-d2-version="0.2.0" class="d2-911176571 d2-svg">
<defs><mask id="edge-label-mask" maskUnits="userSpaceOnUse" x="-101" y="-101" width="536" height="891"><rect x="-101" y="-101" width="536" height="891" fill="white"></rect><rect x="130" y="500" width="75" height="21" fill="black"></rect></mask>
<marker id="mk-161592640" markerWidth="10" markerHeight="12" refX="7" refY="6" viewBox="0 0 10 12" orient="auto" markerUnits="userSpaceOnUse"><polygon points="0,0 10,6 0,12" fill="#0D32B2" stroke-width="2"/></marker>
</defs>
<rect x="-101" y="-101" width="536" height="891" rx="0" fill="#FFFFFF" stroke-width="0"/>
<g id="base-layer">
<rect x="0" y="166" width="137" height="66" fill="#e3f2fd" stroke="#1976D2" stroke-width="2" rx="0" ry="0"/>
<rect x="197" y="166" width="137" height="66" fill="#e3f2fd" stroke="#1976D2" stroke-width="2" rx="0" ry="0"/>
<path d="M 105 356 C 105 332 161.25 332 167.5 332 C 173.75 332 230 332 230 356 L 230 426 C 230 450 173.75 450 167.5 450 C 161.25 450 105 450 105 426 L 105 356 Z" fill="#fff8e1" stroke="#FFA000" stroke-width="2"/>
<path d="M 105 356 C 105 380 161.25 380 167.5 380 C 173.75 380 230 380 230 356" fill="#fff8e1" stroke="#FFA000" stroke-width="2"/>
<path d="M 107 595 C 107 571 161 571 167 571 C 173 571 227 571 227 595 L 227 665 C 227 689 173 689 167 689 C 161 689 107 689 107 665 L 107 595 Z" fill="#fff8e1" stroke="#FFA000" stroke-width="2"/>
<path d="M 107 595 C 107 619 161 619 167 619 C 173 619 227 619 227 595" fill="#fff8e1" stroke="#FFA000" stroke-width="2"/>
<path d="M 94 66 H 44 v -0.937984496124031 c 0 -11.25581395348837 5.490483162518302 -21.4031007751938 14.128843338213764 -26.26356589147287 C 53.37042459736457 34.87596899224806 50.51537335285505 28.480620155038757 50.51537335285505 21.488372093023255 C 50.51537335285505 9.635658914728682 58.78770131771596 0 68.96339677891655 0 c 10.175695461200586 0 18.448023426061493 9.635658914728682 18.448023426061493 21.488372093023255 c 0 6.992248062015503 -2.781844802342606 13.302325581395348 -7.613469985358712 17.3953488372093 c 8.638360175695462 4.8604651162790695 14.128843338213764 15.007751937984496 14.128843338213764 26.26356589147287 v 0.8527131782945736 Z" fill="#f3e5f5" stroke="#0D32B2" stroke-width="2"/>
<path d="M 288 66 H 244 v -0.937984496124031 c 0 -11.25581395348837 4.831625183016105 -21.4031007751938 12.433382137628112 -26.26356589147287 C 252.2459736456808 34.87596899224806 249.73352855051243 28.480620155038757 249.73352855051243 21.488372093023255 C 249.73352855051243 9.635658914728682 257.01317715959004 0 265.96778916544656 0 c 8.954612005856516 0 16.234260614934115 9.635658914728682 16.234260614934115 21.488372093023255 c 0 6.992248062015503 -2.4480234260614933 13.302325581395348 -6.699853587115666 17.3953488372093 c 7.601756954612006 4.8604651162790695 12.433382137628112 15.007751937984496 12.433382137628112 26.26356589147287 v 0.8527131782945736 Z" fill="#f3e5f5" stroke="#0D32B2" stroke-width="2"/>
<path d="M 68.5 94 C 68.5 111.2 68.5 126 68.5 162" fill="none" stroke="#0D32B2" stroke-width="2" marker-end="url(#mk-161592640)" mask="url(#edge-label-mask)"/>
<path d="M 265.5 94 C 265.5 111.2 265.5 126 265.5 162" fill="none" stroke="#0D32B2" stroke-width="2" marker-end="url(#mk-161592640)" mask="url(#edge-label-mask)"/>
<path d="M 68.5 234 C 68.5 272 78.8 293.4 117.31839248734306 336.03200721900106" fill="none" stroke="#0D32B2" stroke-width="2" marker-end="url(#mk-161592640)" mask="url(#edge-label-mask)"/>
<path d="M 265.5 234 C 265.5 272 255.2 293.4 216.68160751265694 336.03200721900106" fill="none" stroke="#0D32B2" stroke-width="2" marker-end="url(#mk-161592640)" mask="url(#edge-label-mask)"/>
<path d="M 167 452 C 167 498.4 167 522.6 167 567" fill="none" stroke="#0D32B2" stroke-width="2" marker-end="url(#mk-161592640)" mask="url(#edge-label-mask)"/>
<text x="167.5" y="516" text-anchor="middle" dominant-baseline="alphabetic" font-family="Arial, sans-serif" font-size="16" style="fill: #676C7E; font-style: italic">replication</text>
<text x="68.5" y="204.5" text-anchor="middle" dominant-baseline="alphabetic" font-family="Arial, sans-serif" font-size="16" style="fill: #0A0F25; font-weight: 700">Web Server 1</text>
<text x="265.5" y="204.5" text-anchor="middle" dominant-baseline="alphabetic" font-family="Arial, sans-serif" font-size="16" style="fill: #0A0F25; font-weight: 700">Web Server 2</text>
<text x="167.5" y="408.5" text-anchor="middle" dominant-baseline="alphabetic" font-family="Arial, sans-serif" font-size="16" style="fill: #0A0F25; font-weight: 700">Primary DB</text>
<text x="167" y="647.5" text-anchor="middle" dominant-baseline="alphabetic" font-family="Arial, sans-serif" font-size="16" style="fill: #0A0F25; font-weight: 700">Replica DB</text>
<text x="69" y="87" text-anchor="middle" dominant-baseline="alphabetic" font-family="Arial, sans-serif" font-size="16" style="fill: #0A0F25; font-weight: 700">Alice</text>
<text x="266" y="87" text-anchor="middle" dominant-baseline="alphabetic" font-family="Arial, sans-serif" font-size="16" style="fill: #0A0F25; font-weight: 700">Bob</text>
</g>
</svg>
