<?xml version="1.0" encoding="UTF-8"?>
<svg xmlns="http://www.w3.org/2000/svg" width="524" height="785" viewBox="-100 -100 524 785" data-d2-version="0.1.0">
<defs><marker id="arrow-triangle" markerWidth="10" markerHeight="10" refX="10" refY="5" orient="auto" markerUnits="strokeWidth"><path d="M0,0 L10,5 L0,10 Z" fill="#0A0F25"/></marker>
<marker id="arrow-triangle-reverse" markerWidth="10" markerHeight="10" refX="0" refY="5" orient="auto" markerUnits="strokeWidth"><path d="M10,0 L0,5 L10,10 Z" fill="#0A0F25"/></marker>
<marker id="arrow-diamond" markerWidth="10" markerHeight="10" refX="10" refY="5" orient="auto" markerUnits="strokeWidth"><path d="M0,5 L5,0 L10,5 L5,10 Z" fill="#0A0F25"/></marker>
<marker id="arrow-diamond-reverse" markerWidth="10" markerHeight="10" refX="0" refY="5" orient="auto" markerUnits="strokeWidth"><path d="M0,5 L5,0 L10,5 L5,10 Z" fill="#0A0F25"/></marker>
<marker id="arrow-circle" markerWidth="10" markerHeight="10" refX="6" refY="5" orient="auto" markerUnits="strokeWidth"><circle cx="5" cy="5" r="4" fill="#0A0F25"/></marker>
<marker id="arrow-circle-reverse" markerWidth="10" markerHeight="10" refX="4" refY="5" orient="auto" markerUnits="strokeWidth"><circle cx="5" cy="5" r="4" fill="#0A0F25"/></marker>
<marker id="arrow-cf-one" markerWidth="10" markerHeight="10" refX="10" refY="5" orient="auto" markerUnits="strokeWidth"><line x1="10" y1="0" x2="10" y2="10" stroke="#0A0F25" stroke-width="2"/></marker>
<marker id="arrow-cf-one-reverse" markerWidth="10" markerHeight="10" refX="0" refY="5" orient="auto" markerUnits="strokeWidth"><line x1="0" y1="0" x2="0" y2="10" stroke="#0A0F25" stroke-width="2"/></marker>
<marker id="arrow-cf-many" markerWidth="10" markerHeight="10" refX="10" refY="5" orient="auto" markerUnits="strokeWidth"><path d="M0,5 L10,0 M0,5 L10,5 M0,5 L10,10" stroke="#0A0F25" stroke-width="2" fill="none"/></marker>
<marker id="arrow-cf-many-reverse" markerWidth="10" markerHeight="10" refX="0" refY="5" orient="auto" markerUnits="strokeWidth"><path d="M10,5 L0,0 M10,5 L0,5 M10,5 L0,10" stroke="#0A0F25" stroke-width="2" fill="none"/></marker>
<marker id="arrow-cf-one-required" markerWidth="10" markerHeight="10" refX="10" refY="5" orient="auto" markerUnits="strokeWidth"><line x1="10" y1="0" x2="10" y2="10" stroke="#0A0F25" stroke-width="2"/><line x1="7" y1="0" x2="7" y2="10" stroke="#0A0F25" stroke-width="2"/></marker>
<marker id="arrow-cf-one-required-reverse" markerWidth="10" markerHeight="10" refX="0" refY="5" orient="auto" markerUnits="strokeWidth"><line x1="0" y1="0" x2="0" y2="10" stroke="#0A0F25" stroke-width="2"/><line x1="3" y1="0" x2="3" y2="10" stroke="#0A0F25" stroke-width="2"/></marker>
<marker id="arrow-cf-many-required" markerWidth="10" markerHeight="10" refX="10" refY="5" orient="auto" markerUnits="strokeWidth"><path d="M0,5 L10,0 M0,5 L10,5 M0,5 L10,10" stroke="#0A0F25" stroke-width="2" fill="none"/><line x1="3" y1="0" x2="3" y2="10" stroke="#0A0F25" stroke-width="2"/></marker>
<marker id="arrow-cf-many-required-reverse" markerWidth="10" markerHeight="10" refX="0" refY="5" orient="auto" markerUnits="strokeWidth"><path d="M10,5 L0,0 M10,5 L0,5 M10,5 L0,10" stroke="#0A0F25" stroke-width="2" fill="none"/><line x1="7" y1="0" x2="7" y2="10" stroke="#0A0F25" stroke-width="2"/></marker>
<marker id="arrow-cf-one-optional" markerWidth="10" markerHeight="10" refX="10" refY="5" orient="auto" markerUnits="strokeWidth"><line x1="10" y1="0" x2="10" y2="10" stroke="#0A0F25" stroke-width="2"/><circle cx="7" cy="5" r="2" stroke="#0A0F25" stroke-width="2" fill="white"/></marker>
<marker id="arrow-cf-one-optional-reverse" markerWidth="10" markerHeight="10" refX="0" refY="5" orient="auto" markerUnits="strokeWidth"><line x1="0" y1="0" x2="0" y2="10" stroke="#0A0F25" stroke-width="2"/><circle cx="3" cy="5" r="2" stroke="#0A0F25" stroke-width="2" fill="white"/></marker>
<marker id="arrow-cf-many-optional" markerWidth="10" markerHeight="10" refX="10" refY="5" orient="auto" markerUnits="strokeWidth"><path d="M0,5 L10,0 M0,5 L10,5 M0,5 L10,10" stroke="#0A0F25" stroke-width="2" fill="none"/><circle cx="3" cy="5" r="2" stroke="#0A0F25" stroke-width="2" fill="white"/></marker>
<marker id="arrow-cf-many-optional-reverse" markerWidth="10" markerHeight="10" refX="0" refY="5" orient="auto" markerUnits="strokeWidth"><path d="M10,5 L0,0 M10,5 L0,5 M10,5 L0,10" stroke="#0A0F25" stroke-width="2" fill="none"/><circle cx="7" cy="5" r="2" stroke="#0A0F25" stroke-width="2" fill="white"/></marker>
<marker id="arrow-line" markerWidth="10" markerHeight="10" refX="10" refY="5" orient="auto" markerUnits="strokeWidth"><line x1="10" y1="0" x2="10" y2="10" stroke="#0A0F25" stroke-width="2"/></marker>
<marker id="arrow-line-reverse" markerWidth="10" markerHeight="10" refX="0" refY="5" orient="auto" markerUnits="strokeWidth"><line x1="0" y1="0" x2="0" y2="10" stroke="#0A0F25" stroke-width="2"/></marker>
<marker id="arrow-open" markerWidth="10" markerHeight="10" refX="10" refY="5" orient="auto" markerUnits="strokeWidth"><path d="M0,0 L10,5 L0,10" stroke="#0A0F25" stroke-width="2" fill="none"/></marker>
<marker id="arrow-open-reverse" markerWidth="10" markerHeight="10" refX="0" refY="5" orient="auto" markerUnits="strokeWidth"><path d="M10,0 L0,5 L10,10" stroke="#0A0F25" stroke-width="2" fill="none"/></marker>
<marker id="arrow" markerWidth="10" markerHeight="10" refX="10" refY="5" orient="auto" markerUnits="strokeWidth"><path d="M0,0 L10,5 L0,10 Z" fill="#0A0F25"/></marker>
<marker id="arrow-reverse" markerWidth="10" markerHeight="10" refX="0" refY="5" orient="auto" markerUnits="strokeWidth"><path d="M10,0 L0,5 L10,10 Z" fill="#0A0F25"/></marker>
</defs>
<rect width="100%" height="100%" fill="#FFFFFF"/>
<g id="base-layer">
<rect x="187" y="166" width="137" height="66" fill="#e3f2fd" stroke="#1976D2" stroke-width="2" rx="0" ry="0"/>
<rect x="0" y="166" width="137" height="66" fill="#e3f2fd" stroke="#1976D2" stroke-width="2" rx="0" ry="0"/>
<path d="M 100 356 C 100 332 155.8 332 162 332 C 168.2 332 224 332 224 356 L 224 374 C 224 398 168.2 398 162 398 C 155.8 398 100 398 100 374 L 100 356 Z" fill="#fff8e1" stroke="#FFA000" stroke-width="2"/>
<ellipse cx="162" cy="356" rx="62" ry="24" fill="none" stroke="none" stroke-width="0"/>
<path d="M 100 356 C 100 380 155.8 380 162 380 C 168.2 380 224 380 224 356" fill="none" stroke="#FFA000" stroke-width="2"/>
<path d="M 101.5 543 C 101.5 519 155.95 519 162 519 C 168.05 519 222.5 519 222.5 543 L 222.5 561 C 222.5 585 168.05 585 162 585 C 155.95 585 101.5 585 101.5 561 L 101.5 543 Z" fill="#fff8e1" stroke="#FFA000" stroke-width="2"/>
<ellipse cx="162" cy="543" rx="60.5" ry="24" fill="none" stroke="none" stroke-width="0"/>
<path d="M 101.5 543 C 101.5 567 155.95 567 162 567 C 168.05 567 222.5 567 222.5 543" fill="none" stroke="#FFA000" stroke-width="2"/>
<path d="M 297 66 H 214 v -0.937984496124031 c 0 -11.25581395348837 9.114202049780381 -21.4031007751938 23.453879941434845 -26.26356589147287 C 229.55490483162518 34.87596899224806 224.8155197657394 28.480620155038757 224.8155197657394 21.488372093023255 C 224.8155197657394 9.635658914728682 238.5475841874085 0 255.43923865300147 0 c 16.89165446559297 0 30.62371888726208 9.635658914728682 30.62371888726208 21.488372093023255 c 0 6.992248062015503 -4.617862371888726 13.302325581395348 -12.638360175695462 17.3953488372093 c 14.339677891654466 4.8604651162790695 23.453879941434845 15.007751937984496 23.453879941434845 26.26356589147287 v 0.8527131782945736 Z" fill="#f3e5f5" stroke="#0A0F25" stroke-width="2"/>
<path d="M 107 66 H 30 v -0.937984496124031 c 0 -11.25581395348837 8.455344070278185 -21.4031007751938 21.758418740849198 -26.26356589147287 C 44.43045387994144 34.87596899224806 40.03367496339678 28.480620155038757 40.03367496339678 21.488372093023255 C 40.03367496339678 9.635658914728682 52.773060029282576 0 68.44363103953148 0 c 15.670571010248903 0 28.4099560761347 9.635658914728682 28.4099560761347 21.488372093023255 c 0 6.992248062015503 -4.284040995607613 13.302325581395348 -11.724743777452417 17.3953488372093 c 13.303074670571013 4.8604651162790695 21.758418740849198 15.007751937984496 21.758418740849198 26.26356589147287 v 0.8527131782945736 Z" fill="#f3e5f5" stroke="#0A0F25" stroke-width="2"/>
<path d="M 255.5 66 C 255.5 106 255.5 126 255.5 166" fill="none" stroke="#0A0F25" stroke-width="2" marker-end="url(#arrow-triangle)"/>
<path d="M 68.5 66 C 68.5 106 68.5 126 68.5 166" fill="none" stroke="#0A0F25" stroke-width="2" marker-end="url(#arrow-triangle)"/>
<path d="M 255.5 232 C 255.5 248 255.5 256 255.5 272 C 255.5 272 255.5 282 248.02149555134955 288.63867239826726 C 228.482776848882 305.98320343896035 218.71341749764827 314.6554689593069 199.17469879518072 332" fill="none" stroke="#0A0F25" stroke-width="2" marker-end="url(#arrow-triangle)"/>
<path d="M 68.5 232 C 68.5 248 68.5 256 68.5 272 C 68.5 272 68.5 282 75.97850444865045 288.63867239826726 C 95.51722315111799 305.98320343896035 105.28658250235175 314.6554689593069 124.82530120481928 332" fill="none" stroke="#0A0F25" stroke-width="2" marker-end="url(#arrow-triangle)"/>
<path d="M 162 398 C 162 446.4 162 470.6 162 519" fill="none" stroke="#0A0F25" stroke-width="2" marker-end="url(#arrow-triangle)"/>
<rect x="124.5" y="448" width="75" height="21" fill="#FFFFFF" stroke="none" stroke-width="1" rx="3" ry="3"/>
<text x="162" y="464" text-anchor="middle" dominant-baseline="alphabetic" font-family="Arial, sans-serif" font-size="16" style="fill: #676C7E; font-style: italic">replication</text>
<text x="255.5" y="204.44" text-anchor="middle" dominant-baseline="alphabetic" font-family="Arial, sans-serif" font-size="16" style="fill: #0A0F25">Web Server 1</text>
<text x="68.5" y="204.44" text-anchor="middle" dominant-baseline="alphabetic" font-family="Arial, sans-serif" font-size="16" style="fill: #0A0F25">Web Server 2</text>
<text x="162" y="370.44" text-anchor="middle" dominant-baseline="alphabetic" font-family="Arial, sans-serif" font-size="16" style="fill: #0A0F25">Primary DB</text>
<text x="162" y="557.44" text-anchor="middle" dominant-baseline="alphabetic" font-family="Arial, sans-serif" font-size="16" style="fill: #0A0F25">Replica DB</text>
<text x="255.5" y="38.44" text-anchor="middle" dominant-baseline="alphabetic" font-family="Arial, sans-serif" font-size="16" style="fill: #0A0F25">Alice</text>
<text x="68.5" y="38.44" text-anchor="middle" dominant-baseline="alphabetic" font-family="Arial, sans-serif" font-size="16" style="fill: #0A0F25">Bob</text>
</g>
</svg>
