<?xml version="1.0" encoding="UTF-8"?>
<svg xmlns="http://www.w3.org/2000/svg" width="2480" height="330" viewBox="-50 -50 2480 330" data-d2-version="0.1.0">
<defs><marker id="arrow-triangle" markerWidth="10" markerHeight="10" refX="10" refY="5" orient="auto" markerUnits="strokeWidth"><path d="M0,0 L10,5 L0,10 Z" fill="#0A0F25"/></marker>
<marker id="arrow-triangle-reverse" markerWidth="10" markerHeight="10" refX="0" refY="5" orient="auto" markerUnits="strokeWidth"><path d="M10,0 L0,5 L10,10 Z" fill="#0A0F25"/></marker>
<marker id="arrow-diamond" markerWidth="10" markerHeight="10" refX="10" refY="5" orient="auto" markerUnits="strokeWidth"><path d="M0,5 L5,0 L10,5 L5,10 Z" fill="#0A0F25"/></marker>
<marker id="arrow-diamond-reverse" markerWidth="10" markerHeight="10" refX="0" refY="5" orient="auto" markerUnits="strokeWidth"><path d="M0,5 L5,0 L10,5 L5,10 Z" fill="#0A0F25"/></marker>
<marker id="arrow-circle" markerWidth="10" markerHeight="10" refX="6" refY="5" orient="auto" markerUnits="strokeWidth"><circle cx="5" cy="5" r="4" fill="#0A0F25"/></marker>
<marker id="arrow-circle-reverse" markerWidth="10" markerHeight="10" refX="4" refY="5" orient="auto" markerUnits="strokeWidth"><circle cx="5" cy="5" r="4" fill="#0A0F25"/></marker>
<marker id="arrow-cf-one" markerWidth="10" markerHeight="10" refX="10" refY="5" orient="auto" markerUnits="strokeWidth"><line x1="10" y1="0" x2="10" y2="10" stroke="#0A0F25" stroke-width="2"/></marker>
<marker id="arrow-cf-one-reverse" markerWidth="10" markerHeight="10" refX="0" refY="5" orient="auto" markerUnits="strokeWidth"><line x1="0" y1="0" x2="0" y2="10" stroke="#0A0F25" stroke-width="2"/></marker>
<marker id="arrow-cf-many" markerWidth="10" markerHeight="10" refX="10" refY="5" orient="auto" markerUnits="strokeWidth"><path d="M0,5 L10,0 M0,5 L10,5 M0,5 L10,10" stroke="#0A0F25" stroke-width="2" fill="none"/></marker>
<marker id="arrow-cf-many-reverse" markerWidth="10" markerHeight="10" refX="0" refY="5" orient="auto" markerUnits="strokeWidth"><path d="M10,5 L0,0 M10,5 L0,5 M10,5 L0,10" stroke="#0A0F25" stroke-width="2" fill="none"/></marker>
<marker id="arrow-cf-one-required" markerWidth="10" markerHeight="10" refX="10" refY="5" orient="auto" markerUnits="strokeWidth"><line x1="10" y1="0" x2="10" y2="10" stroke="#0A0F25" stroke-width="2"/><line x1="7" y1="0" x2="7" y2="10" stroke="#0A0F25" stroke-width="2"/></marker>
<marker id="arrow-cf-one-required-reverse" markerWidth="10" markerHeight="10" refX="0" refY="5" orient="auto" markerUnits="strokeWidth"><line x1="0" y1="0" x2="0" y2="10" stroke="#0A0F25" stroke-width="2"/><line x1="3" y1="0" x2="3" y2="10" stroke="#0A0F25" stroke-width="2"/></marker>
<marker id="arrow-cf-many-required" markerWidth="10" markerHeight="10" refX="10" refY="5" orient="auto" markerUnits="strokeWidth"><path d="M0,5 L10,0 M0,5 L10,5 M0,5 L10,10" stroke="#0A0F25" stroke-width="2" fill="none"/><line x1="3" y1="0" x2="3" y2="10" stroke="#0A0F25" stroke-width="2"/></marker>
<marker id="arrow-cf-many-required-reverse" markerWidth="10" markerHeight="10" refX="0" refY="5" orient="auto" markerUnits="strokeWidth"><path d="M10,5 L0,0 M10,5 L0,5 M10,5 L0,10" stroke="#0A0F25" stroke-width="2" fill="none"/><line x1="7" y1="0" x2="7" y2="10" stroke="#0A0F25" stroke-width="2"/></marker>
<marker id="arrow-cf-one-optional" markerWidth="10" markerHeight="10" refX="10" refY="5" orient="auto" markerUnits="strokeWidth"><line x1="10" y1="0" x2="10" y2="10" stroke="#0A0F25" stroke-width="2"/><circle cx="7" cy="5" r="2" stroke="#0A0F25" stroke-width="2" fill="white"/></marker>
<marker id="arrow-cf-one-optional-reverse" markerWidth="10" markerHeight="10" refX="0" refY="5" orient="auto" markerUnits="strokeWidth"><line x1="0" y1="0" x2="0" y2="10" stroke="#0A0F25" stroke-width="2"/><circle cx="3" cy="5" r="2" stroke="#0A0F25" stroke-width="2" fill="white"/></marker>
<marker id="arrow-cf-many-optional" markerWidth="10" markerHeight="10" refX="10" refY="5" orient="auto" markerUnits="strokeWidth"><path d="M0,5 L10,0 M0,5 L10,5 M0,5 L10,10" stroke="#0A0F25" stroke-width="2" fill="none"/><circle cx="3" cy="5" r="2" stroke="#0A0F25" stroke-width="2" fill="white"/></marker>
<marker id="arrow-cf-many-optional-reverse" markerWidth="10" markerHeight="10" refX="0" refY="5" orient="auto" markerUnits="strokeWidth"><path d="M10,5 L0,0 M10,5 L0,5 M10,5 L0,10" stroke="#0A0F25" stroke-width="2" fill="none"/><circle cx="7" cy="5" r="2" stroke="#0A0F25" stroke-width="2" fill="white"/></marker>
<marker id="arrow-line" markerWidth="10" markerHeight="10" refX="10" refY="5" orient="auto" markerUnits="strokeWidth"><line x1="10" y1="0" x2="10" y2="10" stroke="#0A0F25" stroke-width="2"/></marker>
<marker id="arrow-line-reverse" markerWidth="10" markerHeight="10" refX="0" refY="5" orient="auto" markerUnits="strokeWidth"><line x1="0" y1="0" x2="0" y2="10" stroke="#0A0F25" stroke-width="2"/></marker>
<marker id="arrow-open" markerWidth="10" markerHeight="10" refX="10" refY="5" orient="auto" markerUnits="strokeWidth"><path d="M0,0 L10,5 L0,10" stroke="#0A0F25" stroke-width="2" fill="none"/></marker>
<marker id="arrow-open-reverse" markerWidth="10" markerHeight="10" refX="0" refY="5" orient="auto" markerUnits="strokeWidth"><path d="M10,0 L0,5 L10,10" stroke="#0A0F25" stroke-width="2" fill="none"/></marker>
<marker id="arrow" markerWidth="10" markerHeight="10" refX="10" refY="5" orient="auto" markerUnits="strokeWidth"><path d="M0,0 L10,5 L0,10 Z" fill="#0A0F25"/></marker>
<marker id="arrow-reverse" markerWidth="10" markerHeight="10" refX="0" refY="5" orient="auto" markerUnits="strokeWidth"><path d="M10,0 L0,5 L10,10 Z" fill="#0A0F25"/></marker>
</defs>
<rect width="100%" height="100%" fill="#FFFFFF"/>
<g id="base-layer">
<rect x="50" y="50" width="760" height="130" fill="#FFFFFF" stroke="#0A0F25" stroke-width="2" rx="0" ry="0"/>
<rect x="850" y="50" width="1480" height="130" fill="#FFFFFF" stroke="#0A0F25" stroke-width="2" rx="0" ry="0"/>
<rect x="320" y="85" width="100" height="60" fill="#f3e5f5" stroke="#0A0F25" stroke-width="2" rx="0" ry="0"/>
<rect x="440" y="85" width="100" height="60" fill="#e8f5e9" stroke="#0A0F25" stroke-width="2" rx="0" ry="0"/>
<rect x="560" y="85" width="100" height="60" fill="#fafafa" stroke="#0A0F25" stroke-width="2" rx="0" ry="0"/>
<rect x="680" y="85" width="100" height="60" fill="#eceff1" stroke="#0A0F25" stroke-width="2" rx="0" ry="0"/>
<rect x="80" y="85" width="100" height="60" fill="#e3f2fd" stroke="#0A0F25" stroke-width="2" rx="0" ry="0"/>
<rect x="880" y="85" width="100" height="60" fill="#FFFFFF" stroke="#0A0F25" stroke-width="2" rx="0" ry="0"/>
<rect x="1000" y="85" width="100" height="60" fill="#FFFFFF" stroke="#0A0F25" stroke-width="2" rx="0" ry="0"/>
<rect x="1120" y="85" width="100" height="60" fill="#FFFFFF" stroke="#0A0F25" stroke-width="2" rx="0" ry="0"/>
<rect x="1240" y="85" width="100" height="60" fill="#FFFFFF" stroke="#0A0F25" stroke-width="2" rx="0" ry="0"/>
<rect x="1360" y="85" width="100" height="60" fill="#FFFFFF" stroke="#0A0F25" stroke-width="2" rx="0" ry="0"/>
<rect x="1480" y="85" width="100" height="60" fill="#FFFFFF" stroke="#0A0F25" stroke-width="2" rx="0" ry="0"/>
<rect x="1600" y="85" width="100" height="60" fill="#FFFFFF" stroke="#0A0F25" stroke-width="2" rx="0" ry="0"/>
<rect x="1720" y="85" width="100" height="60" fill="#FFFFFF" stroke="#0A0F25" stroke-width="2" rx="0" ry="0"/>
<rect x="1840" y="85" width="100" height="60" fill="#FFFFFF" stroke="#0A0F25" stroke-width="2" rx="0" ry="0"/>
<rect x="1960" y="85" width="100" height="60" fill="#FFFFFF" stroke="#0A0F25" stroke-width="2" rx="0" ry="0"/>
<rect x="2080" y="85" width="100" height="60" fill="#FFFFFF" stroke="#0A0F25" stroke-width="2" rx="0" ry="0"/>
<rect x="2200" y="85" width="100" height="60" fill="#FFFFFF" stroke="#0A0F25" stroke-width="2" rx="0" ry="0"/>
<rect x="200" y="85" width="100" height="60" fill="#fff3e0" stroke="#0A0F25" stroke-width="2" rx="0" ry="0"/>
<text x="430" y="65.5" text-anchor="middle" dominant-baseline="middle" font-family="Arial, sans-serif" font-size="16">Dashboard</text>
<text x="1590" y="65.5" text-anchor="middle" dominant-baseline="middle" font-family="Arial, sans-serif" font-size="16">Icon Grid</text>
<text x="370" y="115" text-anchor="middle" dominant-baseline="middle" font-family="Arial, sans-serif" font-size="16">Search</text>
<text x="490" y="115" text-anchor="middle" dominant-baseline="middle" font-family="Arial, sans-serif" font-size="16">Sidebar</text>
<text x="610" y="115" text-anchor="middle" dominant-baseline="middle" font-family="Arial, sans-serif" font-size="16">Main Content</text>
<text x="730" y="115" text-anchor="middle" dominant-baseline="middle" font-family="Arial, sans-serif" font-size="16">Footer</text>
<text x="130" y="115" text-anchor="middle" dominant-baseline="middle" font-family="Arial, sans-serif" font-size="16">Header</text>
<text x="930" y="115" text-anchor="middle" dominant-baseline="middle" font-family="Arial, sans-serif" font-size="16">i1</text>
<text x="1050" y="115" text-anchor="middle" dominant-baseline="middle" font-family="Arial, sans-serif" font-size="16">i2</text>
<text x="1170" y="115" text-anchor="middle" dominant-baseline="middle" font-family="Arial, sans-serif" font-size="16">i3</text>
<text x="1290" y="115" text-anchor="middle" dominant-baseline="middle" font-family="Arial, sans-serif" font-size="16">i4</text>
<text x="1410" y="115" text-anchor="middle" dominant-baseline="middle" font-family="Arial, sans-serif" font-size="16">i5</text>
<text x="1530" y="115" text-anchor="middle" dominant-baseline="middle" font-family="Arial, sans-serif" font-size="16">i6</text>
<text x="1650" y="115" text-anchor="middle" dominant-baseline="middle" font-family="Arial, sans-serif" font-size="16">i7</text>
<text x="1770" y="115" text-anchor="middle" dominant-baseline="middle" font-family="Arial, sans-serif" font-size="16">i8</text>
<text x="1890" y="115" text-anchor="middle" dominant-baseline="middle" font-family="Arial, sans-serif" font-size="16">i9</text>
<text x="2010" y="115" text-anchor="middle" dominant-baseline="middle" font-family="Arial, sans-serif" font-size="16">i10</text>
<text x="2130" y="115" text-anchor="middle" dominant-baseline="middle" font-family="Arial, sans-serif" font-size="16">i11</text>
<text x="2250" y="115" text-anchor="middle" dominant-baseline="middle" font-family="Arial, sans-serif" font-size="16">i12</text>
<text x="250" y="115" text-anchor="middle" dominant-baseline="middle" font-family="Arial, sans-serif" font-size="16">Navigation</text>
</g>
</svg>
