<?xml version="1.0" encoding="UTF-8"?>
<svg xmlns="http://www.w3.org/2000/svg" width="452" height="694" viewBox="-101 -101 452 694" data-d2-version="0.2.0" class="d2-755771880 d2-svg">
<defs><mask id="edge-label-mask" maskUnits="userSpaceOnUse" x="-101" y="-101" width="452" height="694"><rect x="-101" y="-101" width="452" height="694" fill="white"></rect><rect x="109" y="116" width="55" height="21" fill="black"></rect><rect x="121" y="302" width="43" height="21" fill="black"></rect><rect x="190" y="302" width="49" height="21" fill="black"></rect><rect x="188" y="116" width="64" height="21" fill="black"></rect></mask>
<marker id="mk-161592640" markerWidth="10" markerHeight="12" refX="7" refY="6" viewBox="0 0 10 12" orient="auto" markerUnits="userSpaceOnUse"><polygon points="0,0 10,6 0,12" fill="#0D32B2" stroke-width="2"/></marker>
</defs>
<rect x="-101" y="-101" width="452" height="694" rx="0" fill="#FFFFFF" stroke-width="0"/>
<g id="base-layer">
<rect x="0" y="0" width="75" height="66" fill="#F7F8FE" stroke="#0D32B2" stroke-width="2" rx="0" ry="0"/>
<rect x="135" y="0" width="87" height="66" fill="#F7F8FE" stroke="#0D32B2" stroke-width="2" rx="0" ry="0"/>
<rect x="119" y="187" width="120" height="66" fill="#F7F8FE" stroke="#0D32B2" stroke-width="2" rx="0" ry="0"/>
<path d="M 124 398 C 124 374 173.5 374 179 374 C 184.5 374 234 374 234 398 L 234 468 C 234 492 184.5 492 179 492 C 173.5 492 124 492 124 468 L 124 398 Z" fill="#EDF0FD" stroke="#0D32B2" stroke-width="2"/>
<path d="M 124 398 C 124 422 173.5 422 179 422 C 184.5 422 234 422 234 398" fill="#EDF0FD" stroke="#0D32B2" stroke-width="2"/>
<path d="M 160.84390030374843 67.28297037004343 C 136.95 114.30000000000001 136.95 138.7 159.93780060749685 183.93405925991314" fill="none" stroke="#0D32B2" stroke-width="2" marker-end="url(#mk-161592640)" mask="url(#edge-label-mask)"/>
<text x="136.5" y="132" text-anchor="middle" dominant-baseline="alphabetic" font-family="Arial, sans-serif" font-size="16" style="fill: #676C7E; font-style: italic">request</text>
<path d="M 163.69050577588447 254.3288573211499 C 142.9 301.3 141.8 325.8 157.67996580288963 371.2240882268703" fill="none" stroke="#0D32B2" stroke-width="2" marker-end="url(#mk-161592640)" mask="url(#edge-label-mask)"/>
<text x="142.5" y="318" text-anchor="middle" dominant-baseline="alphabetic" font-family="Arial, sans-serif" font-size="16" style="fill: #676C7E; font-style: italic">query</text>
<path d="M 198.6600170985552 373.11204411343516 C 215.2 325.8 214.1 301.3 194.11898844823105 256.1577146422998" fill="none" stroke="#0D32B2" stroke-width="2" marker-end="url(#mk-161592640)" mask="url(#edge-label-mask)"/>
<text x="214.5" y="318" text-anchor="middle" dominant-baseline="alphabetic" font-family="Arial, sans-serif" font-size="16" style="fill: #676C7E; font-style: italic">results</text>
<path d="M 196.15609969625157 185.71702962995658 C 220.05 138.7 220.05 114.3 197.06219939250315 69.06594074008686" fill="none" stroke="#0D32B2" stroke-width="2" marker-end="url(#mk-161592640)" mask="url(#edge-label-mask)"/>
<text x="220" y="132" text-anchor="middle" dominant-baseline="alphabetic" font-family="Arial, sans-serif" font-size="16" style="fill: #676C7E; font-style: italic">response</text>
<text x="37.5" y="38.5" text-anchor="middle" dominant-baseline="alphabetic" font-family="Arial, sans-serif" font-size="16" style="fill: #0A0F25; font-weight: 700">true</text>
<text x="178.5" y="38.5" text-anchor="middle" dominant-baseline="alphabetic" font-family="Arial, sans-serif" font-size="16" style="fill: #0A0F25; font-weight: 700">Client</text>
<text x="179" y="225.5" text-anchor="middle" dominant-baseline="alphabetic" font-family="Arial, sans-serif" font-size="16" style="fill: #0A0F25; font-weight: 700">API Server</text>
<text x="179" y="450.5" text-anchor="middle" dominant-baseline="alphabetic" font-family="Arial, sans-serif" font-size="16" style="fill: #0A0F25; font-weight: 700">Database</text>
</g>
</svg>
