<?xml version="1.0" encoding="UTF-8"?>
<svg xmlns="http://www.w3.org/2000/svg" width="366" height="432" viewBox="-100 -100 366 432" data-d2-version="0.2.0">
<defs><mask id="edge-label-mask" maskUnits="userSpaceOnUse" x="-100" y="-100" width="366" height="432"><rect x="-100" y="-100" width="366" height="432" fill="white"></rect></mask>
<marker id="mk-161592640" markerWidth="10" markerHeight="12" refX="7" refY="6" viewBox="0 0 10 12" orient="auto" markerUnits="userSpaceOnUse"><polygon points="0,0 10,6 0,12" fill="#0D32B2" stroke-width="2"/></marker>
</defs>
<rect x="-100" y="-100" width="366" height="432" rx="0" fill="#FFFFFF" stroke-width="0"/>
<g id="base-layer">
<rect x="57" y="0" width="53" height="66" fill="yellow" stroke="#0D32B2" stroke-width="2" rx="0" ry="0"/>
<rect x="0" y="166" width="54" height="66" fill="yellow" stroke="#0D32B2" stroke-width="2" rx="0" ry="0"/>
<rect x="114" y="166" width="52" height="66" fill="yellow" stroke="#0D32B2" stroke-width="2" rx="0" ry="0"/>
<path d="M 59.875379957185444 67.65385300413905 C 33.8 106 27 126 27 162" fill="none" stroke="#0D32B2" stroke-width="2" marker-end="url(#mk-161592640)" mask="url(#edge-label-mask)"/>
<path d="M 107.12462004281456 67.65385300413905 C 133.2 106 140 126 140 162" fill="none" stroke="#0D32B2" stroke-width="2" marker-end="url(#mk-161592640)" mask="url(#edge-label-mask)"/>
<text x="83.5" y="38.5" text-anchor="middle" dominant-baseline="alphabetic" font-family="Arial, sans-serif" font-size="16" style="fill: #0A0F25; font-weight: 700">x</text>
<text x="27" y="204.5" text-anchor="middle" dominant-baseline="alphabetic" font-family="Arial, sans-serif" font-size="16" style="fill: #0A0F25; font-weight: 700">y</text>
<text x="140" y="204.5" text-anchor="middle" dominant-baseline="alphabetic" font-family="Arial, sans-serif" font-size="16" style="fill: #0A0F25; font-weight: 700">z</text>
</g>
</svg>
