<?xml version="1.0" encoding="UTF-8"?>
<svg xmlns="http://www.w3.org/2000/svg" width="584" height="320" viewBox="-101 -101 584 320" data-d2-version="0.2.0" class="d2-1746807485 d2-svg">
<defs><mask id="edge-label-mask" maskUnits="userSpaceOnUse" x="-101" y="-101" width="584" height="320"><rect x="-101" y="-101" width="584" height="320" fill="white"></rect></mask>
</defs>
<rect x="-101" y="-101" width="584" height="320" rx="0" fill="#FFFFFF" stroke-width="0"/>
<g id="base-layer">
<ellipse cx="54" cy="59" rx="54" ry="54" fill="#F7F8FE" stroke="#0D32B2" stroke-width="2"/>
<path d="M 168 24 C 168 0 217.5 0 223 0 C 228.5 0 278 0 278 24 L 278 94 C 278 118 228.5 118 223 118 C 217.5 118 168 118 168 94 L 168 24 Z" fill="#EDF0FD" stroke="#0D32B2" stroke-width="2"/>
<path d="M 168 24 C 168 48 217.5 48 223 48 C 228.5 48 278 48 278 24" fill="#EDF0FD" stroke="#0D32B2" stroke-width="2"/>
<path d="M 382 92 H 338 v -0.937984496124031 c 0 -11.25581395348837 4.831625183016105 -21.4031007751938 12.433382137628112 -26.26356589147287 C 346.2459736456808 60.87596899224806 343.73352855051246 54.48062015503876 343.73352855051246 47.48837209302326 C 343.73352855051246 35.63565891472868 351.01317715959004 26 359.96778916544656 26 c 8.954612005856516 0 16.234260614934115 9.635658914728682 16.234260614934115 21.488372093023255 c 0 6.992248062015503 -2.4480234260614933 13.302325581395348 -6.699853587115666 17.3953488372093 c 7.601756954612006 4.8604651162790695 12.433382137628112 15.007751937984496 12.433382137628112 26.26356589147287 v 0.8527131782945736 Z" fill="#E3E9FD" stroke="#0D32B2" stroke-width="2"/>
<text x="54" y="64.5" text-anchor="middle" dominant-baseline="alphabetic" font-family="Arial, sans-serif" font-size="16" style="fill: #0A0F25; font-weight: 700">donut</text>
<text x="223" y="76.5" text-anchor="middle" dominant-baseline="alphabetic" font-family="Arial, sans-serif" font-size="16" style="fill: #0A0F25; font-weight: 700">database</text>
<text x="360" y="113" text-anchor="middle" dominant-baseline="alphabetic" font-family="Arial, sans-serif" font-size="16" style="fill: #0A0F25; font-weight: 700">you</text>
</g>
</svg>
