<?xml version="1.0" encoding="UTF-8"?>
<svg xmlns="http://www.w3.org/2000/svg" width="1338" height="706" viewBox="-101 -101 1338 706" data-d2-version="0.2.0" class="d2-174037647 d2-svg">
<defs><mask id="edge-label-mask" maskUnits="userSpaceOnUse" x="-101" y="-101" width="1338" height="706"><rect x="-101" y="-101" width="1338" height="706" fill="white"></rect></mask>
<marker id="mk-161592640" markerWidth="10" markerHeight="12" refX="7" refY="6" viewBox="0 0 10 12" orient="auto" markerUnits="userSpaceOnUse"><polygon points="0,0 10,6 0,12" fill="#0D32B2" stroke-width="2"/></marker>
</defs>
<rect x="-101" y="-101" width="1338" height="706" rx="0" fill="#FFFFFF" stroke-width="0"/>
<g id="base-layer">
<rect x="0" y="13" width="111" height="66" fill="#F7F8FE" stroke="#0D32B2" stroke-width="2" rx="0" ry="0"/>
<rect x="9" y="192" width="94" height="94" fill="#F7F8FE" stroke="#0D32B2" stroke-width="2" rx="0" ry="0"/>
<path d="M 16 402 L 75 402 L 95 422 L 95 489 L 16 489 Z" fill="#EDF0FD" stroke="#0D32B2" stroke-width="2"/>
<path d="M 95 489 L 16 489 L 16 402 L 75 402 L 75 422 L 95 422 L 95 489 Z" fill="#EDF0FD" stroke="#0D32B2" stroke-width="2"/>
<path d="M 197 13 L 367 13 L 341 79 L 171 79 Z" fill="#DEE1EB" stroke="#0D32B2" stroke-width="2"/>
<path d="M 211 266.4583883751651 L 211 201 L 328 201 L 328 266.4583883751651 C 308.5 252.40290620871863 289 252.40290620871863 269.5 266.4583883751651 C 250 280.5138705416116 230.5 280.5138705416116 211 266.4583883751651 Z" fill="#EDF0FD" stroke="#0D32B2" stroke-width="2"/>
<path d="M 217 410 C 217 386 263.8 386 269 386 C 274.2 386 321 386 321 410 L 321 480 C 321 504 274.2 504 269 504 C 263.8 504 217 504 217 480 L 217 410 Z" fill="#EDF0FD" stroke="#0D32B2" stroke-width="2"/>
<path d="M 217 410 C 217 434 263.8 434 269 434 C 274.2 434 321 434 321 410" fill="#EDF0FD" stroke="#0D32B2" stroke-width="2"/>
<path d="M 451 13 L 544 13 C 568 13 568 42.7 568 46 C 568 49.3 568 79 544 79 L 451 79 C 437.8 79 427 49.3 427 46 C 427 42.7 437.8 13 451 13 Z" fill="#DEE1EB" stroke="#0D32B2" stroke-width="2"/>
<path d="M 544 13 C 520 13 520 42.7 520 46 C 520 49.3 520 79 544 79" fill="#DEE1EB" stroke="#0D32B2" stroke-width="2"/>
<path d="M 446 203 L 497.5 203 L 497.5 217.6 L 549 217.6 L 549 276 L 446 276 Z" fill="#EDF0FD" stroke="#0D32B2" stroke-width="2"/>
<path d="M 440 395 L 521 395 L 556 445.5 L 521 496 L 440 496 L 475 445.5 Z" fill="#EDF0FD" stroke="#0D32B2" stroke-width="2"/>
<path d="M 637 1 L 637 47 L 685 47 L 685 92 L 715 47 L 732 47 L 732 1 L 637 1 Z" fill="#FFFFFF" stroke="#0D32B2" stroke-width="2"/>
<path d="M 624 206 L 745 206 C 755.95 206 760 222.5 760 239 C 760 255.5 755.95 272 745 272 L 624 272 C 613.05 272 609 255.5 609 239 C 609 222.5 613.05 206 624 206 Z" fill="#EDF0FD" stroke="#0D32B2" stroke-width="2"/>
<path d="M 716 478 H 653 v -0.937984496124031 c 0 -11.25581395348837 6.91800878477306 -21.4031007751938 17.80234260614934 -26.26356589147287 C 664.8067349926794 446.8759689922481 661.2093704245974 440.48062015503876 661.2093704245974 433.48837209302326 C 661.2093704245974 421.6356589147287 671.6325036603221 412 684.4538799414348 412 c 12.82137628111274 0 23.244509516837482 9.635658914728682 23.244509516837482 21.488372093023255 c 0 6.992248062015503 -3.505124450951684 13.302325581395348 -9.592972181551978 17.3953488372093 c 10.884333821376282 4.8604651162790695 17.80234260614934 15.007751937984496 17.80234260614934 26.26356589147287 v 0.8527131782945736 Z" fill="#E3E9FD" stroke="#0D32B2" stroke-width="2"/>
<path d="M 870 92 C 869.3922077922077 92 868.987012987013 91.88036410923276 868.5818181818181 91.64109232769829 L 792.6077922077922 46.89726918075422 C 791.7974025974027 46.4187256176853 791.7974025974027 45.700910273081924 792.6077922077922 45.222366710013 L 868.5818181818181 0.35890767230169046 C 869.3922077922077 -0.11963589076723016 870.6077922077922 -0.11963589076723016 871.4181818181818 0.35890767230169046 L 947.3922077922077 45.222366710013 C 948.2025974025973 45.700910273081924 948.2025974025973 46.4187256176853 947.3922077922077 46.89726918075422 L 871.4181818181818 91.64109232769829 C 871.012987012987 91.88036410923276 870.6077922077922 92 870 92 Z" fill="#CFD2DD" stroke="#0D32B2" stroke-width="2"/>
<ellipse cx="870.5" cy="239" rx="48.5" ry="35" fill="#F7F8FE" stroke="#0D32B2" stroke-width="2"/>
<ellipse cx="870.5" cy="445.5" rx="51.5" ry="51.5" fill="#F7F8FE" stroke="#0D32B2" stroke-width="2"/>
<path d="M 1040 12 L 1104 12 L 1136 46.5 L 1104 81 L 1040 81 L 1008 46.5 Z" fill="#DEE1EB" stroke="#0D32B2" stroke-width="2"/>
<path d="M 1037.1878081534771 226.36514722753347 C 1037.1878081534771 227.25750669216063 1036.494973621103 228.14970554493308 1035.8022637889687 228.14970554493308 C 1026.9693717026378 229.26499426386235 1020.041525179856 240.6417743785851 1020.041525179856 254.47222179732313 C 1020.041525179856 269.1950286806883 1027.8352901678657 281.01782791587 1037.7074340527577 281.01782791587 H 1104.7338129496402 C 1115.2987913669065 281.01782791587 1123.9584748201437 268.3026692160612 1123.9584748201437 252.9107533460803 C 1123.9584748201437 238.1879464627151 1115.9913764988007 225.91896749521987 1105.9462733812948 225.02676864244742 C 1105.2534388489207 225.02676864244742 1104.5607290167864 224.35749904397707 1104.3875203836928 223.2422103250478 C 1102.135932853717 208.2964741873805 1091.7441630695441 197.14278393881455 1079.6206810551557 197.14278393881455 C 1071.6537074340526 197.14278393881455 1064.5526522781772 201.82734990439772 1060.0497266187049 209.188673040153 C 1059.5301007194244 210.08103250478015 1058.6641822541965 210.30412237093694 1058.144556354916 210.08103250478015 C 1056.4125947242205 209.188673040153 1054.5075491606713 208.7426539196941 1052.4291702637888 208.7426539196941 C 1044.462071942446 208.51940344168258 1037.8806426858514 216.32690630975142 1037.1878081534771 226.36514722753347 Z" fill="#FFFFFF" stroke="#0D32B2" stroke-width="2"/>
<path d="M 55.5 81 C 55.5 129.4 55.5 152 55.5 188" fill="none" stroke="#0D32B2" stroke-width="2" marker-end="url(#mk-161592640)" mask="url(#edge-label-mask)"/>
<path d="M 55.5 288 C 55.5 326 55.5 349.1 55.5 397.5" fill="none" stroke="#0D32B2" stroke-width="2" marker-end="url(#mk-161592640)" mask="url(#edge-label-mask)"/>
<path d="M 269 81 C 269 129.4 269 153.8 269 197" fill="none" stroke="#0D32B2" stroke-width="2" marker-end="url(#mk-161592640)" mask="url(#edge-label-mask)"/>
<path d="M 269 269 C 269 322.2 269 346 269 382" fill="none" stroke="#0D32B2" stroke-width="2" marker-end="url(#mk-161592640)" mask="url(#edge-label-mask)"/>
<path d="M 497.0158725159906 80.99993701481725 C 497.4 129.4 497.6 154.2 497.9672142161124 199.0001343657099" fill="none" stroke="#0D32B2" stroke-width="2" marker-end="url(#mk-161592640)" mask="url(#edge-label-mask)"/>
<path d="M 497.0166660879931 277.99993055917224 C 497.4 324 497.6 347.8 497.96610291211147 391.0001436291496" fill="none" stroke="#0D32B2" stroke-width="2" marker-end="url(#mk-161592640)" mask="url(#edge-label-mask)"/>
<path d="M 684.9894738300013 48.999972299744464 C 684.6 123 684.6 154.8 684.9687509536307 202.00012206472485" fill="none" stroke="#0D32B2" stroke-width="2" marker-end="url(#mk-161592640)" mask="url(#edge-label-mask)"/>
<path d="M 684.0156245231847 273.9999389676376 C 684.4 323.2 684.5 351.2 684.5 408" fill="none" stroke="#0D32B2" stroke-width="2" marker-end="url(#mk-161592640)" mask="url(#edge-label-mask)"/>
<path d="M 870 94 C 870 132 870 154.4 870 200" fill="none" stroke="#0D32B2" stroke-width="2" marker-end="url(#mk-161592640)" mask="url(#edge-label-mask)"/>
<path d="M 870 276 C 870 323.6 870 347.6 870 390" fill="none" stroke="#0D32B2" stroke-width="2" marker-end="url(#mk-161592640)" mask="url(#edge-label-mask)"/>
<path d="M 1072 83 C 1072 129.8 1072 153 1072 193" fill="none" stroke="#0D32B2" stroke-width="2" marker-end="url(#mk-161592640)" mask="url(#edge-label-mask)"/>
<text x="55.5" y="51.5" text-anchor="middle" dominant-baseline="alphabetic" font-family="Arial, sans-serif" font-size="16" style="fill: #0A0F25; font-weight: 700">rectangle</text>
<text x="56" y="244.5" text-anchor="middle" dominant-baseline="alphabetic" font-family="Arial, sans-serif" font-size="16" style="fill: #0A0F25; font-weight: 700">square</text>
<text x="55.5" y="451" text-anchor="middle" dominant-baseline="alphabetic" font-family="Arial, sans-serif" font-size="16" style="fill: #0A0F25; font-weight: 700">page</text>
<text x="269" y="51.5" text-anchor="middle" dominant-baseline="alphabetic" font-family="Arial, sans-serif" font-size="16" style="fill: #0A0F25; font-weight: 700">parallelogram</text>
<text x="269.5" y="234.610964332893" text-anchor="middle" dominant-baseline="alphabetic" font-family="Arial, sans-serif" font-size="16" style="fill: #0A0F25; font-weight: 700">document</text>
<text x="269" y="462.5" text-anchor="middle" dominant-baseline="alphabetic" font-family="Arial, sans-serif" font-size="16" style="fill: #0A0F25; font-weight: 700">cylinder</text>
<text x="485.5" y="51.5" text-anchor="middle" dominant-baseline="alphabetic" font-family="Arial, sans-serif" font-size="16" style="fill: #0A0F25; font-weight: 700">queue</text>
<text x="497.5" y="252.29999999999998" text-anchor="middle" dominant-baseline="alphabetic" font-family="Arial, sans-serif" font-size="16" style="fill: #0A0F25; font-weight: 700">package</text>
<text x="498" y="451" text-anchor="middle" dominant-baseline="alphabetic" font-family="Arial, sans-serif" font-size="16" style="fill: #0A0F25; font-weight: 700">step</text>
<text x="684.5" y="29.5" text-anchor="middle" dominant-baseline="alphabetic" font-family="Arial, sans-serif" font-size="16" style="fill: #0A0F25; font-weight: 700">callout</text>
<text x="684.5" y="244.5" text-anchor="middle" dominant-baseline="alphabetic" font-family="Arial, sans-serif" font-size="16" style="fill: #0A0F25; font-weight: 700">stored_data</text>
<text x="684.5" y="499" text-anchor="middle" dominant-baseline="alphabetic" font-family="Arial, sans-serif" font-size="16" style="fill: #0A0F25; font-weight: 700">person</text>
<text x="870" y="51.5" text-anchor="middle" dominant-baseline="alphabetic" font-family="Arial, sans-serif" font-size="16" style="fill: #0A0F25; font-weight: 700">diamond</text>
<text x="870.5" y="244.5" text-anchor="middle" dominant-baseline="alphabetic" font-family="Arial, sans-serif" font-size="16" style="fill: #0A0F25; font-weight: 700">oval</text>
<text x="870.5" y="451" text-anchor="middle" dominant-baseline="alphabetic" font-family="Arial, sans-serif" font-size="16" style="fill: #0A0F25; font-weight: 700">circle</text>
<text x="1072" y="52" text-anchor="middle" dominant-baseline="alphabetic" font-family="Arial, sans-serif" font-size="16" style="fill: #0A0F25; font-weight: 700">hexagon</text>
<text x="1071.588" y="260.51599999999996" text-anchor="middle" dominant-baseline="alphabetic" font-family="Arial, sans-serif" font-size="16" style="fill: #0A0F25; font-weight: 700">cloud</text>
</g>
</svg>
