<?xml version="1.0" encoding="UTF-8"?>
<svg xmlns="http://www.w3.org/2000/svg" width="1126.5" height="621" viewBox="-100 -100 1126.5 621" data-d2-version="0.1.0">
<defs><marker id="arrow-triangle" markerWidth="10" markerHeight="10" refX="10" refY="5" orient="auto" markerUnits="strokeWidth"><path d="M0,0 L10,5 L0,10 Z" fill="#0A0F25"/></marker>
<marker id="arrow-triangle-reverse" markerWidth="10" markerHeight="10" refX="0" refY="5" orient="auto" markerUnits="strokeWidth"><path d="M10,0 L0,5 L10,10 Z" fill="#0A0F25"/></marker>
<marker id="arrow-diamond" markerWidth="10" markerHeight="10" refX="10" refY="5" orient="auto" markerUnits="strokeWidth"><path d="M0,5 L5,0 L10,5 L5,10 Z" fill="#0A0F25"/></marker>
<marker id="arrow-diamond-reverse" markerWidth="10" markerHeight="10" refX="0" refY="5" orient="auto" markerUnits="strokeWidth"><path d="M0,5 L5,0 L10,5 L5,10 Z" fill="#0A0F25"/></marker>
<marker id="arrow-circle" markerWidth="10" markerHeight="10" refX="6" refY="5" orient="auto" markerUnits="strokeWidth"><circle cx="5" cy="5" r="4" fill="#0A0F25"/></marker>
<marker id="arrow-circle-reverse" markerWidth="10" markerHeight="10" refX="4" refY="5" orient="auto" markerUnits="strokeWidth"><circle cx="5" cy="5" r="4" fill="#0A0F25"/></marker>
<marker id="arrow-cf-one" markerWidth="10" markerHeight="10" refX="10" refY="5" orient="auto" markerUnits="strokeWidth"><line x1="10" y1="0" x2="10" y2="10" stroke="#0A0F25" stroke-width="2"/></marker>
<marker id="arrow-cf-one-reverse" markerWidth="10" markerHeight="10" refX="0" refY="5" orient="auto" markerUnits="strokeWidth"><line x1="0" y1="0" x2="0" y2="10" stroke="#0A0F25" stroke-width="2"/></marker>
<marker id="arrow-cf-many" markerWidth="10" markerHeight="10" refX="10" refY="5" orient="auto" markerUnits="strokeWidth"><path d="M0,5 L10,0 M0,5 L10,5 M0,5 L10,10" stroke="#0A0F25" stroke-width="2" fill="none"/></marker>
<marker id="arrow-cf-many-reverse" markerWidth="10" markerHeight="10" refX="0" refY="5" orient="auto" markerUnits="strokeWidth"><path d="M10,5 L0,0 M10,5 L0,5 M10,5 L0,10" stroke="#0A0F25" stroke-width="2" fill="none"/></marker>
<marker id="arrow-cf-one-required" markerWidth="10" markerHeight="10" refX="10" refY="5" orient="auto" markerUnits="strokeWidth"><line x1="10" y1="0" x2="10" y2="10" stroke="#0A0F25" stroke-width="2"/><line x1="7" y1="0" x2="7" y2="10" stroke="#0A0F25" stroke-width="2"/></marker>
<marker id="arrow-cf-one-required-reverse" markerWidth="10" markerHeight="10" refX="0" refY="5" orient="auto" markerUnits="strokeWidth"><line x1="0" y1="0" x2="0" y2="10" stroke="#0A0F25" stroke-width="2"/><line x1="3" y1="0" x2="3" y2="10" stroke="#0A0F25" stroke-width="2"/></marker>
<marker id="arrow-cf-many-required" markerWidth="10" markerHeight="10" refX="10" refY="5" orient="auto" markerUnits="strokeWidth"><path d="M0,5 L10,0 M0,5 L10,5 M0,5 L10,10" stroke="#0A0F25" stroke-width="2" fill="none"/><line x1="3" y1="0" x2="3" y2="10" stroke="#0A0F25" stroke-width="2"/></marker>
<marker id="arrow-cf-many-required-reverse" markerWidth="10" markerHeight="10" refX="0" refY="5" orient="auto" markerUnits="strokeWidth"><path d="M10,5 L0,0 M10,5 L0,5 M10,5 L0,10" stroke="#0A0F25" stroke-width="2" fill="none"/><line x1="7" y1="0" x2="7" y2="10" stroke="#0A0F25" stroke-width="2"/></marker>
<marker id="arrow-cf-one-optional" markerWidth="10" markerHeight="10" refX="10" refY="5" orient="auto" markerUnits="strokeWidth"><line x1="10" y1="0" x2="10" y2="10" stroke="#0A0F25" stroke-width="2"/><circle cx="7" cy="5" r="2" stroke="#0A0F25" stroke-width="2" fill="white"/></marker>
<marker id="arrow-cf-one-optional-reverse" markerWidth="10" markerHeight="10" refX="0" refY="5" orient="auto" markerUnits="strokeWidth"><line x1="0" y1="0" x2="0" y2="10" stroke="#0A0F25" stroke-width="2"/><circle cx="3" cy="5" r="2" stroke="#0A0F25" stroke-width="2" fill="white"/></marker>
<marker id="arrow-cf-many-optional" markerWidth="10" markerHeight="10" refX="10" refY="5" orient="auto" markerUnits="strokeWidth"><path d="M0,5 L10,0 M0,5 L10,5 M0,5 L10,10" stroke="#0A0F25" stroke-width="2" fill="none"/><circle cx="3" cy="5" r="2" stroke="#0A0F25" stroke-width="2" fill="white"/></marker>
<marker id="arrow-cf-many-optional-reverse" markerWidth="10" markerHeight="10" refX="0" refY="5" orient="auto" markerUnits="strokeWidth"><path d="M10,5 L0,0 M10,5 L0,5 M10,5 L0,10" stroke="#0A0F25" stroke-width="2" fill="none"/><circle cx="7" cy="5" r="2" stroke="#0A0F25" stroke-width="2" fill="white"/></marker>
<marker id="arrow-line" markerWidth="10" markerHeight="10" refX="10" refY="5" orient="auto" markerUnits="strokeWidth"><line x1="10" y1="0" x2="10" y2="10" stroke="#0A0F25" stroke-width="2"/></marker>
<marker id="arrow-line-reverse" markerWidth="10" markerHeight="10" refX="0" refY="5" orient="auto" markerUnits="strokeWidth"><line x1="0" y1="0" x2="0" y2="10" stroke="#0A0F25" stroke-width="2"/></marker>
<marker id="arrow-open" markerWidth="10" markerHeight="10" refX="10" refY="5" orient="auto" markerUnits="strokeWidth"><path d="M0,0 L10,5 L0,10" stroke="#0A0F25" stroke-width="2" fill="none"/></marker>
<marker id="arrow-open-reverse" markerWidth="10" markerHeight="10" refX="0" refY="5" orient="auto" markerUnits="strokeWidth"><path d="M10,0 L0,5 L10,10" stroke="#0A0F25" stroke-width="2" fill="none"/></marker>
<marker id="arrow" markerWidth="10" markerHeight="10" refX="10" refY="5" orient="auto" markerUnits="strokeWidth"><path d="M0,0 L10,5 L0,10 Z" fill="#0A0F25"/></marker>
<marker id="arrow-reverse" markerWidth="10" markerHeight="10" refX="0" refY="5" orient="auto" markerUnits="strokeWidth"><path d="M10,0 L0,5 L10,10 Z" fill="#0A0F25"/></marker>
</defs>
<rect width="100%" height="100%" fill="#FFFFFF"/>
<g id="base-layer">
<rect x="0" y="0" width="113" height="66" fill="#FFFFFF" stroke="#0A0F25" stroke-width="2" rx="0" ry="0"/>
<rect x="15.5" y="166" width="82" height="82" fill="#FFFFFF" stroke="#0A0F25" stroke-width="2" rx="0" ry="0"/>
<path d="M 15.5 351.5 L 77.5 351.5 L 97.5 371.5 L 97.5 417.5 L 15.5 417.5 Z" fill="#FFFFFF" stroke="#0A0F25" stroke-width="2"/>
<path d="M 77.5 351.5 L 77.5 371.5 L 97.5 371.5" fill="none" stroke="#0A0F25" stroke-width="2"/>
<polygon points="189,0 307,0 281,66 163,66" fill="#FFFFFF" stroke="#0A0F25" stroke-width="2"/>
<path d="M 175 174 L 295 174 L 295 230.1 C 265 220.2 235 240 205 230.1 C 187 225.15 175 230.1 175 230.1 Z" fill="#FFFFFF" stroke="#0A0F25" stroke-width="2"/>
<path d="M 182.5 375.5 C 182.5 351.5 229.75 351.5 235 351.5 C 240.25 351.5 287.5 351.5 287.5 375.5 L 287.5 393.5 C 287.5 417.5 240.25 417.5 235 417.5 C 229.75 417.5 182.5 417.5 182.5 393.5 L 182.5 375.5 Z" fill="#FFFFFF" stroke="#0A0F25" stroke-width="2"/>
<ellipse cx="235" cy="375.5" rx="52.5" ry="24" fill="none" stroke="none" stroke-width="0"/>
<path d="M 182.5 375.5 C 182.5 399.5 229.75 399.5 235 399.5 C 240.25 399.5 287.5 399.5 287.5 375.5" fill="none" stroke="#0A0F25" stroke-width="2"/>
<path d="M 372 0 L 435 0 C 443.25 0 450 16.5 450 33 C 450 49.5 443.25 66 435 66 L 372 66 C 363.75 66 357 49.5 357 33 C 357 16.5 363.75 0 372 0 Z" fill="#FFFFFF" stroke="#0A0F25" stroke-width="2"/>
<path d="M 350.5 174 L 400.5 174 L 400.5 187.2 L 456.5 187.2 L 456.5 240 L 350.5 240 Z" fill="#FFFFFF" stroke="#0A0F25" stroke-width="2"/>
<polygon points="363.5,351.5 408.5,351.5 443.5,384.5 408.5,417.5 363.5,417.5 398.5,384.5" fill="#FFFFFF" stroke="#0A0F25" stroke-width="2"/>
<path d="M 523.5 0 L 620.5 0 L 620.5 33 L 602 33 L 572 66 L 542 33 L 523.5 33 Z" fill="#FFFFFF" stroke="#0A0F25" stroke-width="2"/>
<path d="M 521.5 174 L 622.5 174 C 633.45 174 637.5 190.5 637.5 207 C 637.5 223.5 633.45 240 622.5 240 L 521.5 240 C 510.55 240 506.5 223.5 506.5 207 C 506.5 190.5 510.55 174 521.5 174 Z" fill="#FFFFFF" stroke="#0A0F25" stroke-width="2"/>
<path d="M 619.5 417.5 H 524.5 v -0.937984496124031 c 0 -11.25581395348837 10.431918008784773 -21.4031007751938 26.84480234260615 -26.26356589147287 C 542.3038067349927 386.3759689922481 536.8792093704246 379.98062015503876 536.8792093704246 372.98837209302326 C 536.8792093704246 361.1356589147287 552.5966325036603 351.5 571.9304538799414 351.5 c 19.33382137628111 0 35.051244509516835 9.635658914728682 35.051244509516835 21.488372093023255 c 0 6.992248062015503 -5.285505124450951 13.302325581395348 -14.465592972181552 17.3953488372093 c 16.412884333821378 4.8604651162790695 26.84480234260615 15.007751937984496 26.84480234260615 26.26356589147287 v 0.8527131782945736 Z" fill="#FFFFFF" stroke="#0A0F25" stroke-width="2"/>
<polygon points="720.5,7.5 770.5,33 720.5,58.5 670.5,33" fill="#FFFFFF" stroke="#0A0F25" stroke-width="2"/>
<ellipse cx="720.5" cy="207" rx="32.5" ry="32.5" fill="#FFFFFF" stroke="#0A0F25" stroke-width="2"/>
<ellipse cx="720.5" cy="384.5" rx="36.5" ry="36.5" fill="#FFFFFF" stroke="#0A0F25" stroke-width="2"/>
<polygon points="847,0 900,0 926.5,33 900,66 847,66 820.5,33" fill="#FFFFFF" stroke="#0A0F25" stroke-width="2"/>
<path d="M 844.3782625899281 197.0726156787763 C 844.3782625899281 197.7737552581262 843.7986798561152 198.47476864244743 843.2192014388489 198.47476864244743 C 835.8301474820144 199.35106692160613 830.0347374100719 208.289965583174 830.0347374100719 219.15674569789675 C 830.0347374100719 230.7246653919694 836.5545215827337 240.01400764818356 844.8129496402877 240.01400764818356 H 900.8830935251798 C 909.7211043165466 240.01400764818356 916.965262589928 230.0235258126195 916.965262589928 217.9298776290631 C 916.965262589928 206.36195793499044 910.3004784172662 196.72204588910134 901.8973633093525 196.02103250478012 C 901.3177805755396 196.02103250478012 900.7383021582733 195.49517782026768 900.5934064748201 194.61887954110898 C 898.7098669064748 182.87580114722752 890.0167517985611 174.11218738049712 879.8749928057554 174.11218738049712 C 873.2103129496403 174.11218738049712 867.2700071942446 177.79291778202676 863.5031366906475 183.57681453154873 C 863.0684496402878 184.27795411089863 862.3440755395683 184.45323900573612 861.9093884892086 184.27795411089863 C 860.460535971223 183.57681453154873 858.866892086331 183.22637093690247 857.1282482014389 183.22637093690247 C 850.463464028777 183.05095984703632 844.957845323741 189.18542638623327 844.3782625899281 197.0726156787763 Z" fill="#FFFFFF" stroke="#0A0F25" stroke-width="2"/>
<path d="M 56.5 66 C 56.5 106 56.5 126 56.5 166" fill="none" stroke="#0A0F25" stroke-width="2" marker-end="url(#arrow-triangle)"/>
<path d="M 56.5 248 C 56.5 289.4 56.5 310.1 56.5 351.5" fill="none" stroke="#0A0F25" stroke-width="2" marker-end="url(#arrow-triangle)"/>
<path d="M 235 66 C 235 109.2 235 130.8 235 174" fill="none" stroke="#0A0F25" stroke-width="2" marker-end="url(#arrow-triangle)"/>
<path d="M 235 240 C 235 284.6 235 306.9 235 351.5" fill="none" stroke="#0A0F25" stroke-width="2" marker-end="url(#arrow-triangle)"/>
<path d="M 403.5 66 C 403.5 109.2 403.5 130.8 403.5 174" fill="none" stroke="#0A0F25" stroke-width="2" marker-end="url(#arrow-triangle)"/>
<path d="M 403.5 240 C 403.5 284.6 403.5 306.9 403.5 351.5" fill="none" stroke="#0A0F25" stroke-width="2" marker-end="url(#arrow-triangle)"/>
<path d="M 572 66 C 572 109.2 572 130.8 572 174" fill="none" stroke="#0A0F25" stroke-width="2" marker-end="url(#arrow-triangle)"/>
<path d="M 572 240 C 572 284.6 572 306.9 572 351.5" fill="none" stroke="#0A0F25" stroke-width="2" marker-end="url(#arrow-triangle)"/>
<path d="M 720.5 58.5 C 720.5 104.9 720.5 128.1 720.5 174.5" fill="none" stroke="#0A0F25" stroke-width="2" marker-end="url(#arrow-triangle)"/>
<path d="M 720.5 239.5 C 720.5 282.9 720.5 304.6 720.5 348" fill="none" stroke="#0A0F25" stroke-width="2" marker-end="url(#arrow-triangle)"/>
<path d="M 873.5 66 C 873.5 109.2 873.5 130.8 873.5 174" fill="none" stroke="#0A0F25" stroke-width="2" marker-end="url(#arrow-triangle)"/>
<text x="56.5" y="38.44" text-anchor="middle" dominant-baseline="alphabetic" font-family="Arial, sans-serif" font-size="16" style="fill: #0A0F25">rectangle</text>
<text x="56.5" y="212.44" text-anchor="middle" dominant-baseline="alphabetic" font-family="Arial, sans-serif" font-size="16" style="fill: #0A0F25">square</text>
<text x="56.5" y="389.94" text-anchor="middle" dominant-baseline="alphabetic" font-family="Arial, sans-serif" font-size="16" style="fill: #0A0F25">page</text>
<text x="235" y="38.44" text-anchor="middle" dominant-baseline="alphabetic" font-family="Arial, sans-serif" font-size="16" style="fill: #0A0F25">parallelogram</text>
<text x="235" y="212.44" text-anchor="middle" dominant-baseline="alphabetic" font-family="Arial, sans-serif" font-size="16" style="fill: #0A0F25">document</text>
<text x="235" y="389.94" text-anchor="middle" dominant-baseline="alphabetic" font-family="Arial, sans-serif" font-size="16" style="fill: #0A0F25">cylinder</text>
<text x="403.5" y="38.44" text-anchor="middle" dominant-baseline="alphabetic" font-family="Arial, sans-serif" font-size="16" style="fill: #0A0F25">queue</text>
<text x="403.5" y="212.44" text-anchor="middle" dominant-baseline="alphabetic" font-family="Arial, sans-serif" font-size="16" style="fill: #0A0F25">package</text>
<text x="403.5" y="389.94" text-anchor="middle" dominant-baseline="alphabetic" font-family="Arial, sans-serif" font-size="16" style="fill: #0A0F25">step</text>
<text x="572" y="38.44" text-anchor="middle" dominant-baseline="alphabetic" font-family="Arial, sans-serif" font-size="16" style="fill: #0A0F25">callout</text>
<text x="572" y="212.44" text-anchor="middle" dominant-baseline="alphabetic" font-family="Arial, sans-serif" font-size="16" style="fill: #0A0F25">stored_data</text>
<text x="572" y="389.94" text-anchor="middle" dominant-baseline="alphabetic" font-family="Arial, sans-serif" font-size="16" style="fill: #0A0F25">person</text>
<text x="720.5" y="38.44" text-anchor="middle" dominant-baseline="alphabetic" font-family="Arial, sans-serif" font-size="16" style="fill: #0A0F25">diamond</text>
<text x="720.5" y="212.44" text-anchor="middle" dominant-baseline="alphabetic" font-family="Arial, sans-serif" font-size="16" style="fill: #0A0F25">oval</text>
<text x="720.5" y="389.94" text-anchor="middle" dominant-baseline="alphabetic" font-family="Arial, sans-serif" font-size="16" style="fill: #0A0F25">circle</text>
<text x="873.5" y="38.44" text-anchor="middle" dominant-baseline="alphabetic" font-family="Arial, sans-serif" font-size="16" style="fill: #0A0F25">hexagon</text>
<text x="873.5" y="212.44" text-anchor="middle" dominant-baseline="alphabetic" font-family="Arial, sans-serif" font-size="16" style="fill: #0A0F25">cloud</text>
</g>
</svg>
