<?xml version="1.0" encoding="UTF-8"?>
<svg xmlns="http://www.w3.org/2000/svg" width="900" height="520" viewBox="-50 -50 900 520" data-d2-version="0.1.0">
<defs><marker id="arrow-triangle" markerWidth="10" markerHeight="10" refX="10" refY="5" orient="auto" markerUnits="strokeWidth"><path d="M0,0 L10,5 L0,10 Z" fill="#0A0F25"/></marker>
<marker id="arrow-triangle-reverse" markerWidth="10" markerHeight="10" refX="0" refY="5" orient="auto" markerUnits="strokeWidth"><path d="M10,0 L0,5 L10,10 Z" fill="#0A0F25"/></marker>
<marker id="arrow-diamond" markerWidth="10" markerHeight="10" refX="10" refY="5" orient="auto" markerUnits="strokeWidth"><path d="M0,5 L5,0 L10,5 L5,10 Z" fill="#0A0F25"/></marker>
<marker id="arrow-diamond-reverse" markerWidth="10" markerHeight="10" refX="0" refY="5" orient="auto" markerUnits="strokeWidth"><path d="M0,5 L5,0 L10,5 L5,10 Z" fill="#0A0F25"/></marker>
<marker id="arrow-circle" markerWidth="10" markerHeight="10" refX="6" refY="5" orient="auto" markerUnits="strokeWidth"><circle cx="5" cy="5" r="4" fill="#0A0F25"/></marker>
<marker id="arrow-circle-reverse" markerWidth="10" markerHeight="10" refX="4" refY="5" orient="auto" markerUnits="strokeWidth"><circle cx="5" cy="5" r="4" fill="#0A0F25"/></marker>
<marker id="arrow-cf-one" markerWidth="10" markerHeight="10" refX="10" refY="5" orient="auto" markerUnits="strokeWidth"><line x1="10" y1="0" x2="10" y2="10" stroke="#0A0F25" stroke-width="2"/></marker>
<marker id="arrow-cf-one-reverse" markerWidth="10" markerHeight="10" refX="0" refY="5" orient="auto" markerUnits="strokeWidth"><line x1="0" y1="0" x2="0" y2="10" stroke="#0A0F25" stroke-width="2"/></marker>
<marker id="arrow-cf-many" markerWidth="10" markerHeight="10" refX="10" refY="5" orient="auto" markerUnits="strokeWidth"><path d="M0,5 L10,0 M0,5 L10,5 M0,5 L10,10" stroke="#0A0F25" stroke-width="2" fill="none"/></marker>
<marker id="arrow-cf-many-reverse" markerWidth="10" markerHeight="10" refX="0" refY="5" orient="auto" markerUnits="strokeWidth"><path d="M10,5 L0,0 M10,5 L0,5 M10,5 L0,10" stroke="#0A0F25" stroke-width="2" fill="none"/></marker>
<marker id="arrow-cf-one-required" markerWidth="10" markerHeight="10" refX="10" refY="5" orient="auto" markerUnits="strokeWidth"><line x1="10" y1="0" x2="10" y2="10" stroke="#0A0F25" stroke-width="2"/><line x1="7" y1="0" x2="7" y2="10" stroke="#0A0F25" stroke-width="2"/></marker>
<marker id="arrow-cf-one-required-reverse" markerWidth="10" markerHeight="10" refX="0" refY="5" orient="auto" markerUnits="strokeWidth"><line x1="0" y1="0" x2="0" y2="10" stroke="#0A0F25" stroke-width="2"/><line x1="3" y1="0" x2="3" y2="10" stroke="#0A0F25" stroke-width="2"/></marker>
<marker id="arrow-cf-many-required" markerWidth="10" markerHeight="10" refX="10" refY="5" orient="auto" markerUnits="strokeWidth"><path d="M0,5 L10,0 M0,5 L10,5 M0,5 L10,10" stroke="#0A0F25" stroke-width="2" fill="none"/><line x1="3" y1="0" x2="3" y2="10" stroke="#0A0F25" stroke-width="2"/></marker>
<marker id="arrow-cf-many-required-reverse" markerWidth="10" markerHeight="10" refX="0" refY="5" orient="auto" markerUnits="strokeWidth"><path d="M10,5 L0,0 M10,5 L0,5 M10,5 L0,10" stroke="#0A0F25" stroke-width="2" fill="none"/><line x1="7" y1="0" x2="7" y2="10" stroke="#0A0F25" stroke-width="2"/></marker>
<marker id="arrow-cf-one-optional" markerWidth="10" markerHeight="10" refX="10" refY="5" orient="auto" markerUnits="strokeWidth"><line x1="10" y1="0" x2="10" y2="10" stroke="#0A0F25" stroke-width="2"/><circle cx="7" cy="5" r="2" stroke="#0A0F25" stroke-width="2" fill="white"/></marker>
<marker id="arrow-cf-one-optional-reverse" markerWidth="10" markerHeight="10" refX="0" refY="5" orient="auto" markerUnits="strokeWidth"><line x1="0" y1="0" x2="0" y2="10" stroke="#0A0F25" stroke-width="2"/><circle cx="3" cy="5" r="2" stroke="#0A0F25" stroke-width="2" fill="white"/></marker>
<marker id="arrow-cf-many-optional" markerWidth="10" markerHeight="10" refX="10" refY="5" orient="auto" markerUnits="strokeWidth"><path d="M0,5 L10,0 M0,5 L10,5 M0,5 L10,10" stroke="#0A0F25" stroke-width="2" fill="none"/><circle cx="3" cy="5" r="2" stroke="#0A0F25" stroke-width="2" fill="white"/></marker>
<marker id="arrow-cf-many-optional-reverse" markerWidth="10" markerHeight="10" refX="0" refY="5" orient="auto" markerUnits="strokeWidth"><path d="M10,5 L0,0 M10,5 L0,5 M10,5 L0,10" stroke="#0A0F25" stroke-width="2" fill="none"/><circle cx="7" cy="5" r="2" stroke="#0A0F25" stroke-width="2" fill="white"/></marker>
<marker id="arrow-line" markerWidth="10" markerHeight="10" refX="10" refY="5" orient="auto" markerUnits="strokeWidth"><line x1="10" y1="0" x2="10" y2="10" stroke="#0A0F25" stroke-width="2"/></marker>
<marker id="arrow-line-reverse" markerWidth="10" markerHeight="10" refX="0" refY="5" orient="auto" markerUnits="strokeWidth"><line x1="0" y1="0" x2="0" y2="10" stroke="#0A0F25" stroke-width="2"/></marker>
<marker id="arrow-open" markerWidth="10" markerHeight="10" refX="10" refY="5" orient="auto" markerUnits="strokeWidth"><path d="M0,0 L10,5 L0,10" stroke="#0A0F25" stroke-width="2" fill="none"/></marker>
<marker id="arrow-open-reverse" markerWidth="10" markerHeight="10" refX="0" refY="5" orient="auto" markerUnits="strokeWidth"><path d="M10,0 L0,5 L10,10" stroke="#0A0F25" stroke-width="2" fill="none"/></marker>
<marker id="arrow" markerWidth="10" markerHeight="10" refX="10" refY="5" orient="auto" markerUnits="strokeWidth"><path d="M0,0 L10,5 L0,10 Z" fill="#0A0F25"/></marker>
<marker id="arrow-reverse" markerWidth="10" markerHeight="10" refX="0" refY="5" orient="auto" markerUnits="strokeWidth"><path d="M10,0 L0,5 L10,10 Z" fill="#0A0F25"/></marker>
</defs>
<rect width="100%" height="100%" fill="#FFFFFF"/>
<g id="base-layer">
<rect x="50" y="50" width="100" height="60" fill="#FFFFFF" stroke="#0A0F25" stroke-width="2" rx="0" ry="0"/>
<rect x="50" y="180" width="100" height="60" fill="#FFFFFF" stroke="#0A0F25" stroke-width="2" rx="0" ry="0"/>
<path d="M 50 310 L 130 310 L 150 330 L 150 370 L 50 370 Z" fill="#FFFFFF" stroke="#0A0F25" stroke-width="2"/>
<path d="M 130 310 L 130 330 L 150 330" fill="none" stroke="#0A0F25" stroke-width="2"/>
<polygon points="196,50 270,50 244,110 170,110" fill="#FFFFFF" stroke="#0A0F25" stroke-width="2"/>
<path d="M 170 180 L 270 180 L 270 231 C 245 222 220 240 195 231 C 180 226.5 170 231 170 231 Z" fill="#FFFFFF" stroke="#0A0F25" stroke-width="2"/>
<path d="M 170 334 C 170 310 215 310 220 310 C 225 310 270 310 270 334 L 270 346 C 270 370 225 370 220 370 C 215 370 170 370 170 346 L 170 334 Z" fill="#FFFFFF" stroke="#0A0F25" stroke-width="2"/>
<ellipse cx="220" cy="334" rx="50" ry="24" fill="none" stroke="none" stroke-width="0"/>
<path d="M 170 334 C 170 358 215 358 220 358 C 225 358 270 358 270 334" fill="none" stroke="#0A0F25" stroke-width="2"/>
<path d="M 305 50 L 375 50 C 383.25 50 390 65 390 80 C 390 95 383.25 110 375 110 L 305 110 C 296.75 110 290 95 290 80 C 290 65 296.75 50 305 50 Z" fill="#FFFFFF" stroke="#0A0F25" stroke-width="2"/>
<path d="M 290 180 L 340 180 L 340 192 L 390 192 L 390 240 L 290 240 Z" fill="#FFFFFF" stroke="#0A0F25" stroke-width="2"/>
<polygon points="290,310 355,310 390,340 355,370 290,370 325,340" fill="#FFFFFF" stroke="#0A0F25" stroke-width="2"/>
<path d="M 410 50 L 510 50 L 510 80 L 490 80 L 460 110 L 430 80 L 410 80 Z" fill="#FFFFFF" stroke="#0A0F25" stroke-width="2"/>
<path d="M 425 180 L 495 180 C 505.95 180 510 195 510 210 C 510 225 505.95 240 495 240 L 425 240 C 414.05 240 410 225 410 210 C 410 195 414.05 180 425 180 Z" fill="#FFFFFF" stroke="#0A0F25" stroke-width="2"/>
<path d="M 510 370 H 410 v -0.8527131782945736 c 0 -10.232558139534882 10.980966325036604 -19.45736434108527 28.25768667642753 -23.875968992248062 C 428.74084919472915 341.70542635658916 423.0307467057101 335.8914728682171 423.0307467057101 329.5348837209302 C 423.0307467057101 318.7596899224806 439.57540263543194 310 459.9267935578331 310 c 20.351390922401173 0 36.896046852122986 8.75968992248062 36.896046852122986 19.53488372093023 c 0 6.356589147286821 -5.563689604685212 12.093023255813952 -15.226939970717424 15.813953488372091 c 17.276720351390924 4.4186046511627906 28.25768667642753 13.643410852713178 28.25768667642753 23.875968992248062 v 0.7751937984496123 Z" fill="#FFFFFF" stroke="#0A0F25" stroke-width="2"/>
<polygon points="580,50 630,80 580,110 530,80" fill="#FFFFFF" stroke="#0A0F25" stroke-width="2"/>
<ellipse cx="580" cy="210" rx="50" ry="30" fill="#FFFFFF" stroke="#0A0F25" stroke-width="2"/>
<ellipse cx="580" cy="340" rx="50" ry="30" fill="#FFFFFF" stroke="#0A0F25" stroke-width="2"/>
<polygon points="675,50 725,50 750,80 725,110 675,110 650,80" fill="#FFFFFF" stroke="#0A0F25" stroke-width="2"/>
<path d="M 666.5267386091127 200.9751051625239 C 666.5267386091127 201.61250478011473 665.8605515587531 202.2497896749522 665.19448441247 202.2497896749522 C 656.7013189448442 203.0464244741874 650.039928057554 211.17269598470364 650.039928057554 221.05158699808797 C 650.039928057554 231.5678776290631 657.533932853717 240.01273422562144 667.0263788968825 240.01273422562144 H 731.4748201438849 C 741.6334532374101 240.01273422562144 749.9600719424461 230.9304780114723 749.9600719424461 219.9362523900574 C 749.9600719424461 209.41996175908227 742.2994004796163 200.65640535372853 732.6406474820145 200.01912045889105 C 731.9744604316548 200.01912045889105 731.3083932853718 199.54107074569794 731.1418465227819 198.74443594646274 C 728.9768585131895 188.06891013384325 718.9847721822542 180.1019885277247 707.32757793765 180.1019885277247 C 699.6670263788969 180.1019885277247 692.8390887290169 183.44810707456983 688.5093525179857 188.70619502868072 C 688.0097122302159 189.34359464627155 687.177098321343 189.50294455066924 686.6774580335732 189.34359464627155 C 685.0121103117507 188.70619502868072 683.180335731415 188.38760994263868 681.1818944844125 188.38760994263868 C 673.5212230215827 188.22814531548758 667.1929256594724 193.80493307839387 666.5267386091127 200.9751051625239 Z" fill="#FFFFFF" stroke="#0A0F25" stroke-width="2"/>
<path d="M 100 110 L 100 145 L 100 180" fill="none" stroke="#0A0F25" stroke-width="2" marker-end="url(#arrow-triangle)"/>
<path d="M 100 240 L 100 275 L 100 310" fill="none" stroke="#0A0F25" stroke-width="2" marker-end="url(#arrow-triangle)"/>
<path d="M 220 110 L 220 145 L 220 180" fill="none" stroke="#0A0F25" stroke-width="2" marker-end="url(#arrow-triangle)"/>
<path d="M 220 240 L 220 275 L 220 310" fill="none" stroke="#0A0F25" stroke-width="2" marker-end="url(#arrow-triangle)"/>
<path d="M 340 110 L 340 145 L 340 180" fill="none" stroke="#0A0F25" stroke-width="2" marker-end="url(#arrow-triangle)"/>
<path d="M 340 240 L 340 275 L 340 310" fill="none" stroke="#0A0F25" stroke-width="2" marker-end="url(#arrow-triangle)"/>
<path d="M 460 110 L 460 145 L 460 180" fill="none" stroke="#0A0F25" stroke-width="2" marker-end="url(#arrow-triangle)"/>
<path d="M 460 240 L 460 275 L 460 310" fill="none" stroke="#0A0F25" stroke-width="2" marker-end="url(#arrow-triangle)"/>
<path d="M 580 110 L 580 145 L 580 180" fill="none" stroke="#0A0F25" stroke-width="2" marker-end="url(#arrow-triangle)"/>
<path d="M 580 240 L 580 275 L 580 310" fill="none" stroke="#0A0F25" stroke-width="2" marker-end="url(#arrow-triangle)"/>
<path d="M 700 110 L 700 145 L 700 180" fill="none" stroke="#0A0F25" stroke-width="2" marker-end="url(#arrow-triangle)"/>
<text x="100" y="80" text-anchor="middle" dominant-baseline="middle" font-family="Arial, sans-serif" font-size="16">rectangle</text>
<text x="100" y="210" text-anchor="middle" dominant-baseline="middle" font-family="Arial, sans-serif" font-size="16">square</text>
<text x="100" y="340" text-anchor="middle" dominant-baseline="middle" font-family="Arial, sans-serif" font-size="16">page</text>
<text x="220" y="80" text-anchor="middle" dominant-baseline="middle" font-family="Arial, sans-serif" font-size="16">parallelogram</text>
<text x="220" y="210" text-anchor="middle" dominant-baseline="middle" font-family="Arial, sans-serif" font-size="16">document</text>
<text x="220" y="340" text-anchor="middle" dominant-baseline="middle" font-family="Arial, sans-serif" font-size="16">cylinder</text>
<text x="340" y="80" text-anchor="middle" dominant-baseline="middle" font-family="Arial, sans-serif" font-size="16">queue</text>
<text x="340" y="210" text-anchor="middle" dominant-baseline="middle" font-family="Arial, sans-serif" font-size="16">package</text>
<text x="340" y="340" text-anchor="middle" dominant-baseline="middle" font-family="Arial, sans-serif" font-size="16">step</text>
<text x="460" y="80" text-anchor="middle" dominant-baseline="middle" font-family="Arial, sans-serif" font-size="16">callout</text>
<text x="460" y="210" text-anchor="middle" dominant-baseline="middle" font-family="Arial, sans-serif" font-size="16">stored_data</text>
<text x="460" y="340" text-anchor="middle" dominant-baseline="middle" font-family="Arial, sans-serif" font-size="16">person</text>
<text x="580" y="80" text-anchor="middle" dominant-baseline="middle" font-family="Arial, sans-serif" font-size="16">diamond</text>
<text x="580" y="210" text-anchor="middle" dominant-baseline="middle" font-family="Arial, sans-serif" font-size="16">oval</text>
<text x="580" y="340" text-anchor="middle" dominant-baseline="middle" font-family="Arial, sans-serif" font-size="16">circle</text>
<text x="700" y="80" text-anchor="middle" dominant-baseline="middle" font-family="Arial, sans-serif" font-size="16">hexagon</text>
<text x="700" y="210" text-anchor="middle" dominant-baseline="middle" font-family="Arial, sans-serif" font-size="16">cloud</text>
</g>
</svg>
