<?xml version="1.0" encoding="UTF-8"?>
<svg xmlns="http://www.w3.org/2000/svg" width="1336" height="704" viewBox="-100 -100 1336 704" data-d2-version="0.2.0">
<defs><marker id="arrow-triangle" markerWidth="10" markerHeight="10" refX="10" refY="5" orient="auto" markerUnits="strokeWidth"><path d="M0,0 L10,5 L0,10 Z" fill="#0A0F25"/></marker>
<marker id="arrow-triangle-reverse" markerWidth="10" markerHeight="10" refX="0" refY="5" orient="auto" markerUnits="strokeWidth"><path d="M10,0 L0,5 L10,10 Z" fill="#0A0F25"/></marker>
<marker id="arrow-diamond" markerWidth="10" markerHeight="10" refX="10" refY="5" orient="auto" markerUnits="strokeWidth"><path d="M0,5 L5,0 L10,5 L5,10 Z" fill="#0A0F25"/></marker>
<marker id="arrow-diamond-reverse" markerWidth="10" markerHeight="10" refX="0" refY="5" orient="auto" markerUnits="strokeWidth"><path d="M0,5 L5,0 L10,5 L5,10 Z" fill="#0A0F25"/></marker>
<marker id="arrow-circle" markerWidth="10" markerHeight="10" refX="6" refY="5" orient="auto" markerUnits="strokeWidth"><circle cx="5" cy="5" r="4" fill="#0A0F25"/></marker>
<marker id="arrow-circle-reverse" markerWidth="10" markerHeight="10" refX="4" refY="5" orient="auto" markerUnits="strokeWidth"><circle cx="5" cy="5" r="4" fill="#0A0F25"/></marker>
<marker id="arrow-cf-one" markerWidth="10" markerHeight="10" refX="10" refY="5" orient="auto" markerUnits="strokeWidth"><line x1="10" y1="0" x2="10" y2="10" stroke="#0A0F25" stroke-width="2"/></marker>
<marker id="arrow-cf-one-reverse" markerWidth="10" markerHeight="10" refX="0" refY="5" orient="auto" markerUnits="strokeWidth"><line x1="0" y1="0" x2="0" y2="10" stroke="#0A0F25" stroke-width="2"/></marker>
<marker id="arrow-cf-many" markerWidth="10" markerHeight="10" refX="10" refY="5" orient="auto" markerUnits="strokeWidth"><path d="M0,5 L10,0 M0,5 L10,5 M0,5 L10,10" stroke="#0A0F25" stroke-width="2" fill="none"/></marker>
<marker id="arrow-cf-many-reverse" markerWidth="10" markerHeight="10" refX="0" refY="5" orient="auto" markerUnits="strokeWidth"><path d="M10,5 L0,0 M10,5 L0,5 M10,5 L0,10" stroke="#0A0F25" stroke-width="2" fill="none"/></marker>
<marker id="arrow-cf-one-required" markerWidth="10" markerHeight="10" refX="10" refY="5" orient="auto" markerUnits="strokeWidth"><line x1="10" y1="0" x2="10" y2="10" stroke="#0A0F25" stroke-width="2"/><line x1="7" y1="0" x2="7" y2="10" stroke="#0A0F25" stroke-width="2"/></marker>
<marker id="arrow-cf-one-required-reverse" markerWidth="10" markerHeight="10" refX="0" refY="5" orient="auto" markerUnits="strokeWidth"><line x1="0" y1="0" x2="0" y2="10" stroke="#0A0F25" stroke-width="2"/><line x1="3" y1="0" x2="3" y2="10" stroke="#0A0F25" stroke-width="2"/></marker>
<marker id="arrow-cf-many-required" markerWidth="10" markerHeight="10" refX="10" refY="5" orient="auto" markerUnits="strokeWidth"><path d="M0,5 L10,0 M0,5 L10,5 M0,5 L10,10" stroke="#0A0F25" stroke-width="2" fill="none"/><line x1="3" y1="0" x2="3" y2="10" stroke="#0A0F25" stroke-width="2"/></marker>
<marker id="arrow-cf-many-required-reverse" markerWidth="10" markerHeight="10" refX="0" refY="5" orient="auto" markerUnits="strokeWidth"><path d="M10,5 L0,0 M10,5 L0,5 M10,5 L0,10" stroke="#0A0F25" stroke-width="2" fill="none"/><line x1="7" y1="0" x2="7" y2="10" stroke="#0A0F25" stroke-width="2"/></marker>
<marker id="arrow-cf-one-optional" markerWidth="10" markerHeight="10" refX="10" refY="5" orient="auto" markerUnits="strokeWidth"><line x1="10" y1="0" x2="10" y2="10" stroke="#0A0F25" stroke-width="2"/><circle cx="7" cy="5" r="2" stroke="#0A0F25" stroke-width="2" fill="white"/></marker>
<marker id="arrow-cf-one-optional-reverse" markerWidth="10" markerHeight="10" refX="0" refY="5" orient="auto" markerUnits="strokeWidth"><line x1="0" y1="0" x2="0" y2="10" stroke="#0A0F25" stroke-width="2"/><circle cx="3" cy="5" r="2" stroke="#0A0F25" stroke-width="2" fill="white"/></marker>
<marker id="arrow-cf-many-optional" markerWidth="10" markerHeight="10" refX="10" refY="5" orient="auto" markerUnits="strokeWidth"><path d="M0,5 L10,0 M0,5 L10,5 M0,5 L10,10" stroke="#0A0F25" stroke-width="2" fill="none"/><circle cx="3" cy="5" r="2" stroke="#0A0F25" stroke-width="2" fill="white"/></marker>
<marker id="arrow-cf-many-optional-reverse" markerWidth="10" markerHeight="10" refX="0" refY="5" orient="auto" markerUnits="strokeWidth"><path d="M10,5 L0,0 M10,5 L0,5 M10,5 L0,10" stroke="#0A0F25" stroke-width="2" fill="none"/><circle cx="7" cy="5" r="2" stroke="#0A0F25" stroke-width="2" fill="white"/></marker>
<marker id="arrow-line" markerWidth="10" markerHeight="10" refX="10" refY="5" orient="auto" markerUnits="strokeWidth"><line x1="10" y1="0" x2="10" y2="10" stroke="#0A0F25" stroke-width="2"/></marker>
<marker id="arrow-line-reverse" markerWidth="10" markerHeight="10" refX="0" refY="5" orient="auto" markerUnits="strokeWidth"><line x1="0" y1="0" x2="0" y2="10" stroke="#0A0F25" stroke-width="2"/></marker>
<marker id="arrow-open" markerWidth="10" markerHeight="10" refX="10" refY="5" orient="auto" markerUnits="strokeWidth"><path d="M0,0 L10,5 L0,10" stroke="#0A0F25" stroke-width="2" fill="none"/></marker>
<marker id="arrow-open-reverse" markerWidth="10" markerHeight="10" refX="0" refY="5" orient="auto" markerUnits="strokeWidth"><path d="M10,0 L0,5 L10,10" stroke="#0A0F25" stroke-width="2" fill="none"/></marker>
<marker id="arrow" markerWidth="10" markerHeight="10" refX="10" refY="5" orient="auto" markerUnits="strokeWidth"><path d="M0,0 L10,5 L0,10 Z" fill="#0A0F25"/></marker>
<marker id="arrow-reverse" markerWidth="10" markerHeight="10" refX="0" refY="5" orient="auto" markerUnits="strokeWidth"><path d="M10,0 L0,5 L10,10 Z" fill="#0A0F25"/></marker>
</defs>
<rect x="-100" y="-100" width="1336" height="704" rx="0" fill="#FFFFFF" stroke="none" stroke-width="0"/>
<g id="base-layer">
<rect x="0" y="13" width="111" height="66" fill="#FFFFFF" stroke="#0A0F25" stroke-width="2" rx="0" ry="0"/>
<rect x="9" y="192" width="94" height="94" fill="#FFFFFF" stroke="#0A0F25" stroke-width="2" rx="0" ry="0"/>
<path d="M 16 402 L 75 402 L 95 422 L 95 489 L 16 489 Z" fill="#FFFFFF" stroke="#0A0F25" stroke-width="2"/>
<path d="M 75 402 L 75 422 L 95 422" fill="none" stroke="#0A0F25" stroke-width="2"/>
<polygon points="197,13 367,13 341,79 171,79" fill="#FFFFFF" stroke="#0A0F25" stroke-width="2"/>
<path d="M 211 266.4583883751651 L 211 201 L 328 201 L 328 266.4583883751651 C 308.5 252.40290620871863 289 252.40290620871863 269.5 266.4583883751651 C 250 280.5138705416116 230.5 280.5138705416116 211 266.4583883751651 Z" fill="#FFFFFF" stroke="#0A0F25" stroke-width="2"/>
<path d="M 217 410 C 217 386 263.8 386 269 386 C 274.2 386 321 386 321 410 L 321 480 C 321 504 274.2 504 269 504 C 263.8 504 217 504 217 480 L 217 410 Z" fill="#FFFFFF" stroke="#0A0F25" stroke-width="2"/>
<ellipse cx="269" cy="410" rx="52" ry="24" fill="none" stroke="none" stroke-width="0"/>
<path d="M 217 410 C 217 434 263.8 434 269 434 C 274.2 434 321 434 321 410" fill="none" stroke="#0A0F25" stroke-width="2"/>
<path d="M 442 13 L 553 13 C 561.25 13 568 29.5 568 46 C 568 62.5 561.25 79 553 79 L 442 79 C 433.75 79 427 62.5 427 46 C 427 29.5 433.75 13 442 13 Z" fill="#FFFFFF" stroke="#0A0F25" stroke-width="2"/>
<path d="M 446 203 L 497.5 203 L 497.5 217.6 L 549 217.6 L 549 276 L 446 276 Z" fill="#FFFFFF" stroke="#0A0F25" stroke-width="2"/>
<polygon points="440,395 521,395 556,445.5 521,496 440,496 475,445.5" fill="#FFFFFF" stroke="#0A0F25" stroke-width="2"/>
<path d="M 637 1 L 637 47 L 685 47 L 685 92 L 715 47 L 732 47 L 732 1 L 637 1 Z" fill="#FFFFFF" stroke="#0A0F25" stroke-width="2"/>
<path d="M 624 206 L 745 206 C 755.95 206 760 222.5 760 239 C 760 255.5 755.95 272 745 272 L 624 272 C 613.05 272 609 255.5 609 239 C 609 222.5 613.05 206 624 206 Z" fill="#FFFFFF" stroke="#0A0F25" stroke-width="2"/>
<path d="M 716 478 H 653 v -0.937984496124031 c 0 -11.25581395348837 6.91800878477306 -21.4031007751938 17.80234260614934 -26.26356589147287 C 664.8067349926794 446.8759689922481 661.2093704245974 440.48062015503876 661.2093704245974 433.48837209302326 C 661.2093704245974 421.6356589147287 671.6325036603221 412 684.4538799414348 412 c 12.82137628111274 0 23.244509516837482 9.635658914728682 23.244509516837482 21.488372093023255 c 0 6.992248062015503 -3.505124450951684 13.302325581395348 -9.592972181551978 17.3953488372093 c 10.884333821376282 4.8604651162790695 17.80234260614934 15.007751937984496 17.80234260614934 26.26356589147287 v 0.8527131782945736 Z" fill="#FFFFFF" stroke="#0A0F25" stroke-width="2"/>
<polygon points="870,0 948,46 870,92 792,46" fill="#FFFFFF" stroke="#0A0F25" stroke-width="2"/>
<ellipse cx="870.5" cy="239" rx="48.5" ry="35" fill="#FFFFFF" stroke="#0A0F25" stroke-width="2"/>
<ellipse cx="870.5" cy="445.5" rx="51.5" ry="51.5" fill="#FFFFFF" stroke="#0A0F25" stroke-width="2"/>
<polygon points="1040,12 1104,12 1136,46.5 1104,81 1040,81 1008,46.5" fill="#FFFFFF" stroke="#0A0F25" stroke-width="2"/>
<path d="M 1037.1878081534771 226.36514722753347 C 1037.1878081534771 227.25750669216063 1036.494973621103 228.14970554493308 1035.8022637889687 228.14970554493308 C 1026.9693717026378 229.26499426386235 1020.041525179856 240.6417743785851 1020.041525179856 254.47222179732313 C 1020.041525179856 269.1950286806883 1027.8352901678657 281.01782791587 1037.7074340527577 281.01782791587 H 1104.7338129496402 C 1115.2987913669065 281.01782791587 1123.9584748201437 268.3026692160612 1123.9584748201437 252.9107533460803 C 1123.9584748201437 238.1879464627151 1115.9913764988007 225.91896749521987 1105.9462733812948 225.02676864244742 C 1105.2534388489207 225.02676864244742 1104.5607290167864 224.35749904397707 1104.3875203836928 223.2422103250478 C 1102.135932853717 208.2964741873805 1091.7441630695441 197.14278393881455 1079.6206810551557 197.14278393881455 C 1071.6537074340526 197.14278393881455 1064.5526522781772 201.82734990439772 1060.0497266187049 209.188673040153 C 1059.5301007194244 210.08103250478015 1058.6641822541965 210.30412237093694 1058.144556354916 210.08103250478015 C 1056.4125947242205 209.188673040153 1054.5075491606713 208.7426539196941 1052.4291702637888 208.7426539196941 C 1044.462071942446 208.51940344168258 1037.8806426858514 216.32690630975142 1037.1878081534771 226.36514722753347 Z" fill="#FFFFFF" stroke="#0A0F25" stroke-width="2"/>
<path d="M 55.5 81 C 55.5 129.4 55.5 152 55.5 188" fill="none" stroke="#0A0F25" stroke-width="2" marker-end="url(#arrow-triangle)"/>
<path d="M 55.5 288 C 55.5 326 55.5 349.1 55.5 397.5" fill="none" stroke="#0A0F25" stroke-width="2" marker-end="url(#arrow-triangle)"/>
<path d="M 269 81 C 269 129.4 269 153.8 269 197" fill="none" stroke="#0A0F25" stroke-width="2" marker-end="url(#arrow-triangle)"/>
<path d="M 269 269 C 269 322.2 269 346 269 382" fill="none" stroke="#0A0F25" stroke-width="2" marker-end="url(#arrow-triangle)"/>
<path d="M 497.0158725159906 80.99993701481725 C 497.4 129.4 497.6 154.2 497.9672142161124 199.0001343657099" fill="none" stroke="#0A0F25" stroke-width="2" marker-end="url(#arrow-triangle)"/>
<path d="M 497.0166660879931 277.99993055917224 C 497.4 324 497.6 347.8 497.96610291211147 391.0001436291496" fill="none" stroke="#0A0F25" stroke-width="2" marker-end="url(#arrow-triangle)"/>
<path d="M 684.9894738300013 48.999972299744464 C 684.6 123 684.6 154.8 684.9687509536307 202.00012206472485" fill="none" stroke="#0A0F25" stroke-width="2" marker-end="url(#arrow-triangle)"/>
<path d="M 684.0156245231847 273.9999389676376 C 684.4 323.2 684.5 351.2 684.5 408" fill="none" stroke="#0A0F25" stroke-width="2" marker-end="url(#arrow-triangle)"/>
<path d="M 870 94 C 870 132 870 154.4 870 200" fill="none" stroke="#0A0F25" stroke-width="2" marker-end="url(#arrow-triangle)"/>
<path d="M 870 276 C 870 323.6 870 347.6 870 390" fill="none" stroke="#0A0F25" stroke-width="2" marker-end="url(#arrow-triangle)"/>
<path d="M 1072 83 C 1072 129.8 1072 153 1072 193" fill="none" stroke="#0A0F25" stroke-width="2" marker-end="url(#arrow-triangle)"/>
<text x="55.5" y="51.5" text-anchor="middle" dominant-baseline="alphabetic" font-family="Arial, sans-serif" font-size="16" style="fill: #0A0F25; font-weight: 700">rectangle</text>
<text x="56" y="244.5" text-anchor="middle" dominant-baseline="alphabetic" font-family="Arial, sans-serif" font-size="16" style="fill: #0A0F25; font-weight: 700">square</text>
<text x="55.5" y="451" text-anchor="middle" dominant-baseline="alphabetic" font-family="Arial, sans-serif" font-size="16" style="fill: #0A0F25; font-weight: 700">page</text>
<text x="269" y="51.5" text-anchor="middle" dominant-baseline="alphabetic" font-family="Arial, sans-serif" font-size="16" style="fill: #0A0F25; font-weight: 700">parallelogram</text>
<text x="269.5" y="234.610964332893" text-anchor="middle" dominant-baseline="alphabetic" font-family="Arial, sans-serif" font-size="16" style="fill: #0A0F25; font-weight: 700">document</text>
<text x="269" y="462.5" text-anchor="middle" dominant-baseline="alphabetic" font-family="Arial, sans-serif" font-size="16" style="fill: #0A0F25; font-weight: 700">cylinder</text>
<text x="485.5" y="51.5" text-anchor="middle" dominant-baseline="alphabetic" font-family="Arial, sans-serif" font-size="16" style="fill: #0A0F25; font-weight: 700">queue</text>
<text x="497.5" y="252.29999999999998" text-anchor="middle" dominant-baseline="alphabetic" font-family="Arial, sans-serif" font-size="16" style="fill: #0A0F25; font-weight: 700">package</text>
<text x="498" y="451" text-anchor="middle" dominant-baseline="alphabetic" font-family="Arial, sans-serif" font-size="16" style="fill: #0A0F25; font-weight: 700">step</text>
<text x="684.5" y="29.5" text-anchor="middle" dominant-baseline="alphabetic" font-family="Arial, sans-serif" font-size="16" style="fill: #0A0F25; font-weight: 700">callout</text>
<text x="684.5" y="244.5" text-anchor="middle" dominant-baseline="alphabetic" font-family="Arial, sans-serif" font-size="16" style="fill: #0A0F25; font-weight: 700">stored_data</text>
<text x="684.5" y="499" text-anchor="middle" dominant-baseline="alphabetic" font-family="Arial, sans-serif" font-size="16" style="fill: #0A0F25; font-weight: 700">person</text>
<text x="870" y="51.5" text-anchor="middle" dominant-baseline="alphabetic" font-family="Arial, sans-serif" font-size="16" style="fill: #0A0F25; font-weight: 700">diamond</text>
<text x="870.5" y="244.5" text-anchor="middle" dominant-baseline="alphabetic" font-family="Arial, sans-serif" font-size="16" style="fill: #0A0F25; font-weight: 700">oval</text>
<text x="870.5" y="451" text-anchor="middle" dominant-baseline="alphabetic" font-family="Arial, sans-serif" font-size="16" style="fill: #0A0F25; font-weight: 700">circle</text>
<text x="1072" y="52" text-anchor="middle" dominant-baseline="alphabetic" font-family="Arial, sans-serif" font-size="16" style="fill: #0A0F25; font-weight: 700">hexagon</text>
<text x="1071.588" y="260.51599999999996" text-anchor="middle" dominant-baseline="alphabetic" font-family="Arial, sans-serif" font-size="16" style="fill: #0A0F25; font-weight: 700">cloud</text>
</g>
</svg>
