<?xml version="1.0" encoding="UTF-8"?>
<svg xmlns="http://www.w3.org/2000/svg" width="1179" height="898" viewBox="-100 -100 1179 898" data-d2-version="0.1.0">
<defs><marker id="arrow-triangle" markerWidth="10" markerHeight="10" refX="10" refY="5" orient="auto" markerUnits="strokeWidth"><path d="M0,0 L10,5 L0,10 Z" fill="#0A0F25"/></marker>
<marker id="arrow-triangle-reverse" markerWidth="10" markerHeight="10" refX="0" refY="5" orient="auto" markerUnits="strokeWidth"><path d="M10,0 L0,5 L10,10 Z" fill="#0A0F25"/></marker>
<marker id="arrow-diamond" markerWidth="10" markerHeight="10" refX="10" refY="5" orient="auto" markerUnits="strokeWidth"><path d="M0,5 L5,0 L10,5 L5,10 Z" fill="#0A0F25"/></marker>
<marker id="arrow-diamond-reverse" markerWidth="10" markerHeight="10" refX="0" refY="5" orient="auto" markerUnits="strokeWidth"><path d="M0,5 L5,0 L10,5 L5,10 Z" fill="#0A0F25"/></marker>
<marker id="arrow-circle" markerWidth="10" markerHeight="10" refX="6" refY="5" orient="auto" markerUnits="strokeWidth"><circle cx="5" cy="5" r="4" fill="#0A0F25"/></marker>
<marker id="arrow-circle-reverse" markerWidth="10" markerHeight="10" refX="4" refY="5" orient="auto" markerUnits="strokeWidth"><circle cx="5" cy="5" r="4" fill="#0A0F25"/></marker>
<marker id="arrow-cf-one" markerWidth="10" markerHeight="10" refX="10" refY="5" orient="auto" markerUnits="strokeWidth"><line x1="10" y1="0" x2="10" y2="10" stroke="#0A0F25" stroke-width="2"/></marker>
<marker id="arrow-cf-one-reverse" markerWidth="10" markerHeight="10" refX="0" refY="5" orient="auto" markerUnits="strokeWidth"><line x1="0" y1="0" x2="0" y2="10" stroke="#0A0F25" stroke-width="2"/></marker>
<marker id="arrow-cf-many" markerWidth="10" markerHeight="10" refX="10" refY="5" orient="auto" markerUnits="strokeWidth"><path d="M0,5 L10,0 M0,5 L10,5 M0,5 L10,10" stroke="#0A0F25" stroke-width="2" fill="none"/></marker>
<marker id="arrow-cf-many-reverse" markerWidth="10" markerHeight="10" refX="0" refY="5" orient="auto" markerUnits="strokeWidth"><path d="M10,5 L0,0 M10,5 L0,5 M10,5 L0,10" stroke="#0A0F25" stroke-width="2" fill="none"/></marker>
<marker id="arrow-cf-one-required" markerWidth="10" markerHeight="10" refX="10" refY="5" orient="auto" markerUnits="strokeWidth"><line x1="10" y1="0" x2="10" y2="10" stroke="#0A0F25" stroke-width="2"/><line x1="7" y1="0" x2="7" y2="10" stroke="#0A0F25" stroke-width="2"/></marker>
<marker id="arrow-cf-one-required-reverse" markerWidth="10" markerHeight="10" refX="0" refY="5" orient="auto" markerUnits="strokeWidth"><line x1="0" y1="0" x2="0" y2="10" stroke="#0A0F25" stroke-width="2"/><line x1="3" y1="0" x2="3" y2="10" stroke="#0A0F25" stroke-width="2"/></marker>
<marker id="arrow-cf-many-required" markerWidth="10" markerHeight="10" refX="10" refY="5" orient="auto" markerUnits="strokeWidth"><path d="M0,5 L10,0 M0,5 L10,5 M0,5 L10,10" stroke="#0A0F25" stroke-width="2" fill="none"/><line x1="3" y1="0" x2="3" y2="10" stroke="#0A0F25" stroke-width="2"/></marker>
<marker id="arrow-cf-many-required-reverse" markerWidth="10" markerHeight="10" refX="0" refY="5" orient="auto" markerUnits="strokeWidth"><path d="M10,5 L0,0 M10,5 L0,5 M10,5 L0,10" stroke="#0A0F25" stroke-width="2" fill="none"/><line x1="7" y1="0" x2="7" y2="10" stroke="#0A0F25" stroke-width="2"/></marker>
<marker id="arrow-cf-one-optional" markerWidth="10" markerHeight="10" refX="10" refY="5" orient="auto" markerUnits="strokeWidth"><line x1="10" y1="0" x2="10" y2="10" stroke="#0A0F25" stroke-width="2"/><circle cx="7" cy="5" r="2" stroke="#0A0F25" stroke-width="2" fill="white"/></marker>
<marker id="arrow-cf-one-optional-reverse" markerWidth="10" markerHeight="10" refX="0" refY="5" orient="auto" markerUnits="strokeWidth"><line x1="0" y1="0" x2="0" y2="10" stroke="#0A0F25" stroke-width="2"/><circle cx="3" cy="5" r="2" stroke="#0A0F25" stroke-width="2" fill="white"/></marker>
<marker id="arrow-cf-many-optional" markerWidth="10" markerHeight="10" refX="10" refY="5" orient="auto" markerUnits="strokeWidth"><path d="M0,5 L10,0 M0,5 L10,5 M0,5 L10,10" stroke="#0A0F25" stroke-width="2" fill="none"/><circle cx="3" cy="5" r="2" stroke="#0A0F25" stroke-width="2" fill="white"/></marker>
<marker id="arrow-cf-many-optional-reverse" markerWidth="10" markerHeight="10" refX="0" refY="5" orient="auto" markerUnits="strokeWidth"><path d="M10,5 L0,0 M10,5 L0,5 M10,5 L0,10" stroke="#0A0F25" stroke-width="2" fill="none"/><circle cx="7" cy="5" r="2" stroke="#0A0F25" stroke-width="2" fill="white"/></marker>
<marker id="arrow-line" markerWidth="10" markerHeight="10" refX="10" refY="5" orient="auto" markerUnits="strokeWidth"><line x1="10" y1="0" x2="10" y2="10" stroke="#0A0F25" stroke-width="2"/></marker>
<marker id="arrow-line-reverse" markerWidth="10" markerHeight="10" refX="0" refY="5" orient="auto" markerUnits="strokeWidth"><line x1="0" y1="0" x2="0" y2="10" stroke="#0A0F25" stroke-width="2"/></marker>
<marker id="arrow-open" markerWidth="10" markerHeight="10" refX="10" refY="5" orient="auto" markerUnits="strokeWidth"><path d="M0,0 L10,5 L0,10" stroke="#0A0F25" stroke-width="2" fill="none"/></marker>
<marker id="arrow-open-reverse" markerWidth="10" markerHeight="10" refX="0" refY="5" orient="auto" markerUnits="strokeWidth"><path d="M10,0 L0,5 L10,10" stroke="#0A0F25" stroke-width="2" fill="none"/></marker>
<marker id="arrow" markerWidth="10" markerHeight="10" refX="10" refY="5" orient="auto" markerUnits="strokeWidth"><path d="M0,0 L10,5 L0,10 Z" fill="#0A0F25"/></marker>
<marker id="arrow-reverse" markerWidth="10" markerHeight="10" refX="0" refY="5" orient="auto" markerUnits="strokeWidth"><path d="M10,0 L0,5 L10,10 Z" fill="#0A0F25"/></marker>
</defs>
<rect width="100%" height="100%" fill="#FFFFFF"/>
<g id="base-layer">
<rect x="117" y="0" width="819" height="166" fill="#FFFFFF" stroke="#0A0F25" stroke-width="2"/>
<rect x="117" y="0" width="819" height="33.2" fill="#0A0F25" stroke="none" stroke-width="0"/>
<line x1="117" y1="33.2" x2="936" y2="33.2" stroke="#0A0F25" stroke-width="2"/>
<line x1="117" y1="66.4" x2="936" y2="66.4" stroke="#0A0F25" stroke-width="2"/>
<line x1="117" y1="99.60000000000001" x2="936" y2="99.60000000000001" stroke="#0A0F25" stroke-width="2"/>
<line x1="117" y1="132.8" x2="936" y2="132.8" stroke="#0A0F25" stroke-width="2"/>
<rect x="237" y="266" width="742" height="166" fill="#FFFFFF" stroke="#0A0F25" stroke-width="2"/>
<rect x="237" y="266" width="742" height="27.666666666666668" fill="#0A0F25" stroke="none" stroke-width="0"/>
<line x1="237" y1="293.6666666666667" x2="979" y2="293.6666666666667" stroke="#0A0F25" stroke-width="2"/>
<line x1="237" y1="321.33333333333337" x2="979" y2="321.33333333333337" stroke="#0A0F25" stroke-width="2"/>
<line x1="237" y1="349.00000000000006" x2="979" y2="349.00000000000006" stroke="#0A0F25" stroke-width="2"/>
<line x1="237" y1="376.66666666666674" x2="979" y2="376.66666666666674" stroke="#0A0F25" stroke-width="2"/>
<line x1="237" y1="404.3333333333334" x2="979" y2="404.3333333333334" stroke="#0A0F25" stroke-width="2"/>
<rect x="0" y="532" width="523" height="166" fill="#FFFFFF" stroke="#0A0F25" stroke-width="2"/>
<rect x="0" y="532" width="523" height="33.2" fill="#0A0F25" stroke="none" stroke-width="0"/>
<line x1="0" y1="565.2" x2="523" y2="565.2" stroke="#0A0F25" stroke-width="2"/>
<line x1="0" y1="598.4000000000001" x2="523" y2="598.4000000000001" stroke="#0A0F25" stroke-width="2"/>
<line x1="0" y1="631.6000000000001" x2="523" y2="631.6000000000001" stroke="#0A0F25" stroke-width="2"/>
<line x1="0" y1="664.8000000000002" x2="523" y2="664.8000000000002" stroke="#0A0F25" stroke-width="2"/>
<path d="M 350 106.71428571428572 C 380.71919134005304 128.1402763128101 396.07878701007957 138.85327161207232 426.7979783501326 160.2792622105967 C 426.7979783501326 160.2792622105967 435 166 435 176 C 435 232 435 260 435 316" fill="none" stroke="#0A0F25" stroke-width="2" marker-start="url(#arrow-triangle-reverse)" marker-end="url(#arrow-triangle)"/>
<path d="M 317 382 C 317 462 317 502 317 582" fill="none" stroke="#0A0F25" stroke-width="2" marker-start="url(#arrow-triangle-reverse)" marker-end="url(#arrow-triangle)"/>
<path d="M 282 106.71428571428572 C 251.28080865994696 128.1402763128101 235.92121298992043 138.85327161207232 205.20202164986736 160.2792622105967 C 205.20202164986736 160.2792622105967 197 166 197 176 C 197 338.4 197 419.6 197 582" fill="none" stroke="#0A0F25" stroke-width="2" marker-start="url(#arrow-triangle-reverse)" marker-end="url(#arrow-triangle)"/>
<text x="127" y="24.35" text-anchor="start" font-family="Arial, sans-serif" font-size="24">users</text>
<text x="127" y="54.800000000000004" text-anchor="start" font-family="Arial, sans-serif" font-size="20">id</text>
<text x="239" y="54.800000000000004" text-anchor="start" font-family="Arial, sans-serif" font-size="20">int</text>
<text x="926" y="54.800000000000004" text-anchor="end" font-family="Arial, sans-serif" font-size="20">PK</text>
<text x="127" y="88" text-anchor="start" font-family="Arial, sans-serif" font-size="20">name</text>
<text x="239" y="88" text-anchor="start" font-family="Arial, sans-serif" font-size="20">varchar(255)</text>
<text x="127" y="121.20000000000002" text-anchor="start" font-family="Arial, sans-serif" font-size="20">email</text>
<text x="239" y="121.20000000000002" text-anchor="start" font-family="Arial, sans-serif" font-size="20">varchar(255)</text>
<text x="926" y="121.20000000000002" text-anchor="end" font-family="Arial, sans-serif" font-size="20">UNQ</text>
<text x="127" y="154.4" text-anchor="start" font-family="Arial, sans-serif" font-size="20">created_at</text>
<text x="239" y="154.4" text-anchor="start" font-family="Arial, sans-serif" font-size="20">timestamp</text>
<text x="247" y="287.5833333333333" text-anchor="start" font-family="Arial, sans-serif" font-size="24">posts</text>
<text x="247" y="312.5" text-anchor="start" font-family="Arial, sans-serif" font-size="20">id</text>
<text x="348" y="312.5" text-anchor="start" font-family="Arial, sans-serif" font-size="20">int</text>
<text x="969" y="312.5" text-anchor="end" font-family="Arial, sans-serif" font-size="20">PK</text>
<text x="247" y="340.16666666666663" text-anchor="start" font-family="Arial, sans-serif" font-size="20">user_id</text>
<text x="348" y="340.16666666666663" text-anchor="start" font-family="Arial, sans-serif" font-size="20">int</text>
<text x="969" y="340.16666666666663" text-anchor="end" font-family="Arial, sans-serif" font-size="20">FK</text>
<text x="247" y="367.8333333333333" text-anchor="start" font-family="Arial, sans-serif" font-size="20">title</text>
<text x="348" y="367.8333333333333" text-anchor="start" font-family="Arial, sans-serif" font-size="20">varchar(255)</text>
<text x="247" y="395.5" text-anchor="start" font-family="Arial, sans-serif" font-size="20">content</text>
<text x="348" y="395.5" text-anchor="start" font-family="Arial, sans-serif" font-size="20">text</text>
<text x="247" y="423.1666666666667" text-anchor="start" font-family="Arial, sans-serif" font-size="20">published</text>
<text x="348" y="423.1666666666667" text-anchor="start" font-family="Arial, sans-serif" font-size="20">boolean</text>
<text x="10" y="556.35" text-anchor="start" font-family="Arial, sans-serif" font-size="24">comments</text>
<text x="10" y="586.8000000000001" text-anchor="start" font-family="Arial, sans-serif" font-size="20">id</text>
<text x="91" y="586.8000000000001" text-anchor="start" font-family="Arial, sans-serif" font-size="20">int</text>
<text x="513" y="586.8000000000001" text-anchor="end" font-family="Arial, sans-serif" font-size="20">PK</text>
<text x="10" y="620" text-anchor="start" font-family="Arial, sans-serif" font-size="20">post_id</text>
<text x="91" y="620" text-anchor="start" font-family="Arial, sans-serif" font-size="20">int</text>
<text x="513" y="620" text-anchor="end" font-family="Arial, sans-serif" font-size="20">FK</text>
<text x="10" y="653.2" text-anchor="start" font-family="Arial, sans-serif" font-size="20">user_id</text>
<text x="91" y="653.2" text-anchor="start" font-family="Arial, sans-serif" font-size="20">int</text>
<text x="513" y="653.2" text-anchor="end" font-family="Arial, sans-serif" font-size="20">FK</text>
<text x="10" y="686.4" text-anchor="start" font-family="Arial, sans-serif" font-size="20">body</text>
<text x="91" y="686.4" text-anchor="start" font-family="Arial, sans-serif" font-size="20">text</text>
</g>
</svg>
