<?xml version="1.0" encoding="UTF-8"?>
<svg xmlns="http://www.w3.org/2000/svg" width="582" height="976" viewBox="-100 -100 582 976" data-d2-version="0.2.0">
<defs><marker id="arrow-triangle" markerWidth="10" markerHeight="10" refX="10" refY="5" orient="auto" markerUnits="strokeWidth"><path d="M0,0 L10,5 L0,10 Z" fill="#0A0F25"/></marker>
<marker id="arrow-triangle-reverse" markerWidth="10" markerHeight="10" refX="0" refY="5" orient="auto" markerUnits="strokeWidth"><path d="M10,0 L0,5 L10,10 Z" fill="#0A0F25"/></marker>
<marker id="arrow-diamond" markerWidth="10" markerHeight="10" refX="10" refY="5" orient="auto" markerUnits="strokeWidth"><path d="M0,5 L5,0 L10,5 L5,10 Z" fill="#0A0F25"/></marker>
<marker id="arrow-diamond-reverse" markerWidth="10" markerHeight="10" refX="0" refY="5" orient="auto" markerUnits="strokeWidth"><path d="M0,5 L5,0 L10,5 L5,10 Z" fill="#0A0F25"/></marker>
<marker id="arrow-circle" markerWidth="10" markerHeight="10" refX="6" refY="5" orient="auto" markerUnits="strokeWidth"><circle cx="5" cy="5" r="4" fill="#0A0F25"/></marker>
<marker id="arrow-circle-reverse" markerWidth="10" markerHeight="10" refX="4" refY="5" orient="auto" markerUnits="strokeWidth"><circle cx="5" cy="5" r="4" fill="#0A0F25"/></marker>
<marker id="arrow-cf-one" markerWidth="10" markerHeight="10" refX="10" refY="5" orient="auto" markerUnits="strokeWidth"><line x1="10" y1="0" x2="10" y2="10" stroke="#0A0F25" stroke-width="2"/></marker>
<marker id="arrow-cf-one-reverse" markerWidth="10" markerHeight="10" refX="0" refY="5" orient="auto" markerUnits="strokeWidth"><line x1="0" y1="0" x2="0" y2="10" stroke="#0A0F25" stroke-width="2"/></marker>
<marker id="arrow-cf-many" markerWidth="10" markerHeight="10" refX="10" refY="5" orient="auto" markerUnits="strokeWidth"><path d="M0,5 L10,0 M0,5 L10,5 M0,5 L10,10" stroke="#0A0F25" stroke-width="2" fill="none"/></marker>
<marker id="arrow-cf-many-reverse" markerWidth="10" markerHeight="10" refX="0" refY="5" orient="auto" markerUnits="strokeWidth"><path d="M10,5 L0,0 M10,5 L0,5 M10,5 L0,10" stroke="#0A0F25" stroke-width="2" fill="none"/></marker>
<marker id="arrow-cf-one-required" markerWidth="10" markerHeight="10" refX="10" refY="5" orient="auto" markerUnits="strokeWidth"><line x1="10" y1="0" x2="10" y2="10" stroke="#0A0F25" stroke-width="2"/><line x1="7" y1="0" x2="7" y2="10" stroke="#0A0F25" stroke-width="2"/></marker>
<marker id="arrow-cf-one-required-reverse" markerWidth="10" markerHeight="10" refX="0" refY="5" orient="auto" markerUnits="strokeWidth"><line x1="0" y1="0" x2="0" y2="10" stroke="#0A0F25" stroke-width="2"/><line x1="3" y1="0" x2="3" y2="10" stroke="#0A0F25" stroke-width="2"/></marker>
<marker id="arrow-cf-many-required" markerWidth="10" markerHeight="10" refX="10" refY="5" orient="auto" markerUnits="strokeWidth"><path d="M0,5 L10,0 M0,5 L10,5 M0,5 L10,10" stroke="#0A0F25" stroke-width="2" fill="none"/><line x1="3" y1="0" x2="3" y2="10" stroke="#0A0F25" stroke-width="2"/></marker>
<marker id="arrow-cf-many-required-reverse" markerWidth="10" markerHeight="10" refX="0" refY="5" orient="auto" markerUnits="strokeWidth"><path d="M10,5 L0,0 M10,5 L0,5 M10,5 L0,10" stroke="#0A0F25" stroke-width="2" fill="none"/><line x1="7" y1="0" x2="7" y2="10" stroke="#0A0F25" stroke-width="2"/></marker>
<marker id="arrow-cf-one-optional" markerWidth="10" markerHeight="10" refX="10" refY="5" orient="auto" markerUnits="strokeWidth"><line x1="10" y1="0" x2="10" y2="10" stroke="#0A0F25" stroke-width="2"/><circle cx="7" cy="5" r="2" stroke="#0A0F25" stroke-width="2" fill="white"/></marker>
<marker id="arrow-cf-one-optional-reverse" markerWidth="10" markerHeight="10" refX="0" refY="5" orient="auto" markerUnits="strokeWidth"><line x1="0" y1="0" x2="0" y2="10" stroke="#0A0F25" stroke-width="2"/><circle cx="3" cy="5" r="2" stroke="#0A0F25" stroke-width="2" fill="white"/></marker>
<marker id="arrow-cf-many-optional" markerWidth="10" markerHeight="10" refX="10" refY="5" orient="auto" markerUnits="strokeWidth"><path d="M0,5 L10,0 M0,5 L10,5 M0,5 L10,10" stroke="#0A0F25" stroke-width="2" fill="none"/><circle cx="3" cy="5" r="2" stroke="#0A0F25" stroke-width="2" fill="white"/></marker>
<marker id="arrow-cf-many-optional-reverse" markerWidth="10" markerHeight="10" refX="0" refY="5" orient="auto" markerUnits="strokeWidth"><path d="M10,5 L0,0 M10,5 L0,5 M10,5 L0,10" stroke="#0A0F25" stroke-width="2" fill="none"/><circle cx="7" cy="5" r="2" stroke="#0A0F25" stroke-width="2" fill="white"/></marker>
<marker id="arrow-line" markerWidth="10" markerHeight="10" refX="10" refY="5" orient="auto" markerUnits="strokeWidth"><line x1="10" y1="0" x2="10" y2="10" stroke="#0A0F25" stroke-width="2"/></marker>
<marker id="arrow-line-reverse" markerWidth="10" markerHeight="10" refX="0" refY="5" orient="auto" markerUnits="strokeWidth"><line x1="0" y1="0" x2="0" y2="10" stroke="#0A0F25" stroke-width="2"/></marker>
<marker id="arrow-open" markerWidth="10" markerHeight="10" refX="10" refY="5" orient="auto" markerUnits="strokeWidth"><path d="M0,0 L10,5 L0,10" stroke="#0A0F25" stroke-width="2" fill="none"/></marker>
<marker id="arrow-open-reverse" markerWidth="10" markerHeight="10" refX="0" refY="5" orient="auto" markerUnits="strokeWidth"><path d="M10,0 L0,5 L10,10" stroke="#0A0F25" stroke-width="2" fill="none"/></marker>
<marker id="arrow" markerWidth="10" markerHeight="10" refX="10" refY="5" orient="auto" markerUnits="strokeWidth"><path d="M0,0 L10,5 L0,10 Z" fill="#0A0F25"/></marker>
<marker id="arrow-reverse" markerWidth="10" markerHeight="10" refX="0" refY="5" orient="auto" markerUnits="strokeWidth"><path d="M10,0 L0,5 L10,10 Z" fill="#0A0F25"/></marker>
</defs>
<rect x="-100" y="-100" width="582" height="976" rx="0" fill="#FFFFFF" stroke="none" stroke-width="0"/>
<g id="base-layer">
<rect x="78" y="0" width="304" height="180" fill="#FFFFFF" stroke="#0A0F25" stroke-width="2"/>
<rect x="78" y="0" width="304" height="36" fill="#0A0F25" stroke="none" stroke-width="0"/>
<line x1="78" y1="36" x2="382" y2="36" stroke="#0A0F25" stroke-width="2"/>
<line x1="78" y1="72" x2="382" y2="72" stroke="#0A0F25" stroke-width="2"/>
<line x1="78" y1="108" x2="382" y2="108" stroke="#0A0F25" stroke-width="2"/>
<line x1="78" y1="144" x2="382" y2="144" stroke="#0A0F25" stroke-width="2"/>
<rect x="0" y="280" width="280" height="216" fill="#FFFFFF" stroke="#0A0F25" stroke-width="2"/>
<rect x="0" y="280" width="280" height="36" fill="#0A0F25" stroke="none" stroke-width="0"/>
<line x1="0" y1="316" x2="280" y2="316" stroke="#0A0F25" stroke-width="2"/>
<line x1="0" y1="352" x2="280" y2="352" stroke="#0A0F25" stroke-width="2"/>
<line x1="0" y1="388" x2="280" y2="388" stroke="#0A0F25" stroke-width="2"/>
<line x1="0" y1="424" x2="280" y2="424" stroke="#0A0F25" stroke-width="2"/>
<line x1="0" y1="460" x2="280" y2="460" stroke="#0A0F25" stroke-width="2"/>
<rect x="137" y="596" width="187" height="180" fill="#FFFFFF" stroke="#0A0F25" stroke-width="2"/>
<rect x="137" y="596" width="187" height="36" fill="#0A0F25" stroke="none" stroke-width="0"/>
<line x1="137" y1="632" x2="324" y2="632" stroke="#0A0F25" stroke-width="2"/>
<line x1="137" y1="668" x2="324" y2="668" stroke="#0A0F25" stroke-width="2"/>
<line x1="137" y1="704" x2="324" y2="704" stroke="#0A0F25" stroke-width="2"/>
<line x1="137" y1="740" x2="324" y2="740" stroke="#0A0F25" stroke-width="2"/>
<path d="M 169.84378521430654 183.36908560264604 C 146.4 220 140 240 140 276" fill="none" stroke="#0A0F25" stroke-width="2" marker-start="url(#arrow-triangle-reverse)" marker-end="url(#arrow-triangle)"/>
<path d="M 140 500 C 140 536 146.4 556 169.84378521430654 592.630914397354" fill="none" stroke="#0A0F25" stroke-width="2" marker-start="url(#arrow-triangle-reverse)" marker-end="url(#arrow-triangle)"/>
<path d="M 290.15621478569346 183.36908560264604 C 313.6 220 320 261.6 320 309 C 320 356.4 313.6 556 290.15621478569346 592.630914397354" fill="none" stroke="#0A0F25" stroke-width="2" marker-start="url(#arrow-triangle-reverse)" marker-end="url(#arrow-triangle)"/>
<text x="88" y="25.75" text-anchor="start" font-family="Arial, sans-serif" font-size="24">users</text>
<text x="88" y="59" text-anchor="start" font-family="Arial, sans-serif" font-size="20">id</text>
<text x="199" y="59" text-anchor="start" font-family="Arial, sans-serif" font-size="20">int</text>
<text x="372" y="59" text-anchor="end" font-family="Arial, sans-serif" font-size="20">PK</text>
<text x="88" y="95" text-anchor="start" font-family="Arial, sans-serif" font-size="20">name</text>
<text x="199" y="95" text-anchor="start" font-family="Arial, sans-serif" font-size="20">varchar(255)</text>
<text x="88" y="131" text-anchor="start" font-family="Arial, sans-serif" font-size="20">email</text>
<text x="199" y="131" text-anchor="start" font-family="Arial, sans-serif" font-size="20">varchar(255)</text>
<text x="372" y="131" text-anchor="end" font-family="Arial, sans-serif" font-size="20">UNQ</text>
<text x="88" y="167" text-anchor="start" font-family="Arial, sans-serif" font-size="20">created_at</text>
<text x="199" y="167" text-anchor="start" font-family="Arial, sans-serif" font-size="20">timestamp</text>
<text x="10" y="305.75" text-anchor="start" font-family="Arial, sans-serif" font-size="24">posts</text>
<text x="10" y="339" text-anchor="start" font-family="Arial, sans-serif" font-size="20">id</text>
<text x="112" y="339" text-anchor="start" font-family="Arial, sans-serif" font-size="20">int</text>
<text x="270" y="339" text-anchor="end" font-family="Arial, sans-serif" font-size="20">PK</text>
<text x="10" y="375" text-anchor="start" font-family="Arial, sans-serif" font-size="20">user_id</text>
<text x="112" y="375" text-anchor="start" font-family="Arial, sans-serif" font-size="20">int</text>
<text x="270" y="375" text-anchor="end" font-family="Arial, sans-serif" font-size="20">FK</text>
<text x="10" y="411" text-anchor="start" font-family="Arial, sans-serif" font-size="20">title</text>
<text x="112" y="411" text-anchor="start" font-family="Arial, sans-serif" font-size="20">varchar(255)</text>
<text x="10" y="447" text-anchor="start" font-family="Arial, sans-serif" font-size="20">content</text>
<text x="112" y="447" text-anchor="start" font-family="Arial, sans-serif" font-size="20">text</text>
<text x="10" y="483" text-anchor="start" font-family="Arial, sans-serif" font-size="20">published</text>
<text x="112" y="483" text-anchor="start" font-family="Arial, sans-serif" font-size="20">boolean</text>
<text x="147" y="621.75" text-anchor="start" font-family="Arial, sans-serif" font-size="24">comments</text>
<text x="147" y="655" text-anchor="start" font-family="Arial, sans-serif" font-size="20">id</text>
<text x="228" y="655" text-anchor="start" font-family="Arial, sans-serif" font-size="20">int</text>
<text x="314" y="655" text-anchor="end" font-family="Arial, sans-serif" font-size="20">PK</text>
<text x="147" y="691" text-anchor="start" font-family="Arial, sans-serif" font-size="20">post_id</text>
<text x="228" y="691" text-anchor="start" font-family="Arial, sans-serif" font-size="20">int</text>
<text x="314" y="691" text-anchor="end" font-family="Arial, sans-serif" font-size="20">FK</text>
<text x="147" y="727" text-anchor="start" font-family="Arial, sans-serif" font-size="20">user_id</text>
<text x="228" y="727" text-anchor="start" font-family="Arial, sans-serif" font-size="20">int</text>
<text x="314" y="727" text-anchor="end" font-family="Arial, sans-serif" font-size="20">FK</text>
<text x="147" y="763" text-anchor="start" font-family="Arial, sans-serif" font-size="20">body</text>
<text x="228" y="763" text-anchor="start" font-family="Arial, sans-serif" font-size="20">text</text>
</g>
</svg>
