<?xml version="1.0" encoding="UTF-8"?>
<svg xmlns="http://www.w3.org/2000/svg" width="584" height="978" viewBox="-101 -101 584 978" data-d2-version="0.2.0" class="d2-1487076318 d2-svg">
<defs><mask id="edge-label-mask" maskUnits="userSpaceOnUse" x="-101" y="-101" width="584" height="978"><rect x="-101" y="-101" width="584" height="978" fill="white"></rect></mask>
<marker id="mk-2090524415" markerWidth="10" markerHeight="12" refX="3" refY="6" viewBox="0 0 10 12" orient="auto" markerUnits="userSpaceOnUse"><polygon points="10,0 0,6 10,12" fill="#0D32B2" stroke-width="2"/></marker>
<marker id="mk-161592640" markerWidth="10" markerHeight="12" refX="7" refY="6" viewBox="0 0 10 12" orient="auto" markerUnits="userSpaceOnUse"><polygon points="0,0 10,6 0,12" fill="#0D32B2" stroke-width="2"/></marker>
</defs>
<rect x="-101" y="-101" width="584" height="978" rx="0" fill="#FFFFFF" stroke-width="0"/>
<g id="base-layer">
<rect x="78" y="0" width="304" height="180" fill="#FFFFFF" stroke="#0A0F25" stroke-width="2"/>
<rect x="78" y="0" width="304" height="36" fill="#0A0F25"/>
<line x1="78" y1="36" x2="382" y2="36" stroke="#0A0F25" stroke-width="2"/>
<line x1="78" y1="72" x2="382" y2="72" stroke="#0A0F25" stroke-width="2"/>
<line x1="78" y1="108" x2="382" y2="108" stroke="#0A0F25" stroke-width="2"/>
<line x1="78" y1="144" x2="382" y2="144" stroke="#0A0F25" stroke-width="2"/>
<rect x="0" y="280" width="280" height="216" fill="#FFFFFF" stroke="#0A0F25" stroke-width="2"/>
<rect x="0" y="280" width="280" height="36" fill="#0A0F25"/>
<line x1="0" y1="316" x2="280" y2="316" stroke="#0A0F25" stroke-width="2"/>
<line x1="0" y1="352" x2="280" y2="352" stroke="#0A0F25" stroke-width="2"/>
<line x1="0" y1="388" x2="280" y2="388" stroke="#0A0F25" stroke-width="2"/>
<line x1="0" y1="424" x2="280" y2="424" stroke="#0A0F25" stroke-width="2"/>
<line x1="0" y1="460" x2="280" y2="460" stroke="#0A0F25" stroke-width="2"/>
<rect x="137" y="596" width="187" height="180" fill="#FFFFFF" stroke="#0A0F25" stroke-width="2"/>
<rect x="137" y="596" width="187" height="36" fill="#0A0F25"/>
<line x1="137" y1="632" x2="324" y2="632" stroke="#0A0F25" stroke-width="2"/>
<line x1="137" y1="668" x2="324" y2="668" stroke="#0A0F25" stroke-width="2"/>
<line x1="137" y1="704" x2="324" y2="704" stroke="#0A0F25" stroke-width="2"/>
<line x1="137" y1="740" x2="324" y2="740" stroke="#0A0F25" stroke-width="2"/>
<path d="M 169.84378521430654 183.36908560264604 C 146.4 220 140 240 140 276" fill="none" stroke="#0D32B2" stroke-width="2" marker-start="url(#mk-2090524415)" marker-end="url(#mk-161592640)" mask="url(#edge-label-mask)"/>
<path d="M 140 500 C 140 536 146.4 556 169.84378521430654 592.630914397354" fill="none" stroke="#0D32B2" stroke-width="2" marker-start="url(#mk-2090524415)" marker-end="url(#mk-161592640)" mask="url(#edge-label-mask)"/>
<path d="M 290.15621478569346 183.36908560264604 C 313.6 220 320 261.6 320 309 C 320 356.4 313.6 556 290.15621478569346 592.630914397354" fill="none" stroke="#0D32B2" stroke-width="2" marker-start="url(#mk-2090524415)" marker-end="url(#mk-161592640)" mask="url(#edge-label-mask)"/>
<text x="88" y="25.75" text-anchor="start" font-family="Arial, sans-serif" font-size="24" fill="#FFFFFF">users</text>
<text x="88" y="59" text-anchor="start" font-family="Arial, sans-serif" font-size="20" fill="#0D32B2">id</text>
<text x="199" y="59" text-anchor="start" font-family="Arial, sans-serif" font-size="20" fill="#676C7E">int</text>
<text x="372" y="59" text-anchor="end" font-family="Arial, sans-serif" font-size="20" fill="#4A6FF3">PK</text>
<text x="88" y="95" text-anchor="start" font-family="Arial, sans-serif" font-size="20" fill="#0D32B2">name</text>
<text x="199" y="95" text-anchor="start" font-family="Arial, sans-serif" font-size="20" fill="#676C7E">varchar(255)</text>
<text x="88" y="131" text-anchor="start" font-family="Arial, sans-serif" font-size="20" fill="#0D32B2">email</text>
<text x="199" y="131" text-anchor="start" font-family="Arial, sans-serif" font-size="20" fill="#676C7E">varchar(255)</text>
<text x="372" y="131" text-anchor="end" font-family="Arial, sans-serif" font-size="20" fill="#4A6FF3">UNQ</text>
<text x="88" y="167" text-anchor="start" font-family="Arial, sans-serif" font-size="20" fill="#0D32B2">created_at</text>
<text x="199" y="167" text-anchor="start" font-family="Arial, sans-serif" font-size="20" fill="#676C7E">timestamp</text>
<text x="10" y="305.75" text-anchor="start" font-family="Arial, sans-serif" font-size="24" fill="#FFFFFF">posts</text>
<text x="10" y="339" text-anchor="start" font-family="Arial, sans-serif" font-size="20" fill="#0D32B2">id</text>
<text x="112" y="339" text-anchor="start" font-family="Arial, sans-serif" font-size="20" fill="#676C7E">int</text>
<text x="270" y="339" text-anchor="end" font-family="Arial, sans-serif" font-size="20" fill="#4A6FF3">PK</text>
<text x="10" y="375" text-anchor="start" font-family="Arial, sans-serif" font-size="20" fill="#0D32B2">user_id</text>
<text x="112" y="375" text-anchor="start" font-family="Arial, sans-serif" font-size="20" fill="#676C7E">int</text>
<text x="270" y="375" text-anchor="end" font-family="Arial, sans-serif" font-size="20" fill="#4A6FF3">FK</text>
<text x="10" y="411" text-anchor="start" font-family="Arial, sans-serif" font-size="20" fill="#0D32B2">title</text>
<text x="112" y="411" text-anchor="start" font-family="Arial, sans-serif" font-size="20" fill="#676C7E">varchar(255)</text>
<text x="10" y="447" text-anchor="start" font-family="Arial, sans-serif" font-size="20" fill="#0D32B2">content</text>
<text x="112" y="447" text-anchor="start" font-family="Arial, sans-serif" font-size="20" fill="#676C7E">text</text>
<text x="10" y="483" text-anchor="start" font-family="Arial, sans-serif" font-size="20" fill="#0D32B2">published</text>
<text x="112" y="483" text-anchor="start" font-family="Arial, sans-serif" font-size="20" fill="#676C7E">boolean</text>
<text x="147" y="621.75" text-anchor="start" font-family="Arial, sans-serif" font-size="24" fill="#FFFFFF">comments</text>
<text x="147" y="655" text-anchor="start" font-family="Arial, sans-serif" font-size="20" fill="#0D32B2">id</text>
<text x="228" y="655" text-anchor="start" font-family="Arial, sans-serif" font-size="20" fill="#676C7E">int</text>
<text x="314" y="655" text-anchor="end" font-family="Arial, sans-serif" font-size="20" fill="#4A6FF3">PK</text>
<text x="147" y="691" text-anchor="start" font-family="Arial, sans-serif" font-size="20" fill="#0D32B2">post_id</text>
<text x="228" y="691" text-anchor="start" font-family="Arial, sans-serif" font-size="20" fill="#676C7E">int</text>
<text x="314" y="691" text-anchor="end" font-family="Arial, sans-serif" font-size="20" fill="#4A6FF3">FK</text>
<text x="147" y="727" text-anchor="start" font-family="Arial, sans-serif" font-size="20" fill="#0D32B2">user_id</text>
<text x="228" y="727" text-anchor="start" font-family="Arial, sans-serif" font-size="20" fill="#676C7E">int</text>
<text x="314" y="727" text-anchor="end" font-family="Arial, sans-serif" font-size="20" fill="#4A6FF3">FK</text>
<text x="147" y="763" text-anchor="start" font-family="Arial, sans-serif" font-size="20" fill="#0D32B2">body</text>
<text x="228" y="763" text-anchor="start" font-family="Arial, sans-serif" font-size="20" fill="#676C7E">text</text>
</g>
</svg>
