<?xml version="1.0" encoding="UTF-8"?>
<svg xmlns="http://www.w3.org/2000/svg" width="570" height="600" viewBox="-101 -101 570 600" data-d2-version="0.2.0" class="d2-123265212 d2-svg">
<defs><mask id="edge-label-mask" maskUnits="userSpaceOnUse" x="-101" y="-101" width="570" height="600"><rect x="-101" y="-101" width="570" height="600" fill="white"></rect></mask>
<marker id="mk-161592640" markerWidth="10" markerHeight="12" refX="7" refY="6" viewBox="0 0 10 12" orient="auto" markerUnits="userSpaceOnUse"><polygon points="0,0 10,6 0,12" fill="#0D32B2" stroke-width="2"/></marker>
</defs>
<rect x="-101" y="-101" width="570" height="600" rx="0" fill="#FFFFFF" stroke-width="0"/>
<g id="base-layer">
<rect x="141" y="0" width="96" height="66" fill="#2196F3" stroke="#0D32B2" stroke-width="2" rx="0" ry="0"/>
<rect x="138" y="166" width="101" height="66" fill="#FF9800" stroke="#0D32B2" stroke-width="2" rx="0" ry="0"/>
<rect x="0" y="332" width="164" height="66" fill="#4CAF50" stroke="#0D32B2" stroke-width="2" rx="0" ry="0"/>
<rect x="224" y="332" width="144" height="66" fill="#f44336" stroke="#0D32B2" stroke-width="2" rx="0" ry="0"/>
<path d="M 189 68 C 189 106 189 126 189 162" fill="none" stroke="#0D32B2" stroke-width="2" marker-end="url(#mk-161592640)" mask="url(#edge-label-mask)"/>
<path d="M 144.42395125255086 233.23128808394463 C 94.8 272 82 292 82 328" fill="none" stroke="#0D32B2" stroke-width="2" marker-end="url(#mk-161592640)" mask="url(#edge-label-mask)"/>
<path d="M 233.57604874744914 233.23128808394463 C 283.2 272 296 292 296 328" fill="none" stroke="#0D32B2" stroke-width="2" marker-end="url(#mk-161592640)" mask="url(#edge-label-mask)"/>
<text x="189" y="38.5" text-anchor="middle" dominant-baseline="alphabetic" font-family="Arial, sans-serif" font-size="16" style="fill: #0A0F25; font-weight: 700">Header</text>
<text x="188.5" y="204.5" text-anchor="middle" dominant-baseline="alphabetic" font-family="Arial, sans-serif" font-size="16" style="fill: #0A0F25; font-weight: 700">Sidebar</text>
<text x="82" y="370.5" text-anchor="middle" dominant-baseline="alphabetic" font-family="Arial, sans-serif" font-size="16" style="fill: #0A0F25; font-weight: 700">Success Message</text>
<text x="296" y="370.5" text-anchor="middle" dominant-baseline="alphabetic" font-family="Arial, sans-serif" font-size="16" style="fill: #0A0F25; font-weight: 700">Error Message</text>
</g>
</svg>
